<svg xmlns="http://www.w3.org/2000/svg" width="64" height="64"><g transform="matrix(0.128 0 0 0.128 0 0)"><path d="M251 3L244.6 45 240.3 61.4 225 65.4 184 72 184 73 225 80.2 240.4 83.6 243.7 98 250 139 252 139 261 82C278.8 82 299.7 77.3 317 73L317 73 317 72 276 65.6 261.9 61.6 258.4 47 251 3z" fill="#FFF"/><path d="M254 19C255.1 27.4 255.5 42.6 260 49.7 270.9 66.9 301.5 71.6 320 72L320 72 320 73 300 76C304.7 84.5 319 91 327 96.3 348.5 110.7 372.3 124.2 392 141 382.3 145.2 373.2 151.2 364 156.4 360.7 158.3 356 162.3 352 162.1 344 161.7 332.5 149.8 326 145.3 304.4 130.6 282.6 111.2 259 100 257.6 104.4 254.8 113.2 256.6 117.7 259.4 124.4 273.2 130.4 279 134.6 292.6 144.2 306.3 153.5 320 163 326.3 167.3 335.6 171.6 340.4 177.5 345.3 183.6 342 201.4 342 209 342 232.7 343 256.3 343 280 343 288 346.4 300.5 343.4 307.9 341.7 312.1 336.4 314.8 333 317.4 324 324 314.9 330.4 306 337.1 293.4 346.6 280.7 355.8 268 365.1 263.4 368.5 256.7 375.6 251 376.8 244.8 378 232.8 365.7 228 362.1 212 350.2 196 338.3 180 326.4 173.4 321.4 163.4 316.6 158.6 309.8 154.1 303.5 158 287.6 158 280 158 254.2 157.7 226.6 160.7 201 161.5 194.3 158.7 183.8 162.6 178.1 166.2 172.9 173.9 169.1 179 165.7 189.7 158.5 200.1 150.8 211 144L211 144 211 142C199.1 135.5 193.1 144.7 183 151L183 151 194 135 164 154.4 151 162.1 139 156.4 111 140 205 78 205 77 182 73 182 72C199.8 71.2 231.3 68.1 242 51.7 246.9 44.2 246.4 29.7 248 21 233.9 27.7 221 38.4 208 47L208 47 133 97 102 117.7C98 120.3 91.5 123.1 89 127.3 82.6 138 87 160.7 85.8 173 81.6 217.8 82 263.1 78.9 308 78 321 77.8 334 76.9 347 76.5 352.4 74.3 359.8 77 364.9 81.8 373.8 97 381.6 105 387.6 127.1 404.3 149.3 420.9 171 438 189.8 452.8 208.9 467.2 228 481.6 233 485.4 242.6 496 249 496 255.9 496 265.8 484.9 271 480.9 289.3 467 307.6 453.2 326 439.4 349 422.1 372 404.7 395 387.4 403 381.4 418.2 373.8 423 364.9 426 359.3 424 349 423.3 343 422 332.1 422 320 422 309 421.9 264.9 420.1 220 417.1 176 416.4 165.5 416 154.5 416 144 416 139.4 417.3 132.6 415.4 128.3 413.5 124 406.7 121.2 403 118.7 392.9 112 383.1 105 373 98.3 349 82.3 324.8 66.4 301 50 285.9 39.6 270.6 26.8 254 19z" fill="#00366B"/><path d="M254 22L254 25 255 25 254 22z" fill="#9FB4C8"/><path d="M247.3 23.7L247.7 24.3 247.3 23.7z" fill="#507599"/><path d="M247 25L247 28 248 28 247 25z" fill="#AFC0D1"/><path d="M255.3 26.7L255.7 27.3 255.3 26.7z" fill="#406890"/><path d="M255 28L255 31 256 31 255 28z" fill="#9FB4C8"/><path d="M246.3 29.7L246.7 30.3 246.3 29.7z" fill="#507599"/><path d="M246 31L246 34 247 34 246 31z" fill="#AFC0D1"/><path d="M256.3 32.7L256.7 33.3 256.3 32.7z" fill="#406890"/><path d="M256 34L256 37 257 37 256 34z" fill="#9FB4C8"/><path d="M245.3 35.7L245.7 36.3 245.3 35.7z" fill="#507599"/><path d="M245 37L245 40 246 40 245 37z" fill="#AFC0D1"/><path d="M257.3 38.7L257.7 39.3 257.3 38.7z" fill="#406890"/><path d="M257 40L257 43 258 43 257 40z" fill="#9FB4C8"/><path d="M244.3 41.7L244.7 42.3 244.3 41.7z" fill="#406890"/><path d="M244 43L244 46 245 46 244 43z" fill="#9FB4C8"/><path d="M258 45L258 48 259 48 258 45z" fill="#708EAC"/><path d="M243.3 47.7L243.7 48.3 243.3 47.7z" fill="#406890"/><path d="M243 49L243 52 244 52 243 49z" fill="#9FB4C8"/><path d="M259 50C261.8 64.3 267.5 65.9 282 66L282 66 282 65 259 50z" fill="#14C4F4"/><path d="M242 52L223 66C231.4 64.4 245.9 64.6 242 52z" fill="#48FBFF"/><path d="M259 52L259 55 260 55 259 52z" fill="#98E5FA"/><path d="M260 57L260 60 261 60 260 57z" fill="#7BDEF9"/><path d="M217.7 66.3L218.3 66.7 217.7 66.3z" fill="#507599"/><path d="M219.7 66.3L220.3 66.7 219.7 66.3z" fill="#AFC0D1"/><path d="M281.7 66.3L282.3 66.7 281.7 66.3z" fill="#98E5FA"/><path d="M283.7 66.3L284.3 66.7 283.7 66.3z" fill="#406890"/><path d="M211.7 67.3L212.3 67.7 211.7 67.3z" fill="#507599"/><path d="M213 67L213 68 216 68 213 67z" fill="#AFC0D1"/><path d="M287 67L287 68 290 68 287 67z" fill="#8FA7BE"/><path d="M205.7 68.3L206.3 68.7 205.7 68.3z" fill="#507599"/><path d="M207 68L207 69 210 69 207 68z" fill="#AFC0D1"/><path d="M293 68L293 69 296 69 293 68z" fill="#8FA7BE"/><path d="M199 69L199 70 202 70 199 69z" fill="#6081A3"/><path d="M299 69L299 70 302 70 299 69z" fill="#8FA7BE"/><path d="M193 70L193 71 196 71 193 70z" fill="#6081A3"/><path d="M305 70L305 71 308 71 305 70z" fill="#9FB4C8"/><path d="M187 71L187 72 190 72 187 71z" fill="#6081A3"/><path d="M311 71L311 72 314 72 311 71z" fill="#9FB4C8"/><path d="M182 72L182 73 186 74 186 73 182 72z" fill="#6081A3"/><path d="M315 73L315 74 320 73 315 73z" fill="#8FA7BE"/><path d="M189.7 74.3L190.3 74.7 189.7 74.3z" fill="#507599"/><path d="M191 74L191 75 194 75 191 74z" fill="#AFC0D1"/><path d="M309 74L309 75 312 75 309 74z" fill="#8FA7BE"/><path d="M195.7 75.3L196.3 75.7 195.7 75.3z" fill="#507599"/><path d="M197 75L197 76 200 76 197 75z" fill="#AFC0D1"/><path d="M303 75L303 76 306 76 303 75z" fill="#8FA7BE"/><path d="M201.7 76.3L202.3 76.7 201.7 76.3z" fill="#507599"/><path d="M203.7 76.3L204.3 76.7 203.7 76.3z" fill="#AFC0D1"/><path d="M298.7 76.3L299.3 76.7 298.7 76.3z" fill="#708EAC"/><path d="M111 140L139 157 151 162.5 163 155.9 186 140.3 196 131.8 184 112C188.8 115.5 196.8 124.1 203 124.2 209.4 124.2 218.4 115 223 111L223 111 221 116C226.7 112.8 241 105.9 243.3 99.7 249.6 82.1 231.5 81.2 220 79.2 215.5 78.5 209.5 76.4 205 77.7 194.7 80.7 183.9 91.1 175 97 153.6 111.3 132.3 125.6 111 140z" fill="#48FBFF"/><path d="M261 82C260.6 86.8 257.6 95.3 260 99.7 263.5 105.8 274.3 110.5 280 114.3 296.4 125.5 312.9 136.6 329 148.1 334.7 152.2 344.8 162.3 352 162.5 356.4 162.6 361.3 158.5 365 156.4 374 151.3 383.2 146.4 392 141L392 141 371 125.6 324 93.7 298 77.3 261 82z" fill="#14C4F4"/><path d="M274 80L274 81 277 81 274 80zM259 92L259 95 260 95 259 92 274 80z" fill="#6CDAF8"/><path d="M258.3 97.7L258.7 98.3 258.3 97.7z" fill="#8AE2FA"/><path d="M258.3 99.7L258.7 100.3 258.3 99.7z" fill="#406890"/><path d="M244 101C238.5 103.1 233.8 106.9 229 110.3 223.9 113.8 198.9 133.2 215.2 138.7 219.4 140.1 225.9 133.7 229 131.4 233.8 128 244.3 123.7 246.3 117.8 247.8 113.3 245.1 105.5 244 101z" fill="#00366B"/><path d="M244.3 101.7L244.7 102.3 244.3 101.7z" fill="#708EAC"/><path d="M257.3 103.7L257.7 104.3 257.3 103.7z" fill="#809BB5"/><path d="M257.3 105.7L257.7 106.3 257.3 105.7z" fill="#406890"/><path d="M245 106L245 109 246 109 245 106z" fill="#8FA7BE"/><path d="M256.3 109.7L256.7 110.3 256.3 109.7z" fill="#809BB5"/><path d="M222 111L221 114 222 111z" fill="#AFFDFF"/><path d="M256.3 111.7L256.7 112.3 256.3 111.7z" fill="#406890"/><path d="M184 112L195.4 131 185 149 203 138.7 222 150 210.6 131 221 113 203 123.6 184 112z" fill="#FFF"/><path d="M246 112L246 115 247 115 246 112z" fill="#9FB4C8"/><path d="M255 115L255 118 256 118 255 115z" fill="#8FA7BE"/><path d="M247 118L247 121 248 121 247 118z" fill="#A7E9FB"/><path d="M255 118L252 142 251 142 247 119 215 140 222 150C218.9 148.1 214.9 143.8 211 144.2 206.9 144.5 202.3 149.1 199 151.3 189.9 157.4 180.9 163.5 172 169.9 168.2 172.6 163 174.9 162.1 180 160.1 193 161.3 206.9 161 220 160.5 238.3 159 256.7 159 275 159 285 154.7 300.4 158.6 309.8 161.6 317.1 174.8 323.2 181 327.9 196 339.1 211 350.2 226 361.4 232.4 366.2 240.4 374.4 248 377 254.5 379.2 266.1 367.3 271 363.6 288.9 350.3 307 337.1 325 323.9 330.5 319.8 342.3 314.5 342.9 307 345.7 276.4 341.8 243.7 341 213 340.8 203.6 344.7 185.4 340 177.2 336 170.1 323.5 164.8 317 160.1 297.4 146.2 276.7 128.3 255 118z" fill="#14C4F4"/><path d="M216 120L217 121 216 120z" fill="#8FA7BE"/><path d="M254 121L254 124 255 124 254 121z" fill="#98E5FA"/><path d="M214 123L215 124 214 123z" fill="#708EAC"/><path d="M248 124L248 127 249 127 248 124z" fill="#A7E9FB"/><path d="M211 127L212 128 211 127z" fill="#809BB5"/><path d="M253 127L253 130 254 130 253 127z" fill="#98E5FA"/><path d="M249 130L249 133 250 133 249 130z" fill="#A7E9FB"/><path d="M210 133L211 134 210 133z" fill="#809BB5"/><path d="M252 133L252 136 253 136 252 133z" fill="#A7E9FB"/><path d="M194 134L195 135 194 134z" fill="#245B87"/><path d="M193 136L194 137 193 136z" fill="#809BB5"/><path d="M202.7 137.3L203.3 137.7 202.7 137.3z" fill="#406890"/><path d="M199 139L200 140 199 139z" fill="#8FA7BE"/><path d="M206 139L207 140 206 139z" fill="#708EAC"/><path d="M251 139L251 142 252 142 251 139z" fill="#A7E9FB"/><path d="M209 141L210 142 209 141z" fill="#8FA7BE"/><path d="M195 142L196 143 195 142z" fill="#708EAC"/><path d="M188 143L189 144 188 143z" fill="#809BB5"/><path d="M110 144L110 153 111 153 112 144 110 144z" fill="#0A7DB0"/><path d="M192 144L193 145 192 144z" fill="#8FA7BE"/><path d="M111 145L102 345 129 323.3 139.4 312.9 140.1 290 142.1 227 144 189 143.7 174 135 165 111 145z" fill="#14C4F4"/><path d="M398 345L393 145 369 164.1 359.6 174 359 201 360.9 269 361 300 362 313.9 373 324.4 398 345z" fill="#1D71D6"/><path d="M188 147L189 148 188 147z" fill="#708EAC"/><path d="M184.7 149.3L185.3 149.7 184.7 149.3z" fill="#8FA7BE"/><path d="M183.7 150.3L184.3 150.7 183.7 150.3z" fill="#507599"/><path d="M109 164L109 175 110 175 109 164z" fill="#0A7DB0"/><path d="M358 174L358 192 359 192 358 174z" fill="#0F54A1"/><path d="M144 175L144 189 145 189 144 175zM341 177L341 188 342 188 341 177 144 175z" fill="#055A8D"/><path d="M161 178L161 186 162 186 161 178zM108 186L108 197 109 197 108 186 161 178z" fill="#0A7DB0"/><path d="M161 186L161 194 162 194 161 186z" fill="#0FA1D2"/><path d="M178 308C194.7 320 211.4 332 228 344.2 233.7 348.3 242 357.2 249 358.4 253.1 359 257 355.1 260 352.9 268.6 346.5 277.3 340.2 286 334 296.4 326.6 306.6 318.9 317 311.4 321.1 308.5 327.4 305.4 330 300.8 334.2 293.3 331 276.6 331 268L331 268 331 186C317.3 192.1 304.8 205.7 293 215 268.3 234.5 243.6 254 219 273.6 207.2 283 184.8 294.6 178 308z" fill="#0590E5"/><path d="M341 188L341 203 342 203 341 188z" fill="#0A7DB0"/><path d="M160 202L160 217 161 217 160 202zM143 203L143 217 144 217 143 203 160 202z" fill="#055A8D"/><path d="M341 203L341 219 342 219 341 203z" fill="#0FA1D2"/><path d="M107 208L107 219 108 219 107 208z" fill="#0A7DB0"/><path d="M359 216L359 240 360 240 359 216z" fill="#0F54A1"/><path d="M160 217L160 226 161 226 160 217zM142 223L142 231 143 231 142 223 160 217z" fill="#0FA1D2"/><path d="M106 230L106 241 107 241 106 230z" fill="#0A7DB0"/><path d="M142 231L142 245 143 245 142 231zM159 233L159 249 160 249 159 233zM342 234L342 249 343 249 342 234 142 231z" fill="#055A8D"/><path d="M159 249L159 258 160 258 159 249z" fill="#0FA1D2"/><path d="M342 249L342 265 343 265 342 249z" fill="#0A7DB0"/><path d="M141 251L141 259 142 259 141 251z" fill="#0FA1D2"/><path d="M105 252L105 263 106 263 105 252z" fill="#0A7DB0"/><path d="M141 259L141 272 142 272 141 259zM158 265L158 273 159 273 158 265 141 259z" fill="#055A8D"/><path d="M342 265L342 280 343 280 342 265z" fill="#0FA1D2"/><path d="M360 265L360 289 361 289 360 265z" fill="#0F54A1"/><path d="M158 273L158 281 159 281 158 273zM104 274L104 285 105 285 104 274 158 273z" fill="#0A7DB0"/><path d="M158 281L158 289 159 289 158 281z" fill="#0FA1D2"/><path d="M140 286L140 300 141 300 140 286zM343 295L343 310 344 310 343 295 140 286z" fill="#055A8D"/><path d="M103 296L103 307 104 307 103 296z" fill="#0A7DB0"/><path d="M157 297L157 310 158 310 157 297z" fill="#055A8D"/><path d="M102 318L102 329 103 329 102 318z" fill="#0A7DB0"/><path d="M102 350C116.2 367.4 141 380.9 159 394.4 179.1 409.4 198.9 424.8 219 439.9 228.3 446.9 237.6 455.7 248 461 247.4 447.3 245.4 433.7 245 420 244.9 414.1 245.9 403.4 243 398.2 238.8 390.8 226.7 385.1 220 380.1 202.9 367.5 186 354.6 169 341.9 163.4 337.7 152.1 325.9 145 325.9 140.6 326 135.6 330.3 132 332.4 122 338.3 111.7 343.6 102 350z" fill="#1D71D6"/><path d="M251 461L313 414.9 398 351C390.7 342.4 376.7 337.2 367 331.5 363.8 329.6 358.9 325.7 355 325.9 347.6 326.3 336.9 337.9 331 342.2 313.6 354.9 296.3 367.7 279 380.6 272.3 385.6 261.3 390.8 257 398.1 253.4 404.2 254.3 415.1 254 422 253.3 435 251 447.9 251 461z" fill="#0457AA"/><path d="M398 336L398 346 399 346 398 336z" fill="#0F54A1"/></g></svg>
