<svg xmlns="http://www.w3.org/2000/svg" viewBox="0 0 96 96">
  <g id="Layer_2" data-name="Layer 2">
    <g id="Layer_1-2" data-name="Layer 1">
      <path d="M59,0V0a8.3,8.3,0,0,1,1.45.68A11.89,11.89,0,0,1,64,3.27a3.56,3.56,0,0,1,.79,1.37c.08.27.06.58-.26.68a1.79,1.79,0,0,1-1-.1,19.11,19.11,0,0,1-2.07-.78,9.11,9.11,0,0,0-4.94-.73,3.43,3.43,0,0,0,.79,0A8.6,8.6,0,0,1,59,4.06c1.61.44,3.08,1.2,4.63,1.77a5.83,5.83,0,0,0,1.63.41.93.93,0,0,0,.65-.12c.21-.17.15-.49.08-.71A6.26,6.26,0,0,0,65,3.77,9.46,9.46,0,0,0,60.82.57,6.7,6.7,0,0,0,59,0Z" fill="#fff680"/>
      <path d="M59,0c.32.41.81.71,1.16,1.11a5.68,5.68,0,0,1,.5.6c.15.18.55.61.46.86s-1,.17-1.26.13a9.23,9.23,0,0,0-2.66-.32,1.07,1.07,0,0,0-.93,1.36A8.72,8.72,0,0,1,61,4.26a25.86,25.86,0,0,0,2.45,1,2.1,2.1,0,0,0,1.11.11c.28-.09.3-.4.24-.64a3.5,3.5,0,0,0-.78-1.41A11.6,11.6,0,0,0,60.47.71,7.67,7.67,0,0,0,59,0Z" fill="#ff6969"/>
      <path d="M57.12,3.64v0h1.14Z" fill="#ffc077"/>
      <path d="M44.26,21.58a10.45,10.45,0,0,0,1,1.63,4,4,0,0,0,.53.92,7.68,7.68,0,0,0,1.47.79l.87.49a.91.91,0,0,0,.41.19,3.33,3.33,0,0,0,1-.36c.59-.21,1.2-.38,1.8-.54a14.41,14.41,0,0,1,5-.42v0a20.14,20.14,0,0,0-4.11-1v0c1-.13,2-.48,3-.69a44.38,44.38,0,0,1,7.09-.92,19.11,19.11,0,0,1,4.14.13c1.76.32,3.9.89,4.37,2.81a2.83,2.83,0,0,1,.09.87,5.55,5.55,0,0,1-.4,1.7,10.75,10.75,0,0,1-.82,1.71c-.09.16-.21.48-.4.54a2,2,0,0,1-.69,0c-.56,0-1.14-.09-1.7-.1-.19,0-.57-.12-.73,0s-.16.39-.21.53c-.15.45-.33.89-.48,1.34-.42,1.19-1,2.35-1.46,3.51a8.31,8.31,0,0,0-.68,1.53l2.22.17a41.78,41.78,0,0,0,2-4.64,12.36,12.36,0,0,0,.64-2h0a20.33,20.33,0,0,1-1,5.34c-.15.5-.35,1-.47,1.47l1.1.14a23,23,0,0,1,1.18-3.08c1.15-2.84,2.51-5.67,3-8.71a6.26,6.26,0,0,0-.06-3,1.54,1.54,0,0,0-1.25-1.1v0c1.18.05,2.11,1.37,2.46,2.34h0c-.4-1.86-2.23-2.68-4-2.91a2.92,2.92,0,0,0,.62-1.5,3,3,0,0,0-.56-1.71,10.46,10.46,0,0,0-2.89-2.85c-3.23-2.27-7.1-3.33-10.69-4.92A18.66,18.66,0,0,1,51.76,7,6.23,6.23,0,0,1,50.6,6c-.33-.44.17-.83.54-1a9.18,9.18,0,0,1,2.28-.9,2.17,2.17,0,0,1,1-.15c-.13-.14-.42-.06-.59,0-.45,0-.93,0-1.38.07A29.55,29.55,0,0,0,46,4.82a5.35,5.35,0,0,0-1.56.59.71.71,0,0,0-.4.67c.18,1.17,1.63,2.05,2.58,2.61,2.54,1.51,5.5,2.5,7.64,4.57A3.36,3.36,0,0,1,55.31,17a4,4,0,0,1-1,1.24,7.55,7.55,0,0,1-1.73,1.09,19.86,19.86,0,0,1-3.39,1.23A36.08,36.08,0,0,1,44.26,21.58Z" fill="#ff6969"/>
      <path d="M69.08,20.14a8.46,8.46,0,0,1,2.28.68c.34.18.58.48.9.66,0-2.3-1.23-4.15-2.79-5.82C66.39,12.37,62.11,10.25,58,8.53,56.58,8,55.13,7.59,53.77,7a4.13,4.13,0,0,1-1.84-1.2.78.78,0,0,1,.25-1.06,3.86,3.86,0,0,1,2.17-.84c-.26-.11-.67.07-.93.14A8.64,8.64,0,0,0,51,5c-.37.25-.71.65-.37,1.06a7.19,7.19,0,0,0,1.44,1.19,20.34,20.34,0,0,0,3.46,1.89C59,10.68,62.67,11.7,65.8,13.79a11.9,11.9,0,0,1,3.23,3,3.17,3.17,0,0,1,.67,1.77A3.89,3.89,0,0,1,69.08,20.14Z" fill="#ffce7a"/>
      <path d="M48.61,4.78l.52-.47a.79.79,0,0,0-.52.47m-.06.06c-.74.93-.28,1.83.62,2.45a12,12,0,0,0,3.59,1.46,8.1,8.1,0,0,0,1.66.37v0A29.73,29.73,0,0,1,50.27,7a4.32,4.32,0,0,1-1.59-1.47A2.16,2.16,0,0,1,48.55,4.84Z" fill="#fff680"/>
      <path d="M48.13,5.64V6h0Z" fill="#ffc077"/>
      <path d="M35.62,51.54a6.33,6.33,0,0,0-1.39.72,17.34,17.34,0,0,1-2.42,1.05,22.32,22.32,0,0,1-10.78,1,21.37,21.37,0,0,1-10.13-4.5A20.21,20.21,0,0,1,3.36,35.34,19,19,0,0,1,4,29.29a19.86,19.86,0,0,1,2.6-5.84A21.44,21.44,0,0,1,33.4,15.89a21.09,21.09,0,0,1,6.85,5,19.45,19.45,0,0,1,4.33,7.55,19.94,19.94,0,0,1,.47,9.82,22.93,22.93,0,0,1-.81,2.8,8.09,8.09,0,0,0-.47,1.24,5.93,5.93,0,0,0,.94-.63q.8-.55,1.62-1c.3-.19.88-.38,1.07-.67a2.49,2.49,0,0,0,.23-.86c.13-.62.25-1.24.33-1.87a22.94,22.94,0,0,0-.36-8A23.88,23.88,0,0,0,26.83,11.3a25.4,25.4,0,0,0-13.65,2.49A23,23,0,0,0,7.27,18,22.74,22.74,0,0,0,1.39,41.12a23.24,23.24,0,0,0,4,7.41A23.76,23.76,0,0,0,11.76,54a24.45,24.45,0,0,0,17.15,3c1.14-.24,2.24-.53,3.35-.88a5,5,0,0,0,1.44-.57c.28-.22.41-.89.55-1.2C34.66,53.34,35.21,52.47,35.62,51.54Z" fill="#fff"/>
      <path d="M42.94,11.56a11.81,11.81,0,0,1-4.49,1.79c-.63.13-1.91.32-2.21,1a32.81,32.81,0,0,1,3.94,2.77c.5.44,1,.9,1.45,1.37.21.2.39.5.66.63a1.28,1.28,0,0,0,.2-.5c0-.47-.61-.78-1-1a8,8,0,0,1-2-1.45,1.58,1.58,0,0,1-.49-.83c0-.49.65-.74,1-.86,1.18-.37,3.7-.49,3.14-2.28A1.38,1.38,0,0,0,42.94,11.56Z" fill="#ff6969"/>
      <path d="M43,11.56a3.11,3.11,0,0,1,.34,1.07c0,1.36-2.08,1.49-3.07,1.76-.41.11-1.09.3-1.17.77s.34.86.62,1.14a7.65,7.65,0,0,0,1.52,1.12,4.09,4.09,0,0,1,1.08.75c.34.4,0,.52,0,.9,0,.16.34.53.48.61s.75-.38.87-.54c.43-.54,0-1.08-.46-1.39a25.87,25.87,0,0,1-2.29-1.44c-.23-.19-.62-.47-.67-.78-.09-.51,1-.67,1.3-.74,1-.22,2.79-.81,2.3-2.16a1.94,1.94,0,0,0-.31-.54,2.26,2.26,0,0,0-.54-.53m14.83.26A8.77,8.77,0,0,0,59,13.09a20.75,20.75,0,0,0,2.67,2.37,2.51,2.51,0,0,0,1.21.57c.13,0,.37,0,.44-.1s-.08-.33-.17-.43a5.2,5.2,0,0,0-.89-.8c-.92-.71-1.9-1.34-2.87-1.95A8.8,8.8,0,0,0,57.81,11.82Z" fill="#fff680"/>
      <path d="M65.23,12.27h0m.21.13h0m.35.24h0Z" fill="#ff6969"/>
      <path d="M23.51,13.93v0h.28Z" fill="#d8dffa"/>
      <path d="M23.79,13.93v0h.49Z" fill="#b1bef4"/>
      <path d="M24.28,13.94c-.54.07-1.09,0-1.63.06a23.2,23.2,0,0,0-3.8.64,21.29,21.29,0,0,0-13,10A20,20,0,0,0,7.06,45.83a21.14,21.14,0,0,0,6.33,5.79,20.52,20.52,0,0,0,5.46,2.29,22.42,22.42,0,0,0,8.12.56,21.25,21.25,0,0,0,6.64-1.89,8.4,8.4,0,0,0,2-1.09,2.9,2.9,0,0,0,.41-.62c.24-.4.48-.79.75-1.17a34.32,34.32,0,0,1,2.7-3.44,26.58,26.58,0,0,1,2.75-2.66,11.14,11.14,0,0,0,1.49-1.22,6.54,6.54,0,0,0,.7-1.76,19.07,19.07,0,0,0,1-5.28,20.3,20.3,0,0,0-8.6-17.5A21.71,21.71,0,0,0,26.25,14,10,10,0,0,0,24.28,13.94Z" fill="#627de9"/>
      <path d="M24.52,13.93v0H25Z" fill="#b1bef4"/>
      <path d="M23,14v0h.31Z" fill="#899eef"/>
      <path d="M25.62,14v0h.28Z" fill="#d8dffa"/>
      <path d="M27.32,14.13v0h.17Z" fill="#c4cef7"/>
      <path d="M21.09,14.16v0h.11l-.11,0m-.41.07v0h.1Z" fill="#bac6f5"/>
      <path d="M20.33,14.3v0h.11Z" fill="#a7b6f3"/>
      <path d="M28.41,14.31h0Z" fill="#b1bef4"/>
      <path d="M20.16,14.33v0h.11Z" fill="#a7b6f3"/>
      <path d="M28.59,14.34h0Z" fill="#b1bef4"/>
      <path d="M20,14.36v0h.1Z" fill="#a7b6f3"/>
      <path d="M28.74,14.36v0h.1Z" fill="#bac6f5"/>
      <path d="M19.7,14.44h0Z" fill="#a7b6f3"/>
      <path d="M29.07,14.44h0Z" fill="#b1bef4"/>
      <path d="M29.18,14.46v0h.11Z" fill="#a7b6f3"/>
      <path d="M62.82,16v0h.31Z" fill="#ffc077"/>
      <path d="M63,19.41l0,.26h.21Z" fill="#fff680"/>
      <path d="M15.84,34.37l2.42-1,3.6-1.57L23.55,31l.86-.32V22l.07-1.27c-.4,0-.54.48-.72.77-.48.78-1,1.55-1.46,2.33-1.52,2.45-3.05,4.88-4.57,7.32l-1.3,2.07A3.4,3.4,0,0,0,15.84,34.37Z" fill="#fdfdfe"/>
      <path d="M24.41,30.7l-.86.3-1.25.55-4.45,2-1.28.55-.76.28c0,.3.27.38.51.52l1.49.86,4.49,2.54a12,12,0,0,0,2.11,1.15V30.7a17.84,17.84,0,0,1,2.53,1c1.32.59,2.65,1.14,4,1.72a20.31,20.31,0,0,0,2.08.93c.08-.31-.2-.62-.35-.87l-1.21-1.94c-1.63-2.61-3.27-5.23-4.89-7.85-.48-.77-1-1.54-1.45-2.3-.09-.15-.32-.73-.56-.67s-.12.45-.12.57V30.7Z" fill="#bfcaf5"/>
      <path d="M70.6,20.71v0l.35,0Z" fill="#ffa773"/>
      <path d="M70.91,20.78v0c1.29.53,1.17,2.24,1.08,3.34-.26,3.16-1.79,6.18-3,9.08-.33.81-.66,1.62-1,2.44-.09.25-.19.8-.42.94v0a13.09,13.09,0,0,1,1.73.31c.15,0,.39.16.54.1s.14-.22.17-.31c.12-.31.24-.62.35-.93a6.9,6.9,0,0,0,.46-4.31A2.42,2.42,0,0,1,72.36,33c.6,1.48.19,3.22-.13,4.71l1.24.44a9.47,9.47,0,0,0,.21-1.91,9.43,9.43,0,0,0-.57-4.14,6.61,6.61,0,0,0-.94-1.57c-.14-.17-.51-.44-.52-.67s.21-.46.29-.63c.22-.43.41-.89.59-1.34.76-1.92,1.28-4,0-5.88A2.73,2.73,0,0,0,70.91,20.78Z" fill="#fff680"/>
      <path d="M72.26,20.88v.46h0Z" fill="#ff6969"/>
      <path d="M52.18,23.25v0l2,.3,2.14.67v0a15,15,0,0,0-7.78,1.34v0a67.92,67.92,0,0,1,8.12,5.48c.89.71,1.77,1.44,2.6,2.21a6.52,6.52,0,0,0,1.42,1.26A27.22,27.22,0,0,1,61.78,32c.08-.15.34-.76.58-.66s.24,1,.22,1.23c-.07.66-.08,1.33-.14,2a14.47,14.47,0,0,0-.17,1.6l1.11,0v0h-.11a16.13,16.13,0,0,1,.77-1.7c.47-1.07.92-2.15,1.34-3.24.18-.45.34-.91.5-1.37.05-.17.08-.46.22-.58s.57,0,.77,0c.53,0,1.09.07,1.62.1a2.57,2.57,0,0,0,.73.05c.24-.05.4-.53.51-.72a9.43,9.43,0,0,0,1-2.44,3.59,3.59,0,0,0,.11-1.13c-.16-2.25-2.4-3-4.35-3.34a17.78,17.78,0,0,0-4.25-.14,57.82,57.82,0,0,0-5.88.68C55,22.56,53.58,23,52.18,23.25Z" fill="#ff7b69"/>
      <path d="M72,22.48v.2h0Z" fill="#ffa773"/>
      <path d="M73.54,23.61c.64,1.22,1.84,1.95,2.7,3a13,13,0,0,0-2.15.81c-.19.07-.62.29-.81.14s-.11-.29-.12-.42a5.06,5.06,0,0,1,0-1.1h0a21.06,21.06,0,0,1-.95,2.7c-.14.32-.56.84-.55,1.17s.4.53.54.7a6.1,6.1,0,0,1,1,1.61,10.77,10.77,0,0,1,.35,6,31.14,31.14,0,0,1,5.29,2.57c.86.53,1.65,1.21,2.52,1.7A39.08,39.08,0,0,0,84.4,31c.14-1.88-.13-3.94-2.18-4.74-1.68-.66-3.31-.26-5,0v0c1.53-.2,3-.7,4.56-.77a8.4,8.4,0,0,1,1.49.17v0a7,7,0,0,0-4.43.06c-.47.13-.93.28-1.38.44a1.44,1.44,0,0,1-.59.18c-.29-.06-.64-.44-.86-.62-.55-.41-1.09-.84-1.59-1.29A4.33,4.33,0,0,0,73.54,23.61Z" fill="#ff6969"/>
      <path d="M73.58,23.68l.52.94,1.65,2.13.49-.16a7.24,7.24,0,0,0-1.32-1.27C74.43,24.82,74.08,24.15,73.58,23.68Z" fill="#ffce7a"/>
      <path d="M73.68,23.91a2.09,2.09,0,0,0,.3.64A5.08,5.08,0,0,0,75.1,26l-.73-1Z" fill="#ff6969"/>
      <path d="M45.78,24.18a2,2,0,0,0,.4.84,5.22,5.22,0,0,0,1.26.44c.86.34,1.71.88,2.59,1.13l-1.21-.77-1.9-1.08Z" fill="#fff680"/>
      <path d="M46.19,25.05c.16.55.45,1.06.64,1.6.07.21.12.59.29.74s.59.17.8.23c.66.18,1.31.39,1.94.63A27.46,27.46,0,0,1,55.18,31a13.42,13.42,0,0,1,3.63,3.24,6.3,6.3,0,0,1,.71,1.3c.07.18.09.51.22.65s.53,0,.7,0c.61,0,1.22-.07,1.83-.07,0-.52.11-1.05.17-1.57s.05-1.22.11-1.83c0-.33.14-1.17-.14-1.42s-.56.47-.63.61a14.57,14.57,0,0,0-1.13,2.64,10.67,10.67,0,0,1-1.32-1.2c-.51-.48-1-.94-1.59-1.39a54.16,54.16,0,0,0-5.25-3.91,26.23,26.23,0,0,0-2.84-1.69A12.73,12.73,0,0,0,46.19,25.05Z" fill="#ff7069"/>
      <path d="M81.6,25.45v0h.76Z" fill="#ff9470"/>
      <path d="M78.1,26v0c.4,0,.79-.1,1.18-.13a7.42,7.42,0,0,1,2.77.32,3.46,3.46,0,0,1,.86.43c1.51,1,1.58,2.74,1.49,4.36a30.37,30.37,0,0,1-1.8,7.91c-.28.8-.56,1.59-.87,2.38a7.86,7.86,0,0,0-.45,1.17l.9.66,1.19-2.84,1-2.3h0a29.78,29.78,0,0,1-.6,3.24A12.35,12.35,0,0,1,83.12,44l1.21,1.1a7.2,7.2,0,0,1,.36-1.2c.28-.93.57-1.86.77-2.81a28,28,0,0,0,.28-11.32c-.29-1.46-.83-3.41-2.36-4.11a6.56,6.56,0,0,0-3-.07A9.15,9.15,0,0,0,78.1,26Z" fill="#ffbf77"/>
      <path d="M83.43,25.68v0l.9.67A1.52,1.52,0,0,0,83.43,25.68Z" fill="#fff680"/>
      <path d="M73.16,25.82v.1h0Z" fill="#ff8c6f"/>
      <path d="M77.21,26.22v0l.93-.16C77.93,26,77.44,26.17,77.21,26.22Z" fill="#ff9971"/>
      <path d="M75.17,26.05l.1.14Z" fill="#ff6969"/>
      <path d="M50,26.59v0l.17.07v0Z" fill="#ffc076"/>
      <path d="M73.09,26.59c0,.4,0,1,.49,1A3,3,0,0,0,73.09,26.59Z" fill="#ffce7a"/>
      <path d="M47.09,27.42l.55,2,.35,1.9,1.07-.41,2.56-1c-.73,2.17-1.49,4.34-2.12,6.54a13.09,13.09,0,0,0-.75,2.84c1-.4,2-.89,3-1.25a31.9,31.9,0,0,1,5.63-1.46,16.1,16.1,0,0,1,2.49-.29c-.28-.25-.33-.81-.49-1.14A7.71,7.71,0,0,0,58,33.23a22.48,22.48,0,0,0-7.33-4.67A14.79,14.79,0,0,0,47.09,27.42Z" fill="#ff7f69"/>
      <path d="M85,27.42l.07.24h0Z" fill="#ff8b6f"/>
      <path d="M85.09,27.66l0,.13h0Z" fill="#ff7f6d"/>
      <path d="M4.06,29v0m40.69.07,0,0Z" fill="#a7b6f3"/>
      <path d="M77.72,38.88a7.73,7.73,0,0,0,1-1.77A12.26,12.26,0,0,0,80,32.57,4.37,4.37,0,0,0,79.87,31a2.86,2.86,0,0,0-1.21-1.57,2,2,0,0,0-2.71.7c-.19.47.23.66.53.94a5.22,5.22,0,0,1,1.28,1.84,8.48,8.48,0,0,1,.3,4.3C78,37.74,77.75,38.31,77.72,38.88Z" fill="#fff680"/>
      <path d="M44.86,29.45v0m-40.94.06,0,0,0,0m41,0v.1h0Z" fill="#a7b6f3"/>
      <path d="M3.89,29.65v0Z" fill="#b1bef4"/>
      <path d="M68.08,29.66v.27h0Z" fill="#ffb075"/>
      <path d="M84.43,29.73v.7h0Z" fill="#ff9470"/>
      <path d="M3.85,29.78l0,0Z" fill="#bac6f5"/>
      <path d="M68,29.79a32.88,32.88,0,0,1-1.46,4.11c-.35.81-.8,1.61-1.09,2.44a4.9,4.9,0,0,1,.76.08c.09,0,.26.08.35,0s.14-.29.18-.4c.12-.36.24-.73.34-1.1A27.11,27.11,0,0,0,68,31.16C68,30.77,68.21,30.17,68,29.79Z" fill="#fff680"/>
      <path d="M45,29.88v0Z" fill="#a7b6f3"/>
      <path d="M3.82,30v0Z" fill="#b1bef4"/>
      <path d="M48,31.33c0,.47.1.94.14,1.4a21.67,21.67,0,0,1-.37,5.81A12.39,12.39,0,0,0,47.44,40l.93-.47.35-.21.21-.76.46-1.67,1.38-4.44.85-2.5-1.07.39Z" fill="#ff7069"/>
      <path d="M45,30v0Z" fill="#bac6f5"/>
      <path d="M47.75,30v.1h0Z" fill="#ffbfb4"/>
      <path d="M3.77,30.09v.1h0Z" fill="#a7b6f3"/>
      <path d="M85.85,30.33c0,.93.27,1.9.34,2.84a25.54,25.54,0,0,1-.25,5.17A31.72,31.72,0,0,1,85,42.75q-.2.72-.42,1.44a3.37,3.37,0,0,0-.25.8c0,.21.23.37.37.5.38.37.76,1,1.24,1.27.28-1.19.72-2.35,1-3.54a19.83,19.83,0,0,0,.47-9.15,12.28,12.28,0,0,0-1-2.81A3.66,3.66,0,0,0,85.85,30.33Z" fill="#ff6969"/>
      <path d="M68,30.49v.17h0Z" fill="#ffb075"/>
      <path d="M24.41,30.7v8.71a1.77,1.77,0,0,0,.76-.32c.43-.24.86-.48,1.28-.73,1.56-.89,3.13-1.76,4.67-2.66.58-.34,1.69-.68,1.9-1.36a2.79,2.79,0,0,1-.72-.29l-1.39-.62c-1.31-.57-2.63-1.13-3.94-1.71A12.32,12.32,0,0,0,24.41,30.7Z" fill="#8197ed"/>
      <path d="M68,30.83V31h0Z" fill="#ffa773"/>
      <path d="M45.19,31.06v.17h0Z" fill="#9daef1"/>
      <path d="M67.94,31.06v.14h0Z" fill="#ffb075"/>
      <path d="M48,31.26v.14h0Z" fill="#ffb8b4"/>
      <path d="M70.88,31.5a7,7,0,0,1-.28,3.77c-.19.6-.5,1.19-.65,1.8l2.28.67A7.64,7.64,0,0,0,72.34,33,2.19,2.19,0,0,0,70.88,31.5Z" fill="#fffcce"/>
      <path d="M45.26,31.53v.13h0Z" fill="#a7b6f3"/>
      <path d="M48,31.56v.2h0Z" fill="#ffc0bd"/>
      <path d="M45.3,31.8v.13h0Z" fill="#b1bef4"/>
      <path d="M48,31.83V32h0l0-.17m0,.37v.2h0Z" fill="#ffb8b4"/>
      <path d="M80,32.4v.3h0Z" fill="#ffb075"/>
      <path d="M48.1,32.6v.27h0Z" fill="#ffb8b4"/>
      <path d="M3.39,32.7v.13h0Z" fill="#b1bef4"/>
      <path d="M80,32.87V33h0Z" fill="#ffb075"/>
      <path d="M45.4,33v.3h0Z" fill="#899eef"/>
      <path d="M48.13,33.17v.43h0Z" fill="#ffb8b4"/>
      <path d="M3.36,33.23v.44h0Z" fill="#899eef"/>
      <path d="M48.13,33.6V34h0Z" fill="#ffdbda"/>
      <path d="M45.43,33.67v.5h0Z" fill="#b1bef4"/>
      <path d="M86.19,33.77v1.67h0A4.91,4.91,0,0,0,86.19,33.77Z" fill="#ff9470"/>
      <path d="M3.32,34.07v.43h0Z" fill="#d8dffa"/>
      <path d="M45.43,34.37v.5h0Z" fill="#b1bef4"/>
      <path d="M78.14,34.47v.17h0Z" fill="#ffb075"/>
      <path d="M48.13,34.57V35h0Z" fill="#ffdbda"/>
      <path d="M45.43,34.87v.27h0Z" fill="#d8dffa"/>
      <path d="M78.17,34.87V36h0Z" fill="#ff8c6f"/>
      <path d="M48.13,35v.43h0Z" fill="#ff948f"/>
      <path d="M3.36,35.14v.33h0l0-.33m42,.33v.27h0Z" fill="#d8dffa"/>
      <path d="M48.1,35.71v.23h0Z" fill="#ffb8b4"/>
      <path d="M73.68,36.11v.3h0Z" fill="#ffb075"/>
      <path d="M61.51,36.17v0h.38Z" fill="#ff8e8e"/>
      <path d="M61.89,36.17v0H63Z" fill="#febcb4"/>
      <path d="M60.89,36.21v0h.38Z" fill="#fed8d9"/>
      <path d="M47.4,40a3.4,3.4,0,0,1-.93.58c-.58.34-1.14.71-1.69,1.09-.3.2-.68.6-1,.67-.12.23-.42.38-.62.54-.45.36-.89.71-1.32,1.09a32.49,32.49,0,0,0-3.61,3.81,28.62,28.62,0,0,0-4.37,28.49,28.49,28.49,0,0,0,4.06,7.18,30.57,30.57,0,0,0,5.93,5.82,31.74,31.74,0,0,0,28,4.74c1.14-.35,2.22-.88,3.35-1.24.33-.11.79.09,1.1-.07s.69-.76,1.11-1a41.38,41.38,0,0,0,4.39-2.87c1.27-1,2.35-2.12,3.51-3.22.36-.34,1.09-.28,1.41-.65a1.91,1.91,0,0,0,.22-.62,5,5,0,0,1,.53-1.34c.73-1.05,1.44-2.09,2.07-3.2a28.79,28.79,0,0,0,2.2-22.88,39.16,39.16,0,0,0-1.61-3.91c-.23-.48-.54-.92-.75-1.4l.13.06a.66.66,0,0,0-.27-.53l0,.3a32.27,32.27,0,0,0-5.12-6.54,31.47,31.47,0,0,0-33-6.53c-.87.34-1.72.71-2.56,1.12A3.66,3.66,0,0,1,47.4,40Z" fill="#fdfdfe"/>
      <path d="M63.65,36.21v0H64Z" fill="#feb3b4"/>
      <path d="M60.3,36.24v0h.28Z" fill="#fed8d9"/>
      <path d="M64.34,36.24v0h.28l-.28,0m.49,0v0H65Z" fill="#feb3b4"/>
      <path d="M24.24,47.73c.27.31.55-.16.7-.37l1.48-2C28,43.2,29.59,41,31.19,38.88l1.28-1.77c.12-.17.45-.46.46-.67s-.41,0-.5.05c-.5.3-1,.59-1.52.88l-4.7,2.7c-.41.23-.82.47-1.24.67-.16.08-.46.16-.56.3s0,.27,0,.38c0,.34,0,.69,0,1v3.78C24.41,46.68,24.55,47.36,24.24,47.73Z" fill="#bfcaf5"/>
      <path d="M65.24,36.31v0h.21Z" fill="#feb3b4"/>
      <path d="M24.24,47.73c.23-.19.17-.5.17-.77V45c0-1,0-1.91,0-2.87,0-.27.11-.86,0-1.09a1.17,1.17,0,0,0-.41-.27L23,40.23c-1.14-.65-2.3-1.29-3.43-2-.86-.51-1.74-1-2.62-1.5-.13-.07-.79-.53-.88-.32s.48.83.62,1l2.21,3,2.17,2.94C22.12,44.85,23.13,46.34,24.24,47.73Z" fill="#fdfdfe"/>
      <path d="M65.93,36.37v0h.21Z" fill="#fefabf"/>
      <path d="M58.23,36.44v0h.13Z" fill="#fec6bd"/>
      <path d="M58,36.47v0h.18Z" fill="#fecec6"/>
      <path d="M73.64,36.64v.2h0Z" fill="#ffb075"/>
      <path d="M45.26,36.84V37h0Z" fill="#bac6f5"/>
      <path d="M55.62,36.92h0Z" fill="#febeb4"/>
      <path d="M3.53,37v.14h0Z" fill="#c4cef7"/>
      <path d="M73.61,37v.16h0Z" fill="#ffb075"/>
      <path d="M3.57,37.21v.17h0Z" fill="#c4cef7"/>
      <path d="M73.58,37.31v.13h0Z" fill="#ffb075"/>
      <path d="M45.16,37.54v.1h0Z" fill="#a7b6f3"/>
      <path d="M47.89,37.64v.1h0Z" fill="#ffafab"/>
      <path d="M45.12,37.74v.1h0l0-.1m-41.45.1v.1h0Z" fill="#a7b6f3"/>
      <path d="M84.36,38l-1.61,3.74-.4,1-.13.4.24.26.69.55a26.24,26.24,0,0,0,1-4.28c.08-.37.13-.74.19-1.1A1,1,0,0,0,84.36,38Z" fill="#9c964e"/>
      <path d="M45.05,38.11v.1h0l0-.1m0,.17v.1h0Z" fill="#a7b6f3"/>
      <path d="M3.79,38.4v0Z" fill="#b1bef4"/>
      <path d="M47.75,38.41v.1h0Z" fill="#ffc0bd"/>
      <path d="M45,38.47v0Z" fill="#a7b6f3"/>
      <path d="M3.81,38.54v.1h0Z" fill="#bac6f5"/>
      <path d="M45,38.63v0Z" fill="#b1bef4"/>
      <path d="M47.73,38.63v0Z" fill="#ffb8b4"/>
      <path d="M3.85,38.7l0,0Z" fill="#a7b6f3"/>
      <path d="M47.69,38.8v0Z" fill="#ffb8b4"/>
      <path d="M3.89,38.87v0m41,.06v0Z" fill="#bac6f5"/>
      <path d="M47.65,38.94v.11h0Z" fill="#ffafab"/>
      <path d="M60.89,39v0H64a2.26,2.26,0,0,0-1,0Z" fill="#d6ede7"/>
      <path d="M61.89,38.94v0h1.42A4.49,4.49,0,0,0,61.89,38.94Z" fill="#a3f2da"/>
      <path d="M59.88,39.05v0l.07.07-3.18.36v.1a9.43,9.43,0,0,0-1.94.46,21.36,21.36,0,0,0-4.38,1.56c-.42.19-.87.43-1.27.66a2.65,2.65,0,0,1-.88.46,6.22,6.22,0,0,1-1.52,1,22.76,22.76,0,0,0-2.48,1.88,28.21,28.21,0,0,0-6.23,7.63,24.44,24.44,0,0,0-2.2,5.38c-.15.55-.27,1.12-.41,1.67-.05.17,0,.45-.19.56a1.92,1.92,0,0,1-.21,1.27v.6h0v-.07h0c0,.2.13.55-.07.67l0,2.41,0,1.13.05,1.27c.2.12.08.44.07.64l.11,0a14.54,14.54,0,0,0,.63,3.57,4.7,4.7,0,0,1,.4,1.61c.18.1.1.23.15.4s.38.59.34.93c.28.17.38.79.5,1.07.42,1,1,1.85,1.4,2.81l.27.3.49.9c.24.07.48.57.62.77A23.52,23.52,0,0,0,41.37,83a25.71,25.71,0,0,0,4.18,3.89c.59.43,1.17.85,1.79,1.24a3.81,3.81,0,0,1,1,.66l.35.2a1.69,1.69,0,0,1,.86.47l.14.06a2.08,2.08,0,0,1,1.11.54l.14.06.62.27c.29,0,.54.17.8.26.67.22,1.32.47,2,.68.24.08.76.12.9.33.23,0,.79,0,.93.23l1.73.27,0,.07,1.49.13v0h-.07v0l.56,0v.1l.75,0,.39.09h3.63v-.1l1.34,0,0-.1a8.45,8.45,0,0,0,1.73-.22A3.2,3.2,0,0,1,68.74,92c.1-.15.31-.15.48-.18a4.91,4.91,0,0,1,1.49-.32,1.2,1.2,0,0,1,.5-.22c.41-.16.84-.27,1.25-.43,1.26-.5,2.5-1.06,3.71-1.62.49-.23,1.06-.92,1.62-.94.17-.32.77-.57,1.07-.79a22.23,22.23,0,0,0,2.29-1.78,27.14,27.14,0,0,0,4.13-4.51c.48-.67.93-1.37,1.41-2,.15-.21.26-.66.47-.8l.49-1.2h.13l.21-.73h.14c.21-.74.59-1.45.84-2.17a22.17,22.17,0,0,0,1.13-5.11l.07,0,0-.57h.1l0-.73h.07V68h0l0-1.54.07.07h0l-.07-2.81h0v.07h0a24.78,24.78,0,0,0-.54-3.61,5.72,5.72,0,0,1-.39-1.83c-.2-.12-.23-.49-.3-.69-.24-.65-.43-1.33-.73-2-.09-.18-.13-.6-.32-.67a2.66,2.66,0,0,0-.45-1,19.24,19.24,0,0,0-1-1.84c-.62-1-1.23-2-1.93-2.84a27.78,27.78,0,0,0-4-4,29.16,29.16,0,0,0-2.62-1.9c-.26-.16-.94-.42-1-.71L75.47,42l-3.09-1.3L71,40.23,70.46,40a4.35,4.35,0,0,1-1.22-.25c-.5-.13-1-.17-1.53-.31-.21-.07-.64,0-.77-.2l-.49,0,0-.1H65.9l0-.07L64.21,39Z" fill="#feebf4"/>
      <path d="M60.09,39.05v0l.62,0Z" fill="#d5ece8"/>
      <path d="M64.52,39v0l.52,0Z" fill="#d6ede7"/>
      <path d="M44.86,39.07v0Z" fill="#b1bef4"/>
      <path d="M58.36,39.25v0L60,39.15v-.07Z" fill="#d5ece8"/>
      <path d="M65.35,39.08v0l.45,0-.45-.07m.55.07v0l.45,0Z" fill="#d6ede7"/>
      <path d="M66.45,39.21v.07h.38Z" fill="#d7ede7"/>
      <path d="M57.19,39.45v0l1-.13v-.07Z" fill="#dceceb"/>
      <path d="M66.94,39.28v.07a17.9,17.9,0,0,1,3.45.7,2.57,2.57,0,0,0-1-.3A12.57,12.57,0,0,0,66.94,39.28Z" fill="#d7eee7"/>
      <path d="M44.75,39.47l0,0,0,0m-40.69.07v0Z" fill="#bac6f5"/>
      <path d="M47.52,39.57v0Z" fill="#ffafab"/>
      <path d="M54.63,40.05v0l2.14-.47v-.06Z" fill="#d4ebe8"/>
      <path d="M70.46,40.05v0l.56.13v0Z" fill="#d3efe6"/>
      <path d="M71,40.21v.07l.76.24,1.67.61,1,.39A4.21,4.21,0,0,0,73.3,41,9.08,9.08,0,0,0,71,40.21Z" fill="#dceee8"/>
      <path d="M24.38,41.22v3.07h0V42.15Z" fill="#dee4fa"/>
      <path d="M50.79,41.48v0l.42-.17Z" fill="#bceae4"/>
      <path d="M74.44,41.52v0l1,.43v0Z" fill="#d3eee5"/>
      <path d="M49.27,42.22v0a1.55,1.55,0,0,0,.83-.43Z" fill="#bbe9e4"/>
      <path d="M75.55,42.05l.38.2v0Z" fill="#d8f2e9"/>
      <path d="M75.93,42.25a1.84,1.84,0,0,0,.83.47A2,2,0,0,0,75.93,42.25Z" fill="#caf2e3"/>
      <path d="M48.79,42.49v0l.34-.2-.34.17m-.45.3.31-.2Z" fill="#c7e9e7"/>
      <path d="M76.83,42.75l.69.46,1.07.64v0A7.09,7.09,0,0,0,76.83,42.75Z" fill="#d4efe5"/>
      <path d="M47.75,43.09v0a1.08,1.08,0,0,0,.55-.33Z" fill="#bee8e5"/>
      <path d="M46.71,43.75v0a2.67,2.67,0,0,0,1-.67Z" fill="#c6e8e7"/>
      <path d="M46.23,44.09v0l.48-.33Z" fill="#cae8e9"/>
      <path d="M78.59,43.85l1.08.83L81.5,46.2l1.12,1.1.57.5a5.59,5.59,0,0,0-1.11-1.17,25.92,25.92,0,0,0-2.32-2A6,6,0,0,0,78.59,43.85Z" fill="#c0f4e1"/>
      <path d="M41.56,48.3l.76-.77,1.42-1.37,1.49-1.23,1-.81a5.41,5.41,0,0,0-1.14.82,21.74,21.74,0,0,0-2.53,2.25A5.24,5.24,0,0,0,41.56,48.3Z" fill="#bbe6e7"/>
      <path d="M46.3,47l.21.27,0,0Z" fill="#fac6de"/>
      <path d="M46.51,47.23l.24.3,0,0Z" fill="#fb8dc1"/>
      <path d="M46.75,47.5a5.35,5.35,0,0,0,.85,1.06c.65.78,1.31,1.54,2,2.31,2.12,2.52,4.24,5.05,6.39,7.55.7.81,1.38,1.64,2.07,2.47a4.17,4.17,0,0,1,.9,1.17c.13.39-.25.71-.59.84a1.67,1.67,0,0,1-1.9-.17,17.37,17.37,0,0,1-1.82-2.58c-1-1.53-2.1-3.07-3.09-4.64h0a9.67,9.67,0,0,0,1,1.74c.7,1.22,1.41,2.44,2.11,3.67.27.48.54.95.79,1.44a1.4,1.4,0,0,1,.27.67c0,.31-.31.53-.49.76a3.17,3.17,0,0,0-.53,1c-.38,1.16-.33,2.36-.9,3.48a13,13,0,0,1-1.61,2.3A6.94,6.94,0,0,0,50.58,73a4.76,4.76,0,0,0,.2,2.74,7.28,7.28,0,0,0,.86,1.6,7.38,7.38,0,0,1,.59,1c.05.12.1.42.21.5s.28,0,.39,0c.33-.07.65-.14,1-.23,1.29-.35,3.19-1.06,3.64-2.41a1.81,1.81,0,0,0,.06-.57,2.22,2.22,0,0,0,0-.63c-.29-.93-1.3-1.34-2-1.92a2.52,2.52,0,0,1-1.07-2.29c.15-1.21,1.08-2.24,1.33-3.44.16-.76,0-1.87.54-2.47s1.1-.41,1.69-.55a2.44,2.44,0,0,0,2.18-2.39c0-.38-.58-.77-.83-1-.83-.89-1.65-1.79-2.49-2.67-2.32-2.41-4.6-4.87-6.88-7.31-.7-.75-1.4-1.5-2.11-2.24A8,8,0,0,0,46.75,47.5Z" fill="#ff007a"/>
      <path d="M89.13,51a2.12,2.12,0,0,0,.08-.67,7.12,7.12,0,0,0,0-1.9,1.21,1.21,0,0,0-.34-.79c-.41-.31-.95.22-1.2.49-.1.1-.27.25-.26.4s.17.29.25.4a7.38,7.38,0,0,0,.76.82A6.14,6.14,0,0,1,89.13,51Z" fill="#ff6969"/>
      <path d="M83.19,47.8a1.23,1.23,0,0,0,.48.53Z" fill="#c8efe1"/>
      <path d="M41.53,48.3,40.3,49.77l-.61.87a11.26,11.26,0,0,0,1.4-1.73C41.21,48.78,41.58,48.48,41.53,48.3Z" fill="#c7e5ea"/>
      <path d="M83.67,48.33a1,1,0,0,0,.42.47l-.42-.47m.42.47.27.33Z" fill="#c8efe1"/>
      <path d="M88,49.5l1.14,1.87h0a2.57,2.57,0,0,0-.52-1.14C88.5,49.93,88.38,49.64,88,49.5Z" fill="#ff9b9f"/>
      <path d="M84.71,49.57l.2.26Z" fill="#cfeee4"/>
      <path d="M10,71.51a3.38,3.38,0,0,0,.76.8,19,19,0,0,0,1.77,1.58c.14.11.86.72,1,.39s-.17-1-.26-1.27a23.35,23.35,0,0,0-1.38-3.5c-1.95-4-4.69-8-5.61-12.36A9.91,9.91,0,0,1,6,54a1.64,1.64,0,0,1,.87-1.46,3.64,3.64,0,0,1,2.73.32,4.06,4.06,0,0,0,.86.37c0-.24-.33-.36-.52-.49-.47-.35-.93-.71-1.38-1.09s-1-.91-1.52-1.39c-.16-.15-.37-.5-.59-.55s-.42.3-.52.42A4.57,4.57,0,0,0,5.07,52a12.08,12.08,0,0,0,.65,6.32A58.88,58.88,0,0,0,10,67.8c.68,1.33,1.5,2.58,2.1,3.94a6.07,6.07,0,0,1,.36,1c0,.13.08.31,0,.41s-.58-.11-.74-.21C11.07,72.53,10.64,71.92,10,71.51Z" fill="#fff680"/>
      <path d="M84.91,49.83l.28.37Z" fill="#cfeee4"/>
      <path d="M85.19,50.2a5.58,5.58,0,0,0,.87,1.3h0A3.42,3.42,0,0,0,85.19,50.2Z" fill="#c8f1e4"/>
      <path d="M39.66,50.64l-.1.2Z" fill="#cbe5ec"/>
      <path d="M89.44,51.6a2.8,2.8,0,0,0,.48,1.11,3.66,3.66,0,0,0,.28.56c.09.11.22.18.29.3s.06.43.14.64c.34.82.67,1.63,1,2.47a1.87,1.87,0,0,0,0-.53c0-.43.08-.85.14-1.27.16-1,.57-1.87.71-2.84,0-.37.17-1.17-.3-1.35a1.3,1.3,0,0,0-.94.2A4.31,4.31,0,0,1,89.44,51.6Z" fill="#ff6969"/>
      <path d="M39.52,50.84l-.1.2Z" fill="#cbe5ec"/>
      <path d="M39.38,51l-.1.2Z" fill="#c0e4ea"/>
      <path d="M39.25,51.24l-.32.53C39.07,51.66,39.29,51.42,39.25,51.24Z" fill="#d1e6ed"/>
      <path d="M86.09,51.5l.14.2Z" fill="#ceeee4"/>
      <path d="M89.31,51.54l.1.23h0Z" fill="#ff9b9f"/>
      <path d="M86.23,51.7l.17.34h0Z" fill="#ceeee4"/>
      <path d="M38.9,51.77l-.17.33h0Z" fill="#c0e4ea"/>
      <path d="M86.44,52l.13.23Z" fill="#ceeee4"/>
      <path d="M38.69,52.1l-.59,1.07C38.29,53.05,38.75,52.32,38.69,52.1Z" fill="#bfe3ea"/>
      <path d="M7.54,52.41v0h.28Z" fill="#ffc077"/>
      <path d="M86.64,52.41l.21.33Z" fill="#cdf4e7"/>
      <path d="M9.93,71.48a3.91,3.91,0,0,0,.62.8l1.26,1.5q2.07,2.44,4.23,4.81c.49.54,1,1.07,1.53,1.57a1.41,1.41,0,0,0,.83.5,6.91,6.91,0,0,0-.61-3.57c-.74-2.14-1.68-4.22-2.37-6.38-.37-1.17-1-2.85-.45-4a1.42,1.42,0,0,1,1.91-.59,10.31,10.31,0,0,1,3.45,2.29,77,77,0,0,1,7.46,8c1.41,1.7,2.83,3.42,4.09,5.21h0c-.38-1.14-1.4-2-2-3a3.55,3.55,0,0,1-.25-.8,11.66,11.66,0,0,0-.5-1.4,10.06,10.06,0,0,0-.73-1.47,9.74,9.74,0,0,1-.6-1,8.37,8.37,0,0,1-.24-1.4,1.54,1.54,0,0,1-.1-.63c.09-.39.75-.93.62-1.34a6.83,6.83,0,0,0-.5-1c-.37-.72-.77-1.43-1.15-2.14-1.3-2.37-2.67-4.69-4.09-7-.51-.81-1.05-1.61-1.57-2.41-.2-.29-.44-.84-.74-1a1.53,1.53,0,0,0-.48-.11c-.42-.11-.85-.19-1.28-.29-.77-.19-1.53-.42-2.28-.68-.23-.09-.72-.38-1-.33s-.51.46-.69.64A14,14,0,0,1,12.56,58,4.48,4.48,0,0,1,13,56c.17-.36.43-.68.61-1l-1.83-1-1.21-.73v.1c-1-.44-2.42-1.25-3.6-.76-.69.29-.83.91-.92,1.56a10.74,10.74,0,0,0,.63,4.27c1.32,4.25,3.89,8,5.69,12a19.17,19.17,0,0,1,1.08,2.94c0,.19.34.87.08,1s-.81-.4-1-.54C11.59,73.1,10.87,72.12,9.93,71.48Z" fill="#ff6969"/>
      <path d="M10.48,53.17l0,.14.1-.14Z" fill="#ffb876"/>
      <path d="M38.07,53.17l-.59,1.21h0C37.66,54.11,38.14,53.47,38.07,53.17Z" fill="#b1e1e8"/>
      <path d="M87.13,53.24a2.23,2.23,0,0,0,.55,1A2.67,2.67,0,0,0,87.13,53.24Z" fill="#c3eee1"/>
      <path d="M90.24,53.34l.28.64h0C90.55,53.71,90.53,53.45,90.24,53.34Z" fill="#fff680"/>
      <path d="M30.45,53.75h0Z" fill="#bac6f5"/>
      <path d="M19.75,54.11v0h.1Z" fill="#a7b6f3"/>
      <path d="M29,54.11v0h.1l-.1,0m-9.1,0v0H20Z" fill="#bac6f5"/>
      <path d="M28.63,54.18v0h.11l-.11,0m-.17,0v0h.1l-.1,0m-.17,0v0h.1Z" fill="#a7b6f3"/>
      <path d="M20.58,54.28v0h.1Z" fill="#bac6f5"/>
      <path d="M27.66,54.34v0h.18Z" fill="#c4cef7"/>
      <path d="M25.9,54.54v0H26Z" fill="#b1bef4"/>
      <path d="M23.31,54.58v0h.45l-.45,0m1.73,0v0h.27Z" fill="#899eef"/>
      <path d="M25.31,54.58v0h.35l-.35,0m-1.1,0v0h.41Z" fill="#d8dffa"/>
      <path d="M37.31,54.68a9.26,9.26,0,0,0-1.11,2.8l.29-.66.59-1.49Z" fill="#e3e7f0"/>
      <path d="M87.89,54.74,88,55Z" fill="#c3eee1"/>
      <path d="M6,54.84v.3H6Z" fill="#ffc077"/>
      <path d="M13.56,54.94a5,5,0,0,0-1,3.08,3.62,3.62,0,0,0,.86-.8A15.67,15.67,0,0,0,15,55.58Z" fill="#fff680"/>
      <path d="M59,55.14v0h.55Z" fill="#fa278c"/>
      <path d="M58.78,55.18v0a7.66,7.66,0,0,1,5.17,3c1.18,1.39,2.18,3.06,3.78,4.05a9.77,9.77,0,0,0,4.43,1.09,14.25,14.25,0,0,1,2.69.25,3.36,3.36,0,0,1,1.49.82c.2.2.35.55.59.7,0-1.51-1.17-2.75-2-3.91h-.07a4.14,4.14,0,0,1-.7,1.71c-.18.21-.45.44-.75.33-.65-.24-.31-.78-.16-1.2a3.54,3.54,0,0,0,.07-1.74c0-.23,0-.49-.25-.64a9.6,9.6,0,0,0-5.6-1.56,14,14,0,0,0-1.59.07c-.22,0-.55.16-.76.1s-.4-.38-.56-.54a12.33,12.33,0,0,0-1.31-1.19A6.9,6.9,0,0,0,58.78,55.18Z" fill="#ff007a"/>
      <path d="M88.1,55.18l.35.94.5,1.37.32.83a10.37,10.37,0,0,0-.72-2.14A3.78,3.78,0,0,0,88.1,55.18Z" fill="#d8f2ec"/>
      <path d="M60,55.21v0h.17Z" fill="#f74f9f"/>
      <path d="M51.35,55.28l.13.27Z" fill="#fa7db9"/>
      <path d="M59.35,55.29h0Z" fill="#fa93c5"/>
      <path d="M59.67,55.36h0Z" fill="#fa96c6"/>
      <path d="M60.84,55.36h0Z" fill="#fa8cc1"/>
      <path d="M31,56.41a1.91,1.91,0,0,0,.52.54,6.47,6.47,0,0,0,1.34,1.17,15.69,15.69,0,0,1,.87-2.64Z" fill="#ff7f69"/>
      <path d="M60.29,55.52h0Z" fill="#fa91c3"/>
      <path d="M60.39,55.56h0Z" fill="#fa8dc1"/>
      <path d="M60.5,55.59h0Z" fill="#fb74b5"/>
      <path d="M60.91,55.76h0Z" fill="#fb79b7"/>
      <path d="M74.06,55.75l0,.13.11-.13Z" fill="#fb71b3"/>
      <path d="M61.19,55.89h0Z" fill="#fb77b6"/>
      <path d="M74,55.88a3.59,3.59,0,0,0-.41,1.6c0,.2,0,.68-.15.81s-.49-.09-.65-.14a6.75,6.75,0,0,0-1.76-.53v0a4.73,4.73,0,0,1,.83.36,3.71,3.71,0,0,1,1.86,1.38,5.11,5.11,0,0,1,.08,3h0a4.91,4.91,0,0,0,.45-2.07c0-.2,0-.6.21-.68s.39.15.52.24c.43.31.81.68,1.24,1-.46-1-1.67-1.5-2.14-2.48a3.93,3.93,0,0,1-.24-1.77c0-.23.19-.51.13-.73m-15.31.17a10.66,10.66,0,0,0,0,1.13,6.11,6.11,0,0,0,1.93,4,3.83,3.83,0,0,0,1.45.8c.17,0,.51.1.64-.05s0-.33-.12-.45a5.25,5.25,0,0,1-.67-1.2c-.43-1.19-.36-2.74-1.47-3.59a3.33,3.33,0,0,0-.9-.46A2.39,2.39,0,0,0,58.71,56.05Z" fill="#ff007a"/>
      <path d="M73.9,56.14v0Z" fill="#fb6eb2"/>
      <path d="M58.67,56.15v.2h0Z" fill="#fa91c3"/>
      <path d="M30,56.71a22.56,22.56,0,0,0,1.76,2,3.2,3.2,0,0,1,.76,1h0a6,6,0,0,1,.38-1.6c-.5-.35-.92-.84-1.38-1.23-.14-.12-.33-.37-.52-.42A2.72,2.72,0,0,0,30,56.71Z" fill="#ffd978"/>
      <path d="M73.89,56.48v.23h0Z" fill="#f84097"/>
      <path d="M28.87,56.91a12.78,12.78,0,0,1-.13,4,3,3,0,0,0,.22.86c.13.52.23,1.05.31,1.57a8.67,8.67,0,0,1,.12,1.34,3.61,3.61,0,0,0,0,.87A6.88,6.88,0,0,0,30.31,67c.63,1,1.2,2,1.81,3.07h0l-.28-2.37,0-3-.11-1.07h0l.07.41a3.27,3.27,0,0,0,.11-.94c.09-.76.17-1.52.31-2.27a3,3,0,0,0,.18-1.17,2.7,2.7,0,0,0-.57-.7L30.6,57.45c-.17-.2-.4-.59-.66-.7S29.16,56.89,28.87,56.91Z" fill="#ff7d77"/>
      <path d="M73.89,56.71v.34h0Z" fill="#fab0d3"/>
      <path d="M5.27,56.77v0m0,.13v0Z" fill="#ff6969"/>
      <path d="M22.89,57.35c.71,1,1.69,1.81,2.46,2.74,1.45,1.72,2.73,3.54,4,5.38h0a16.83,16.83,0,0,0-.25-3,14.47,14.47,0,0,1-.39-1.54,10.2,10.2,0,0,1,.19-1.43c.06-.86,0-1.69,0-2.54-.66,0-1.32.22-2,.29A39.12,39.12,0,0,1,22.89,57.35Z" fill="#ff7169"/>
      <path d="M5.34,57v0Z" fill="#ff6969"/>
      <path d="M20.06,57a24.43,24.43,0,0,0,1.57,2.38c1.15,1.77,2.25,3.58,3.31,5.41.72,1.24,1.43,2.5,2.09,3.77a10.85,10.85,0,0,0,1.12,2.07l.45-1v0l-.24-.4h0l.24.27.07-.24c.91.61,1.73,1.38,2.63,2A4.57,4.57,0,0,0,32.5,72a4,4,0,0,0-.15-.83,6.84,6.84,0,0,0-.19-1.1,13.86,13.86,0,0,0-1.3-2.27,56.85,56.85,0,0,0-5.12-7.32c-.65-.78-1.31-1.56-2-2.3a5.18,5.18,0,0,0-.8-.82,2.58,2.58,0,0,0-1-.12C21.29,57.23,20.68,57.09,20.06,57Z" fill="#ffc578"/>
      <path d="M73.89,57.05v.3h0Z" fill="#f74299"/>
      <path d="M5.38,57.17v0Z" fill="#ff6969"/>
      <path d="M21.48,57.22v0h.2Z" fill="#ffe3bd"/>
      <path d="M26.83,57.22v0H27Z" fill="#ffbcb8"/>
      <path d="M21.79,57.25v0H22Z" fill="#ffe3bd"/>
      <path d="M5.41,57.3v0Z" fill="#ff6969"/>
      <path d="M22.13,57.28v0h.31l-.31,0m.45,0v0H23Z" fill="#ffe3bd"/>
      <path d="M25.66,57.32v0h.27Z" fill="#ff9792"/>
      <path d="M23.2,57.35v0h.52Z" fill="#ffbcb8"/>
      <path d="M23.72,57.35v0h1.07Z" fill="#ffdedc"/>
      <path d="M24.79,57.35v0h.52Z" fill="#ffbcb8"/>
      <path d="M73.92,57.35v.17h0Z" fill="#faadd2"/>
      <path d="M73.58,57.42v.43h0Z" fill="#fab6d7"/>
      <path d="M36.17,57.48a19.39,19.39,0,0,0-.87,3.41h.07a8.53,8.53,0,0,1,.56-2.37C36,58.26,36.28,57.74,36.17,57.48Z" fill="#cfe4ee"/>
      <path d="M61.14,57.6v0Z" fill="#fb6cb0"/>
      <path d="M71.11,57.66h0Z" fill="#fb8bc1"/>
      <path d="M61.28,57.94v0Z" fill="#fa8cc1"/>
      <path d="M61.31,58l0,0Z" fill="#fa83bc"/>
      <path d="M53.22,58.07l0,0Z" fill="#fb6fb2"/>
      <path d="M66.63,58.08v0h.31Z" fill="#f9bdda"/>
      <path d="M66.94,58.08v0h.93Z" fill="#f83c96"/>
      <path d="M61.35,58.14v0Z" fill="#fb79b7"/>
      <path d="M68.56,58.15v0h.18Z" fill="#f55ca5"/>
      <path d="M58.85,58.18v.1h0Z" fill="#fa96c5"/>
      <path d="M5.69,58.24v0Z" fill="#ff6969"/>
      <path d="M73.52,58.24v0Z" fill="#fa98c7"/>
      <path d="M65.31,58.25v0h.11Z" fill="#fb6eb2"/>
      <path d="M65,58.28v0h.17Z" fill="#fb74b4"/>
      <path d="M74.09,58.28v.1h0Z" fill="#fa8dc1"/>
      <path d="M5.72,58.34v0Z" fill="#ff6969"/>
      <path d="M73.33,58.32v0h.14Z" fill="#faa1cb"/>
      <path d="M89.27,58.35c.09,1,.65,2,.66,3.07H90a10.47,10.47,0,0,0-.44-2.13A3.32,3.32,0,0,0,89.27,58.35Z" fill="#deeeec"/>
      <path d="M5.83,58.64v0Z" fill="#ff6969"/>
      <path d="M11.35,65.5a3.69,3.69,0,0,0,0-1.44,16.4,16.4,0,0,0-.53-3.61,3.31,3.31,0,0,0-.5-1.1c-.08-.1-.25-.3-.41-.24s-.12.26-.11.38A6.79,6.79,0,0,0,10,60.66,29.39,29.39,0,0,0,11.35,65.5Z" fill="#ffa072"/>
      <path d="M72.32,59.26h0Z" fill="#fa88be"/>
      <path d="M92.94,63.19c.53-.07,1-.28,1.24.4h0c-.2-.29-1-.15-1.12.15s0,.44,0,.62c0,.57,0,1.14,0,1.71h0c.33-.74,1.18-1.62,1.07-2.44h0l0,.2c.24-.15.36-.62.49-.87a19.19,19.19,0,0,0,1.07-2.47c.09-.27.33-.88.08-1.13s-.64,0-.85.08a7.4,7.4,0,0,0-1.79,1c-.17.11-.5.28-.57.47s0,.48.08.67A11.29,11.29,0,0,1,92.94,63.19Z" fill="#ff6969"/>
      <path d="M3.71,67.27a15.6,15.6,0,0,0-.92-1.37A18.07,18.07,0,0,1,.88,62.36,2.52,2.52,0,0,1,.62,61c.05-.18.19-.42.42-.42a1.13,1.13,0,0,1,.71.46A11.79,11.79,0,0,1,3,62.66,46.91,46.91,0,0,0,6.05,67.1a7.85,7.85,0,0,0,1.39,1.54,4.7,4.7,0,0,0-.61-.8c-.41-.52-.8-1.06-1.16-1.61-1.11-1.66-2.07-3.4-3.21-5a8.12,8.12,0,0,0-1.28-1.53.9.9,0,0,0-.79-.33c-.26.07-.32.37-.35.59a3.94,3.94,0,0,0,.11,1.64,14.46,14.46,0,0,0,2.37,4.27C2.82,66.25,3.24,67,3.71,67.27Z" fill="#fff680"/>
      <path d="M61.69,59.51l0,0Z" fill="#fa94c5"/>
      <path d="M59.38,59.58v0Z" fill="#fa93c5"/>
      <path d="M73.92,60v.2h0Z" fill="#f84098"/>
      <path d="M73.31,60.31v0Z" fill="#fb86be"/>
      <path d="M74,60.29v1.47h0A4.51,4.51,0,0,0,74,60.29Z" fill="#f653a1"/>
      <path d="M62,60.44v0Z" fill="#fa8dc1"/>
      <path d="M3.57,67.1h0c-.15-.82-.84-1.58-.62-2.47a3.87,3.87,0,0,1,1.24,1.24A33.77,33.77,0,0,0,6.37,68.5c.36.38,1.07,1.19,1.66.77a10.33,10.33,0,0,0-.79-.83c-.54-.58-1-1.19-1.55-1.81a47,47,0,0,1-2.73-4,11.3,11.3,0,0,0-1.18-1.57A1.18,1.18,0,0,0,1,60.59a.45.45,0,0,0-.41.47,3.11,3.11,0,0,0,.23,1.27A20.72,20.72,0,0,0,3.57,67.1Z" fill="#ff6969"/>
      <path d="M76.27,60.86l.14.13Z" fill="#fa98c6"/>
      <path d="M35.27,61l-.17,1.2h0C35.18,61.81,35.41,61.29,35.27,61Z" fill="#bce4ef"/>
      <path d="M74.23,61v.23h0Z" fill="#f93995"/>
      <path d="M73.37,61v.27h0Z" fill="#f559a3"/>
      <path d="M.59,61v.27h0Z" fill="#ff9b71"/>
      <path d="M90,61.56l.17,1.4h0A3.29,3.29,0,0,0,90,61.56Z" fill="#d4ece8"/>
      <path d="M32.09,61.76v.13h0Z" fill="#feccc6"/>
      <path d="M74.69,61.81v0Z" fill="#fa96c6"/>
      <path d="M61.88,61.94h0Z" fill="#fb7bb8"/>
      <path d="M62,62h0Z" fill="#fa86be"/>
      <path d="M62.17,62v0h.38Z" fill="#fabeda"/>
      <path d="M73.89,62.06v.1h0Z" fill="#fa9ac8"/>
      <path d="M74.59,62.11v0Z" fill="#fa91c3"/>
      <path d="M74.55,62.21l0,0Z" fill="#fa85be"/>
      <path d="M35.06,62.23l0,.53h0Z" fill="#abddeb"/>
      <path d="M73.1,62.31v0Z" fill="#fa9cc9"/>
      <path d="M58.89,62.45l0,0Z" fill="#fd59a7"/>
      <path d="M68.1,62.47h0Z" fill="#fa83bc"/>
      <path d="M68.24,62.54h0Z" fill="#fa91c3"/>
      <path d="M68.41,62.6h0Z" fill="#fb6cb1"/>
      <path d="M68.83,62.77h0Z" fill="#fa9ac8"/>
      <path d="M35,62.86l0,.5H35Z" fill="#c6e1ee"/>
      <path d="M58.39,62.87h0Z" fill="#fc5ba9"/>
      <path d="M69.24,62.9l0,0Z" fill="#fb8dc1"/>
      <path d="M69.35,62.94h0Z" fill="#fa96c5"/>
      <path d="M69.76,63h0m-12,0h0Z" fill="#fa96c6"/>
      <path d="M93,63.69c.44-.12.68-.34,1.15-.16-.08-.42-.84-.71-1.14-.31C92.92,63.33,93,63.56,93,63.69Z" fill="#fff680"/>
      <path d="M67.42,63.09a5,5,0,0,0,.31,2.17,5.07,5.07,0,0,0,2.15,2.1A49.33,49.33,0,0,0,75,69.63a6.44,6.44,0,0,1,2.6,1.81,4.24,4.24,0,0,1,.58,1.71h.07A5.42,5.42,0,0,0,79,70.81a6.85,6.85,0,0,0-.23-2.21,5.08,5.08,0,0,0-.69-1.3c-2-2.67-5.4-2.45-8.35-3.15a5.75,5.75,0,0,1-1.41-.49C68,63.5,67.73,63.23,67.42,63.09Z" fill="#ff007a"/>
      <path d="M70,63.09v0h.14Z" fill="#fb6cb0"/>
      <path d="M76.28,63.15l0,0Z" fill="#fb77b5"/>
      <path d="M90.2,63.13l0,.63h0Z" fill="#d3ebe8"/>
      <path d="M67.39,63.19V64h0Z" fill="#fa3090"/>
      <path d="M76.32,63.22v0Z" fill="#fb64ad"/>
      <path d="M73.4,63.26v0h.31Z" fill="#f654a2"/>
      <path d="M31.92,63.36v.23h0Z" fill="#feb3b4"/>
      <path d="M72.37,63.36v0h.27Z" fill="#fab9d8"/>
      <path d="M73.06,63.39v0h.17Z" fill="#fa8dc1"/>
      <path d="M73.37,63.43v0h.27Z" fill="#fabeda"/>
      <path d="M34.92,63.46v1h0Z" fill="#c6e1ee"/>
      <path d="M76.46,63.48v0Z" fill="#fb8dc1"/>
      <path d="M93,63.49v.34h0Z" fill="#fefabf"/>
      <path d="M94.15,63.49l0,.1Z" fill="#ffb876"/>
      <path d="M31.74,63.59l.07.94h0A1.33,1.33,0,0,0,31.74,63.59Z" fill="#ffa072"/>
      <path d="M74.79,63.59v0h.1Z" fill="#fb73b4"/>
      <path d="M94.18,63.63l.07.13Z" fill="#ffb876"/>
      <path d="M75.05,63.67h0Z" fill="#fb91c4"/>
      <path d="M75.26,63.74h0Z" fill="#fa8dc1"/>
      <path d="M94.21,63.76v.34h0Z" fill="#fff680"/>
      <path d="M31.88,63.83v.27h0Z" fill="#fed8d9"/>
      <path d="M76.63,63.88v0Z" fill="#fa88be"/>
      <path d="M75.64,63.91h0Z" fill="#fb67ad"/>
      <path d="M90.27,63.93l0,.9h0Z" fill="#d3ebe8"/>
      <path d="M76.66,64l0,0Z" fill="#fa83bc"/>
      <path d="M34.89,64v.4h0Z" fill="#55cde3"/>
      <path d="M93,64.13v.33h0Z" fill="#fed8d9"/>
      <path d="M34.85,64.33v2.5h0V65.06Z" fill="#c5e1ee"/>
      <path d="M76.83,64.5v.1h0Z" fill="#fa97c7"/>
      <path d="M54.68,64.59v0Z" fill="#fb77b5"/>
      <path d="M60.82,64.6v0h.1Z" fill="#fa91c3"/>
      <path d="M60.92,64.61a1.52,1.52,0,0,0-1.21,1.52,1,1,0,0,0,.18.7,1.77,1.77,0,0,0,1.41.22c.52-.09,1.24-.28,1.48-.78C63.25,65.27,61.79,64.46,60.92,64.61Z" fill="#ff007a"/>
      <path d="M60.74,64.64h0Z" fill="#fb77b5"/>
      <path d="M60.63,64.67l0,0,0,0m16.24,0v0Z" fill="#fa91c3"/>
      <path d="M93,64.66v.27h0Z" fill="#ff8e8e"/>
      <path d="M61.16,64.76v0h.25Z" fill="#f74b9c"/>
      <path d="M60.92,64.83v0l.59,0Z" fill="#ebb8d0"/>
      <path d="M54.57,64.85v0Z" fill="#fa98c7"/>
      <path d="M61.06,64.85c-.33.06-.73.41-.43.74a1,1,0,0,0,.91.23c.33,0,.74-.45.44-.77A1,1,0,0,0,61.06,64.85Z" fill="#e6e6e6"/>
      <path d="M60.78,64.9v0l.14,0Z" fill="#ee9cc4"/>
      <path d="M93,64.93v.4h0Z" fill="#feb3b4"/>
      <path d="M60.58,65.13l.17-.17Z" fill="#ecb2cd"/>
      <path d="M60.51,65.16v.31h0Z" fill="#ebb7d0"/>
      <path d="M62.06,65.16v.31h0Z" fill="#eda5c8"/>
      <path d="M62.1,65.2v.2h0Z" fill="#f83f97"/>
      <path d="M31.81,65.26v1h0Z" fill="#fe9d98"/>
      <path d="M59.9,65.35v0Z" fill="#fd56a6"/>
      <path d="M93,65.33v.74h0Z" fill="#fed8d9"/>
      <path d="M62,65.49v0Z" fill="#f273b0"/>
      <path d="M62.77,65.55v0Z" fill="#fb8bc1"/>
      <path d="M59.76,65.62v0Z" fill="#fa8fc2"/>
      <path d="M55.87,65.63v.14h0Z" fill="#f83c96"/>
      <path d="M62.8,65.65v0Z" fill="#fa88bf"/>
      <path d="M60.71,65.67l.11.06Z" fill="#eda7c8"/>
      <path d="M61.79,65.7v0l.13,0Z" fill="#f55ba5"/>
      <path d="M62.82,65.7v.13h0Z" fill="#fb7bb8"/>
      <path d="M60.92,65.8v0l.59,0Z" fill="#ecb0cd"/>
      <path d="M59.68,65.87V66h0Z" fill="#fa95c5"/>
      <path d="M61.13,65.87v0h.28Z" fill="#f7469b"/>
      <path d="M54.32,66v.16h0Z" fill="#fa9fcb"/>
      <path d="M59.68,66v.23h0Z" fill="#f74299"/>
      <path d="M55.84,66.07v.13h0Z" fill="#f83d96"/>
      <path d="M62.82,66.07v.1h0Z" fill="#fa8ec2"/>
      <path d="M90.27,66.43v1.14h0l0-1.14Z" fill="#d2eae9"/>
      <path d="M55.81,66.47v.13h0Z" fill="#f55ca4"/>
      <path d="M90.31,66.57V67h0Z" fill="#9cecdd"/>
      <path d="M34.85,67v.23h0l0-.23Z" fill="#c4eef6"/>
      <path d="M54.15,67v.13h0Z" fill="#fb6fb2"/>
      <path d="M60.51,67.07v0H61Z" fill="#f7459b"/>
      <path d="M34.89,67.1v.4h0Z" fill="#7cd6ea"/>
      <path d="M34.92,67.1v1h0Z" fill="#c4e0ef"/>
      <path d="M54.12,67.16v0Z" fill="#fc6cb0"/>
      <path d="M54.09,67.26v0Z" fill="#fa96c6"/>
      <path d="M31.88,67.4v.4h0Z" fill="#fec2b8"/>
      <path d="M54,67.59l0,0Z" fill="#fb81bb"/>
      <path d="M70.66,67.78h0Z" fill="#fb73b5"/>
      <path d="M70.73,67.81l0,0Z" fill="#fb71b3"/>
      <path d="M90.2,67.84v.56h0l0-.56Z" fill="#d2eae9"/>
      <path d="M53.81,68v0Z" fill="#fa9cc9"/>
      <path d="M35,68.17l0,.43h0v-.43Z" fill="#c4e0ef"/>
      <path d="M69.6,68.2l.07.17Z" fill="#fb6eb2"/>
      <path d="M69.67,68.34a5.2,5.2,0,0,1,.26,1.83,3.38,3.38,0,0,1-.26,1c-1.1,2.2-3.8,2-5.88,2.56a4.63,4.63,0,0,0-2.14,1,19.8,19.8,0,0,1,2.52-.53c1.8-.17,3.71,0,5.19-1.22a3.27,3.27,0,0,0,.89-3.83A2.12,2.12,0,0,0,69.67,68.34Z" fill="#ff007a"/>
      <path d="M72.08,68.42h0Z" fill="#fb74b5"/>
      <path d="M78.67,68.43v0Z" fill="#fb8bc0"/>
      <path d="M72.15,68.45h0Z" fill="#fb8dc1"/>
      <path d="M90.14,68.57V69h0l0-.44Z" fill="#d2eae9"/>
      <path d="M72.56,68.62h0Z" fill="#fa8dc1"/>
      <path d="M7.44,68.64l.17.2Z" fill="#ffe07c"/>
      <path d="M72.91,68.75h0Z" fill="#fb7bb9"/>
      <path d="M35,68.77a9.6,9.6,0,0,0,.26,1.84,25.47,25.47,0,0,0,.84,3.31h0a9,9,0,0,0-.37-1.35,15.43,15.43,0,0,1-.7-3.8Z" fill="#c3dfef"/>
      <path d="M73,68.78h0Z" fill="#fa9cc9"/>
      <path d="M7.61,68.84l.17.17Z" fill="#ffa873"/>
      <path d="M73.32,68.92h0Z" fill="#fa9cc9"/>
      <path d="M73.43,69h0Z" fill="#fb67ae"/>
      <path d="M78.83,68.94V69h0Z" fill="#fa82bb"/>
      <path d="M73.49,69h0Z" fill="#fb77b5"/>
      <path d="M74.47,80.76a5.61,5.61,0,0,0,2.91-7.31,5.4,5.4,0,0,0-1.9-2.1,28,28,0,0,0-3.11-1.77c-.18-.09-.85-.61-1-.43s-.17.72-.17,1A5.22,5.22,0,0,0,72,72.85c1,1.81,3,3.52,3.1,5.71A3.73,3.73,0,0,1,74.78,80,4.21,4.21,0,0,0,74.47,80.76Z" fill="#ff007a"/>
      <path d="M78.88,69.09v0Z" fill="#fb77b6"/>
      <path d="M90.1,69.11,90,70h0Z" fill="#d1e9e9"/>
      <path d="M53.15,69.16l0,0Z" fill="#fc61aa"/>
      <path d="M28.36,69.24l.67,1.2,1.29,2.24,3.46,6.15c.21-.17.71-.74.71-1a1.75,1.75,0,0,0-.17-.43,8.61,8.61,0,0,0-.91-1.4c-1.1-1.6-2.23-3.18-3.42-4.71A13.51,13.51,0,0,0,28.36,69.24Z" fill="#9c964e"/>
      <path d="M74.15,69.25h0Z" fill="#fa81bb"/>
      <path d="M28.7,69.27c-.13.33.06.48.27.74.33.42.67.84,1,1.27,1.45,1.86,2.77,3.81,4.12,5.74h0l-.45-1.17-.84-2.6-.3-1.31h0V72a15.64,15.64,0,0,1-2.8-2A5.38,5.38,0,0,0,28.7,69.27Z" fill="#ffd28c"/>
      <path d="M32.05,69.34v.17h0Z" fill="#feacae"/>
      <path d="M74.57,69.42h0Z" fill="#fc61ab"/>
      <path d="M69.91,69.44v.17h0Z" fill="#f654a2"/>
      <path d="M70.37,69.46v0Z" fill="#fa97c6"/>
      <path d="M74.64,69.45h0Z" fill="#fb5ea9"/>
      <path d="M12.28,69.47l.1.27h0Z" fill="#ffb876"/>
      <path d="M70.41,69.56v0Z" fill="#fa8ac0"/>
      <path d="M74.84,69.55h0Z" fill="#fa93c5"/>
      <path d="M79,69.54v.17h0Z" fill="#fab3d5"/>
      <path d="M70.44,69.66v0Z" fill="#fa95c5"/>
      <path d="M28.53,69.67c-.09.3-.39.7-.36,1a1.5,1.5,0,0,0,.23.5l.53,1c.63,1.22,1.26,2.43,1.91,3.64,1.2,2.26,2.48,4.47,3.82,6.65.46.74.94,1.48,1.43,2.2a6.42,6.42,0,0,0,.66,1,11,11,0,0,0,1.1.79,17.41,17.41,0,0,0,1.5,1.35,11,11,0,0,0,1.42.56c.58.26,1.13.68,1.72.9l-.82-1.37-.57-.94-1.57-1.6L38.1,83.7c.42,1.28,1.42,2.38,1.8,3.68-.91-1-1.7-2.15-2.51-3.24A14,14,0,0,0,36.54,83c-.16-.18-.56-.19-.79-.31a2.88,2.88,0,0,1-1-1,7.37,7.37,0,0,1-.81-2,8,8,0,0,0-.19-.93,10.68,10.68,0,0,0-.59-1L31.65,75c-1-1.78-1.9-3.66-3-5.35Z" fill="#ffd28c"/>
      <path d="M12.42,69.71a8.06,8.06,0,0,0,.69,1.57,31.51,31.51,0,0,1,1.41,3.47c.12.38.63,1.67-.1,1.7v0a1.74,1.74,0,0,0,.73.23c.28,0,.34-.27.34-.5a3.94,3.94,0,0,0-.33-1.34,28.52,28.52,0,0,0-1.83-3.67A6.67,6.67,0,0,0,12.42,69.71Z" fill="#fff680"/>
      <path d="M75.22,69.72h0Z" fill="#fb6eb2"/>
      <path d="M79,69.71v1.13h0Z" fill="#fb268c"/>
      <path d="M75.29,69.75h0Z" fill="#fb74b5"/>
      <path d="M75.36,69.78l0,0Z" fill="#fb7fba"/>
      <path d="M71.16,69.84v.74h0Z" fill="#fb79b7"/>
      <path d="M70.5,70.11v.77h0Z" fill="#f465aa"/>
      <path d="M89.93,70.11a24.6,24.6,0,0,1-.66,3h0a13.94,13.94,0,0,0,.69-3Z" fill="#d1e9e9"/>
      <path d="M54.5,70.23v0Z" fill="#f6509f"/>
      <path d="M28.11,70.68,27.47,72l.15.85L27.81,74l.61,1,.72,1.44.72,2.17,1.3,1.7L32.94,83,34,84.27l.94.42,1.76.92c-.8-1.4-1.79-2.71-2.65-4.08-1.21-2-2.27-4-3.39-6-.62-1.11-1.18-2.27-1.76-3.4A5.53,5.53,0,0,0,28.11,70.68Z" fill="#ff9b9f"/>
      <path d="M69.78,70.86l0,0Z" fill="#fa93c4"/>
      <path d="M54.35,70.91v.2h0Z" fill="#faa8cf"/>
      <path d="M69.75,71v0Z" fill="#fa9cc9"/>
      <path d="M69.71,71.07l0,0Z" fill="#fa91c3"/>
      <path d="M9.62,71.11l.2.2Z" fill="#ffe07c"/>
      <path d="M69.68,71.17v0Z" fill="#fb6cb2"/>
      <path d="M69.65,71.23v0Z" fill="#fb6bb0"/>
      <path d="M9.79,71.31l.24.23Z" fill="#ff9771"/>
      <path d="M78.9,71.31v.17h0Z" fill="#f7459b"/>
      <path d="M54.39,71.34v.1h0Z" fill="#fb8ac0"/>
      <path d="M70.39,71.41v.1h0Z" fill="#fa98c7"/>
      <path d="M54.43,71.53l0,0Z" fill="#fa91c3"/>
      <path d="M54.47,71.67v0Z" fill="#fa97c6"/>
      <path d="M54.57,72v0Z" fill="#fb76b5"/>
      <path d="M50.84,72.27v0Z" fill="#fb7eb9"/>
      <path d="M50.8,72.33l0,0Z" fill="#fa83bc"/>
      <path d="M50.67,72.67v0Z" fill="#fb69af"/>
      <path d="M50.62,72.71v.1h0Z" fill="#fa96c6"/>
      <path d="M67.93,72.82l0,0Z" fill="#fa83bc"/>
      <path d="M67.51,73h0Z" fill="#fa91c3"/>
      <path d="M67.41,73l0,0Z" fill="#fb8bc0"/>
      <path d="M67.2,73.09h0Z" fill="#fb76b5"/>
      <path d="M67,73.16h0Z" fill="#fa85be"/>
      <path d="M66.32,73.25v0h.13Z" fill="#fa9eca"/>
      <path d="M66,73.33h0Z" fill="#fa9cc9"/>
      <path d="M52.07,73.38v0h.28Z" fill="#ee9dc4"/>
      <path d="M51.79,73.75h0l.17-.34A.34.34,0,0,0,51.79,73.75Z" fill="#eda8c8"/>
      <path d="M52,73.45c-.4.2.07.39.08.6s-.13.25-.14.4c0,.35.35.5.65.36C53.38,74.44,52.83,73,52,73.45Z" fill="#e6e6e6"/>
      <path d="M50.48,73.45v.13h0Z" fill="#faa2cc"/>
      <path d="M64.68,73.56h0Z" fill="#fb7eba"/>
      <path d="M64.45,73.58v0h.14Z" fill="#fb6cb1"/>
      <path d="M77.46,73.64v0Z" fill="#fb8bc0"/>
      <path d="M52.83,73.68l.07.1Z" fill="#ef90bd"/>
      <path d="M36.17,74l.07.27h0Z" fill="#cae0f0"/>
      <path d="M53,74v.37h0Z" fill="#ee97c1"/>
      <path d="M53,74v.27h0Z" fill="#fa2d8f"/>
      <path d="M63,74h0Z" fill="#fa8ec2"/>
      <path d="M65.87,74.08v0h.24Z" fill="#f74299"/>
      <path d="M52.05,74.17v0Z" fill="#f089ba"/>
      <path d="M64.45,74.18v0h.24Z" fill="#f74c9e"/>
      <path d="M77.65,74.18v.14h0Z" fill="#fa8abf"/>
      <path d="M52,74.24l0,0Z" fill="#ef8cbc"/>
      <path d="M64.07,74.22v0h.17Z" fill="#f558a4"/>
      <path d="M62.43,74.26h0Z" fill="#fb74b5"/>
      <path d="M63.72,74.25v0h.14Z" fill="#f651a0"/>
      <path d="M53,74.37v0Z" fill="#f272af"/>
      <path d="M51.9,74.42v.16h0Z" fill="#f64e9e"/>
      <path d="M52.87,74.52l-.11.2Z" fill="#f83b96"/>
      <path d="M36.38,74.55l.24.7h0Z" fill="#c0e0f1"/>
      <path d="M51.93,74.62l.07.1Z" fill="#f371af"/>
      <path d="M57.41,74.74v0Z" fill="#fa86be"/>
      <path d="M50.55,74.78v.14h0Z" fill="#f93c96"/>
      <path d="M57.44,74.84v0Z" fill="#fb83bc"/>
      <path d="M52.21,74.85v0h.24Z" fill="#eea0c5"/>
      <path d="M77.79,74.88v.44h0Z" fill="#fb91c3"/>
      <path d="M57.5,75.18v.51h0Z" fill="#f55da5"/>
      <path d="M36.65,75.28l.45,1.14h0A2.39,2.39,0,0,0,36.65,75.28Z" fill="#c5e1f1"/>
      <path d="M21.48,79.39h0c0-.68.52-1.1,1.14-.66A16.48,16.48,0,0,1,24.76,81c.19.19.63.72,1,.54s.24-1,.21-1.24a22.39,22.39,0,0,0-.49-2.57c-.06-.28-.21-.77,0-1s1.21.3,1.52.5.69.55,1.07.79A5.08,5.08,0,0,0,27,76.69c-.27-.26-.53-.52-.83-.76a3.2,3.2,0,0,0-.52-.36c-.6-.35-1.2-.3-1.09.52.14,1,.48,2,.65,3,.05.3.22.87,0,1.13s-.78-.44-.91-.59A8.2,8.2,0,0,0,22.55,78a1.62,1.62,0,0,0-.35-.17c-.7-.24-.79.43-.79.93A2.47,2.47,0,0,0,21.48,79.39Z" fill="#fff680"/>
      <path d="M77.79,75.32v.27h0Z" fill="#f93f97"/>
      <path d="M77.79,75.59V76h0Z" fill="#faadd2"/>
      <path d="M62.44,75.72v0h.35Z" fill="#f99cc9"/>
      <path d="M62.79,75.72v0h.34Z" fill="#f8489c"/>
      <path d="M63.13,75.72v0h.28Z" fill="#fa9cc9"/>
      <path d="M14.77,75.75v.44h0Z" fill="#ff9b71"/>
      <path d="M62.1,75.75v0h.14Z" fill="#fa9eca"/>
      <path d="M56.77,78.42a6.26,6.26,0,0,1,3.11,1c.93.71,1.72,2,3,2.11a2,2,0,0,0,1.49-.41,1.55,1.55,0,0,0,.1-2.31c-.78-.59-2.37-.27-1.9.92h0a1.1,1.1,0,0,1,0-.54c.22-.67,1.12-.54,1.56-.21a1,1,0,0,1,.14,1.38,1.24,1.24,0,0,1-.45.4,1.5,1.5,0,0,1-1.72-2.37,1.55,1.55,0,0,1,.55-.34,2.3,2.3,0,0,1,.82-.16,3.08,3.08,0,0,1,.8.17c1.83.6,2.06,2.57,3,3.94a2.91,2.91,0,0,0,3.24,1.34,5.13,5.13,0,0,0,1.32-.67c-.24-.08-.63.15-.87.2a2.5,2.5,0,0,1-2.18-.34,3.33,3.33,0,0,1-.87-2.1,7.31,7.31,0,0,0-1-3.11A4,4,0,0,0,65,76.05a7.89,7.89,0,0,0-6.5,1.07A6.71,6.71,0,0,0,56.77,78.42Z" fill="#ff007a"/>
      <path d="M61.15,76l0,0Z" fill="#fa9cc8"/>
      <path d="M61.05,76h0Z" fill="#fa83bc"/>
      <path d="M60.92,76v0H61Z" fill="#fb74b5"/>
      <path d="M65,76h0Z" fill="#fa94c4"/>
      <path d="M77.76,76v.33h0Z" fill="#f64a9d"/>
      <path d="M50.94,76.08v0Z" fill="#fb8fc2"/>
      <path d="M60.84,76.06l0,0Z" fill="#fa88bf"/>
      <path d="M14,76.19l.31.2v0Z" fill="#ffde7c"/>
      <path d="M60.43,76.2h0Z" fill="#fb7eba"/>
      <path d="M60.32,76.23h0Z" fill="#fa8fc3"/>
      <path d="M14.31,76.4h0Z" fill="#ffc979"/>
      <path d="M59.91,76.4h0Z" fill="#fa88be"/>
      <path d="M88,76.39l-.1.4h0l.18-.4Z" fill="#b7e5e6"/>
      <path d="M37.14,76.42l.31.74h0A1.33,1.33,0,0,0,37.14,76.42Z" fill="#c9e0f0"/>
      <path d="M21.48,79.46a17.87,17.87,0,0,1,4.1,4,6.52,6.52,0,0,0,1.05,1,.75.75,0,0,0,.55.21c.22-.05.24-.31.24-.49,0-.51,0-1,0-1.54,0-.18,0-.62.27-.63s.59.36.76.53a11.29,11.29,0,0,0,1.66,1.43c.23.15.82.52,1,.14s-.17-1.43-.37-1.9a16,16,0,0,0-1.65-3,6.66,6.66,0,0,0-1.49-1.69c-.46-.34-1.35-1.14-2-1-.43.11-.19.86-.13,1.15a13.42,13.42,0,0,1,.47,2.81c0,.25,0,.8-.27.91s-.78-.45-1-.65a26.74,26.74,0,0,0-1.84-2,2.18,2.18,0,0,0-.31-.22C21.83,78.23,21.59,78.89,21.48,79.46Z" fill="#ff6969"/>
      <path d="M34.14,77v0Z" fill="#ecc987"/>
      <path d="M87.65,77.12l-.52,1.17h0l.59-1.17Z" fill="#b3e9e8"/>
      <path d="M37.48,77.16,38,78.22h0A2.85,2.85,0,0,0,37.48,77.16Z" fill="#bbddf0"/>
      <path d="M74.87,77.61v0Z" fill="#fa7db9"/>
      <path d="M34.47,77.89c-.16.22-.65.7-.64,1s.4.7.55.93c.45.74.94,1.46,1.43,2.17.17.25.38.72.65.87s.69,0,.92-.1a19.27,19.27,0,0,0-1.09-1.63,22.73,22.73,0,0,1-1.75-3.21Z" fill="#bd9957"/>
      <path d="M63.27,77.89v0h.38Z" fill="#fa8ec2"/>
      <path d="M63.79,77.92v0h.14Z" fill="#fc61ab"/>
      <path d="M64,78h0Z" fill="#fa9ac8"/>
      <path d="M64.13,78h0Z" fill="#fa96c6"/>
      <path d="M67.36,78.15l0,0Z" fill="#fb69af"/>
      <path d="M67.4,78.21v0Z" fill="#fb64ad"/>
      <path d="M38,78.22l0,.14h0Z" fill="#a3daf0"/>
      <path d="M67.43,78.28v0Z" fill="#fa91c3"/>
      <path d="M87.06,78.32v.1l.07-.1Z" fill="#b5e5e7"/>
      <path d="M75,78.39v.54h0Z" fill="#fa3392"/>
      <path d="M38.17,78.49l.25.47h0Z" fill="#9fdbf0"/>
      <path d="M63.12,78.54h0Z" fill="#fa8fc2"/>
      <path d="M67.54,78.58v0Z" fill="#fa98c7"/>
      <path d="M63.24,78.69v0h.34Z" fill="#fab3d5"/>
      <path d="M67.57,78.71v0Z" fill="#fb6cb0"/>
      <path d="M63.71,78.74h0Z" fill="#fb7fba"/>
      <path d="M52.45,78.79v0h.14Z" fill="#f7479b"/>
      <path d="M76.83,78.79l0,.1Z" fill="#faaed2"/>
      <path d="M58.8,78.84h0Z" fill="#fa9ac8"/>
      <path d="M33.78,78.86A2.28,2.28,0,0,0,34,80c.34,1.11,1,2.82,2.43,2.88l-1.62-2.41Z" fill="#ffc281"/>
      <path d="M58.91,78.87h0Z" fill="#fb7eba"/>
      <path d="M61.72,79v.14h0Z" fill="#f551a0"/>
      <path d="M38.55,79.13l.7,1.16h0A2.79,2.79,0,0,0,38.55,79.13Z" fill="#c1e3f3"/>
      <path d="M61.68,79.13v.53h0Z" fill="#f93995"/>
      <path d="M64.43,79.25v0Z" fill="#fb91c4"/>
      <path d="M86.54,79.23a24.21,24.21,0,0,1-4,5.07c-.49.47-1,1-1.49,1.43a8.75,8.75,0,0,0-1.35,1.14,8.27,8.27,0,0,0,2-1.63,25.43,25.43,0,0,0,3.69-4.14,10.72,10.72,0,0,0,1.22-1.87Z" fill="#b5e1e9"/>
      <path d="M64.84,79.28v0Z" fill="#fb71b3"/>
      <path d="M64.48,79.39v.14h0Z" fill="#f655a2"/>
      <path d="M64.91,79.48v0Z" fill="#fa9ac8"/>
      <path d="M64.93,79.63V80h0Z" fill="#fabfdb"/>
      <path d="M66.12,79.65v0Z" fill="#fa97c6"/>
      <path d="M62.62,79.66c0,.17.14.25.31.3v0Z" fill="#fd58a6"/>
      <path d="M74.85,79.73v.1h0Z" fill="#fb7cb8"/>
      <path d="M61.76,79.82v0Z" fill="#fa98c7"/>
      <path d="M61.8,79.92v0m13,0v0Z" fill="#fa8ac0"/>
      <path d="M67.87,80.09v.17h0Z" fill="#fa93c4"/>
      <path d="M64.43,80.15v0Z" fill="#fb6fb2"/>
      <path d="M39.31,80.33l.07.17h0Z" fill="#b3dbef"/>
      <path d="M64.87,80.35l0,0Z" fill="#fb7cb8"/>
      <path d="M64.84,80.45v0Z" fill="#fa8ec2"/>
      <path d="M39.42,80.5l.1.2h0Z" fill="#b3dbef"/>
      <path d="M62.41,80.6l.1.06Z" fill="#faaacf"/>
      <path d="M39.56,80.7l.48.66A1.32,1.32,0,0,0,39.56,80.7Z" fill="#b7def1"/>
      <path d="M68.09,81.32v0Z" fill="#fb69af"/>
      <path d="M40,81.36A4.65,4.65,0,0,0,41.35,83l-.64-.83Z" fill="#badcf0"/>
      <path d="M62.36,81.41h0Z" fill="#fa95c5"/>
      <path d="M62.47,81.44h0Z" fill="#fa9cc9"/>
      <path d="M68.16,81.52v0Z" fill="#fb81bb"/>
      <path d="M63,81.53v0h.34Z" fill="#f84198"/>
      <path d="M68.19,81.62l0,0Z" fill="#fa83bc"/>
      <path d="M32,81.69v0Z" fill="#feebf4"/>
      <path d="M68.23,81.69v0Z" fill="#fa98c7"/>
      <path d="M32.05,81.76a2.87,2.87,0,0,0,1.28,1.77l-.73-1.06Z" fill="#feebf4"/>
      <path d="M71.74,82.6v0h.18Z" fill="#fa90c3"/>
      <path d="M71.49,82.71h0Z" fill="#fa91c3"/>
      <path d="M36.48,82.87a6.74,6.74,0,0,0,.76,1.1c.48.64.95,1.27,1.44,1.9a8.49,8.49,0,0,0,1.22,1.51l-.56-1.24L38.05,83.6l-.64-.87Z" fill="#9c964e"/>
      <path d="M71,82.83v0h.11Z" fill="#fa9ac8"/>
      <path d="M70.87,82.88h0Z" fill="#fa96c6"/>
      <path d="M69.53,82.9v0h.14Z" fill="#f83d97"/>
      <path d="M69.74,82.93v0h.65Z" fill="#f55ea6"/>
      <path d="M41.35,83l.66.77L43.22,85l.66.56c-.42-.58-1.07-1-1.55-1.54C42.06,83.7,41.73,83.18,41.35,83Z" fill="#c6e1f2"/>
      <path d="M68.76,83.25h0m.17.06h0Z" fill="#fc61aa"/>
      <path d="M69.1,83.38h0Z" fill="#fb91c4"/>
      <path d="M69.39,83.43v0h.52Z" fill="#fabdda"/>
      <path d="M33.47,83.7a6.94,6.94,0,0,0,.74,1.14c.42.61.83,1.25,1.24,1.87,2.15,3.21,4.91,7,9,7.81A13.57,13.57,0,0,0,42.91,93c-.92-.89-1.78-1.81-2.61-2.78s-1.6-1.9-2.33-2.9a10.79,10.79,0,0,0-1.24-1.67,12.37,12.37,0,0,0-2.57-1.29C33.89,84.2,33.73,83.89,33.47,83.7Z" fill="#ff6969"/>
      <path d="M43.88,85.54l.38.33A.68.68,0,0,0,43.88,85.54Z" fill="#a6d7ef"/>
      <path d="M36.79,85.71a23.68,23.68,0,0,0,2.13,2.87,54.2,54.2,0,0,0,5,5.41,9.42,9.42,0,0,0,2.25,1.71,2.23,2.23,0,0,0,1.31.28c1.45-.29,1.93-2.11,2.42-3.26l-.2-.07a7.09,7.09,0,0,1-.94,1.17,2.26,2.26,0,0,1-.62.44c-1.61.81-2.94-1-3.7-2.14l-.48-.7c-.22-.31-.44-.62-.64-.94a7.72,7.72,0,0,0-.77-1.18,2.62,2.62,0,0,0-.6-.37,14.57,14.57,0,0,0-1.69-.81,5,5,0,0,1-.87-.33C38.48,87.2,37.86,86.09,36.79,85.71Z" fill="#ffce7a"/>
      <path d="M44.26,85.87l.24.2Z" fill="#c9dff1"/>
      <path d="M44.5,86.07l.24.2-.24-.2m.24.2.59.47-.59-.47m.59.47.17.13Z" fill="#a6d7ef"/>
      <path d="M45.5,86.87l.28.21Z" fill="#b9dbf0"/>
      <path d="M78.38,87.81a3.63,3.63,0,0,0,1.31-.94A3.6,3.6,0,0,0,78.38,87.81Z" fill="#b2e0ea"/>
      <path d="M41.18,87l.57,1,.76,1.22.61.43.9.68,1.76.81,1.69,1.06.76.16,1.46.29v0l-2-1-2.91-1.77-2.28-1.74Z" fill="#ff9b9f"/>
      <path d="M45.78,87.08l.28.2Z" fill="#b2daf0"/>
      <path d="M46.06,87.28l.27.2Z" fill="#b9dbf0"/>
      <path d="M46.33,87.48l.49.33A.9.9,0,0,0,46.33,87.48Z" fill="#b2daf0"/>
      <path d="M46.82,87.81l.1.07Z" fill="#c0ddf0"/>
      <path d="M77.79,88.21l.59-.37C78.2,87.81,77.88,88.06,77.79,88.21Z" fill="#b4e2ed"/>
      <path d="M46.92,87.88v0l.21.1-.21-.13m.21.13v0l.21.1L47.13,88m.21.13v0l.2.1Z" fill="#b2daf0"/>
      <path d="M77.55,88.34l.21-.1Z" fill="#bbe1ec"/>
      <path d="M47.54,88.28v0l.21.1Z" fill="#b2daf0"/>
      <path d="M77,88.68l.55-.3C77.36,88.34,77.11,88.54,77,88.68Z" fill="#b3e1ec"/>
      <path d="M47.75,88.41v0l.55.31A1,1,0,0,0,47.75,88.41Z" fill="#b2daf0"/>
      <path d="M76.65,88.88l.35-.17A.36.36,0,0,0,76.65,88.88Z" fill="#afdeeb"/>
      <path d="M48.34,88.75l.31.2Z" fill="#b2daf0"/>
      <path d="M48.68,89l.11.06Z" fill="#b9dbf0"/>
      <path d="M48.79,89v0l.34.16Z" fill="#b2daf0"/>
      <path d="M75.75,89.38l.28-.13A.25.25,0,0,0,75.75,89.38Z" fill="#a7e1ed"/>
      <path d="M42.56,89.35a30.09,30.09,0,0,0,1.69,2.53A7.82,7.82,0,0,0,46.06,94a2.4,2.4,0,0,0,3.59-1.31,6.65,6.65,0,0,1-1.38-.29,3.08,3.08,0,0,1-.8-.17c-.58-.31-1.11-.75-1.69-1.07s-1.22-.47-1.76-.81S43.13,89.52,42.56,89.35Z" fill="#ff6969"/>
      <path d="M49.41,89.35l.1.06-.1-.06m.14.06.1.07Z" fill="#a2d6ef"/>
      <path d="M49.69,89.48v0l1.07.5A2.57,2.57,0,0,0,49.69,89.48Z" fill="#a1d9f0"/>
      <path d="M75.27,89.58v0l.14,0Z" fill="#abdfed"/>
      <path d="M74.58,90l.69-.3A.85.85,0,0,0,74.58,90Z" fill="#d4eaf3"/>
      <path d="M70.71,91.38v0A17.53,17.53,0,0,0,74.58,90c-.29-.08-.78.28-1,.38C72.59,90.7,71.64,91,70.71,91.38Z" fill="#cae7f2"/>
      <path d="M50.79,90l.11.07L50.79,90m.14.07v0l.14,0-.14-.07m.45.2v0l.14,0Z" fill="#a2d7ef"/>
      <path d="M51.55,90.35v0l1.07.4A2.13,2.13,0,0,0,51.55,90.35Z" fill="#c4e1f2"/>
      <path d="M52.62,90.78v0a15.63,15.63,0,0,0,2.6.8c-.12-.16-.5-.18-.69-.24A9,9,0,0,0,52.62,90.78Z" fill="#cee3f3"/>
      <path d="M69.74,91.65v0l.93-.23C70.43,91.37,70,91.57,69.74,91.65Z" fill="#a8dbec"/>
      <path d="M55.25,91.62v0l.9.2v-.07Z" fill="#c4dff1"/>
      <path d="M68.74,91.85v.07l1-.2v-.07Z" fill="#c8e5f2"/>
      <path d="M56.22,91.85v0l1.66.31A4.92,4.92,0,0,0,56.22,91.85Z" fill="#c8e0f1"/>
      <path d="M65.9,92.32v.07A11.85,11.85,0,0,0,68.67,92l-.84.1Z" fill="#c3dfef"/>
      <path d="M58.33,92.25v0l1,.1Z" fill="#c1def0"/>
      <path d="M59.44,92.39v0l.38,0v-.06Z" fill="#d1e5f3"/>
      <path d="M64.59,92.45v.07l1.1-.1Z" fill="#c3dfef"/>
      <path d="M60,92.45v0h.69Z" fill="#c1def0"/>
      <path d="M60.54,92.49v0h.17Z" fill="#60cae9"/>
      <path d="M61.23,92.52v0H64.1l-.9,0Z" fill="#c2dfef"/>
      <path d="M62,92.55v0H63.2Z" fill="#77d2ed"/>
      <path d="M49.86,92.75,49,94.59l-.44.77a5.83,5.83,0,0,0,1.49-2.54Z" fill="#ff6969"/>
      <path d="M47.47,96v0a1.22,1.22,0,0,0,1-.46Z" fill="#fff680"/>
    </g>
  </g>
</svg>
