<svg xmlns="http://www.w3.org/2000/svg" viewBox="0 0 96 96">
  <g id="Layer_2" data-name="Layer 2">
    <g id="Layer_1-2" data-name="Layer 1">
      <path d="M35.6,51.54a6.17,6.17,0,0,0-1.39.73,18.61,18.61,0,0,1-2.42,1,22.32,22.32,0,0,1-10.78,1,21.5,21.5,0,0,1-10.13-4.49,20.5,20.5,0,0,1-5.71-7.31,20.23,20.23,0,0,1-1.82-7.22A19,19,0,0,1,4,29.29a20.39,20.39,0,0,1,2.6-5.84,21.44,21.44,0,0,1,26.81-7.56,21.24,21.24,0,0,1,6.85,5,19.52,19.52,0,0,1,4.33,7.55A19.94,19.94,0,0,1,45,38.28a23.61,23.61,0,0,1-.81,2.81,8.39,8.39,0,0,0-.47,1.23,5.32,5.32,0,0,0,.94-.63c.53-.37,1.07-.71,1.62-1,.3-.18.87-.37,1.07-.66a2.61,2.61,0,0,0,.23-.87c.13-.62.25-1.23.33-1.87a23,23,0,0,0-.36-8A23.88,23.88,0,0,0,26.82,11.3a25.42,25.42,0,0,0-13.66,2.49A23.12,23.12,0,0,0,7.25,18,22.76,22.76,0,0,0,1.37,41.12a23.16,23.16,0,0,0,4,7.41A23.75,23.75,0,0,0,11.74,54a25,25,0,0,0,16.67,3,25.59,25.59,0,0,0,3.76-1,5.11,5.11,0,0,0,1.51-.59c.28-.22.41-.88.55-1.2C34.64,53.35,35.19,52.47,35.6,51.54Z" fill="#fff"/>
      <path d="M59,0V0a7.86,7.86,0,0,1,1.66.78A11.52,11.52,0,0,1,64,3.24a3.62,3.62,0,0,1,.82,1.4c.07.27,0,.6-.28.69a2.07,2.07,0,0,1-1-.13c-.63-.2-1.25-.46-1.86-.71a9.75,9.75,0,0,0-3.88-.82,5.1,5.1,0,0,0-1.17,0,3.79,3.79,0,0,0,.83,0,10.79,10.79,0,0,1,1.69.35c1.56.45,3,1.22,4.5,1.73a5.87,5.87,0,0,0,1.66.42.87.87,0,0,0,.61-.14.76.76,0,0,0,.06-.73A6.05,6.05,0,0,0,65,3.77,9.4,9.4,0,0,0,60.66.51,5.66,5.66,0,0,0,59,0Z" fill="#fff680"/>
      <path d="M59,0l0,0Z" fill="#ff7b6c"/>
      <path d="M59.07.07c.3.39.76.7,1.11,1.07A6.58,6.58,0,0,1,61,2.2c.08.14.22.35.08.49s-1,.08-1.33,0a11.05,11.05,0,0,0-2.28-.3A1.16,1.16,0,0,0,56.33,3a2,2,0,0,0-.06.73,9.23,9.23,0,0,1,4.63.43c.83.35,1.66.71,2.52,1a2.08,2.08,0,0,0,1.18.12c.26-.1.27-.4.23-.63a3.28,3.28,0,0,0-.78-1.41A11.35,11.35,0,0,0,60.66.81,6.56,6.56,0,0,0,59.07.07Z" fill="#ff6969"/>
      <path d="M57.1,3.64v0h1.17Z" fill="#ffc077"/>
      <path d="M44.27,21.58c.27.56.64,1.08.93,1.64a3.54,3.54,0,0,0,.47.88,8.17,8.17,0,0,0,1.58.83c.32.18.87.65,1.24.67a2.75,2.75,0,0,0,.9-.31c.61-.22,1.24-.42,1.87-.58a15.59,15.59,0,0,1,3-.52c.68,0,1.33.08,2,.09v0a12.92,12.92,0,0,0-4.11-1v0c1.07-.15,2.15-.51,3.21-.74a39.29,39.29,0,0,1,8.23-.9,13.21,13.21,0,0,1,4.84.68,5.21,5.21,0,0,1,1.18.65c1.61,1.25,1.28,3.23.53,4.85A13.08,13.08,0,0,1,69.56,29c-.07.13-.16.36-.3.43a2.42,2.42,0,0,1-1.1-.05,16.57,16.57,0,0,0-2.11-.11,10.26,10.26,0,0,1-.68,2c-.44,1.14-.92,2.26-1.41,3.38-.23.52-.52,1-.71,1.57l1.63.1h.6l.26-.46.55-1.2,1.28-3.28.49-1.6h0a17.39,17.39,0,0,1-.79,4.57,17.06,17.06,0,0,0-.66,2.18c.24,0,.85.23,1,.09s.25-.58.32-.76c.3-.73.57-1.48.88-2.21,1.21-2.92,2.62-5.9,3.06-9,.15-1.06.32-2.8-.68-3.56a1.89,1.89,0,0,0-.76-.28v0a3.64,3.64,0,0,1,2.56,2.4h0a5.76,5.76,0,0,0-.83-1.64c-.33-.09-.67-.52-1-.69a7.34,7.34,0,0,0-2.21-.61c1.63-1.82-.3-3.92-1.7-5.18-.27-.24-.56-.47-.86-.69-3.12-2.32-7-3.4-10.51-4.92a22.05,22.05,0,0,1-3.84-2A7.38,7.38,0,0,1,50.61,6c-.36-.44.17-.84.54-1.06a8.7,8.7,0,0,1,2.25-.88,2.17,2.17,0,0,1,1-.16c-.13-.14-.45-.06-.62,0-.57,0-1.16,0-1.73.1a40,40,0,0,0-6.26.9c-.57.16-1.88.47-1.75,1.24.2,1.16,1.64,2,2.58,2.59,2.55,1.48,5.65,2.49,7.71,4.63a3.27,3.27,0,0,1,.84,3.94,4.26,4.26,0,0,1-.84,1,7.58,7.58,0,0,1-1.73,1.1,19.23,19.23,0,0,1-3.38,1.23A36.22,36.22,0,0,1,44.27,21.58Z" fill="#ff6969"/>
      <path d="M53.88,3.94V4l.49-.06Z" fill="#ffd27b"/>
      <path d="M69.06,20.14a8.62,8.62,0,0,1,2.18.61,10.23,10.23,0,0,1,1,.73,3.35,3.35,0,0,0-.18-1.77,10.79,10.79,0,0,0-2.79-4.24c-2.92-3-6.92-5.13-10.82-6.74-1.4-.57-2.85-1-4.26-1.54A5.71,5.71,0,0,1,52.06,6c-.93-1,.95-1.85,1.79-2-.24-.09-.64.09-.87.17a6.74,6.74,0,0,0-2.07.91c-.33.24-.6.58-.3,1a7.33,7.33,0,0,0,1.51,1.26,22.05,22.05,0,0,0,3.84,2c3.44,1.47,7.11,2.54,10.19,4.69A11.43,11.43,0,0,1,69,16.77a3,3,0,0,1,.66,2A2.93,2.93,0,0,1,69.06,20.14Z" fill="#ffce7a"/>
      <path d="M54.51,9.15v0A22.57,22.57,0,0,1,49.6,6.53c-.39-.3-1.23-1-1.05-1.55a1.54,1.54,0,0,1,.6-.64c-.28,0-.51.35-.64.54A1.44,1.44,0,0,0,48.73,7a6.54,6.54,0,0,0,2.08,1.16A20.3,20.3,0,0,0,54.51,9.15Z" fill="#fff680"/>
      <path d="M43,11.56a13.39,13.39,0,0,1-3.35,1.54,17,17,0,0,0-3.08.9v.06a15.64,15.64,0,0,1,2.25,1.53,5.38,5.38,0,0,0,1,.78c-.25-.35-.67-.64-.69-1.1s.39-.59.69-.71c.8-.33,1.71-.4,2.52-.7A1.41,1.41,0,0,0,43,11.56Z" fill="#ff6969"/>
      <path d="M43,11.56a3,3,0,0,1,.35,1.13c-.11,1.34-2.11,1.41-3.11,1.71-.38.11-1,.27-1.13.7s.29.87.57,1.17c.75.78,1.86,1.1,2.59,1.87a.55.55,0,0,1,.2.5c0,.12-.12.24-.08.37s.37.45.51.66c.62-.14,1.21-.88.82-1.47a2.75,2.75,0,0,0-1-.72A18.77,18.77,0,0,1,41,16.4c-.26-.19-.8-.55-.79-.92s.83-.59,1.17-.66c1-.22,2.89-.73,2.47-2.09a1.71,1.71,0,0,0-.23-.47,2.55,2.55,0,0,0-.65-.7m14.8.23a5.19,5.19,0,0,0,1,1.1,19,19,0,0,0,2.87,2.58,2.54,2.54,0,0,0,1.21.56c.12,0,.34,0,.41-.08s0-.32-.12-.42a5.15,5.15,0,0,0-.95-.85c-1-.72-2-1.38-3-2A13.32,13.32,0,0,0,57.79,11.79Z" fill="#fff680"/>
      <path d="M43.3,12.43v.4h0Z" fill="#ff9b71"/>
      <path d="M65.59,12.5h0m.35.24h0Z" fill="#ff6969"/>
      <path d="M23.39,13.33v0h1.25A4,4,0,0,0,23.39,13.33Z" fill="#fceecc"/>
      <path d="M22.77,13.36v0h.38Z" fill="#f5cb65"/>
      <path d="M23.15,13.38c-.4,0-.81,0-1.21,0a20.32,20.32,0,0,0-3.21.55A21.16,21.16,0,0,0,7.18,21.44a20.07,20.07,0,0,0,.7,25.32,20.62,20.62,0,0,0,4.21,3.69,21.75,21.75,0,0,0,6.71,2.93A21.85,21.85,0,0,0,34,51.6a11.27,11.27,0,0,0,2.47-1.51,8.35,8.35,0,0,0,.89-1.25,30.61,30.61,0,0,1,2-2.51c.67-.74,1.39-1.45,2.13-2.14a7.12,7.12,0,0,0,1.08-1,9.6,9.6,0,0,0,1.15-2.47A21.2,21.2,0,0,0,45,35.21a20.35,20.35,0,0,0-6-15.87,21.06,21.06,0,0,0-5.29-3.75A20,20,0,0,0,29,13.91,26.24,26.24,0,0,0,25,13.39,9.74,9.74,0,0,0,23.15,13.38Z" fill="#f1ba31"/>
      <path d="M24.88,13.36v0h.38l-.38,0m-2.63,0v0h.24l-.24,0m3.7,0v0h.21l-.21,0m.35,0v0h.17Z" fill="#f8dd98"/>
      <path d="M21.22,13.49v0h.13Z" fill="#f7d88b"/>
      <path d="M26.61,13.49v0h.14Z" fill="#f8dd98"/>
      <path d="M20.52,13.59v0h.11l-.11,0m-.2,0v0h.1Z" fill="#f9e1a5"/>
      <path d="M19.45,13.8v0h.11Z" fill="#f7d88b"/>
      <path d="M28.53,13.81h0Z" fill="#f8dd98"/>
      <path d="M19.14,13.86v0h.11Z" fill="#f7d88b"/>
      <path d="M28.82,13.86v0h.1Z" fill="#f9e1a5"/>
      <path d="M29,13.91h0Z" fill="#f8dd98"/>
      <path d="M18.47,14h0m-.83.23,0,0Z" fill="#f7d88b"/>
      <path d="M62.84,16v0h.27Z" fill="#ffc077"/>
      <path d="M40.26,16.8l1.38,1.4.73.74c.36-.9-.77-1.31-1.42-1.7A6.2,6.2,0,0,0,40.26,16.8Z" fill="#ff6969"/>
      <path d="M63,19.41l0,.26h.18Z" fill="#fff680"/>
      <path d="M24,19.77a2,2,0,0,0-.69.57L22,21.58l-4.64,4.47L16,27.39c-.2.2-.52.42-.6.7s.34.61.53.8l1.63,1.57c.19.19.44.55.72.59s.31-.12.42-.22c.27-.25.53-.51.79-.77l3.29-3.17.9-.87c.1-.1.25-.27.41-.24s.3.2.42.31l.79.77c1,1,2.08,2,3.11,3,.34.32.65.69,1,1a.55.55,0,0,0,.55.18c.3-.1.54-.43.76-.64l1.55-1.5c.18-.17.68-.52.61-.8s-.3-.39-.47-.54l-1.07-1-4.22-4c-.75-.73-1.52-1.44-2.28-2.17C24.62,20.2,24.25,19.67,24,19.77Z" fill="#fefdf5"/>
      <path d="M70.51,20.68v0l.42.1Z" fill="#ffb876"/>
      <path d="M70.93,20.78v0c1.25.72,1.17,2.27,1,3.51-.35,3.12-1.78,6.1-3,9-.31.73-.63,1.46-.89,2.21a3,3,0,0,1-.47,1.1v0l2.32.44c.21-.85.63-1.66.86-2.51a6.38,6.38,0,0,0,.07-3.07c1.89.62,1.85,3.07,1.65,4.61a7.23,7.23,0,0,1-.2,1.13c0,.13-.15.37-.07.49s.25.11.35.14c.29.1.57.22.86.31a12,12,0,0,0-.22-5.65,6.47,6.47,0,0,0-1-1.83c-.15-.19-.64-.58-.64-.8s.2-.44.28-.61A11.86,11.86,0,0,0,72.49,28a7.94,7.94,0,0,0,.73-4.58,4.93,4.93,0,0,0-.49-1.1A2.84,2.84,0,0,0,70.93,20.78Z" fill="#fff680"/>
      <path d="M52.19,23.25v0a15,15,0,0,1,3.11.6c.34.11.66.28,1,.37v0a20.35,20.35,0,0,0-2.07-.09,20.32,20.32,0,0,0-5.74,1.43v0a24.05,24.05,0,0,1,2.83,1.73,52.74,52.74,0,0,1,6.26,4.53c.63.53,1.26,1.07,1.87,1.63a12.1,12.1,0,0,0,1.17,1.1c.37-.87.72-1.76,1.14-2.61.07-.15.35-.78.59-.69s.21.94.21,1.19c0,1.23-.29,2.43-.31,3.65l1.14,0v0h-.14c.74-1.51,1.39-3.06,2-4.61a9.67,9.67,0,0,0,.8-2.34,17,17,0,0,1,2.25.14,2.55,2.55,0,0,0,1,0,1.17,1.17,0,0,0,.29-.43c.22-.37.41-.75.6-1.14.71-1.54,1.1-3.5-.36-4.77a4.88,4.88,0,0,0-1.25-.73,13,13,0,0,0-5.08-.71A52,52,0,0,0,52.19,23.25Z" fill="#ff7b69"/>
      <path d="M72,22.58v.13h0Z" fill="#ffb075"/>
      <path d="M73.52,23.62A10.87,10.87,0,0,0,75,25.82a3.06,3.06,0,0,0,.76.88c.14.07.35-.07.48-.11L75.59,26l-1.3-1.33Z" fill="#ffce7a"/>
      <path d="M73.62,23.68c.41,1.24,1.86,1.91,2.59,2.91-.75.17-1.44.59-2.17.83-.19.06-.6.27-.78.12s-.1-.29-.12-.42a6.88,6.88,0,0,1,0-1.2h0a13.08,13.08,0,0,1-1,2.84c-.13.28-.27.56-.41.83,0,.1-.15.23-.13.34s.27.34.38.47a6.9,6.9,0,0,1,.74,1,7.44,7.44,0,0,1,.94,3.14,13.38,13.38,0,0,1-.06,2.61c0,.23-.23.78-.1,1s.49.22.65.28c.58.23,1.14.48,1.7.74a29.79,29.79,0,0,1,3.66,2.05,19.19,19.19,0,0,0,1.77,1.22c.33-1.2.92-2.36,1.32-3.55a35.5,35.5,0,0,0,1.76-7.68c.18-1.77,0-3.89-1.84-4.8a6,6,0,0,0-1.9-.5,13.48,13.48,0,0,0-3.29.29v0c.71-.09,1.42-.31,2.11-.45a10.4,10.4,0,0,1,3.81-.12v0a7,7,0,0,0-4.36,0c-.49.14-1,.29-1.45.46-.16.05-.44.22-.61.19s-.65-.47-.88-.64c-.8-.61-1.51-1.39-2.35-1.95m.07.27a3.87,3.87,0,0,0,.88,1.44,2.63,2.63,0,0,0,.47.53l-.65-.9Z" fill="#ff6969"/>
      <path d="M45.66,24.12a2.49,2.49,0,0,0,.39.84,5,5,0,0,0,1.4.51c.63.23,1.23.5,1.84.78a6.78,6.78,0,0,0,.86.41v0l-3-1.76Z" fill="#fff680"/>
      <path d="M46,25c.22.55.43,1.1.62,1.67.06.19.1.56.26.71s.72.17,1,.24a16.39,16.39,0,0,1,2.15.71,26.49,26.49,0,0,1,7.43,4.48,6.31,6.31,0,0,1,2.24,3.48l2.53-.1c0-1.21.31-2.4.31-3.61,0-.3.12-1-.15-1.22s-.56.46-.64.62a17.06,17.06,0,0,0-1.15,2.67,53.66,53.66,0,0,0-9.19-7.22,23.77,23.77,0,0,0-3.6-1.81A9.48,9.48,0,0,0,46,25Z" fill="#ff7069"/>
      <path d="M81.57,25.45v0h.8Z" fill="#ff9470"/>
      <path d="M77.35,26.19v0c.42,0,.83-.18,1.25-.22a7.14,7.14,0,0,1,3.91.43A3.77,3.77,0,0,1,84.44,30a25.5,25.5,0,0,1-1.39,7.58c-.38,1.16-.76,2.31-1.19,3.45-.13.33-.26.67-.4,1a1.11,1.11,0,0,0-.15.43c0,.24.68.63.88.74l2.15-5.08h0l-.2,1.3-.61,2.94-.28,1.17-.1.5.33.34.79.73A29.49,29.49,0,0,0,85.87,30.6c-.29-1.68-.67-4.07-2.44-4.93a4,4,0,0,0-1.65-.18A23,23,0,0,0,77.35,26.19Z" fill="#ffbf77"/>
      <path d="M83.51,25.72v0l.9.74A1.56,1.56,0,0,0,83.51,25.72Z" fill="#fff680"/>
      <path d="M75.07,26l.11.14Z" fill="#ff6969"/>
      <path d="M73.07,26.56c.08.4-.07,1,.48,1A2.18,2.18,0,0,0,73.07,26.56Z" fill="#ffce7a"/>
      <path d="M46.84,27.25v0Z" fill="#ffbdbd"/>
      <path d="M4,27.35v0Z" fill="#f7d88b"/>
      <path d="M46.9,27.39l.46,1.94.34,2.14,1.52-.6,2.42-1-2.32,7.18-.59,2.24a9.19,9.19,0,0,0,1.11-.5c.64-.28,1.31-.54,2-.79a29.73,29.73,0,0,1,5.36-1.39,16.34,16.34,0,0,1,2.69-.33v0h-.14c-.12-1.51-1.51-2.93-2.62-3.85A23.33,23.33,0,0,0,46.9,27.39Z" fill="#ff7f69"/>
      <path d="M85,27.52l0,.14h0L85,27.52m.07.17,0,.13h0Z" fill="#ff7f6d"/>
      <path d="M47.05,28v0Z" fill="#ffbdb4"/>
      <path d="M47.19,28.55v0m.06.28v.1h0Z" fill="#ffbfb4"/>
      <path d="M3.48,29.16v.1h0Z" fill="#f8dd98"/>
      <path d="M77.7,38.88a6.26,6.26,0,0,0,1-1.94A13.33,13.33,0,0,0,80,32.84a4.2,4.2,0,0,0-.23-2.14,2.8,2.8,0,0,0-1-1.26,2,2,0,0,0-2.8.66c-.2.49.31.71.62,1a4.94,4.94,0,0,1,1.22,1.84C78.51,34.89,78.12,36.92,77.7,38.88Z" fill="#fff680"/>
      <path d="M44.55,29.19v.1h0Z" fill="#f7d88b"/>
      <path d="M44.58,29.33v.1h0Z" fill="#f9e1a5"/>
      <path d="M47.35,29.33v.1h0Z" fill="#ffbfb4"/>
      <path d="M44.66,29.68l0,0Z" fill="#f8dd98"/>
      <path d="M47.42,29.7v.1h0Z" fill="#ffbfb4"/>
      <path d="M68.06,29.73a28.22,28.22,0,0,1-1.62,4.51,15.68,15.68,0,0,0-.94,2.1c.26,0,.9.23,1.11.07s.14-.29.18-.4c.12-.35.23-.71.33-1.07A23.09,23.09,0,0,0,68,31.1C68,30.71,68.21,30.09,68.06,29.73Z" fill="#fff680"/>
      <path d="M47.45,29.9V30h0Z" fill="#ffbfb4"/>
      <path d="M51.6,29.9c-.92.42-1.89.75-2.83,1.14-.26.1-.88.22-1,.45s0,.62,0,.81c.05.67,0,1.34,0,2a19.31,19.31,0,0,1-.51,4.08c-.15.67-.42,1.33-.53,2l1.38-.75.56-.3.18-.62.37-1.33,1.37-4.48.73-2.17Z" fill="#ff7069"/>
      <path d="M44.72,30v.1h0Z" fill="#f9e1a5"/>
      <path d="M75.87,30.26v.2h0Z" fill="#ffb075"/>
      <path d="M85.82,30.3c.14,1,.33,2.08.38,3.14a27,27,0,0,1-.49,6.34c-.23,1.22-.53,2.42-.88,3.61-.11.38-.23.76-.35,1.14a1.26,1.26,0,0,0-.15.5c0,.18.26.34.38.46a8.17,8.17,0,0,0,1.22,1.27,20.56,20.56,0,0,0,.93-3.17,20.72,20.72,0,0,0,.61-9.32,11.68,11.68,0,0,0-1-3A3.37,3.37,0,0,0,85.82,30.3Z" fill="#ff6969"/>
      <path d="M3.24,30.4v.1h0Z" fill="#f7d88b"/>
      <path d="M68,30.4v.16h0Z" fill="#ffb075"/>
      <path d="M47.56,30.53v.13h0Z" fill="#ffbfb4"/>
      <path d="M12.44,30.7v0h.13Z" fill="#f8dc93"/>
      <path d="M23.91,30.72c-.27.1-.52.45-.72.65l-1.56,1.5c-.24.23-.6.47-.55.83s.4.54.59.74c.52.54,1.08,1.09,1.65,1.58.27.22.52.48.9.35a2.24,2.24,0,0,0,.8-.63l1.38-1.33c.24-.23.61-.47.54-.84s-.35-.52-.54-.73c-.53-.56-1.11-1.08-1.66-1.61-.18-.17-.54-.61-.83-.51m11.55,0c-.28.1-.52.44-.73.64l-1.52,1.47c-.19.18-.65.46-.61.76s.46.61.68.8c.59.5,1.11,1.07,1.66,1.61.22.22.51.52.86.4a2.34,2.34,0,0,0,.76-.64L38,34.37c.18-.18.62-.47.57-.77s-.42-.51-.61-.7l-1.69-1.63C36.1,31.08,35.77,30.61,35.46,30.73Z" fill="#fefdf5"/>
      <path d="M68,30.7v.16h0Z" fill="#ffb075"/>
      <path d="M12.33,30.76c-.31.13-.53.48-.76.71-.48.48-1,.93-1.49,1.4-.19.19-.61.46-.57.77s.38.53.57.73c.55.55,1.1,1.1,1.66,1.64.24.23.5.54.87.39a2.8,2.8,0,0,0,.76-.66l1.49-1.44c.26-.25.55-.47.47-.86s-.44-.55-.65-.74c-.52-.48-1-1-1.52-1.5C13,31,12.67,30.62,12.33,30.76Z" fill="#fefdf5"/>
      <path d="M47.59,30.8v.13h0Z" fill="#ffbfb4"/>
      <path d="M44.9,31.06v.14h0Z" fill="#f7d88b"/>
      <path d="M47.63,31.06v.17h0Z" fill="#ffbfb4"/>
      <path d="M47.66,31.4v.17h0Z" fill="#ffb8b4"/>
      <path d="M70.89,31.5a12,12,0,0,1,.17,1.2,7.84,7.84,0,0,1-.52,2.74c-.13.39-.28.78-.43,1.17,0,.11-.18.34-.11.45s.43.16.58.2c.56.15,1.1.33,1.66.49,0-.41.18-.81.25-1.21a6.7,6.7,0,0,0-.12-3.5A2.3,2.3,0,0,0,70.89,31.5Z" fill="#fffcce"/>
      <path d="M47.7,31.73v.34h0Z" fill="#ffdbda"/>
      <path d="M80,32v.53h0Z" fill="#ffb075"/>
      <path d="M47.73,32.17v.26h0Z" fill="#ffb8b4"/>
      <path d="M3,32.57v.37H3l0-.37m42,0v.33h0Z" fill="#f5cb65"/>
      <path d="M80,32.73v.21h0Z" fill="#ffb075"/>
      <path d="M47.76,32.8v.54h0Z" fill="#ffb8b4"/>
      <path d="M45.07,33.1v.34h0l0-.34M3,33.2v1.1H3Z" fill="#fceecc"/>
      <path d="M47.76,33.34V34h0Z" fill="#ffdbda"/>
      <path d="M45.07,33.44v.5h0Z" fill="#f8dd98"/>
      <path d="M15.34,33.47v.27h0Z" fill="#fbecc4"/>
      <path d="M21,33.54v.16h0l0-.16m17.58.12v0Z" fill="#f8dc93"/>
      <path d="M45.07,33.94v.33h0Z" fill="#fceecc"/>
      <path d="M47.76,34v.53h0Z" fill="#ffb8b4"/>
      <path d="M78.12,34.3v.14h0Z" fill="#ffb075"/>
      <path d="M45,34.47v.34h0l0-.34M3,34.54v.37H3Z" fill="#f8dd98"/>
      <path d="M47.73,34.91v.3h0Z" fill="#ff948f"/>
      <path d="M73.69,34.94v1.27h0A3.59,3.59,0,0,0,73.69,34.94Z" fill="#ffd37a"/>
      <path d="M3,35.17v.24h0Z" fill="#f8dd98"/>
      <path d="M47.7,35.41v.23h0Z" fill="#ffb8b4"/>
      <path d="M45,35.47v.2h0l0-.2m-41.89.1v.2h0l0-.2m41.86.24V36h0l0-.16m-41.83.1v.17h0l0-.17m41.8.2v.13h0Z" fill="#f8dd98"/>
      <path d="M78.15,36.11v.23h0Z" fill="#ffb075"/>
      <path d="M61.52,36.18v0h.35Z" fill="#ff8e8e"/>
      <path d="M61.87,36.18v0H63Z" fill="#febcb4"/>
      <path d="M3.14,36.21v.13h0Z" fill="#f8dd98"/>
      <path d="M60.87,36.21v0h.41Z" fill="#fed8d9"/>
      <path d="M42.61,43.19a6.62,6.62,0,0,1-1,.94c-.4.35-.77.73-1.14,1.1a26.24,26.24,0,0,0-3.11,3.64,30,30,0,0,0-2.28,3.71c-.23.44-.44.88-.65,1.33a2.4,2.4,0,0,1-.32.64,8.42,8.42,0,0,1-.68,1.87,24.85,24.85,0,0,0-1,3.87A29.28,29.28,0,0,0,33.72,76a29.93,29.93,0,0,0,9.52,12.8,31.32,31.32,0,0,0,10.44,5.34A30.41,30.41,0,0,0,64.29,95.3,32,32,0,0,0,75.8,92.42a31.38,31.38,0,0,0,8-5.41,29.15,29.15,0,0,0,8.44-28.22,29.77,29.77,0,0,0-4.81-10.16,29.42,29.42,0,0,0-9.74-8.53,31.22,31.22,0,0,0-13.49-3.86,32.74,32.74,0,0,0-15.86,3.28,27,27,0,0,0-3.87,2.33c-.43.3-.84.61-1.25.93A2,2,0,0,1,42.61,43.19Z" fill="#fdfdfe"/>
      <path d="M63.63,36.21v0H64l-.38,0m-3.32,0v0h.24l-.24,0m4,0v0h.28Z" fill="#feb3b4"/>
      <path d="M18.21,36.3a1.21,1.21,0,0,0-.49.38l-.79.76c-.36.36-.72.72-1.11,1.05-.17.15-.43.38-.44.62a.84.84,0,0,0,.31.57c.35.37.73.72,1.1,1.07L21.25,45c.7.67,1.38,1.39,2.11,2,.26.23.53.6.93.49s.45-.35.62-.52l1.28-1.23,4.7-4.51c.48-.47,1-.92,1.43-1.41.16-.17.44-.34.5-.56s-.34-.62-.54-.81l-1.66-1.6c-.2-.19-.47-.56-.76-.62a.56.56,0,0,0-.45.22c-.31.28-.6.58-.9.87-1.08,1-2.1,2.16-3.18,3.2-.29.28-.8,1-1.28.91s-1-.77-1.35-1.11l-3-2.87-1-1C18.59,36.42,18.41,36.24,18.21,36.3Z" fill="#fefdf5"/>
      <path d="M64.84,36.28v0h.21l-.21,0m.42,0v0h.24Z" fill="#feb3b4"/>
      <path d="M66.74,36.48v0h.18Z" fill="#fea1a1"/>
      <path d="M73.66,36.48v.23h0Z" fill="#ffb075"/>
      <path d="M67.23,36.54v0h.1Z" fill="#feb3b4"/>
      <path d="M67.43,36.58v0h.11Z" fill="#febcbd"/>
      <path d="M47.56,36.64v.14h0Z" fill="#ffafab"/>
      <path d="M73.62,36.88V37h0Z" fill="#ffb075"/>
      <path d="M3.24,36.94V37h0l0-.1m0,.2v.1h0Z" fill="#f7d88b"/>
      <path d="M73.59,37.21v.13h0Z" fill="#ffb075"/>
      <path d="M47.45,37.34v.1h0l0-.1m0,.2v.11h0Z" fill="#ffc0bd"/>
      <path d="M44.66,37.63l0,0,0,0m0,.17v0M3.45,38v.1h0l0-.1m41.1.07v.1h0Z" fill="#f8dd98"/>
      <path d="M84.34,38.08c-.59,1.21-1.09,2.47-1.61,3.71l-.39,1c0,.11-.15.27-.12.4s.71.68.94.83l.33-1.33.59-2.78.22-1.2Z" fill="#9c964e"/>
      <path d="M3.49,38.2l0,0Z" fill="#f9e1a5"/>
      <path d="M47.28,38.28v.1h0Z" fill="#ffafab"/>
      <path d="M3.53,38.34v0Z" fill="#f8dd98"/>
      <path d="M44.49,38.4v0Z" fill="#f9e1a5"/>
      <path d="M47.26,38.47v0Z" fill="#ffafab"/>
      <path d="M44.46,38.54v0Z" fill="#f8dd98"/>
      <path d="M47.22,38.6v0Z" fill="#ffc0bd"/>
      <path d="M44.42,38.67v0Z" fill="#f8dd98"/>
      <path d="M47.18,38.75v.1h0Z" fill="#ffafab"/>
      <path d="M44.39,38.8v0Z" fill="#f9e1a5"/>
      <path d="M60.69,39v0h.9Z" fill="#c7eff4"/>
      <path d="M61.59,39v0h2.25l-.73,0Z" fill="#6de9d2"/>
      <path d="M63.84,39v0l.79,0V39Z" fill="#c7eff4"/>
      <path d="M60.55,39v0h.14Z" fill="#ace9ef"/>
      <path d="M60.69,39c-1.72.26-3.44.38-5.15.81A27.35,27.35,0,0,0,36.93,55.52a26.47,26.47,0,0,0,.78,22.18,27.47,27.47,0,0,0,4.24,6A28,28,0,0,0,56.61,92a31,31,0,0,0,10.31.31,28.35,28.35,0,0,0,7.81-2.37A27,27,0,0,0,90.35,64.5c-.54-12-9.91-22.63-22.16-25A28.46,28.46,0,0,0,62.66,39,13,13,0,0,0,60.69,39Z" fill="#25c7d6"/>
      <path d="M59.93,39v0h.35Z" fill="#c7eff4"/>
      <path d="M60.28,39v0h.24Z" fill="#8aebde"/>
      <path d="M64.6,39v0h.21Z" fill="#8cecdd"/>
      <path d="M64.81,39v0l.65,0V39Z" fill="#c7eff4"/>
      <path d="M59.55,39.08v0h.24Z" fill="#8aeade"/>
      <path d="M65.46,39.08v0l.56,0v-.07Z" fill="#c7eff4"/>
      <path d="M59,39.15v0h.17Z" fill="#7ae9d8"/>
      <path d="M66,39.15v0h.13Z" fill="#8cecdd"/>
      <path d="M66.15,39.15v0l.49,0v-.07Z" fill="#c7eff4"/>
      <path d="M32.83,39.18v.1h0Z" fill="#f8dc93"/>
      <path d="M58.27,39.22v0h.31l-.31,0m8.37,0v0l.48,0v-.06Z" fill="#c7eff4"/>
      <path d="M58.13,39.25v0h.14l-.14,0m-.41.07v0h.14l-.14,0m-1.38.26v0h.14Z" fill="#ace9ef"/>
      <path d="M44.11,39.74v0Z" fill="#f9e1a5"/>
      <path d="M46.91,39.84v0Z" fill="#ffafab"/>
      <path d="M55.23,39.85v0h.14Z" fill="#ace9ef"/>
      <path d="M69.82,39.85v0H70Z" fill="#a5e9ec"/>
      <path d="M70.3,40v0h.14Z" fill="#a0e8ea"/>
      <path d="M46.84,40.07v0Z" fill="#ffafab"/>
      <path d="M70.79,40.12v0h.14Z" fill="#ace9ef"/>
      <path d="M71,40.18v0h.14Z" fill="#a5e9ec"/>
      <path d="M71.2,40.25v0h.14l-.14,0m.21.07v0h.14l-.14,0m.21.06v0l.17,0Z" fill="#a0e8ea"/>
      <path d="M71.82,40.45v0H72Z" fill="#ace9ef"/>
      <path d="M72.38,40.65v0l.17,0Z" fill="#a0e8ea"/>
      <path d="M73.41,41.05v0l.14,0Z" fill="#a5e9ec"/>
      <path d="M73.9,41.25v0l.17,0-.17-.07m.17.07v0l.14,0v0l-.14,0m.73.33v0l.41.16-.41-.2m.93.47v0l.14,0v0l-.14,0m.14.07v0l.14,0v0l-.14,0m.14.06v0l.24.1v0l-.24-.1m.34.21v0l.14,0v0Z" fill="#ace9ef"/>
      <path d="M48.52,42.66l.18-.1Z" fill="#afeaf0"/>
      <path d="M76.49,42.52v0l.17.06Z" fill="#bbecf2"/>
      <path d="M76.7,42.66v0l.1,0Z" fill="#a6e9ec"/>
      <path d="M48.18,42.82l.17-.06Z" fill="#afeaf0"/>
      <path d="M76.84,42.72v0l.24.1v0Z" fill="#ace9ef"/>
      <path d="M77.08,42.86l.1.06Z" fill="#c0eef3"/>
      <path d="M47.83,43.06,48,43Z" fill="#afeaf0"/>
      <path d="M77.18,42.92v0l.17.06Z" fill="#bbecf2"/>
      <path d="M47.63,43.16l.17-.07Z" fill="#afeaf0"/>
      <path d="M77.39,43.06v0l.31.17Z" fill="#ace9ef"/>
      <path d="M47.42,43.32l.17-.1Z" fill="#a8e8ee"/>
      <path d="M77.74,43.26l.1.06Z" fill="#afeaf0"/>
      <path d="M47.21,43.42l.17-.06Z" fill="#a8e8ee"/>
      <path d="M77.84,43.32l.1.07Z" fill="#c0eef3"/>
      <path d="M77.94,43.39l.11.07Z" fill="#afeaf0"/>
      <path d="M47,43.59l.18-.1Z" fill="#a8e8ee"/>
      <path d="M78.05,43.46l.1.06Z" fill="#c0eef3"/>
      <path d="M78.15,43.52l.1.07-.1-.07m-31.35.2.17-.1Z" fill="#afeaf0"/>
      <path d="M78.25,43.59l.11.07Z" fill="#c0eef3"/>
      <path d="M78.36,43.66l.17.13Z" fill="#b1eaf0"/>
      <path d="M46.59,43.86l.17-.1Z" fill="#afeaf0"/>
      <path d="M46.31,44.06l.24-.17C46.43,43.87,46.36,44,46.31,44.06Z" fill="#b1eaf0"/>
      <path d="M78.63,43.86v0l.18.07Z" fill="#bbecf2"/>
      <path d="M78.84,44l.11.07Z" fill="#b1eaf0"/>
      <path d="M46.11,44.19l.17-.1Z" fill="#afeaf0"/>
      <path d="M45.83,44.39l.24-.2-.24.2m33.29-.2.1.07-.1-.07m.27.2.11.07-.11-.07m-33.91.27.24-.17c-.12,0-.18.06-.24.17m34.19-.07.17.14-.17-.14m-34.46.27.24-.2-.24.2m34.81,0,.17.13L80,44.86m-35.16.27.24-.2-.24.2m35.5,0,.24.2-.24-.2m-36,.4.31-.27-.31.27m36.47,0,.24.2-.24-.2m-37.1.53.45-.4A.77.77,0,0,0,43.75,46.06Z" fill="#b1eaf0"/>
      <path d="M81.09,45.73l.41.37Z" fill="#cff2f6"/>
      <path d="M81.54,46.13a6.17,6.17,0,0,0,1.35,1.3c-.11-.36-.69-.74-1-1s-.23-.26-.39-.3m-39,1.1.86-.83A1.7,1.7,0,0,0,42.51,47.23Z" fill="#b1eaf0"/>
      <path d="M24.05,47.57v0h.17Z" fill="#f8dc93"/>
      <path d="M89.18,51.37a3.56,3.56,0,0,0,0-.73,8.76,8.76,0,0,0,0-2.11,1.41,1.41,0,0,0-.33-.85c-.41-.39-1,.19-1.23.45-.09.1-.28.26-.27.4s.41.63.56.84A23.25,23.25,0,0,1,89.18,51.37Z" fill="#ff6969"/>
      <path d="M41.75,48l.41-.43A.75.75,0,0,0,41.75,48Z" fill="#b1eaf0"/>
      <path d="M83,47.6l.49.5A.92.92,0,0,0,83,47.6Z" fill="#cff2f6"/>
      <path d="M41.68,48.07v.06l.07-.06Z" fill="#86e1e7"/>
      <path d="M41.33,48.5l.28-.3Z" fill="#b1eaf0"/>
      <path d="M83.58,48.2l.34.37A.59.59,0,0,0,83.58,48.2Z" fill="#cff2f6"/>
      <path d="M41.27,48.53v.07l.06-.07Z" fill="#85e1e7"/>
      <path d="M41,48.9l.28-.3-.28.3m-.21.27h0l.17-.23-.21.23m43.63,0,.14.13-.14-.13M40.5,49.5l.21-.23-.21.23m-.2.27h0l.17-.23Z" fill="#b1eaf0"/>
      <path d="M10.81,72.28c.11.24.37.39.55.57a13.55,13.55,0,0,0,1.42,1.21c.14.1.68.52.81.22s-.18-.94-.27-1.23A22.48,22.48,0,0,0,12,69.61c-2-4-4.59-7.91-5.62-12.29q-.11-.45-.18-.9c-.23-1.38-.66-3.9,1.45-4a7.13,7.13,0,0,1,2.87.89v-.5a16.45,16.45,0,0,1-3-2.27c-.24-.22-.46-.45-.69-.67-.08-.07-.19-.21-.32-.2s-.25.18-.34.27a3.53,3.53,0,0,0-.7,1,7.72,7.72,0,0,0-.43,4.84c.86,4.6,3.22,9,5.51,13A27.64,27.64,0,0,1,12.21,72c.11.26.46.91.24,1.16s-.36,0-.5,0C11.53,72.89,11.23,72.47,10.81,72.28Z" fill="#fff680"/>
      <path d="M40.09,50l.21-.24Z" fill="#b1eaf0"/>
      <path d="M40,50.24h0l.1-.17Z" fill="#afeaf0"/>
      <path d="M55.58,50.2v0h1.07Z" fill="#4dc1c8"/>
      <path d="M67.74,50.2v0h.94Z" fill="#4bc2ca"/>
      <path d="M55.47,50.27v0l1.07,0A2.28,2.28,0,0,0,55.47,50.27Z" fill="#8c6946"/>
      <path d="M56.54,50.24v0l.45.07Z" fill="#a3866c"/>
      <path d="M67.47,50.27v0l.45,0Z" fill="#a4816f"/>
      <path d="M67.92,50.24v0h.62Z" fill="#8e6a48"/>
      <path d="M68.54,50.24v0l.62.07Z" fill="#a6876b"/>
      <path d="M39.74,50.51l.21-.24Z" fill="#b1eaf0"/>
      <path d="M55.33,50.27v0h.14Z" fill="#a58871"/>
      <path d="M55.65,50.29a5.34,5.34,0,0,0-1.42.39,3.64,3.64,0,0,0-1.23.93,4.3,4.3,0,0,0-1.08,2.17,6.1,6.1,0,0,0,.19,2c.16.81.26,1.63.44,2.43s.24,1.39.38,2.08c0,.22.23.6.09.82s-.46.23-.66.34a20.72,20.72,0,0,0-1.84,1A9.81,9.81,0,0,0,46.3,68,12,12,0,0,0,46.17,71a9.48,9.48,0,0,0,.24,2.6,9.24,9.24,0,0,0,3.43,4.66,17.77,17.77,0,0,0,2.07,1.21,17.53,17.53,0,0,0,3.73,1.43,25.65,25.65,0,0,0,11.66.39,19.57,19.57,0,0,0,2-.52c3.4-1,7.24-3,8.6-6.4A11.18,11.18,0,0,0,78.36,70a10,10,0,0,0,0-1.73,7.38,7.38,0,0,0-.92-2.4,11,11,0,0,0-3.78-3.56,12.61,12.61,0,0,0-1.54-.82c-.19-.09-.55-.17-.64-.38s0-.42.08-.63c.07-.55.17-1.09.27-1.63.4-2.3,1.52-5-.24-7a3.93,3.93,0,0,0-.69-.66,4.53,4.53,0,0,0-2.07-.86A4.36,4.36,0,0,0,64.2,53,12,12,0,0,0,64,56.78v1.94c0,.19.08.57,0,.73s-.67,0-.83,0c-.61,0-1.23,0-1.83,0a3.08,3.08,0,0,1-.8,0c-.27-.06-.17-.55-.17-.75V56.28a11.47,11.47,0,0,0-.1-2.87A4.33,4.33,0,0,0,55.65,50.29Z" fill="#633001"/>
      <path d="M67.33,50.3v0h.28Z" fill="#7c5136"/>
      <path d="M55,50.37v0l.21,0Z" fill="#866446"/>
      <path d="M57,50.34v0l.59.14v0Z" fill="#876342"/>
      <path d="M57.12,50.35h0Z" fill="#b49982"/>
      <path d="M67.09,50.37v0l.24,0Z" fill="#836142"/>
      <path d="M69.23,50.34v0l.93.34v0Z" fill="#95785d"/>
      <path d="M54.64,50.47v0l.31-.07Z" fill="#8f745a"/>
      <path d="M66.78,50.47v0l.31-.07Z" fill="#8c6f56"/>
      <path d="M57.58,50.51v0h.11Z" fill="#91745a"/>
      <path d="M66.29,50.67v0l.49-.17Z" fill="#886745"/>
      <path d="M39.61,50.71h0l.1-.17Z" fill="#afeaf0"/>
      <path d="M57.69,50.54l.1.07Z" fill="#876447"/>
      <path d="M54.3,50.61v0l.14,0Z" fill="#98785a"/>
      <path d="M57.81,50.58h0Z" fill="#b49a85"/>
      <path d="M57.88,50.62h0Z" fill="#ac8e75"/>
      <path d="M54.16,50.67v0l.14,0Z" fill="#9b744e"/>
      <path d="M57.93,50.64l.52.3v0Z" fill="#82603f"/>
      <path d="M89.32,51.54a7.43,7.43,0,0,0,.88,1.73c.08.13.23.2.3.34s0,.39.12.57c.31.81.66,1.61.94,2.44a1.52,1.52,0,0,0,.07-.6c0-.38.08-.76.14-1.14.17-1,.55-1.87.71-2.84,0-.37.15-1.15-.3-1.33a1.13,1.13,0,0,0-.89.17C90.74,51.15,90,51.76,89.32,51.54Z" fill="#ff6969"/>
      <path d="M66.05,50.81v0l.24-.1Z" fill="#805f43"/>
      <path d="M70.2,50.71l.1.06Z" fill="#9e8165"/>
      <path d="M39.47,50.91h0l.11-.17Z" fill="#afeaf0"/>
      <path d="M53.3,51.31l.76-.5C53.83,50.77,53.41,51.12,53.3,51.31Z" fill="#7d5936"/>
      <path d="M70.3,50.77v.07h.07v-.07Z" fill="#785536"/>
      <path d="M70.4,50.82h0Z" fill="#ab927b"/>
      <path d="M65.88,50.91v0l.17-.07Z" fill="#977b61"/>
      <path d="M70.44,50.84l.52.37Z" fill="#806245"/>
      <path d="M39.33,51.11h0l.11-.17Z" fill="#afeaf0"/>
      <path d="M58.48,50.94l.42.37.62.6A2.5,2.5,0,0,0,58.48,50.94Z" fill="#89684a"/>
      <path d="M65.71,51.07l.17-.13Z" fill="#7a5433"/>
      <path d="M65.5,51.24l.21-.17Z" fill="#765935"/>
      <path d="M39.19,51.31h0l.1-.17Z" fill="#afeaf0"/>
      <path d="M71,51.21l.17.16Z" fill="#876546"/>
      <path d="M65.22,51.47l.28-.23Z" fill="#745436"/>
      <path d="M39.12,51.34v.1h0l0-.1Z" fill="#ace9ef"/>
      <path d="M67.23,51.54v0A5.47,5.47,0,0,1,69,51.51C68.59,51.2,67.66,51.38,67.23,51.54Z" fill="#804511"/>
      <path d="M89.22,51.4l0,0Z" fill="#feacac"/>
      <path d="M67.92,51.41v0h.52Z" fill="#a0622c"/>
      <path d="M71.2,51.41l.21.23Z" fill="#7d5c3f"/>
      <path d="M52.6,52.08l.56-.64A1.35,1.35,0,0,0,52.6,52.08Z" fill="#826043"/>
      <path d="M58.83,53.41A2.08,2.08,0,0,0,57.75,52a3,3,0,0,0-4.08.8c-.75,1.17-.31,2.36-.08,3.61.19,1,.28,2.13.52,3.17.12.51.16,1.06.3,1.57.05.21.24.62.14.83s-.61.29-.77.35a10.61,10.61,0,0,0-1.94,1c-1.76,1.2-3.55,2.63-4.18,4.71a7.76,7.76,0,0,0-.17,2.2l.1,0a8.08,8.08,0,0,0,.48,1.66c1.28,2.57,3.73,4,6.36,5.09A18.25,18.25,0,0,0,58.93,78a25.45,25.45,0,0,0,8.26-.25,16.2,16.2,0,0,0,5.46-2,11.39,11.39,0,0,0,2.92-2.42,5.88,5.88,0,0,0,.67-.84A7,7,0,0,0,77,70.41c0-.22,0-.84.17-1v0h-.1c0-2.8-2.29-5-4.63-6.28A7.92,7.92,0,0,0,69.89,62a11.17,11.17,0,0,1,.22-1.41c.19-1.12.46-2.22.66-3.34.07-.35.06-.71.14-1.07.25-1.2.55-2.37-.17-3.5a3.16,3.16,0,0,0-3.89-1,3,3,0,0,0-1.39,1.52,4.56,4.56,0,0,0-.13,1.84v5.15c0,.11,0,.39-.06.47s-.26,0-.36,0H63.84c-1,0-2-.16-2.94-.09-.39,0-.79,0-1.17.1-.18,0-.37.13-.56.08s-.14-.25-.14-.39V54.78a6.64,6.64,0,0,0,0-1C59,53.63,59,53.46,58.83,53.41Z" fill="#d0884e"/>
      <path d="M89.26,51.46v0Z" fill="#febdbd"/>
      <path d="M65.15,51.47l-.17.27.24-.27Z" fill="#755839"/>
      <path d="M54.57,51.94l1.08-.39h.69A2.11,2.11,0,0,0,54.57,51.94Z" fill="#ad6d38"/>
      <path d="M89.29,51.53v0Z" fill="#fea8a9"/>
      <path d="M56.79,51.57v0l.38.06Z" fill="#8e5220"/>
      <path d="M71.41,51.64l.21.23Z" fill="#7e6141"/>
      <path d="M38.85,51.84h0l.1-.17Z" fill="#afeaf0"/>
      <path d="M64.91,51.74l-.31.5.38-.5Z" fill="#8b6540"/>
      <path d="M38.78,51.87V52h0l0-.1Z" fill="#ace9ef"/>
      <path d="M57.55,51.87v0l.2.1Z" fill="#a1622e"/>
      <path d="M71.62,51.87l.1.14Z" fill="#7c5c3d"/>
      <path d="M59.52,51.91l.1.13Z" fill="#825d39"/>
      <path d="M54,52.38l.55-.41C54.38,51.93,54.1,52.22,54,52.38Z" fill="#a9672f"/>
      <path d="M38.64,52.18h0l.11-.17Z" fill="#afeaf0"/>
      <path d="M57.75,52v0l.18.07Z" fill="#965926"/>
      <path d="M71.72,52l.07.1Z" fill="#836341"/>
      <path d="M52.57,52.08l0,.1Z" fill="#886544"/>
      <path d="M71.79,52.11l.07.1Z" fill="#83603d"/>
      <path d="M52.5,52.18l-.21.4A.49.49,0,0,0,52.5,52.18Z" fill="#876a4b"/>
      <path d="M38.57,52.21v.1h0l0-.1Z" fill="#ace9ef"/>
      <path d="M59.76,52.24l.07.1Z" fill="#997c5b"/>
      <path d="M64.56,52.24l-.06.17h0Z" fill="#8b6f57"/>
      <path d="M59.76,52.31l.31.63h0A.94.94,0,0,0,59.76,52.31Z" fill="#714c24"/>
      <path d="M71.93,52.31l.07.1Z" fill="#977b60"/>
      <path d="M38.5,52.34v.1h0l0-.1Z" fill="#ace9ef"/>
      <path d="M7.53,52.41v0H7.8Z" fill="#ffc077"/>
      <path d="M64.46,52.41l0,.13h0Z" fill="#7e5c3f"/>
      <path d="M9.88,71.42a4.24,4.24,0,0,0,.65.83c.45.55.91,1.1,1.37,1.64,1.39,1.61,2.75,3.27,4.24,4.81.51.53,1,1.06,1.55,1.57.13.11.45.45.65.38s.16-.7.14-.88a11.89,11.89,0,0,0-.67-2.64c-.94-2.7-2.26-5.32-2.84-8.12-.19-.91-.48-2.5.65-3,.91-.38,2,.36,2.76.83a32.5,32.5,0,0,1,5.7,5.22,107.8,107.8,0,0,1,9.2,11.39c1.13,1.58,2.12,3.24,3.26,4.81A17.21,17.21,0,0,0,42,93.57a7.65,7.65,0,0,0,2.52,1,19,19,0,0,0-1.89-1.8A50.38,50.38,0,0,1,39.24,89a80.51,80.51,0,0,1-8.61-13.49c-2.41-4.62-4.77-9.24-7.48-13.7Q22,59.87,20.75,58L20,57a2.12,2.12,0,0,0-.38-.51c-.21-.17-.72-.16-1-.22-.77-.17-1.53-.36-2.28-.6-.22-.07-.82-.4-1-.3s-.58.55-.81.76c-.66.65-1.3,1.33-2,2A4.12,4.12,0,0,1,13,55.82a6.72,6.72,0,0,0,.75-1.21l-2.17-1.1-1.15-.67,0,.47a7.72,7.72,0,0,0-1.45-.62,4.68,4.68,0,0,0-1.11-.24A1.65,1.65,0,0,0,6,54.25a15.12,15.12,0,0,0,.7,4.37C8,62.8,10.58,66.5,12.36,70.48a23.51,23.51,0,0,1,1.05,2.91c.06.19.33.84.09,1s-.84-.4-1-.55c-.6-.49-1.18-1-1.73-1.55A6.72,6.72,0,0,0,9.88,71.42Z" fill="#ff6969"/>
      <path d="M38.43,52.48l-.07.16h0Z" fill="#afeaf0"/>
      <path d="M64.39,52.54l-.07.2h0Z" fill="#9a7d61"/>
      <path d="M52.26,52.58l0,.13h0Z" fill="#8f7256"/>
      <path d="M53.78,52.58l-.14.23.21-.23Z" fill="#995b26"/>
      <path d="M38.29,52.68v.1h0l0-.1Z" fill="#ace9ef"/>
      <path d="M52.19,52.74l0,.1Z" fill="#a88c70"/>
      <path d="M64.29,52.74l0,.17h0l.07-.17Z" fill="#785431"/>
      <path d="M38.22,52.81v.1h0l0-.1Z" fill="#ace9ef"/>
      <path d="M72.2,52.81v.1h0Z" fill="#a78c73"/>
      <path d="M53.61,52.84l-.18.44h0Z" fill="#ac6e3c"/>
      <path d="M58.62,52.84l.28.57Z" fill="#a86830"/>
      <path d="M70.82,52.84l.28.74h0A1.13,1.13,0,0,0,70.82,52.84Z" fill="#a96a35"/>
      <path d="M52.12,52.88l0,.16h0Z" fill="#b39982"/>
      <path d="M64.22,52.88V53h0Z" fill="#a98968"/>
      <path d="M65.6,52.88l0,.16h0l.07-.16Z" fill="#94561e"/>
      <path d="M72.24,52.91l0,.2h0Z" fill="#7d6144"/>
      <path d="M87,52.91l.07.2h0Z" fill="#b1eaf0"/>
      <path d="M60.11,52.94l.06.1Z" fill="#ad967f"/>
      <path d="M17.64,53.05l0,0Z" fill="#f7d88b"/>
      <path d="M60.14,53l.17.74h0A1.38,1.38,0,0,0,60.14,53Z" fill="#8f7254"/>
      <path d="M52.05,53.08l0,.33h0Z" fill="#806042"/>
      <path d="M64.15,53.08A23.29,23.29,0,0,0,64,58v1.14c0,.17,0,.34-.18.4v0c.24,0,.21-.17.21-.36V54.38C64,54,64.27,53.41,64.15,53.08Z" fill="#775434"/>
      <path d="M53.43,53.14l-.1.34h0Z" fill="#8f511d"/>
      <path d="M72.34,53.14v.14h0Z" fill="#947356"/>
      <path d="M18.47,53.29h0Z" fill="#f7d88b"/>
      <path d="M29.57,53.29h0Z" fill="#f8dd98"/>
      <path d="M72.34,53.28l.07.43h.07Z" fill="#785433"/>
      <path d="M52,53.31l0,.17h0Z" fill="#b59a81"/>
      <path d="M90.25,53.34l.24.61h0C90.53,53.68,90.52,53.48,90.25,53.34Z" fill="#fff680"/>
      <path d="M19.28,53.48v0h.1l-.1,0m9.46,0h0Z" fill="#f8dd98"/>
      <path d="M52,53.48l0,.23h0Z" fill="#9b7f61"/>
      <path d="M65.36,53.51a9,9,0,0,0-.1,2.07v4.68c0,.16,0,.37-.11.47v0h.14V54.05Z" fill="#8e511b"/>
      <path d="M28.43,53.56h0m-8.64,0h0m8.44,0v0h.11Z" fill="#f8dd98"/>
      <path d="M71.13,53.58l.07.33h0Z" fill="#8c521e"/>
      <path d="M37.74,53.68v.1h0l0-.1Z" fill="#ace9ef"/>
      <path d="M53.23,53.71a3.39,3.39,0,0,0,0,1.27h0Z" fill="#955826"/>
      <path d="M90.53,53.71V54h0Z" fill="#ffc077"/>
      <path d="M51.88,53.78v.87h0Z" fill="#815b38"/>
      <path d="M37.67,53.81v.1h0l0-.1Z" fill="#ace9ef"/>
      <path d="M60.35,53.85v5.61h0V55.52A5.18,5.18,0,0,0,60.35,53.85Z" fill="#87613e"/>
      <path d="M65.29,53.85v6.88h0V54.48Z" fill="#b4733c"/>
      <path d="M26.12,53.88v0h.18Z" fill="#f8dd98"/>
      <path d="M72.52,53.88l0,1.23h0A3,3,0,0,0,72.52,53.88Z" fill="#795334"/>
      <path d="M71.2,53.91v.94h0Z" fill="#ad6e3b"/>
      <path d="M22.63,54v0h.31Z" fill="#f5cb65"/>
      <path d="M25.19,54v0h.28Z" fill="#f8dd98"/>
      <path d="M37.6,54v.1h0l0-.1Z" fill="#ace9ef"/>
      <path d="M59,54v6.38l0,.41.31,0v0c-.1,0-.22,0-.28-.08s0-.33,0-.45V55.52A4.57,4.57,0,0,0,59,54Z" fill="#ab6d37"/>
      <path d="M71.24,54l-.38,2.94h0l.38-2.28Z" fill="#773f0b"/>
      <path d="M23.36,54v0h.34Z" fill="#f8dd98"/>
      <path d="M23.7,54v0h.73Z" fill="#f5cb65"/>
      <path d="M24.43,54v0h.35Z" fill="#f8dd98"/>
      <path d="M51.84,54l0,1h0Z" fill="#ac8f76"/>
      <path d="M37.53,54.08v.13h0l0-.13Z" fill="#ace9ef"/>
      <path d="M59.07,54.08v6.65h0v-6Z" fill="#8a501b"/>
      <path d="M63.94,54.08v5.38h0V55.68A4.75,4.75,0,0,0,63.94,54.08Z" fill="#ad9379"/>
      <path d="M60.38,54.15v5.31h0V55.75A4.75,4.75,0,0,0,60.38,54.15Z" fill="#b89f88"/>
      <path d="M72.55,54.15v.73h0Z" fill="#b29a85"/>
      <path d="M6,54.18v.57H6Z" fill="#ffc077"/>
      <path d="M30.41,55.88l.8.78,1.66,1.46L33.56,56l.55-1.4C32.86,54.93,31.72,55.7,30.41,55.88Z" fill="#ff7f69"/>
      <path d="M13.78,54.65a7,7,0,0,0-1.16,2.24,5.64,5.64,0,0,0,0,1.16l1.66-1.63,1.14-1.17Z" fill="#fff680"/>
      <path d="M37.26,54.68v.1h0l0-.1Z" fill="#ace9ef"/>
      <path d="M51.91,54.75l0,.36h0Z" fill="#775633"/>
      <path d="M37.19,54.81V55h0l0-.14Z" fill="#ace9ef"/>
      <path d="M53.26,55l0,.27h0Z" fill="#9d622f"/>
      <path d="M72.52,55v.13h0Z" fill="#c2a68e"/>
      <path d="M51.91,55l0,.27h0Z" fill="#9b7c5d"/>
      <path d="M72.48,55.11v.14h0Z" fill="#a78d76"/>
      <path d="M53.33,55.25l.28,1.64h0l-.19-1.17Z" fill="#aa6632"/>
      <path d="M37,55.28v.1h0l0-.1Z" fill="#ace9ef"/>
      <path d="M52,55.28v.14h0Z" fill="#cab19d"/>
      <path d="M72.45,55.28l0,.34h0Z" fill="#a48468"/>
      <path d="M52,55.35v.17h0Z" fill="#aa8c74"/>
      <path d="M52,55.42l.07.56h0Z" fill="#7a5736"/>
      <path d="M72.38,55.62v.23h0Z" fill="#a58b75"/>
      <path d="M71,55.72l-.17,1.17h0C70.88,56.56,71.11,56,71,55.72Z" fill="#a56432"/>
      <path d="M72.34,55.72v.2h0Z" fill="#88623f"/>
      <path d="M30.88,55.76h0Z" fill="#ffbaad"/>
      <path d="M29.44,56.15l2.27,2.61.78.93.25-1.07.09-.47-.52-.53L31,56.45l-.62-.51Z" fill="#ffd978"/>
      <path d="M72.34,55.92v.2h0Z" fill="#c2ac9b"/>
      <path d="M52.09,56l0,.17h0V56Z" fill="#9a785a"/>
      <path d="M72.31,56v.2h0Z" fill="#a5866f"/>
      <path d="M18.13,56.09l0,0Z" fill="#ffbaba"/>
      <path d="M72.27,56.08v.34h0Z" fill="#805e3e"/>
      <path d="M22.22,56.72a12.17,12.17,0,0,0,1.14,1.13c.65.68,1.28,1.39,1.89,2.11a59.18,59.18,0,0,1,5,6.91A34.41,34.41,0,0,1,32.1,70h0l-.24-2.14,0-3.27-.14-1.13h0l.1.56A3.74,3.74,0,0,0,32,63c.08-.75.2-1.49.32-2.23,0-.3.27-.83.16-1.11a2.52,2.52,0,0,0-.51-.63l-1.16-1.34-.94-1.07c-.11-.13-.25-.36-.43-.4s-.55.1-.76.14c-.61.11-1.22.2-1.83.29A32.13,32.13,0,0,1,22.22,56.72Z" fill="#ff7169"/>
      <path d="M52.12,56.15v.13h0Z" fill="#baa28b"/>
      <path d="M52.15,56.15v.23h0Z" fill="#826244"/>
      <path d="M28.71,56.29l0,0Z" fill="#ffb3af"/>
      <path d="M36.56,56.28v.1h0l0-.1Z" fill="#ace9ef"/>
      <path d="M28.15,56.4h0Z" fill="#ffbcb8"/>
      <path d="M52.15,56.38v.14h0Z" fill="#cbb8a5"/>
      <path d="M52.19,56.38v.24h0Z" fill="#97795c"/>
      <path d="M19.66,56.42a6.93,6.93,0,0,0,.82,1.23c.51.74,1,1.49,1.48,2.24,1.5,2.34,2.87,4.74,4.23,7.15l.52.43,1.14,1.06L31,71.06l1.52,1L32.17,70h0l0,.06a6.56,6.56,0,0,0-.62-1.13c-.48-.84-1-1.66-1.5-2.47a56.09,56.09,0,0,0-5.22-7c-.57-.66-1.16-1.3-1.78-1.91a3.85,3.85,0,0,0-.76-.7,2.8,2.8,0,0,0-.87-.1C20.8,56.59,20.22,56.43,19.66,56.42Z" fill="#ffc578"/>
      <path d="M72.24,56.42v.16h0Z" fill="#bea284"/>
      <path d="M5.22,56.54v0Z" fill="#ff6969"/>
      <path d="M72.2,56.52v.2h0Z" fill="#96785c"/>
      <path d="M20.66,56.55v0h.14Z" fill="#ffe6c5"/>
      <path d="M20.94,56.58v0h.21Z" fill="#ffe3bd"/>
      <path d="M26.68,56.58v0h.2Z" fill="#ffbcb8"/>
      <path d="M21.25,56.62v0h.21l-.21,0m.31,0v0h.28Z" fill="#ffe3bd"/>
      <path d="M22.46,56.72v0h.35Z" fill="#ffbcb8"/>
      <path d="M25,56.72v0h.34Z" fill="#ff9792"/>
      <path d="M52.22,56.72l0,.3h0Z" fill="#ab896c"/>
      <path d="M72.22,56.74v0Z" fill="#c3ac99"/>
      <path d="M23.29,56.75v0h1.24A4,4,0,0,0,23.29,56.75Z" fill="#ff9792"/>
      <path d="M72.17,56.75l-.07.57h0Z" fill="#a28569"/>
      <path d="M52.29,56.89v.16h0Z" fill="#826042"/>
      <path d="M53.61,56.89l0,.3h0v-.3Z" fill="#8a511b"/>
      <path d="M52.29,57.05v.14h0Z" fill="#b7a38f"/>
      <path d="M52.33,57.05v.2h0Z" fill="#846041"/>
      <path d="M36.22,57.22v.13h0l0-.13Z" fill="#ace9ef"/>
      <path d="M52.33,57.25v.17h0Z" fill="#ba9c85"/>
      <path d="M72.07,57.25,72,58h0Z" fill="#8c6c4e"/>
      <path d="M52.36,57.32l.14,1h0A2.07,2.07,0,0,0,52.36,57.32Z" fill="#8f7355"/>
      <path d="M12.54,57.35v.54h0Z" fill="#ffc077"/>
      <path d="M36.15,57.42v.13h0Z" fill="#ace9ef"/>
      <path d="M5.46,57.48l0,0,0,0m.07.23v0m.07.23v0Z" fill="#ff6969"/>
      <path d="M70.58,58l-.07.43h0Z" fill="#a56833"/>
      <path d="M72,58l0,.26h0Z" fill="#a78a72"/>
      <path d="M71.89,58.09v.2h0Z" fill="#835f40"/>
      <path d="M5.67,58.18v0m0,.1v0Z" fill="#ff6969"/>
      <path d="M35.87,58.29v.13h0Z" fill="#ace9ef"/>
      <path d="M52.53,58.29l.18,1h0A2.09,2.09,0,0,0,52.53,58.29Z" fill="#8a6646"/>
      <path d="M71.89,58.29v.2h0Z" fill="#b0957c"/>
      <path d="M5.73,58.32v.1h0Z" fill="#ff9b71"/>
      <path d="M71.86,58.35l-.21,1.31h0C71.7,59.29,72,58.7,71.86,58.35Z" fill="#885f3b"/>
      <path d="M5.78,58.48v0Z" fill="#ff6969"/>
      <path d="M52.55,58.51v0Z" fill="#cdb9a9"/>
      <path d="M35.8,58.56v.13h0Z" fill="#ace9ef"/>
      <path d="M52.58,58.61v0Z" fill="#b29a87"/>
      <path d="M70.48,58.59a10.32,10.32,0,0,0-.38,2.14h.06l.25-1.47Z" fill="#ac6e3b"/>
      <path d="M71.82,58.72v.14h0Z" fill="#cfb8a0"/>
      <path d="M5.88,58.81v0m0,.1,0,0Z" fill="#ff6969"/>
      <path d="M54,59l0,.36h0Z" fill="#a5642f"/>
      <path d="M6,59v0m0,.1v0Z" fill="#ff6969"/>
      <path d="M11.33,65.47a3.23,3.23,0,0,0,0-1.24,14.61,14.61,0,0,0-.54-3.77,3.16,3.16,0,0,0-.51-1.1c-.08-.1-.24-.3-.39-.25s-.12.27-.12.38A5.2,5.2,0,0,0,10,60.66C10.33,62.28,11,63.85,11.33,65.47Z" fill="#ffa072"/>
      <path d="M71.75,59.09v.13h0Z" fill="#c9af98"/>
      <path d="M52.68,59.18l0,0Z" fill="#bca28c"/>
      <path d="M52.71,59.26l.07.53h0Z" fill="#a48566"/>
      <path d="M93,63.23c.48-.19,1-.28,1.21.34-.25-.19-1-.17-1.13.2a2.42,2.42,0,0,0,0,.76c0,.51,0,1,0,1.51h0c.22-.41.44-.83.67-1.24a1.67,1.67,0,0,0,.37-1.23h0l.07.3a4.66,4.66,0,0,0,.49-.94,17.57,17.57,0,0,0,1-2.4c.09-.27.37-1,.08-1.18s-.61,0-.82.1a6.75,6.75,0,0,0-1.79,1c-.18.12-.49.27-.57.47s0,.47.07.67A13.55,13.55,0,0,1,93,63.23Z" fill="#ff6969"/>
      <path d="M3.69,67.27a7.2,7.2,0,0,0-.94-1.43A18.71,18.71,0,0,1,.91,62.43c-.15-.41-.62-1.55,0-1.81.23-.09.49.14.65.28a8,8,0,0,1,1.21,1.5c1.1,1.59,2.05,3.24,3.29,4.74a8.5,8.5,0,0,0,1.45,1.6,5,5,0,0,0-.65-.83c-.42-.54-.82-1.1-1.21-1.67-1.1-1.63-2-3.36-3.16-5A7.71,7.71,0,0,0,1.2,59.67a1,1,0,0,0-.76-.34c-.26,0-.33.31-.38.53a3.76,3.76,0,0,0,.09,1.7A14.13,14.13,0,0,0,2.5,65.8,6.56,6.56,0,0,0,3.69,67.27Z" fill="#fff680"/>
      <path d="M61.66,59.36v0h1.52A4.82,4.82,0,0,0,61.66,59.36Z" fill="#4fc1c7"/>
      <path d="M60.42,59.49v0l2.73-.1-.76,0Z" fill="#906d4c"/>
      <path d="M63.15,59.39v0h.24Z" fill="#c0a68f"/>
      <path d="M61.83,59.42v0h1.42A4.48,4.48,0,0,0,61.83,59.42Z" fill="#70471e"/>
      <path d="M63.25,59.42v0h.28Z" fill="#977557"/>
      <path d="M63.53,59.42v0l.41,0Z" fill="#af977c"/>
      <path d="M60.42,59.46v0H61Z" fill="#b99c7e"/>
      <path d="M71.69,59.46v.13h0Z" fill="#c3a78c"/>
      <path d="M52.81,59.66l.07.63h0Z" fill="#8d6a48"/>
      <path d="M71.65,59.66l-.1.63h0Z" fill="#aa967f"/>
      <path d="M6.22,59.78l0,0Z" fill="#ff6969"/>
      <path d="M54.19,59.92l0,.44h.07Z" fill="#ab6c37"/>
      <path d="M52.86,60.15v0Z" fill="#bbae9e"/>
      <path d="M71.51,60.13v.16h0Z" fill="#83613f"/>
      <path d="M71.51,60.29v.2h0Z" fill="#aa9077"/>
      <path d="M52.92,60.36v.2H53Z" fill="#8e6f54"/>
      <path d="M53,60.56v.13h0Z" fill="#b79f89"/>
      <path d="M61.07,60.56v0l2,0A6,6,0,0,0,61.07,60.56Z" fill="#9f622e"/>
      <path d="M62.87,60.56v0l1.63.07-.73,0Z" fill="#814813"/>
      <path d="M71.48,60.56l0,.3h0Z" fill="#a1876f"/>
      <path d="M3.62,67.17h0c-.23-.74-1-1.73-.66-2.54a4,4,0,0,1,1.15,1.14c.72.87,1.37,1.79,2.13,2.64.31.35,1,1.14,1.56,1,.38-.11-.19-.48-.3-.6-.49-.55-1-1.1-1.46-1.67A45.27,45.27,0,0,1,3,62.66c-.42-.65-1-1.71-1.75-2s-.64.62-.58,1a9.44,9.44,0,0,0,1.36,3C2.52,65.52,3.05,66.36,3.62,67.17Z" fill="#ff6969"/>
      <path d="M53,60.59v.14h0Z" fill="#866648"/>
      <path d="M63.53,60.66v0H64.7Z" fill="#a0622c"/>
      <path d="M53,60.73v.2h0Z" fill="#a99179"/>
      <path d="M71.41,60.73V61h0Z" fill="#856649"/>
      <path d="M53,60.76V61h0Z" fill="#88694d"/>
      <path d="M70.06,60.76l-.07.53h0Z" fill="#aa6a33"/>
      <path d="M92.63,60.89V61h0Z" fill="#febcbd"/>
      <path d="M53,61v.13h0Z" fill="#b7a189"/>
      <path d="M52.88,61.23v0l.17-.07Z" fill="#9c7b5e"/>
      <path d="M71.44,61.19v0l.14,0v0Z" fill="#9d8165"/>
      <path d="M70,61.23l-.07.36h0Z" fill="#8a4f1c"/>
      <path d="M52.5,61.39v0l.35-.17Z" fill="#7a552f"/>
      <path d="M71.62,61.26l.41.2v0Z" fill="#825c3b"/>
      <path d="M35.18,61.29v.14h0Z" fill="#ace9ef"/>
      <path d="M32.14,61.43v.16h0Z" fill="#feccc6"/>
      <path d="M51.74,61.76v0l.66-.31Z" fill="#8a6b4d"/>
      <path d="M72,61.46l.11.07Z" fill="#8f6b4b"/>
      <path d="M72.16,61.51h0Z" fill="#bda391"/>
      <path d="M92.74,61.49v.17h0Z" fill="#fec6c6"/>
      <path d="M72.14,61.53v0l.17,0v0Z" fill="#855f45"/>
      <path d="M72.33,61.61h0Z" fill="#9e846f"/>
      <path d="M72.41,61.63l.17.13Z" fill="#78502d"/>
      <path d="M32.1,61.66v.14h0Z" fill="#feccc6"/>
      <path d="M35.11,61.7v.13h0Z" fill="#ace9ef"/>
      <path d="M72.61,61.74h0Z" fill="#a98969"/>
      <path d="M69.89,61.76V62l.24,0v0Z" fill="#91531e"/>
      <path d="M72.68,61.77h0Z" fill="#a88e73"/>
      <path d="M90.08,61.76v.34h0l0-.34m-55,.07v.33h0Z" fill="#c7eff4"/>
      <path d="M50.77,62.33v0a2.34,2.34,0,0,0,.9-.53Z" fill="#806249"/>
      <path d="M72.79,61.83,73,62Z" fill="#764d25"/>
      <path d="M73,61.94h0Z" fill="#ad8b75"/>
      <path d="M73,62l.28.17v0Z" fill="#78502a"/>
      <path d="M70.13,62v0l.14,0v0Z" fill="#9c5d2a"/>
      <path d="M70.27,62.1v0l.24.07v0Z" fill="#9d5e27"/>
      <path d="M73.34,62.13l.25.17v0Z" fill="#845d3d"/>
      <path d="M90.15,62.23v.27h0Z" fill="#c7eff4"/>
      <path d="M92.84,62.26v.2h0Z" fill="#feb3b4"/>
      <path d="M73.61,62.31h0Z" fill="#a58767"/>
      <path d="M73.66,62.33l.24.17Z" fill="#7c5c3c"/>
      <path d="M35,62.36v.34h0Z" fill="#c7eff4"/>
      <path d="M50.6,62.43v0l.17-.06Z" fill="#907052"/>
      <path d="M71,62.4l.38.16v0Z" fill="#8e501d"/>
      <path d="M50.32,62.66l.24-.13Z" fill="#917659"/>
      <path d="M73.93,62.5l.28.2Z" fill="#7e5e3a"/>
      <path d="M90.15,62.5v.2h0Z" fill="#88e9df"/>
      <path d="M53.09,62.63v0l.24-.06Z" fill="#985e2b"/>
      <path d="M49.8,63l.52-.37Z" fill="#6d4a29"/>
      <path d="M52.36,63l.73-.33A1,1,0,0,0,52.36,63Z" fill="#975825"/>
      <path d="M74.24,62.7l.21.16Z" fill="#8b6f55"/>
      <path d="M35,62.76v.14h0Z" fill="#ace9ef"/>
      <path d="M90.21,62.83v.27h0Z" fill="#c7eff4"/>
      <path d="M74.49,62.86l.24.2Z" fill="#855f3d"/>
      <path d="M34.94,62.9v.33h0Z" fill="#c7eff4"/>
      <path d="M72.1,62.93v0l.17,0Z" fill="#864b18"/>
      <path d="M49.18,63.53l.62-.5A1.44,1.44,0,0,0,49.18,63.53Z" fill="#805e3f"/>
      <path d="M74.73,63.06l.41.34Z" fill="#855f3e"/>
      <path d="M93,63.73c.4-.2.75-.41,1.18-.16-.08-.42-.83-.78-1.14-.35C92.93,63.34,93,63.59,93,63.73Z" fill="#fff680"/>
      <path d="M72.41,63.1v0l.62.34A1,1,0,0,0,72.41,63.1Z" fill="#88501e"/>
      <path d="M90.21,63.1v.17h0Z" fill="#88e9df"/>
      <path d="M31.93,63.2v.23h0Z" fill="#feb3b4"/>
      <path d="M34.94,63.23v.2h0Z" fill="#74dae7"/>
      <path d="M50.91,63.93l.83-.56A1.86,1.86,0,0,0,50.91,63.93Z" fill="#995f2c"/>
      <path d="M75.18,63.4l.17.17Z" fill="#835b35"/>
      <path d="M90.28,63.43v.47h0Z" fill="#c7eff4"/>
      <path d="M31.72,63.47l.11,1h0A2.12,2.12,0,0,0,31.72,63.47Z" fill="#ffa072"/>
      <path d="M48.77,63.9l.41-.37Z" fill="#714928"/>
      <path d="M73.17,63.53l.17.14Z" fill="#894f1c"/>
      <path d="M94.16,63.57l.06.53h0Z" fill="#ffca79"/>
      <path d="M31.9,63.63v.27h0Z" fill="#fed8d9"/>
      <path d="M75.45,63.63l.45.44Z" fill="#7e5b38"/>
      <path d="M34.87,63.7v.53h0Z" fill="#c7eff4"/>
      <path d="M93,63.73v.34h0Z" fill="#fed8d9"/>
      <path d="M73.55,63.8l.24.17Z" fill="#9b5d2a"/>
      <path d="M90.28,63.9v.27h0Z" fill="#88e9df"/>
      <path d="M50.67,64.1l.24-.13Z" fill="#935420"/>
      <path d="M48.25,64.43l.41-.43Z" fill="#754b23"/>
      <path d="M73.9,64l.21.17Z" fill="#8c511d"/>
      <path d="M76,64.09v0Z" fill="#8f6e4e"/>
      <path d="M48.77,65.94l1-1,.94-.84a2.33,2.33,0,0,0-.62.46A4.54,4.54,0,0,0,48.77,65.94Z" fill="#a3632d"/>
      <path d="M76,64.13l.56.6Z" fill="#7b4f28"/>
      <path d="M34.87,64.23v.17h0Z" fill="#73dae8"/>
      <path d="M74.24,64.3l.21.17Z" fill="#8b4f1b"/>
      <path d="M90.35,64.37v2.8h0V65.24Z" fill="#c7eff4"/>
      <path d="M93,64.37v.43h0Z" fill="#fed8d9"/>
      <path d="M48.18,64.43l-.14.24.21-.24Z" fill="#7d5a3c"/>
      <path d="M34.84,64.5v.13h0Z" fill="#ace9ef"/>
      <path d="M34.8,64.63v2.28h0V65.34Z" fill="#c7eff4"/>
      <path d="M48,64.67l-.24.37.31-.37Z" fill="#876549"/>
      <path d="M76.53,64.73l.17.21Z" fill="#896644"/>
      <path d="M31.83,64.77V65h0Z" fill="#fe9791"/>
      <path d="M31.83,65v1.43h0A4.27,4.27,0,0,0,31.83,65Z" fill="#febbb8"/>
      <path d="M47.66,65l-.1.23.17-.23Z" fill="#826346"/>
      <path d="M93.05,65.1v1h0Z" fill="#ff8e8e"/>
      <path d="M76.91,65.2l.06.1Z" fill="#775a3a"/>
      <path d="M47.52,65.27l-.17.3Z" fill="#84674a"/>
      <path d="M77,65.3l.18.2Z" fill="#9d7d5f"/>
      <path d="M75.45,65.5l.18.2Z" fill="#a76c38"/>
      <path d="M77.15,65.54l.1.13Z" fill="#836744"/>
      <path d="M47.31,65.57l-.13.27h0Z" fill="#8d6e52"/>
      <path d="M77.29,65.74l.06.1Z" fill="#8f7659"/>
      <path d="M47.14,65.84,47,66.2h0Z" fill="#8e7053"/>
      <path d="M48.7,65.94l-.49.83h0l.52-.83Z" fill="#b1723d"/>
      <path d="M77.42,66l.07.17h0Z" fill="#987a5f"/>
      <path d="M75.94,66.1l.14.2Z" fill="#9f5f2b"/>
      <path d="M77.53,66.14l0,.13h0Z" fill="#8c6c4a"/>
      <path d="M46.93,66.2l-.38,1h0C46.67,66.89,47,66.5,46.93,66.2Z" fill="#774d25"/>
      <path d="M93.05,66.2v.57h0l0-.57Z" fill="#25c7d6"/>
      <path d="M76.14,66.41l.07.2h0Z" fill="#90521f"/>
      <path d="M77.67,66.41l0,.13h0Z" fill="#a58469"/>
      <path d="M56.16,66.47v0l.56,0Z" fill="#ac6d3a"/>
      <path d="M31.83,66.47v.3h0Z" fill="#fe9791"/>
      <path d="M56.3,66.49c-.26,0-.38.19-.58.35a2.8,2.8,0,0,0-.53,3.31,1.45,1.45,0,0,0,1.49,1,1.61,1.61,0,0,0,1.09-.89A3,3,0,0,0,57.52,67,1.28,1.28,0,0,0,56.3,66.49Z" fill="#633001"/>
      <path d="M67.47,66.47v.07h.69Z" fill="#905221"/>
      <path d="M69.09,67.27H69c-.06-.74-1.35-1-1.87-.57a2.83,2.83,0,0,0-.85,2.84c.25,1.08,1.28,2.25,2.41,1.29a2.13,2.13,0,0,0,.44-.55A3.13,3.13,0,0,0,69.35,68C69.29,67.76,69.15,67.52,69.09,67.27Z" fill="#633001"/>
      <path d="M76.25,66.61l.1.23h0Z" fill="#945724"/>
      <path d="M55.51,67l.45-.37A.76.76,0,0,0,55.51,67Z" fill="#8a4b17"/>
      <path d="M77.84,66.74v.1h0Z" fill="#9b8468"/>
      <path d="M67,66.77l-.35.5h0l.38-.5Z" fill="#945824"/>
      <path d="M77.87,66.84l.14.43h0Z" fill="#805a38"/>
      <path d="M34.84,66.91V67h0Z" fill="#ace9ef"/>
      <path d="M57.44,66.91l.18.2Z" fill="#8c4f1b"/>
      <path d="M26.23,67a2.83,2.83,0,0,0,.34.7c.25.49.53,1,.79,1.47.77,1.44,1.5,2.89,2.25,4.34,3.15,6.09,6.59,12.09,11.19,17.3a37.42,37.42,0,0,0,3.06,3.11,12.73,12.73,0,0,0,1.73,1.46c.87.55,2,.93,2.86.13a4.33,4.33,0,0,0,.77-1.29,7.65,7.65,0,0,0,.65-1.5l-.2-.07c-.49,1-1.64,2.11-2.87,1.72a3.39,3.39,0,0,1-1.35-.95,11.64,11.64,0,0,1-1.18-1.54c-.75-1-1.45-2.14-2.13-3.24a11.21,11.21,0,0,0-1.6-2.27c-.47-.45-.91-.92-1.33-1.4-.21-.23-.38-.53-.71-.57l.47,1,1,2c-.91-1-1.7-2.15-2.51-3.24a12.12,12.12,0,0,0-.9-1.23c-.16-.17-.55-.21-.77-.32a2.53,2.53,0,0,1-.92-.86,6.79,6.79,0,0,1-.92-2.1,5,5,0,0,0-.22-1c-1.22-2.27-2.53-4.5-3.79-6.75-.52-.91-1.13-1.8-1.58-2.74h0a16.89,16.89,0,0,0,1.7,2.21c1,1.32,2,2.67,3,4h0l.06-1.21L32.55,72h0l0,.06-1.28-.89L29.1,69.56,27.3,68Z" fill="#ffce7a"/>
      <path d="M46.52,67.11v.1h0Z" fill="#a18971"/>
      <path d="M34.87,67.14v.7h0Z" fill="#c7eff4"/>
      <path d="M31.86,67.17v.34h0Z" fill="#fe9791"/>
      <path d="M69,67.17l.07.1Z" fill="#9c612a"/>
      <path d="M46.49,67.21l-.11.43h0l.13-.43Z" fill="#846949"/>
      <path d="M78.05,67.31l0,.13h0Z" fill="#a0846d"/>
      <path d="M90.28,67.31v.8h0Z" fill="#c7eff4"/>
      <path d="M55.23,67.34l-.21.53h0Z" fill="#a46330"/>
      <path d="M78.12,67.47l0,.24h0Z" fill="#997a5c"/>
      <path d="M66.4,67.64l-.07.23h0Z" fill="#a86633"/>
      <path d="M69.23,67.64l.11.23Z" fill="#a0622b"/>
      <path d="M46.35,67.67v.14h0Z" fill="#836346"/>
      <path d="M78.18,67.74l0,.27h0Z" fill="#826648"/>
      <path d="M31.9,67.77V68h0Z" fill="#fec1b6"/>
      <path d="M46.31,67.81l0,.2h0Z" fill="#a17d62"/>
      <path d="M58,67.87l.13,1.37h0C58.17,68.84,58.3,68.2,58,67.87Z" fill="#985e2a"/>
      <path d="M69.34,67.87l.06,1.54h0A2.6,2.6,0,0,0,69.34,67.87Z" fill="#965a24"/>
      <path d="M55,68l0,.23h0Z" fill="#aa6933"/>
      <path d="M66.26,68l0,.23h0Z" fill="#ae6c37"/>
      <path d="M76.87,68l.07.37h0Z" fill="#a66531"/>
      <path d="M78.25,68l0,.23h0Z" fill="#a4856d"/>
      <path d="M34.94,68.11v.53h0Z" fill="#c7eff4"/>
      <path d="M46.24,68.11l0,.27h0Z" fill="#9e8368"/>
      <path d="M47.59,68.24l-.07.44h0Z" fill="#9e5f29"/>
      <path d="M66.19,68.24l0,1.3h0l-.07-.76Z" fill="#b2713d"/>
      <path d="M78.32,68.31v.23h0Z" fill="#a68a71"/>
      <path d="M46.17,68.41v.27h0Z" fill="#9c7957"/>
      <path d="M54.85,68.44l0,1h0Z" fill="#af6f39"/>
      <path d="M78.36,68.61l0,.57h0Z" fill="#a3846d"/>
      <path d="M35,68.64v.14h0Z" fill="#ace9ef"/>
      <path d="M46.14,68.71v3.37h0V69.75Z" fill="#8c6b4e"/>
      <path d="M7.53,68.74l.24.27Z" fill="#ffcd79"/>
      <path d="M47.45,68.74v1.47h0l0-1.47Z" fill="#ad6a37"/>
      <path d="M35,68.78v.4h0Z" fill="#c7eff4"/>
      <path d="M78.43,68.84v3.24h0V69.85Z" fill="#4bc4cb"/>
      <path d="M77.08,68.91l.07.5Z" fill="#8f5420"/>
      <path d="M78.36,68.91V72h0V69.85Z" fill="#6f481e"/>
      <path d="M35,69.18v.13h0Z" fill="#ace9ef"/>
      <path d="M78.39,69.18l0,3.2h0l0-2.23Z" fill="#90714e"/>
      <path d="M28.34,69.21l.52.94L29.92,72l2.68,4.78,1.16,2.07h.07c.17-.24.69-.73.64-1a2.41,2.41,0,0,0-.49-1l-.91-1.34c-1-1.47-2.05-2.88-3.13-4.27A13.08,13.08,0,0,0,28.34,69.21Z" fill="#9c964e"/>
      <path d="M46.11,69.24v2.68h0V70.08Z" fill="#c2a992"/>
      <path d="M58.07,69.34l-.07.44h0Z" fill="#8e511d"/>
      <path d="M12.26,69.44l.11.24h0Z" fill="#ff9b71"/>
      <path d="M32.07,69.44v.14h0Z" fill="#feb0b0"/>
      <path d="M77.08,69.44l-.24,1.74h0l.24-1.7h0v2l-.14.9h0l.14-.83V69.44Z" fill="#e3bf7e"/>
      <path d="M77.18,69.44v2.24h0V70.15Z" fill="#b68d4e"/>
      <path d="M77.22,69.44v2.24h0V70.15Z" fill="#895a22"/>
      <path d="M77.11,69.48a6.08,6.08,0,0,1-1.56,3.88,13.24,13.24,0,0,1-7.11,4.12c-.47.11-.92.31-1.39.4a23.55,23.55,0,0,1-12.62-1,12,12,0,0,1-6-4.37,9.18,9.18,0,0,1-.84-2.37h-.07a4.89,4.89,0,0,0,0,1.27,6.48,6.48,0,0,0,1.83,4.61,16.17,16.17,0,0,0,1.39,1.22c.2.15.52.27.65.48l1.32.72.44.25a10.09,10.09,0,0,1,1.73.66,27.17,27.17,0,0,0,4.08,1,23.09,23.09,0,0,0,4.32.12c3.61-.15,7.44-1,10.37-3.14a8.24,8.24,0,0,0,3.26-4.14,10.68,10.68,0,0,0,.17-1.37,11.2,11.2,0,0,0,.1-1.64A1.83,1.83,0,0,0,77.11,69.48Z" fill="#fedd90"/>
      <path d="M55,69.54l.21.67h0Z" fill="#a66731"/>
      <path d="M66.26,69.58l.1.43h0Z" fill="#a36530"/>
      <path d="M12.4,69.68a8,8,0,0,0,.75,1.67,24.9,24.9,0,0,1,1.33,3.27c.18.55.6,1.48,0,1.91a1.84,1.84,0,0,0,.35.15c.36.12.64,0,.65-.42a3.65,3.65,0,0,0-.32-1.3,23.75,23.75,0,0,0-1.9-3.81A6.07,6.07,0,0,0,12.4,69.68Z" fill="#fff680"/>
      <path d="M35.15,69.81v.3h0Z" fill="#c7eff4"/>
      <path d="M57.93,69.91l-.24.54A.59.59,0,0,0,57.93,69.91Z" fill="#8d521d"/>
      <path d="M35.18,70.11l0,.34h0Z" fill="#c7eff4"/>
      <path d="M47.42,70.21V72h0V70.81Z" fill="#93672d"/>
      <path d="M47.45,70.21V72h0V70.81Z" fill="#caa161"/>
      <path d="M55.2,70.21l.07.3.2.14Z" fill="#995c24"/>
      <path d="M69,70.38l-.76.77a1.43,1.43,0,0,0,.83-.77Z" fill="#9d602b"/>
      <path d="M35.25,70.45v.13h0Z" fill="#c0eef3"/>
      <path d="M57.65,70.45l0,.13h0Z" fill="#995925"/>
      <path d="M66.64,70.45l.14.2Z" fill="#985e2d"/>
      <path d="M57.55,70.58l-.31.37a.72.72,0,0,0,.38-.37Z" fill="#9d602c"/>
      <path d="M56.89,71.11v0l.35-.2Z" fill="#945621"/>
      <path d="M56,71.05l.27.13v0Z" fill="#995b27"/>
      <path d="M9.64,71.11l.48.51Z" fill="#ffcd79"/>
      <path d="M56.23,71.18v0l.63,0Z" fill="#9a5821"/>
      <path d="M67.54,71.18v0h.55Z" fill="#9a5924"/>
      <path d="M10.12,71.62a2.19,2.19,0,0,0,.69.7A2,2,0,0,0,10.12,71.62Z" fill="#ffd07a"/>
      <path d="M77.08,71.72l-.07.86h0A1.68,1.68,0,0,0,77.08,71.72Z" fill="#b1864a"/>
      <path d="M35.53,71.78v.14h0Z" fill="#a2e6ee"/>
      <path d="M47.45,72l0,.56h0Z" fill="#a57b3d"/>
      <path d="M46.14,72.08v.37h0Z" fill="#c5a791"/>
      <path d="M78.39,72.08v.3h0Z" fill="#b79d85"/>
      <path d="M89.56,72.12v.13h0Z" fill="#a5e7ed"/>
      <path d="M48.21,72.15a1.77,1.77,0,0,0,.52.8A2.13,2.13,0,0,0,48.21,72.15Z" fill="#f2c17c"/>
      <path d="M46.17,72.35l0,.4h0Z" fill="#8e6a47"/>
      <path d="M78.36,72.38v.17h0Z" fill="#ad9a88"/>
      <path d="M89.49,72.38v.14h0Z" fill="#a5e7ed"/>
      <path d="M46.17,72.58v.14h0Z" fill="#c2a890"/>
      <path d="M77,72.58l-.06.44h0Z" fill="#cba262"/>
      <path d="M78.32,72.58v.27h0Z" fill="#b29780"/>
      <path d="M47.52,72.65v.17h0Z" fill="#ab8144"/>
      <path d="M78.29,72.68v.21h0Z" fill="#8a6442"/>
      <path d="M46.21,72.75v.17h0Z" fill="#b2a18c"/>
      <path d="M46.24,72.75V73h0Z" fill="#85674a"/>
      <path d="M89.35,72.85V73h0Z" fill="#c0eef3"/>
      <path d="M78.25,72.89l0,.36h0Z" fill="#815f43"/>
      <path d="M78.29,72.89v.16h0Z" fill="#b79c8a"/>
      <path d="M47.59,73l0,.23h0Z" fill="#9e753a"/>
      <path d="M48.77,73l.24.3Z" fill="#e9b06e"/>
      <path d="M35.87,73.05v.14h0Z" fill="#c0eef3"/>
      <path d="M46.28,73.05l.07.44h0Z" fill="#8c6d51"/>
      <path d="M78.27,73.11v0Z" fill="#b59a85"/>
      <path d="M47.66,73.12l.14.63h0Z" fill="#d4ac6f"/>
      <path d="M89.28,73.12v.13h0Z" fill="#9de7eb"/>
      <path d="M76.87,73.19l-.07.26h0Z" fill="#93632d"/>
      <path d="M78.23,73.27v0Z" fill="#b59a81"/>
      <path d="M36,73.31l0,0Z" fill="#87dfeb"/>
      <path d="M78.18,73.32v.1h0Z" fill="#a07d5e"/>
      <path d="M36,73.42v.23h.07Z" fill="#c0eef3"/>
      <path d="M78.15,73.42v.17h0Z" fill="#b29a83"/>
      <path d="M46.38,73.49v.16h0Z" fill="#b59d81"/>
      <path d="M76.77,73.49l-.11.26h0Z" fill="#bf9855"/>
      <path d="M46.42,73.62l0,.2h0Z" fill="#886d51"/>
      <path d="M78.13,73.64v0Z" fill="#b19882"/>
      <path d="M75.25,73.69l-.35.43.42-.43Z" fill="#edb675"/>
      <path d="M78.08,73.69v.13h0Z" fill="#c1ad99"/>
      <path d="M76.63,73.75l-.49,1C76.35,74.61,76.72,74,76.63,73.75Z" fill="#9f7538"/>
      <path d="M78.05,73.79l-.11.36h0Z" fill="#917054"/>
      <path d="M89.07,73.79v.13h0Z" fill="#9de6eb"/>
      <path d="M47.87,73.82l.07.23h0Z" fill="#d6ae6a"/>
      <path d="M46.5,73.88v0Z" fill="#a98971"/>
      <path d="M46.52,74l.1.34h0Z" fill="#8c6c4c"/>
      <path d="M48,74.19l.1.3h0Z" fill="#caa263"/>
      <path d="M74.17,74.76l.59-.51A1.53,1.53,0,0,0,74.17,74.76Z" fill="#eeb774"/>
      <path d="M46.66,74.29l0,.17h0Z" fill="#8e6f53"/>
      <path d="M33.14,74.35a4.91,4.91,0,0,0-.06,1.14c.14.54.75,1.08,1,1.57h0l-.51-1.34Z" fill="#dfcd88"/>
      <path d="M77.82,74.44v0Z" fill="#9d8167"/>
      <path d="M46.73,74.46l0,.13h0Z" fill="#8a6a4c"/>
      <path d="M48.18,74.49l.07.1Z" fill="#c59c5c"/>
      <path d="M36.36,74.56v.1h0Z" fill="#a2e6ee"/>
      <path d="M48.21,74.59l.25.37Z" fill="#9e7637"/>
      <path d="M88.8,74.59v.13h0Z" fill="#9de6eb"/>
      <path d="M46.8,74.62l.07.2h0Z" fill="#997859"/>
      <path d="M77.67,74.66l-.14.4h0l.18-.4Z" fill="#896d4d"/>
      <path d="M76.11,74.72l0,.17h0Z" fill="#d0a869"/>
      <path d="M73.86,75l.31-.23Z" fill="#e5af6d"/>
      <path d="M46.91,74.88v0Z" fill="#c5aa96"/>
      <path d="M76,74.89l-.25.43.32-.43Z" fill="#bf9754"/>
      <path d="M47,75v0Z" fill="#a58a74"/>
      <path d="M73,75.56a2.09,2.09,0,0,0,.83-.57A2.37,2.37,0,0,0,73,75.56Z" fill="#e2a567"/>
      <path d="M47,75.05v0Z" fill="#ac937b"/>
      <path d="M48.54,75.05v0Z" fill="#c29957"/>
      <path d="M47.05,75.11v0Z" fill="#ac9178"/>
      <path d="M48.57,75.11v0Z" fill="#b48c49"/>
      <path d="M77.46,75.09v.1h0l0-.1Z" fill="#987961"/>
      <path d="M36.56,75.12l0,.17h0Z" fill="#ace9ef"/>
      <path d="M47.08,75.18l0,0Z" fill="#ae947c"/>
      <path d="M48.61,75.18v0Z" fill="#a4783b"/>
      <path d="M47.11,75.19l.14.2Z" fill="#75512e"/>
      <path d="M48.63,75.22l.14.17Z" fill="#976b33"/>
      <path d="M77.35,75.26l0,.16h0l.07-.16Z" fill="#98745a"/>
      <path d="M36.63,75.29v.1h0Z" fill="#a2e6ee"/>
      <path d="M21.46,79.43h0c.07-.32.15-.88.59-.92s.6.23.8.4c.69.58,1.2,1.35,1.83,2,.2.2.65.78,1,.6s.21-.84.21-1.13a11.39,11.39,0,0,0-.44-2.51c-.06-.28-.24-.8-.06-1.07.29-.42,1.1.1,1.4.29a8.49,8.49,0,0,0,1.21.85A5.67,5.67,0,0,0,27,76.69a7,7,0,0,0-.85-.77,4.67,4.67,0,0,0-.51-.36c-.66-.39-1.15-.21-1.07.57.1,1,.47,2,.64,3,.05.27.23.94,0,1.15s-.26,0-.36-.09a4.9,4.9,0,0,1-.71-.73,6.74,6.74,0,0,0-1.64-1.51c-.25-.13-.66-.28-.88,0S21.45,79,21.46,79.43Z" fill="#fff680"/>
      <path d="M75.7,75.32v.07l.06-.07Z" fill="#caa261"/>
      <path d="M88.52,75.32v.14h0Z" fill="#a4e7ed"/>
      <path d="M47.22,75.41v0Z" fill="#bf9e83"/>
      <path d="M77.25,75.39l-.1.27.17-.27Z" fill="#805b2f"/>
      <path d="M47.25,75.46l.06.13h0Z" fill="#805d33"/>
      <path d="M48.8,75.46l.14.16Z" fill="#92642c"/>
      <path d="M36.7,75.49l0,.13h0Z" fill="#ace9ef"/>
      <path d="M75.38,75.79l.25-.27Z" fill="#a07739"/>
      <path d="M47.35,75.62l.14.14Z" fill="#755535"/>
      <path d="M48.94,75.62l.1.14Z" fill="#91662b"/>
      <path d="M77.08,75.69v.07l.07-.07Z" fill="#987c61"/>
      <path d="M47.46,75.78l0,0Z" fill="#b0987b"/>
      <path d="M49,75.76l.18.2Z" fill="#90652b"/>
      <path d="M75.32,75.76v.06h.06v-.06Z" fill="#d9b06f"/>
      <path d="M47.49,75.82l.17.21Z" fill="#80623f"/>
      <path d="M75,76.19l.38-.37Z" fill="#ac8243"/>
      <path d="M76.94,76l.1-.1Z" fill="#967b5f"/>
      <path d="M49.22,76l.31.33Z" fill="#8f6329"/>
      <path d="M52.36,76v0l.21.1Z" fill="#efb572"/>
      <path d="M76.88,76v0Z" fill="#a3876e"/>
      <path d="M47.66,76.06l.28.33Z" fill="#785a30"/>
      <path d="M76.85,76.08v0Z" fill="#b59d88"/>
      <path d="M37,76.13l.07.13Z" fill="#a2e6ee"/>
      <path d="M76.78,76.15v0Z" fill="#a18267"/>
      <path d="M74.94,76.19v.07l.06-.07Z" fill="#ad8145"/>
      <path d="M76.7,76.19l0,.14h0l.07-.14Z" fill="#a68b70"/>
      <path d="M14,76.23a.71.71,0,0,0,.58.26v0Z" fill="#ffc077"/>
      <path d="M49.53,76.26l.45.4Z" fill="#d0a765"/>
      <path d="M74.87,76.26v.07l.07-.07Z" fill="#b4874b"/>
      <path d="M74.69,76.49l.18-.16Z" fill="#af8447"/>
      <path d="M47.94,76.43l.14.13Z" fill="#866744"/>
      <path d="M76.54,76.45v0Z" fill="#a48970"/>
      <path d="M74.62,76.49v.07l.07-.07Z" fill="#ab8043"/>
      <path d="M76.46,76.49v.07l.07-.07Z" fill="#9a7a5d"/>
      <path d="M48.08,76.56l.31.33Z" fill="#7f5a37"/>
      <path d="M74.17,76.93l.45-.37Z" fill="#aa7f45"/>
      <path d="M76.39,76.56v.07l.07-.07Z" fill="#8d7158"/>
      <path d="M37.19,76.59l0,.17h0Z" fill="#ace9ef"/>
      <path d="M25.57,76.65c-.41.16-.16.95-.09,1.25a18.79,18.79,0,0,1,.44,2.47c0,.31.09.81-.15,1.06s-.83-.33-1-.53a20.57,20.57,0,0,0-2-2.1c-.37-.28-.86-.48-1.12,0a.92.92,0,0,0-.13.6c.1.29.73.63,1,.83a28.19,28.19,0,0,1,3.24,3.41c.3.35.86,1.12,1.4,1.1.26,0,.3-.29.31-.49,0-.53-.09-1-.07-1.57,0-.19,0-.61.31-.6s.59.38.76.56A11,11,0,0,0,30,84c.22.16.67.48,1,.33s.18-.39.18-.59a4.87,4.87,0,0,0-.52-1.7,11.22,11.22,0,0,0-3.25-4.61C27,77.15,26.11,76.45,25.57,76.65Z" fill="#ff6969"/>
      <path d="M49.94,76.66l.21.2Z" fill="#81531e"/>
      <path d="M50,76.66l.31.27Z" fill="#dab16f"/>
      <path d="M76.25,76.73v.06l.07-.06Z" fill="#a18369"/>
      <path d="M37.26,76.76l0,.13h0Z" fill="#ace9ef"/>
      <path d="M76.18,76.79v.07l.07-.07Z" fill="#967a5f"/>
      <path d="M50.29,76.93l.21.16Z" fill="#caa162"/>
      <path d="M73.79,77.23l.38-.3Z" fill="#a07137"/>
      <path d="M87.83,76.93l-.1.3h0Z" fill="#c0eef3"/>
      <path d="M76,77V77l.07-.07Z" fill="#8a6c4e"/>
      <path d="M48.49,77l.45.4Z" fill="#836547"/>
      <path d="M69.23,77.23v0l.52-.17Z" fill="#e1ab68"/>
      <path d="M76,77.08v0Z" fill="#b39b87"/>
      <path d="M50.5,77.09l.17.14Z" fill="#d6b16e"/>
      <path d="M73.45,77.49l.34-.26Z" fill="#b78e51"/>
      <path d="M50.77,77.33v0l.21.1Z" fill="#b3894c"/>
      <path d="M75.63,77.33v.06l.07-.06Z" fill="#8b6a4b"/>
      <path d="M37.6,77.46l0,.17h0Z" fill="#ace9ef"/>
      <path d="M51,77.46l.17.13Z" fill="#a77a3f"/>
      <path d="M75.44,77.54h0Z" fill="#a5896f"/>
      <path d="M73.17,77.66l.11,0Z" fill="#d0a666"/>
      <path d="M75.32,77.66l.1,0Z" fill="#8a6344"/>
      <path d="M37.67,77.63l0,.13h0Z" fill="#ace9ef"/>
      <path d="M49.15,77.63l.2.17Z" fill="#84664a"/>
      <path d="M51.22,77.63l.14.1Z" fill="#bb9354"/>
      <path d="M67.47,77.7v0l.31,0Z" fill="#e3ae6a"/>
      <path d="M72.9,77.8v0l.27-.17Z" fill="#a6763d"/>
      <path d="M66.09,78v0c.29,0,1.2,0,1.38-.27Z" fill="#f1be7c"/>
      <path d="M37.74,77.76l0,.14h0Z" fill="#ace9ef"/>
      <path d="M51.43,77.76l.1.07Z" fill="#ba8e51"/>
      <path d="M34.49,77.83c-.13.3-.66.71-.65,1s.5.89.68,1.17c.63,1,1.37,1.89,1.94,2.88l.93-.17-1.8-2.81-.75-1.4Z" fill="#bd9957"/>
      <path d="M49.38,77.84h0Z" fill="#9a7d60"/>
      <path d="M51.53,77.83l.11.07Z" fill="#b58a4b"/>
      <path d="M57.55,77.83v0l1.07.14Z" fill="#dda363"/>
      <path d="M72.79,77.9l.11,0Z" fill="#d8b06b"/>
      <path d="M49.42,77.86l.18.14Z" fill="#815f3e"/>
      <path d="M72.58,78v0l.32-.2Z" fill="#8f6326"/>
      <path d="M37.81,77.9l0,.13h0Z" fill="#ace9ef"/>
      <path d="M51.64,77.9l.1.06Z" fill="#ae8347"/>
      <path d="M74.87,78l.17-.1Z" fill="#8f7156"/>
      <path d="M72.41,78.13l.31-.17A.35.35,0,0,0,72.41,78.13Z" fill="#d1a76a"/>
      <path d="M51.74,78l.24.17Z" fill="#94692b"/>
      <path d="M49.6,78l.13.1Z" fill="#846244"/>
      <path d="M58.69,78v0l2.52.27,2.87-.07h-.66l-1.14,0-2.17-.1Z" fill="#e3a968"/>
      <path d="M65,78.13v0L66.09,78A2.34,2.34,0,0,0,65,78.13Z" fill="#f1bd79"/>
      <path d="M37.88,78l.07.1Z" fill="#91e2ea"/>
      <path d="M51.91,78l.21.13Z" fill="#e1b776"/>
      <path d="M74.62,78.2l.11,0Z" fill="#795b3e"/>
      <path d="M52.07,78.17l0,0Z" fill="#9f7237"/>
      <path d="M64.39,78.16v0H65Z" fill="#e8b370"/>
      <path d="M52.12,78.2v0l.14,0v0Z" fill="#8e6327"/>
      <path d="M74.55,78.2v.06l.07-.06Z" fill="#947960"/>
      <path d="M52.26,78.26l.1.07Z" fill="#94682c"/>
      <path d="M52.33,78.26l.24.14v0Z" fill="#cea464"/>
      <path d="M74.51,78.27l0,0Z" fill="#b1927f"/>
      <path d="M50,78.3l.17.13Z" fill="#7a5a3e"/>
      <path d="M71.58,78.56l.49-.2A.61.61,0,0,0,71.58,78.56Z" fill="#bb9555"/>
      <path d="M74.24,78.46l.21-.1Z" fill="#af947a"/>
      <path d="M52.5,78.4v0l.17.07v0Z" fill="#8e6327"/>
      <path d="M87.07,78.43l-.14.3Z" fill="#b1eaf0"/>
      <path d="M74.17,78.46v.07l.07-.07Z" fill="#9c8162"/>
      <path d="M38.15,78.5l0,.13h0Z" fill="#ace9ef"/>
      <path d="M52.74,78.53v0l.38.1Z" fill="#dbb472"/>
      <path d="M50.39,78.56l.14.1Z" fill="#886341"/>
      <path d="M71.37,78.66l.21-.06Z" fill="#bd9453"/>
      <path d="M73.79,78.76l.32-.16C74,78.55,73.86,78.65,73.79,78.76Z" fill="#715331"/>
      <path d="M38.22,78.63l0,.13h0Z" fill="#ace9ef"/>
      <path d="M53.08,78.67l0,0Z" fill="#a57c3f"/>
      <path d="M71.13,78.76v0l.28-.1Z" fill="#9f7636"/>
      <path d="M50.6,78.7l.1.06Z" fill="#826243"/>
      <path d="M53.19,78.73l.11.07Z" fill="#92652c"/>
      <path d="M38.29,78.76l0,.14h0Z" fill="#ace9ef"/>
      <path d="M50.7,78.76l.11.07Z" fill="#876444"/>
      <path d="M53.3,78.76v0l.27.06Z" fill="#e0b873"/>
      <path d="M71,78.8v0l.17,0Z" fill="#cca263"/>
      <path d="M73.71,78.78h0Z" fill="#967d67"/>
      <path d="M70.58,79v0l.38-.14Z" fill="#cea666"/>
      <path d="M73.48,78.93l.18-.07Z" fill="#753"/>
      <path d="M33.8,78.86c-.15.3.13.87.22,1.17.33,1.09,1,2.81,2.44,2.84L34.8,80.43Z" fill="#ffbd74"/>
      <path d="M50.88,78.86,51,79Z" fill="#82603e"/>
      <path d="M53.5,78.86v0l.14,0v0Z" fill="#92662c"/>
      <path d="M38.36,78.9l.07.1Z" fill="#afeaf0"/>
      <path d="M53.64,78.93v0l.76.27v0Z" fill="#a97e40"/>
      <path d="M51,79l.11.07Z" fill="#a48261"/>
      <path d="M70.23,79.1v0l.35-.1Z" fill="#c59a5b"/>
      <path d="M73.17,79.13l.21-.1Z" fill="#a08369"/>
      <path d="M51.14,79h0Z" fill="#917458"/>
      <path d="M86.72,79l-.07.17Z" fill="#afeaf0"/>
      <path d="M54.09,79.06l.1.07Z" fill="#d6ad6f"/>
      <path d="M38.5,79.1l0,.13h0Z" fill="#ace9ef"/>
      <path d="M51.32,79.13l.11.07Z" fill="#936d4b"/>
      <path d="M69.82,79.33l.45-.17A.46.46,0,0,0,69.82,79.33Z" fill="#906128"/>
      <path d="M72.79,79.33l.35-.17A.38.38,0,0,0,72.79,79.33Z" fill="#907153"/>
      <path d="M38.57,79.23l.1.17Z" fill="#bbecf2"/>
      <path d="M54.44,79.23v0l.13,0v0Z" fill="#966b31"/>
      <path d="M69.54,79.37v0l.28-.07Z" fill="#b88d51"/>
      <path d="M51.67,79.33v0l.17.06v0Z" fill="#997c61"/>
      <path d="M54.71,79.33l.31.14v0Z" fill="#92692b"/>
      <path d="M51.81,79.37l.17.13Z" fill="#724c2b"/>
      <path d="M72.65,79.37v0h.11Z" fill="#9e8467"/>
      <path d="M86.52,79.37l-.38.66C86.3,79.93,86.57,79.56,86.52,79.37Z" fill="#cff2f6"/>
      <path d="M69.37,79.47l.14,0Z" fill="#ba9051"/>
      <path d="M72.34,79.57l.31-.14A.3.3,0,0,0,72.34,79.57Z" fill="#8b694a"/>
      <path d="M38.71,79.43l.07.1Z" fill="#a2e6ee"/>
      <path d="M55,79.43v0h.14Z" fill="#d3aa6b"/>
      <path d="M68.68,79.63v0l.69-.17Z" fill="#ba9053"/>
      <path d="M52,79.5l.1.07Z" fill="#8b6c55"/>
      <path d="M55.2,79.5v0h.13Z" fill="#c9a05f"/>
      <path d="M55.33,79.53v0l.21,0Z" fill="#cda463"/>
      <path d="M38.78,79.57l.1.23h0Z" fill="#ace9ef"/>
      <path d="M71.93,79.77l.41-.17A.45.45,0,0,0,71.93,79.77Z" fill="#907655"/>
      <path d="M55.58,79.63v0h.14Z" fill="#ac8048"/>
      <path d="M55.72,79.67v0h.13Z" fill="#bd9458"/>
      <path d="M68.37,79.7v0l.24,0Z" fill="#ddb571"/>
      <path d="M68.37,79.73v0l.38-.07Z" fill="#91662a"/>
      <path d="M56,79.73v0l.2,0Z" fill="#c89f60"/>
      <path d="M68.09,79.77v0l.28,0Z" fill="#d6ae6c"/>
      <path d="M71.62,79.9l.31-.13A.28.28,0,0,0,71.62,79.9Z" fill="#6c4829"/>
      <path d="M71.88,79.78h0Z" fill="#a8907b"/>
      <path d="M38.91,79.8l.07.1Z" fill="#c0eef3"/>
      <path d="M56.1,79.8v0h.13Z" fill="#92662b"/>
      <path d="M56.23,79.8v0h.18Z" fill="#c69b5b"/>
      <path d="M67.92,79.87l.17,0Z" fill="#d6ae6d"/>
      <path d="M67.85,79.87v0l.38-.07Z" fill="#8f6429"/>
      <path d="M71.81,79.81h0Z" fill="#ae977f"/>
      <path d="M56.27,79.83v0l.27,0Z" fill="#a07538"/>
      <path d="M56.54,79.87v0l.38.07Z" fill="#d3ab6b"/>
      <path d="M67.64,79.93l.21,0Z" fill="#ddb372"/>
      <path d="M39,79.9l.11.17Z" fill="#bbecf2"/>
      <path d="M67.61,79.93v0l.24,0Z" fill="#885d1f"/>
      <path d="M71.48,79.93v0l.14,0Z" fill="#ab8f73"/>
      <path d="M67.43,80v0l.18,0Z" fill="#ba914f"/>
      <path d="M56.86,80v0H57Z" fill="#af8648"/>
      <path d="M71.34,80v0h.14Z" fill="#7c5c3f"/>
      <path d="M53.05,80v0l.14,0v0Z" fill="#ab977c"/>
      <path d="M57,80v0h.14Z" fill="#b7894e"/>
      <path d="M67.16,80v0h.14Z" fill="#bf9557"/>
      <path d="M67.3,80v0h.17Z" fill="#92652c"/>
      <path d="M71.24,80v0l.13,0Z" fill="#a68366"/>
      <path d="M57.17,80v0l.38,0Z" fill="#b1894b"/>
      <path d="M66.6,80.1v0l.56-.06Z" fill="#d1a869"/>
      <path d="M86.1,80l-.79,1.21.64-.83Z" fill="#cff2f6"/>
      <path d="M53.23,80.07v0l.24.07Z" fill="#7b4f2a"/>
      <path d="M71,80.13v0l.28-.07Z" fill="#846143"/>
      <path d="M39.12,80.1l.11.17Z" fill="#bbecf2"/>
      <path d="M57.55,80.1v0l.31,0Z" fill="#b78f4f"/>
      <path d="M66.09,80.23v0l.62-.1Z" fill="#996d32"/>
      <path d="M53.47,80.17v0l1.42.47A3.72,3.72,0,0,0,53.47,80.17Z" fill="#855f3a"/>
      <path d="M57.72,80.17v0h.21Z" fill="#8f6327"/>
      <path d="M57.93,80.17v0h.24Z" fill="#c79c5e"/>
      <path d="M66.09,80.2v0l.24,0Z" fill="#dfb877"/>
      <path d="M70.68,80.27v0l.31-.1Z" fill="#9d7f64"/>
      <path d="M57.93,80.2v0l.62.07Z" fill="#9c7034"/>
      <path d="M65.88,80.23v0h.21Z" fill="#c69d5b"/>
      <path d="M64.7,80.4v0l1.18-.13A3.19,3.19,0,0,0,64.7,80.4Z" fill="#bd9153"/>
      <path d="M39.26,80.3l0,.13h0Z" fill="#ace9ef"/>
      <path d="M70.44,80.33v0l.21,0Z" fill="#84684e"/>
      <path d="M59.1,80.37v0l.59,0Z" fill="#b78e50"/>
      <path d="M70,80.5v0l.38-.1Z" fill="#a4846a"/>
      <path d="M25.92,80.43v.51h0Z" fill="#ff9b71"/>
      <path d="M39.33,80.43l.07.1Z" fill="#afeaf0"/>
      <path d="M59.38,80.43v0h.31Z" fill="#885d24"/>
      <path d="M59.69,80.43v0l1.35.06A4.33,4.33,0,0,0,59.69,80.43Z" fill="#b1874a"/>
      <path d="M63.42,80.5v0l1.28-.06Z" fill="#966b30"/>
      <path d="M59.76,80.47v0h.38Z" fill="#8a5f26"/>
      <path d="M60.69,80.47v0H64a3,3,0,0,0-1.07,0C62.17,80.53,61.43,80.47,60.69,80.47Z" fill="#e2bb79"/>
      <path d="M60.31,80.5v0h.35Z" fill="#8e6428"/>
      <path d="M39.4,80.53l.07.1Z" fill="#c0eef3"/>
      <path d="M60.69,80.53v0h.73Z" fill="#976e2f"/>
      <path d="M61.42,80.53v0H63A5,5,0,0,0,61.42,80.53Z" fill="#b2894a"/>
      <path d="M63,80.53v0h.69Z" fill="#7e5118"/>
      <path d="M69.82,80.57v0l.17,0Z" fill="#ac8d71"/>
      <path d="M61.66,80.57v0H63A4.35,4.35,0,0,0,61.66,80.57Z" fill="#794c13"/>
      <path d="M69.58,80.63v0l.24,0Z" fill="#967d66"/>
      <path d="M39.47,80.63l.07.1Z" fill="#afeaf0"/>
      <path d="M54.89,80.67v0l.89.24A1.69,1.69,0,0,0,54.89,80.67Z" fill="#7d5e40"/>
      <path d="M69.44,80.73l.14,0Z" fill="#ae967e"/>
      <path d="M69.2,80.73v0l.24,0Z" fill="#7c5d3c"/>
      <path d="M39.54,80.73l.07.11Z" fill="#c0eef3"/>
      <path d="M55,80.73v0l.25,0Z" fill="#54c0c3"/>
      <path d="M68.78,80.87v0l.49-.1Z" fill="#a3876a"/>
      <path d="M39.61,80.84l.07.1Z" fill="#afeaf0"/>
      <path d="M68.61,81l.17,0Z" fill="#9f8771"/>
      <path d="M39.68,80.94l.17.23Z" fill="#b1eaf0"/>
      <path d="M55.78,80.94v0h.14Z" fill="#896b50"/>
      <path d="M55.92,81v0l.42.07Z" fill="#805d3a"/>
      <path d="M67.43,81.2v0L68.54,81A2.45,2.45,0,0,0,67.43,81.2Z" fill="#a48871"/>
      <path d="M56.27,81.07v0h.14Z" fill="#a68767"/>
      <path d="M56.48,81.1v0l.24,0Z" fill="#9f876f"/>
      <path d="M56.72,81.14v0l.2,0Z" fill="#826447"/>
      <path d="M56.92,81.2v0l.32,0Z" fill="#937458"/>
      <path d="M67.23,81.24v0h.17Z" fill="#baa187"/>
      <path d="M85.27,81.24,85,81.7C85.1,81.61,85.31,81.41,85.27,81.24Z" fill="#cff2f6"/>
      <path d="M57.24,81.27v0h.17Z" fill="#a38260"/>
      <path d="M66.33,81.37v0l.76-.1Z" fill="#95785c"/>
      <path d="M67.09,81.27v0h.14Z" fill="#b6a38d"/>
      <path d="M40,81.3l.07.1Z" fill="#afeaf0"/>
      <path d="M57.44,81.3v0h.18Z" fill="#8e7256"/>
      <path d="M66.92,81.3v0h.13Z" fill="#b19880"/>
      <path d="M57.65,81.34v0l.28,0Z" fill="#a07d5f"/>
      <path d="M57.93,81.37v0l.83.1Z" fill="#714b2a"/>
      <path d="M40,81.4l.07.1Z" fill="#c0eef3"/>
      <path d="M65.88,81.44v0l.38,0Z" fill="#866549"/>
      <path d="M66.09,81.44v0l.31,0Z" fill="#b49d8b"/>
      <path d="M58.17,81.44v0h.14Z" fill="#ab917d"/>
      <path d="M65.5,81.5v0l.52,0Z" fill="#a78c76"/>
      <path d="M40.09,81.5l.14.17Z" fill="#b1eaf0"/>
      <path d="M58.69,81.5v0h.24Z" fill="#a99582"/>
      <path d="M58.93,81.5v0l1.14.1A2.87,2.87,0,0,0,58.93,81.5Z" fill="#866142"/>
      <path d="M65.33,81.5v0h.17Z" fill="#886849"/>
      <path d="M64.94,81.57v0l.56,0Z" fill="#a8896f"/>
      <path d="M64.5,81.6v0l.44,0Z" fill="#815d3e"/>
      <path d="M64.7,81.6v0h.18Z" fill="#c5ab99"/>
      <path d="M59.83,81.64v0l.93,0Z" fill="#a28b74"/>
      <path d="M60.76,81.67v0l3.08,0H60.76Z" fill="#6c4422"/>
      <path d="M61.11,81.7v0l3.45-.07a3.53,3.53,0,0,0-1.41,0C62.48,81.76,61.78,81.7,61.11,81.7Z" fill="#ad937e"/>
      <path d="M84.93,81.7l-.18.27C84.85,81.9,85,81.82,84.93,81.7Z" fill="#c0eef3"/>
      <path d="M62,81.74v0h.42Z" fill="#dbc7b4"/>
      <path d="M62.62,81.75h0Z" fill="#decab7"/>
      <path d="M40.3,81.77l.14.17Z" fill="#b1eaf0"/>
      <path d="M84.72,82l-.45.6C84.42,82.47,84.77,82.16,84.72,82Z" fill="#cff2f6"/>
      <path d="M40.5,82l.14.16Z" fill="#b1eaf0"/>
      <path d="M40.64,82.2l.07.1Z" fill="#c0eef3"/>
      <path d="M40.71,82.3l.14.17Z" fill="#b1eaf0"/>
      <path d="M40.85,82.47l.14.17Z" fill="#c0eef3"/>
      <path d="M84.23,82.57c-.32.36-.63.73-1,1.08-.15.18-.35.32-.38.56h0L84,83Z" fill="#cff2f6"/>
      <path d="M41,82.64l.21.23Z" fill="#b1eaf0"/>
      <path d="M36.5,82.87a5.78,5.78,0,0,0,1,1.44c.56.75,1.12,1.51,1.71,2.24a5.87,5.87,0,0,0,.75.9l-.54-1.17L38.25,84l-.58-.86-.28-.33Z" fill="#9c964e"/>
      <path d="M41.33,83l.21.23L41.33,83m.42.47.28.3Z" fill="#b1eaf0"/>
      <path d="M38.13,83.73v0Z" fill="#d7c681"/>
      <path d="M38.15,83.77l.32.67h.24Z" fill="#dfcd88"/>
      <path d="M42,83.81l.38.4Z" fill="#cff2f6"/>
      <path d="M82.85,84.11l-1.24,1.23c.35-.09.73-.62,1-.88.09-.09.29-.21.25-.35m-39.3,1.17a1.51,1.51,0,0,0,.72.67Z" fill="#b1eaf0"/>
      <path d="M80.36,86.41c.55-.14.82-.86,1.35-1-.17-.06-.3.09-.41.2A8.32,8.32,0,0,0,80.36,86.41Z" fill="#cff2f6"/>
      <path d="M44.31,86a.77.77,0,0,0,.45.4Z" fill="#b1eaf0"/>
      <path d="M44.79,86.35l.31.26Z" fill="#c0eef3"/>
      <path d="M79.67,87a1.47,1.47,0,0,0,.69-.54l-.69.54m-34.5-.3.28.23-.28-.23m33.67.9a1.74,1.74,0,0,0,.83-.6Z" fill="#cff2f6"/>
      <path d="M41.16,87a4.62,4.62,0,0,0,.47.84c.31.52.62,1,.95,1.54.65,1,1.31,2,2,3A7.52,7.52,0,0,0,46,94a2.16,2.16,0,0,0,3.13-.51,2.13,2.13,0,0,0,.54-.83,11.61,11.61,0,0,1-2.29-1.13,31.42,31.42,0,0,1-4.73-3.2C42.15,87.89,41.7,87.38,41.16,87Z" fill="#ff6969"/>
      <path d="M46.35,87.52l.2.16Z" fill="#bbecf2"/>
      <path d="M78.15,88v0a1.45,1.45,0,0,0,.69-.47Z" fill="#cff2f6"/>
      <path d="M46.59,87.68l.17.14v0Z" fill="#c0eef3"/>
      <path d="M77.94,88.12v0l.21-.13-.21.1m-.2.13v0l.2-.13Z" fill="#bbecf2"/>
      <path d="M77.18,88.58v0l.17-.1-.17.06m-.69.41v0l.17-.1-.17.07m-.48.26v0l.17-.1Z" fill="#afeaf0"/>
      <path d="M75.87,89.32v0l.14,0Z" fill="#ace9ef"/>
      <path d="M49.35,89.35l.11.07v0l-.11,0m1.53.74.1.06v0Z" fill="#a2e6ee"/>
      <path d="M73.41,90.46v0l.18,0h-.18m-1.79.66v0h.13l-.13,0m-.21.07v0h.14l-.14,0m-.21.07v0h.14l-.14,0m-.9.26v0h.14Z" fill="#a3e6ee"/>
      <path d="M69.54,91.72v0h.14l-.14,0m-.55.14v0h.14Z" fill="#9ae4ec"/>
      <path d="M68.51,92v0l.31,0Z" fill="#cef1f5"/>
      <path d="M56.75,92v0h.11Z" fill="#86ddeb"/>
      <path d="M57.65,92.16v0h.1Z" fill="#83dbec"/>
      <path d="M67.47,92.16v0h.27l-.27,0m-.9.13v0h.35l-.35,0m-7.81.07v0h.31l-.31,0m7.39,0v0h.28l-.28,0m-.69.07v0H66v-.07l-.56,0m-6.15,0v0h.35Z" fill="#c7eff4"/>
      <path d="M59.86,92.46v0H60Z" fill="#78dbe8"/>
      <path d="M60,92.49v0h.42l-.42,0m4.77,0v0h.35l-.35,0m-4.15.07v0h.83Z" fill="#c7eff4"/>
      <path d="M61.45,92.56v0H62Z" fill="#6ed6ea"/>
      <path d="M62,92.56v0h1.52A4.83,4.83,0,0,0,62,92.56Z" fill="#41c9e5"/>
      <path d="M63.53,92.56v0h.83Z" fill="#c7eff4"/>
      <path d="M49.87,92.76l-.63,1.4-.68,1.24a5,5,0,0,0,1.21-1.87,2.89,2.89,0,0,0,.28-.74Z" fill="#ff6969"/>
      <path d="M47.49,96v0a1.12,1.12,0,0,0,.86-.4Z" fill="#fff680"/>
    </g>
  </g>
</svg>
