<svg xmlns="http://www.w3.org/2000/svg" xmlns:xlink="http://www.w3.org/1999/xlink" width="96pt" height="96pt" viewBox="0 0 96 96" version="1.1">
<g id="surface1">
<path style=" stroke:none;fill-rule:evenodd;fill:rgb(85.490196%,72.156863%,18.039216%);fill-opacity:1;" d="M 67.585938 33.011719 C 66.109375 33.324219 65.308594 34.855469 65.855469 36.3125 C 66.660156 38.460938 69.742188 38.378906 70.515625 36.1875 C 71.152344 34.382812 69.511719 32.605469 67.585938 33.011719 M 44.523438 56.59375 C 44.492188 56.628906 43.78125 56.71875 42.945312 56.796875 C 42.089844 56.875 41.402344 56.980469 41.367188 57.039062 C 41.328125 57.097656 40.945312 57.179688 40.507812 57.214844 C 39.941406 57.265625 39.695312 57.328125 39.632812 57.4375 C 39.574219 57.539062 39.339844 57.609375 38.882812 57.652344 C 38.488281 57.695312 38.199219 57.769531 38.171875 57.84375 C 38.148438 57.910156 37.910156 57.992188 37.644531 58.03125 C 37.378906 58.066406 37.109375 58.160156 37.046875 58.234375 C 36.890625 58.421875 36.996094 58.503906 37.234375 58.375 C 37.464844 58.25 37.632812 58.242188 37.632812 58.351562 C 37.632812 58.535156 37.179688 58.679688 36.964844 58.5625 C 36.75 58.449219 36.546875 58.511719 36.726562 58.636719 C 36.851562 58.726562 37.078125 59.242188 37.015625 59.304688 C 36.992188 59.328125 37.03125 59.414062 37.109375 59.492188 C 37.1875 59.570312 37.25 59.746094 37.25 59.886719 C 37.25 60.027344 37.246094 60.332031 37.246094 60.5625 C 37.242188 60.796875 37.300781 61.050781 37.375 61.140625 C 37.527344 61.3125 37.65625 62.25 37.640625 63.09375 C 37.632812 63.523438 37.660156 63.632812 37.765625 63.589844 C 37.871094 63.550781 37.886719 63.632812 37.847656 64.003906 C 37.789062 64.566406 37.636719 64.78125 37.621094 64.316406 L 37.613281 63.984375 L 37.535156 64.3125 C 37.453125 64.664062 37.5 64.894531 37.652344 64.894531 C 37.707031 64.894531 37.71875 65.050781 37.679688 65.28125 C 37.632812 65.554688 37.648438 65.664062 37.730469 65.664062 C 37.867188 65.664062 39.15625 65.339844 39.9375 65.109375 C 40.226562 65.023438 40.722656 64.949219 41.039062 64.949219 C 41.355469 64.945312 41.660156 64.894531 41.710938 64.835938 C 41.863281 64.664062 42.953125 64.5 43.46875 64.566406 C 43.855469 64.617188 43.949219 64.601562 44 64.46875 C 44.054688 64.332031 44.214844 64.3125 45.171875 64.328125 C 45.78125 64.335938 46.308594 64.316406 46.339844 64.285156 C 46.441406 64.183594 48.480469 64.214844 48.480469 64.316406 C 48.480469 64.375 48.890625 64.386719 49.5625 64.351562 C 50.503906 64.300781 50.667969 64.3125 50.808594 64.457031 C 50.933594 64.582031 51.117188 64.613281 51.605469 64.597656 C 52.015625 64.585938 52.265625 64.617188 52.3125 64.691406 C 52.359375 64.769531 52.515625 64.785156 52.78125 64.742188 C 53.101562 64.691406 53.191406 64.710938 53.242188 64.839844 C 53.285156 64.957031 53.417969 64.992188 53.746094 64.988281 C 54.347656 64.972656 54.839844 65.078125 54.976562 65.25 C 55.046875 65.339844 55.164062 65.371094 55.28125 65.332031 C 55.503906 65.261719 56.542969 65.539062 56.542969 65.667969 C 56.542969 65.714844 56.605469 65.730469 56.679688 65.703125 C 56.753906 65.671875 56.914062 65.699219 57.027344 65.761719 C 57.550781 66.042969 57.695312 65.761719 57.695312 64.496094 C 57.695312 63.71875 57.730469 63.359375 57.804688 63.359375 C 57.875 63.359375 57.898438 63.199219 57.867188 62.875 C 57.835938 62.5625 57.859375 62.34375 57.9375 62.269531 C 58 62.207031 58.03125 62.019531 58.007812 61.855469 C 57.984375 61.691406 58.011719 61.53125 58.070312 61.492188 C 58.128906 61.457031 58.175781 61.320312 58.175781 61.191406 C 58.175781 61.0625 58.242188 60.929688 58.320312 60.898438 C 58.398438 60.867188 58.464844 60.734375 58.464844 60.605469 C 58.464844 60.367188 58.5625 60.113281 59.003906 59.183594 L 59.230469 58.703125 L 59.027344 58.535156 C 58.917969 58.445312 58.699219 58.367188 58.546875 58.367188 C 58.394531 58.367188 58.019531 58.28125 57.722656 58.175781 C 57.421875 58.070312 57.058594 57.984375 56.914062 57.984375 C 56.773438 57.984375 56.425781 57.902344 56.144531 57.800781 C 55.863281 57.703125 55.351562 57.570312 55.007812 57.511719 C 54.664062 57.453125 54.125 57.359375 53.808594 57.304688 C 53.492188 57.25 52.996094 57.160156 52.703125 57.109375 C 50.699219 56.746094 44.75 56.371094 44.523438 56.59375 M 38.449219 58.175781 C 38.414062 58.230469 38.25 58.269531 38.082031 58.269531 C 37.847656 58.269531 37.808594 58.246094 37.921875 58.175781 C 38.109375 58.054688 38.523438 58.054688 38.449219 58.175781 M 73.917969 58.9375 C 72.199219 59.460938 71.488281 61.308594 72.460938 62.730469 C 73.867188 64.777344 76.992188 63.753906 76.992188 61.242188 C 76.992188 59.734375 75.351562 58.5 73.917969 58.9375 M 20.757812 60.8125 C 18.039062 61.664062 18.613281 65.613281 21.457031 65.613281 C 22.371094 65.613281 22.828125 65.414062 23.367188 64.785156 C 24.980469 62.898438 23.121094 60.074219 20.757812 60.8125 M 37.304688 65.152344 C 37.269531 65.238281 37.285156 65.355469 37.339844 65.410156 C 37.410156 65.480469 37.441406 65.429688 37.441406 65.25 C 37.441406 64.953125 37.390625 64.921875 37.304688 65.152344 M 38.84375 65.136719 C 38.523438 65.304688 38.496094 65.308594 38.496094 65.191406 C 38.496094 65.101562 38.699219 65.023438 38.976562 65.003906 C 39.054688 64.996094 38.996094 65.058594 38.84375 65.136719 "/>
<path style=" stroke:none;fill-rule:evenodd;fill:rgb(86.27451%,7.843137%,7.843137%);fill-opacity:1;" d="M 51.839844 29.664062 C 51.65625 29.804688 51.445312 29.851562 50.964844 29.855469 C 50.40625 29.855469 50.320312 29.878906 50.277344 30.046875 C 50.234375 30.214844 50.144531 30.238281 49.640625 30.238281 C 49.121094 30.238281 49.054688 30.261719 49.054688 30.433594 C 49.054688 30.585938 48.992188 30.625 48.726562 30.625 C 48.480469 30.625 48.382812 30.671875 48.335938 30.816406 C 48.292969 30.949219 48.191406 31.007812 48.003906 31.007812 C 47.816406 31.007812 47.71875 31.066406 47.683594 31.199219 C 47.648438 31.328125 47.554688 31.390625 47.386719 31.390625 C 47.199219 31.390625 47.136719 31.441406 47.136719 31.585938 C 47.136719 31.730469 47.070312 31.777344 46.859375 31.777344 C 46.664062 31.777344 46.566406 31.832031 46.53125 31.96875 C 46.5 32.097656 46.402344 32.160156 46.234375 32.160156 C 46.046875 32.160156 45.984375 32.210938 45.984375 32.351562 C 45.984375 32.457031 45.921875 32.542969 45.847656 32.542969 C 45.769531 32.542969 45.679688 32.628906 45.648438 32.734375 C 45.613281 32.839844 45.527344 32.929688 45.457031 32.929688 C 45.382812 32.929688 45.296875 33.015625 45.265625 33.121094 C 45.230469 33.226562 45.144531 33.3125 45.078125 33.3125 C 45.007812 33.3125 44.929688 33.398438 44.898438 33.503906 C 44.871094 33.617188 44.769531 33.695312 44.648438 33.695312 C 44.519531 33.695312 44.449219 33.757812 44.449219 33.863281 C 44.449219 33.957031 44.359375 34.089844 44.253906 34.15625 C 44.144531 34.222656 44.078125 34.316406 44.109375 34.359375 C 44.136719 34.40625 44.09375 34.46875 44.015625 34.5 C 43.9375 34.527344 43.871094 34.621094 43.871094 34.699219 C 43.871094 34.78125 43.808594 34.847656 43.726562 34.847656 C 43.648438 34.847656 43.585938 34.933594 43.585938 35.042969 C 43.585938 35.148438 43.519531 35.261719 43.441406 35.292969 C 43.359375 35.324219 43.296875 35.421875 43.296875 35.511719 C 43.296875 35.601562 43.210938 35.769531 43.105469 35.882812 C 43 35.996094 42.910156 36.1875 42.910156 36.308594 C 42.910156 36.582031 42.828125 36.707031 42.550781 36.851562 C 42.402344 36.933594 42.335938 37.054688 42.335938 37.25 C 42.335938 37.40625 42.292969 37.535156 42.238281 37.535156 C 42.1875 37.535156 42.144531 37.621094 42.144531 37.726562 C 42.144531 37.832031 42.101562 37.921875 42.046875 37.921875 C 41.996094 37.921875 41.953125 37.984375 41.953125 38.066406 C 41.953125 38.144531 41.910156 38.285156 41.863281 38.378906 C 41.730469 38.625 41.632812 38.917969 41.648438 39.003906 C 41.660156 39.042969 41.601562 39.101562 41.519531 39.132812 C 41.425781 39.167969 41.375 39.316406 41.375 39.554688 C 41.375 39.753906 41.324219 39.9375 41.261719 39.957031 C 41.050781 40.027344 41.367188 40.601562 41.652344 40.671875 C 41.789062 40.703125 41.980469 40.8125 42.074219 40.910156 C 42.167969 41.007812 42.347656 41.113281 42.476562 41.144531 C 42.601562 41.175781 42.730469 41.261719 42.757812 41.335938 C 42.785156 41.410156 42.875 41.472656 42.953125 41.472656 C 43.03125 41.472656 43.144531 41.558594 43.199219 41.664062 C 43.257812 41.769531 43.351562 41.855469 43.410156 41.855469 C 43.515625 41.855469 43.636719 41.949219 44.105469 42.40625 C 44.226562 42.527344 44.351562 42.625 44.382812 42.625 C 44.472656 42.625 45.472656 43.640625 45.652344 43.914062 C 45.742188 44.050781 45.875 44.160156 45.945312 44.160156 C 46.019531 44.160156 46.078125 44.203125 46.078125 44.257812 C 46.078125 44.3125 46.316406 44.675781 46.609375 45.058594 C 46.898438 45.445312 47.136719 45.808594 47.136719 45.871094 C 47.136719 45.929688 47.214844 46.019531 47.308594 46.070312 C 47.402344 46.117188 47.539062 46.316406 47.613281 46.503906 C 47.6875 46.691406 47.777344 46.847656 47.816406 46.847656 C 47.851562 46.847656 47.902344 46.933594 47.933594 47.039062 C 48.054688 47.507812 48.519531 47.175781 48.757812 46.449219 C 48.820312 46.253906 48.9375 46.074219 49.011719 46.042969 C 49.089844 46.015625 49.152344 45.914062 49.152344 45.816406 C 49.152344 45.675781 49.800781 44.675781 50.207031 44.1875 C 50.261719 44.125 50.304688 44.050781 50.304688 44.019531 C 50.304688 43.804688 52.402344 41.472656 52.59375 41.472656 C 52.652344 41.472656 52.742188 41.386719 52.800781 41.28125 C 52.855469 41.175781 52.964844 41.089844 53.039062 41.089844 C 53.117188 41.089844 53.222656 41 53.28125 40.894531 C 53.335938 40.789062 53.4375 40.703125 53.507812 40.703125 C 53.578125 40.703125 53.710938 40.617188 53.808594 40.511719 C 53.902344 40.40625 54.039062 40.320312 54.109375 40.320312 C 54.175781 40.320312 54.28125 40.234375 54.335938 40.128906 C 54.390625 40.023438 54.496094 39.9375 54.566406 39.9375 C 54.632812 39.9375 54.789062 39.847656 54.910156 39.742188 C 55.035156 39.636719 55.207031 39.550781 55.296875 39.550781 C 55.386719 39.550781 55.558594 39.464844 55.679688 39.359375 C 55.800781 39.253906 55.957031 39.167969 56.023438 39.167969 C 56.089844 39.167969 56.214844 39.101562 56.296875 39.019531 C 56.378906 38.9375 56.609375 38.84375 56.808594 38.8125 C 57.191406 38.753906 57.503906 38.503906 57.503906 38.261719 C 57.503906 38.179688 57.570312 38.113281 57.648438 38.113281 C 57.726562 38.113281 57.792969 38.035156 57.796875 37.945312 C 57.800781 37.71875 58.121094 37.34375 58.3125 37.34375 C 58.398438 37.34375 58.464844 37.261719 58.464844 37.152344 C 58.464844 37.023438 58.527344 36.960938 58.65625 36.960938 C 58.785156 36.960938 58.847656 36.894531 58.847656 36.769531 C 58.847656 36.664062 58.910156 36.574219 58.984375 36.574219 C 59.0625 36.574219 59.152344 36.488281 59.183594 36.382812 C 59.222656 36.265625 59.328125 36.191406 59.46875 36.191406 C 59.609375 36.191406 59.707031 36.121094 59.738281 36 C 59.777344 35.859375 59.871094 35.808594 60.085938 35.808594 C 60.320312 35.808594 60.382812 35.765625 60.382812 35.617188 C 60.382812 35.445312 60.449219 35.425781 60.960938 35.425781 C 61.472656 35.425781 61.535156 35.402344 61.535156 35.230469 C 61.535156 35.046875 61.601562 35.039062 63.207031 35.039062 C 65.207031 35.039062 65.144531 35.058594 65.289062 34.417969 C 65.375 34.035156 65.460938 33.878906 65.628906 33.804688 C 65.925781 33.667969 65.917969 33.445312 65.617188 33.367188 C 65.460938 33.328125 65.375 33.242188 65.375 33.117188 C 65.375 32.960938 65.3125 32.929688 64.992188 32.929688 C 64.671875 32.929688 64.609375 32.894531 64.609375 32.734375 C 64.609375 32.585938 64.542969 32.542969 64.320312 32.542969 C 64.097656 32.542969 64.03125 32.5 64.03125 32.351562 C 64.03125 32.195312 63.96875 32.160156 63.703125 32.160156 C 63.457031 32.160156 63.355469 32.109375 63.3125 31.96875 C 63.265625 31.816406 63.167969 31.777344 62.863281 31.777344 C 62.558594 31.777344 62.46875 31.734375 62.429688 31.585938 C 62.390625 31.433594 62.296875 31.390625 62.015625 31.390625 C 61.734375 31.390625 61.644531 31.347656 61.605469 31.199219 C 61.566406 31.046875 61.472656 31.007812 61.167969 31.007812 C 60.863281 31.007812 60.769531 30.964844 60.71875 30.816406 C 60.667969 30.65625 60.574219 30.625 60.144531 30.625 C 59.714844 30.625 59.617188 30.59375 59.566406 30.433594 C 59.515625 30.269531 59.421875 30.238281 58.984375 30.238281 C 58.527344 30.238281 58.464844 30.214844 58.464844 30.046875 C 58.464844 29.871094 58.398438 29.855469 57.566406 29.855469 C 56.8125 29.855469 56.625 29.824219 56.421875 29.664062 C 56.050781 29.375 52.210938 29.375 51.839844 29.664062 M 37.921875 58.175781 C 37.808594 58.246094 37.847656 58.269531 38.082031 58.269531 C 38.25 58.269531 38.414062 58.230469 38.449219 58.175781 C 38.523438 58.054688 38.109375 58.054688 37.921875 58.175781 M 37.109375 58.410156 C 36.847656 58.527344 36.839844 58.539062 37.03125 58.601562 C 37.230469 58.664062 37.632812 58.492188 37.632812 58.34375 C 37.632812 58.242188 37.4375 58.265625 37.109375 58.410156 M 36.910156 59.234375 C 36.878906 59.285156 36.878906 59.414062 36.910156 59.519531 C 36.945312 59.625 36.992188 59.816406 37.015625 59.945312 C 37.078125 60.304688 37.234375 60.648438 37.253906 60.480469 C 37.261719 60.402344 37.257812 60.292969 37.246094 60.238281 C 37.230469 60.1875 37.226562 60.027344 37.234375 59.886719 C 37.242188 59.746094 37.191406 59.574219 37.121094 59.503906 C 37.050781 59.433594 37.011719 59.320312 37.03125 59.253906 C 37.078125 59.113281 36.996094 59.097656 36.910156 59.234375 M 58.214844 61.003906 C 58.183594 61.078125 58.179688 61.21875 58.203125 61.316406 C 58.242188 61.453125 58.253906 61.441406 58.261719 61.273438 C 58.265625 61.152344 58.316406 61.054688 58.367188 61.054688 C 58.421875 61.054688 58.464844 61.011719 58.464844 60.960938 C 58.464844 60.8125 58.273438 60.847656 58.214844 61.003906 M 37.71875 63.816406 C 37.710938 63.960938 37.691406 64.207031 37.671875 64.359375 C 37.65625 64.511719 37.675781 64.597656 37.722656 64.550781 C 37.832031 64.429688 37.914062 63.550781 37.8125 63.550781 C 37.765625 63.550781 37.722656 63.671875 37.71875 63.816406 M 44.011719 64.421875 C 43.902344 64.597656 44.046875 64.636719 44.210938 64.476562 C 44.34375 64.339844 44.347656 64.320312 44.21875 64.320312 C 44.140625 64.320312 44.046875 64.367188 44.011719 64.421875 M 50.375 64.386719 C 50.496094 64.410156 50.59375 64.46875 50.59375 64.519531 C 50.59375 64.566406 50.65625 64.609375 50.734375 64.609375 C 50.816406 64.609375 50.878906 64.570312 50.878906 64.523438 C 50.878906 64.410156 50.628906 64.316406 50.367188 64.332031 C 50.164062 64.347656 50.164062 64.347656 50.375 64.386719 M 38.664062 65.058594 C 38.570312 65.082031 38.496094 65.140625 38.496094 65.191406 C 38.496094 65.308594 38.523438 65.304688 38.84375 65.136719 C 39.105469 65 39.023438 64.964844 38.664062 65.058594 "/>
<path style=" stroke:none;fill-rule:evenodd;fill:rgb(3.921569%,43.921569%,22.352941%);fill-opacity:1;" d="M 51.097656 29.617188 C 50.917969 29.820312 50.945312 29.855469 51.289062 29.855469 C 51.460938 29.851562 51.707031 29.765625 51.839844 29.664062 L 52.078125 29.476562 L 51.648438 29.476562 C 51.398438 29.480469 51.164062 29.535156 51.097656 29.617188 M 56.433594 29.667969 C 56.675781 29.867188 57.503906 29.941406 57.503906 29.761719 C 57.503906 29.707031 57.417969 29.664062 57.3125 29.664062 C 57.207031 29.664062 57.121094 29.621094 57.121094 29.566406 C 57.121094 29.515625 56.914062 29.472656 56.664062 29.476562 L 56.207031 29.476562 L 56.433594 29.667969 M 49.753906 30 C 49.566406 30.210938 49.605469 30.253906 49.941406 30.222656 C 50.148438 30.203125 50.265625 30.132812 50.285156 30.023438 C 50.324219 29.8125 49.929688 29.796875 49.753906 30 M 58.464844 30.144531 C 58.464844 30.195312 58.59375 30.238281 58.753906 30.238281 C 58.910156 30.238281 59.039062 30.195312 59.039062 30.144531 C 59.039062 30.089844 58.910156 30.046875 58.753906 30.046875 C 58.59375 30.046875 58.464844 30.089844 58.464844 30.144531 M 59.558594 30.390625 C 59.589844 30.476562 59.617188 30.5625 59.617188 30.582031 C 59.617188 30.605469 59.746094 30.625 59.902344 30.625 C 60.128906 30.625 60.191406 30.582031 60.191406 30.433594 C 60.191406 30.277344 60.128906 30.238281 59.84375 30.238281 C 59.570312 30.238281 59.511719 30.269531 59.558594 30.390625 M 48.023438 30.765625 C 47.859375 30.953125 47.871094 31.007812 48.085938 31.007812 C 48.234375 31.007812 48.382812 30.835938 48.382812 30.664062 C 48.382812 30.570312 48.132812 30.640625 48.023438 30.765625 M 60.710938 30.777344 C 60.742188 30.859375 60.769531 30.945312 60.769531 30.96875 C 60.769531 30.988281 60.898438 31.007812 61.054688 31.007812 C 61.378906 31.007812 61.40625 30.960938 61.207031 30.761719 C 61.011719 30.566406 60.632812 30.578125 60.710938 30.777344 M 47.328125 31.207031 C 47.328125 31.453125 47.644531 31.425781 47.695312 31.175781 C 47.714844 31.058594 47.664062 31.007812 47.527344 31.007812 C 47.390625 31.007812 47.328125 31.070312 47.328125 31.207031 M 61.605469 31.199219 C 61.640625 31.34375 61.734375 31.390625 61.980469 31.390625 C 62.335938 31.390625 62.371094 31.347656 62.167969 31.144531 C 61.945312 30.925781 61.542969 30.964844 61.605469 31.199219 M 46.753906 31.585938 C 46.753906 31.710938 46.816406 31.777344 46.945312 31.777344 C 47.070312 31.777344 47.136719 31.710938 47.136719 31.585938 C 47.136719 31.457031 47.070312 31.390625 46.945312 31.390625 C 46.816406 31.390625 46.753906 31.457031 46.753906 31.585938 M 62.417969 31.558594 C 62.464844 31.816406 62.878906 31.84375 62.878906 31.589844 C 62.878906 31.441406 62.820312 31.390625 62.632812 31.390625 C 62.449219 31.390625 62.394531 31.433594 62.417969 31.558594 M 46.175781 31.976562 C 46.175781 32.113281 46.226562 32.164062 46.34375 32.140625 C 46.59375 32.09375 46.621094 31.777344 46.375 31.777344 C 46.238281 31.777344 46.175781 31.835938 46.175781 31.976562 M 63.300781 31.929688 C 63.332031 32.011719 63.359375 32.097656 63.359375 32.121094 C 63.359375 32.140625 63.46875 32.160156 63.601562 32.160156 C 63.875 32.160156 63.898438 32.105469 63.703125 31.914062 C 63.511719 31.722656 63.226562 31.734375 63.300781 31.929688 M 45.792969 32.351562 C 45.792969 32.457031 45.835938 32.542969 45.886719 32.542969 C 45.941406 32.542969 45.984375 32.457031 45.984375 32.351562 C 45.984375 32.246094 45.941406 32.160156 45.886719 32.160156 C 45.835938 32.160156 45.792969 32.246094 45.792969 32.351562 M 64.03125 32.351562 C 64.03125 32.5 64.097656 32.542969 64.320312 32.542969 C 64.542969 32.542969 64.609375 32.585938 64.609375 32.734375 C 64.609375 32.894531 64.671875 32.929688 64.992188 32.929688 C 65.3125 32.929688 65.375 32.960938 65.375 33.117188 C 65.375 33.242188 65.460938 33.328125 65.617188 33.367188 C 65.917969 33.445312 65.925781 33.667969 65.628906 33.804688 C 65.460938 33.878906 65.375 34.035156 65.289062 34.421875 C 65.207031 34.78125 65.117188 34.953125 64.984375 34.992188 C 64.789062 35.058594 64.722656 35.460938 64.894531 35.566406 C 64.949219 35.601562 64.992188 35.839844 64.992188 36.101562 C 64.992188 36.363281 65.035156 36.574219 65.089844 36.574219 C 65.140625 36.574219 65.183594 36.675781 65.183594 36.796875 C 65.183594 36.917969 65.269531 37.113281 65.375 37.226562 C 65.480469 37.339844 65.566406 37.5 65.566406 37.578125 C 65.566406 37.664062 65.652344 37.726562 65.761719 37.726562 C 65.886719 37.726562 65.953125 37.792969 65.953125 37.921875 C 65.953125 38.046875 66.015625 38.113281 66.144531 38.113281 C 66.25 38.113281 66.335938 38.15625 66.335938 38.207031 C 66.335938 38.261719 66.421875 38.304688 66.527344 38.304688 C 66.632812 38.304688 66.71875 38.347656 66.71875 38.398438 C 66.71875 38.453125 66.847656 38.496094 67.007812 38.496094 C 67.167969 38.496094 67.296875 38.539062 67.296875 38.59375 C 67.296875 38.648438 67.679688 38.6875 68.257812 38.6875 C 68.832031 38.6875 69.214844 38.648438 69.214844 38.59375 C 69.214844 38.539062 69.300781 38.496094 69.40625 38.496094 C 69.511719 38.496094 69.601562 38.453125 69.601562 38.398438 C 69.601562 38.347656 69.667969 38.304688 69.753906 38.304688 C 69.835938 38.304688 70.027344 38.175781 70.175781 38.015625 C 70.324219 37.859375 70.515625 37.726562 70.597656 37.726562 C 70.6875 37.726562 70.753906 37.648438 70.753906 37.535156 C 70.753906 37.429688 70.796875 37.34375 70.847656 37.34375 C 70.902344 37.34375 70.945312 37.257812 70.945312 37.152344 C 70.945312 37.046875 70.988281 36.960938 71.039062 36.960938 C 71.09375 36.960938 71.136719 36.875 71.136719 36.769531 C 71.136719 36.664062 71.179688 36.574219 71.230469 36.574219 C 71.285156 36.574219 71.328125 36.359375 71.328125 36.097656 C 71.328125 35.832031 71.371094 35.617188 71.425781 35.617188 C 71.476562 35.617188 71.519531 35.488281 71.519531 35.328125 C 71.519531 35.167969 71.476562 35.039062 71.425781 35.039062 C 71.371094 35.039062 71.328125 34.867188 71.328125 34.65625 C 71.328125 34.445312 71.285156 34.273438 71.230469 34.273438 C 71.179688 34.273438 71.136719 34.140625 71.136719 33.984375 C 71.136719 33.761719 71.09375 33.695312 70.945312 33.695312 C 70.835938 33.695312 70.753906 33.632812 70.753906 33.550781 C 70.753906 33.359375 69.9375 32.542969 69.746094 32.542969 C 69.664062 32.542969 69.601562 32.5 69.601562 32.449219 C 69.601562 32.394531 69.425781 32.351562 69.214844 32.351562 C 69.003906 32.351562 68.832031 32.308594 68.832031 32.257812 C 68.832031 32.199219 68.542969 32.160156 68.160156 32.160156 C 67.777344 32.160156 67.488281 32.199219 67.488281 32.257812 C 67.488281 32.308594 67.359375 32.351562 67.199219 32.351562 C 67.042969 32.351562 66.910156 32.394531 66.910156 32.449219 C 66.910156 32.5 66.824219 32.542969 66.71875 32.542969 C 66.613281 32.542969 66.527344 32.585938 66.527344 32.640625 C 66.527344 32.691406 66.457031 32.734375 66.371094 32.734375 C 66.285156 32.734375 66.128906 32.832031 66.023438 32.953125 C 65.890625 33.097656 65.816406 33.128906 65.789062 33.046875 C 65.761719 32.980469 65.671875 32.929688 65.582031 32.929688 C 65.492188 32.929688 65.355469 32.839844 65.28125 32.734375 C 65.203125 32.628906 65.03125 32.542969 64.894531 32.542969 C 64.761719 32.542969 64.589844 32.457031 64.511719 32.351562 C 64.4375 32.246094 64.296875 32.160156 64.203125 32.160156 C 64.097656 32.160156 64.03125 32.230469 64.03125 32.351562 M 45.046875 32.980469 C 44.65625 33.386719 44.523438 33.695312 44.746094 33.695312 C 44.800781 33.695312 44.871094 33.609375 44.898438 33.503906 C 44.929688 33.398438 45.007812 33.3125 45.078125 33.3125 C 45.144531 33.3125 45.230469 33.226562 45.265625 33.121094 C 45.296875 33.015625 45.382812 32.929688 45.453125 32.929688 C 45.558594 32.929688 45.695312 32.734375 45.695312 32.585938 C 45.695312 32.4375 45.394531 32.621094 45.046875 32.980469 M 69.40625 33.261719 C 71.191406 34.390625 71.082031 36.476562 69.179688 37.671875 C 67.652344 38.628906 65.519531 37.0625 65.691406 35.109375 C 65.84375 33.421875 67.976562 32.359375 69.40625 33.261719 M 44.257812 33.847656 C 44.257812 33.933594 44.125 34.125 43.96875 34.273438 C 43.6875 34.535156 43.582031 34.847656 43.777344 34.847656 C 43.828125 34.847656 43.871094 34.78125 43.871094 34.699219 C 43.871094 34.621094 43.9375 34.527344 44.015625 34.5 C 44.09375 34.46875 44.136719 34.40625 44.109375 34.359375 C 44.078125 34.316406 44.144531 34.222656 44.253906 34.15625 C 44.453125 34.03125 44.523438 33.695312 44.351562 33.695312 C 44.300781 33.695312 44.257812 33.765625 44.257812 33.847656 M 43.296875 35.097656 C 43.296875 35.398438 43.519531 35.363281 43.566406 35.054688 C 43.585938 34.917969 43.546875 34.847656 43.445312 34.847656 C 43.347656 34.847656 43.296875 34.933594 43.296875 35.097656 M 61.535156 35.136719 C 61.535156 35.1875 61.664062 35.230469 61.824219 35.230469 C 61.980469 35.230469 62.113281 35.1875 62.113281 35.136719 C 62.113281 35.082031 61.980469 35.039062 61.824219 35.039062 C 61.664062 35.039062 61.535156 35.082031 61.535156 35.136719 M 43.03125 35.566406 C 42.964844 35.644531 42.910156 35.753906 42.910156 35.816406 C 42.910156 35.878906 42.78125 36.054688 42.625 36.207031 C 42.464844 36.359375 42.335938 36.542969 42.335938 36.621094 C 42.335938 36.695312 42.292969 36.785156 42.238281 36.816406 C 42.1875 36.847656 42.144531 37.023438 42.144531 37.207031 C 42.144531 37.386719 42.101562 37.535156 42.046875 37.535156 C 41.996094 37.535156 41.953125 37.621094 41.953125 37.726562 C 41.953125 37.832031 41.910156 37.921875 41.855469 37.921875 C 41.804688 37.921875 41.761719 38.007812 41.761719 38.113281 C 41.761719 38.21875 41.71875 38.304688 41.664062 38.304688 C 41.609375 38.304688 41.566406 38.390625 41.566406 38.496094 C 41.566406 38.601562 41.523438 38.6875 41.472656 38.6875 C 41.417969 38.6875 41.375 38.800781 41.375 38.9375 C 41.375 39.164062 41.601562 39.238281 41.625 39.015625 C 41.636719 38.898438 41.753906 38.582031 41.863281 38.378906 C 41.910156 38.285156 41.953125 38.144531 41.953125 38.066406 C 41.953125 37.984375 41.996094 37.921875 42.046875 37.921875 C 42.101562 37.921875 42.144531 37.832031 42.144531 37.726562 C 42.144531 37.621094 42.1875 37.535156 42.238281 37.535156 C 42.292969 37.535156 42.335938 37.40625 42.335938 37.25 C 42.335938 37.054688 42.402344 36.933594 42.550781 36.851562 C 42.828125 36.707031 42.910156 36.582031 42.910156 36.308594 C 42.910156 36.1875 43 35.996094 43.105469 35.882812 C 43.292969 35.675781 43.363281 35.421875 43.222656 35.425781 C 43.183594 35.429688 43.097656 35.492188 43.03125 35.566406 M 60.382812 35.617188 C 60.382812 35.839844 60.621094 35.871094 60.824219 35.671875 C 61.023438 35.472656 60.992188 35.425781 60.671875 35.425781 C 60.449219 35.425781 60.382812 35.464844 60.382812 35.617188 M 59.777344 35.871094 C 59.675781 35.972656 59.703125 36.191406 59.816406 36.191406 C 59.921875 36.191406 60.191406 35.957031 60.191406 35.863281 C 60.191406 35.785156 59.855469 35.792969 59.777344 35.871094 M 59.195312 36.34375 C 59.113281 36.550781 59.121094 36.574219 59.238281 36.574219 C 59.347656 36.574219 59.617188 36.339844 59.617188 36.246094 C 59.617188 36.121094 59.246094 36.203125 59.195312 36.34375 M 58.847656 36.769531 C 58.847656 36.875 58.890625 36.960938 58.945312 36.960938 C 58.996094 36.960938 59.039062 36.875 59.039062 36.769531 C 59.039062 36.664062 58.996094 36.574219 58.945312 36.574219 C 58.890625 36.574219 58.847656 36.664062 58.847656 36.769531 M 57.960938 37.582031 C 57.753906 37.863281 57.742188 38.113281 57.9375 38.113281 C 58.015625 38.113281 58.078125 38.027344 58.078125 37.921875 C 58.078125 37.8125 58.125 37.726562 58.175781 37.726562 C 58.230469 37.726562 58.273438 37.640625 58.273438 37.535156 C 58.273438 37.28125 58.164062 37.296875 57.960938 37.582031 M 57.503906 38.261719 C 57.503906 38.503906 57.191406 38.753906 56.808594 38.8125 C 56.609375 38.84375 56.378906 38.9375 56.296875 39.019531 C 56.214844 39.101562 56.089844 39.167969 56.023438 39.167969 C 55.957031 39.167969 55.800781 39.253906 55.679688 39.359375 C 55.558594 39.464844 55.386719 39.550781 55.296875 39.550781 C 55.207031 39.550781 55.035156 39.636719 54.910156 39.742188 C 54.789062 39.847656 54.632812 39.9375 54.566406 39.9375 C 54.496094 39.9375 54.390625 40.023438 54.335938 40.128906 C 54.28125 40.234375 54.175781 40.320312 54.109375 40.320312 C 54.039062 40.320312 53.902344 40.40625 53.808594 40.511719 C 53.710938 40.617188 53.578125 40.703125 53.507812 40.703125 C 53.4375 40.703125 53.335938 40.789062 53.28125 40.894531 C 53.222656 41 53.117188 41.089844 53.039062 41.089844 C 52.964844 41.089844 52.855469 41.175781 52.800781 41.28125 C 52.742188 41.386719 52.652344 41.472656 52.59375 41.472656 C 52.402344 41.472656 50.304688 43.804688 50.304688 44.019531 C 50.304688 44.050781 50.261719 44.125 50.207031 44.1875 C 49.800781 44.675781 49.152344 45.675781 49.152344 45.816406 C 49.152344 45.914062 49.089844 46.015625 49.011719 46.042969 C 48.9375 46.074219 48.820312 46.253906 48.757812 46.449219 C 48.519531 47.175781 48.054688 47.507812 47.933594 47.039062 C 47.902344 46.933594 47.851562 46.847656 47.816406 46.847656 C 47.777344 46.847656 47.6875 46.691406 47.613281 46.503906 C 47.539062 46.316406 47.402344 46.117188 47.308594 46.070312 C 47.214844 46.019531 47.136719 45.929688 47.136719 45.871094 C 47.136719 45.808594 46.898438 45.445312 46.609375 45.058594 C 46.316406 44.675781 46.078125 44.3125 46.078125 44.257812 C 46.078125 44.203125 46.019531 44.160156 45.945312 44.160156 C 45.875 44.160156 45.742188 44.050781 45.652344 43.914062 C 45.472656 43.640625 44.472656 42.625 44.382812 42.625 C 44.351562 42.625 44.226562 42.527344 44.105469 42.40625 C 43.636719 41.949219 43.515625 41.855469 43.410156 41.855469 C 43.351562 41.855469 43.257812 41.769531 43.199219 41.664062 C 43.144531 41.558594 43.03125 41.472656 42.953125 41.472656 C 42.875 41.472656 42.785156 41.410156 42.757812 41.335938 C 42.730469 41.261719 42.601562 41.175781 42.476562 41.144531 C 42.347656 41.113281 42.167969 41.007812 42.074219 40.910156 C 41.980469 40.8125 41.789062 40.703125 41.652344 40.671875 C 41.367188 40.601562 41.050781 40.027344 41.261719 39.957031 C 41.398438 39.914062 41.417969 39.457031 41.28125 39.457031 C 41.226562 39.457031 41.183594 39.542969 41.183594 39.648438 C 41.183594 39.753906 41.140625 39.839844 41.089844 39.839844 C 41.035156 39.839844 40.992188 39.925781 40.992188 40.03125 C 40.992188 40.160156 40.929688 40.222656 40.800781 40.222656 C 40.695312 40.222656 40.609375 40.179688 40.609375 40.128906 C 40.609375 40.074219 40.523438 40.03125 40.414062 40.03125 C 40.308594 40.03125 40.222656 39.988281 40.222656 39.9375 C 40.222656 39.882812 40.050781 39.839844 39.839844 39.839844 C 39.628906 39.839844 39.457031 39.796875 39.457031 39.742188 C 39.457031 39.691406 39.28125 39.648438 39.070312 39.648438 C 38.859375 39.648438 38.6875 39.605469 38.6875 39.550781 C 38.6875 39.492188 37.921875 39.457031 36.574219 39.457031 C 35.230469 39.457031 34.464844 39.492188 34.464844 39.550781 C 34.464844 39.605469 34.292969 39.648438 34.078125 39.648438 C 33.867188 39.648438 33.695312 39.691406 33.695312 39.742188 C 33.695312 39.796875 33.523438 39.839844 33.3125 39.839844 C 33.101562 39.839844 32.929688 39.882812 32.929688 39.9375 C 32.929688 39.988281 32.839844 40.03125 32.734375 40.03125 C 32.628906 40.03125 32.542969 40.074219 32.542969 40.128906 C 32.542969 40.179688 32.414062 40.222656 32.257812 40.222656 C 32.097656 40.222656 31.96875 40.265625 31.96875 40.320312 C 31.96875 40.371094 31.882812 40.414062 31.777344 40.414062 C 31.671875 40.414062 31.585938 40.460938 31.585938 40.511719 C 31.585938 40.566406 31.496094 40.609375 31.390625 40.609375 C 31.285156 40.609375 31.199219 40.652344 31.199219 40.703125 C 31.199219 40.757812 31.125 40.800781 31.027344 40.800781 C 30.933594 40.800781 30.796875 40.886719 30.71875 40.992188 C 30.644531 41.097656 30.503906 41.183594 30.410156 41.183594 C 30.316406 41.183594 30.238281 41.226562 30.238281 41.28125 C 30.238281 41.332031 30.171875 41.375 30.085938 41.375 C 30.003906 41.375 29.8125 41.503906 29.664062 41.664062 C 29.515625 41.824219 29.34375 41.953125 29.28125 41.953125 C 29.21875 41.953125 29.042969 42.082031 28.894531 42.238281 C 28.746094 42.398438 28.558594 42.527344 28.472656 42.527344 C 28.382812 42.527344 28.320312 42.609375 28.320312 42.71875 C 28.320312 42.824219 28.257812 42.910156 28.179688 42.910156 C 28 42.910156 27.550781 43.359375 27.550781 43.539062 C 27.550781 43.617188 27.464844 43.679688 27.359375 43.679688 C 27.253906 43.679688 27.167969 43.742188 27.167969 43.820312 C 27.167969 43.898438 26.953125 44.191406 26.6875 44.464844 C 26.425781 44.742188 26.207031 45.007812 26.207031 45.054688 C 26.207031 45.101562 26.078125 45.261719 25.921875 45.40625 C 25.761719 45.554688 25.632812 45.746094 25.632812 45.832031 C 25.632812 45.914062 25.589844 45.984375 25.535156 45.984375 C 25.484375 45.984375 25.441406 46.0625 25.441406 46.15625 C 25.441406 46.25 25.355469 46.386719 25.246094 46.464844 C 25.140625 46.539062 25.054688 46.667969 25.054688 46.753906 C 25.054688 46.835938 24.96875 46.964844 24.863281 47.039062 C 24.757812 47.117188 24.671875 47.253906 24.671875 47.347656 C 24.671875 47.441406 24.628906 47.519531 24.574219 47.519531 C 24.523438 47.519531 24.480469 47.605469 24.480469 47.710938 C 24.480469 47.816406 24.4375 47.902344 24.382812 47.902344 C 24.332031 47.902344 24.289062 47.992188 24.289062 48.097656 C 24.289062 48.203125 24.246094 48.289062 24.191406 48.289062 C 24.140625 48.289062 24.097656 48.375 24.097656 48.480469 C 24.097656 48.585938 24.054688 48.671875 24 48.671875 C 23.945312 48.671875 23.902344 48.757812 23.902344 48.863281 C 23.902344 48.96875 23.859375 49.054688 23.808594 49.054688 C 23.753906 49.054688 23.710938 49.140625 23.710938 49.242188 C 23.710938 49.34375 23.667969 49.457031 23.617188 49.488281 C 23.5625 49.519531 23.519531 49.652344 23.519531 49.78125 C 23.519531 49.910156 23.476562 50.015625 23.425781 50.015625 C 23.371094 50.015625 23.328125 50.101562 23.328125 50.203125 C 23.328125 50.304688 23.285156 50.414062 23.230469 50.449219 C 23.179688 50.480469 23.136719 50.613281 23.136719 50.742188 C 23.136719 50.871094 23.09375 50.976562 23.039062 50.976562 C 22.988281 50.976562 22.945312 51.105469 22.945312 51.265625 C 22.945312 51.421875 22.902344 51.550781 22.847656 51.550781 C 22.796875 51.550781 22.753906 51.679688 22.753906 51.839844 C 22.753906 52 22.707031 52.128906 22.65625 52.128906 C 22.601562 52.128906 22.558594 52.300781 22.558594 52.511719 C 22.558594 52.722656 22.515625 52.894531 22.464844 52.894531 C 22.410156 52.894531 22.367188 53.070312 22.367188 53.28125 C 22.367188 53.492188 22.324219 53.664062 22.273438 53.664062 C 22.21875 53.664062 22.175781 53.792969 22.175781 53.953125 C 22.175781 54.109375 22.132812 54.238281 22.078125 54.238281 C 22.027344 54.238281 21.984375 54.457031 21.984375 54.71875 C 21.984375 54.984375 21.941406 55.199219 21.886719 55.199219 C 21.835938 55.199219 21.792969 55.457031 21.792969 55.777344 C 21.792969 56.097656 21.75 56.351562 21.695312 56.351562 C 21.644531 56.351562 21.601562 56.609375 21.601562 56.929688 C 21.601562 57.246094 21.558594 57.503906 21.503906 57.503906 C 21.445312 57.503906 21.40625 57.9375 21.40625 58.613281 C 21.40625 59.867188 21.351562 60 20.789062 60 C 20.601562 60 20.449219 60.042969 20.449219 60.097656 C 20.449219 60.148438 20.328125 60.191406 20.179688 60.191406 C 20.023438 60.191406 19.855469 60.269531 19.777344 60.382812 C 19.699219 60.488281 19.582031 60.574219 19.511719 60.574219 C 19.34375 60.574219 18.910156 61.007812 18.910156 61.175781 C 18.910156 61.246094 18.824219 61.363281 18.71875 61.441406 C 18.605469 61.519531 18.527344 61.6875 18.527344 61.84375 C 18.527344 61.992188 18.484375 62.113281 18.433594 62.113281 C 18.375 62.113281 18.335938 62.558594 18.335938 63.265625 C 18.335938 63.96875 18.375 64.414062 18.433594 64.414062 C 18.484375 64.414062 18.527344 64.503906 18.527344 64.609375 C 18.527344 64.714844 18.570312 64.800781 18.625 64.800781 C 18.675781 64.800781 18.71875 64.867188 18.71875 64.945312 C 18.71875 65.136719 19.535156 65.953125 19.726562 65.953125 C 19.804688 65.953125 19.871094 65.996094 19.871094 66.046875 C 19.871094 66.101562 19.957031 66.144531 20.0625 66.144531 C 20.167969 66.144531 20.257812 66.1875 20.257812 66.238281 C 20.257812 66.300781 20.734375 66.335938 21.503906 66.335938 C 22.273438 66.335938 22.753906 66.300781 22.753906 66.238281 C 22.753906 66.1875 22.839844 66.144531 22.945312 66.144531 C 23.050781 66.144531 23.136719 66.101562 23.136719 66.046875 C 23.136719 65.996094 23.203125 65.953125 23.28125 65.953125 C 23.472656 65.953125 24.289062 65.136719 24.289062 64.945312 C 24.289062 64.867188 24.332031 64.800781 24.382812 64.800781 C 24.4375 64.800781 24.480469 64.714844 24.480469 64.609375 C 24.480469 64.503906 24.523438 64.414062 24.574219 64.414062 C 24.632812 64.414062 24.671875 63.96875 24.671875 63.265625 C 24.671875 62.558594 24.632812 62.113281 24.574219 62.113281 C 24.523438 62.113281 24.480469 62.027344 24.480469 61.921875 C 24.480469 61.8125 24.4375 61.726562 24.382812 61.726562 C 24.332031 61.726562 24.289062 61.652344 24.289062 61.558594 C 24.289062 61.464844 24.203125 61.324219 24.097656 61.246094 C 23.992188 61.171875 23.902344 61.03125 23.902344 60.9375 C 23.902344 60.839844 23.832031 60.769531 23.734375 60.769531 C 23.640625 60.769531 23.5 60.679688 23.425781 60.574219 C 23.347656 60.46875 23.226562 60.382812 23.15625 60.382812 C 22.960938 60.382812 22.675781 60.074219 22.824219 60.023438 C 22.890625 60 22.945312 59.859375 22.945312 59.703125 C 22.945312 59.550781 22.988281 59.425781 23.039062 59.425781 C 23.09375 59.425781 23.136719 59.292969 23.136719 59.136719 C 23.136719 58.976562 23.179688 58.847656 23.230469 58.847656 C 23.285156 58.847656 23.328125 58.761719 23.328125 58.65625 C 23.328125 58.550781 23.371094 58.464844 23.425781 58.464844 C 23.476562 58.464844 23.519531 58.335938 23.519531 58.175781 C 23.519531 58.019531 23.5625 57.886719 23.617188 57.886719 C 23.667969 57.886719 23.710938 57.8125 23.710938 57.71875 C 23.710938 57.625 23.796875 57.484375 23.902344 57.40625 C 24.007812 57.332031 24.097656 57.191406 24.097656 57.097656 C 24.097656 57.003906 24.140625 56.929688 24.191406 56.929688 C 24.246094 56.929688 24.289062 56.839844 24.289062 56.734375 C 24.289062 56.628906 24.332031 56.542969 24.382812 56.542969 C 24.4375 56.542969 24.480469 56.457031 24.480469 56.351562 C 24.480469 56.246094 24.523438 56.160156 24.574219 56.160156 C 24.628906 56.160156 24.671875 56.089844 24.671875 56.007812 C 24.671875 55.921875 24.800781 55.730469 24.960938 55.585938 C 25.117188 55.4375 25.246094 55.265625 25.246094 55.203125 C 25.246094 55.140625 25.464844 54.882812 25.726562 54.625 C 25.992188 54.367188 26.207031 54.089844 26.207031 54.007812 C 26.207031 53.921875 26.277344 53.855469 26.363281 53.855469 C 26.445312 53.855469 26.628906 53.738281 26.769531 53.59375 C 26.910156 53.445312 27.144531 53.265625 27.289062 53.191406 C 27.433594 53.117188 27.550781 53.019531 27.550781 52.976562 C 27.550781 52.933594 27.636719 52.894531 27.742188 52.894531 C 27.847656 52.894531 27.9375 52.851562 27.9375 52.800781 C 27.9375 52.746094 28.023438 52.703125 28.128906 52.703125 C 28.234375 52.703125 28.320312 52.660156 28.320312 52.609375 C 28.320312 52.554688 28.40625 52.511719 28.511719 52.511719 C 28.617188 52.511719 28.703125 52.46875 28.703125 52.414062 C 28.703125 52.363281 28.9375 52.320312 29.226562 52.320312 C 29.511719 52.320312 29.773438 52.277344 29.808594 52.222656 C 29.839844 52.171875 30.035156 52.128906 30.238281 52.128906 C 30.445312 52.128906 30.640625 52.171875 30.671875 52.222656 C 30.703125 52.277344 31.042969 52.320312 31.425781 52.320312 C 32.007812 52.320312 32.140625 52.351562 32.257812 52.511719 C 32.332031 52.617188 32.460938 52.703125 32.542969 52.703125 C 32.625 52.703125 32.757812 52.789062 32.832031 52.894531 C 32.90625 53 33.027344 53.089844 33.101562 53.089844 C 33.171875 53.089844 33.398438 53.261719 33.601562 53.472656 C 33.804688 53.683594 34.035156 53.855469 34.121094 53.855469 C 34.203125 53.855469 34.273438 53.921875 34.273438 54 C 34.273438 54.078125 34.402344 54.265625 34.558594 54.417969 C 34.71875 54.570312 34.847656 54.746094 34.847656 54.8125 C 34.847656 54.878906 34.976562 55.050781 35.136719 55.199219 C 35.3125 55.367188 35.425781 55.566406 35.425781 55.71875 C 35.425781 55.855469 35.46875 55.96875 35.519531 55.96875 C 35.574219 55.96875 35.617188 56.054688 35.617188 56.160156 C 35.617188 56.265625 35.660156 56.351562 35.710938 56.351562 C 35.765625 56.351562 35.808594 56.4375 35.808594 56.542969 C 35.808594 56.648438 35.851562 56.734375 35.902344 56.734375 C 35.957031 56.734375 36 56.867188 36 57.023438 C 36 57.183594 36.042969 57.3125 36.097656 57.3125 C 36.148438 57.3125 36.191406 57.4375 36.191406 57.59375 C 36.191406 57.746094 36.246094 57.890625 36.3125 57.914062 C 36.394531 57.945312 36.363281 58.019531 36.214844 58.148438 C 35.992188 58.347656 35.898438 59.039062 36.097656 59.039062 C 36.148438 59.039062 36.191406 59.140625 36.191406 59.261719 C 36.191406 59.382812 36.277344 59.578125 36.382812 59.691406 C 36.488281 59.804688 36.574219 60.003906 36.574219 60.140625 C 36.574219 60.273438 36.621094 60.382812 36.671875 60.382812 C 36.726562 60.382812 36.769531 60.558594 36.769531 60.769531 C 36.769531 60.980469 36.8125 61.152344 36.863281 61.152344 C 36.917969 61.152344 36.960938 61.238281 36.960938 61.34375 C 36.960938 61.449219 37.003906 61.535156 37.054688 61.535156 C 37.117188 61.535156 37.152344 62.082031 37.152344 62.976562 C 37.152344 63.871094 37.117188 64.414062 37.054688 64.414062 C 37.003906 64.414062 36.960938 64.546875 36.960938 64.703125 C 36.960938 64.863281 36.917969 64.992188 36.863281 64.992188 C 36.8125 64.992188 36.769531 65.207031 36.769531 65.472656 C 36.769531 65.734375 36.726562 65.953125 36.671875 65.953125 C 36.621094 65.953125 36.574219 66.082031 36.574219 66.238281 C 36.574219 66.464844 36.617188 66.527344 36.769531 66.527344 C 36.875 66.527344 36.960938 66.484375 36.960938 66.433594 C 36.960938 66.378906 37.089844 66.335938 37.246094 66.335938 C 37.40625 66.335938 37.535156 66.292969 37.535156 66.238281 C 37.535156 66.1875 37.664062 66.144531 37.824219 66.144531 C 37.980469 66.144531 38.113281 66.101562 38.113281 66.046875 C 38.113281 65.996094 38.242188 65.953125 38.398438 65.953125 C 38.558594 65.953125 38.6875 65.910156 38.6875 65.855469 C 38.6875 65.804688 38.859375 65.761719 39.070312 65.761719 C 39.28125 65.761719 39.457031 65.71875 39.457031 65.664062 C 39.457031 65.609375 39.585938 65.566406 39.742188 65.566406 C 39.902344 65.566406 40.03125 65.523438 40.03125 65.472656 C 40.03125 65.417969 40.203125 65.375 40.414062 65.375 C 40.628906 65.375 40.800781 65.332031 40.800781 65.28125 C 40.800781 65.226562 40.972656 65.183594 41.183594 65.183594 C 41.460938 65.183594 41.566406 65.144531 41.566406 65.039062 C 41.566406 64.84375 40.976562 64.851562 40.253906 65.050781 C 39.945312 65.132812 39.507812 65.242188 39.28125 65.289062 C 39.050781 65.335938 38.644531 65.4375 38.375 65.519531 C 37.675781 65.726562 37.632812 65.714844 37.632812 65.320312 C 37.632812 65.132812 37.59375 64.90625 37.546875 64.816406 C 37.449219 64.632812 37.519531 64.011719 37.628906 64.078125 C 37.808594 64.191406 37.5625 61.296875 37.382812 61.144531 C 37.308594 61.082031 37.246094 60.957031 37.246094 60.863281 C 37.246094 60.773438 37.183594 60.507812 37.101562 60.28125 C 37.019531 60.050781 36.9375 59.628906 36.914062 59.339844 C 36.890625 59.054688 36.828125 58.773438 36.773438 58.71875 C 36.636719 58.582031 36.644531 58.464844 36.792969 58.464844 C 36.859375 58.464844 36.964844 58.382812 37.027344 58.28125 C 37.101562 58.160156 37.304688 58.078125 37.621094 58.035156 C 38.121094 57.964844 38.273438 57.808594 38.113281 57.523438 C 38.0625 57.433594 37.910156 57.015625 37.773438 56.59375 C 35.667969 50.101562 29.078125 48.351562 24.703125 53.125 C 24.230469 53.640625 23.785156 53.929688 24.078125 53.527344 C 24.121094 53.472656 24.214844 53.1875 24.285156 52.894531 C 24.355469 52.605469 24.445312 52.304688 24.484375 52.222656 C 24.519531 52.144531 24.609375 51.90625 24.675781 51.695312 C 25.195312 50.058594 26.601562 47.484375 27.796875 45.984375 C 28.671875 44.878906 30.667969 43.007812 30.96875 43.007812 C 31.007812 43.007812 31.109375 42.945312 31.191406 42.871094 C 31.398438 42.6875 32.789062 42.007812 33.265625 41.855469 C 33.476562 41.789062 33.691406 41.703125 33.742188 41.667969 C 34.066406 41.441406 36.761719 41.113281 36.867188 41.289062 C 36.917969 41.367188 37.160156 41.398438 37.609375 41.386719 C 38.320312 41.363281 38.3125 41.355469 38.21875 41.878906 C 38.214844 41.917969 38.035156 42.0625 37.824219 42.203125 C 37.613281 42.34375 37.441406 42.515625 37.441406 42.589844 C 37.441406 42.6875 37.363281 42.707031 37.175781 42.664062 C 36.972656 42.621094 36.945312 42.632812 37.054688 42.710938 C 37.179688 42.800781 37.179688 42.828125 37.066406 42.902344 C 36.957031 42.972656 36.96875 42.996094 37.109375 43.023438 C 37.28125 43.054688 37.277344 43.066406 37.085938 43.25 C 36.960938 43.367188 36.855469 43.625 36.8125 43.921875 C 36.765625 44.21875 36.671875 44.449219 36.5625 44.527344 C 36.417969 44.628906 36.382812 44.777344 36.382812 45.359375 C 36.382812 45.75 36.339844 46.09375 36.289062 46.128906 C 36.234375 46.160156 36.191406 46.402344 36.191406 46.660156 C 36.191406 46.921875 36.234375 47.136719 36.289062 47.136719 C 36.339844 47.136719 36.382812 47.222656 36.382812 47.328125 C 36.382812 47.433594 36.46875 47.574219 36.574219 47.636719 C 36.6875 47.707031 36.769531 47.863281 36.769531 48.003906 C 36.769531 48.171875 36.890625 48.355469 37.148438 48.582031 C 37.359375 48.761719 37.53125 48.988281 37.535156 49.078125 C 37.535156 49.171875 37.578125 49.246094 37.632812 49.246094 C 37.683594 49.246094 37.726562 49.316406 37.726562 49.398438 C 37.726562 49.59375 37.960938 49.824219 38.152344 49.824219 C 38.234375 49.824219 38.304688 49.867188 38.304688 49.921875 C 38.304688 49.972656 38.433594 50.015625 38.59375 50.015625 C 38.75 50.015625 38.878906 50.058594 38.878906 50.113281 C 38.878906 50.164062 39.007812 50.207031 39.167969 50.207031 C 39.328125 50.207031 39.457031 50.25 39.457031 50.304688 C 39.457031 50.363281 39.9375 50.398438 40.703125 50.398438 C 41.472656 50.398438 41.953125 50.363281 41.953125 50.304688 C 41.953125 50.25 42.082031 50.207031 42.238281 50.207031 C 42.398438 50.207031 42.527344 50.164062 42.527344 50.113281 C 42.527344 50.058594 42.65625 50.015625 42.816406 50.015625 C 42.972656 50.015625 43.105469 49.972656 43.105469 49.921875 C 43.105469 49.867188 43.171875 49.824219 43.253906 49.824219 C 43.507812 49.824219 43.679688 49.570312 43.742188 49.109375 C 43.777344 48.855469 43.851562 48.671875 43.921875 48.671875 C 44.058594 48.671875 44.078125 48.535156 44.085938 47.519531 C 44.085938 46.996094 44.105469 46.898438 44.148438 47.164062 C 44.304688 48.125 44.492188 46.882812 44.34375 45.84375 C 44.269531 45.324219 44.769531 45.5 45.214844 46.152344 C 45.351562 46.347656 45.628906 46.742188 45.832031 47.023438 C 46.035156 47.304688 46.277344 47.671875 46.367188 47.839844 C 46.457031 48.007812 46.6875 48.421875 46.882812 48.757812 L 47.238281 49.375 L 47.035156 50.054688 C 46.925781 50.429688 46.753906 50.996094 46.660156 51.3125 C 46.304688 52.488281 45.554688 56.300781 45.652344 56.453125 C 45.726562 56.574219 47.039062 56.570312 47.039062 56.449219 C 47.039062 56.394531 46.976562 56.351562 46.902344 56.351562 C 46.824219 56.351562 46.648438 56.246094 46.507812 56.113281 L 46.25 55.878906 L 46.5 55.761719 C 46.640625 55.699219 46.753906 55.570312 46.753906 55.476562 C 46.753906 55.382812 46.796875 55.28125 46.847656 55.246094 C 46.902344 55.214844 46.945312 55.015625 46.945312 54.804688 C 46.945312 54.59375 46.90625 54.445312 46.859375 54.472656 C 46.8125 54.503906 46.746094 54.457031 46.714844 54.375 C 46.625 54.140625 46.644531 53.855469 46.753906 53.855469 C 46.804688 53.855469 46.847656 53.921875 46.847656 54 C 46.847656 54.242188 47.015625 54.160156 47.085938 53.878906 C 47.121094 53.734375 47.152344 53.59375 47.152344 53.566406 C 47.152344 53.542969 47.1875 53.476562 47.226562 53.425781 C 47.269531 53.371094 47.378906 52.980469 47.464844 52.558594 C 47.660156 51.621094 47.859375 50.984375 48.148438 50.351562 C 48.269531 50.089844 48.398438 49.710938 48.433594 49.519531 C 48.46875 49.324219 48.558594 49.140625 48.632812 49.113281 C 48.878906 49.019531 48.796875 48.671875 48.527344 48.671875 C 48.25 48.671875 48.207031 48.40625 48.40625 47.972656 C 48.605469 47.550781 48.871094 47.882812 48.738281 48.386719 C 48.710938 48.488281 48.730469 48.601562 48.785156 48.632812 C 48.964844 48.746094 49.144531 48.335938 49.148438 47.792969 C 49.152344 47.402344 49.191406 47.238281 49.296875 47.195312 C 49.375 47.167969 49.441406 47.082031 49.441406 47.003906 C 49.441406 46.929688 49.5 46.84375 49.574219 46.816406 C 49.648438 46.789062 49.738281 46.632812 49.773438 46.472656 C 49.824219 46.246094 49.910156 46.160156 50.144531 46.097656 C 50.496094 46.007812 50.699219 45.382812 50.425781 45.226562 C 50.242188 45.125 50.300781 44.59375 50.496094 44.59375 C 50.589844 44.59375 50.640625 44.6875 50.644531 44.875 C 50.648438 45.339844 51.25 45.136719 51.261719 44.664062 C 51.261719 44.597656 51.308594 44.542969 51.359375 44.542969 C 51.414062 44.542969 51.457031 44.476562 51.457031 44.390625 C 51.457031 44.175781 51.824219 43.679688 51.984375 43.679688 C 52.054688 43.679688 52.171875 43.527344 52.238281 43.34375 C 52.324219 43.105469 52.417969 43.007812 52.558594 43.007812 C 52.667969 43.007812 52.832031 42.921875 52.921875 42.816406 C 53.011719 42.710938 53.140625 42.625 53.210938 42.625 C 53.277344 42.625 53.40625 42.539062 53.496094 42.433594 C 53.6875 42.210938 54.03125 42.179688 54.105469 42.375 C 54.132812 42.449219 54.304688 42.535156 54.488281 42.570312 C 54.726562 42.617188 54.816406 42.683594 54.816406 42.820312 C 54.816406 42.964844 54.882812 43.007812 55.109375 43.007812 C 55.480469 43.007812 55.496094 42.597656 55.128906 42.546875 C 54.949219 42.519531 54.910156 42.453125 54.910156 42.175781 C 54.910156 41.917969 54.867188 41.824219 54.71875 41.789062 C 54.472656 41.722656 54.476562 41.667969 54.773438 41.351562 C 55.117188 40.980469 55.296875 41.007812 55.296875 41.433594 C 55.296875 41.691406 55.34375 41.789062 55.480469 41.824219 C 55.578125 41.851562 55.683594 41.953125 55.707031 42.046875 C 55.738281 42.171875 55.816406 42.207031 55.992188 42.171875 C 56.125 42.144531 56.320312 42.171875 56.429688 42.230469 C 56.773438 42.414062 57.214844 42.257812 57.214844 41.949219 C 57.214844 41.804688 57.273438 41.574219 57.347656 41.433594 C 57.429688 41.273438 57.460938 40.984375 57.433594 40.621094 C 57.394531 40.113281 57.410156 40.054688 57.589844 40.007812 C 57.703125 39.976562 57.792969 39.890625 57.792969 39.8125 C 57.792969 39.445312 62.644531 39.347656 63.308594 39.699219 C 63.554688 39.828125 63.90625 39.9375 64.09375 39.9375 C 64.351562 39.9375 64.445312 39.980469 64.484375 40.128906 C 64.519531 40.257812 64.613281 40.320312 64.789062 40.320312 C 64.9375 40.320312 65.089844 40.398438 65.160156 40.507812 C 65.222656 40.609375 65.449219 40.746094 65.660156 40.808594 C 65.871094 40.871094 66.152344 41.046875 66.285156 41.199219 C 66.445312 41.378906 66.621094 41.472656 66.804688 41.472656 C 67.019531 41.472656 67.105469 41.535156 67.199219 41.753906 C 67.40625 42.261719 68.0625 42.496094 68.0625 42.0625 C 68.0625 41.949219 68.128906 41.976562 68.328125 42.175781 C 68.582031 42.433594 68.585938 42.449219 68.410156 42.578125 C 68.164062 42.761719 68.355469 43.246094 68.722656 43.371094 C 68.863281 43.421875 69.042969 43.585938 69.121094 43.738281 C 69.199219 43.890625 69.316406 44.050781 69.382812 44.09375 C 69.449219 44.136719 69.503906 44.210938 69.503906 44.261719 C 69.503906 44.363281 69.890625 44.8125 70.488281 45.40625 C 70.75 45.664062 70.847656 45.84375 70.847656 46.058594 C 70.847656 46.222656 70.890625 46.382812 70.945312 46.414062 C 70.996094 46.449219 71.039062 46.542969 71.039062 46.621094 C 71.039062 46.703125 71.121094 46.886719 71.21875 47.023438 C 71.320312 47.164062 71.429688 47.417969 71.464844 47.585938 C 71.503906 47.753906 71.59375 47.941406 71.671875 48.003906 C 71.746094 48.066406 71.808594 48.167969 71.808594 48.226562 C 71.8125 48.289062 71.898438 48.445312 72 48.574219 C 72.101562 48.707031 72.1875 48.890625 72.191406 48.984375 C 72.191406 49.078125 72.234375 49.152344 72.289062 49.152344 C 72.339844 49.152344 72.386719 49.226562 72.386719 49.320312 C 72.386719 49.414062 72.511719 49.839844 72.664062 50.269531 C 72.816406 50.703125 72.96875 51.242188 73.007812 51.472656 C 73.042969 51.699219 73.128906 51.976562 73.195312 52.082031 C 73.265625 52.1875 73.335938 52.578125 73.359375 52.949219 C 73.386719 53.484375 73.4375 53.664062 73.609375 53.832031 C 73.949219 54.175781 73.933594 55.988281 73.589844 56.214844 C 73.460938 56.296875 73.34375 56.460938 73.324219 56.574219 C 73.308594 56.6875 73.21875 56.796875 73.128906 56.8125 C 72.9375 56.851562 72.875 56.128906 73.054688 56.015625 C 73.257812 55.890625 73.160156 55.425781 72.910156 55.3125 C 72.78125 55.253906 72.671875 55.144531 72.671875 55.070312 C 72.671875 55 72.570312 54.832031 72.445312 54.695312 C 72.320312 54.5625 72.195312 54.382812 72.160156 54.296875 C 72.128906 54.214844 72.035156 54.144531 71.957031 54.144531 C 71.875 54.144531 71.808594 54.078125 71.808594 53.996094 C 71.808594 53.917969 71.742188 53.824219 71.664062 53.792969 C 71.585938 53.765625 71.519531 53.683594 71.519531 53.613281 C 71.519531 53.542969 71.304688 53.347656 71.039062 53.175781 C 70.777344 53.003906 70.558594 52.828125 70.558594 52.785156 C 70.558594 52.738281 70.460938 52.703125 70.335938 52.703125 C 70.214844 52.703125 70.019531 52.597656 69.90625 52.464844 C 69.792969 52.332031 69.632812 52.222656 69.554688 52.222656 C 69.476562 52.222656 69.367188 52.136719 69.3125 52.03125 C 69.253906 51.925781 69.128906 51.839844 69.027344 51.839844 C 68.925781 51.839844 68.789062 51.78125 68.714844 51.710938 C 68.644531 51.640625 68.421875 51.527344 68.21875 51.460938 C 68.019531 51.394531 67.738281 51.277344 67.597656 51.207031 C 67.230469 51.011719 64.6875 51.019531 64.335938 51.210938 C 64.195312 51.289062 63.835938 51.398438 63.535156 51.457031 C 63.234375 51.515625 62.9375 51.625 62.875 51.703125 C 62.8125 51.777344 62.703125 51.839844 62.632812 51.839844 C 62.5625 51.839844 62.46875 51.90625 62.421875 51.992188 C 62.375 52.074219 62.148438 52.183594 61.914062 52.234375 C 61.683594 52.289062 61.46875 52.367188 61.441406 52.410156 C 61.25 52.714844 60.613281 53.375 60.511719 53.375 C 60.445312 53.375 60.304688 53.558594 60.199219 53.785156 C 60.097656 54.007812 59.878906 54.335938 59.71875 54.511719 C 59.554688 54.683594 59.425781 54.910156 59.425781 55.007812 C 59.425781 55.109375 59.335938 55.253906 59.222656 55.328125 C 59.074219 55.433594 59.027344 55.5625 59.042969 55.839844 C 59.082031 56.738281 58.960938 57.175781 58.816406 56.632812 C 58.738281 56.320312 58.421875 56.433594 58.386719 56.785156 C 58.375 56.941406 58.3125 57.171875 58.25 57.292969 C 58.164062 57.464844 58.164062 57.558594 58.253906 57.703125 C 58.359375 57.867188 58.34375 57.890625 58.105469 57.894531 C 57.742188 57.902344 57.40625 58.042969 57.601562 58.105469 C 57.679688 58.128906 57.898438 58.199219 58.085938 58.257812 C 58.5625 58.410156 58.847656 58.398438 58.847656 58.222656 C 58.847656 58.144531 58.890625 58.078125 58.945312 58.078125 C 58.996094 58.078125 59.039062 58.011719 59.039062 57.933594 C 59.039062 57.851562 59.125 57.691406 59.230469 57.578125 C 59.335938 57.464844 59.425781 57.273438 59.425781 57.148438 C 59.425781 57.027344 59.46875 56.929688 59.519531 56.929688 C 59.574219 56.929688 59.617188 56.839844 59.617188 56.734375 C 59.617188 56.628906 59.660156 56.542969 59.710938 56.542969 C 59.765625 56.542969 59.808594 56.457031 59.808594 56.351562 C 59.808594 56.246094 59.851562 56.160156 59.902344 56.160156 C 59.957031 56.160156 60 56.074219 60 55.96875 C 60 55.863281 60.042969 55.777344 60.097656 55.777344 C 60.148438 55.777344 60.191406 55.691406 60.191406 55.585938 C 60.191406 55.476562 60.257812 55.390625 60.339844 55.390625 C 60.417969 55.390625 60.515625 55.316406 60.550781 55.222656 C 60.582031 55.132812 60.734375 54.941406 60.882812 54.800781 C 61.03125 54.660156 61.152344 54.476562 61.152344 54.394531 C 61.152344 54.304688 61.230469 54.238281 61.34375 54.238281 C 61.453125 54.238281 61.535156 54.175781 61.535156 54.089844 C 61.535156 53.910156 61.960938 53.472656 62.132812 53.472656 C 62.203125 53.472656 62.324219 53.386719 62.398438 53.28125 C 62.476562 53.175781 62.605469 53.089844 62.6875 53.089844 C 62.769531 53.089844 62.898438 53 62.976562 52.894531 C 63.050781 52.789062 63.21875 52.703125 63.34375 52.703125 C 63.488281 52.703125 63.585938 52.636719 63.621094 52.511719 C 63.660156 52.351562 63.75 52.320312 64.140625 52.320312 C 64.398438 52.320312 64.609375 52.277344 64.609375 52.222656 C 64.609375 52.171875 64.757812 52.128906 64.9375 52.128906 C 65.121094 52.128906 65.296875 52.085938 65.328125 52.03125 C 65.359375 51.980469 65.558594 51.9375 65.765625 51.9375 C 65.972656 51.9375 66.144531 51.980469 66.144531 52.03125 C 66.144531 52.085938 66.316406 52.128906 66.527344 52.128906 C 66.738281 52.128906 66.910156 52.171875 66.910156 52.222656 C 66.910156 52.277344 67.160156 52.320312 67.46875 52.320312 C 67.910156 52.320312 68.050781 52.359375 68.160156 52.511719 C 68.234375 52.617188 68.367188 52.703125 68.449219 52.703125 C 68.53125 52.703125 68.660156 52.789062 68.734375 52.894531 C 68.8125 53 68.941406 53.089844 69.023438 53.089844 C 69.105469 53.089844 69.234375 53.175781 69.3125 53.28125 C 69.386719 53.386719 69.507812 53.472656 69.578125 53.472656 C 69.730469 53.472656 70.113281 53.839844 70.203125 54.070312 C 70.238281 54.164062 70.3125 54.238281 70.367188 54.238281 C 70.421875 54.238281 70.652344 54.425781 70.878906 54.652344 C 71.105469 54.878906 71.320312 55.136719 71.355469 55.226562 C 71.390625 55.316406 71.484375 55.390625 71.566406 55.390625 C 71.644531 55.390625 71.710938 55.457031 71.710938 55.539062 C 71.710938 55.730469 72.140625 56.160156 72.332031 56.160156 C 72.441406 56.160156 72.480469 56.261719 72.480469 56.542969 C 72.480469 56.753906 72.523438 56.929688 72.574219 56.929688 C 72.628906 56.929688 72.671875 57.015625 72.671875 57.121094 C 72.671875 57.226562 72.714844 57.3125 72.769531 57.3125 C 72.820312 57.3125 72.863281 57.398438 72.863281 57.503906 C 72.863281 57.632812 72.929688 57.695312 73.054688 57.695312 C 73.199219 57.695312 73.246094 57.761719 73.246094 57.941406 C 73.246094 58.183594 72.871094 58.65625 72.675781 58.65625 C 72.515625 58.65625 71.710938 59.496094 71.710938 59.660156 C 71.710938 59.742188 71.667969 59.808594 71.617188 59.808594 C 71.5625 59.808594 71.519531 59.894531 71.519531 60 C 71.519531 60.105469 71.476562 60.191406 71.425781 60.191406 C 71.367188 60.191406 71.328125 60.640625 71.328125 61.34375 C 71.328125 62.046875 71.367188 62.496094 71.425781 62.496094 C 71.476562 62.496094 71.519531 62.605469 71.519531 62.738281 C 71.519531 63.007812 72.65625 64.222656 72.910156 64.222656 C 72.992188 64.222656 73.054688 64.265625 73.054688 64.320312 C 73.054688 64.371094 73.140625 64.414062 73.246094 64.414062 C 73.355469 64.414062 73.441406 64.460938 73.441406 64.511719 C 73.441406 64.570312 73.855469 64.609375 74.496094 64.609375 C 75.136719 64.609375 75.550781 64.570312 75.550781 64.511719 C 75.550781 64.460938 75.636719 64.414062 75.742188 64.414062 C 75.847656 64.414062 75.9375 64.371094 75.9375 64.320312 C 75.9375 64.265625 76.023438 64.222656 76.128906 64.222656 C 76.234375 64.222656 76.320312 64.179688 76.320312 64.128906 C 76.320312 64.074219 76.386719 64.03125 76.472656 64.03125 C 76.554688 64.03125 76.683594 63.96875 76.757812 63.894531 C 76.835938 63.820312 76.894531 63.691406 76.894531 63.605469 C 76.894531 63.523438 76.964844 63.457031 77.050781 63.457031 C 77.132812 63.457031 77.222656 63.371094 77.253906 63.265625 C 77.28125 63.160156 77.339844 63.070312 77.386719 63.070312 C 77.433594 63.070312 77.472656 62.984375 77.472656 62.878906 C 77.472656 62.773438 77.515625 62.6875 77.566406 62.6875 C 77.628906 62.6875 77.664062 62.207031 77.664062 61.441406 C 77.664062 60.671875 77.628906 60.191406 77.566406 60.191406 C 77.515625 60.191406 77.472656 60.082031 77.472656 59.945312 C 77.472656 59.675781 76.324219 58.464844 76.070312 58.464844 C 75.996094 58.464844 75.9375 58.421875 75.9375 58.367188 C 75.9375 58.316406 75.824219 58.273438 75.6875 58.273438 C 75.246094 58.273438 75.167969 58.085938 75.167969 57.035156 C 75.167969 56.5 75.125 56.050781 75.070312 56.015625 C 75.019531 55.984375 74.976562 55.679688 74.976562 55.34375 C 74.976562 55.007812 74.933594 54.703125 74.878906 54.671875 C 74.828125 54.640625 74.785156 54.421875 74.785156 54.191406 C 74.785156 53.960938 74.742188 53.746094 74.6875 53.710938 C 74.636719 53.679688 74.59375 53.4375 74.59375 53.179688 C 74.59375 52.917969 74.546875 52.703125 74.496094 52.703125 C 74.441406 52.703125 74.398438 52.488281 74.398438 52.222656 C 74.398438 51.960938 74.355469 51.742188 74.304688 51.742188 C 74.25 51.742188 74.207031 51.65625 74.207031 51.550781 C 74.207031 51.445312 74.164062 51.359375 74.113281 51.359375 C 74.058594 51.359375 74.015625 51.210938 74.015625 51.03125 C 74.015625 50.847656 73.972656 50.671875 73.921875 50.640625 C 73.867188 50.605469 73.824219 50.453125 73.824219 50.296875 C 73.824219 50.144531 73.78125 50.015625 73.726562 50.015625 C 73.675781 50.015625 73.632812 49.886719 73.632812 49.726562 C 73.632812 49.570312 73.589844 49.441406 73.535156 49.441406 C 73.484375 49.441406 73.441406 49.308594 73.441406 49.152344 C 73.441406 48.992188 73.398438 48.863281 73.34375 48.863281 C 73.292969 48.863281 73.246094 48.777344 73.246094 48.671875 C 73.246094 48.566406 73.203125 48.480469 73.152344 48.480469 C 73.097656 48.480469 73.054688 48.351562 73.054688 48.191406 C 73.054688 48.035156 73.011719 47.902344 72.960938 47.902344 C 72.90625 47.902344 72.863281 47.816406 72.863281 47.710938 C 72.863281 47.605469 72.820312 47.519531 72.769531 47.519531 C 72.714844 47.519531 72.671875 47.433594 72.671875 47.328125 C 72.671875 47.222656 72.628906 47.136719 72.574219 47.136719 C 72.523438 47.136719 72.480469 47.050781 72.480469 46.945312 C 72.480469 46.839844 72.4375 46.753906 72.382812 46.753906 C 72.332031 46.753906 72.289062 46.664062 72.289062 46.558594 C 72.289062 46.453125 72.246094 46.367188 72.191406 46.367188 C 72.140625 46.367188 72.097656 46.28125 72.097656 46.175781 C 72.097656 46.070312 72.054688 45.984375 72 45.984375 C 71.945312 45.984375 71.902344 45.898438 71.902344 45.792969 C 71.902344 45.6875 71.859375 45.601562 71.808594 45.601562 C 71.753906 45.601562 71.710938 45.511719 71.710938 45.40625 C 71.710938 45.300781 71.667969 45.214844 71.617188 45.214844 C 71.5625 45.214844 71.519531 45.148438 71.519531 45.0625 C 71.519531 44.976562 71.402344 44.792969 71.257812 44.652344 C 70.949219 44.351562 70.753906 44.03125 70.753906 43.824219 C 70.753906 43.742188 70.667969 43.679688 70.558594 43.679688 C 70.433594 43.679688 70.367188 43.617188 70.367188 43.488281 C 70.367188 43.359375 70.304688 43.296875 70.175781 43.296875 C 70.046875 43.296875 69.984375 43.230469 69.984375 43.105469 C 69.984375 43 69.941406 42.910156 69.886719 42.910156 C 69.835938 42.910156 69.792969 42.824219 69.792969 42.71875 C 69.792969 42.59375 69.726562 42.527344 69.601562 42.527344 C 69.496094 42.527344 69.40625 42.46875 69.40625 42.394531 C 69.40625 42.207031 68.585938 41.375 68.402344 41.375 C 68.320312 41.375 68.257812 41.292969 68.257812 41.183594 C 68.257812 41.0625 68.191406 40.992188 68.085938 40.992188 C 67.992188 40.992188 67.851562 40.90625 67.777344 40.800781 C 67.699219 40.695312 67.5625 40.609375 67.46875 40.609375 C 67.371094 40.609375 67.296875 40.542969 67.296875 40.460938 C 67.296875 40.378906 67.21875 40.285156 67.128906 40.25 C 67.035156 40.21875 66.890625 40.109375 66.804688 40.015625 C 66.71875 39.917969 66.578125 39.839844 66.492188 39.839844 C 66.40625 39.839844 66.285156 39.753906 66.21875 39.648438 C 66.148438 39.539062 65.992188 39.457031 65.855469 39.457031 C 65.71875 39.457031 65.546875 39.371094 65.472656 39.265625 C 65.394531 39.15625 65.222656 39.070312 65.089844 39.070312 C 64.953125 39.070312 64.78125 38.984375 64.703125 38.878906 C 64.597656 38.734375 64.457031 38.6875 64.105469 38.6875 C 63.855469 38.6875 63.648438 38.644531 63.648438 38.59375 C 63.648438 38.539062 63.5625 38.496094 63.457031 38.496094 C 63.351562 38.496094 63.265625 38.453125 63.265625 38.398438 C 63.265625 38.34375 62.910156 38.304688 62.398438 38.304688 C 61.886719 38.304688 61.535156 38.265625 61.535156 38.207031 C 61.535156 38.148438 61.042969 38.113281 60.246094 38.113281 C 59.488281 38.113281 58.929688 38.152344 58.894531 38.207031 C 58.863281 38.261719 58.578125 38.304688 58.265625 38.304688 C 57.949219 38.304688 57.695312 38.261719 57.695312 38.207031 C 57.695312 38.15625 57.652344 38.113281 57.601562 38.113281 C 57.546875 38.113281 57.503906 38.179688 57.503906 38.261719 M 57.214844 39.359375 C 57.214844 39.414062 57.109375 39.457031 56.976562 39.457031 C 56.84375 39.457031 56.734375 39.414062 56.734375 39.359375 C 56.734375 39.308594 56.84375 39.265625 56.976562 39.265625 C 57.109375 39.265625 57.214844 39.308594 57.214844 39.359375 M 55.726562 39.742188 C 55.761719 39.796875 55.699219 39.839844 55.589844 39.839844 C 55.480469 39.839844 55.390625 39.796875 55.390625 39.742188 C 55.390625 39.691406 55.453125 39.648438 55.53125 39.648438 C 55.605469 39.648438 55.695312 39.691406 55.726562 39.742188 M 65.855469 40.128906 C 65.855469 40.179688 65.726562 40.222656 65.566406 40.222656 C 65.410156 40.222656 65.28125 40.179688 65.28125 40.128906 C 65.28125 40.074219 65.410156 40.03125 65.566406 40.03125 C 65.726562 40.03125 65.855469 40.074219 65.855469 40.128906 M 53.664062 41.28125 C 53.664062 41.332031 53.574219 41.375 53.464844 41.375 C 53.359375 41.375 53.296875 41.332031 53.328125 41.28125 C 53.359375 41.226562 53.449219 41.183594 53.527344 41.183594 C 53.601562 41.183594 53.664062 41.226562 53.664062 41.28125 M 67.488281 41.28125 C 67.488281 41.332031 67.421875 41.375 67.34375 41.375 C 67.265625 41.375 67.199219 41.332031 67.199219 41.28125 C 67.199219 41.226562 67.265625 41.183594 67.34375 41.183594 C 67.421875 41.183594 67.488281 41.226562 67.488281 41.28125 M 38.769531 41.804688 C 38.503906 42.085938 38.441406 42.101562 38.363281 41.902344 C 38.328125 41.804688 38.382812 41.722656 38.523438 41.667969 C 38.917969 41.507812 39.007812 41.558594 38.769531 41.804688 M 52.609375 42.234375 C 52.609375 42.429688 52.550781 42.535156 52.414062 42.574219 C 52.308594 42.609375 52.222656 42.699219 52.222656 42.773438 C 52.222656 42.851562 52.136719 42.910156 52.03125 42.910156 C 51.925781 42.910156 51.839844 42.878906 51.839844 42.835938 C 51.839844 42.796875 51.925781 42.6875 52.03125 42.597656 C 52.136719 42.507812 52.222656 42.324219 52.222656 42.191406 C 52.222656 42.015625 52.273438 41.953125 52.414062 41.953125 C 52.5625 41.953125 52.609375 42.015625 52.609375 42.234375 M 39.457031 42.335938 C 39.574219 42.410156 39.5625 42.429688 39.390625 42.429688 C 39.273438 42.429688 39.152344 42.390625 39.121094 42.335938 C 39.042969 42.214844 39.265625 42.214844 39.457031 42.335938 M 41.089844 42.808594 C 41.089844 42.957031 40.90625 43.023438 40.691406 42.957031 C 40.53125 42.90625 40.515625 42.875 40.621094 42.808594 C 40.796875 42.695312 41.089844 42.695312 41.089844 42.808594 M 69.503906 43.257812 C 69.503906 43.410156 69.257812 43.441406 69.167969 43.296875 C 69.136719 43.242188 69.132812 43.160156 69.164062 43.109375 C 69.246094 42.980469 69.503906 43.09375 69.503906 43.257812 M 51.367188 43.226562 C 51.355469 43.339844 51.222656 43.320312 51.183594 43.195312 C 51.160156 43.132812 51.195312 43.097656 51.257812 43.117188 C 51.324219 43.140625 51.371094 43.1875 51.367188 43.226562 M 43.390625 44.246094 C 43.390625 44.289062 43.328125 44.382812 43.246094 44.449219 C 43.097656 44.574219 43.023438 44.367188 43.167969 44.222656 C 43.257812 44.132812 43.390625 44.144531 43.390625 44.246094 M 44.164062 44.980469 C 44.335938 45.1875 44.15625 45.332031 43.933594 45.167969 C 43.835938 45.097656 43.785156 44.992188 43.820312 44.933594 C 43.910156 44.792969 44.019531 44.804688 44.164062 44.980469 M 72.460938 55.496094 C 72.441406 55.550781 72.386719 55.597656 72.335938 55.597656 C 72.285156 55.597656 72.230469 55.550781 72.210938 55.496094 C 72.191406 55.4375 72.246094 55.390625 72.335938 55.390625 C 72.425781 55.390625 72.480469 55.4375 72.460938 55.496094 M 48.238281 56.546875 C 48.914062 56.652344 50.117188 56.648438 49.871094 56.542969 C 49.765625 56.5 49.246094 56.464844 48.71875 56.46875 C 47.902344 56.472656 47.832031 56.484375 48.238281 56.546875 M 51.847656 56.867188 C 51.871094 56.886719 52.167969 56.929688 52.511719 56.960938 C 52.914062 56.996094 53.066406 56.988281 52.945312 56.933594 C 52.761719 56.851562 51.761719 56.792969 51.847656 56.867188 M 54.433594 57.3125 C 54.5625 57.355469 54.800781 57.390625 54.960938 57.390625 C 55.238281 57.390625 55.242188 57.386719 55.007812 57.3125 C 54.875 57.269531 54.636719 57.234375 54.480469 57.234375 C 54.199219 57.234375 54.199219 57.238281 54.433594 57.3125 M 56.207031 57.695312 C 56.472656 57.808594 56.566406 57.808594 56.496094 57.695312 C 56.464844 57.644531 56.34375 57.601562 56.226562 57.605469 C 56.023438 57.613281 56.023438 57.617188 56.207031 57.695312 M 58.945312 58.363281 C 58.945312 58.414062 59.019531 58.496094 59.113281 58.546875 C 59.269531 58.636719 59.261719 58.679688 59.027344 59.152344 C 58.464844 60.277344 58.324219 60.769531 58.558594 60.769531 C 58.613281 60.769531 58.65625 60.679688 58.65625 60.574219 C 58.65625 60.46875 58.699219 60.382812 58.753906 60.382812 C 58.804688 60.382812 58.847656 60.296875 58.847656 60.191406 C 58.847656 60.085938 58.890625 60 58.945312 60 C 58.996094 60 59.039062 59.914062 59.039062 59.808594 C 59.039062 59.703125 59.082031 59.617188 59.136719 59.617188 C 59.1875 59.617188 59.230469 59.488281 59.230469 59.328125 C 59.230469 59.167969 59.273438 59.039062 59.328125 59.039062 C 59.378906 59.039062 59.425781 58.867188 59.425781 58.65625 C 59.425781 58.308594 59.398438 58.273438 59.183594 58.273438 C 59.050781 58.273438 58.945312 58.3125 58.945312 58.363281 M 75.328125 59 C 76.339844 59.347656 76.992188 60.238281 76.992188 61.28125 C 76.992188 64.253906 72.792969 64.773438 72.089844 61.890625 C 71.640625 60.035156 73.496094 58.378906 75.328125 59 M 22.175781 60.804688 C 23.101562 61.089844 23.542969 61.507812 23.859375 62.40625 C 24.710938 64.828125 21.445312 66.789062 19.691406 64.90625 C 17.957031 63.050781 19.765625 60.066406 22.175781 60.804688 M 58.273438 61.207031 C 58.273438 61.289062 58.203125 61.425781 58.121094 61.507812 C 57.953125 61.675781 57.972656 62.027344 58.152344 62.089844 C 58.230469 62.113281 58.273438 62.027344 58.273438 61.832031 C 58.273438 61.667969 58.316406 61.535156 58.367188 61.535156 C 58.421875 61.535156 58.464844 61.429688 58.464844 61.296875 C 58.464844 61.164062 58.421875 61.054688 58.367188 61.054688 C 58.316406 61.054688 58.273438 61.125 58.273438 61.207031 M 57.855469 62.34375 C 57.789062 62.515625 57.882812 62.878906 57.996094 62.878906 C 58.042969 62.878906 58.078125 62.730469 58.078125 62.542969 C 58.078125 62.207031 57.953125 62.09375 57.855469 62.34375 M 57.695312 63.792969 C 57.695312 64.03125 57.738281 64.222656 57.792969 64.222656 C 57.84375 64.222656 57.886719 64.03125 57.886719 63.792969 C 57.886719 63.554688 57.84375 63.359375 57.792969 63.359375 C 57.738281 63.359375 57.695312 63.554688 57.695312 63.792969 M 47.566406 64.320312 C 47.535156 64.375 47.617188 64.414062 47.761719 64.414062 C 47.902344 64.414062 47.984375 64.375 47.953125 64.320312 C 47.917969 64.265625 47.832031 64.222656 47.761719 64.222656 C 47.6875 64.222656 47.601562 64.265625 47.566406 64.320312 M 44.28125 64.382812 C 43.9375 64.523438 44.265625 64.609375 45.175781 64.609375 C 45.945312 64.609375 46.183594 64.578125 46.152344 64.488281 C 46.113281 64.367188 44.53125 64.277344 44.28125 64.382812 M 49.078125 64.386719 C 48.960938 64.410156 48.886719 64.46875 48.917969 64.519531 C 48.984375 64.632812 50.59375 64.636719 50.59375 64.523438 C 50.59375 64.355469 49.671875 64.273438 49.078125 64.386719 M 42.246094 64.644531 C 41.527344 64.796875 41.488281 64.992188 42.183594 64.992188 C 42.480469 64.992188 42.71875 64.949219 42.71875 64.894531 C 42.71875 64.84375 42.910156 64.800781 43.144531 64.800781 C 43.613281 64.800781 43.804688 64.664062 43.464844 64.570312 C 43.171875 64.496094 42.867188 64.511719 42.246094 64.644531 M 51.550781 64.703125 C 51.550781 64.757812 51.703125 64.800781 51.886719 64.800781 C 52.074219 64.800781 52.222656 64.757812 52.222656 64.703125 C 52.222656 64.652344 52.074219 64.609375 51.886719 64.609375 C 51.703125 64.609375 51.550781 64.652344 51.550781 64.703125 M 52.679688 64.769531 C 52.371094 64.851562 52.507812 64.992188 52.902344 64.992188 C 53.175781 64.992188 53.285156 64.953125 53.257812 64.871094 C 53.214844 64.742188 52.949219 64.695312 52.679688 64.769531 M 53.6875 64.960938 C 53.367188 65.027344 53.527344 65.183594 53.910156 65.183594 C 54.089844 65.183594 54.238281 65.226562 54.238281 65.28125 C 54.238281 65.332031 54.417969 65.375 54.632812 65.375 C 55.113281 65.375 55.101562 65.167969 54.617188 65.074219 C 54.4375 65.039062 54.203125 64.988281 54.097656 64.964844 C 53.992188 64.9375 53.804688 64.9375 53.6875 64.960938 M 37.441406 65.25 C 37.441406 65.429688 37.410156 65.480469 37.339844 65.410156 C 37.285156 65.355469 37.269531 65.238281 37.304688 65.152344 C 37.390625 64.921875 37.441406 64.953125 37.441406 65.25 M 55.269531 65.335938 C 55.125 65.480469 55.207031 65.566406 55.488281 65.566406 C 55.644531 65.566406 55.777344 65.609375 55.777344 65.664062 C 55.777344 65.71875 55.90625 65.761719 56.0625 65.761719 C 56.222656 65.761719 56.351562 65.714844 56.351562 65.660156 C 56.351562 65.484375 55.40625 65.203125 55.269531 65.335938 M 56.710938 65.734375 C 56.480469 65.789062 56.5 65.953125 56.734375 65.953125 C 56.839844 65.953125 56.929688 65.996094 56.929688 66.046875 C 56.929688 66.101562 57.101562 66.144531 57.3125 66.144531 C 57.636719 66.144531 57.695312 66.113281 57.695312 65.945312 C 57.695312 65.773438 57.65625 65.753906 57.402344 65.808594 C 57.242188 65.84375 57.058594 65.832031 56.996094 65.785156 C 56.933594 65.738281 56.804688 65.714844 56.710938 65.734375 "/>
<path style=" stroke:none;fill-rule:evenodd;fill:rgb(1.960784%,28.627451%,70.980392%);fill-opacity:1;" d="M 56.734375 39.359375 C 56.734375 39.414062 56.84375 39.457031 56.976562 39.457031 C 57.109375 39.457031 57.214844 39.414062 57.214844 39.359375 C 57.214844 39.308594 57.109375 39.265625 56.976562 39.265625 C 56.84375 39.265625 56.734375 39.308594 56.734375 39.359375 M 59.710938 39.523438 C 58.15625 39.601562 57.8125 39.65625 57.761719 39.847656 C 57.734375 39.949219 57.640625 40.03125 57.550781 40.03125 C 57.410156 40.03125 57.394531 40.113281 57.433594 40.609375 C 57.460938 40.984375 57.433594 41.269531 57.347656 41.433594 C 57.273438 41.574219 57.214844 41.804688 57.214844 41.949219 C 57.214844 42.257812 56.773438 42.414062 56.429688 42.230469 C 56.320312 42.171875 56.125 42.144531 55.992188 42.171875 C 55.816406 42.207031 55.738281 42.171875 55.707031 42.046875 C 55.683594 41.953125 55.578125 41.851562 55.480469 41.824219 C 55.34375 41.789062 55.296875 41.691406 55.296875 41.433594 C 55.296875 41.007812 55.117188 40.980469 54.773438 41.351562 C 54.476562 41.667969 54.472656 41.722656 54.71875 41.789062 C 54.867188 41.824219 54.910156 41.917969 54.910156 42.175781 C 54.910156 42.453125 54.949219 42.519531 55.128906 42.546875 C 55.496094 42.597656 55.480469 43.007812 55.109375 43.007812 C 54.882812 43.007812 54.816406 42.964844 54.816406 42.820312 C 54.816406 42.683594 54.726562 42.617188 54.488281 42.570312 C 54.304688 42.535156 54.132812 42.449219 54.105469 42.375 C 54.03125 42.179688 53.6875 42.210938 53.496094 42.433594 C 53.40625 42.539062 53.277344 42.625 53.210938 42.625 C 53.140625 42.625 53.011719 42.710938 52.921875 42.816406 C 52.832031 42.921875 52.667969 43.007812 52.558594 43.007812 C 52.417969 43.007812 52.324219 43.105469 52.238281 43.34375 C 52.171875 43.527344 52.054688 43.679688 51.984375 43.679688 C 51.824219 43.679688 51.457031 44.175781 51.457031 44.390625 C 51.457031 44.476562 51.414062 44.542969 51.359375 44.542969 C 51.308594 44.542969 51.261719 44.597656 51.261719 44.664062 C 51.25 45.136719 50.648438 45.339844 50.644531 44.875 C 50.640625 44.6875 50.589844 44.59375 50.496094 44.59375 C 50.300781 44.59375 50.242188 45.125 50.425781 45.226562 C 50.699219 45.382812 50.496094 46.007812 50.144531 46.097656 C 49.910156 46.160156 49.824219 46.246094 49.773438 46.472656 C 49.738281 46.632812 49.648438 46.789062 49.574219 46.816406 C 49.5 46.84375 49.441406 46.929688 49.441406 47.003906 C 49.441406 47.082031 49.375 47.167969 49.296875 47.195312 C 49.191406 47.238281 49.152344 47.402344 49.148438 47.792969 C 49.144531 48.335938 48.964844 48.746094 48.785156 48.632812 C 48.730469 48.601562 48.710938 48.488281 48.738281 48.386719 C 48.871094 47.882812 48.605469 47.550781 48.40625 47.972656 C 48.207031 48.40625 48.25 48.671875 48.527344 48.671875 C 48.796875 48.671875 48.878906 49.019531 48.632812 49.113281 C 48.558594 49.140625 48.46875 49.324219 48.433594 49.519531 C 48.398438 49.710938 48.269531 50.089844 48.148438 50.351562 C 47.859375 50.984375 47.660156 51.621094 47.464844 52.558594 C 47.378906 52.980469 47.269531 53.371094 47.226562 53.425781 C 47.1875 53.476562 47.152344 53.542969 47.152344 53.566406 C 47.152344 53.59375 47.121094 53.734375 47.085938 53.878906 C 47.015625 54.160156 46.847656 54.242188 46.847656 54 C 46.847656 53.921875 46.804688 53.855469 46.753906 53.855469 C 46.644531 53.855469 46.625 54.140625 46.714844 54.375 C 46.746094 54.457031 46.8125 54.503906 46.859375 54.472656 C 46.90625 54.445312 46.945312 54.59375 46.945312 54.804688 C 46.945312 55.015625 46.902344 55.214844 46.847656 55.246094 C 46.796875 55.28125 46.753906 55.382812 46.753906 55.476562 C 46.753906 55.570312 46.640625 55.699219 46.5 55.761719 L 46.25 55.878906 L 46.523438 56.136719 C 46.792969 56.390625 46.828125 56.398438 48.34375 56.445312 C 49.363281 56.480469 49.9375 56.535156 50.035156 56.613281 C 50.121094 56.6875 50.71875 56.765625 51.589844 56.8125 C 52.5 56.863281 53.03125 56.933594 53.078125 57.003906 C 53.113281 57.066406 53.425781 57.144531 53.765625 57.171875 C 54.863281 57.265625 55.203125 57.324219 55.15625 57.402344 C 55.097656 57.5 55.570312 57.601562 56.078125 57.601562 C 56.316406 57.601562 56.472656 57.652344 56.507812 57.738281 C 56.578125 57.921875 57.1875 58.011719 57.828125 57.933594 C 58.308594 57.875 58.347656 57.851562 58.246094 57.691406 C 58.164062 57.558594 58.164062 57.460938 58.25 57.292969 C 58.3125 57.171875 58.375 56.941406 58.386719 56.785156 C 58.421875 56.433594 58.738281 56.320312 58.816406 56.632812 C 58.960938 57.175781 59.082031 56.738281 59.042969 55.839844 C 59.027344 55.5625 59.074219 55.433594 59.222656 55.328125 C 59.335938 55.253906 59.425781 55.109375 59.425781 55.007812 C 59.425781 54.910156 59.554688 54.683594 59.71875 54.511719 C 59.878906 54.335938 60.097656 54.007812 60.199219 53.785156 C 60.304688 53.558594 60.445312 53.375 60.511719 53.375 C 60.613281 53.375 61.25 52.714844 61.441406 52.410156 C 61.46875 52.367188 61.683594 52.289062 61.914062 52.234375 C 62.148438 52.183594 62.375 52.074219 62.421875 51.992188 C 62.46875 51.90625 62.5625 51.839844 62.632812 51.839844 C 62.703125 51.839844 62.8125 51.777344 62.875 51.703125 C 62.9375 51.625 63.234375 51.515625 63.535156 51.457031 C 63.835938 51.398438 64.195312 51.289062 64.335938 51.210938 C 64.6875 51.019531 67.230469 51.011719 67.597656 51.207031 C 67.738281 51.277344 68.019531 51.394531 68.21875 51.460938 C 68.421875 51.527344 68.644531 51.640625 68.714844 51.710938 C 68.789062 51.78125 68.925781 51.839844 69.027344 51.839844 C 69.128906 51.839844 69.253906 51.925781 69.3125 52.03125 C 69.367188 52.136719 69.476562 52.222656 69.554688 52.222656 C 69.632812 52.222656 69.792969 52.332031 69.90625 52.464844 C 70.019531 52.597656 70.214844 52.703125 70.335938 52.703125 C 70.460938 52.703125 70.558594 52.738281 70.558594 52.785156 C 70.558594 52.828125 70.777344 53.003906 71.039062 53.175781 C 71.304688 53.347656 71.519531 53.542969 71.519531 53.613281 C 71.519531 53.683594 71.585938 53.765625 71.664062 53.792969 C 71.742188 53.824219 71.808594 53.917969 71.808594 53.996094 C 71.808594 54.078125 71.875 54.144531 71.957031 54.144531 C 72.035156 54.144531 72.128906 54.214844 72.160156 54.296875 C 72.195312 54.382812 72.320312 54.5625 72.445312 54.695312 C 72.570312 54.832031 72.671875 55 72.671875 55.070312 C 72.671875 55.144531 72.78125 55.253906 72.910156 55.3125 C 73.160156 55.425781 73.257812 55.890625 73.054688 56.015625 C 72.875 56.128906 72.9375 56.851562 73.128906 56.8125 C 73.21875 56.796875 73.308594 56.6875 73.324219 56.574219 C 73.34375 56.460938 73.460938 56.296875 73.589844 56.214844 C 73.933594 55.988281 73.949219 54.175781 73.609375 53.832031 C 73.4375 53.664062 73.386719 53.484375 73.359375 52.949219 C 73.335938 52.578125 73.265625 52.1875 73.195312 52.082031 C 73.128906 51.976562 73.042969 51.699219 73.007812 51.472656 C 72.96875 51.242188 72.816406 50.703125 72.664062 50.269531 C 72.511719 49.839844 72.386719 49.414062 72.386719 49.320312 C 72.386719 49.226562 72.339844 49.152344 72.289062 49.152344 C 72.234375 49.152344 72.191406 49.078125 72.191406 48.984375 C 72.1875 48.890625 72.101562 48.707031 72 48.574219 C 71.898438 48.445312 71.8125 48.289062 71.808594 48.226562 C 71.808594 48.167969 71.746094 48.066406 71.671875 48.003906 C 71.59375 47.941406 71.503906 47.753906 71.464844 47.585938 C 71.429688 47.417969 71.320312 47.164062 71.21875 47.023438 C 71.121094 46.886719 71.039062 46.703125 71.039062 46.621094 C 71.039062 46.542969 70.996094 46.449219 70.945312 46.414062 C 70.890625 46.382812 70.847656 46.222656 70.847656 46.058594 C 70.847656 45.84375 70.75 45.664062 70.488281 45.40625 C 69.890625 44.8125 69.503906 44.363281 69.503906 44.261719 C 69.503906 44.210938 69.449219 44.136719 69.382812 44.09375 C 69.316406 44.050781 69.199219 43.890625 69.121094 43.738281 C 69.042969 43.585938 68.863281 43.421875 68.722656 43.371094 C 68.355469 43.246094 68.164062 42.761719 68.410156 42.578125 C 68.585938 42.449219 68.582031 42.433594 68.328125 42.175781 C 68.128906 41.976562 68.0625 41.949219 68.0625 42.0625 C 68.0625 42.496094 67.40625 42.261719 67.199219 41.753906 C 67.105469 41.535156 67.019531 41.472656 66.804688 41.472656 C 66.621094 41.472656 66.445312 41.378906 66.285156 41.199219 C 66.152344 41.046875 65.871094 40.871094 65.660156 40.808594 C 65.449219 40.746094 65.222656 40.609375 65.160156 40.507812 C 65.089844 40.398438 64.9375 40.320312 64.789062 40.320312 C 64.613281 40.320312 64.519531 40.257812 64.484375 40.128906 C 64.445312 39.980469 64.351562 39.9375 64.078125 39.9375 C 63.875 39.9375 63.566406 39.84375 63.371094 39.722656 C 63.023438 39.507812 61.585938 39.429688 59.710938 39.523438 M 55.390625 39.742188 C 55.390625 39.796875 55.480469 39.839844 55.589844 39.839844 C 55.699219 39.839844 55.761719 39.796875 55.726562 39.742188 C 55.695312 39.691406 55.605469 39.648438 55.53125 39.648438 C 55.453125 39.648438 55.390625 39.691406 55.390625 39.742188 M 65.28125 40.128906 C 65.28125 40.179688 65.410156 40.222656 65.566406 40.222656 C 65.726562 40.222656 65.855469 40.179688 65.855469 40.128906 C 65.855469 40.074219 65.726562 40.03125 65.566406 40.03125 C 65.410156 40.03125 65.28125 40.074219 65.28125 40.128906 M 53.328125 41.28125 C 53.296875 41.332031 53.359375 41.375 53.464844 41.375 C 53.574219 41.375 53.664062 41.332031 53.664062 41.28125 C 53.664062 41.226562 53.601562 41.183594 53.527344 41.183594 C 53.449219 41.183594 53.359375 41.226562 53.328125 41.28125 M 67.199219 41.28125 C 67.199219 41.332031 67.265625 41.375 67.34375 41.375 C 67.421875 41.375 67.488281 41.332031 67.488281 41.28125 C 67.488281 41.226562 67.421875 41.183594 67.34375 41.183594 C 67.265625 41.183594 67.199219 41.226562 67.199219 41.28125 M 52.222656 42.191406 C 52.222656 42.324219 52.136719 42.507812 52.03125 42.597656 C 51.925781 42.6875 51.839844 42.796875 51.839844 42.835938 C 51.839844 42.878906 51.925781 42.910156 52.03125 42.910156 C 52.136719 42.910156 52.222656 42.851562 52.222656 42.773438 C 52.222656 42.699219 52.308594 42.609375 52.414062 42.574219 C 52.550781 42.535156 52.609375 42.429688 52.609375 42.234375 C 52.609375 42.015625 52.5625 41.953125 52.414062 41.953125 C 52.273438 41.953125 52.222656 42.015625 52.222656 42.191406 M 69.164062 43.109375 C 69.132812 43.160156 69.136719 43.242188 69.167969 43.296875 C 69.257812 43.441406 69.503906 43.410156 69.503906 43.257812 C 69.503906 43.09375 69.246094 42.980469 69.164062 43.109375 M 51.183594 43.195312 C 51.222656 43.320312 51.355469 43.339844 51.367188 43.226562 C 51.371094 43.1875 51.324219 43.140625 51.257812 43.117188 C 51.195312 43.097656 51.160156 43.132812 51.183594 43.195312 M 72.210938 55.496094 C 72.230469 55.550781 72.285156 55.597656 72.335938 55.597656 C 72.386719 55.597656 72.441406 55.550781 72.460938 55.496094 C 72.480469 55.4375 72.425781 55.390625 72.335938 55.390625 C 72.246094 55.390625 72.191406 55.4375 72.210938 55.496094 "/>
<path style=" stroke:none;fill-rule:evenodd;fill:rgb(9.803922%,62.352941%,30.588235%);fill-opacity:1;" d="M 35.664062 41.289062 C 34.804688 41.394531 33.867188 41.578125 33.742188 41.664062 C 33.691406 41.703125 33.476562 41.789062 33.265625 41.855469 C 32.789062 42.007812 31.398438 42.6875 31.191406 42.871094 C 31.109375 42.945312 31.007812 43.007812 30.96875 43.007812 C 30.667969 43.007812 28.671875 44.878906 27.796875 45.984375 C 26.601562 47.484375 25.195312 50.058594 24.675781 51.695312 C 24.609375 51.90625 24.519531 52.144531 24.484375 52.222656 C 24.445312 52.304688 24.355469 52.605469 24.285156 52.894531 C 24.214844 53.1875 24.121094 53.472656 24.078125 53.527344 C 23.785156 53.929688 24.230469 53.640625 24.703125 53.125 C 29.09375 48.335938 35.683594 50.105469 37.789062 56.640625 C 37.933594 57.089844 38.09375 57.515625 38.148438 57.585938 C 38.289062 57.773438 39.457031 57.652344 39.621094 57.4375 C 39.703125 57.332031 39.972656 57.261719 40.519531 57.214844 C 40.949219 57.175781 41.328125 57.097656 41.367188 57.039062 C 41.402344 56.980469 42.109375 56.867188 42.964844 56.78125 C 43.804688 56.699219 44.582031 56.613281 44.6875 56.59375 C 44.792969 56.574219 45.066406 56.554688 45.292969 56.550781 C 45.53125 56.546875 45.683594 56.503906 45.652344 56.453125 C 45.554688 56.300781 46.304688 52.488281 46.660156 51.3125 C 46.753906 50.996094 46.925781 50.429688 47.035156 50.054688 L 47.238281 49.375 L 46.882812 48.757812 C 46.6875 48.421875 46.457031 48.007812 46.367188 47.839844 C 46.277344 47.671875 46.035156 47.304688 45.832031 47.023438 C 45.628906 46.742188 45.351562 46.347656 45.214844 46.152344 C 44.769531 45.5 44.269531 45.324219 44.34375 45.84375 C 44.488281 46.863281 44.304688 48.109375 44.148438 47.164062 C 44.105469 46.898438 44.085938 46.996094 44.085938 47.519531 C 44.078125 48.535156 44.058594 48.671875 43.921875 48.671875 C 43.851562 48.671875 43.777344 48.855469 43.742188 49.109375 C 43.679688 49.570312 43.507812 49.824219 43.253906 49.824219 C 43.171875 49.824219 43.105469 49.867188 43.105469 49.921875 C 43.105469 49.972656 42.972656 50.015625 42.816406 50.015625 C 42.65625 50.015625 42.527344 50.058594 42.527344 50.113281 C 42.527344 50.164062 42.398438 50.207031 42.238281 50.207031 C 42.082031 50.207031 41.953125 50.25 41.953125 50.304688 C 41.953125 50.363281 41.472656 50.398438 40.703125 50.398438 C 39.9375 50.398438 39.457031 50.363281 39.457031 50.304688 C 39.457031 50.25 39.328125 50.207031 39.167969 50.207031 C 39.007812 50.207031 38.878906 50.164062 38.878906 50.113281 C 38.878906 50.058594 38.75 50.015625 38.59375 50.015625 C 38.433594 50.015625 38.304688 49.972656 38.304688 49.921875 C 38.304688 49.867188 38.234375 49.824219 38.152344 49.824219 C 37.960938 49.824219 37.726562 49.59375 37.726562 49.398438 C 37.726562 49.316406 37.683594 49.246094 37.632812 49.246094 C 37.578125 49.246094 37.535156 49.171875 37.535156 49.078125 C 37.53125 48.988281 37.359375 48.761719 37.148438 48.582031 C 36.890625 48.355469 36.769531 48.171875 36.769531 48.003906 C 36.769531 47.863281 36.6875 47.707031 36.574219 47.636719 C 36.46875 47.574219 36.382812 47.433594 36.382812 47.328125 C 36.382812 47.222656 36.339844 47.136719 36.289062 47.136719 C 36.234375 47.136719 36.191406 46.921875 36.191406 46.660156 C 36.191406 46.402344 36.234375 46.160156 36.289062 46.128906 C 36.339844 46.09375 36.382812 45.75 36.382812 45.359375 C 36.382812 44.777344 36.417969 44.628906 36.5625 44.527344 C 36.671875 44.449219 36.765625 44.21875 36.8125 43.921875 C 36.855469 43.625 36.960938 43.367188 37.085938 43.25 C 37.277344 43.066406 37.28125 43.054688 37.109375 43.023438 C 36.96875 42.996094 36.957031 42.972656 37.066406 42.902344 C 37.179688 42.828125 37.179688 42.800781 37.054688 42.710938 C 36.945312 42.632812 36.972656 42.621094 37.175781 42.664062 C 37.363281 42.707031 37.441406 42.6875 37.441406 42.589844 C 37.441406 42.515625 37.613281 42.34375 37.824219 42.203125 C 38.035156 42.0625 38.214844 41.917969 38.21875 41.878906 C 38.3125 41.351562 38.324219 41.363281 37.601562 41.386719 C 37.152344 41.402344 36.910156 41.371094 36.886719 41.296875 C 36.84375 41.171875 36.648438 41.171875 35.664062 41.289062 M 38.523438 41.667969 C 38.382812 41.722656 38.328125 41.804688 38.363281 41.902344 C 38.441406 42.101562 38.503906 42.085938 38.769531 41.804688 C 39.007812 41.558594 38.917969 41.507812 38.523438 41.667969 M 39.121094 42.335938 C 39.152344 42.390625 39.273438 42.429688 39.390625 42.429688 C 39.5625 42.429688 39.574219 42.410156 39.457031 42.335938 C 39.265625 42.214844 39.042969 42.214844 39.121094 42.335938 M 40.621094 42.808594 C 40.515625 42.875 40.53125 42.90625 40.691406 42.957031 C 40.90625 43.023438 41.089844 42.957031 41.089844 42.808594 C 41.089844 42.695312 40.796875 42.695312 40.621094 42.808594 M 43.167969 44.222656 C 43.023438 44.367188 43.097656 44.574219 43.246094 44.449219 C 43.328125 44.382812 43.390625 44.289062 43.390625 44.246094 C 43.390625 44.144531 43.257812 44.132812 43.167969 44.222656 M 43.820312 44.933594 C 43.785156 44.992188 43.835938 45.097656 43.933594 45.167969 C 44.15625 45.332031 44.335938 45.1875 44.164062 44.980469 C 44.019531 44.804688 43.910156 44.792969 43.820312 44.933594 M 47.375 56.550781 C 47.585938 56.59375 47.953125 56.625 48.191406 56.621094 L 48.625 56.613281 L 48.144531 56.539062 C 47.878906 56.5 47.511719 56.464844 47.328125 56.46875 L 46.992188 56.46875 L 47.375 56.550781 M 49.535156 56.738281 C 49.828125 56.78125 50.28125 56.8125 50.542969 56.808594 L 51.023438 56.804688 L 50.496094 56.730469 C 50.207031 56.691406 49.753906 56.660156 49.488281 56.664062 L 49.007812 56.667969 L 49.535156 56.738281 M 52.226562 57.019531 C 52.308594 57.066406 52.652344 57.128906 52.996094 57.160156 L 53.617188 57.210938 L 53.039062 57.074219 C 52.355469 56.910156 52 56.886719 52.226562 57.019531 M 54.433594 57.398438 C 54.511719 57.445312 54.792969 57.511719 55.054688 57.542969 C 55.371094 57.578125 55.453125 57.570312 55.296875 57.519531 C 54.898438 57.386719 54.269531 57.296875 54.433594 57.398438 M 56.160156 57.792969 C 56.398438 57.890625 56.679688 57.972656 56.785156 57.976562 C 56.890625 57.976562 56.738281 57.890625 56.453125 57.789062 C 55.789062 57.550781 55.589844 57.550781 56.160156 57.792969 M 46.320312 64.320312 C 46.28125 64.378906 46.492188 64.414062 46.882812 64.414062 C 47.226562 64.414062 47.535156 64.371094 47.566406 64.320312 C 47.605469 64.257812 47.394531 64.222656 47.003906 64.222656 C 46.660156 64.222656 46.351562 64.265625 46.320312 64.320312 M 47.953125 64.320312 C 47.984375 64.371094 48.117188 64.414062 48.246094 64.414062 C 48.375 64.414062 48.480469 64.371094 48.480469 64.320312 C 48.480469 64.265625 48.347656 64.222656 48.1875 64.222656 C 48.015625 64.222656 47.917969 64.265625 47.953125 64.320312 "/>
</g>
</svg>