<svg xmlns="http://www.w3.org/2000/svg" viewBox="0 0 96 96">
  <g id="Layer_2" data-name="Layer 2">
    <g id="Layer_1-2" data-name="Layer 1">
      <path d="M35.6,51.54a6.17,6.17,0,0,0-1.39.73,18.61,18.61,0,0,1-2.42,1,22.32,22.32,0,0,1-10.78,1,21.5,21.5,0,0,1-10.13-4.49,20.5,20.5,0,0,1-5.71-7.31,20.23,20.23,0,0,1-1.82-7.22A19,19,0,0,1,4,29.29a20.39,20.39,0,0,1,2.6-5.84,21.44,21.44,0,0,1,26.81-7.56,21.24,21.24,0,0,1,6.85,5,19.52,19.52,0,0,1,4.33,7.55A19.94,19.94,0,0,1,45,38.28a23.61,23.61,0,0,1-.81,2.81,8.39,8.39,0,0,0-.47,1.23,5.32,5.32,0,0,0,.94-.63c.53-.37,1.07-.71,1.62-1,.3-.18.87-.37,1.07-.66a2.61,2.61,0,0,0,.23-.87c.13-.62.25-1.23.33-1.87a23,23,0,0,0-.36-8A23.88,23.88,0,0,0,26.82,11.3a25.42,25.42,0,0,0-13.66,2.49A23.12,23.12,0,0,0,7.25,18,22.76,22.76,0,0,0,1.37,41.12a23.16,23.16,0,0,0,4,7.41A23.75,23.75,0,0,0,11.74,54a25,25,0,0,0,16.67,3,25.59,25.59,0,0,0,3.76-1,5.11,5.11,0,0,0,1.51-.59c.28-.22.41-.88.55-1.2C34.64,53.35,35.19,52.47,35.6,51.54Z" fill="#fff"/>
      <path d="M59,0V0a7.86,7.86,0,0,1,1.66.78A11.52,11.52,0,0,1,64,3.24a3.62,3.62,0,0,1,.82,1.4c.07.27,0,.6-.28.69a2.07,2.07,0,0,1-1-.13c-.63-.2-1.25-.46-1.86-.71a9.75,9.75,0,0,0-3.88-.82,5.1,5.1,0,0,0-1.17,0,3.79,3.79,0,0,0,.83,0,10.79,10.79,0,0,1,1.69.35c1.56.45,3,1.22,4.5,1.73a5.87,5.87,0,0,0,1.66.42.87.87,0,0,0,.61-.14.76.76,0,0,0,.06-.73A6.05,6.05,0,0,0,65,3.77,9.4,9.4,0,0,0,60.66.51,5.66,5.66,0,0,0,59,0Z" fill="#fff680"/>
      <path d="M59,0l0,0Z" fill="#ff7b6c"/>
      <path d="M59.07.07c.3.39.76.7,1.11,1.07A6.58,6.58,0,0,1,61,2.2c.08.14.22.35.08.49s-1,.08-1.33,0a11.05,11.05,0,0,0-2.28-.3A1.16,1.16,0,0,0,56.33,3a2,2,0,0,0-.06.73,9.23,9.23,0,0,1,4.63.43c.83.35,1.66.71,2.52,1a2.08,2.08,0,0,0,1.18.12c.26-.1.27-.4.23-.63a3.28,3.28,0,0,0-.78-1.41A11.35,11.35,0,0,0,60.66.81,6.56,6.56,0,0,0,59.07.07Z" fill="#ff6969"/>
      <path d="M57.1,3.64v0h1.17Z" fill="#ffc077"/>
      <path d="M44.27,21.58c.22.56.65,1.09.93,1.64a3.24,3.24,0,0,0,.47.88,8.17,8.17,0,0,0,1.58.83c.32.18.87.65,1.24.67a2.75,2.75,0,0,0,.9-.31c.61-.22,1.24-.42,1.87-.58a15.59,15.59,0,0,1,3-.52c.68,0,1.33.08,2,.09v0a12.92,12.92,0,0,0-4.11-1v0c1.07-.15,2.15-.51,3.21-.74a39.29,39.29,0,0,1,8.23-.9,13.21,13.21,0,0,1,4.84.68,5.21,5.21,0,0,1,1.18.65c1.61,1.25,1.28,3.23.53,4.85A13.08,13.08,0,0,1,69.56,29c-.07.13-.16.36-.3.43a2.42,2.42,0,0,1-1.1-.05,16.57,16.57,0,0,0-2.11-.11,10.26,10.26,0,0,1-.68,2c-.44,1.14-.92,2.26-1.41,3.38-.23.52-.52,1-.71,1.57l1.63.1h.6l.26-.46.55-1.2,1.28-3.28.49-1.6h0a17.39,17.39,0,0,1-.79,4.57,17.06,17.06,0,0,0-.66,2.18c.24,0,.85.23,1,.09s.25-.58.32-.76c.3-.73.57-1.48.88-2.21,1.21-2.92,2.62-5.9,3.06-9,.15-1.06.32-2.8-.68-3.56a1.89,1.89,0,0,0-.76-.28v0a3.64,3.64,0,0,1,2.56,2.4h0a5.76,5.76,0,0,0-.83-1.64c-.31-.08-.62-.49-.93-.65a7.19,7.19,0,0,0-2.28-.65c1.63-1.82-.3-3.92-1.7-5.18-.27-.24-.56-.47-.86-.69-3.12-2.32-7-3.4-10.51-4.92a22.05,22.05,0,0,1-3.84-2A7.38,7.38,0,0,1,50.61,6c-.36-.44.17-.84.54-1.06a8.7,8.7,0,0,1,2.25-.88,2.17,2.17,0,0,1,1-.16c-.13-.14-.45-.06-.62,0-.57,0-1.16,0-1.73.1a40,40,0,0,0-6.26.9c-.57.16-1.88.47-1.75,1.24.2,1.16,1.64,2,2.58,2.59,2.55,1.48,5.65,2.49,7.71,4.63a3.27,3.27,0,0,1,.84,3.94,4.26,4.26,0,0,1-.84,1,7.58,7.58,0,0,1-1.73,1.1,19.23,19.23,0,0,1-3.38,1.23A36.22,36.22,0,0,1,44.27,21.58Z" fill="#ff6969"/>
      <path d="M53.88,3.94V4l.49-.06Z" fill="#ffd27b"/>
      <path d="M69.06,20.14a8.8,8.8,0,0,1,2.25.65c.35.19.6.47.93.69a3.35,3.35,0,0,0-.18-1.77,10.79,10.79,0,0,0-2.79-4.24c-2.92-3-6.92-5.13-10.82-6.74-1.4-.57-2.85-1-4.26-1.54A5.71,5.71,0,0,1,52.06,6c-.93-1,.95-1.85,1.79-2-.24-.09-.64.09-.87.17a6.74,6.74,0,0,0-2.07.91c-.33.24-.6.58-.3,1a7.33,7.33,0,0,0,1.51,1.26,22.05,22.05,0,0,0,3.84,2c3.44,1.47,7.11,2.54,10.19,4.69A11.43,11.43,0,0,1,69,16.77a3,3,0,0,1,.66,2A2.93,2.93,0,0,1,69.06,20.14Z" fill="#ffce7a"/>
      <path d="M54.51,9.15v0A22.57,22.57,0,0,1,49.6,6.53c-.39-.3-1.23-1-1.05-1.55a1.54,1.54,0,0,1,.6-.64c-.28,0-.51.35-.64.54A1.44,1.44,0,0,0,48.73,7a6.54,6.54,0,0,0,2.08,1.16A20.3,20.3,0,0,0,54.51,9.15Z" fill="#fff680"/>
      <path d="M43,11.56a13.4,13.4,0,0,1-3.6,1.61A10,10,0,0,0,36.5,14L38,15l1.9,1.47c-.2-.42-1.05-.89-.74-1.47a1.61,1.61,0,0,1,1-.59c1.24-.4,3.5-.43,3.15-2.21A1.59,1.59,0,0,0,43,11.56Z" fill="#ff6969"/>
      <path d="M43,11.56a3,3,0,0,1,.35,1.13c-.11,1.34-2.11,1.41-3.11,1.71-.38.11-1,.27-1.13.7s.31.91.61,1.2a7.75,7.75,0,0,0,1.45,1.09,4.53,4.53,0,0,1,1.17.81c.25.31,0,.46,0,.77a1.36,1.36,0,0,0,.49.65c.2.12.59-.25.71-.38.52-.55.19-1.13-.37-1.49a26.3,26.3,0,0,1-2.31-1.45c-.24-.19-.63-.47-.66-.79,0-.5,1-.65,1.31-.72,1-.23,2.77-.79,2.31-2.13a2.13,2.13,0,0,0-.3-.53,2.52,2.52,0,0,0-.56-.57m14.8.23a5.19,5.19,0,0,0,1,1.1,19,19,0,0,0,2.87,2.58,2.54,2.54,0,0,0,1.21.56c.12,0,.34,0,.41-.08s0-.32-.12-.42a5.15,5.15,0,0,0-.95-.85c-1-.72-2-1.38-3-2A13.32,13.32,0,0,0,57.79,11.79Z" fill="#fff680"/>
      <path d="M43.3,12.43v.4h0Z" fill="#ff9b71"/>
      <path d="M65.59,12.5h0m.35.24h0Z" fill="#ff6969"/>
      <path d="M23.81,13.33v0h.48l-.48,0m-1,0v0h.13Z" fill="#ccd7e7"/>
      <path d="M22.94,13.36v0h.21Z" fill="#9aaece"/>
      <path d="M23.15,13.36v0h.24Z" fill="#6786b6"/>
      <path d="M23.39,13.38a42.45,42.45,0,0,0-4.46.56,21.18,21.18,0,0,0-11.08,6.7A19.91,19.91,0,0,0,9.6,48.53,21.81,21.81,0,0,0,17.31,53a22.33,22.33,0,0,0,9.61.85,21.76,21.76,0,0,0,7-2.19,11.24,11.24,0,0,0,2.51-1.53,7.49,7.49,0,0,0,.9-1.25,27.9,27.9,0,0,1,1.88-2.34c.73-.82,1.51-1.59,2.31-2.34a7.72,7.72,0,0,0,1.09-1,10.71,10.71,0,0,0,1.28-2.84A20.15,20.15,0,0,0,45.07,33a20.5,20.5,0,0,0-1.71-7.38A20.86,20.86,0,0,0,29.3,14a23.4,23.4,0,0,0-4.42-.61A8.24,8.24,0,0,0,23.39,13.38Z" fill="#345d9d"/>
      <path d="M24.71,13.36v0H25Z" fill="#6786b6"/>
      <path d="M25,13.36v0h.21Z" fill="#9aaece"/>
      <path d="M25.16,13.36v0h.13Z" fill="#ccd7e7"/>
      <path d="M22.39,13.39v0h.24Z" fill="#9aaece"/>
      <path d="M25.43,13.39v0h.25l-.25,0m-3.45,0v0h.2Z" fill="#6786b6"/>
      <path d="M25.88,13.43v0h.21l-.21,0m-4.28,0v0h.2l-.2,0m4.66,0v0h.18Z" fill="#9aaece"/>
      <path d="M21.32,13.49v0h.1Z" fill="#b3c2da"/>
      <path d="M26.57,13.49v0h.14Z" fill="#9aaece"/>
      <path d="M21,13.53v0h.18Z" fill="#809ac2"/>
      <path d="M26.85,13.53v0H27Z" fill="#b3c2da"/>
      <path d="M20.8,13.56v0H21Z" fill="#809ac2"/>
      <path d="M27.09,13.56v0h.18Z" fill="#b3c2da"/>
      <path d="M20.59,13.59v0h.11Z" fill="#a6b8d4"/>
      <path d="M27.33,13.59v0h.11Z" fill="#8da4c8"/>
      <path d="M20.39,13.63v0h.1Z" fill="#a6b8d4"/>
      <path d="M27.54,13.63v0h.11Z" fill="#809ac2"/>
      <path d="M20.24,13.67h0Z" fill="#9aaece"/>
      <path d="M27.75,13.66v0h.14Z" fill="#ccd7e7"/>
      <path d="M20,13.7v0h.13Z" fill="#6786b6"/>
      <path d="M28,13.71h0m.17,0h0Z" fill="#9aaece"/>
      <path d="M19.68,13.77h0Z" fill="#a6b8d4"/>
      <path d="M28.33,13.77h0Z" fill="#9aaece"/>
      <path d="M19.54,13.81h0Z" fill="#809ac2"/>
      <path d="M28.5,13.81h0Z" fill="#a6b8d4"/>
      <path d="M19.35,13.83v0h.1l-.1,0m9.26,0v0h.11Z" fill="#9aaece"/>
      <path d="M19.23,13.87h0Z" fill="#809ac2"/>
      <path d="M28.81,13.87h0Z" fill="#b3c2da"/>
      <path d="M29,13.91h0Z" fill="#a6b8d4"/>
      <path d="M29.09,13.94h0m.13,0h0Z" fill="#9aaece"/>
      <path d="M29.36,14h0Z" fill="#a6b8d4"/>
      <path d="M29.5,14h0Z" fill="#b3c2da"/>
      <path d="M18.4,14.07h0Z" fill="#8da4c8"/>
      <path d="M18.16,14.14h0Z" fill="#809ac2"/>
      <path d="M17.92,14.21h0Z" fill="#8da4c8"/>
      <path d="M30.23,14.24h0Z" fill="#b3c2da"/>
      <path d="M30.33,14.27l0,0Z" fill="#a6b8d4"/>
      <path d="M31.16,14.54h0Z" fill="#b3c2da"/>
      <path d="M16.78,14.57l0,0Z" fill="#809ac2"/>
      <path d="M62.84,16v0h.27Z" fill="#ffc077"/>
      <path d="M39.88,16.47l.21.2Z" fill="#ff9292"/>
      <path d="M40.09,16.67l1.28,1.27,1,1c.53-.91-.91-1.42-1.52-1.81A4.9,4.9,0,0,0,40.09,16.67Z" fill="#ff6969"/>
      <path d="M23.5,17.87c-.08.9-.32,1.78-.44,2.67,0,.23,0,.83-.23,1s-.77.16-1,.21a25,25,0,0,1-2.73.42v0l3.84.6.59,3.68h0c.18-.9.27-1.81.46-2.71.05-.23,0-.75.18-.93s.75-.17,1-.21a26.28,26.28,0,0,1,2.8-.43v0a21.2,21.2,0,0,1-2.84-.44c-.21,0-.83,0-1-.21a2.55,2.55,0,0,1-.18-.92l-.3-1.81A4,4,0,0,0,23.5,17.87Z" fill="#fff"/>
      <path d="M23.53,17.9v.17h0Z" fill="#b3c2da"/>
      <path d="M23.57,18.14v.1h0l0-.1m0,.2v.1h0l0-.1m-.21.07v.1h0l0-.1m.25.13v.1h0l0-.1m-.28.07v.1h0Z" fill="#9aaece"/>
      <path d="M23.67,18.74v.1h0Z" fill="#8da4c8"/>
      <path d="M23.32,18.81v.1h0Z" fill="#9aaece"/>
      <path d="M23.7,18.84l.23,1.34.12.55.76.53.8.5.83.14,1.52.25v0l-1.32.2.45.37,1.07.7,2.7,1.77,1.76,1.13v.07a13.44,13.44,0,0,0-1.83,1c-.19.11-.53.39-.76.38s-.38-.2-.52-.29c-.37-.26-.76-.51-1.14-.77-1.44-1-2.86-2.08-4.39-2.9,0,.31-.27.84-.15,1.13s.29.26.43.35l1,.67c1,.63,1.92,1.27,2.87,1.92a5.21,5.21,0,0,1,1.15.79c.11.12,0,.33.07.48a13.19,13.19,0,0,1,0,1.54c0,1.48.05,3,.07,4.44a5.27,5.27,0,0,1,0,1.77c-.06.15-.24.23-.36.32l-.94.66c-1.11.78-2.21,1.57-3.31,2.36l-1,.71c-.11.07-.27.24-.41.24S23.12,41,23,41l-1-.72L18.76,37.9c-.35-.25-1.07-.58-1.28-1-.1-.18,0-.44,0-.63,0-.41,0-.83,0-1.24,0-1.48.14-3,.14-4.44,0-.44,0-.87,0-1.3a1.5,1.5,0,0,1,.07-.63c.14-.23.6-.42.83-.57l1.59-1.06a3.43,3.43,0,0,0,.76-.55l-.52-.31-.38.2-.9.61.8-1.07a13.4,13.4,0,0,0-2.08,1.34c-.2.14-.57.5-.83.5s-.51-.26-.69-.36a13.49,13.49,0,0,0-1.87-1v-.07a9.11,9.11,0,0,0,1.7-1.06c1.45-.94,2.86-2,4.39-2.84v0l-1.49-.23v0l1.63-.26.9-.16.69-.42.69-.48.11-.55.2-1.31c-.89.48-1.71,1.1-2.56,1.64l-5,3.21-2,1.3c-.19.12-.64.31-.74.51A3.39,3.39,0,0,0,13,26.69c-.06.86-.1,1.71-.14,2.57-.11,2.56-.38,5.12-.41,7.68,0,.85-.14,1.7-.14,2.54,0,.26-.13.67,0,.9s.42.34.59.47l1.28.94C15.59,42.85,17,44,18.48,45c1.22.88,2.42,1.79,3.63,2.68.31.22.61.43.9.66.1.07.24.23.38.21s.31-.18.42-.26l.9-.66c1.15-.83,2.3-1.68,3.45-2.52,1.52-1.09,3-2.21,4.53-3.3l1.35-1a2.23,2.23,0,0,0,.59-.46c.14-.23,0-.72,0-1,0-1,0-2-.13-2.9,0-.39,0-.79,0-1.17-.17-2.37-.07-4.76-.31-7.12,0-.55,0-1.15,0-1.7a2.47,2.47,0,0,0,0-.86c-.1-.21-.54-.41-.74-.53l-2-1.28c-1.67-1.08-3.33-2.15-5-3.24A19.7,19.7,0,0,0,23.7,18.84Z" fill="#00366b"/>
      <path d="M23.7,18.94V19h0Z" fill="#708eac"/>
      <path d="M23.3,19.06v0Z" fill="#8fa7be"/>
      <path d="M23.74,19.14v.1h0l0-.1m-.48.07v.1h0l0-.1m.51.13v.1h0l0-.1m-.55.07v.1h0Z" fill="#708eac"/>
      <path d="M63,19.41l0,.26h.18Z" fill="#fff680"/>
      <path d="M23.81,19.54v.1h0Z" fill="#6081a3"/>
      <path d="M23.19,19.61v.1h0Z" fill="#708eac"/>
      <path d="M23.84,19.74v.1h0l0-.1m-.69.07v.1h0l0-.1m.73.13V20h0l0-.1m-.76.07v.1h0Z" fill="#6081a3"/>
      <path d="M23.92,20.16l0,0Z" fill="#507599"/>
      <path d="M23.08,20.21v.1h0Z" fill="#6081a3"/>
      <path d="M23.91,20.21v.1h0Z" fill="#afc0d1"/>
      <path d="M24,20.36v0Z" fill="#507599"/>
      <path d="M23.05,20.41v.1h0Z" fill="#6081a3"/>
      <path d="M24,20.41v.1h0Z" fill="#afc0d1"/>
      <path d="M24,20.57v0m-1,.06,0,0Z" fill="#507599"/>
      <path d="M24,20.61v.1h0l0-.1m-1,.07v.1h0Z" fill="#afc0d1"/>
      <path d="M70.51,20.68v0l.42.1Z" fill="#ffb876"/>
      <path d="M24,20.74l.13.8,1.46.24v0Z" fill="#14c4f4"/>
      <path d="M70.93,20.78v0c1.25.72,1.17,2.27,1,3.51-.35,3.12-1.78,6.1-3,9-.31.73-.63,1.46-.89,2.21a3,3,0,0,1-.47,1.1v0l2.32.44c.21-.85.63-1.66.86-2.51a6.38,6.38,0,0,0,.07-3.07c1.89.62,1.85,3.07,1.65,4.61a7.23,7.23,0,0,1-.2,1.13c0,.13-.15.37-.07.49s.25.11.35.14c.29.1.57.22.86.31a12,12,0,0,0-.22-5.65,6.47,6.47,0,0,0-1-1.83c-.15-.19-.64-.58-.64-.8s.2-.44.28-.61A11.86,11.86,0,0,0,72.49,28a7.94,7.94,0,0,0,.73-4.58,4.93,4.93,0,0,0-.49-1.1A2.84,2.84,0,0,0,70.93,20.78Z" fill="#fff680"/>
      <path d="M24,20.81v.1h0Z" fill="#a7e9fb"/>
      <path d="M22.94,20.84l-1.31.87v0C22.17,21.72,23.29,21.64,22.94,20.84Z" fill="#48fbff"/>
      <path d="M24.05,21v.1h0l0-.1m0,.2v.1h0l0-.1m0,.2v.1h0Z" fill="#a7e9fb"/>
      <path d="M24.15,21.54v0h.11l-.11,0m.21,0v0h.11l-.11,0m.21,0v0h.1Z" fill="#98e5fa"/>
      <path d="M52.19,23.25v0a15,15,0,0,1,3.11.6c.34.11.66.28,1,.37v0a20.35,20.35,0,0,0-2.07-.09,20.32,20.32,0,0,0-5.74,1.43v0a24.05,24.05,0,0,1,2.83,1.73,52.74,52.74,0,0,1,6.26,4.53c.63.53,1.26,1.07,1.87,1.63a12.1,12.1,0,0,0,1.17,1.1c.37-.87.72-1.76,1.14-2.61.07-.15.35-.78.59-.69s.21.94.21,1.19c0,1.23-.29,2.43-.31,3.65l1.14,0v0h-.14c.74-1.51,1.39-3.06,2-4.61a9.67,9.67,0,0,0,.8-2.34,17,17,0,0,1,2.25.14,2.55,2.55,0,0,0,1,0,1.17,1.17,0,0,0,.29-.43c.22-.37.41-.75.6-1.14.71-1.54,1.1-3.5-.36-4.77a4.88,4.88,0,0,0-1.25-.73,13.17,13.17,0,0,0-5.11-.71A51.62,51.62,0,0,0,52.19,23.25Z" fill="#ff7b69"/>
      <path d="M24.78,21.65v0h.1l-.1,0m.2,0v0h.11l-.11,0m.21,0v0h.1Z" fill="#a7e9fb"/>
      <path d="M21.49,21.75v0h.11Z" fill="#708eac"/>
      <path d="M25.4,21.75v0h.1Z" fill="#a7e9fb"/>
      <path d="M21.27,21.79h0Z" fill="#406890"/>
      <path d="M21.34,21.79h0Z" fill="#8fa7be"/>
      <path d="M25.66,21.79h0Z" fill="#809bb5"/>
      <path d="M21.07,21.82h0Z" fill="#406890"/>
      <path d="M21.11,21.81v0h.11Z" fill="#9fb4c8"/>
      <path d="M25.81,21.81v0h.11Z" fill="#afc0d1"/>
      <path d="M20.86,21.86h0Z" fill="#406890"/>
      <path d="M20.9,21.85v0H21Z" fill="#9fb4c8"/>
      <path d="M26,21.85v0h.1Z" fill="#afc0d1"/>
      <path d="M20.65,21.89h0Z" fill="#406890"/>
      <path d="M20.7,21.88v0h.1Z" fill="#9fb4c8"/>
      <path d="M26.25,21.89h0Z" fill="#bfcdda"/>
      <path d="M26.3,21.88v0h.1Z" fill="#6081a3"/>
      <path d="M20.44,21.92h0Z" fill="#507599"/>
      <path d="M20.49,21.91v0h.1Z" fill="#afc0d1"/>
      <path d="M26.49,21.92h0Z" fill="#809bb5"/>
      <path d="M26.56,21.92h0Z" fill="#406890"/>
      <path d="M20.24,22h0Z" fill="#507599"/>
      <path d="M20.28,22v0h.11Z" fill="#afc0d1"/>
      <path d="M26.7,22h0Z" fill="#809bb5"/>
      <path d="M26.77,22h0Z" fill="#406890"/>
      <path d="M20,22h0Z" fill="#507599"/>
      <path d="M20.08,22v0h.1Z" fill="#afc0d1"/>
      <path d="M26.91,22h0Z" fill="#809bb5"/>
      <path d="M27,22h0Z" fill="#406890"/>
      <path d="M19.82,22h0Z" fill="#507599"/>
      <path d="M19.87,22v0H20Z" fill="#afc0d1"/>
      <path d="M27.09,22v0h.11Z" fill="#8fa7be"/>
      <path d="M19.59,22.05v0h.1Z" fill="#6081a3"/>
      <path d="M27.3,22.05v0h.1Z" fill="#8fa7be"/>
      <path d="M19.38,22.08v0h.11Z" fill="#6081a3"/>
      <path d="M27.51,22.08v0h.1Z" fill="#8fa7be"/>
      <path d="M19.18,22.11v0h.1Z" fill="#6081a3"/>
      <path d="M27.71,22.11v0h.11Z" fill="#9fb4c8"/>
      <path d="M19.14,22.18v0h.11Z" fill="#708eac"/>
      <path d="M27.75,22.18v0h.1Z" fill="#9fb4c8"/>
      <path d="M19.35,22.21v0h.1Z" fill="#6081a3"/>
      <path d="M27.54,22.21v0h.11Z" fill="#9fb4c8"/>
      <path d="M19.56,22.25v0h.1Z" fill="#6081a3"/>
      <path d="M27.33,22.25v0h.11Z" fill="#8fa7be"/>
      <path d="M19.76,22.28v0h.11Z" fill="#6081a3"/>
      <path d="M27.13,22.28v0h.1Z" fill="#8fa7be"/>
      <path d="M20,22.32l0,0Z" fill="#507599"/>
      <path d="M20,22.31v0h.1Z" fill="#afc0d1"/>
      <path d="M26.92,22.31v0H27Z" fill="#8fa7be"/>
      <path d="M20.2,22.36h0Z" fill="#507599"/>
      <path d="M20.25,22.35v0h.1Z" fill="#afc0d1"/>
      <path d="M26.74,22.36h0Z" fill="#809bb5"/>
      <path d="M26.8,22.36h0Z" fill="#406890"/>
      <path d="M20.41,22.39h0Z" fill="#507599"/>
      <path d="M20.46,22.38v0h.1Z" fill="#afc0d1"/>
      <path d="M26.53,22.39h0Z" fill="#8ae2fa"/>
      <path d="M26.57,22.38l.07.07v-.07Z" fill="#406890"/>
      <path d="M14.47,26.35v.07c.63.32,1.23.68,1.84,1,.19.11.5.37.72.37s.52-.27.69-.39c.54-.37,1.09-.71,1.63-1.07.16-.11.63-.31.65-.52s-.14-.27-.21-.37a9.83,9.83,0,0,1-.61-.83c.33.2.81.74,1.21.79.13,0,.27-.12.38-.19.3-.21.61-.4.9-.64l-.18.31,1.14-.72.4-.32-.12-1.07c-.53-.1-1.06-.16-1.59-.25a2.2,2.2,0,0,0-.76-.09,2.43,2.43,0,0,0-.62.37c-.44.29-.89.56-1.32.86C17.28,24.58,15.9,25.57,14.47,26.35Z" fill="#48fbff"/>
      <path d="M24.15,22.78c0,.25-.26.83-.11,1.06a5,5,0,0,0,1.25.86c1.08.73,2.18,1.44,3.25,2.17l1,.69a1.09,1.09,0,0,0,.45.24c.24,0,.56-.27.76-.38.61-.33,1.21-.68,1.83-1v-.07l-4.21-2.76-1.14-.75-.7-.41-.72.08Z" fill="#14c4f4"/>
      <path d="M26.12,22.45v0h.11Z" fill="#6cdaf8"/>
      <path d="M25.23,22.58v0h.1Z" fill="#a7e9fb"/>
      <path d="M72,22.58v.13h0Z" fill="#ffb075"/>
      <path d="M25,22.61v0h.1l-.1,0m-.21,0v0h.1l-.1,0m-.21,0v0h.11Z" fill="#a7e9fb"/>
      <path d="M24.4,22.71v0h.1l-.1,0m-.21,0v0h.1Z" fill="#98e5fa"/>
      <path d="M24.12,22.81v.1h0Z" fill="#a7e9fb"/>
      <path d="M23,23.38v.1h0l0-.1m0,.2v.1h0Z" fill="#a4fdff"/>
      <path d="M73.52,23.62A10.87,10.87,0,0,0,75,25.82a3.06,3.06,0,0,0,.76.88c.14.07.35-.07.48-.11L75.59,26l-1.3-1.33Z" fill="#ffce7a"/>
      <path d="M24,23.68v.1h0Z" fill="#6cdaf8"/>
      <path d="M73.62,23.68c.41,1.24,1.86,1.91,2.59,2.91-.75.17-1.44.59-2.17.83-.19.06-.6.27-.78.12s-.1-.29-.12-.42a6.88,6.88,0,0,1,0-1.2h0a13.08,13.08,0,0,1-1,2.84c-.13.28-.27.56-.41.83,0,.1-.15.23-.13.34s.27.34.38.47a6.9,6.9,0,0,1,.74,1,7.44,7.44,0,0,1,.94,3.14,13.38,13.38,0,0,1-.06,2.61c0,.23-.23.78-.1,1s.49.22.65.28c.58.23,1.14.48,1.7.74a29.79,29.79,0,0,1,3.66,2.05,19.19,19.19,0,0,0,1.77,1.22c.33-1.2.92-2.36,1.32-3.55a35.5,35.5,0,0,0,1.76-7.68c.18-1.77,0-3.89-1.84-4.8a6,6,0,0,0-1.9-.5,13.48,13.48,0,0,0-3.29.29v0c.71-.09,1.42-.31,2.11-.45a10.4,10.4,0,0,1,3.81-.12v0a7,7,0,0,0-4.36,0c-.49.14-1,.29-1.45.46-.16.05-.44.22-.61.19s-.65-.47-.88-.64C75.17,25,74.46,24.24,73.62,23.68Z" fill="#ff6969"/>
      <path d="M23.05,23.78v.1h0Z" fill="#a4fdff"/>
      <path d="M24,23.87v0Z" fill="#809bb5"/>
      <path d="M23,23.89l0,0Z" fill="#406890"/>
      <path d="M23.08,23.92a2.24,2.24,0,0,0-.72.41,4.34,4.34,0,0,0-1.2,1c-.26.34-.5.7,0,1,.15.09.38-.13.51-.21l1.14-.76c.13-.09.37-.19.42-.35S23.11,24.22,23.08,23.92Z" fill="#00366b"/>
      <path d="M24,23.94v0Z" fill="#406890"/>
      <path d="M73.69,24a3.87,3.87,0,0,0,.88,1.44,2.63,2.63,0,0,0,.47.53l-.65-.9Z" fill="#ff6969"/>
      <path d="M23.08,24v.1h0l0-.1m.84.09,0,0Z" fill="#809bb5"/>
      <path d="M23.92,24.14l0,0Z" fill="#406890"/>
      <path d="M45.66,24.12a2.31,2.31,0,0,0,.39.84,5,5,0,0,0,1.4.51c.63.23,1.23.5,1.84.78a6.78,6.78,0,0,0,.86.41v0l-3-1.76Z" fill="#fff680"/>
      <path d="M23.12,24.18v.1h0Z" fill="#8fa7be"/>
      <path d="M23.89,24.27v0Z" fill="#809bb5"/>
      <path d="M23.89,24.34v0Z" fill="#406890"/>
      <path d="M23.15,24.38v.1h0l0-.1m.69.07v.1h0Z" fill="#8fa7be"/>
      <path d="M21.63,24.58l-.86.62-.37.2L20,25.19l-.86-.57.58.83.23.36-.21.34-.6.84.86-.56.38-.21.38.22.83.55a4.73,4.73,0,0,0-.59-.84c-.07-.1-.21-.23-.2-.36C20.9,25.36,21.65,25,21.63,24.58Z" fill="#fff"/>
      <path d="M23.19,24.58v.1h0l0-.1m.62.07v.1h0Z" fill="#8fa7be"/>
      <path d="M23.22,24.78v.11h0Z" fill="#9fb4c8"/>
      <path d="M23.77,24.85V25h0Z" fill="#8fa7be"/>
      <path d="M21.48,24.9h0Z" fill="#2499b5"/>
      <path d="M21.42,24.92l0,0Z" fill="#51d7e3"/>
      <path d="M21.39,25l0,0Z" fill="#6da6be"/>
      <path d="M23.26,25v.1h0Z" fill="#a7e9fb"/>
      <path d="M23.77,25l-.24,1.47h0L23.26,25l-2.08,1.33.45.64c-.18-.11-.48-.42-.69-.41s-.55.32-.73.44c-.58.39-1.17.79-1.76,1.17-.18.12-.65.33-.71.54a2.43,2.43,0,0,0,0,.66c0,.42,0,.85,0,1.27-.07,1.41-.12,2.81-.14,4.21,0,.39,0,.82,0,1.21a2.23,2.23,0,0,0,0,.89c.06.14.27.25.4.34l1,.71,3.15,2.26L23,41c.12.08.26.24.41.27s.83-.51,1-.65c1-.72,2-1.43,3-2.16l1.42-1c.16-.11.47-.26.55-.44a1.9,1.9,0,0,0,0-.63c0-.54,0-1.09,0-1.63-.1-1.37,0-2.75-.07-4.11,0-.46,0-.92,0-1.37,0-.16.05-.42,0-.55a1.42,1.42,0,0,0-.48-.35l-1-.7-2.66-1.78A6.85,6.85,0,0,0,23.77,25Z" fill="#14c4f4"/>
      <path d="M46,25c.18.53.43,1.05.6,1.6.07.21.11.62.28.78s.72.17,1,.24a16.39,16.39,0,0,1,2.15.71,26.49,26.49,0,0,1,7.43,4.48,6.31,6.31,0,0,1,2.24,3.48l2.53-.1c0-1.21.31-2.4.31-3.61,0-.3.12-1-.15-1.22s-.56.46-.64.62a17.06,17.06,0,0,0-1.15,2.67,53.66,53.66,0,0,0-9.19-7.22,23.77,23.77,0,0,0-3.6-1.81A9.48,9.48,0,0,0,46,25Z" fill="#ff7069"/>
      <path d="M23.74,25.05v.1h0Z" fill="#98e5fa"/>
      <path d="M21.28,25.09l0,0Z" fill="#809bb5"/>
      <path d="M23.29,25.19v.1h0l0-.1m.41.06v.1h0Z" fill="#a7e9fb"/>
      <path d="M21.11,25.32l0,0Z" fill="#809bb5"/>
      <path d="M23.32,25.39v.1h0l0-.1m.35.06v.1h0Z" fill="#a7e9fb"/>
      <path d="M81.57,25.45v0h.8Z" fill="#ff9470"/>
      <path d="M77.35,26.19v0c.42,0,.83-.17,1.25-.22a7.14,7.14,0,0,1,3.91.43A3.77,3.77,0,0,1,84.44,30a25.5,25.5,0,0,1-1.39,7.58c-.38,1.16-.76,2.31-1.19,3.45-.13.33-.26.67-.4,1a1.11,1.11,0,0,0-.15.43c0,.24.68.63.88.74l2.15-5.08h0l-.2,1.3-.61,2.94-.28,1.17-.1.5.33.34.79.73A29.49,29.49,0,0,0,85.87,30.6c-.29-1.68-.67-4.07-2.44-4.93a4,4,0,0,0-1.65-.18A23,23,0,0,0,77.35,26.19Z" fill="#ffbf77"/>
      <path d="M20.94,25.55l0,0Z" fill="#809bb5"/>
      <path d="M23.64,25.65v.1h0Z" fill="#a7e9fb"/>
      <path d="M83.51,25.72v0l.9.74A1.56,1.56,0,0,0,83.51,25.72Z" fill="#fff680"/>
      <path d="M75.07,26l.11.14Z" fill="#ff6969"/>
      <path d="M20.9,26l0,0,0,0m-1.07.06,0,0Z" fill="#809bb5"/>
      <path d="M20.46,26.19l0,0,0,0m-.18,0,0,0Z" fill="#8fa7be"/>
      <path d="M21.08,26.22l0,0,0,0m-1.42.07,0,0Z" fill="#809bb5"/>
      <path d="M20.59,26.29l0,0Z" fill="#708eac"/>
      <path d="M20.14,26.32l0,0Z" fill="#809bb5"/>
      <path d="M20.7,26.35l0,0Z" fill="#8fa7be"/>
      <path d="M20.84,26.46l0,0,0,0m-.94,0,0,0,0,0m-.41,0,0,0Z" fill="#809bb5"/>
      <path d="M46.63,26.58l0,0Z" fill="#ffbdbd"/>
      <path d="M73.07,26.56c.08.4-.07,1,.48,1A2.18,2.18,0,0,0,73.07,26.56Z" fill="#ffce7a"/>
      <path d="M14.44,26.62c0,4.2-.58,8.4-.59,12.6a11,11,0,0,0,1.73-1.39,2.94,2.94,0,0,0,.69-.62c.08-.14,0-.34,0-.5.05-.52,0-1.05.07-1.57.11-1.53.1-3.07.17-4.61,0-.5.07-1,.07-1.5a1.81,1.81,0,0,0,0-.57c-.1-.22-.45-.42-.64-.58A14.11,14.11,0,0,0,14.44,26.62Z" fill="#14c4f4"/>
      <path d="M32.62,26.62,31.1,27.89l-.63.58,0,.52,0,1.27.1,4.75,0,1.5,0,.7.73.65L33,39.22c0-3-.14-5.94-.28-8.89,0-.8-.07-1.61-.07-2.41A3.54,3.54,0,0,0,32.62,26.62Z" fill="#1d71d6"/>
      <path d="M19.38,26.66l0,0Z" fill="#708eac"/>
      <path d="M19.66,26.66l0,0Z" fill="#809bb5"/>
      <path d="M19.31,26.76l0,0Z" fill="#8fa7be"/>
      <path d="M14.41,26.79v.37h0Z" fill="#0a7db0"/>
      <path d="M19.42,26.82l0,0Z" fill="#809bb5"/>
      <path d="M43.87,26.88v0Z" fill="#809ac2"/>
      <path d="M19.21,26.89l0,0,0,0m.07,0,0,0Z" fill="#708eac"/>
      <path d="M19.16,27h0Z" fill="#8fa7be"/>
      <path d="M21.63,27l0,0Z" fill="#e2f8fe"/>
      <path d="M4.12,27.05v0m0,.1v0m0,.1v0m0,.1v0Z" fill="#809ac2"/>
      <path d="M46.9,27.39l.8,4.08,1.52-.6,2.42-1-2.32,7.18-.59,2.24a9.19,9.19,0,0,0,1.11-.5c.64-.28,1.31-.54,2-.79a29.73,29.73,0,0,1,5.36-1.39,16.34,16.34,0,0,1,2.69-.33v0h-.14c-.12-1.51-1.51-2.93-2.62-3.85A23.33,23.33,0,0,0,46.9,27.39Z" fill="#ff7f69"/>
      <path d="M4,27.45v0Z" fill="#809ac2"/>
      <path d="M14.37,27.52v.37h0Z" fill="#0a7db0"/>
      <path d="M85,27.52l0,.14h0Z" fill="#ff7f6d"/>
      <path d="M44.11,27.58v0Z" fill="#809ac2"/>
      <path d="M47,27.71v0Z" fill="#ffbdb4"/>
      <path d="M85.1,27.69l0,.13h0Z" fill="#ff7f6d"/>
      <path d="M3.84,27.88v0Z" fill="#8da4c8"/>
      <path d="M44.22,27.91v0m-40.45.2v0m40.51,0,0,0Z" fill="#809ac2"/>
      <path d="M14.34,28.26v.37h0Z" fill="#0a7db0"/>
      <path d="M44.35,28.38l0,0,0,0m-40.68.1v0Z" fill="#8da4c8"/>
      <path d="M16.62,28.46V29h0Z" fill="#0a7db0"/>
      <path d="M44.39,28.51v0m-40.76.11v0Z" fill="#809ac2"/>
      <path d="M47.22,28.68v0Z" fill="#ffbfb4"/>
      <path d="M3.6,28.75v0m0,.13v0m40.93,0v0Z" fill="#809ac2"/>
      <path d="M3.52,29v.1h0Z" fill="#8da4c8"/>
      <path d="M14.3,29v.37h0Z" fill="#0a7db0"/>
      <path d="M17.69,29v.5h0Z" fill="#055a8d"/>
      <path d="M44.53,29.05v0Z" fill="#8da4c8"/>
      <path d="M3.48,29.13v.1h0Z" fill="#a6b8d4"/>
      <path d="M77.7,38.88a6.26,6.26,0,0,0,1-1.94A13.33,13.33,0,0,0,80,32.84a4.2,4.2,0,0,0-.23-2.14,2.8,2.8,0,0,0-1-1.26,2,2,0,0,0-2.8.66c-.2.49.31.71.62,1a4.94,4.94,0,0,1,1.22,1.84C78.51,34.89,78.12,36.92,77.7,38.88Z" fill="#fff680"/>
      <path d="M28.65,29.19c-2.31,1.66-4.53,3.45-6.78,5.19a33.9,33.9,0,0,1-3.11,2.36v.07c1.14.75,2.24,1.56,3.35,2.34l.9.64c.12.08.27.23.42.24s.49-.29.65-.4l1.73-1.21,2-1.39a3.29,3.29,0,0,0,.87-.63c.08-.13,0-.38,0-.53v-5A5,5,0,0,0,28.65,29.19Z" fill="#0590e5"/>
      <path d="M29.34,29.19v.54h0Z" fill="#055a8d"/>
      <path d="M3.45,29.29v.1h0l0-.1m41.15.06v0Z" fill="#8da4c8"/>
      <path d="M3.41,29.43v.1h0Z" fill="#a6b8d4"/>
      <path d="M16.58,29.43v.47h0Z" fill="#055a8d"/>
      <path d="M44.62,29.46v.1h0Z" fill="#a6b8d4"/>
      <path d="M17.69,29.49v.31h0Z" fill="#0fa1d2"/>
      <path d="M30.45,29.49v.81h0Z" fill="#0f54a1"/>
      <path d="M3.38,29.59v.11h0Z" fill="#a6b8d4"/>
      <path d="M14.27,29.73v.37h0l0-.37m15.07,0v.5h0Z" fill="#0a7db0"/>
      <path d="M68.06,29.73a28.22,28.22,0,0,1-1.62,4.51,15.68,15.68,0,0,0-.94,2.1c.26,0,.9.23,1.11.07s.14-.29.18-.4c.12-.35.23-.71.33-1.07A23.09,23.09,0,0,0,68,31.1C68,30.71,68.21,30.09,68.06,29.73Z" fill="#fff680"/>
      <path d="M3.34,29.76v.1h0l0-.1m41.35,0v.1h0Z" fill="#a6b8d4"/>
      <path d="M51.6,29.9c-.92.42-1.89.75-2.83,1.14-.26.1-.88.22-1,.45s0,.57,0,.74c.06.64,0,1.3,0,1.94a17.48,17.48,0,0,1-.43,3.88,15.77,15.77,0,0,0-.57,2.3l1.34-.72.56-.3.18-.62.39-1.4,1.45-4.71.65-1.94Z" fill="#ff7069"/>
      <path d="M3.32,30v0m41.41,0,0,0Z" fill="#9aaece"/>
      <path d="M17.66,30v.53h0Z" fill="#055a8d"/>
      <path d="M3.27,30.13v.13h0Z" fill="#6786b6"/>
      <path d="M44.76,30.2v.1h0Z" fill="#809ac2"/>
      <path d="M29.34,30.23v.5h0Z" fill="#0fa1d2"/>
      <path d="M75.87,30.26v.2h0Z" fill="#ffb075"/>
      <path d="M85.82,30.3c.14,1,.33,2.08.38,3.14a27,27,0,0,1-.49,6.34c-.23,1.22-.53,2.42-.88,3.61-.11.38-.23.76-.35,1.14a1.26,1.26,0,0,0-.15.5c0,.18.26.34.38.46a8.17,8.17,0,0,0,1.22,1.27,20.56,20.56,0,0,0,.93-3.17,20.72,20.72,0,0,0,.61-9.32,11.68,11.68,0,0,0-1-3A3.37,3.37,0,0,0,85.82,30.3Z" fill="#ff6969"/>
      <path d="M3.24,30.36v.1h0Z" fill="#8da4c8"/>
      <path d="M16.55,30.36v.47h0Z" fill="#055a8d"/>
      <path d="M44.79,30.4v.1h0Z" fill="#809ac2"/>
      <path d="M68,30.4v.16h0Z" fill="#ffb075"/>
      <path d="M14.23,30.46v.37h0Z" fill="#0a7db0"/>
      <path d="M3.21,30.53v.1h0Z" fill="#b3c2da"/>
      <path d="M17.66,30.56v.27h0Z" fill="#0fa1d2"/>
      <path d="M44.83,30.56v.1h0Z" fill="#b3c2da"/>
      <path d="M68,30.7v.16h0Z" fill="#ffb075"/>
      <path d="M3.17,30.76v.17h0Z" fill="#6786b6"/>
      <path d="M47.59,30.76v.14h0Z" fill="#ffbfb4"/>
      <path d="M44.86,30.8v.1h0Z" fill="#a6b8d4"/>
      <path d="M3.14,31v.13h0Z" fill="#8da4c8"/>
      <path d="M44.9,31v.1h0Z" fill="#b3c2da"/>
      <path d="M17.62,31.1v.27h0Z" fill="#055a8d"/>
      <path d="M30.48,31.1v.8h0Z" fill="#0f54a1"/>
      <path d="M14.2,31.2v.37h0Z" fill="#0a7db0"/>
      <path d="M29.37,31.27v.5h0l0-.5m-12.86,0v.47h0Z" fill="#055a8d"/>
      <path d="M44.93,31.3v.2h0Z" fill="#9aaece"/>
      <path d="M3.1,31.33v.14h0Z" fill="#6786b6"/>
      <path d="M17.62,31.37v.26h0Z" fill="#0a7db0"/>
      <path d="M47.66,31.37v.23h0Z" fill="#ffbab4"/>
      <path d="M70.89,31.5a12,12,0,0,1,.17,1.2,7.84,7.84,0,0,1-.52,2.74c-.13.39-.28.78-.43,1.17,0,.11-.18.34-.11.45s.43.16.58.2c.56.15,1.1.33,1.66.49,0-.41.18-.81.25-1.21a6.7,6.7,0,0,0-.12-3.5A2.3,2.3,0,0,0,70.89,31.5Z" fill="#fffcce"/>
      <path d="M3.07,31.63v.2h0Z" fill="#6786b6"/>
      <path d="M17.62,31.63v.27h0Z" fill="#0fa1d2"/>
      <path d="M45,31.67v.16h0Z" fill="#6786b6"/>
      <path d="M47.7,31.7V32h0Z" fill="#ffdbda"/>
      <path d="M29.37,31.77v.5h0l0-.5m-15.21.16v.37h0Z" fill="#0a7db0"/>
      <path d="M16.48,32v.26h0Z" fill="#0fa1d2"/>
      <path d="M80,32v.53h0Z" fill="#ffb075"/>
      <path d="M3,32v.23h0Z" fill="#9aaece"/>
      <path d="M45,32v.2h0Z" fill="#6786b6"/>
      <path d="M47.73,32.13v.27h0Z" fill="#ffb8b4"/>
      <path d="M17.59,32.17v.26h0l0-.26m-1.11.06v.47h0Z" fill="#055a8d"/>
      <path d="M29.37,32.27v.53h0Z" fill="#0fa1d2"/>
      <path d="M3,32.37v.13H3l0-.13m42,0v.13h0Z" fill="#ccd7e7"/>
      <path d="M17.59,32.43v.27h0Z" fill="#0a7db0"/>
      <path d="M3,32.5v.17H3l0-.17m42,0v.17h0Z" fill="#9aaece"/>
      <path d="M3,32.67v.2H3Z" fill="#6786b6"/>
      <path d="M14.13,32.67V33h0Z" fill="#0a7db0"/>
      <path d="M45,32.67v.17h0Z" fill="#6786b6"/>
      <path d="M17.59,32.7V33h0Z" fill="#0fa1d2"/>
      <path d="M30.51,32.73v.81h0Z" fill="#0f54a1"/>
      <path d="M80,32.73v.21h0Z" fill="#ffb075"/>
      <path d="M47.76,32.77v.53h0Z" fill="#ffb8b4"/>
      <path d="M45.07,33.07v.3h0l0-.3M3,33.14V34.2H3Z" fill="#ccd7e7"/>
      <path d="M16.45,33.14v.46h0l0-.46m1.1.1v.26h0l0-.26m11.86.06v.54h0Z" fill="#055a8d"/>
      <path d="M47.76,33.3v.8h0Z" fill="#ffdbda"/>
      <path d="M45.07,33.37V34h0Z" fill="#9aaece"/>
      <path d="M14.09,33.4v.37h0l0-.37m3.46.1v.27h0Z" fill="#0a7db0"/>
      <path d="M17.55,33.77V34h0Z" fill="#0fa1d2"/>
      <path d="M29.41,33.84v.5h0Z" fill="#0a7db0"/>
      <path d="M45.07,34v.33h0Z" fill="#ccd7e7"/>
      <path d="M16.41,34.07v.47h0Z" fill="#055a8d"/>
      <path d="M47.76,34.1v.54h0Z" fill="#ffb8b4"/>
      <path d="M14.06,34.14v.37h0Z" fill="#0a7db0"/>
      <path d="M17.52,34.3v.27h0Z" fill="#055a8d"/>
      <path d="M78.12,34.3v.14h0Z" fill="#ffb075"/>
      <path d="M29.41,34.34v.5h0Z" fill="#0fa1d2"/>
      <path d="M30.55,34.34v.8h0Z" fill="#0f54a1"/>
      <path d="M3,34.47v.2H3Z" fill="#6786b6"/>
      <path d="M17.52,34.57v.27h0Z" fill="#0a7db0"/>
      <path d="M45,34.57v.17h0Z" fill="#6786b6"/>
      <path d="M3,34.67v.17H3l0-.17m42,.07v.17h0Z" fill="#9aaece"/>
      <path d="M3,34.84V35H3Z" fill="#ccd7e7"/>
      <path d="M17.52,34.84v.27h0Z" fill="#0fa1d2"/>
      <path d="M14,34.87v.37h0Z" fill="#0a7db0"/>
      <path d="M45,34.91V35h0Z" fill="#ccd7e7"/>
      <path d="M73.69,34.94v1.27h0A3.59,3.59,0,0,0,73.69,34.94Z" fill="#ffd37a"/>
      <path d="M47.73,35v.27h0Z" fill="#ffb8b4"/>
      <path d="M16.38,35v.46h0Z" fill="#055a8d"/>
      <path d="M3,35.11v.23h0Z" fill="#9aaece"/>
      <path d="M45,35.14v.23h0Z" fill="#6786b6"/>
      <path d="M29.44,35.34v.53h0l0-.53m-12,0v.5h0Z" fill="#055a8d"/>
      <path d="M3.07,35.54v.17h0l0-.17m41.89,0v.17h0Z" fill="#9aaece"/>
      <path d="M14,35.61V36h0Z" fill="#0a7db0"/>
      <path d="M3.1,35.87V36h0Z" fill="#9aaece"/>
      <path d="M17.48,35.87v.31h0Z" fill="#0fa1d2"/>
      <path d="M29.44,35.87v.51h0Z" fill="#0a7db0"/>
      <path d="M44.93,35.91V36h0Z" fill="#9aaece"/>
      <path d="M16.34,35.94v.47h0Z" fill="#055a8d"/>
      <path d="M30.58,36v.81h0Z" fill="#0f54a1"/>
      <path d="M78.15,36.11v.23h0Z" fill="#ffb075"/>
      <path d="M3.14,36.18v.13h0Z" fill="#a6b8d4"/>
      <path d="M44.9,36.18v.13h0Z" fill="#9aaece"/>
      <path d="M61.52,36.18v0h.35Z" fill="#ff8e8e"/>
      <path d="M61.87,36.18v0H63Z" fill="#febcb4"/>
      <path d="M60.87,36.21v0h.41Z" fill="#fed8d9"/>
      <path d="M46.76,40.32a3.67,3.67,0,0,1-.86.57c-.51.31-1,.64-1.49,1a33.33,33.33,0,0,0-4.28,3.66,29.4,29.4,0,0,0-8.26,18.74,27.3,27.3,0,0,0,.9,8.72,28.52,28.52,0,0,0,3.89,8.71A30,30,0,0,0,43,88.64a31.36,31.36,0,0,0,9.09,5A32,32,0,0,0,75.8,92.42a28.27,28.27,0,0,0,8.82-6.24c.84-.92,1.7-1.82,2.45-2.81a28.75,28.75,0,0,0-.69-36.07,31.22,31.22,0,0,0-8.47-7.07,31.67,31.67,0,0,0-23.09-3.12A31.19,31.19,0,0,0,49.39,39c-.58.26-1.17.55-1.73.85A2.75,2.75,0,0,1,46.76,40.32Z" fill="#fdfdfe"/>
      <path d="M63.63,36.21v0H64l-.38,0m-3.32,0v0h.24l-.24,0m4,0v0h.28l-.28,0m.52,0v0h.21l-.21,0m.42,0v0h.24Z" fill="#feb3b4"/>
      <path d="M14,36.34v.37h0Z" fill="#0a7db0"/>
      <path d="M29.44,36.38v.53h0Z" fill="#0fa1d2"/>
      <path d="M17.45,36.41v.3h0Z" fill="#055a8d"/>
      <path d="M3.17,36.44v.1h0Z" fill="#809ac2"/>
      <path d="M44.86,36.44v.17h0Z" fill="#b3c2da"/>
      <path d="M66.74,36.48v0h.18Z" fill="#fea1a1"/>
      <path d="M73.66,36.48v.23h0Z" fill="#ffb075"/>
      <path d="M67.23,36.54v0h.1Z" fill="#feb3b4"/>
      <path d="M67.43,36.58v0h.11Z" fill="#febcbd"/>
      <path d="M16.31,36.61v.27h0Z" fill="#0fa1d2"/>
      <path d="M3.21,36.68v.1h0l0-.1m41.62,0v.1h0Z" fill="#809ac2"/>
      <path d="M17.45,36.71V37h0Z" fill="#0a7db0"/>
      <path d="M16.31,36.88v.33h0Z" fill="#055a8d"/>
      <path d="M73.62,36.88V37h0Z" fill="#ffb075"/>
      <path d="M3.24,36.94V37h0l0-.1m41.55,0V37h0Z" fill="#b3c2da"/>
      <path d="M47.52,36.94v.17h0Z" fill="#ffa6a1"/>
      <path d="M13.92,37.08v.36h0Z" fill="#0a7db0"/>
      <path d="M3.27,37.11v.1h0Z" fill="#9aaece"/>
      <path d="M73.59,37.21v.13h0Z" fill="#ffb075"/>
      <path d="M44.73,37.33l0,0Z" fill="#9aaece"/>
      <path d="M3.34,37.48v.1h0Z" fill="#8da4c8"/>
      <path d="M44.69,37.48v.1h0Z" fill="#9aaece"/>
      <path d="M3.38,37.65v.1h0Z" fill="#8da4c8"/>
      <path d="M44.65,37.65v.1h0Z" fill="#9aaece"/>
      <path d="M3.41,37.81v.1h0Z" fill="#8da4c8"/>
      <path d="M13.89,37.81v.37h0Z" fill="#0a7db0"/>
      <path d="M44.62,37.81v.1h0Z" fill="#9aaece"/>
      <path d="M13.85,39.45v.07c2.28,1.58,4.47,3.28,6.71,4.9a27.9,27.9,0,0,0,2.73,2,24.72,24.72,0,0,0-.2-3c0-.26.06-.72-.08-1a4.28,4.28,0,0,0-1.14-.86l-2.69-1.94-1.77-1.28c-.18-.13-.49-.45-.72-.46s-.6.29-.8.4A22.41,22.41,0,0,1,13.85,39.45Z" fill="#1d71d6"/>
      <path d="M23.5,46.4a30.66,30.66,0,0,0,3-2.18c2.16-1.57,4.3-3.18,6.5-4.7v-.07a20.4,20.4,0,0,1-1.94-1.08,2.42,2.42,0,0,0-.86-.44c-.23,0-.55.33-.73.45-.58.43-1.17.85-1.76,1.26-.94.66-1.87,1.33-2.8,2-.31.22-.92.5-1.11.82a3.39,3.39,0,0,0-.11,1.06A23.13,23.13,0,0,0,23.5,46.4Z" fill="#0457aa"/>
      <path d="M3.45,38v.1h0Z" fill="#9aaece"/>
      <path d="M44.58,38v.1h0Z" fill="#a6b8d4"/>
      <path d="M47.35,38v.1h0Z" fill="#ffb8b4"/>
      <path d="M84.34,38.08c-.59,1.21-1.09,2.47-1.61,3.71l-.39,1c0,.11-.15.27-.12.4s.71.68.94.83l.33-1.33.59-2.78.22-1.2Z" fill="#9c964e"/>
      <path d="M44.56,38.14v0Z" fill="#8da4c8"/>
      <path d="M3.49,38.17l0,0Z" fill="#a6b8d4"/>
      <path d="M3.52,38.28v.1h0Z" fill="#9aaece"/>
      <path d="M44.53,38.3v0m-.05.11v.1h0Z" fill="#a6b8d4"/>
      <path d="M47.26,38.5v0Z" fill="#ffb8b4"/>
      <path d="M13.85,38.55v.36h0Z" fill="#0a7db0"/>
      <path d="M44.46,38.57v0Z" fill="#9aaece"/>
      <path d="M3.6,38.6v0Z" fill="#b3c2da"/>
      <path d="M44.42,38.7v0Z" fill="#9aaece"/>
      <path d="M3.63,38.74v0Z" fill="#b3c2da"/>
      <path d="M44.39,38.84v0Z" fill="#a6b8d4"/>
      <path d="M44.35,39l0,0Z" fill="#b3c2da"/>
      <path d="M60.69,39v0h.9Z" fill="#f9ecc1"/>
      <path d="M61.59,39v0h2l-.66,0Z" fill="#9fe59f"/>
      <path d="M63.6,39v0h.9Z" fill="#f9ecc1"/>
      <path d="M60.55,39v0h.14Z" fill="#f8e3a3"/>
      <path d="M59.31,39.11v0L60.9,39h3.6A4.74,4.74,0,0,0,63,39c-.74,0-1.5,0-2.24,0C60.3,39,59.81,39.11,59.31,39.11Z" fill="#cac639"/>
      <path d="M64.5,39v0h.13Z" fill="#f8e3a3"/>
      <path d="M59.93,39v0h.35Z" fill="#f9ecc1"/>
      <path d="M60.28,39v0h.27Z" fill="#bde7ab"/>
      <path d="M35.29,61.43h-.11c0,1.1-.22,2.2-.31,3.3A20.19,20.19,0,0,0,35,68.54a28.37,28.37,0,0,0,1.25,5.75A27.58,27.58,0,0,0,44.48,86a25.47,25.47,0,0,0,5.46,3.58c.47.23.93.46,1.4.66a2.24,2.24,0,0,0,.64.23c.05.15.21.13.35.13.05.17.52.25.69.3.71.24,1.42.45,2.14.67a16.73,16.73,0,0,0,2.32.47,29.22,29.22,0,0,0,3.25.46,36.17,36.17,0,0,0,4.66-.13,29.35,29.35,0,0,0,3.36-.53c.19,0,.4,0,.59,0,.42-.1.82-.3,1.24-.41a25,25,0,0,0,6.88-3A26.56,26.56,0,0,0,89.84,70.62a24.82,24.82,0,0,0,0-9.79,20.94,20.94,0,0,0-.54-2.21c-.06-.18,0-.6-.25-.67a4.22,4.22,0,0,0-.27-.9,15.42,15.42,0,0,0-1.33-3.14,27,27,0,0,0-8.23-9.56,28.17,28.17,0,0,0-8.66-4.29,29.32,29.32,0,0,0-17.73.58A28,28,0,0,0,39.1,51.56,24,24,0,0,0,35.77,59,11.33,11.33,0,0,0,35.29,61.43Z" fill="#efb80b"/>
      <path d="M64.63,39v0h.18Z" fill="#bee8ab"/>
      <path d="M64.81,39v0h.52Z" fill="#f9ecc1"/>
      <path d="M59.79,39.05v0h.14Z" fill="#f8e3a3"/>
      <path d="M64.63,39.05v0h.7Z" fill="#cbc739"/>
      <path d="M65.33,39.05v0h.13Z" fill="#f8e3a3"/>
      <path d="M3.74,39.1v0Z" fill="#a6b8d4"/>
      <path d="M59.31,39.08v0h.35Z" fill="#f9ecc1"/>
      <path d="M59.66,39.08v0h.13Z" fill="#a8df8d"/>
      <path d="M65.33,39.08v.07h.55Z" fill="#d5c83c"/>
      <path d="M65.46,39.08v0h.42Z" fill="#f9ecc1"/>
      <path d="M59.17,39.11v0h.14Z" fill="#f8e3a3"/>
      <path d="M65.88,39.11v0H66Z" fill="#f9eab9"/>
      <path d="M58.76,39.15v0H59Z" fill="#f9ecc1"/>
      <path d="M59,39.15v0h.17Z" fill="#ade5a5"/>
      <path d="M65.88,39.15v.07h.62Z" fill="#cbc739"/>
      <path d="M66,39.15v0h.13Z" fill="#bfe9aa"/>
      <path d="M66.15,39.15v0h.35Z" fill="#f9ecc1"/>
      <path d="M44.28,39.2l0,0Z" fill="#a6b8d4"/>
      <path d="M58.62,39.18v0h.14Z" fill="#f8e3a3"/>
      <path d="M58.76,39.18v0h.41Z" fill="#c9c639"/>
      <path d="M66.5,39.18v0h.14Z" fill="#f8e3a3"/>
      <path d="M47.08,39.24l0,0Z" fill="#ffafab"/>
      <path d="M58.27,39.22v0h.31Z" fill="#f9ecc1"/>
      <path d="M58.27,39.25v0h.49v-.06Z" fill="#c9c639"/>
      <path d="M66.5,39.22v.06H67Z" fill="#cbc738"/>
      <path d="M66.64,39.22v0H67Z" fill="#f9ecc1"/>
      <path d="M58.13,39.25v0h.14l-.14,0m8.85,0v0h.14Z" fill="#f8e3a3"/>
      <path d="M57.86,39.28v0h.27Z" fill="#f9ecc1"/>
      <path d="M57.72,39.32v0h.14Z" fill="#f8e3a3"/>
      <path d="M57.86,39.32v0h.27Z" fill="#c9c639"/>
      <path d="M67.33,39.32v0h.14Z" fill="#f8e3a3"/>
      <path d="M47.05,39.37v0Z" fill="#ffafab"/>
      <path d="M57.51,39.35v0h.18Z" fill="#f9ecc1"/>
      <path d="M57.51,39.38v0h.35v-.07Z" fill="#c9c639"/>
      <path d="M57.37,39.38v0h.14Z" fill="#f8e3a3"/>
      <path d="M44.22,39.44v0Z" fill="#b3c2da"/>
      <path d="M56.48,39.58v0l.72-.14Z" fill="#b6cc50"/>
      <path d="M56.82,39.48v0H57Z" fill="#f9ecc1"/>
      <path d="M3.87,39.57l0,0Z" fill="#a6b8d4"/>
      <path d="M56.48,39.55v0h.17Z" fill="#f9ecc1"/>
      <path d="M56.34,39.58v0h.14l-.14,0m12.37,0v0h.14Z" fill="#f8e3a3"/>
      <path d="M56.2,39.62v0h.14Z" fill="#f9ecc1"/>
      <path d="M56.06,39.65v0h.14Z" fill="#f8e3a3"/>
      <path d="M69,39.65v0h.14Z" fill="#e6e29b"/>
      <path d="M55.51,39.82v0l.69-.13Z" fill="#c2cc54"/>
      <path d="M44.11,39.77v0Z" fill="#b3c2da"/>
      <path d="M69.54,39.78v0h.14Z" fill="#e6e29b"/>
      <path d="M55.37,39.82v0h.14Z" fill="#f9ecc1"/>
      <path d="M44.08,39.87v0Z" fill="#b3c2da"/>
      <path d="M46.91,39.87v0Z" fill="#ffafab"/>
      <path d="M55.23,39.85v0h.14Z" fill="#f8e3a3"/>
      <path d="M69.82,39.85v0H70Z" fill="#f1e3a0"/>
      <path d="M54.89,40v0L55.2,40Z" fill="#cdc53c"/>
      <path d="M4,40v0Z" fill="#b3c2da"/>
      <path d="M54.75,40v0h.14Z" fill="#f8e3a3"/>
      <path d="M70.3,40v0h.14Z" fill="#ece29e"/>
      <path d="M54.71,40v0h.18Z" fill="#b5cb51"/>
      <path d="M70.58,40.05v0l.17,0Z" fill="#f8e3a3"/>
      <path d="M4.05,40.11v0Z" fill="#b3c2da"/>
      <path d="M70.75,40.12v0h.18Z" fill="#f8e3a3"/>
      <path d="M4.08,40.21v0Z" fill="#b3c2da"/>
      <path d="M54.06,40.18v0h.13l-.13,0m16.9,0v0h.17l-.17,0m-17.11.07v0H54Z" fill="#f8e3a3"/>
      <path d="M71.2,40.25v0h.14Z" fill="#ece29e"/>
      <path d="M4.12,40.31v0Z" fill="#b3c2da"/>
      <path d="M53.64,40.32v0h.14Z" fill="#f8e3a3"/>
      <path d="M71.41,40.32v0h.14Z" fill="#ece29e"/>
      <path d="M43.9,40.37l0,0Z" fill="#b3c2da"/>
      <path d="M53.43,40.38v0h.14Z" fill="#f8e3a3"/>
      <path d="M71.62,40.38v0h.13Z" fill="#ece29e"/>
      <path d="M53.23,40.52l.13,0-.13,0m18.56-.07v0H72Z" fill="#f8e3a3"/>
      <path d="M71.82,40.48v.07l1.25.44A2.33,2.33,0,0,0,71.82,40.48Z" fill="#dec022"/>
      <path d="M72,40.52v0l.28.07-.28-.1m-19.36.2.11,0-.11,0m19.91,0v0l.28.07Z" fill="#f8e3a3"/>
      <path d="M4.29,40.77v0Z" fill="#b3c2da"/>
      <path d="M52.15,40.89v0l.35-.1Z" fill="#b4ca51"/>
      <path d="M72.93,40.85v0l.28.06Z" fill="#f8e3a3"/>
      <path d="M51.84,41v0l.31-.1Z" fill="#c2c53f"/>
      <path d="M73.07,41v0l.27.06Z" fill="#bbcf4e"/>
      <path d="M51.64,41.12l.13,0-.13,0m21.81-.07v0l.24.06v0Z" fill="#f8e3a3"/>
      <path d="M51.36,41.22v0l.31-.1Z" fill="#b7ca53"/>
      <path d="M73.55,41.15v0l.28.06Z" fill="#bbcf4e"/>
      <path d="M51.15,41.32l.14,0-.14,0m22.75-.07v0l.17,0-.17-.07M51,41.39l.14,0-.14,0m23.06-.07v0l.24.07v0l-.24-.07m-23.19.13.1,0Z" fill="#f8e3a3"/>
      <path d="M74.17,41.39a.89.89,0,0,0,.56.26v0Z" fill="#bccf4e"/>
      <path d="M49.67,42v0l1.24-.56C50.58,41.42,50,41.87,49.67,42Z" fill="#b6ca53"/>
      <path d="M74.8,41.65v0l.41.16Z" fill="#f8e3a3"/>
      <path d="M75.14,41.85l.52.27v0Z" fill="#bccf4e"/>
      <path d="M49.63,42.05l.1,0-.1,0m-.14.07.11,0Z" fill="#f8e3a3"/>
      <path d="M49.53,42.09v0l.14,0Z" fill="#b2c952"/>
      <path d="M75.59,42.05v0l.11,0Z" fill="#f2e3a0"/>
      <path d="M49.35,42.19l.11,0Z" fill="#f8e3a3"/>
      <path d="M49.39,42.15v0l.14,0Z" fill="#b2c952"/>
      <path d="M75.73,42.12v0l.14,0v0Z" fill="#f8e3a3"/>
      <path d="M49.15,42.29l.17-.07Z" fill="#f8e4a6"/>
      <path d="M48.91,42.42v0l.48-.24Z" fill="#b6c953"/>
      <path d="M75.87,42.19v0l.24.1Z" fill="#f2e3a0"/>
      <path d="M76.11,42.32v0l.14,0v0Z" fill="#f8e4a6"/>
      <path d="M48.87,42.46l.1,0-.1,0m-.14.06.11,0Z" fill="#f8e3a3"/>
      <path d="M48.77,42.49v0l.14,0Z" fill="#b2c852"/>
      <path d="M76.35,42.46v0l.14,0v0Z" fill="#f8e3a3"/>
      <path d="M48.52,42.66l.18-.1Z" fill="#f8e4a6"/>
      <path d="M48.56,42.62v0l.21-.14Z" fill="#bdc545"/>
      <path d="M76.46,42.52l.31.2v0Z" fill="#c5cb42"/>
      <path d="M76.49,42.52v0l.17.06Z" fill="#f9e8b4"/>
      <path d="M48.39,42.72l.1,0Z" fill="#f8e3a3"/>
      <path d="M48.42,42.69v0l.14,0Z" fill="#b1c852"/>
      <path d="M76.7,42.66v0l.1,0Z" fill="#f2e3a0"/>
      <path d="M48.18,42.82l.17-.06Z" fill="#f8e4a6"/>
      <path d="M48.08,42.89v0l.34-.2Z" fill="#b9c84f"/>
      <path d="M76.84,42.72v0l.24.1v0l-.24-.1m-28.8.2.1,0Z" fill="#f8e3a3"/>
      <path d="M77,42.86a.59.59,0,0,0,.42.26v0Z" fill="#c5cc42"/>
      <path d="M47.83,43.06,48,43Z" fill="#f8e4a6"/>
      <path d="M47.87,43v0l.21-.14Z" fill="#bcc545"/>
      <path d="M77.18,42.92v0l.17.06Z" fill="#f9e8b4"/>
      <path d="M47.63,43.19l.17-.1Z" fill="#f8e4a6"/>
      <path d="M47.66,43.19l.21-.1Z" fill="#bcc546"/>
      <path d="M77.39,43.06v0l.31.17Z" fill="#f8e3a3"/>
      <path d="M47.42,43.32l.17-.1Z" fill="#f1e3a4"/>
      <path d="M47.45,43.32l.21-.1Z" fill="#bcc546"/>
      <path d="M77.74,43.26l.17.13Z" fill="#f2e095"/>
      <path d="M47.21,43.42l.17-.06Z" fill="#f1e3a4"/>
      <path d="M47,43.59l.41-.23C47.29,43.33,47.14,43.48,47,43.59Z" fill="#b4c74e"/>
      <path d="M77.91,43.39l.38.27v0Z" fill="#c5cc42"/>
      <path d="M77.94,43.39l.11.07Z" fill="#f8e4a6"/>
      <path d="M47,43.59l.18-.1Z" fill="#f1e3a4"/>
      <path d="M78.15,43.52l.1.07-.1-.07m-31.35.2.17-.1Z" fill="#f8e4a6"/>
      <path d="M46.83,43.72l.21-.1Z" fill="#bbc546"/>
      <path d="M78.25,43.59l.11.07Z" fill="#f9eab9"/>
      <path d="M78.32,43.66c.11.22.39.33.58.47a8.22,8.22,0,0,0,1.57,1.13l-.7-.58Z" fill="#c5cc42"/>
      <path d="M78.36,43.66l.14.1Z" fill="#f8e5a8"/>
      <path d="M46.59,43.86l.17-.1Z" fill="#f8e4a6"/>
      <path d="M46.62,43.86l.21-.1Z" fill="#bbc546"/>
      <path d="M78.5,43.76l.1.06Z" fill="#f9eab9"/>
      <path d="M46.31,44.06l.24-.17C46.43,43.87,46.36,44,46.31,44.06Z" fill="#f8e5a8"/>
      <path d="M46.35,44.06l.27-.2Z" fill="#b3c64f"/>
      <path d="M78.63,43.86v0l.18.07Z" fill="#f9e8b4"/>
      <path d="M78.84,44l.14.1Z" fill="#f8e5a8"/>
      <path d="M46.11,44.19l.17-.1Z" fill="#f8e4a6"/>
      <path d="M46.14,44.19l.21-.1Z" fill="#adca5d"/>
      <path d="M79,44.09l.1.07Z" fill="#f9eab9"/>
      <path d="M45.76,44.46l.31-.27Z" fill="#f8e5a8"/>
      <path d="M45.79,44.46l.35-.27Z" fill="#b3c64f"/>
      <path d="M79.12,44.19l.1.07-.1-.07m.27.2.11.07-.11-.07m-33.91.27.24-.17C45.6,44.47,45.54,44.55,45.48,44.66Z" fill="#f8e5a8"/>
      <path d="M45.52,44.66l.27-.17Z" fill="#b3c64f"/>
      <path d="M79.67,44.59l.14.1-.14-.1m-34.53.34.31-.27Z" fill="#f8e5a8"/>
      <path d="M45.17,44.93l.35-.27Z" fill="#b2c64f"/>
      <path d="M79.81,44.69l.17.14Z" fill="#faeecb"/>
      <path d="M80,44.86l.13.1-.13-.1m-35.16.27.24-.2Z" fill="#f8e5a8"/>
      <path d="M43.41,46.4,44,46l1.21-1a5,5,0,0,0-1.31,1A2.35,2.35,0,0,0,43.41,46.4Z" fill="#b2c54f"/>
      <path d="M80.15,45l.18.13Z" fill="#faeecb"/>
      <path d="M44.79,45.13v.06l.07-.06Z" fill="#e1e1a2"/>
      <path d="M80.36,45.13l.21.16-.21-.16m-36,.4.31-.27Z" fill="#f8e5a8"/>
      <path d="M80.47,45.26a1,1,0,0,0,.48.4Z" fill="#c5cb42"/>
      <path d="M80.57,45.29l.24.2Z" fill="#faeecb"/>
      <path d="M44.31,45.53v.06l.07-.06Z" fill="#e1e1a2"/>
      <path d="M80.85,45.53l.27.23-.27-.23m-37.1.53.45-.4A.77.77,0,0,0,43.75,46.06Z" fill="#f8e5a8"/>
      <path d="M81,45.66a1.5,1.5,0,0,0,.69.6Z" fill="#bece4a"/>
      <path d="M81.12,45.76l.38.34Z" fill="#faeecb"/>
      <path d="M43.69,46.06v.07l.06-.07Z" fill="#f0e3a6"/>
      <path d="M43.62,46.13v.07l.07-.07Z" fill="#e1e1a2"/>
      <path d="M81.54,46.13a6.17,6.17,0,0,0,1.35,1.3,1.24,1.24,0,0,0-.32-.37c-.27-.26-.66-.81-1-.93m-39,1.1.86-.83A1.7,1.7,0,0,0,42.51,47.23Z" fill="#f8e5a8"/>
      <path d="M42.51,47.3l.93-.9A2.44,2.44,0,0,0,42.51,47.3Z" fill="#cabf35"/>
      <path d="M42.44,47.27l-.69.83c.23-.15.72-.56.76-.83Z" fill="#b0c451"/>
      <path d="M62.53,47.37v0h.1Z" fill="#f6d570"/>
      <path d="M42.3,47.4v.07l.07-.07Z" fill="#e1e0a2"/>
      <path d="M62.49,47.43a3.78,3.78,0,0,0-.83.77l-1.8,1.74-6.18,6-2.11,2c-.25.24-.73.56-.86.87-.06.13.09.25.17.34.24.25.5.49.76.73,1,.92,1.88,1.86,2.87,2.74.22.21.43.43.65.63s.19.19.31.14a3.3,3.3,0,0,0,.8-.74l1.83-1.77,6.36-6.14,2-2c.2-.2.71-.53.77-.81,0-.12-.1-.22-.18-.3L66.43,51l-2.8-2.71-.76-.73C62.77,47.5,62.65,47.37,62.49,47.43Z" fill="#fefefe"/>
      <path d="M42.23,47.47v.06l.07-.06Z" fill="#e1e0a2"/>
      <path d="M82.92,47.5a1,1,0,0,0,.42.47Z" fill="#b0d765"/>
      <path d="M42.16,47.53v.07l.07-.07Z" fill="#f0e3a6"/>
      <path d="M89.18,51.37a3.56,3.56,0,0,0,0-.73,8.76,8.76,0,0,0,0-2.11,1.41,1.41,0,0,0-.33-.85c-.41-.39-1,.19-1.23.45-.09.1-.28.26-.27.4s.41.63.56.84A23.25,23.25,0,0,1,89.18,51.37Z" fill="#ff6969"/>
      <path d="M41.75,48l.41-.43A.75.75,0,0,0,41.75,48Z" fill="#f8e5a8"/>
      <path d="M83,47.6l.49.5A1,1,0,0,0,83,47.6Z" fill="#faeecb"/>
      <path d="M41.61,48.2l.14-.13Z" fill="#e1e0a1"/>
      <path d="M41.71,48.1,41,49l.57-.6Z" fill="#afc351"/>
      <path d="M83.54,48.17l.28.33Z" fill="#b0d765"/>
      <path d="M41.33,48.5l.28-.3Z" fill="#f8e5a8"/>
      <path d="M83.58,48.2l.34.37A.59.59,0,0,0,83.58,48.2Z" fill="#faeecb"/>
      <path d="M41,48.9l.28-.3Z" fill="#f8e5a8"/>
      <path d="M84,48.63l.17.24Z" fill="#b0d764"/>
      <path d="M40.78,49.17h0l.17-.23Z" fill="#f8e5a8"/>
      <path d="M41,49l-.65.87C40.46,49.72,41,49.17,41,49Z" fill="#aec351"/>
      <path d="M84.23,49l.18.23Z" fill="#b0d665"/>
      <path d="M84.41,49.17l.14.13-.14-.13M40.5,49.5l.21-.23Z" fill="#f8e5a8"/>
      <path d="M84.61,49.4l.14.17Z" fill="#f9e8b4"/>
      <path d="M84.65,49.5l.21.27Z" fill="#bece4b"/>
      <path d="M40.3,49.77h0l.17-.23Z" fill="#f8e5a8"/>
      <path d="M10.81,72.28c.11.24.37.39.55.57a13.55,13.55,0,0,0,1.42,1.21c.14.1.68.52.81.22s-.18-.94-.27-1.23A22.48,22.48,0,0,0,12,69.61c-2-4-4.59-7.91-5.62-12.29q-.11-.45-.18-.9c-.23-1.38-.66-3.9,1.45-4a7.13,7.13,0,0,1,2.87.89c0-.61-.43-.75-.9-1.09a19.72,19.72,0,0,1-2.07-1.68l-.69-.67c-.08-.07-.19-.21-.32-.2s-.28.21-.38.3a3.72,3.72,0,0,0-.8,1.24,8.94,8.94,0,0,0-.1,5.37C6,60.29,7.9,63.75,9.64,67.11c.77,1.47,1.63,2.88,2.35,4.37a6.46,6.46,0,0,1,.46,1.17c0,.14.1.34,0,.46s-.37.07-.52,0C11.53,72.89,11.23,72.47,10.81,72.28Z" fill="#fff680"/>
      <path d="M84.82,49.67l.14.17Z" fill="#f9e8b4"/>
      <path d="M84.86,49.77l.24.3Z" fill="#bcce4c"/>
      <path d="M40.09,50l.21-.24Z" fill="#f8e5a8"/>
      <path d="M40.26,49.84l-.17.26C40.18,50,40.3,50,40.26,49.84Z" fill="#bbc042"/>
      <path d="M40,50.24h0l.1-.17Z" fill="#f8e4a6"/>
      <path d="M85.1,50.07l.14.2Z" fill="#b0d664"/>
      <path d="M40.06,50.1l-.11.2h0Z" fill="#acc353"/>
      <path d="M39.74,50.51l.21-.24Z" fill="#f8e5a8"/>
      <path d="M85.24,50.27l.2.27Z" fill="#bcce4c"/>
      <path d="M39.92,50.3l-.18.27C39.84,50.5,40,50.43,39.92,50.3Z" fill="#bbc042"/>
      <path d="M39.61,50.71h0l.1-.17Z" fill="#f8e4a6"/>
      <path d="M85.44,50.54l.11.17Z" fill="#b9d768"/>
      <path d="M39.71,50.57l-.52.8C39.36,51.24,39.75,50.78,39.71,50.57Z" fill="#bbc043"/>
      <path d="M89.32,51.54a7.43,7.43,0,0,0,.88,1.73c.08.13.23.2.3.34s0,.39.12.57c.31.81.66,1.61.94,2.44a1.52,1.52,0,0,0,.07-.6c0-.38.08-.76.14-1.14.17-1,.55-1.87.71-2.84,0-.37.15-1.15-.3-1.33a1.13,1.13,0,0,0-.89.17C90.74,51.15,90,51.76,89.32,51.54Z" fill="#ff6969"/>
      <path d="M85.55,50.71l.14.2Z" fill="#b4d766"/>
      <path d="M39.47,50.91h0l.11-.17Z" fill="#f8e4a6"/>
      <path d="M85.69,50.91l.13.2Z" fill="#b4d667"/>
      <path d="M39.33,51.11h0l.11-.17Z" fill="#f8e4a6"/>
      <path d="M85.82,51.11l.14.2Z" fill="#b9d769"/>
      <path d="M39.19,51.31h0l.1-.17Z" fill="#f8e4a6"/>
      <path d="M86,51.31l.18.23Z" fill="#c1ce4c"/>
      <path d="M39.12,51.34v.1h0l0-.1Z" fill="#f8e3a3"/>
      <path d="M39.16,51.37l-.18.34h0Z" fill="#adc251"/>
      <path d="M89.22,51.4l0,0Z" fill="#feacac"/>
      <path d="M89.26,51.46v0Z" fill="#febdbd"/>
      <path d="M39.05,51.47l-.07.17h0Z" fill="#f8e4a6"/>
      <path d="M89.29,51.53v0Z" fill="#fea8a9"/>
      <path d="M38.85,51.84h0l.1-.17Z" fill="#f8e4a6"/>
      <path d="M39,51.71l-.1.2Z" fill="#bbc043"/>
      <path d="M86.27,51.74l.21.34Z" fill="#c1ce4c"/>
      <path d="M38.78,51.87V52h0l0-.1Z" fill="#f8e3a3"/>
      <path d="M38.81,51.91l0,.13h0Z" fill="#bac043"/>
      <path d="M38.64,52.21h0l.11-.2Z" fill="#f9e8b4"/>
      <path d="M38.74,52l-.07.17Z" fill="#abc254"/>
      <path d="M86.48,52.08a.63.63,0,0,0,.24.43Z" fill="#c2cf51"/>
      <path d="M38.57,52.21v.1h0l0-.1Z" fill="#f8e3a3"/>
      <path d="M38.6,52.24l0,.14h0Z" fill="#babf43"/>
      <path d="M38.53,52.38l-.17.33C38.47,52.63,38.57,52.52,38.53,52.38Z" fill="#adc151"/>
      <path d="M7.53,52.41v0H7.8Z" fill="#ffc077"/>
      <path d="M9.88,71.42a4.24,4.24,0,0,0,.65.83c.45.55.91,1.1,1.37,1.64,1.39,1.61,2.75,3.27,4.24,4.81.51.53,1,1.06,1.55,1.57.13.11.45.45.65.38s.16-.7.14-.88a11.89,11.89,0,0,0-.67-2.64c-.94-2.7-2.26-5.32-2.84-8.12-.19-.91-.48-2.5.65-3,.91-.38,2,.36,2.76.83a32.5,32.5,0,0,1,5.7,5.22,107.8,107.8,0,0,1,9.2,11.39c1.13,1.58,2.12,3.24,3.26,4.81A17.21,17.21,0,0,0,42,93.57a7.65,7.65,0,0,0,2.52,1,19,19,0,0,0-1.89-1.8q-1.77-1.8-3.35-3.74a81.35,81.35,0,0,1-8.14-12.6c-2.6-4.77-4.95-9.64-7.78-14.29-.78-1.3-1.6-2.58-2.44-3.85a9.75,9.75,0,0,0-1.23-1.76c-.21-.19-.77-.19-1.06-.25a20.18,20.18,0,0,1-2.28-.61c-.22-.07-.81-.39-1-.28a4.21,4.21,0,0,0-.81.77c-.66.63-1.28,1.3-1.94,1.93A4.12,4.12,0,0,1,13,55.82c.22-.4.57-.76.75-1.17l-3.32-1.81,0,.47a7.72,7.72,0,0,0-1.45-.62,4.68,4.68,0,0,0-1.11-.24A1.65,1.65,0,0,0,6,54.25a15.12,15.12,0,0,0,.7,4.37C8,62.8,10.58,66.5,12.36,70.48a23.51,23.51,0,0,1,1.05,2.91c.06.19.33.84.09,1s-.84-.4-1-.55c-.6-.49-1.18-1-1.73-1.55A6.72,6.72,0,0,0,9.88,71.42Z" fill="#ff6969"/>
      <path d="M86.72,52.44l.07.2h0Z" fill="#f2e4a6"/>
      <path d="M38.43,52.48l-.07.16h0Z" fill="#f8e4a6"/>
      <path d="M86.76,52.58l.14.23Z" fill="#c2cf51"/>
      <path d="M38.29,52.68v.1h0l0-.1Z" fill="#f8e3a3"/>
      <path d="M38.33,52.71l0,.13h0Z" fill="#babf43"/>
      <path d="M38.22,52.81v.1h0l0-.1Z" fill="#f8e3a3"/>
      <path d="M86.9,52.81,87,53Z" fill="#c2d76c"/>
      <path d="M38.26,52.84l-.38.74h0C38,53.41,38.31,53.06,38.26,52.84Z" fill="#acc152"/>
      <path d="M17.06,52.89h0Z" fill="#809ac2"/>
      <path d="M87,52.91l.07.2h0Z" fill="#f8e5a8"/>
      <path d="M87.1,53a3.45,3.45,0,0,0,.49,1.07c.07.14.13.32.27.4A6.21,6.21,0,0,0,87.1,53Z" fill="#fbf4e0"/>
      <path d="M87,53l.76,1.57h0A3.91,3.91,0,0,0,87,53Z" fill="#c8cf54"/>
      <path d="M17.68,53.09h0Z" fill="#809ac2"/>
      <path d="M30.12,53.16h0Z" fill="#b3c2da"/>
      <path d="M18.13,53.22h0Z" fill="#8da4c8"/>
      <path d="M29.64,53.29h0Z" fill="#a6b8d4"/>
      <path d="M18.51,53.32h0Z" fill="#809ac2"/>
      <path d="M38,53.34l-.07.17h0Z" fill="#f8e4a6"/>
      <path d="M90.25,53.34l.24.61h0C90.53,53.68,90.52,53.48,90.25,53.34Z" fill="#fff680"/>
      <path d="M29.26,53.39h0m-.14,0h0Z" fill="#b3c2da"/>
      <path d="M19,53.44v0h.11Z" fill="#a6b8d4"/>
      <path d="M29,53.46h0Z" fill="#b3c2da"/>
      <path d="M19.2,53.49h0Z" fill="#809ac2"/>
      <path d="M28.79,53.48v0h.1l-.1,0m-9.45,0h0Z" fill="#8da4c8"/>
      <path d="M28.67,53.52h0Z" fill="#9aaece"/>
      <path d="M28.48,53.54v0h.1Z" fill="#8da4c8"/>
      <path d="M37.81,53.54v.14h0l0-.14Z" fill="#f8e3a3"/>
      <path d="M19.65,53.59h0Z" fill="#9aaece"/>
      <path d="M28.34,53.58v0h.1Z" fill="#a6b8d4"/>
      <path d="M19.8,53.61v0h.1Z" fill="#8da4c8"/>
      <path d="M28.16,53.61v0h.11l-.11,0m-.17,0v0h.1Z" fill="#a6b8d4"/>
      <path d="M27.78,53.68v0h.11Z" fill="#9aaece"/>
      <path d="M37.74,53.68v.13h0l0-.13Z" fill="#f8e3a3"/>
      <path d="M20.32,53.71v0h.1Z" fill="#b3c2da"/>
      <path d="M27.58,53.71v0h.1Z" fill="#809ac2"/>
      <path d="M90.53,53.71V54h0Z" fill="#ffc077"/>
      <path d="M20.52,53.75v0h.11Z" fill="#a6b8d4"/>
      <path d="M27.37,53.75v0h.1Z" fill="#8da4c8"/>
      <path d="M27.2,53.78v0h.1l-.1,0m-6.23,0v0h.11Z" fill="#b3c2da"/>
      <path d="M37.67,53.81V54h0l0-.14Z" fill="#f8e3a3"/>
      <path d="M21.22,53.85v0h.13Z" fill="#8da4c8"/>
      <path d="M26.64,53.85v0h.18Z" fill="#b3c2da"/>
      <path d="M21.49,53.88v0h.21l-.21,0m4.84,0v0h.14Z" fill="#9aaece"/>
      <path d="M21.87,53.91v0h.18Z" fill="#6786b6"/>
      <path d="M26,53.91v0h.17Z" fill="#9aaece"/>
      <path d="M22.25,54v0h.21Z" fill="#6786b6"/>
      <path d="M25.57,54v0h.21Z" fill="#9aaece"/>
      <path d="M37.6,54v.13h0l0-.13Z" fill="#f8e3a3"/>
      <path d="M22.6,54v0h.14Z" fill="#ccd7e7"/>
      <path d="M22.74,54v0h.14Z" fill="#9aaece"/>
      <path d="M22.88,54v0h.17l-.17,0M25,54v0h.17Z" fill="#6786b6"/>
      <path d="M25.12,54v0h.17Z" fill="#9aaece"/>
      <path d="M25.29,54v0h.14l-.14,0m-2,0v0h.35Z" fill="#ccd7e7"/>
      <path d="M23.64,54v0h.72Z" fill="#9aaece"/>
      <path d="M24.36,54v0h.35Z" fill="#ccd7e7"/>
      <path d="M37.57,54.11l-.25.6h0C37.45,54.55,37.64,54.3,37.57,54.11Z" fill="#a7c157"/>
      <path d="M6,54.18v.57H6Z" fill="#ffc077"/>
      <path d="M69.68,54.25v0h.1Z" fill="#f5d368"/>
      <path d="M55.47,77.26a8.08,8.08,0,0,1,1-1l1.83-1.77L64,69l5.29-5.11,3.8-3.67,1-1c.11-.11.32-.25.35-.4s-.1-.22-.18-.29l-.66-.64-2.79-2.71L70,54.48c-.1-.1-.23-.23-.38-.17a1.93,1.93,0,0,0-.45.4l-.87.84-2.94,2.84L55.33,68.11,52,71.35l-.9.87c-.11.11-.31.24-.35.4s.11.26.2.34c.29.25.54.53.81.79l2.63,2.54C54.66,76.58,55.06,77.15,55.47,77.26Z" fill="#fefefe"/>
      <path d="M87.83,54.48v.13h0Z" fill="#f8e3a3"/>
      <path d="M34.09,54.6v0Z" fill="#febeb4"/>
      <path d="M30.41,55.92l.87.8,1.59,1.4.7-2.17.51-1.34-1.15.46Z" fill="#ff7f69"/>
      <path d="M13.78,54.65a7,7,0,0,0-1.16,2.24,5.64,5.64,0,0,0,0,1.16,14.61,14.61,0,0,0,1.73-1.7,5,5,0,0,0,1-1.07Z" fill="#fff680"/>
      <path d="M37.26,54.68v.1h0l0-.1h-.06m-.07.13V55h0l0-.14Z" fill="#f8e3a3"/>
      <path d="M87.93,54.81l.14.41h0Z" fill="#cccf56"/>
      <path d="M37.15,55l-.1.3A.24.24,0,0,0,37.15,55Z" fill="#b0c258"/>
      <path d="M88.11,55.08v.14h0l0-.14M37,55.28v.1h0l0-.1Z" fill="#f8e3a3"/>
      <path d="M88.14,55.28l.1.3h0Z" fill="#cccf56"/>
      <path d="M36.94,55.45l-.1.33h0Z" fill="#bac55b"/>
      <path d="M36.81,55.78l-.11.34h0Z" fill="#b9c45b"/>
      <path d="M30.47,55.89l0,0Z" fill="#ffbaad"/>
      <path d="M29.41,56.15v0a7.52,7.52,0,0,1,1.11,1.21,17.22,17.22,0,0,1,2,2.3,7.15,7.15,0,0,0,.27-1.13c0-.13.12-.31.06-.44s-.27-.28-.4-.4c-.32-.29-.66-.57-1-.87s-.72-.83-1.07-.9S29.69,56.11,29.41,56.15Z" fill="#ffd978"/>
      <path d="M36.67,56.12l0,.16Z" fill="#a6c057"/>
      <path d="M18.44,56.19l0,0Z" fill="#ffbaba"/>
      <path d="M29.26,56.19l0,0Z" fill="#ffbaad"/>
      <path d="M22.25,56.75a10.48,10.48,0,0,0,1.11,1.1c.66.69,1.3,1.41,1.91,2.14a59.29,59.29,0,0,1,5,6.92A32.3,32.3,0,0,1,32.1,70h0l-.24-2.14,0-3.27-.14-1.13h0l.1.56A3.74,3.74,0,0,0,32,63c.08-.75.2-1.49.32-2.23,0-.3.27-.83.16-1.11a2.52,2.52,0,0,0-.51-.63l-1.16-1.34c-.3-.34-.6-.69-.91-1-.11-.13-.25-.36-.43-.41s-.41,0-.58.08c-.5.08-1,.2-1.49.26A48.69,48.69,0,0,1,22.25,56.75Z" fill="#ff7169"/>
      <path d="M18.75,56.26h0Z" fill="#ffbaba"/>
      <path d="M28.92,56.25v0H29Z" fill="#ffbaad"/>
      <path d="M88.56,56.25l.06.3h0Z" fill="#b9ce4f"/>
      <path d="M28.77,56.29l0,0Z" fill="#ffbcb8"/>
      <path d="M36.56,56.28v.14h0l0-.14Z" fill="#f8e3a3"/>
      <path d="M19.21,56.35v0h.1Z" fill="#ffb1b1"/>
      <path d="M88.66,56.42v.13h0Z" fill="#f8e3a3"/>
      <path d="M19.66,56.45,22,59.92,26.19,67l.52.43,1.14,1.06L31,71.06l1.52,1L32.17,70h0l0,.06a6.2,6.2,0,0,0-.6-1.1c-.38-.65-.77-1.3-1.17-1.94a59.78,59.78,0,0,0-4.92-6.84c-.6-.73-1.23-1.42-1.87-2.11a7.15,7.15,0,0,0-1.25-1.21,2.08,2.08,0,0,0-.9-.13C20.81,56.62,20.24,56.5,19.66,56.45Z" fill="#ffc578"/>
      <path d="M5.22,56.54v0Z" fill="#ff6969"/>
      <path d="M20.7,56.58v0h.14Z" fill="#ffe6c5"/>
      <path d="M21,56.62v0h.21Z" fill="#ffe3bd"/>
      <path d="M88.69,56.62v.13h0Z" fill="#c6c83e"/>
      <path d="M88.73,56.62v.13h0Z" fill="#f8e3a3"/>
      <path d="M21.28,56.65v0h.25Z" fill="#ffe3bd"/>
      <path d="M36.46,56.65l0,.17Z" fill="#a5bf57"/>
      <path d="M21.63,56.68v0h.28Z" fill="#ffe3bd"/>
      <path d="M25.43,56.72v0h.25l-.25,0m-2.87,0v0H23Z" fill="#ffbcb8"/>
      <path d="M88.76,56.78,89.07,58h.07A3.1,3.1,0,0,0,88.76,56.78Z" fill="#ddbf22"/>
      <path d="M36.39,56.85l0,.2h0v-.2m-.07.2,0,.17Z" fill="#a5bf57"/>
      <path d="M36.22,57.22v.13h0l0-.13Z" fill="#f8e3a3"/>
      <path d="M12.54,57.35v.54h0Z" fill="#ffc077"/>
      <path d="M36.18,57.39l0,.16h0Z" fill="#f8e3a3"/>
      <path d="M5.46,57.48l0,0Z" fill="#ff6969"/>
      <path d="M36.11,57.65l0,.17Z" fill="#a4bf57"/>
      <path d="M5.53,57.71v0Z" fill="#ff6969"/>
      <path d="M89.14,57.82V58h0Z" fill="#f8e3a3"/>
      <path d="M36.05,57.85l0,.2h0Z" fill="#a4bf58"/>
      <path d="M5.6,57.94v0Z" fill="#ff6969"/>
      <path d="M89.18,58l0,.16h0Z" fill="#f8e3a3"/>
      <path d="M36,58.05l0,.2h0Z" fill="#a4bf58"/>
      <path d="M5.67,58.18v0Z" fill="#ff6969"/>
      <path d="M89.25,58.15v.14h0Z" fill="#f9ecc1"/>
      <path d="M5.71,58.28v0Z" fill="#ff6969"/>
      <path d="M35.91,58.25l0,.17h0Z" fill="#f8e3a3"/>
      <path d="M89.25,58.29l.1.43h0Z" fill="#bfce52"/>
      <path d="M5.73,58.32v.1h0Z" fill="#ff9b71"/>
      <path d="M35.84,58.42v.14h0Z" fill="#f9ecc1"/>
      <path d="M5.78,58.48v0Z" fill="#ff6969"/>
      <path d="M35.8,58.56v.13h0Z" fill="#f8e3a3"/>
      <path d="M89.38,58.72v.17h0Z" fill="#b7cd50"/>
      <path d="M89.42,58.76v.13h0Z" fill="#f8e3a3"/>
      <path d="M5.88,58.81v0Z" fill="#ff6969"/>
      <path d="M35.77,58.79l-.35,1.57h0l.24-1.07Z" fill="#bcbc3f"/>
      <path d="M5.91,58.91l0,0Z" fill="#ff6969"/>
      <path d="M89.45,58.89V59h0Z" fill="#f9ecc1"/>
      <path d="M6,59v0Z" fill="#ff6969"/>
      <path d="M89.45,59l.07.4h0Z" fill="#c3ce54"/>
      <path d="M6,59.11v0Z" fill="#ff6969"/>
      <path d="M11.33,65.47a3.23,3.23,0,0,0,0-1.24,14.61,14.61,0,0,0-.54-3.77,3.16,3.16,0,0,0-.51-1.1c-.08-.1-.24-.3-.39-.25s-.12.27-.12.38A5.2,5.2,0,0,0,10,60.66C10.33,62.28,11,63.85,11.33,65.47Z" fill="#ffa072"/>
      <path d="M89.56,59.29v.13h0Z" fill="#f8e3a3"/>
      <path d="M93,63.23c.48-.19,1-.28,1.21.34-.25-.19-1-.17-1.13.2a2.42,2.42,0,0,0,0,.76c0,.51,0,1,0,1.51h0c.22-.41.44-.83.67-1.24a1.67,1.67,0,0,0,.37-1.23h0l.07.3a4.66,4.66,0,0,0,.49-.94,17.57,17.57,0,0,0,1-2.4c.09-.27.37-1,.08-1.18s-.61,0-.82.1a6.75,6.75,0,0,0-1.79,1c-.18.12-.49.27-.57.47s0,.47.07.67A13.55,13.55,0,0,1,93,63.23Z" fill="#ff6969"/>
      <path d="M3.69,67.27a7.2,7.2,0,0,0-.94-1.43A18.71,18.71,0,0,1,.91,62.43c-.15-.41-.62-1.55,0-1.81.23-.09.49.14.65.28a8,8,0,0,1,1.21,1.5c1.1,1.59,2.05,3.24,3.29,4.74a8.5,8.5,0,0,0,1.45,1.6,5,5,0,0,0-.65-.83c-.42-.54-.82-1.1-1.21-1.67-1.1-1.63-2-3.36-3.16-5A7.71,7.71,0,0,0,1.2,59.67a1,1,0,0,0-.76-.34c-.26,0-.33.31-.38.53a3.76,3.76,0,0,0,.09,1.7A14.13,14.13,0,0,0,2.5,65.8,6.56,6.56,0,0,0,3.69,67.27Z" fill="#fff680"/>
      <path d="M89.59,59.42v.14h0Z" fill="#f9ecc1"/>
      <path d="M89.63,59.56v.13h0Z" fill="#f8e3a3"/>
      <path d="M6.22,59.78l0,0Z" fill="#ff6969"/>
      <path d="M35.49,59.86V60h0Z" fill="#b2dab5"/>
      <path d="M89.66,59.89l.14.74h0Z" fill="#b7cc50"/>
      <path d="M89.76,60.16v.13h0l0-.13m-54.37.07v.13h0Z" fill="#f8e3a3"/>
      <path d="M89.8,60.29v.17h0l0-.17m-54.45.07v.13h0Z" fill="#f9ecc1"/>
      <path d="M35.39,60.36l0,.33h0Z" fill="#b2c15b"/>
      <path d="M89.83,60.49v.14h0l0-.14m-54.51.07v.13h0Z" fill="#f8e3a3"/>
      <path d="M3.62,67.17h0c-.23-.74-1-1.73-.66-2.54a4,4,0,0,1,1.15,1.14c.72.87,1.37,1.79,2.13,2.64.31.35,1,1.14,1.56,1,.38-.11-.19-.48-.3-.6-.49-.55-1-1.1-1.46-1.67A45.27,45.27,0,0,1,3,62.66c-.42-.65-1-1.71-1.75-2s-.64.62-.58,1a9.44,9.44,0,0,0,1.36,3C2.52,65.52,3.05,66.36,3.62,67.17Z" fill="#ff6969"/>
      <path d="M89.83,60.63l0,.33h0Z" fill="#bacc51"/>
      <path d="M89.87,60.63v.16h0l0-.16m-54.58.06V61h0Z" fill="#f9ecc1"/>
      <path d="M35.32,60.69l-.1.74h.07Z" fill="#bbbc3f"/>
      <path d="M89.9,60.83V61h0Z" fill="#f8e3a3"/>
      <path d="M92.63,60.89V61h0Z" fill="#febcbd"/>
      <path d="M89.9,61v.27h0Z" fill="#c9c639"/>
      <path d="M89.94,61v.27h0l0-.27m-54.72.13v.17h0Z" fill="#f9ecc1"/>
      <path d="M76.8,61.2c-.17.06-.32.28-.45.39l-.93.91L72,65.77l-9.92,9.59L59.17,78.2c-.37.36-1.05.8-1.28,1.27-.07.14,0,.26.14.36l.76.74,2.8,2.7.66.64c.09.08.2.21.34.18s.3-.24.42-.35l.93-.9L67.3,79.6l10-9.65,3-2.88.9-.87a1.65,1.65,0,0,0,.39-.4c.06-.13-.1-.25-.19-.33l-.76-.74L77.77,62l-.66-.64C77,61.29,76.93,61.16,76.8,61.2Z" fill="#fefefe"/>
      <path d="M48.21,61.19v0h.11Z" fill="#f9e4a3"/>
      <path d="M48.18,61.26a5.2,5.2,0,0,0-1.11,1l-2.45,2.37-.8.77c-.08.08-.25.2-.25.33s.14.22.22.3l.69.67,2.73,2.64.76.73c.09.08.21.24.35.2.37-.13.79-.73,1.07-1L52,66.84l.79-.77c.09-.08.23-.2.21-.33s-.16-.23-.25-.32L52,64.75l-2.66-2.57-.77-.75C48.47,61.33,48.35,61.19,48.18,61.26Z" fill="#fefefe"/>
      <path d="M89.94,61.23v.13h0Z" fill="#c2cd54"/>
      <path d="M90,61.23v.13h0l0-.13m-54.79.06v.14h0Z" fill="#f8e3a3"/>
      <path d="M90,61.36l.07.87h.07Z" fill="#c9c539"/>
      <path d="M90,61.36v.27h0Z" fill="#f9ecc1"/>
      <path d="M32.14,61.43v.16h0Z" fill="#feccc6"/>
      <path d="M35.15,61.43v.27h0Z" fill="#f9ecc1"/>
      <path d="M92.74,61.49v.17h0Z" fill="#fec6c6"/>
      <path d="M90,61.63v.13h0Z" fill="#f8e3a3"/>
      <path d="M32.1,61.66v.14h0Z" fill="#feccc6"/>
      <path d="M35.11,61.7v.13h0Z" fill="#f8e3a3"/>
      <path d="M90.08,61.76v.34h0l0-.34m-55,.07v.37h0Z" fill="#f9ecc1"/>
      <path d="M35.11,61.83l0,.53h.07Z" fill="#bbbc3f"/>
      <path d="M90.11,62.1v.13h0l0-.13M35,62.23v.13h0Z" fill="#f8e3a3"/>
      <path d="M90.11,62.23v.47h0Z" fill="#c9c53a"/>
      <path d="M90.15,62.23v.33h0Z" fill="#f9ecc1"/>
      <path d="M92.84,62.26v.2h0Z" fill="#feb3b4"/>
      <path d="M35,62.36v.4h0Z" fill="#f9ecc1"/>
      <path d="M35,62.36l-.1,1.34H35C35,63.32,35.19,62.71,35,62.36Z" fill="#bbbb3f"/>
      <path d="M90.15,62.56v.14h0Z" fill="#a6dd8e"/>
      <path d="M90.15,62.7v.13h0Z" fill="#b6cb50"/>
      <path d="M90.18,62.7v.13h0l0-.13M35,62.76v.14h0Z" fill="#f8e3a3"/>
      <path d="M90.18,62.83v.47h0Z" fill="#c8c53a"/>
      <path d="M90.21,62.83v.33h0l0-.33m-55.27.07v.43h0Z" fill="#f9ecc1"/>
      <path d="M93,63.73c.4-.2.75-.41,1.18-.16-.08-.42-.83-.78-1.14-.35C92.93,63.34,93,63.59,93,63.73Z" fill="#fff680"/>
      <path d="M90.21,63.16v.14h0Z" fill="#bbe6ac"/>
      <path d="M90.21,63.3v.13h0Z" fill="#c5cd56"/>
      <path d="M90.25,63.3v.13h0Z" fill="#f8e3a3"/>
      <path d="M34.94,63.33v.24h0Z" fill="#7ccbae"/>
      <path d="M55.39,63.44h0Z" fill="#f9e5a8"/>
      <path d="M90.25,63.43v.8h0Z" fill="#c8c53a"/>
      <path d="M90.28,63.43V64h0Z" fill="#f9ecc1"/>
      <path d="M31.72,63.47l.11,1h0A2.12,2.12,0,0,0,31.72,63.47Z" fill="#ffa072"/>
      <path d="M34.9,63.57v.13h0Z" fill="#d9d587"/>
      <path d="M94.16,63.57l.06.53h0Z" fill="#ffca79"/>
      <path d="M31.9,63.63v.27h0Z" fill="#fed8d9"/>
      <path d="M34.87,63.7v.53h0Z" fill="#f9ecc1"/>
      <path d="M34.9,63.7v.8h0Z" fill="#babb40"/>
      <path d="M93,63.73v.34h0Z" fill="#fed8d9"/>
      <path d="M90.28,64v.2h0Z" fill="#bbe5ac"/>
      <path d="M34.87,64.23v.27h0Z" fill="#a6d6b5"/>
      <path d="M90.28,64.23v.14h0Z" fill="#c5cd56"/>
      <path d="M90.32,64.23v.14h0Z" fill="#f8e3a3"/>
      <path d="M90.32,64.37v2.8h0V65.24Z" fill="#c8c43a"/>
      <path d="M90.35,64.37v2.8h0V65.24Z" fill="#f9ecc1"/>
      <path d="M93,64.37v.43h0Z" fill="#fed8d9"/>
      <path d="M34.84,64.5v.13h0Z" fill="#f8e3a3"/>
      <path d="M34.87,64.5v.13h0Z" fill="#b5c25c"/>
      <path d="M34.8,64.63v2.28h0V65.34Z" fill="#f9ecc1"/>
      <path d="M34.84,64.63v2.28h0V65.34Z" fill="#d6c244"/>
      <path d="M31.83,64.77V65h0Z" fill="#fe9791"/>
      <path d="M31.83,65v1.43h0A4.27,4.27,0,0,0,31.83,65Z" fill="#febbb8"/>
      <path d="M93.05,65.1v1h0Z" fill="#ff8e8e"/>
      <path d="M53,65.67l0,.13h0Z" fill="#f7e29a"/>
      <path d="M31.83,66.47v.3h0Z" fill="#fe9791"/>
      <path d="M34.84,66.91V67h0Z" fill="#f8e3a3"/>
      <path d="M34.87,66.91V67h0Z" fill="#aabe5b"/>
      <path d="M26.23,67a2.83,2.83,0,0,0,.34.7c.25.49.53,1,.79,1.47.77,1.44,1.5,2.89,2.25,4.34,3.15,6.09,6.59,12.09,11.19,17.3a37.42,37.42,0,0,0,3.06,3.11,12.73,12.73,0,0,0,1.73,1.46c.87.55,2,.93,2.86.13a4.33,4.33,0,0,0,.77-1.29,7.65,7.65,0,0,0,.65-1.5l-.2-.07c-.49,1-1.64,2.11-2.87,1.72a3.57,3.57,0,0,1-1.53-1.15,35,35,0,0,1-3.17-4.65c-.34-.53-.61-1.13-1-1.63S40,85.82,39.44,85.24a12,12,0,0,0-1.29-1.47l.65,1.31L40,87.45c-.91-1-1.7-2.15-2.51-3.24a12.12,12.12,0,0,0-.9-1.23c-.16-.17-.55-.21-.77-.32a2.53,2.53,0,0,1-.92-.86,6.79,6.79,0,0,1-.92-2.1,5,5,0,0,0-.22-1c-1.22-2.27-2.53-4.5-3.79-6.75-.52-.91-1.13-1.8-1.58-2.74h0l.82,1.07L30.48,72l3.6,5h0l-.47-1.23-.82-2.61L32.55,72h0l0,.06-1.28-.89L29.1,69.56,27.3,68Z" fill="#ffce7a"/>
      <path d="M34.87,67v.27h0Z" fill="#a4d5b6"/>
      <path d="M34.9,67,35,69.18h0l-.14-1.47Z" fill="#b9ba40"/>
      <path d="M31.86,67.17v.34h0Z" fill="#fe9791"/>
      <path d="M90.25,67.17v.94h0l0-.94Z" fill="#c7c43a"/>
      <path d="M90.32,67.17v.14h0Z" fill="#f8e3a3"/>
      <path d="M34.87,67.31v.53h0l0-.53m55.41,0v.8h0Z" fill="#f9ecc1"/>
      <path d="M31.9,67.77V68h0Z" fill="#fec1b6"/>
      <path d="M34.9,67.84V68h0Z" fill="#f9eab9"/>
      <path d="M34.94,68v.24h0Z" fill="#79c9b0"/>
      <path d="M90.18,68.11v.67h0l0-.67Z" fill="#c6c43a"/>
      <path d="M90.25,68.11v.13h0Z" fill="#f8e3a3"/>
      <path d="M34.94,68.21v.43h0l0-.43m55.27,0v.54h0Z" fill="#f9ecc1"/>
      <path d="M35,68.64v.14h0Z" fill="#f8e3a3"/>
      <path d="M7.53,68.74l.24.27Z" fill="#ffcd79"/>
      <path d="M35,68.78v.4h0Z" fill="#f9ecc1"/>
      <path d="M90.15,68.78v.13h0Z" fill="#b7ca53"/>
      <path d="M90.18,68.78v.13h0Z" fill="#f8e3a3"/>
      <path d="M90.11,68.91v.33h0Z" fill="#d1c53e"/>
      <path d="M35,69.18v.13h0Z" fill="#f8e3a3"/>
      <path d="M35.08,69.18v.13h0Z" fill="#9eba5a"/>
      <path d="M28.34,69.21l.52.94L29.92,72l2.68,4.78,1.16,2.07h.07c.17-.24.69-.73.64-1a2.68,2.68,0,0,0-.51-1c-.36-.55-.72-1.1-1.11-1.63-1-1.39-2-2.79-3.07-4.15A12,12,0,0,0,28.34,69.21Z" fill="#9c964e"/>
      <path d="M90.08,69.24v.14h0Z" fill="#b2c952"/>
      <path d="M35.08,69.31v.34h0Z" fill="#f9ecc1"/>
      <path d="M35.11,69.31v.34h0Z" fill="#c7be42"/>
      <path d="M90,69.38l-.21,1.53h0C89.87,70.46,90.23,69.8,90,69.38Z" fill="#c6c33b"/>
      <path d="M90.08,69.38v.33h0Z" fill="#f9ecc1"/>
      <path d="M12.26,69.44l.11.24h0Z" fill="#ff9b71"/>
      <path d="M32.07,69.44v.14h0Z" fill="#feb0b0"/>
      <path d="M35.11,69.65v.13h0Z" fill="#e6dea0"/>
      <path d="M35.15,69.65v.13h0Z" fill="#9eba5a"/>
      <path d="M12.4,69.68a8,8,0,0,0,.75,1.67,24.9,24.9,0,0,1,1.33,3.27c.18.55.6,1.48,0,1.91a1.84,1.84,0,0,0,.35.15c.36.12.64,0,.65-.42a3.65,3.65,0,0,0-.32-1.3,23.75,23.75,0,0,0-1.9-3.81A6.07,6.07,0,0,0,12.4,69.68Z" fill="#fff680"/>
      <path d="M90,69.71v.14h0Z" fill="#dcdf9a"/>
      <path d="M35.15,69.78v.1h0Z" fill="#a3d4b6"/>
      <path d="M35.18,69.78v.33h0Z" fill="#d2c144"/>
      <path d="M90,69.85v.33h0Z" fill="#f9ecc1"/>
      <path d="M35.18,70.11v.14h0Z" fill="#f8e3a3"/>
      <path d="M35.22,70.11v.14h0Z" fill="#9dba5a"/>
      <path d="M90,70.18v.13h0Z" fill="#f8e3a3"/>
      <path d="M35.25,70.25v.2h0Z" fill="#b8b940"/>
      <path d="M35.29,70.45v.13h0Z" fill="#9dba5b"/>
      <path d="M89.9,70.51v.14h0Z" fill="#dcdf9a"/>
      <path d="M35.29,70.58v.1h0Z" fill="#a2d4b7"/>
      <path d="M35.32,70.58l.28,1.47h0A4.39,4.39,0,0,0,35.32,70.58Z" fill="#b8b941"/>
      <path d="M89.87,70.65v.26h0Z" fill="#f9ecc1"/>
      <path d="M35.32,70.85V71h0Z" fill="#f8e3a3"/>
      <path d="M89.76,70.91v.34h0l0-.34Z" fill="#d6c540"/>
      <path d="M89.83,70.91v.14h0Z" fill="#f8e3a3"/>
      <path d="M9.64,71.11l.48.51Z" fill="#ffcd79"/>
      <path d="M35.39,71.18v.14h0Z" fill="#f8e3a3"/>
      <path d="M89.73,71.25v.13h0Z" fill="#b1c852"/>
      <path d="M89.76,71.25v.13h0Z" fill="#f8e3a3"/>
      <path d="M89.7,71.38v.14h0Z" fill="#c5c33b"/>
      <path d="M35.46,71.52v.13h0Z" fill="#f8e3a3"/>
      <path d="M89.66,71.52v.13h0Z" fill="#b1c853"/>
      <path d="M10.12,71.62a2.19,2.19,0,0,0,.69.7A2,2,0,0,0,10.12,71.62Z" fill="#ffd07a"/>
      <path d="M89.63,71.65v.2h0Z" fill="#c5c33b"/>
      <path d="M35.53,71.78v.14h0Z" fill="#eee1a1"/>
      <path d="M89.59,71.85V72h0Z" fill="#b1c853"/>
      <path d="M89.63,71.85V72h0Z" fill="#f8e3a3"/>
      <path d="M89.56,72v.14h0Z" fill="#c5c33b"/>
      <path d="M35.63,72.05l0,.27h0v-.27Z" fill="#b7b941"/>
      <path d="M89.52,72.12v.13h0Z" fill="#b0c853"/>
      <path d="M89.56,72.12v.13h0Z" fill="#f1e2a1"/>
      <path d="M89.49,72.25v.13h0Z" fill="#c5c33b"/>
      <path d="M35.7,72.32v.13h0Z" fill="#9cb95b"/>
      <path d="M89.45,72.38v.14h0Z" fill="#b0c753"/>
      <path d="M89.49,72.38v.14h0Z" fill="#f1e2a1"/>
      <path d="M35.73,72.45v.13h0Z" fill="#b7b941"/>
      <path d="M89.42,72.52v.13h0Z" fill="#c5c23b"/>
      <path d="M35.73,72.58v.14h0Z" fill="#e6dea1"/>
      <path d="M35.77,72.58v.14h0Z" fill="#9cb95b"/>
      <path d="M50.67,72.62v.1h0Z" fill="#f6d776"/>
      <path d="M89.38,72.65v.13h0Z" fill="#b0c753"/>
      <path d="M89.42,72.65v.13h0Z" fill="#f8e3a3"/>
      <path d="M35.8,72.72v.13h0Z" fill="#b7b941"/>
      <path d="M89.35,72.82l0,.17h0Z" fill="#b0c753"/>
      <path d="M35.8,72.85V73h0Z" fill="#f8e3a3"/>
      <path d="M35.84,72.85V73h0Z" fill="#a2bb5c"/>
      <path d="M89.28,73v.13h0Z" fill="#c5c23b"/>
      <path d="M35.87,73l0,.17h0Z" fill="#9cb95b"/>
      <path d="M89.25,73.12v.13h0Z" fill="#b0c753"/>
      <path d="M89.28,73.12v.13h0Z" fill="#e9e19f"/>
      <path d="M35.94,73.22l0,.17h0Z" fill="#9cb95b"/>
      <path d="M89.21,73.29l0,.16h0Z" fill="#b0c753"/>
      <path d="M36,73.39v.13h0Z" fill="#b7b941"/>
      <path d="M89.14,73.45v.14h0Z" fill="#c4c23b"/>
      <path d="M36.05,73.52v.13h0Z" fill="#9cb95b"/>
      <path d="M89.11,73.59v.13h0Z" fill="#b4c854"/>
      <path d="M89.14,73.59v.13h0Z" fill="#f8e3a3"/>
      <path d="M36.08,73.69l0,.16h0Z" fill="#9cb95b"/>
      <path d="M89.07,73.75l0,.17h0Z" fill="#afc753"/>
      <path d="M36.15,73.85V74h0Z" fill="#b7b941"/>
      <path d="M89,74l0,.17h0Z" fill="#afc753"/>
      <path d="M36.15,74l0,.16h0Z" fill="#f8e3a3"/>
      <path d="M88.94,74.15l0,.17h0Z" fill="#afc753"/>
      <path d="M36.22,74.19l0,.16h0Z" fill="#f8e3a3"/>
      <path d="M88.87,74.35l0,.17h0Z" fill="#afc753"/>
      <path d="M36.29,74.39l0,.17h0Z" fill="#f8e3a3"/>
      <path d="M36.36,74.52l0,.14h0Z" fill="#9cb95b"/>
      <path d="M36.36,74.56v.1h0Z" fill="#eee1a1"/>
      <path d="M88.8,74.56l0,.16h0Z" fill="#afc753"/>
      <path d="M36.43,74.69l0,.17h0Z" fill="#9bb85b"/>
      <path d="M88.73,74.76v.16h0Z" fill="#f8e3a3"/>
      <path d="M88.69,74.79v.13h0Z" fill="#b3c754"/>
      <path d="M36.5,74.89l0,.17h0Z" fill="#9bb85b"/>
      <path d="M36.56,75.09l0,.2h0Z" fill="#f8e3a3"/>
      <path d="M88.56,75.12v.14h0l0-.14Z" fill="#afc653"/>
      <path d="M36.63,75.26l0,.13h0Z" fill="#9bb85b"/>
      <path d="M36.63,75.29v.1h0Z" fill="#eee1a1"/>
      <path d="M88.52,75.29l0,.17h0Z" fill="#aec653"/>
      <path d="M21.46,79.43h0c.07-.32.15-.88.59-.92s.6.23.8.4c.69.58,1.2,1.35,1.83,2,.2.2.65.78,1,.6s.21-.84.21-1.13a11.39,11.39,0,0,0-.44-2.51c-.06-.28-.24-.8-.06-1.07.29-.42,1.1.1,1.4.29a8.49,8.49,0,0,0,1.21.85A5.67,5.67,0,0,0,27,76.69a7,7,0,0,0-.85-.77,4.67,4.67,0,0,0-.51-.36c-.66-.39-1.15-.21-1.07.57.1,1,.47,2,.64,3,.05.27.23.94,0,1.15s-.26,0-.36-.09a4.9,4.9,0,0,1-.71-.73,6.74,6.74,0,0,0-1.64-1.51c-.25-.13-.66-.28-.88,0S21.45,79,21.46,79.43Z" fill="#fff680"/>
      <path d="M36.7,75.42l0,.14h0Z" fill="#9bb85b"/>
      <path d="M88.42,75.46v.13h0l0-.13Z" fill="#aec653"/>
      <path d="M36.7,75.49l0,.13h0Z" fill="#f8e3a3"/>
      <path d="M36.77,75.59l0,.13h0Z" fill="#9bb85b"/>
      <path d="M88.38,75.62l0,.17h0Z" fill="#aec654"/>
      <path d="M36.84,75.76l0,.13h0Z" fill="#9bb85b"/>
      <path d="M88.28,75.79v.13h0l0-.13Z" fill="#aec654"/>
      <path d="M36.84,75.82l0,.14h0Z" fill="#f8e3a3"/>
      <path d="M36.91,75.92l0,.14h0Z" fill="#9bb85b"/>
      <path d="M88.24,76l0,.17h0Z" fill="#aec654"/>
      <path d="M37,76.09l.07.3h0Z" fill="#f8e3a3"/>
      <path d="M88.14,76.13v.13h0l0-.13Z" fill="#aec654"/>
      <path d="M14,76.23a.71.71,0,0,0,.58.26v0Z" fill="#ffc077"/>
      <path d="M37.05,76.26l.1.27h0Z" fill="#a6bb5d"/>
      <path d="M88,76.46v.13h0l0-.13Z" fill="#adc554"/>
      <path d="M37.19,76.56l.13.43h0Z" fill="#f8e3a3"/>
      <path d="M87.93,76.59v.14h0l0-.14Z" fill="#adc554"/>
      <path d="M25.57,76.65c-.41.16-.16.95-.09,1.25a18.79,18.79,0,0,1,.44,2.47c0,.31.09.81-.15,1.06s-.83-.33-1-.53a20.57,20.57,0,0,0-2-2.1c-.37-.28-.86-.48-1.12,0a.92.92,0,0,0-.13.6c.1.29.73.63,1,.83a28.19,28.19,0,0,1,3.24,3.41c.3.35.86,1.12,1.4,1.1.26,0,.3-.29.31-.49,0-.53-.09-1-.07-1.57,0-.19,0-.61.31-.6s.59.38.76.56A11,11,0,0,0,30,84c.22.16.67.48,1,.33s.18-.39.18-.59a4.87,4.87,0,0,0-.52-1.7,11.22,11.22,0,0,0-3.25-4.61C27,77.15,26.11,76.45,25.57,76.65Z" fill="#ff6969"/>
      <path d="M37.26,76.73l0,.1h0v-.1Z" fill="#b6c05e"/>
      <path d="M87.86,76.73v.13h0l0-.13Z" fill="#adc554"/>
      <path d="M37.36,76.86l.21.53h0Z" fill="#9ab85c"/>
      <path d="M87.83,76.93l-.1.3h0Z" fill="#f9eab9"/>
      <path d="M34.12,77v0Z" fill="#eac271"/>
      <path d="M87.66,77.19v.1h0l0-.1h-.07m-.07.14v.13h0l0-.13Z" fill="#adc554"/>
      <path d="M37.6,77.43l0,.13h0Z" fill="#a6bb5d"/>
      <path d="M37.67,77.46c0,.23.18.66.42.74v0Z" fill="#d2b826"/>
      <path d="M87.52,77.46v.13h0l0-.13Z" fill="#adc554"/>
      <path d="M37.6,77.49a1.19,1.19,0,0,0,.35.64Z" fill="#f8e3a3"/>
      <path d="M87.45,77.59v.14h0l0-.14h-.07m-.07.14v.13h0l0-.13Z" fill="#adc554"/>
      <path d="M34.49,77.83c-.13.3-.66.71-.65,1s.5.89.68,1.17c.63,1,1.37,1.89,1.94,2.88l.93-.17-1.8-2.81-.75-1.4Z" fill="#bd9957"/>
      <path d="M87.31,77.86V78h0l0-.14h-.07m-.07.14v.1h0l0-.1Z" fill="#acc554"/>
      <path d="M38,78.13l0,.13h0Z" fill="#f8e4a6"/>
      <path d="M87.17,78.13v.1h0l0-.1Z" fill="#acc554"/>
      <path d="M87.21,78.16l-.18.4h0Z" fill="#f9eab9"/>
      <path d="M38,78.2l.17.36h0Z" fill="#9ab85c"/>
      <path d="M87.1,78.26v.1h0l0-.1Z" fill="#b1c556"/>
      <path d="M87,78.4v.1h0l0-.1Z" fill="#b5c657"/>
      <path d="M38.15,78.5l.11.26h0Z" fill="#f8e3a3"/>
      <path d="M86.9,78.73h0l.1-.2Z" fill="#b8c247"/>
      <path d="M87,78.56l-.07.17Z" fill="#f8e4a6"/>
      <path d="M38.22,78.6l0,.1h0v-.1Z" fill="#b6c05f"/>
      <path d="M86.83,78.73v.13h0l0-.13Z" fill="#acc454"/>
      <path d="M38.29,78.76l.11.24h0Z" fill="#f8e3a3"/>
      <path d="M33.8,78.86c-.15.3.13.87.22,1.17.33,1.09,1,2.81,2.44,2.84L34.8,80.43Z" fill="#ffbd74"/>
      <path d="M86.76,78.86V79h0l0-.1Z" fill="#acc454"/>
      <path d="M38.43,78.93l.1.23h0Z" fill="#a9b74d"/>
      <path d="M86.62,79.2h0l.11-.2Z" fill="#b8c247"/>
      <path d="M38.5,79.1l0,.13h0Z" fill="#f8e3a3"/>
      <path d="M38.57,79.2l.24.43h0A.61.61,0,0,0,38.57,79.2Z" fill="#9ab75c"/>
      <path d="M86.55,79.2v.1h0l0-.1Z" fill="#acc454"/>
      <path d="M38.57,79.23l.1.17Z" fill="#f9e8b4"/>
      <path d="M86.48,79.33v.1h0l0-.1Z" fill="#abc455"/>
      <path d="M86.52,79.37l0,.13h0Z" fill="#f9eab9"/>
      <path d="M86.2,79.87h0l.24-.4A.56.56,0,0,0,86.2,79.87Z" fill="#b7c248"/>
      <path d="M57.82,79.5v.13h0Z" fill="#faeab9"/>
      <path d="M86.45,79.5l-.94,1.4-.55.8a6.31,6.31,0,0,0,1.2-1.63C86.26,79.92,86.49,79.69,86.45,79.5Z" fill="#faeecb"/>
      <path d="M38.78,79.57l.1.23h0Z" fill="#f8e3a3"/>
      <path d="M38.91,79.8l.07.1Z" fill="#f9eab9"/>
      <path d="M39,79.87l.32.5h0A.72.72,0,0,0,39,79.87Z" fill="#a9b74e"/>
      <path d="M86.14,79.87V80h0l0-.1Z" fill="#abc455"/>
      <path d="M39,79.9l.11.17Z" fill="#f9e8b4"/>
      <path d="M86,80.2h0l.11-.2Z" fill="#b7c148"/>
      <path d="M39.12,80.1l.11.17Z" fill="#f9e8b4"/>
      <path d="M85.86,80.4h0l.11-.2Z" fill="#b7c148"/>
      <path d="M39.26,80.3l0,.13h0Z" fill="#f8e3a3"/>
      <path d="M39.33,80.4l.1.17h0Z" fill="#afb748"/>
      <path d="M85.72,80.6h0l.1-.2Z" fill="#b7c148"/>
      <path d="M25.92,80.43v.51h0Z" fill="#ff9b71"/>
      <path d="M39.33,80.43l.07.1Z" fill="#f8e4a6"/>
      <path d="M39.4,80.53l.07.1Z" fill="#f9eab9"/>
      <path d="M39.47,80.6l.1.17h0Z" fill="#afb748"/>
      <path d="M85.58,80.8h0l.1-.2Z" fill="#b7c148"/>
      <path d="M39.47,80.63l.07.1Z" fill="#f8e4a6"/>
      <path d="M39.54,80.73l.07.11Z" fill="#f9eab9"/>
      <path d="M39.61,80.8l.1.17h0Z" fill="#afb748"/>
      <path d="M85.44,81h0l.1-.2Z" fill="#b6c148"/>
      <path d="M39.61,80.84l.07.1Z" fill="#f8e4a6"/>
      <path d="M39.68,80.94l.17.23Z" fill="#f8e5a8"/>
      <path d="M85.31,81.17h0l.1-.17Z" fill="#acc353"/>
      <path d="M39.85,81.1l.21.34h0Z" fill="#a9b74e"/>
      <path d="M85.1,81.47h0l.18-.27A.3.3,0,0,0,85.1,81.47Z" fill="#adc251"/>
      <path d="M40,81.3l.07.1Z" fill="#f8e4a6"/>
      <path d="M40,81.4l.07.1Z" fill="#f9eab9"/>
      <path d="M40.09,81.47l.62.77A1.62,1.62,0,0,0,40.09,81.47Z" fill="#a8b74e"/>
      <path d="M85,81.64l.14-.17Z" fill="#a6c560"/>
      <path d="M40.09,81.5l.1.14Z" fill="#f8e5a8"/>
      <path d="M40.19,81.64l.07.1Z" fill="#f9eab9"/>
      <path d="M84.75,81.9l.21-.23Z" fill="#adc252"/>
      <path d="M84.93,81.7l-.18.27C84.85,81.9,85,81.82,84.93,81.7Z" fill="#f9eab9"/>
      <path d="M40.3,81.77l.1.13Z" fill="#f8e5a8"/>
      <path d="M40.4,81.9l.07.1Z" fill="#f9eab9"/>
      <path d="M84.27,82.51l.48-.57A1,1,0,0,0,84.27,82.51Z" fill="#adc252"/>
      <path d="M84.72,82c-.42.51-.84,1-1.28,1.5-.19.21-.5.43-.55.71h0a3.22,3.22,0,0,1,.58-.65c.28-.31.55-.64.82-1C84.43,82.44,84.77,82.15,84.72,82Z" fill="#faeecb"/>
      <path d="M40.5,82l.11.13Z" fill="#f8e5a8"/>
      <path d="M40.61,82.17l.1.13Z" fill="#f9eab9"/>
      <path d="M40.71,82.27l.28.3Z" fill="#9db758"/>
      <path d="M40.71,82.3l.14.17Z" fill="#f8e5a8"/>
      <path d="M40.85,82.47l.14.17Z" fill="#f9eab9"/>
      <path d="M83.92,82.94h0l.31-.4A.54.54,0,0,0,83.92,82.94Z" fill="#acc252"/>
      <path d="M41,82.61l1,1.1.7.63a7.52,7.52,0,0,0-1.16-1.24C41.32,82.92,41.22,82.71,41,82.61Z" fill="#9db758"/>
      <path d="M41,82.64l.17.2Z" fill="#f8e5a8"/>
      <path d="M36.5,82.87a5.78,5.78,0,0,0,1,1.44c.56.75,1.12,1.51,1.71,2.24a5.87,5.87,0,0,0,.75.9l-.54-1.17L38.27,84l-.6-.9-.28-.33Z" fill="#9c964e"/>
      <path d="M41.16,82.84l.14.17Z" fill="#faeecb"/>
      <path d="M83.51,83.41h0l.38-.47A.67.67,0,0,0,83.51,83.41Z" fill="#acc152"/>
      <path d="M41.33,83l.18.2Z" fill="#f8e5a8"/>
      <path d="M41.51,83.24l.2.23Z" fill="#faeecb"/>
      <path d="M82.89,84.08h0l.59-.67A1.13,1.13,0,0,0,82.89,84.08Z" fill="#abc152"/>
      <path d="M41.75,83.51l.24.26Z" fill="#f8e5a8"/>
      <path d="M42,83.77l.59.61Z" fill="#faeecb"/>
      <path d="M81.57,85.34a6.07,6.07,0,0,0,1.32-1.26A3.71,3.71,0,0,0,81.57,85.34Z" fill="#afc254"/>
      <path d="M62.49,84.11v0h.1Z" fill="#f9e5a8"/>
      <path d="M82.85,84.11l-1.24,1.23c.36-.11.73-.64,1-.9C82.7,84.36,82.88,84.24,82.85,84.11Z" fill="#f8e5a8"/>
      <path d="M42.58,84.34a3.35,3.35,0,0,0,.93.87l-.79-.87Z" fill="#78b67b"/>
      <path d="M43.51,85.14a1,1,0,0,0,.52.54Z" fill="#9db758"/>
      <path d="M43.55,85.28a1.56,1.56,0,0,0,.72.67Z" fill="#f8e5a8"/>
      <path d="M80.88,86l.69-.57C81.33,85.31,81,85.76,80.88,86Z" fill="#aac053"/>
      <path d="M78.15,88v0l.84-.53,2-1.51.74-.6c-.26-.07-.72.48-.9.64C79.94,86.73,79.05,87.36,78.15,88Z" fill="#faeecb"/>
      <path d="M44,85.68l.31.27Z" fill="#beb739"/>
      <path d="M44.31,86a.81.81,0,0,0,.45.4Z" fill="#f8e5a8"/>
      <path d="M44.34,86l.24.2Z" fill="#9db658"/>
      <path d="M80.33,86.41l.55-.43C80.66,85.91,80.41,86.24,80.33,86.41Z" fill="#a9bf53"/>
      <path d="M44.58,86.15l.25.2Z" fill="#beb739"/>
      <path d="M44.79,86.35l.31.26Z" fill="#f9eab9"/>
      <path d="M44.83,86.35l.24.2Z" fill="#9db658"/>
      <path d="M80,86.68l.31-.27Z" fill="#b1c157"/>
      <path d="M45.07,86.55a3.35,3.35,0,0,0,1,.73A2.52,2.52,0,0,0,45.07,86.55Z" fill="#9db658"/>
      <path d="M45.17,86.65l.28.23Z" fill="#faeecb"/>
      <path d="M79.64,87l.34-.24C79.82,86.66,79.7,86.81,79.64,87Z" fill="#a9bf53"/>
      <path d="M45.52,86.91l.2.17v0Z" fill="#faeecb"/>
      <path d="M79.36,87.15l.24-.2Z" fill="#a8bf53"/>
      <path d="M41.16,87a4.62,4.62,0,0,0,.47.84c.31.52.62,1,.95,1.54.65,1,1.31,2,2,3A7.52,7.52,0,0,0,46,94a2.16,2.16,0,0,0,3.13-.51,2.13,2.13,0,0,0,.54-.83,10.56,10.56,0,0,1-2.11-1,31.12,31.12,0,0,1-4.53-3C42.4,88.1,41.83,87.47,41.16,87Z" fill="#ff6969"/>
      <path d="M45.79,87.11l.21.17v0Z" fill="#faeecb"/>
      <path d="M79.08,87.35l.28-.17C79.22,87.14,79.14,87.23,79.08,87.35Z" fill="#a8bf53"/>
      <path d="M46,87.28v0l.45.26Z" fill="#9db658"/>
      <path d="M46.07,87.32l.21.16v0Z" fill="#faeecb"/>
      <path d="M78.81,87.55l.27-.17C78.94,87.34,78.86,87.43,78.81,87.55Z" fill="#a8be54"/>
      <path d="M46.35,87.52l.2.16Z" fill="#f9e8b4"/>
      <path d="M78.6,87.68l.17-.1Z" fill="#a6be55"/>
      <path d="M46.62,87.68l.11.07Z" fill="#9bb65a"/>
      <path d="M78.39,87.82l.21-.1C78.49,87.68,78.44,87.72,78.39,87.82Z" fill="#9ac061"/>
      <path d="M46.73,87.75a2.78,2.78,0,0,0,.9.6A2.23,2.23,0,0,0,46.73,87.75Z" fill="#9bb65a"/>
      <path d="M78.12,88l.27-.17C78.25,87.81,78.17,87.9,78.12,88Z" fill="#a8be54"/>
      <path d="M77.91,88.15l.17-.1Z" fill="#a6be55"/>
      <path d="M77.94,88.12v0l.21-.13Z" fill="#f9e8b4"/>
      <path d="M77.7,88.28l.17-.1Z" fill="#abbf56"/>
      <path d="M77.74,88.25v0l.2-.13Z" fill="#f9e8b4"/>
      <path d="M77.56,88.35l.11,0Z" fill="#a3be58"/>
      <path d="M76.49,89v0a2.93,2.93,0,0,0,1.25-.74Z" fill="#faeecb"/>
      <path d="M47.63,88.35v0l.2.1Z" fill="#9aba68"/>
      <path d="M77.35,88.48l.21-.1C77.45,88.35,77.41,88.39,77.35,88.48Z" fill="#99bf62"/>
      <path d="M47.87,88.48l.1.07Z" fill="#82b879"/>
      <path d="M77.15,88.62l.2-.1C77.25,88.48,77.2,88.53,77.15,88.62Z" fill="#a5c264"/>
      <path d="M48,88.55v0l.21.1Z" fill="#8db667"/>
      <path d="M77,88.68l.1,0Z" fill="#a3be58"/>
      <path d="M48.18,88.68v0l.14,0Z" fill="#a3b858"/>
      <path d="M76.8,88.82l.21-.1C76.9,88.68,76.85,88.73,76.8,88.82Z" fill="#9fc063"/>
      <path d="M48.32,88.75l.1.07Z" fill="#aeb748"/>
      <path d="M48.42,88.82v0l.24.1v0Z" fill="#a3b858"/>
      <path d="M76.66,88.89l.11,0Z" fill="#a3be58"/>
      <path d="M76.46,89l.2-.1C76.55,88.89,76.51,88.93,76.46,89Z" fill="#a4c164"/>
      <path d="M48.77,89v0l.14,0v0Z" fill="#9eb85d"/>
      <path d="M76.32,89.09l.1,0Z" fill="#a2be58"/>
      <path d="M76.35,89.05v0l.14,0Z" fill="#f8e3a3"/>
      <path d="M48.91,89.09v0l.24.1Z" fill="#9eb85d"/>
      <path d="M76.18,89.15l.14,0Z" fill="#a2be58"/>
      <path d="M76,89.29l.21-.1C76.07,89.15,76,89.19,76,89.29Z" fill="#a4c164"/>
      <path d="M76,89.25v0l.17-.1Z" fill="#f8e4a6"/>
      <path d="M49.15,89.22v0l.14,0Z" fill="#9eb657"/>
      <path d="M49.29,89.29v0l.89.43A1.9,1.9,0,0,0,49.29,89.29Z" fill="#afbd5f"/>
      <path d="M75.83,89.35l.11,0Z" fill="#a7be59"/>
      <path d="M75.87,89.32v0l.14,0Z" fill="#f8e3a3"/>
      <path d="M49.35,89.35l.11.07v0Z" fill="#eee0a2"/>
      <path d="M75.42,89.55l.38-.16A.42.42,0,0,0,75.42,89.55Z" fill="#a2bd58"/>
      <path d="M75.73,89.39v0l.14,0Z" fill="#f8e3a3"/>
      <path d="M49.35,89.42v0c.6.2,1.21.77,1.84.8l-1-.47-.87-.36m24.86.77,1.62-.74c-.15,0-.31,0-.45.12C75.06,89.74,74.42,89.9,74.21,90.19Z" fill="#fbf4e0"/>
      <path d="M75.28,89.62l.14,0-.14,0m-.14.07.14,0-.14,0m-.14.06.14,0Z" fill="#a2bd59"/>
      <path d="M50.18,89.75v0l.14,0Z" fill="#9eb85d"/>
      <path d="M74.87,89.82l.13,0Z" fill="#a2bd59"/>
      <path d="M50.32,89.82v0l.87.37A1.88,1.88,0,0,0,50.32,89.82Z" fill="#a4ba5e"/>
      <path d="M74.73,89.89l.14,0Z" fill="#a2bd59"/>
      <path d="M74.59,90l.14,0-.14,0m-.14.07.14,0Z" fill="#a1bd59"/>
      <path d="M74.31,90.09l.14,0-.14,0m-.14.06.14,0-.14,0m-.13.07.1,0Z" fill="#a1bc59"/>
      <path d="M74.07,90.19v0l.14,0Z" fill="#f8e3a3"/>
      <path d="M51.19,90.22v0l.17,0Z" fill="#99b75d"/>
      <path d="M73.86,90.25v0l.21,0Z" fill="#f8e3a3"/>
      <path d="M51.36,90.29v0l.14,0Z" fill="#a4ba5e"/>
      <path d="M73.69,90.35l.14,0Z" fill="#a1bc59"/>
      <path d="M51.5,90.35v0l.27.07Z" fill="#aeb748"/>
      <path d="M73.55,90.42l.14,0Z" fill="#a1bc59"/>
      <path d="M73.38,90.46v0l.21,0h-.21m-21.74,0v0h.13Z" fill="#f8e3a3"/>
      <path d="M51.84,90.49v0l.14,0Z" fill="#9eb85d"/>
      <path d="M73.21,90.56l.13,0-.13,0m-.14.06.14,0Z" fill="#a0bc59"/>
      <path d="M52.15,90.62v0l.18,0Z" fill="#99b75d"/>
      <path d="M72.93,90.66v0l.17,0Z" fill="#f8e3a3"/>
      <path d="M72.69,90.72v0l.17,0Z" fill="#a0bc59"/>
      <path d="M52.53,90.76v0l.32.1Z" fill="#aeb748"/>
      <path d="M72.52,90.82l.13,0Z" fill="#a0bc59"/>
      <path d="M72.34,90.86v0l.18,0Z" fill="#a0bc5a"/>
      <path d="M52.88,90.89v0l.17,0Z" fill="#aabc5e"/>
      <path d="M72.14,90.92v0l.17,0Z" fill="#a0bc5a"/>
      <path d="M53.05,91v0l.18,0Z" fill="#99b75d"/>
      <path d="M72,91l.14,0Z" fill="#a0bc5a"/>
      <path d="M53.23,91v0h.13Z" fill="#aeb748"/>
      <path d="M71.79,91.06v0l.21,0h-.21m-18.56,0v0h.13l-.13,0m.17,0v0l.17,0v0Z" fill="#f8e3a3"/>
      <path d="M71.62,91.09v0h.13Z" fill="#a0bb5a"/>
      <path d="M71.58,91.12v0h.17l-.17,0m-18,0v0l.13,0v0Z" fill="#f8e3a3"/>
      <path d="M53.68,91.16v0l.38.1Z" fill="#99b75c"/>
      <path d="M71.41,91.16v0h.14Z" fill="#9fbb5a"/>
      <path d="M71.37,91.19v0h.18Z" fill="#f8e3a3"/>
      <path d="M71.2,91.22v0h.14Z" fill="#9fbb5a"/>
      <path d="M71.17,91.26v0h.17Z" fill="#f8e3a3"/>
      <path d="M54.06,91.29v0h.13Z" fill="#afb748"/>
      <path d="M71,91.29v0h.14Z" fill="#a4bd5a"/>
      <path d="M54.06,91.32v0h.13l-.13,0m16.9,0v0h.17Z" fill="#f8e3a3"/>
      <path d="M54.3,91.36v0l.17,0Z" fill="#99b75c"/>
      <path d="M70.79,91.39v0l.17,0Z" fill="#f8e3a3"/>
      <path d="M70.3,91.46v.06l.49-.1Z" fill="#b9ba40"/>
      <path d="M54.51,91.42v0l.2,0Z" fill="#99b75c"/>
      <path d="M54.75,91.49v0h.14Z" fill="#b6bf5f"/>
      <path d="M54.75,91.52v0h.14l-.14,0m15.52,0v0h.17Z" fill="#f8e3a3"/>
      <path d="M55,91.56v0l.21,0Z" fill="#99b75c"/>
      <path d="M70.1,91.59v0l.17,0Z" fill="#f8e3a3"/>
      <path d="M69.82,91.59v.07l.28,0Z" fill="#bcbb41"/>
      <path d="M55.23,91.62v0h.14Z" fill="#afb748"/>
      <path d="M55.23,91.66v0h.14Z" fill="#f8e3a3"/>
      <path d="M69.54,91.66v.06l.28,0Z" fill="#b9ba40"/>
      <path d="M69.82,91.66v0H70Z" fill="#f8e3a3"/>
      <path d="M55.37,91.69v0h.14Z" fill="#f9ecc1"/>
      <path d="M55.51,91.69v0l.69.14Z" fill="#b0be5e"/>
      <path d="M69.51,91.72v0h.17l-.17,0m-.17.07v0l.17,0Z" fill="#f8e3a3"/>
      <path d="M69,91.82v0h.14Z" fill="#9ebb5a"/>
      <path d="M56.06,91.86v0h.14Z" fill="#f8e3a3"/>
      <path d="M56.2,91.86v0l.55.07Z" fill="#99b75c"/>
      <path d="M68.51,91.92v0l.48-.07Z" fill="#b8ba40"/>
      <path d="M69,91.86v0h.14Z" fill="#e6dea0"/>
      <path d="M56.2,91.89v0h.14Z" fill="#f9ecc1"/>
      <path d="M56.65,92v0h.1Z" fill="#88cbb5"/>
      <path d="M56.75,92V92h.14V92Z" fill="#96c082"/>
      <path d="M68.37,92v0h.14Z" fill="#9eba5a"/>
      <path d="M68.16,92v0h.21Z" fill="#b8ba40"/>
      <path d="M56.92,92v0h.18Z" fill="#b0be5e"/>
      <path d="M68,92v0h.14Z" fill="#9eba5a"/>
      <path d="M57,92.06v0h.14Z" fill="#f8e3a3"/>
      <path d="M57.1,92.06v0l.48,0v-.07Z" fill="#b6b742"/>
      <path d="M67.88,92.06v0H68Z" fill="#b8ba40"/>
      <path d="M57.1,92.09v0h.21Z" fill="#f9ecc1"/>
      <path d="M57.31,92.09v0h.13Z" fill="#6dbd9c"/>
      <path d="M67.74,92.09v0h.14Z" fill="#b3c05d"/>
      <path d="M57.44,92.13v0h.14Z" fill="#a6c583"/>
      <path d="M57.58,92.13v0l.76.07Z" fill="#b6b841"/>
      <path d="M67.47,92.13v0h.27Z" fill="#d5c244"/>
      <path d="M67.74,92.13v0h.14Z" fill="#f8e3a3"/>
      <path d="M57.69,92.16v0h.1Z" fill="#9fd1b7"/>
      <path d="M67.33,92.16v0h.14Z" fill="#9dba5a"/>
      <path d="M67.47,92.16v0h.27Z" fill="#f9ecc1"/>
      <path d="M65.88,92.33v.06l1.45-.16C67,92.07,66.29,92.33,65.88,92.33Z" fill="#b8b941"/>
      <path d="M67.33,92.19v0h.14Z" fill="#f8e3a3"/>
      <path d="M57.93,92.23v0h.14Z" fill="#f9ecc1"/>
      <path d="M58.07,92.23v0h.27Z" fill="#93bc72"/>
      <path d="M67.05,92.23v0h.28Z" fill="#f9ecc1"/>
      <path d="M58.2,92.26v0h.14Z" fill="#ced187"/>
      <path d="M58.34,92.26v0l1.52.14-.44-.05Z" fill="#b6b841"/>
      <path d="M66.92,92.26v0h.13Z" fill="#f8e3a3"/>
      <path d="M58.34,92.29v0h.28l-.28,0m8.23,0v0h.35Z" fill="#f9ecc1"/>
      <path d="M58.62,92.33v0h.14l-.14,0m7.81,0v0h.14Z" fill="#f8e3a3"/>
      <path d="M58.76,92.36v0h.31Z" fill="#f9ecc1"/>
      <path d="M59.07,92.36v0h.1Z" fill="#9fd1b7"/>
      <path d="M66,92.36v0h.17Z" fill="#b7daba"/>
      <path d="M65.26,92.39v0h.62Z" fill="#b7b941"/>
      <path d="M65.88,92.39v0H66Z" fill="#eee1a1"/>
      <path d="M59.31,92.43v0h.35Z" fill="#f9ecc1"/>
      <path d="M59.66,92.43v0h.2Z" fill="#72c5b3"/>
      <path d="M59.86,92.43v0H60Z" fill="#9ab85c"/>
      <path d="M65.12,92.43v0h.14Z" fill="#9cb95b"/>
      <path d="M65.26,92.43v0h.2Z" fill="#75c7b1"/>
      <path d="M65.46,92.43v0h.42Z" fill="#f9ecc1"/>
      <path d="M59.86,92.46v0H60Z" fill="#d7d488"/>
      <path d="M60,92.46v0l.62,0Z" fill="#b6b841"/>
      <path d="M64.5,92.46v0h.62Z" fill="#b7b941"/>
      <path d="M65.12,92.46v0h.14Z" fill="#cfdeb4"/>
      <path d="M60,92.49v0h.42Z" fill="#f9ecc1"/>
      <path d="M64.36,92.49v0h.14Z" fill="#9cb95b"/>
      <path d="M64.5,92.49v0h.27Z" fill="#75c7b1"/>
      <path d="M64.77,92.49v0h.35Z" fill="#f9ecc1"/>
      <path d="M60.49,92.53v0h.13Z" fill="#f8e3a3"/>
      <path d="M60.62,92.53v0h3.74l-1.14,0Z" fill="#b7b941"/>
      <path d="M60.62,92.56v0H61.7Z" fill="#f9ecc1"/>
      <path d="M61.7,92.56v0h1.83l-.59,0Z" fill="#73c5b2"/>
      <path d="M63.53,92.56v0h.83Z" fill="#f9ecc1"/>
      <path d="M49.87,92.76l-.63,1.4-.68,1.24a5,5,0,0,0,1.21-1.87,2.89,2.89,0,0,0,.28-.74Z" fill="#ff6969"/>
      <path d="M47.49,96v0a1.12,1.12,0,0,0,.86-.4Z" fill="#fff680"/>
    </g>
  </g>
</svg>
