<svg xmlns="http://www.w3.org/2000/svg" viewBox="0 0 96 96">
  <g id="Layer_2" data-name="Layer 2">
    <g id="Layer_1-2" data-name="Layer 1">
      <g id="Layer_2-2" data-name="Layer 2">
        <g id="Layer_1-2-2" data-name="Layer 1-2">
          <g>
            <path d="M33.9,54.93A13,13,0,0,0,33,57.57a30,30,0,0,0-1.1,6.35,29.09,29.09,0,0,0,8.44,22.3,31.07,31.07,0,0,0,9.89,6.68,31.71,31.71,0,0,0,32.2-4.71,30.06,30.06,0,0,0,8.49-11.5A29,29,0,0,0,86,46.87,31.89,31.89,0,0,0,76,39.17a30.67,30.67,0,0,0-10.38-2.89,32.14,32.14,0,0,0-12.93,1.36,40,40,0,0,0-5.57,2.45,21.71,21.71,0,0,0,.73-8.7,23.52,23.52,0,0,0-3.72-10,22,22,0,0,0-4-4.45,23,23,0,0,0-5.67-3.69A25.38,25.38,0,0,0,25.29,11a24.54,24.54,0,0,0-18.5,7.32,22.79,22.79,0,0,0-6.37,17,23.18,23.18,0,0,0,10.83,18,24.76,24.76,0,0,0,8.19,3.24A25.38,25.38,0,0,0,33.9,54.93Z" fill="#fdfdfe"/>
            <path d="M23.88,54a18.77,18.77,0,0,1-3.5-.29,21.54,21.54,0,0,1-6.06-2,22.1,22.1,0,0,1-3.6-2.28,17.93,17.93,0,0,1-2.14-1.94A21.26,21.26,0,0,1,5.7,43.67,19.6,19.6,0,0,1,4,39.88a20.66,20.66,0,0,1-.74-3c-.1-.58-.13-1.17-.21-1.76A13.06,13.06,0,0,1,3,33.58a17.5,17.5,0,0,1,.15-2.29,19.63,19.63,0,0,1,1.71-6,20.25,20.25,0,0,1,2.38-3.9c.39-.51.81-1,1.25-1.46.27-.28.52-.56.81-.83A21.56,21.56,0,0,1,15,15.21,23.36,23.36,0,0,1,18.44,14c.8-.21,1.61-.37,2.42-.5.55-.09,1.12-.09,1.68-.16a12.75,12.75,0,0,1,1.38-.07,22.74,22.74,0,0,1,2.85.19A19.42,19.42,0,0,1,29.7,14a20.17,20.17,0,0,1,3.14,1.11,21.67,21.67,0,0,1,3,1.65,23.68,23.68,0,0,1,2,1.54,22.88,22.88,0,0,1,1.68,1.58,20.21,20.21,0,0,1,4.59,7.77,19.72,19.72,0,0,1,.62,2.52c.11.6.16,1.19.22,1.79a17.62,17.62,0,0,1,.06,2.3,16.77,16.77,0,0,1-.22,2.45,20.92,20.92,0,0,1-.54,2.47,18.26,18.26,0,0,1-1,2.67c-.14.3-.29.6-.44.91a2.28,2.28,0,0,1-.6.79c-.57.46-1.11,1-1.64,1.48-.7.7-1.35,1.43-2,2.18a26.27,26.27,0,0,0-2,2.62,1.56,1.56,0,0,1-.41.4,21.42,21.42,0,0,1-6.64,3,22,22,0,0,1-4.11.67C25,54,24.53,54,23.88,54Zm-.26-36.14a.9.9,0,0,0-.37.17l-4.73,3.06-3.1,2L13,24.65c-.12.07-.25.13-.25.29s-.09.62-.07.93a2.29,2.29,0,0,1,0,.64c-.11.59,0,1.19-.12,1.79a9.4,9.4,0,0,0,0,1.06c-.05.9-.12,1.8-.15,2.7,0,.74-.12,1.48-.09,2.23v.07c-.08.69-.11,1.39-.13,2.09S12,37.58,12,38.15v.1c-.09.66-.07,1.33-.13,2a.37.37,0,0,0,.18.34L15.31,43l3.78,2.8L23.42,49c.24.17.31.17.55,0,.89-.65,1.77-1.31,2.66-1.95l3.42-2.49c1.78-1.32,3.57-2.61,5.37-3.91a.44.44,0,0,0,.21-.39c0-.37,0-.75-.06-1.13-.06-.58,0-1.17-.07-1.76s0-1.27-.07-1.9,0-1.22-.07-1.83,0-1.34-.07-2,0-1.11-.06-1.67-.06-1.33-.07-2c0-.95-.13-1.91-.09-2.86a.35.35,0,0,0-.17-.34c-.18-.1-.34-.23-.52-.34l-3.2-2.09L26.06,19c-.67-.44-1.32-.89-2-1.3-.11-.3-.08-.63-.22-.94Z" fill="#355d9d"/>
            <path d="M36.09,73.64a5.77,5.77,0,0,1-.4-1.42c0-.07,0-.15-.06-.2a1.69,1.69,0,0,1-.17-.61A25.06,25.06,0,0,1,35,68.68a27.11,27.11,0,0,1-.15-4,.14.14,0,0,1,0-.06c.11-.17,0-.36,0-.54a1.08,1.08,0,0,1,0-.4c.12-.14,0-.31.06-.47a.74.74,0,0,1,0-.33c.09-.08.05-.18.06-.27a.46.46,0,0,1,0-.26c.09-.08.05-.18.06-.28a2.77,2.77,0,0,1,.15-1c.08-.06.06-.14.05-.22a.28.28,0,0,1,0-.18.21.21,0,0,0,0-.21l0-.13.15-.13c.19-.23.31-.27.54-.12s.72.39,1.07.59l1.68,1c.67.37,1.33.73,2,1.11a9.25,9.25,0,0,1,1.21.73.66.66,0,0,1-.12.27c-.26.44-.53.87-.79,1.3s-.18.29.14.47l5.56,3.11,7.38,4.13,1.82,1c.35.2.36.19.37-.21a9.51,9.51,0,0,1,0-1.07.67.67,0,0,1,.38.13,16.12,16.12,0,0,0,1.73,1,.54.54,0,0,1,.38.58c0,2.4,0,4.79,0,7.18,0,.13,0,.27.06.38,0,1.06,0,2.12,0,3.17a.33.33,0,0,0,.31.11h5.77c.28,0,.34,0,.35-.33a1.92,1.92,0,0,0,0-.24V77.3a2.44,2.44,0,0,1,0-.27c0-.12.08-.15.19-.1.41.22.84.42,1.23.67.59.36,1.2.69,1.81,1s1.14.61,1.7.94c.86.49,1.7,1,2.57,1.48.61.32,1.19.68,1.8,1a4.19,4.19,0,0,1,.69.38,14.37,14.37,0,0,0,1.47.85c1.21.65,2.38,1.35,3.59,2,.24.13.52.26.51.61h0l-.08.06h0c-.15,0-.27,0-.26.21h0a.11.11,0,0,0-.08.08h0a.11.11,0,0,0-.08.08.19.19,0,0,1-.14.12c-.06,0-.11,0-.13.08h0a.08.08,0,0,0-.07.07h0a.1.1,0,0,0-.07.08h0l-.08.06h0c-.1,0-.2,0-.2.15h0a.11.11,0,0,0-.08.07h0l-.08.06h0a.12.12,0,0,0-.13.08h0a.1.1,0,0,0-.07.07h0l-.08.06h0c-.1,0-.2,0-.2.14h0l-.07.06h0a.14.14,0,0,0-.14.08h0a.11.11,0,0,0-.08.07h0l-.08.06h0a.12.12,0,0,0-.13.08h0l-.08.07h0c-.06,0-.11,0-.13.08h0l-.07.06h0c-.11,0-.21,0-.21.14h0l-.07.06h0a.12.12,0,0,0-.11.07h0l-.08.06h0c-.06,0-.11,0-.13.08h0l-.07,0,0,0h0a.11.11,0,0,0-.1.06h0a.13.13,0,0,0-.14.07h0l-.08.06h0a.14.14,0,0,0-.14.08h0l-.08.06v0h0a.14.14,0,0,0-.11.07h0c-.06,0-.12,0-.14.07h0l-.08.06h0a.12.12,0,0,0-.1.07h0a.13.13,0,0,0-.14.07h0L76.5,89h0a.13.13,0,0,0-.11,0h0a.17.17,0,0,0-.14.07h0c-.07,0-.12,0-.14.08h0l-.07.06a27.87,27.87,0,0,1-2.53,1.21,26.08,26.08,0,0,1-3.95,1.3,17.52,17.52,0,0,1-1.75.36c.1-.15.27-.16.42-.19a3.49,3.49,0,0,0,.54-.12c.15-.06.18-.16.09-.28a.44.44,0,0,0-.18-.15c-1-.52-1.9-1-2.84-1.57-.24-.14-.5-.24-.72-.39-.53-.37-1.11-.64-1.66-1-.8-.45-1.59-.9-2.4-1.32s-1.61-.9-2.41-1.35c-.2-.11-.41-.21-.6-.33-.63-.41-1.32-.72-2-1.11s-1.13-.63-1.69-1-1-.58-1.56-.86-1-.54-1.46-.82-1.15-.64-1.72-1-1.09-.61-1.63-.93-1.1-.6-1.64-.91-1.14-.66-1.73-1L43,77c-.47-.26-1-.48-1.41-.76-.61-.39-1.27-.68-1.88-1.06s-1.09-.61-1.63-.93-1-.51-1.42-.81C36.34,73.29,36.33,73.31,36.09,73.64Z" fill="#6fc35c"/>
            <path d="M50.21,41.73a18.33,18.33,0,0,1,2.27-1,28.74,28.74,0,0,1,5.42-1.47c.83-.14,1.68-.22,2.53-.29a36.25,36.25,0,0,1,3.9,0c.6,0,1.21.1,1.81.16a26.94,26.94,0,0,1,2.85.5,28.06,28.06,0,0,1,10.78,5c.57.42,1.1.87,1.63,1.34s.82.72,1.19,1.11c.58.59,1.13,1.2,1.66,1.83A25,25,0,0,1,86.48,52a22.63,22.63,0,0,1,2.26,4.64c.2.58.42,1.15.57,1.74.09.39.19.79.31,1.18s.2.79.29,1.19a.2.2,0,0,1,0,.07h0l0,0a7.5,7.5,0,0,1,.27,1.75l0,0,0,0A5.52,5.52,0,0,1,90.32,64a.11.11,0,0,0,0,.19.58.58,0,0,1,.07.28c0,.51,0,1,0,1.53a1.25,1.25,0,0,1-.67-.25c-.42-.22-.83-.46-1.25-.69-.67-.38-1.36-.74-2-1.13-.48-.29-1-.55-1.46-.82s-1.1-.6-1.64-.91c-.71-.4-1.41-.79-2.1-1.21a.72.72,0,0,0-.68-.07,5.13,5.13,0,0,1-.44-.7C80,60,80,60,79.69,60.09a.57.57,0,0,1-.25.11,1.3,1.3,0,0,0-.73-.63c-.39-.2-.75-.44-1.13-.64a17.88,17.88,0,0,0-2.08-1.09c-.1,0-.1-.1-.1-.18a.25.25,0,0,1,.18-.1c.08,0,.14,0,.16-.1.38-.21.74-.46,1.15-.64.09,0,.15,0,.17-.09l.18-.1a.28.28,0,0,0,.3-.17c.1,0,.16-.15.29-.16s.09,0,.1-.06a.07.07,0,0,0-.08-.07c-.14-.29-.35-.54-.46-.84,0-.09,0-.15-.11-.16a.07.07,0,0,1,0-.06c0-.12,0-.24-.17-.28a11.85,11.85,0,0,1-.73-1.24c0-.08,0-.15-.11-.16a0,0,0,0,1,0-.06c0-.12,0-.24-.18-.28a6.57,6.57,0,0,1-.58-1c0-.07,0-.12-.09-.14a.12.12,0,0,1-.06-.1c0-.09,0-.16-.11-.17a.4.4,0,0,1-.1-.18.11.11,0,0,0-.1-.16,1.93,1.93,0,0,1-.22-.36c-.15-.13-.2-.12-.35.07a7.94,7.94,0,0,1-1,.57c-.07,0-.13,0-.15.08a.11.11,0,0,1-.1.06c-.09,0-.16,0-.17.1a.36.36,0,0,1-.18.1c-.09,0-.15,0-.17.1l-.06,0c-.07,0-.13,0-.15.09a1.38,1.38,0,0,1-.46.25c-.08,0-.14,0-.16.1A4.78,4.78,0,0,1,71,53c-.09,0-.15,0-.17.1a0,0,0,0,1-.06,0c-.12,0-.24,0-.29.18a.88.88,0,0,1-.32.16c-.08,0-.14,0-.16.1a.27.27,0,0,1-.19.1c-.1,0-.23,0-.22-.15s-.12-.23-.23-.3L69,53c-.66-.37-1.33-.73-2-1.12a9.55,9.55,0,0,1-1-.58.19.19,0,0,0-.3,0,.29.29,0,0,1-.26.12c0-.11,0-.21,0-.3v-3a.18.18,0,0,0-.2-.1c-.14-.08-.28-.14-.42,0h-5.6c0-.2.15-.24.25-.31a.12.12,0,0,0-.08-.13c-.34-.14-.61-.38-.94-.54a6.25,6.25,0,0,1-.85-.45A13.5,13.5,0,0,0,56,45.74c-.61-.31-1.18-.68-1.79-1s-1.45-.85-2.2-1.24-1.48-.85-2.24-1.22c-.11-.06-.2-.12-.21-.25h0l.07,0a.07.07,0,0,1,.06,0,.09.09,0,0,0,.08,0,.08.08,0,0,1,.06,0,.09.09,0,0,0,.08,0,.05.05,0,0,1,.05,0,.08.08,0,0,0,.09,0,0,0,0,0,1,.05,0A.09.09,0,0,0,50.21,41.73Z" fill="#33a89f"/>
            <path d="M10.47,52.8a12.53,12.53,0,0,1,1.12.65,22.31,22.31,0,0,0,2.06,1.07.71.71,0,0,1,.14.1l-.17.25a5.08,5.08,0,0,0-.92,1.77,2.46,2.46,0,0,0-.09,1.29c.48-.44,1-.85,1.39-1.31s.9-.91,1.37-1.35c.4.08.76.24,1.15.35l1.4.41a.52.52,0,0,0,.12.34c.35.6.71,1.19,1.08,1.78a42.82,42.82,0,0,0,2.57,3.7c.53.68,1.07,1.35,1.64,2s1.19,1.38,1.83,2c.12.12.24.24.35.37s.22.32.44.35h0a.17.17,0,0,0,.08.14.87.87,0,0,1,.19.23c.24.46.5.92.75,1.39.33.64.65,1.27,1,1.91,1,1.84,1.9,3.71,2.89,5.54.63,1.17,1.27,2.35,1.93,3.51.39.69.8,1.37,1.22,2.05.55.91,1.12,1.8,1.71,2.69.76,1.15,1.54,2.29,2.38,3.39s1.73,2.23,2.68,3.29c.49.54,1,1.09,1.49,1.61.72.73,1.46,1.45,2.23,2.14a6.25,6.25,0,0,1-1.6-.52A11.44,11.44,0,0,1,40,92.12a19.54,19.54,0,0,1-3-3.3c-1.15-1.53-2.15-3.16-3.23-4.74-1.29-1.88-2.68-3.7-4.1-5.49q-1.5-1.92-3.08-3.77c-.73-.86-1.48-1.71-2.24-2.54-1-1.11-2-2.21-3.16-3.23a20.38,20.38,0,0,0-3-2.41A5.4,5.4,0,0,0,16.71,66a2,2,0,0,0-.78-.08,1.19,1.19,0,0,0-1,.94,3.41,3.41,0,0,0-.05,1.49,22.78,22.78,0,0,0,1.43,4.77c.59,1.57,1.25,3.13,1.76,4.74a7.1,7.1,0,0,1,.44,2.28,1.11,1.11,0,0,1,0,.36c-.07.17-.11.19-.28.09l-.22-.16a17.37,17.37,0,0,1-1.62-1.59c-.47-.49-.92-1-1.37-1.5-.69-.78-1.37-1.56-2-2.35s-1.4-1.64-2.1-2.47a10.31,10.31,0,0,1-.65-.83c.47.34.82.8,1.27,1.15l.08.06h0a.1.1,0,0,0,.07.07h0c0,.06.07.07.14.07h0c0,.1.07.16.13.22a10,10,0,0,0,1.2,1,1.15,1.15,0,0,0,.25.12c.22.09.29,0,.3-.18a1.26,1.26,0,0,0-.05-.33A22.57,22.57,0,0,0,11.7,69q-1-2.11-2.18-4.18a44.36,44.36,0,0,1-2-4.22A19.31,19.31,0,0,1,6.14,56.2,9.81,9.81,0,0,1,6,53.84a1.37,1.37,0,0,1,1.12-1.39,3.12,3.12,0,0,1,1.14,0,8.48,8.48,0,0,1,1.78.6c.13.05.24.22.36.15S10.39,52.94,10.47,52.8ZM12.59,70s0-.1-.05-.07,0,0,.06.07a.44.44,0,0,0,.06.25c.59,1.23,1.14,2.48,1.62,3.75a9.74,9.74,0,0,1,.51,1.75c.05.28.07.58-.29.72a1.19,1.19,0,0,0,.6.21c.25,0,.37-.08.39-.32a1.5,1.5,0,0,0,0-.56,17,17,0,0,0-1.55-3.55c-.27-.51-.54-1-.83-1.5A2.77,2.77,0,0,0,12.59,70Zm-1.3-4.76a9.75,9.75,0,0,0,0-1.43c-.06-.68-.14-1.36-.23-2a8.82,8.82,0,0,0-.5-2,1.7,1.7,0,0,0-.51-.71c-.12-.1-.2-.07-.26.07a.76.76,0,0,0,0,.42c.11.52.19,1,.32,1.56.18.74.39,1.46.6,2.19s.4,1.27.6,1.9Z" fill="#ffa3a3"/>
            <path d="M81,85.86c0-.35-.27-.48-.51-.61-1.21-.64-2.38-1.34-3.58-2a13.51,13.51,0,0,1-1.48-.85,4.19,4.19,0,0,0-.69-.38c-.61-.3-1.19-.66-1.8-1-.87-.47-1.71-1-2.57-1.48-.56-.33-1.13-.63-1.7-.94s-1.22-.67-1.81-1c-.39-.25-.82-.45-1.23-.67-.1-.05-.18,0-.19.1a2.44,2.44,0,0,0,0,.27v7.11a1.92,1.92,0,0,1,0,.24c0,.27-.07.33-.35.33H59.31a.33.33,0,0,1-.31-.11,1.71,1.71,0,0,0,.45,0h5.6c.28,0,.29,0,.3-.29v-.24q0-4.41,0-8.82a.52.52,0,0,1,.31-.53l5.07-2.83,3.85-2.13L77,68.72a1,1,0,0,1,.31-.14c0,.14.12.18.22.23a4.48,4.48,0,0,1,.58.29c.68.41,1.39.78,2.09,1.17l.92.52c.75.44,1.51.88,2.28,1.29.59.32,1.19.64,1.76,1s1.42.78,2.11,1.18c.35.2.7.38,1,.59a.47.47,0,0,1,.28.49.07.07,0,0,1,0,.09c-.19,0-.11.18-.12.29s0,0,0,.05h0c-.09,0-.16,0-.06.13A5.73,5.73,0,0,1,87.85,77a22.64,22.64,0,0,1-1.37,2.51A27.68,27.68,0,0,1,83,84,21.44,21.44,0,0,1,81,85.86Z" fill="#5bb973"/>
            <path d="M36.09,73.64c.24-.33.25-.35.52-.17.46.3,1,.52,1.43.81s1.1.6,1.63.93,1.26.67,1.87,1.05c.45.29.94.51,1.41.77s1.12.62,1.68.92,1.16.64,1.73,1,1.1.59,1.64.91,1.1.61,1.63.93,1.16.65,1.72,1,1,.55,1.47.82l1.55.86c.57.32,1.14.62,1.7,1s1.33.7,2,1.1c.2.13.4.22.6.34.8.45,1.59.93,2.41,1.35s1.6.87,2.4,1.32c.56.31,1.14.58,1.66.94a6.23,6.23,0,0,0,.72.39c.94.54,1.89,1.06,2.84,1.58a.67.67,0,0,1,.19.14c.08.13.05.23-.1.28a2.42,2.42,0,0,1-.53.13c-.16,0-.33,0-.43.19a.34.34,0,0,1-.2,0c-.08,0-.16,0-.22,0a.25.25,0,0,1-.19,0,1.05,1.05,0,0,0-.7.12.3.3,0,0,1-.21,0c-.14-.14-.24,0-.35.06a.34.34,0,0,1-.2,0c-.21-.16-.38,0-.56.06a.62.62,0,0,1-.27,0c-.18-.13-.33,0-.49,0-.89.06-1.79.07-2.69,0s-1.51-.08-2.27-.16-1.3-.17-1.94-.28a28,28,0,0,1-8.13-2.79,29.4,29.4,0,0,1-4.51-2.95,28.11,28.11,0,0,1-3-2.79,25.54,25.54,0,0,1-3.36-4.51,28.19,28.19,0,0,1-2.24-4.83c0-.08-.05-.17-.08-.26s.06-.25-.09-.33,0,0,0,0Z" fill="#7bc84f"/>
            <path d="M42.07,63.46a9.25,9.25,0,0,0-1.21-.73l-2-1.12-1.68-1c-.35-.2-.72-.38-1.07-.59s-.35-.11-.54.12l-.15.13a16.94,16.94,0,0,1,.52-2.1A25.69,25.69,0,0,1,37.62,54a26,26,0,0,1,3-4.66,5,5,0,0,1,.53-.61.1.1,0,0,0,.08-.07h0c.16,0,.15-.1.15-.2s0-.06.06-.06a1,1,0,0,1,.82.27.38.38,0,0,0,.15.09c.47.24.94.5,1.4.77,1,.57,2,1.09,3,1.65.3.18.62.33.92.52s.59.37.86.58a1.77,1.77,0,0,1-.25.47c-.47.77-.9,1.57-1.42,2.32-.2.3-.31.64-.52.94s-.16.27.11.42l5.44,3L56.3,62c.05.11.12.09.17,0a.48.48,0,0,0,0-.29V58.49a1.44,1.44,0,0,1,.05-.46c.08-.28.19-.34.44-.19s.36.19.54.29l1,.6c.1.05.15.2.29.15s0-.2.07-.3V55c0-.11,0-.24.06-.34.07.1,0,.21,0,.32V81.37a.53.53,0,0,1,0,.33c-.1-.12-.06-.26-.06-.39,0-2.39,0-4.78,0-7.17a.54.54,0,0,0-.38-.58,16.27,16.27,0,0,1-1.74-1,.66.66,0,0,0-.38-.14c0-.12,0-.24,0-.36,0-1.76,0-3.52,0-5.28a.47.47,0,0,0-.29-.47l-1.82-1-7-3.91-2.78-1.56c-.24-.13-.24-.13-.39.11l0,.09-1.87,3.11a.12.12,0,0,0-.11.16A.12.12,0,0,1,42.07,63.46Z" fill="#5bb973"/>
            <path d="M45.71,24.08a2.78,2.78,0,0,1-.27-.51c-.3-.57-.6-1.15-.95-1.7a.49.49,0,0,1-.13-.32,7.1,7.1,0,0,1,1.1-.21,32.67,32.67,0,0,0,6.25-1.64,9.45,9.45,0,0,0,2.69-1.54A3.11,3.11,0,0,0,55.6,16a3.1,3.1,0,0,0-.31-1.43,5.24,5.24,0,0,0-1.37-1.74,17.51,17.51,0,0,0-3.33-2.14c-1.15-.61-2.35-1.17-3.49-1.82a10.38,10.38,0,0,1-2.18-1.52,3.33,3.33,0,0,1-.76-1.06.59.59,0,0,1,.2-.85,3.41,3.41,0,0,1,1-.48,16.21,16.21,0,0,1,2.68-.59L50.52,4c.61-.06,1.23-.1,1.85-.15.44,0,.87-.08,1.31-.07l.35,0c-.4.13-.81.24-1.2.39a1.54,1.54,0,0,0-.72.21,5.68,5.68,0,0,0-1.27.66.6.6,0,0,0-.1,1c.27.21.51.45.77.66a16.92,16.92,0,0,0,2.75,1.72c1.11.56,2.26,1,3.42,1.49,1.35.52,2.7,1,4,1.59a26.73,26.73,0,0,1,2.75,1.32,16.88,16.88,0,0,1,2.65,1.79,10.57,10.57,0,0,1,2.11,2.27,3.25,3.25,0,0,1,.51,1.4,2.29,2.29,0,0,1-.61,1.72c-.59-.1-1.17-.21-1.76-.29s-1.16-.14-1.75-.16-1.4,0-2.11,0a14.35,14.35,0,0,0-1.61.09c-.73.08-1.45.18-2.18.3a31.38,31.38,0,0,0-3.6.85,36,36,0,0,0-4.28,1.59q-1.65.73-3.21,1.62l-1.36.78a1.3,1.3,0,0,1-.34-.15A12.08,12.08,0,0,0,45.71,24.08ZM58,11.84a.12.12,0,0,0,.07.07,1.91,1.91,0,0,0,.52.64c.81.81,1.6,1.63,2.49,2.36a6.84,6.84,0,0,0,1.39.92,1.15,1.15,0,0,0,.63.15c.25,0,.32-.14.22-.35a1.1,1.1,0,0,0-.2-.28,8.3,8.3,0,0,0-.9-.77c-1-.8-2.17-1.5-3.29-2.2A3.28,3.28,0,0,0,58,11.9L58,11.84s0,0,0,0ZM54.17,8.92c-.36-.17-.67-.32-1-.45a18,18,0,0,1-3.46-1.92,2.26,2.26,0,0,1-1.19-1.69,1.24,1.24,0,0,0,0,1.79,4.55,4.55,0,0,0,1.47,1,18.68,18.68,0,0,0,3.81,1.25.5.5,0,0,0,.34,0Zm.11.07V9h0s0,0,0,0Z" fill="#ffa3a3"/>
            <path d="M63.29,36.14l-1,0a.71.71,0,0,0,.07-.32,7.32,7.32,0,0,1,.09-.93c0-.47.11-.94.12-1.42a1.77,1.77,0,0,1,0-.23,5.22,5.22,0,0,0,0-1.72.28.28,0,0,0-.16-.24c-.13-.05-.19.06-.25.13a3.84,3.84,0,0,0-.5.88c-.28.68-.57,1.35-.86,2-.1.22-.16.23-.34.07-.42-.39-.82-.78-1.25-1.16l-1.55-1.36c-.7-.6-1.42-1.16-2.15-1.71-1-.78-2.11-1.53-3.2-2.25-.85-.56-1.74-1.06-2.63-1.56,0-.1-.08-.12-.14-.16l-1-.62a24.14,24.14,0,0,1,3.77-1.14,14.83,14.83,0,0,1,1.89-.27c.62,0,1.24,0,1.85,0a5.68,5.68,0,0,0-1.77-.59c-.62-.15-1.26-.23-1.89-.35a1,1,0,0,1,.32-.13l2-.47c.7-.16,1.41-.3,2.12-.41s1.19-.2,1.79-.28l1.57-.19c.32,0,.64,0,1-.07a8.79,8.79,0,0,1,1.44-.1,20.06,20.06,0,0,1,2.45,0c.62.06,1.25.11,1.87.22a6.34,6.34,0,0,1,2.63,1,2.8,2.8,0,0,1,1.12,1.44,3.92,3.92,0,0,1,0,2,10.1,10.1,0,0,1-1.3,2.93.33.33,0,0,1-.31.17,2,2,0,0,1-.42,0c-.45-.1-.91,0-1.36-.11s-.62,0-.93-.07-.3,0-.38.23c-.22.61-.42,1.22-.65,1.82-.38,1-.77,1.93-1.19,2.88-.28.63-.55,1.27-.87,1.89A.65.65,0,0,0,63.29,36.14Z" fill="#ff7b69"/>
            <path d="M59,54.63c-.11.1-.06.23-.06.35,0,1.16,0,2.31,0,3.47a.29.29,0,0,1,0,.13c0,.11.06.25-.07.3s-.19-.09-.28-.14c-.34-.21-.69-.41-1-.6L57,57.85c-.26-.15-.36-.09-.44.19a1.76,1.76,0,0,0-.06.46v3.17c0,.1,0,.2,0,.29s-.12.11-.17,0c.15-.1.09-.26.09-.4V54.74a.28.28,0,0,0-.17-.27c-.31-.16-.61-.35-.92-.52-.76-.42-1.52-.83-2.26-1.28,0-.1-.08-.11-.16-.1-.56-.25-1.06-.58-1.59-.87l-1.55-.87c-.12-.07-.22-.13-.32,0-.28.48-.58,1-.87,1.43-.28-.21-.58-.39-.87-.58s-.61-.34-.92-.51c-1-.57-2-1.09-3-1.66-.46-.27-.93-.53-1.4-.77l-.15-.09a1,1,0,0,0-.82-.27,21.83,21.83,0,0,1,2-2.08c.5-.45,1-.89,1.55-1.32.2-.17.43-.32.64-.48s.48-.38.73-.55a25.15,25.15,0,0,1,2.32-1.46,5.07,5.07,0,0,1,.93-.47c0,.13.1.19.21.24.76.38,1.48.83,2.24,1.23s1.45.85,2.2,1.23,1.18.68,1.79,1a10.87,10.87,0,0,1,1.49.83,6.71,6.71,0,0,0,.84.44c.33.16.61.4,1,.54a.14.14,0,0,1,.08.13c-.11.07-.3.11-.25.32l-.07.06a7.45,7.45,0,0,0,0,1.16c0,1.68,0,3.36,0,5C59,54.39,59,54.51,59,54.63Z" fill="#4ab286"/>
            <path d="M76.78,26.25a4.94,4.94,0,0,0,1.07-.34,13.62,13.62,0,0,1,2.8-.68,5.23,5.23,0,0,1,2.29.18.18.18,0,0,1-.22.05,1.77,1.77,0,0,0-.51-.05,12,12,0,0,0-2,.15,13.36,13.36,0,0,0-1.78.36.65.65,0,0,0,.24,0,9.24,9.24,0,0,1,1.58-.06,4.91,4.91,0,0,1,2.17.44,3.07,3.07,0,0,1,1.49,1.33,4.34,4.34,0,0,1,.55,2.11,14.58,14.58,0,0,1-.14,2.09c-.1.81-.23,1.6-.4,2.4s-.4,1.75-.65,2.62c-.36,1.27-.8,2.52-1.26,3.77-.22.59-.45,1.19-.68,1.78a8.78,8.78,0,0,1-.86-.6,30.75,30.75,0,0,0-6.59-3.54l-.37-.16a1.34,1.34,0,0,1,0-.2A14,14,0,0,0,73.74,35a8.63,8.63,0,0,0-.46-2.52,6.55,6.55,0,0,0-1.5-2.45.27.27,0,0,1-.06-.38,17.12,17.12,0,0,0,1.25-3,1,1,0,0,1,.15-.4.89.89,0,0,0,.1.55l.13.27c.23.46.23.47.75.28s1.13-.43,1.67-.68a17.12,17.12,0,0,1,1-.44Zm1,12.37a.28.28,0,0,0,.17-.14,20.74,20.74,0,0,0,1.66-3.81,7.77,7.77,0,0,0,.41-3,3.21,3.21,0,0,0-1-2.06,2.11,2.11,0,0,0-2.55-.19A1.25,1.25,0,0,0,76,30a.46.46,0,0,0,.14.67,4.79,4.79,0,0,1,1,1,6,6,0,0,1,1.07,3.43A11,11,0,0,1,78,37.78C77.91,38.05,77.86,38.32,77.8,38.62Z" fill="#ff6a69"/>
            <path d="M44.48,94.48c-.77-.69-1.51-1.4-2.23-2.13-.52-.52-1-1.07-1.49-1.62-.95-1-1.83-2.16-2.68-3.28s-1.62-2.24-2.38-3.39q-.89-1.34-1.71-2.7c-.42-.68-.83-1.36-1.22-2-.66-1.16-1.3-2.33-1.93-3.5-1-1.84-1.92-3.7-2.89-5.54-.34-.64-.66-1.28-1-1.91-.25-.47-.51-.93-.75-1.39a1.12,1.12,0,0,0-.19-.24.19.19,0,0,0-.07-.14h0a.85.85,0,0,0-.13-.31c-.22-.39-.44-.78-.67-1.17-.54-.94-1.07-1.89-1.64-2.82-1.15-1.87-2.33-3.73-3.6-5.53-.07-.11-.19-.2-.19-.35a14.37,14.37,0,0,1,1.47.17,5.65,5.65,0,0,1,1.16.13.25.25,0,0,0,.11.19c.41.4.81.8,1.19,1.21.54.56,1.06,1.14,1.56,1.73.75.91,1.5,1.82,2.2,2.77s1.5,2.1,2.2,3.18,1.53,2.43,2.23,3.68c.08.14.12.32.3.39.18,1,.36,2,.61,3a31.38,31.38,0,0,0,1.11,3.4.84.84,0,0,1,.11.41c-.12,0-.15-.13-.2-.21-1.35-2-2.76-3.93-4.25-5.82a6.78,6.78,0,0,0-.88-1.06.07.07,0,0,0-.07-.06l0-.08s0,0,0,0l0,.05a.1.1,0,0,0,.07.07.38.38,0,0,0,.09.24c.48.85,1,1.69,1.45,2.54,1,1.78,2,3.57,3,5.34a7.27,7.27,0,0,0,.65,1.07c0,.1.09.2.15.3.79,1.3,1.65,2.57,2.54,3.81,1,1.43,2.07,2.8,3.15,4.18a.29.29,0,0,0,.17.13.66.66,0,0,0-.09-.28c-.41-.88-.86-1.75-1.31-2.61,0-.11-.14-.21-.12-.34a.24.24,0,0,1,.16.11,26.93,26.93,0,0,0,2.58,2.76.86.86,0,0,1,.18.2c0,.06,0,.11.07.13h0a5.11,5.11,0,0,0,.57,1c.93,1.53,1.9,3,3,4.48a5.18,5.18,0,0,0,1.48,1.47,1.77,1.77,0,0,0,2,0,3.64,3.64,0,0,0,1.38-1.53.42.42,0,0,1,.21.08,14.79,14.79,0,0,1-.92,2,.36.36,0,0,0-.05.22h0l-.07.07h0c-.06,0-.07.07-.08.13a1.94,1.94,0,0,1-1.19.83,2.08,2.08,0,0,1-1.13-.18,6.61,6.61,0,0,1-1.7-1.1Z" fill="#fed48e"/>
            <path d="M88.54,75.33a.47.47,0,0,0-.28-.49c-.34-.21-.7-.39-1-.59-.7-.41-1.42-.76-2.11-1.18s-1.17-.67-1.76-1c-.77-.42-1.53-.85-2.29-1.3l-.92-.52c-.7-.38-1.4-.75-2.08-1.17a6.36,6.36,0,0,0-.59-.28c-.1,0-.22-.09-.22-.23s.17-.12.25-.17l5.25-2.94c.36-.2.36-.21.16-.56l-2.22-3.72a.75.75,0,0,1-.13-.27.72.72,0,0,1,.68.07c.69.42,1.39.81,2.1,1.21.54.31,1.09.6,1.64.91s1,.53,1.46.81c.66.4,1.35.76,2,1.14.42.23.83.47,1.25.69a1.24,1.24,0,0,0,.67.24,7.84,7.84,0,0,1,0,1.37c0,.35,0,.7-.08,1.06-.06.57-.13,1.15-.24,1.71s-.25,1.41-.45,2.11-.37,1.37-.62,2A7.93,7.93,0,0,1,88.54,75.33Z" fill="#4ab286"/>
            <path d="M59.76,36.23l-2,.27a27.63,27.63,0,0,0-3.94.85,30.8,30.8,0,0,0-6.68,2.78c-.08,0-.16.13-.27.11s0-.16,0-.23a26.24,26.24,0,0,0,.8-4,20.35,20.35,0,0,0,.09-3.74A21,21,0,0,0,47,27.68a3,3,0,0,1-.07-.32h.13a16.79,16.79,0,0,1,1.85.49c.63.22,1.25.43,1.86.7s1.3.6,1.93.93,1.08.6,1.6.92a23.52,23.52,0,0,1,2.54,1.77,11.15,11.15,0,0,1,1.54,1.45A6.2,6.2,0,0,1,59.76,36.23Z" fill="#ff7b69"/>
            <path d="M63.29,36.14a.65.65,0,0,1,0-.16c.32-.62.59-1.26.87-1.89.42-1,.82-1.91,1.19-2.88.23-.6.43-1.21.66-1.82.08-.23.14-.28.37-.23s.63,0,.93.07c.45.07.91,0,1.37.11a1.86,1.86,0,0,0,.41,0,.33.33,0,0,0,.31-.17,10.1,10.1,0,0,0,1.3-2.93,3.81,3.81,0,0,0,0-2,2.78,2.78,0,0,0-1.11-1.44,6.33,6.33,0,0,0-2.64-1c-.62-.11-1.24-.16-1.87-.22a18.21,18.21,0,0,0-2.45,0,8.6,8.6,0,0,0-1.43.1c-.31.05-.64,0-1,.07l-1.56.19c-.6.08-1.2.19-1.8.28s-1.42.25-2.12.41l-2,.47a1,1,0,0,0-.32.13c.64.12,1.27.2,1.9.35a5.77,5.77,0,0,1,1.77.59c-.62,0-1.24,0-1.85,0a15,15,0,0,0-1.9.27,24.14,24.14,0,0,0-3.77,1.14,9.16,9.16,0,0,1-1.29-.74L48.61,24q1.57-.88,3.21-1.62a36,36,0,0,1,4.28-1.59A29.42,29.42,0,0,1,59.7,20c.73-.12,1.45-.23,2.18-.3a14.35,14.35,0,0,1,1.61-.09c.71,0,1.41,0,2.11,0s1.17.09,1.75.17,1.17.19,1.76.28l.29.08A12.71,12.71,0,0,1,71,20.6c-.12.16-.29-.1-.45.06a3.06,3.06,0,0,0,.63.2c.05.05.1.09.17.07h0a.14.14,0,0,0,0,.12,2.77,2.77,0,0,1,.64,1.79,7.92,7.92,0,0,1-.15,2.06,26,26,0,0,1-1.47,4.92C69.77,31.55,69,33.25,68.33,35a14.72,14.72,0,0,0-.57,1.57,5.85,5.85,0,0,1-1.1-.17,22.86,22.86,0,0,0,1.43-6.63A1.78,1.78,0,0,0,68,30a30.27,30.27,0,0,1-1,2.91c-.45,1.14-1,2.26-1.49,3.37Z" fill="#ff6a69"/>
            <path d="M32.14,69.87c-.18-.07-.23-.25-.3-.39-.71-1.25-1.45-2.47-2.23-3.68s-1.44-2.14-2.2-3.18S26,60.76,25.2,59.85c-.49-.59-1-1.17-1.55-1.73-.39-.41-.78-.81-1.19-1.21a.23.23,0,0,1-.11-.19,7.62,7.62,0,0,0,1.17,0,24.54,24.54,0,0,0,5.6-.57l.41,0a3.78,3.78,0,0,0,.69.86c.46.55.94,1.08,1.41,1.61l.87,1c-.12.71-.28,1.42-.36,2.14-.06.49-.13,1-.17,1.46a30.92,30.92,0,0,0-.1,3.6C31.89,67.82,32,68.85,32.14,69.87Z" fill="#ff7b69"/>
            <path d="M81.34,42.41c.22-.59.46-1.19.68-1.78.46-1.25.9-2.5,1.26-3.77.25-.87.48-1.74.65-2.62s.3-1.59.4-2.4a14.57,14.57,0,0,0,.13-2.09,4.22,4.22,0,0,0-.54-2.11,3.07,3.07,0,0,0-1.49-1.33,4.91,4.91,0,0,0-2.17-.44,9.24,9.24,0,0,0-1.58.06.65.65,0,0,1-.24,0,13.22,13.22,0,0,1,1.77-.36,12,12,0,0,1,2-.15,2.24,2.24,0,0,1,.52.05.16.16,0,0,0,.21-.05,3,3,0,0,1,1.6,1.15,7,7,0,0,1,1.1,2.58c.06.23.1.47.15.71a1.91,1.91,0,0,0,.19.57.17.17,0,0,0-.06.21c.06.35.09.7.15,1.05A23.42,23.42,0,0,1,86.24,34a13.31,13.31,0,0,1,0,1.67c0,.63-.08,1.26-.15,1.89s-.17,1.41-.3,2.1a38.5,38.5,0,0,1-1.23,4.75,1.88,1.88,0,0,0-.15.61c-.4-.36-.8-.73-1.18-1.13a46,46,0,0,0,1.17-5.81c-.31.63-.6,1.27-.87,1.91l-1.28,3.06A4.43,4.43,0,0,1,81.34,42.41Z" fill="#fed48e"/>
            <path d="M71,20.6a12.71,12.71,0,0,0-1.63-.47l-.29-.08a2.28,2.28,0,0,0,.61-1.71,3.14,3.14,0,0,0-.52-1.41,10.76,10.76,0,0,0-2.1-2.27,17.59,17.59,0,0,0-2.65-1.79,27.77,27.77,0,0,0-2.75-1.32C60.37,11,59,10.49,57.68,10,56.52,9.5,55.37,9,54.26,8.47a16.21,16.21,0,0,1-2.75-1.71c-.26-.21-.5-.46-.77-.67-.42-.33-.22-.78.1-1a5.68,5.68,0,0,1,1.27-.66,1.67,1.67,0,0,1,.72-.21c-.15.15-.38.2-.55.34a1.22,1.22,0,0,0-.47.67.84.84,0,0,0,.39.84,6,6,0,0,0,1.54.88,24.31,24.31,0,0,0,2.4.84,22.75,22.75,0,0,1,2.37.92c.86.36,1.72.73,2.56,1.14a35.93,35.93,0,0,1,3.45,1.89A31.31,31.31,0,0,1,67.78,14,17,17,0,0,1,70,16.21a11.12,11.12,0,0,1,1.74,2.63,4.82,4.82,0,0,1,.52,2.56l-.3-.27A2.25,2.25,0,0,0,71,20.6Z" fill="#fed48e"/>
            <path d="M67.76,36.56A14.72,14.72,0,0,1,68.33,35c.67-1.74,1.44-3.44,2.11-5.18a25.77,25.77,0,0,0,1.47-4.92,7.85,7.85,0,0,0,.15-2.05,2.73,2.73,0,0,0-.64-1.79.14.14,0,0,1,0-.12.26.26,0,0,1,.19.07,3.54,3.54,0,0,1,1,1c.07.12.11.25.26.31h0a.19.19,0,0,0,.07.21h0c0,.06,0,.12.09.14a4.49,4.49,0,0,1,.34,1.49,6.53,6.53,0,0,1-.13,1.59c0,.17,0,.36-.08.52a1,1,0,0,0-.15.41,16.63,16.63,0,0,1-1.26,3,.28.28,0,0,0,.07.38,6.55,6.55,0,0,1,1.5,2.45A8.75,8.75,0,0,1,73.74,35a14,14,0,0,1-.21,2.89,1.41,1.41,0,0,0,0,.2l-1.08-.36c-.15,0-.18-.13-.14-.28a9.43,9.43,0,0,0,.3-1.67,7.39,7.39,0,0,0,0-1.49,5.12,5.12,0,0,0-.37-1.58A2.31,2.31,0,0,0,71,31.46c-.07.1,0,.2,0,.28a6.14,6.14,0,0,1-.17,2.92,22,22,0,0,1-.75,2.11c-.08.22-.13.25-.36.2Z" fill="#fff580"/>
            <path d="M27.81,77.71a1.92,1.92,0,0,1,.44.46,19.13,19.13,0,0,1,2.21,3.53,8.85,8.85,0,0,1,.64,1.76,2,2,0,0,1,0,.6c0,.2-.12.26-.33.26a.94.94,0,0,1-.33-.08,5.06,5.06,0,0,1-1-.7c-.43-.34-.82-.74-1.22-1.12a1.39,1.39,0,0,0-.41-.31c-.21-.09-.35,0-.41.19a1,1,0,0,0,0,.3c0,.52,0,1,0,1.57a1.82,1.82,0,0,1,0,.33c0,.22-.19.3-.4.22a1.93,1.93,0,0,1-.59-.4A12.58,12.58,0,0,1,25,82.77a16.7,16.7,0,0,0-2.4-2.43,12.49,12.49,0,0,0-1-.8c-.08-.06-.17-.12-.16-.24a1.13,1.13,0,0,1,.15-.47.52.52,0,0,1,.8-.24,2,2,0,0,1,.6.44c.37.41.75.81,1.11,1.23a7.7,7.7,0,0,0,1,1.06c.15.11.31.26.53.17a.51.51,0,0,0,.23-.49,5,5,0,0,0-.08-1.39c-.13-.7-.29-1.39-.44-2.09a2.64,2.64,0,0,1,0-.63.27.27,0,0,1,.29-.26,1,1,0,0,1,.38,0,3.91,3.91,0,0,1,.79.4C27.18,77.27,27.46,77.53,27.81,77.71Z" fill="#ffa3a3"/>
            <path d="M10.47,52.8c-.07.14.14.31,0,.4s-.24-.1-.37-.15a8.48,8.48,0,0,0-1.78-.6,3.07,3.07,0,0,0-1.13,0A1.37,1.37,0,0,0,6,53.84a9.81,9.81,0,0,0,.1,2.36,19.31,19.31,0,0,0,1.33,4.43,44.36,44.36,0,0,0,2.05,4.22Q10.65,66.92,11.7,69a22.57,22.57,0,0,1,1.82,4.77,1.26,1.26,0,0,1,.05.33c0,.23-.08.27-.3.18a1.15,1.15,0,0,1-.25-.12,10.88,10.88,0,0,1-1.2-1c-.06-.06-.14-.12-.12-.22s.29.13.44.17.41,0,.38-.28a3.46,3.46,0,0,0-.33-1.08,41.78,41.78,0,0,0-2-3.74c-.54-1-1-1.94-1.53-2.92a45.3,45.3,0,0,1-3-6.92A18.19,18.19,0,0,1,5,55.36a9,9,0,0,1,.12-3.54,4.61,4.61,0,0,1,1-1.9l0,0c.33-.34.36-.34.69,0a23,23,0,0,0,3.35,2.72C10.32,52.66,10.43,52.7,10.47,52.8Z" fill="#fff580"/>
            <path d="M59.76,36.23a6.2,6.2,0,0,0-1.37-2.61,11.15,11.15,0,0,0-1.54-1.45,26.06,26.06,0,0,0-2.53-1.77c-.53-.32-1.06-.63-1.61-.91s-1.27-.65-1.93-.94-1.23-.48-1.86-.7a16.79,16.79,0,0,0-1.85-.49h-.13l-.66-1.95a.71.71,0,0,0,.41-.26,14.5,14.5,0,0,1,2.73,1.12c.08,0,.14.08.22.06.89.5,1.78,1,2.63,1.56,1.09.72,2.16,1.47,3.2,2.25.73.55,1.46,1.12,2.15,1.71l1.55,1.37c.43.37.83.77,1.25,1.15.18.16.25.15.34-.07l.87-2a3.8,3.8,0,0,1,.49-.88c.06-.07.12-.18.25-.13a.28.28,0,0,1,.16.24,5.23,5.23,0,0,1,0,1.72,1.85,1.85,0,0,0,0,.23c0,.48-.08.95-.12,1.42a7.32,7.32,0,0,0-.09.93.71.71,0,0,1-.07.32,1.23,1.23,0,0,1-.47,0C61.11,36.15,60.44,36.21,59.76,36.23Z" fill="#ff6a69"/>
            <path d="M84.37,45.07a1.88,1.88,0,0,1,.15-.62,38.81,38.81,0,0,0,1.23-4.74c.13-.7.23-1.4.3-2.11s.1-1.26.15-1.89a13.31,13.31,0,0,0,0-1.67,23.23,23.23,0,0,0-.18-2.35c-.06-.35-.09-.71-.15-1.06a.18.18,0,0,1,.06-.21,12.22,12.22,0,0,1,1.68,4.77,17.11,17.11,0,0,1,0,4.29,38,38,0,0,1-1.62,7,.44.44,0,0,1-.06.16l-.06.06Z" fill="#ff6a69"/>
            <path d="M49.67,92.67a3.7,3.7,0,0,1-1.38,1.53,1.77,1.77,0,0,1-2,0,5.18,5.18,0,0,1-1.48-1.47c-1.07-1.45-2-3-3-4.48a5.11,5.11,0,0,1-.57-1c.11,0,.16.07.23.13a30.75,30.75,0,0,0,4.62,3.46,30,30,0,0,0,3.16,1.69A1.15,1.15,0,0,1,49.67,92.67Z" fill="#ffa3a3"/>
            <path d="M57.19,3.61a3.89,3.89,0,0,0-.68.05c-.15,0-.2,0-.21-.18a1,1,0,0,1,1.1-1.15,7.77,7.77,0,0,1,1.67.18,11.73,11.73,0,0,0,1.56.23c.2,0,.42,0,.54-.15s0-.36-.14-.52A8.43,8.43,0,0,0,59.39.23s-.11-.08-.12-.15h.15a.43.43,0,0,0,.1.09c.48.24,1,.46,1.43.73A12,12,0,0,1,64,3.16a3.31,3.31,0,0,1,.83,1.48c.09.42-.09.65-.53.64a2.76,2.76,0,0,1-.81-.15c-.82-.25-1.6-.61-2.4-.93a8.84,8.84,0,0,0-2-.54c-.33,0-.67,0-1-.07A2.06,2.06,0,0,0,57.19,3.61Z" fill="#ffa3a3"/>
            <path d="M19.72,56.42a.58.58,0,0,0,.19.35c1.27,1.8,2.45,3.66,3.6,5.53.56.93,1.09,1.88,1.64,2.82l.67,1.17a.85.85,0,0,1,.13.31c-.22,0-.33-.21-.45-.35a3.92,3.92,0,0,0-.34-.37c-.65-.65-1.23-1.34-1.83-2s-1.11-1.32-1.64-2q-1.38-1.79-2.58-3.69c-.36-.59-.72-1.18-1.07-1.78a.54.54,0,0,1-.12-.34Z" fill="#ff7b69"/>
            <path d="M6.87,67.94c.34.39.65.8,1,1.17a.15.15,0,0,1,.06.15c0,.08-.1.08-.17.08A1.15,1.15,0,0,1,7,69a7.46,7.46,0,0,1-1.1-1.15c-.64-.8-1.27-1.61-1.92-2.4a3.25,3.25,0,0,0-.73-.75c-.2-.13-.28-.09-.28.13a3.08,3.08,0,0,0,.18,1c.1.32.21.63.31,1H3.33a.12.12,0,0,0-.07-.07h0a.11.11,0,0,0-.07-.08h0a.13.13,0,0,0-.07-.14h0s0-.07-.07-.07h0A.13.13,0,0,0,3,66.26H3a.2.2,0,0,0-.14-.21h0a1.62,1.62,0,0,0-.33-.62A19.24,19.24,0,0,1,1,62.55a3.15,3.15,0,0,1-.33-1.48.47.47,0,0,1,.26-.47.5.5,0,0,1,.54.13,5,5,0,0,1,.65.65A24.54,24.54,0,0,1,3.85,64a26.84,26.84,0,0,0,2.36,3.27c.06.07.12.14.23.13h0a.11.11,0,0,0,.07.13h0a.13.13,0,0,0,.14.14h0a.11.11,0,0,0,.07.13h0a.1.1,0,0,0,.07.07h0A.11.11,0,0,0,6.87,67.94Z" fill="#ffa3a3"/>
            <path d="M39.5,16.07a8.25,8.25,0,0,1-.81-.62c-.62-.44-1.23-.89-1.88-1.29l-.12-.07c-.13-.09-.11-.17,0-.23a6.38,6.38,0,0,1,1.13-.42c.4-.1.81-.16,1.21-.25a12.44,12.44,0,0,0,3.24-1.28l.51-.29c.1,0,.2-.11.31,0a.08.08,0,0,0,.07.08h0a.82.82,0,0,0,.09.35,1.52,1.52,0,0,1,.1.55,1.25,1.25,0,0,1-.82,1.1,13.88,13.88,0,0,1-1.91.54,4.21,4.21,0,0,0-1.16.41.61.61,0,0,0-.26.91C39.28,15.74,39.48,15.85,39.5,16.07Z" fill="#ffa3a3"/>
            <path d="M93,63.18c-.08-.71-.14-1.42-.28-2.12a.26.26,0,0,1,.11-.29,8.4,8.4,0,0,1,2.36-1.36,1.8,1.8,0,0,1,.5-.11c.24,0,.31.05.33.28a1.7,1.7,0,0,1-.1.59A14.19,14.19,0,0,1,95,62.5c-.54,1.11-1.11,2.2-1.71,3.28,0,0,0,.12-.16.15,0-.76-.06-1.51,0-2.26.34-.12.66-.35,1.07-.22-.08-.3-.18-.37-.43-.4A1.68,1.68,0,0,0,93,63.18Z" fill="#ff6a69"/>
            <path d="M39.5,16.07c0-.22-.22-.33-.3-.51a.61.61,0,0,1,.26-.91,4.21,4.21,0,0,1,1.16-.41,13.88,13.88,0,0,0,1.91-.54,1.25,1.25,0,0,0,.82-1.1,1.52,1.52,0,0,0-.1-.55.82.82,0,0,1-.09-.35A1.73,1.73,0,0,1,43.92,13a1.1,1.1,0,0,1-.55,1,4.18,4.18,0,0,1-1.56.67l-.87.2a1.73,1.73,0,0,0-.5.22.38.38,0,0,0-.15.57,1.87,1.87,0,0,0,.58.61,20.82,20.82,0,0,0,2.25,1.42,2.18,2.18,0,0,1,.53.42.67.67,0,0,1,.11.81,1.72,1.72,0,0,1-.71.65c-.11.07-.18,0-.24-.06a7.16,7.16,0,0,1-.48-.61.27.27,0,0,0,.14-.22.66.66,0,0,0-.21-.63,3.07,3.07,0,0,0-.67-.46,6.06,6.06,0,0,0-1-.57h0a.12.12,0,0,0-.13-.08h0a.08.08,0,0,0-.08-.07A9.55,9.55,0,0,1,39.5,16.07Z" fill="#fff580"/>
            <path d="M90.31,53.36l-1-1.78a1.51,1.51,0,0,0,1-.23l.85-.44a3.13,3.13,0,0,1,.6-.24.5.5,0,0,1,.68.37,2.07,2.07,0,0,1,0,.82,12.3,12.3,0,0,1-.46,1.81,10.43,10.43,0,0,0-.43,2.83c-.1,0-.1-.11-.12-.18-.26-.72-.54-1.44-.85-2.14a2,2,0,0,1-.07-.23C90.59,53.72,90.61,53.47,90.31,53.36Z" fill="#ffa3a3"/>
            <path d="M27.81,77.71c-.35-.18-.63-.44-1-.64a3.91,3.91,0,0,0-.79-.4,1,1,0,0,0-.38,0,.27.27,0,0,0-.29.26,2.64,2.64,0,0,0,0,.63c.15.7.31,1.39.44,2.09A5,5,0,0,1,25.93,81a.51.51,0,0,1-.23.49c-.22.09-.38-.06-.53-.17a7.7,7.7,0,0,1-1-1.06c-.36-.42-.74-.82-1.11-1.23a2,2,0,0,0-.6-.44.52.52,0,0,0-.8.24,1.08,1.08,0,0,0-.15.47,2.36,2.36,0,0,1,0-1.15c.06-.36.36-.49.74-.34a3,3,0,0,1,.87.58,10.85,10.85,0,0,1,1.09,1.16,6.79,6.79,0,0,0,.6.6c.1.09.22.2.36.14s.16-.23.16-.35a4.9,4.9,0,0,0-.08-.76c-.15-.94-.39-1.87-.62-2.79a2.49,2.49,0,0,1,0-.67c0-.33.24-.46.57-.37a3.06,3.06,0,0,1,1.08.65,15.68,15.68,0,0,1,1.52,1.53C27.78,77.59,27.82,77.64,27.81,77.71Z" fill="#fff580"/>
            <path d="M57.19,3.61a2.06,2.06,0,0,1,.89,0c.32.06.66,0,1,.07a8.37,8.37,0,0,1,2,.54c.8.32,1.58.68,2.4.92a2.77,2.77,0,0,0,.81.16c.44,0,.62-.22.53-.65A3.33,3.33,0,0,0,64,3.16,12,12,0,0,0,61,.87c-.46-.26-1-.49-1.43-.72L59.41.06a3.87,3.87,0,0,1,1.21.37A9.78,9.78,0,0,1,64.48,3a8.06,8.06,0,0,1,1.4,2.17,1,1,0,0,1,.11.48c0,.33-.14.47-.47.5a3,3,0,0,1-1-.13,21.46,21.46,0,0,1-2.57-1,19.26,19.26,0,0,0-3.39-1.21,5.61,5.61,0,0,0-1.16-.18A.29.29,0,0,1,57.19,3.61Z" fill="#fff580"/>
            <path d="M33.82,78.8a7.27,7.27,0,0,1-.65-1.07c-1-1.77-2-3.56-3-5.34-.47-.85-1-1.69-1.46-2.54a.43.43,0,0,1-.08-.24h0a6.28,6.28,0,0,1,.88,1q2.24,2.84,4.24,5.82c.06.08.08.19.2.22h0c0,.07,0,.12.08.13h0a.11.11,0,0,0,.06.09l.43,1c-.09.06-.13.17-.21.25A6.24,6.24,0,0,1,33.82,78.8Z" fill="#7bc84f"/>
            <path d="M6.44,67.4c-.11,0-.17-.06-.23-.13A26.84,26.84,0,0,1,3.85,64a24.67,24.67,0,0,0-1.77-2.63,5.62,5.62,0,0,0-.65-.64.5.5,0,0,0-.54-.13.51.51,0,0,0-.27.47A3.28,3.28,0,0,0,1,62.55a19.24,19.24,0,0,0,1.55,2.9,1.65,1.65,0,0,1,.33.61c-.12,0-.16-.07-.21-.14a20.92,20.92,0,0,1-2-3.14A6.25,6.25,0,0,1,0,60.85,2.84,2.84,0,0,1,.1,59.69c.11-.4.39-.5.76-.27a3.66,3.66,0,0,1,.84.78A21.72,21.72,0,0,1,3.62,63c.86,1.42,1.71,2.85,2.7,4.2C6.37,67.24,6.44,67.3,6.44,67.4Z" fill="#fff580"/>
            <path d="M30.43,55.88c.9-.28,1.81-.56,2.69-.92l.93-.39a.24.24,0,0,1,0,.24,29.12,29.12,0,0,0-1.07,3.1l-.06.15C32,57.38,31.24,56.61,30.43,55.88Z" fill="#ff7b69"/>
            <path d="M33.82,78.8a6.24,6.24,0,0,0,.5-.65,1.27,1.27,0,0,1,.21-.25c.3.51.53,1,.82,1.57a30.28,30.28,0,0,0,1.94,3.1,2.14,2.14,0,0,1,.13.19,5.57,5.57,0,0,0-.91.15c-.89-1.24-1.75-2.51-2.54-3.81C33.91,79,33.87,78.9,33.82,78.8Z" fill="#ff7b69"/>
            <path d="M65.51,36.27C66,35.16,66.54,34,67,32.9A30.27,30.27,0,0,0,68,30c0-.08,0-.15.08-.24a22.39,22.39,0,0,1-1.42,6.64A9,9,0,0,1,65.51,36.27Z" fill="#fff580"/>
            <path d="M30.43,55.88c.81.73,1.58,1.5,2.45,2.18-.13.51-.25,1-.38,1.52l-.87-1c-.47-.54-.95-1.07-1.41-1.62a3.58,3.58,0,0,1-.69-.86A3.43,3.43,0,0,1,30.43,55.88Z" fill="#fed48e"/>
            <path d="M82.21,43.09,83.49,40c.27-.64.56-1.28.87-1.91a45.62,45.62,0,0,1-1.17,5.81A8.69,8.69,0,0,1,82.21,43.09Z" fill="#7bc84f"/>
            <path d="M15.37,55.27c-.47.44-.93.89-1.37,1.35s-.91.87-1.39,1.31a2.46,2.46,0,0,1,.09-1.29,5,5,0,0,1,.92-1.77l.17-.25A12.18,12.18,0,0,1,15.37,55.27Z" fill="#fff580"/>
            <path d="M89.16,51.24c-.16-.26-.31-.52-.47-.77-.38-.6-.77-1.19-1.19-1.76-.16-.22-.15-.22,0-.42a2.47,2.47,0,0,1,.66-.63c.4-.24.67-.16.85.25a2.06,2.06,0,0,1,.19.84,12.26,12.26,0,0,1,0,2.1C89.15,51,89.19,51.09,89.16,51.24Z" fill="#ffa3a3"/>
            <path d="M36.51,82.91a5.57,5.57,0,0,1,.91-.15,8.23,8.23,0,0,1,.81,1.15.12.12,0,0,0,.09.08h0a.7.7,0,0,0,.12.34c.45.86.9,1.73,1.31,2.61a.55.55,0,0,1,.08.28.3.3,0,0,1-.16-.13C38.58,85.71,37.51,84.34,36.51,82.91Z" fill="#7bc84f"/>
            <path d="M49.64,26.33c-.08,0-.14,0-.22-.06a15.23,15.23,0,0,0-2.73-1.13,1.81,1.81,0,0,0-.61-.19,4.74,4.74,0,0,1-.37-.87,12.08,12.08,0,0,1,1.2.58.87.87,0,0,0,.34.15,8.68,8.68,0,0,0,1.29.75l1,.61C49.56,26.21,49.65,26.23,49.64,26.33Z" fill="#fff580"/>
            <path d="M76.78,26.25a1,1,0,0,1-.55.23,3.82,3.82,0,0,0-.66-.61A12.57,12.57,0,0,1,74,24.22a.29.29,0,0,0-.18-.14h0a.77.77,0,0,0,0-.15c.16,0,.25.12.34.21.79.7,1.61,1.35,2.47,2A.18.18,0,0,1,76.78,26.25Z" fill="#ffa3a3"/>
            <path d="M73.86,24.08a.34.34,0,0,1,.19.14,11.31,11.31,0,0,0,1.52,1.65,3.88,3.88,0,0,1,.66.62,1.06,1.06,0,0,1-.46.2c0-.15-.16-.23-.26-.34A12.89,12.89,0,0,1,74,24.51.86.86,0,0,1,73.86,24.08Z" fill="#fed48e"/>
            <path d="M40.6,17a6.51,6.51,0,0,1,1,.57,3.07,3.07,0,0,1,.67.46.66.66,0,0,1,.21.63.3.3,0,0,1-.14.22c-.23-.25-.48-.49-.71-.75s-.59-.62-.89-.92C40.67,17.14,40.58,17.09,40.6,17Z" fill="#ffa3a3"/>
            <path d="M93,63.18a1.68,1.68,0,0,1,.7-.13c.26,0,.35.1.43.4-.41-.13-.73.1-1.07.22C93,63.5,93,63.35,93,63.18Z" fill="#fff580"/>
            <path d="M72.84,22.33c-.15,0-.19-.19-.26-.3a3.42,3.42,0,0,0-1-1,.26.26,0,0,0-.19-.07h0c0-.08-.1-.07-.17-.07a3.11,3.11,0,0,1-.63-.21c.16-.15.32.11.45,0a2.15,2.15,0,0,1,.94.53l.3.27a5.65,5.65,0,0,1,.48.69A.54.54,0,0,1,72.84,22.33Z" fill="#ff7b69"/>
            <path d="M48.9,95a.43.43,0,0,1,.06-.22,13.23,13.23,0,0,0,.91-2c.22.05.15.2.1.31a8.89,8.89,0,0,1-.74,1.48C49.13,94.68,49.08,94.86,48.9,95Z" fill="#ffa3a3"/>
            <path d="M46.08,25a1.81,1.81,0,0,1,.61.19.68.68,0,0,1-.41.27A1.34,1.34,0,0,1,46.08,25Z" fill="#ff7b69"/>
            <path d="M90.31,53.36c.3.11.28.36.28.59A1.46,1.46,0,0,1,90.31,53.36Z" fill="#fff580"/>
            <path d="M65.16,92.47c.18-.08.35-.21.55-.06A1.72,1.72,0,0,1,65.16,92.47Z" fill="#6fc35c"/>
            <path d="M66.47,92.33a1.07,1.07,0,0,1,.7-.12A2.06,2.06,0,0,1,66.47,92.33Z" fill="#6fc35c"/>
            <path d="M64.4,92.53c.16,0,.3-.18.48,0A1.29,1.29,0,0,1,64.4,92.53Z" fill="#6fc35c"/>
            <path d="M65.92,92.4c.11-.06.2-.2.34-.06A.65.65,0,0,1,65.92,92.4Z" fill="#6fc35c"/>
            <path d="M80.66,86.13c0-.18.11-.21.26-.21A.42.42,0,0,1,80.66,86.13Z" fill="#5bb973"/>
            <path d="M34.93,64.05c0,.18.06.37,0,.54A1.4,1.4,0,0,1,34.93,64.05Z" fill="#5bb973"/>
            <path d="M36.11,73.68a.21.21,0,0,1,.09.34A.69.69,0,0,1,36.11,73.68Z" fill="#6fc35c"/>
            <path d="M35,63.18c0,.16.06.33,0,.47A1.07,1.07,0,0,1,35,63.18Z" fill="#5bb973"/>
            <path d="M88.4,75.71c0-.11-.06-.25.12-.29A.5.5,0,0,1,88.4,75.71Z" fill="#4ab286"/>
            <path d="M3.41,66.72l.09.14s0,.08,0,.09-.07,0-.09-.08v-.14Z" fill="#ffa3a3"/>
            <path d="M2.84,66.06a.2.2,0,0,1,.14.21C2.84,66.26,2.82,66.17,2.84,66.06Z" fill="#fff580"/>
            <path d="M78.23,87.93c0-.14.1-.14.21-.14A.26.26,0,0,1,78.23,87.93Z" fill="#5bb973"/>
            <path d="M79.2,87.27c0-.15.1-.15.2-.15A.28.28,0,0,1,79.2,87.27Z" fill="#5bb973"/>
            <path d="M79.82,86.8c0-.14.1-.14.2-.15A.28.28,0,0,1,79.82,86.8Z" fill="#5bb973"/>
            <path d="M41.37,48.47c0,.1,0,.21-.15.2A.2.2,0,0,1,41.37,48.47Z" fill="#4ab286"/>
            <path d="M88.32,75.89c-.1-.1,0-.12.07-.14A.15.15,0,0,1,88.32,75.89Z" fill="#4ab286"/>
            <path d="M35.07,62.58c0,.09,0,.19,0,.27A.37.37,0,0,1,35.07,62.58Z" fill="#5bb973"/>
            <path d="M6.65,67.67a.12.12,0,0,1-.14-.14C6.6,67.53,6.64,67.59,6.65,67.67Z" fill="#fff580"/>
            <path d="M73.72,23.88s-.07-.1,0-.12.09,0,.11.09l0,0Z" fill="#ffa3a3"/>
            <path d="M35.14,62c0,.1,0,.2-.06.28A.45.45,0,0,1,35.14,62Z" fill="#5bb973"/>
            <path d="M35.42,60.44a.24.24,0,0,1-.06.21A.25.25,0,0,1,35.42,60.44Z" fill="#5bb973"/>
            <path d="M35.34,60.83c0,.08,0,.16-.05.22A.25.25,0,0,1,35.34,60.83Z" fill="#5bb973"/>
            <path d="M35.63,72c.08,0,.06.13.06.2A.19.19,0,0,1,35.63,72Z" fill="#5bb973"/>
            <path d="M67.37,92.19c.06-.07.14,0,.22,0A.25.25,0,0,1,67.37,92.19Z" fill="#6fc35c"/>
            <path d="M90.32,64.19a.12.12,0,0,1,0-.19A1.15,1.15,0,0,1,90.32,64.19Z" fill="#4ab286"/>
            <path d="M72.91,22.54c-.08-.05-.08-.13-.08-.21A.2.2,0,0,1,72.91,22.54Z" fill="#ff7b69"/>
            <path d="M40.46,16.92c.06,0,.12,0,.14.07A.13.13,0,0,1,40.46,16.92Z" fill="#ffa3a3"/>
            <path d="M3.12,66.46a.13.13,0,0,1,.07.14A.13.13,0,0,1,3.12,66.46Z" fill="#fff580"/>
            <path d="M48.77,95.15a.13.13,0,0,1,.07-.14A.13.13,0,0,1,48.77,95.15Z" fill="#ffa3a3"/>
            <path d="M3.4,66.73v.14a.16.16,0,0,1-.08-.14Z" fill="#fed48e"/>
            <path d="M3,66.26a.13.13,0,0,1,.07.14C3,66.37,3,66.33,3,66.26Z" fill="#fff580"/>
            <path d="M6.51,67.53c-.07,0-.08-.07-.07-.13A.11.11,0,0,1,6.51,67.53Z" fill="#fff580"/>
            <path d="M59.26.08s-.08,0-.08,0,0,0,.09,0,0,.05,0,.07Z" fill="#ffa3a3"/>
            <path d="M6.72,67.8a.13.13,0,0,1-.08-.13A.11.11,0,0,1,6.72,67.8Z" fill="#fff580"/>
            <path d="M73,22.67c-.07,0-.08-.08-.09-.14S73,22.62,73,22.67Z" fill="#ff7b69"/>
            <path d="M73.88,23.93a.77.77,0,0,1,0,.15.14.14,0,0,1-.07-.13l.09,0Z" fill="#fed48e"/>
            <path d="M76.09,89.21c0-.07.08-.08.14-.08A.16.16,0,0,1,76.09,89.21Z" fill="#5bb973"/>
            <path d="M76.22,89.13a.17.17,0,0,1,.14-.07A.13.13,0,0,1,76.22,89.13Z" fill="#5bb973"/>
            <path d="M76.57,88.94a.14.14,0,0,1,.14-.08A.16.16,0,0,1,76.57,88.94Z" fill="#5bb973"/>
            <path d="M76.92,88.74a.13.13,0,0,1,.14-.08A.16.16,0,0,1,76.92,88.74Z" fill="#5bb973"/>
            <path d="M77.26,88.54a.14.14,0,0,1,.14-.08A.16.16,0,0,1,77.26,88.54Z" fill="#5bb973"/>
            <path d="M77.47,88.4c0-.06.08-.07.14-.07A.13.13,0,0,1,77.47,88.4Z" fill="#5bb973"/>
            <path d="M11.7,73c-.07,0-.12,0-.14-.07A.11.11,0,0,1,11.7,73Z" fill="#fff580"/>
            <path d="M77.82,88.2c0-.06.07-.07.13-.08A.16.16,0,0,1,77.82,88.2Z" fill="#5bb973"/>
            <path d="M78.51,87.74c0-.07.07-.08.13-.08A.13.13,0,0,1,78.51,87.74Z" fill="#5bb973"/>
            <path d="M78.72,87.6c0-.06.07-.07.13-.08A.16.16,0,0,1,78.72,87.6Z" fill="#5bb973"/>
            <path d="M79,87.4c0-.06.08-.07.14-.08A.14.14,0,0,1,79,87.4Z" fill="#5bb973"/>
            <path d="M41.3,87.19c-.06,0-.07-.07-.08-.13A.12.12,0,0,1,41.3,87.19Z" fill="#ffa3a3"/>
            <path d="M79.55,87c0-.06.07-.07.13-.08A.14.14,0,0,1,79.55,87Z" fill="#5bb973"/>
            <path d="M34,76.82a.1.1,0,0,1-.08-.13C34,76.71,34,76.76,34,76.82Z" fill="#fed48e"/>
            <path d="M59.28.07s0,0,0-.07.12,0,.15.06Z" fill="#fff580"/>
            <path d="M80.24,86.47c0-.07.07-.08.13-.08A.14.14,0,0,1,80.24,86.47Z" fill="#5bb973"/>
            <path d="M38.32,84a.13.13,0,0,1-.09-.07A.07.07,0,0,1,38.32,84Z" fill="#fed48e"/>
            <path d="M80.93,85.92l.07-.06S81,85.92,80.93,85.92Z" fill="#5bb973"/>
            <path d="M80.58,86.2a.11.11,0,0,1,.08-.08A.09.09,0,0,1,80.58,86.2Z" fill="#5bb973"/>
            <path d="M80.51,86.27a.11.11,0,0,1,.08-.08A.11.11,0,0,1,80.51,86.27Z" fill="#5bb973"/>
            <path d="M50.21,41.73a.07.07,0,0,1-.08.05A.09.09,0,0,1,50.21,41.73Z" fill="#4ab286"/>
            <path d="M80.17,86.53a.1.1,0,0,1,.07-.07A.07.07,0,0,1,80.17,86.53Z" fill="#5bb973"/>
            <path d="M80.1,86.6a.08.08,0,0,1,.07-.07A.08.08,0,0,1,80.1,86.6Z" fill="#5bb973"/>
            <path d="M80,86.65l.07-.06A.07.07,0,0,1,80,86.65Z" fill="#5bb973"/>
            <path d="M34.1,76.91a.1.1,0,0,1-.06-.09A.09.09,0,0,1,34.1,76.91Z" fill="#fed48e"/>
            <path d="M79.75,86.86a.11.11,0,0,1,.08-.07A.08.08,0,0,1,79.75,86.86Z" fill="#5bb973"/>
            <path d="M79.68,86.92l.08-.06A.09.09,0,0,1,79.68,86.92Z" fill="#5bb973"/>
            <path d="M50.08,41.8a.12.12,0,0,1-.09.05A.11.11,0,0,1,50.08,41.8Z" fill="#4ab286"/>
            <path d="M79.48,87.06a.12.12,0,0,1,.07-.07A.07.07,0,0,1,79.48,87.06Z" fill="#5bb973"/>
            <path d="M49.94,41.87a.11.11,0,0,1-.09.05A.09.09,0,0,1,49.94,41.87Z" fill="#4ab286"/>
            <path d="M79.4,87.12l.08-.06A.08.08,0,0,1,79.4,87.12Z" fill="#5bb973"/>
            <path d="M79.13,87.32l.08-.06A.08.08,0,0,1,79.13,87.32Z" fill="#5bb973"/>
            <path d="M49.8,41.94a.07.07,0,0,1-.08,0A.06.06,0,0,1,49.8,41.94Z" fill="#4ab286"/>
            <path d="M78.92,87.47A.08.08,0,0,1,79,87.4.09.09,0,0,1,78.92,87.47Z" fill="#5bb973"/>
            <path d="M78.85,87.52l.08-.06A.08.08,0,0,1,78.85,87.52Z" fill="#5bb973"/>
            <path d="M49.66,42l-.07,0S49.63,42,49.66,42Z" fill="#4ab286"/>
            <path d="M78.64,87.66l.08-.06A.09.09,0,0,1,78.64,87.66Z" fill="#5bb973"/>
            <path d="M43.17,11.7a.08.08,0,0,1-.07-.08Z" fill="#fff580"/>
            <path d="M78.44,87.79l.07-.06S78.48,87.79,78.44,87.79Z" fill="#5bb973"/>
            <path d="M78.16,88l.08-.06A.09.09,0,0,1,78.16,88Z" fill="#5bb973"/>
            <path d="M78,88.07a.12.12,0,0,1,.11-.07A.12.12,0,0,1,78,88.07Z" fill="#5bb973"/>
            <path d="M78,88.12l.08-.06A.08.08,0,0,1,78,88.12Z" fill="#5bb973"/>
            <path d="M41.22,48.67a.1.1,0,0,1-.08.07A.08.08,0,0,1,41.22,48.67Z" fill="#4ab286"/>
            <path d="M77.74,88.26l.08-.06A.09.09,0,0,1,77.74,88.26Z" fill="#5bb973"/>
            <path d="M77.61,88.33a.11.11,0,0,1,.1-.06A.13.13,0,0,1,77.61,88.33Z" fill="#5bb973"/>
            <path d="M11.56,73a.08.08,0,0,1-.07-.07A.07.07,0,0,1,11.56,73Z" fill="#fff580"/>
            <path d="M77.4,88.46l.08-.06A.08.08,0,0,1,77.4,88.46Z" fill="#5bb973"/>
            <path d="M11.49,72.88l-.08-.06A.08.08,0,0,1,11.49,72.88Z" fill="#fff580"/>
            <path d="M77.19,88.59l.08-.06A.08.08,0,0,1,77.19,88.59Z" fill="#5bb973"/>
            <path d="M77.05,88.66a.15.15,0,0,1,.11-.06A.11.11,0,0,1,77.05,88.66Z" fill="#5bb973"/>
            <path d="M40.38,16.85a.1.1,0,0,1,.09.07Z" fill="#ffa3a3"/>
            <path d="M76.84,88.79l.08-.06A.06.06,0,0,1,76.84,88.79Z" fill="#5bb973"/>
            <path d="M76.71,88.87a.12.12,0,0,1,.1-.07A.14.14,0,0,1,76.71,88.87Z" fill="#5bb973"/>
            <path d="M89.91,60.84l0,0h0A0,0,0,0,1,89.91,60.84Z" fill="#4ab286"/>
            <path d="M76.5,89l.08-.06A.08.08,0,0,1,76.5,89Z" fill="#5bb973"/>
            <path d="M76.36,89.06a.14.14,0,0,1,.11-.06A.11.11,0,0,1,76.36,89.06Z" fill="#5bb973"/>
            <path d="M3.05,66.4a.08.08,0,0,1,.07.07A.08.08,0,0,1,3.05,66.4Z" fill="#fff580"/>
            <path d="M76,89.26l.07-.06A.07.07,0,0,1,76,89.26Z" fill="#5bb973"/>
            <path d="M6.87,67.94a.14.14,0,0,1-.09-.08Z" fill="#fff580"/>
            <path d="M73.88,23.93l-.09,0h0v-.07l0,0A.09.09,0,0,1,73.88,23.93Z" fill="#ffa3a3"/>
            <path d="M73.8,23.87v.07l-.07-.06Z" fill="#fed48e"/>
            <path d="M6.79,67.87a.08.08,0,0,1-.07-.07A.08.08,0,0,1,6.79,67.87Z" fill="#fff580"/>
            <path d="M90.19,62.65l0,0,0,0A.07.07,0,0,1,90.19,62.65Z" fill="#4ab286"/>
            <path d="M3.26,66.66a.12.12,0,0,1,.07.07A.07.07,0,0,1,3.26,66.66Z" fill="#fed48e"/>
            <path d="M48.84,95l.07-.07A.12.12,0,0,1,48.84,95Z" fill="#ffa3a3"/>
            <path d="M3.19,66.59a.11.11,0,0,1,.07.08A.08.08,0,0,1,3.19,66.59Z" fill="#fff580"/>
            <path d="M24.05,17.65c.69.41,1.34.86,2,1.3l5.12,3.33,3.2,2.09c.18.11.34.24.52.34a.33.33,0,0,1,.17.33c0,1,.06,1.92.09,2.87,0,.67,0,1.34.07,2s0,1.11.06,1.67,0,1.33.07,2,0,1.22.07,1.83,0,1.27.07,1.9,0,1.18.07,1.76c0,.38,0,.76.06,1.13a.44.44,0,0,1-.21.39c-1.8,1.3-3.59,2.59-5.37,3.91L26.63,47c-.89.64-1.77,1.3-2.66,1.95-.24.18-.31.18-.55,0l-4.33-3.19L15.31,43l-3.23-2.39a.35.35,0,0,1-.18-.33c.06-.66,0-1.33.13-2v-.1c0-.57.06-1.14.08-1.7s.05-1.4.13-2.09v-.07c0-.75.07-1.49.09-2.23,0-.9.1-1.8.15-2.7a9.4,9.4,0,0,1,0-1.06c.1-.6,0-1.2.12-1.8a2.21,2.21,0,0,0,0-.63c0-.31.08-.62.07-.93s.13-.22.25-.29l2.44-1.58,3.1-2L23.25,18a.7.7,0,0,1,.37-.17c-.1.65-.2,1.3-.34,1.94a14.93,14.93,0,0,0-1.41.93,8.41,8.41,0,0,1-.85.15l-1.76.29a2.18,2.18,0,0,0,.44.11,7.92,7.92,0,0,1,1,.19l-.22.15-5.73,3.73a1.69,1.69,0,0,0-.41.29.56.56,0,0,0,.28.21c.72.4,1.44.79,2.15,1.2a.41.41,0,0,0,.52,0c.76-.52,1.54-1,2.31-1.53.09-.06.17-.16.3-.15s0,.14-.08.2c-.15.21-.31.41-.46.61,0,0,0,0,0,.05s-.06,0,0,.07l0,0a.08.08,0,0,0,.11-.05h0c.2-.14.4-.29.61-.42s.32-.33.51-.31.38.21.55.35a2.83,2.83,0,0,1-.28.2c-.95.63-1.89,1.27-2.85,1.89a.52.52,0,0,0-.27.49c0,.72,0,1.45-.07,2.17,0,.45,0,.91,0,1.37-.07,1.54-.1,3.09-.16,4.64a.45.45,0,0,0,.23.44l3.19,2.29,2.63,1.89c.26.19.26.19.54,0l.08-.06,3.34-2.38L30,37a.37.37,0,0,0,.19-.36c0-.22,0-.45,0-.67,0-1.44,0-2.87-.07-4.31,0-1.07,0-2.14,0-3.21a.59.59,0,0,0-.32-.56l-3.95-2.65c-.54-.35-1.05-.73-1.61-1a6.56,6.56,0,0,1,.21-1.24l.09.05,6,4A.41.41,0,0,0,31,27c.41-.25.84-.46,1.26-.69l1.25-.7-6.4-4.2c.44-.13.91-.12,1.39-.28l-.59-.09c-.63-.12-1.27-.18-1.89-.32-.52-.39-1.07-.73-1.62-1.08C24.25,19,24.13,18.33,24.05,17.65Zm-.48,29.09a1.32,1.32,0,0,0,0-.56c-.09-.47-.05-.93-.1-1.4-.06-.65-.09-1.31-.14-2a.39.39,0,0,0-.2-.32L21.5,41.33,16.83,38a.35.35,0,0,0-.43,0c-.54.32-1.1.61-1.65.92l-1.09.63c.24.24,9.59,7.1,9.91,7.26ZM33.9,39.5l-.36-.22L31.19,38c-.24-.13-.28-.13-.52,0l-3.32,2.38-3,2.11c-.11.08-.24.16-.23.31s-.07.58-.07.86-.06.8-.09,1.2l-.15,1.84a.22.22,0,0,0,.2-.05L33.9,39.5ZM14.28,25.91c-.14,1.12-.67,13-.59,13.25l.11-.08L16,37.26a.59.59,0,0,0,.24-.52c0-1.13.09-2.27.13-3.4.06-1.76.11-3.52.18-5.27a.5.5,0,0,0-.19-.41c-.52-.42-1-.86-1.53-1.3Zm19.18,0-.14.07-2.06,1.72a.42.42,0,0,0-.13.3c0,.23.05.46.06.7,0,1,0,2,0,3,0,1.48.06,3,.09,4.44,0,.22,0,.45,0,.67a.37.37,0,0,0,.17.34c.47.38.93.79,1.4,1.18a11.71,11.71,0,0,0,1,.76.5.5,0,0,0,0-.31c0-.58,0-1.16,0-1.74-.06-.8,0-1.62-.08-2.43-.05-.65,0-1.31-.06-2s0-1.55-.08-2.33c-.05-1.25-.06-2.49-.09-3.74,0-.22,0-.44-.08-.69Z" fill="#01376d"/>
            <path d="M20.67,21.45a6.37,6.37,0,0,0-1-.18,2.4,2.4,0,0,1-.44-.12L21,20.86a8.41,8.41,0,0,0,.85-.15l.63-.1c.21,0,.47,0,.62-.14s.1-.39.15-.59a.31.31,0,0,0,0-.1c.14-.64.25-1.29.34-1.94l.21-1.14c.14.32.11.65.22.95.08.68.21,1.34.33,2,0,.23.08.46.11.69s.06.17.19.19c.44.07.87.17,1.32.2.62.14,1.26.2,1.89.32l.59.09c-.48.16-.95.15-1.39.28-.81.08-1.6.25-2.41.36-.1,0-.17.05-.18.16,0,.33-.14.65-.15,1a6.46,6.46,0,0,0-.21,1.23,10.34,10.34,0,0,0-.21,1.11,1,1,0,0,1-.1.35c-.09-.5-.18-1-.27-1.42a7.27,7.27,0,0,0-.2-1.21c-.06-.33-.12-.65-.17-1A.22.22,0,0,0,23,21.8Z" fill="#fff"/>
            <path d="M80.56,60.92a.75.75,0,0,0,.13.27l2.22,3.72c.2.35.2.36-.16.56L77.5,68.41c-.08,0-.19.08-.25.17a1.09,1.09,0,0,0-.31.14c-.79.45-1.58.9-2.38,1.34l-3.84,2.13L65.64,75a.52.52,0,0,0-.31.53q0,4.41,0,8.82v.24c0,.27,0,.28-.29.29h-5.6a1.71,1.71,0,0,1-.45,0c0-1.06,0-2.11,0-3.17.07-.1,0-.21,0-.32V55a.53.53,0,0,0,0-.33c0-.12,0-.24,0-.37,0-1.67,0-3.35,0-5a6.4,6.4,0,0,1,0-1.16l.27,0h5.13c.09,0,.18,0,.26,0a.79.79,0,0,0,.43,0c0,.06.13.05.2.07v3c0,.1,0,.2,0,.3s0,.13,0,.2v4.23c0,.08,0,.16.05.22s.15,0,.22-.07l3-1.66a8,8,0,0,0,1.19-.71.26.26,0,0,0,.19-.1.16.16,0,0,0,.17-.1,1.07,1.07,0,0,0,.32-.16.38.38,0,0,0,.28-.17.06.06,0,0,0,.06,0c.09,0,.13,0,.17-.1a4.1,4.1,0,0,0,.8-.44.14.14,0,0,0,.16-.1,1.42,1.42,0,0,0,.47-.25c.07,0,.11,0,.14-.08l.06,0a.19.19,0,0,0,.17-.1.38.38,0,0,0,.18-.09.2.2,0,0,0,.17-.11l.26-.14a9.13,9.13,0,0,0,1-.56c.12,0,.22-.11.35-.08a2.26,2.26,0,0,0,.22.37.2.2,0,0,0,.11.16.3.3,0,0,0,.1.17c0,.08,0,.12.1.17a.17.17,0,0,0,.06.1.13.13,0,0,0,.09.14,6.94,6.94,0,0,0,.58,1,.43.43,0,0,0,.18.29.08.08,0,0,0,0,0c0,.08,0,.12.11.17a11.71,11.71,0,0,0,.73,1.23.4.4,0,0,0,.18.29,0,0,0,0,0,0,.05.22.22,0,0,0,.11.17c.12.29.32.54.46.83,0,0,0,.09,0,.13s-.18.12-.29.16a.51.51,0,0,0-.3.17l-.18.1a.18.18,0,0,0-.17.1,10.68,10.68,0,0,0-1.14.64.17.17,0,0,0-.17.09.32.32,0,0,0-.18.1,1.69,1.69,0,0,0-.43.2l-3.14,1.77-2.31,1.31a.18.18,0,0,0-.16.1c-.57.27-1.1.59-1.64.9a.42.42,0,0,0-.29.17.09.09,0,0,0-.06,0,.42.42,0,0,0-.29.17.8.8,0,0,0-.34.18c-.37.21-.74.42-1.12.6a.43.43,0,0,0-.26.45c0,1.4,0,2.8,0,4.21,0,.09,0,.2,0,.29a.71.71,0,0,0,.31-.13l3.73-2.09a14.72,14.72,0,0,0,1.39-.8,1.87,1.87,0,0,0,.4-.2l7.39-4.13a4.24,4.24,0,0,0,.82-.49.56.56,0,0,0,.24-.1c.27-.14.27-.14.43.12A6.41,6.41,0,0,0,80.56,60.92Z" fill="#fff"/>
            <path d="M42.07,63.46a.11.11,0,0,0,.06-.11.18.18,0,0,0,.11-.16l1.87-3.12a.35.35,0,0,0,0-.08c.15-.24.15-.25.39-.11l2.78,1.55,7,3.92c.61.34,1.21.68,1.83,1a.48.48,0,0,1,.28.48c0,1.76,0,3.52,0,5.28,0,.12,0,.24,0,.36a9.55,9.55,0,0,0,0,1.07c0,.4,0,.41-.37.21l-1.82-1-7.38-4.14L41.3,65.5c-.32-.18-.32-.18-.14-.47s.53-.86.79-1.3A.66.66,0,0,0,42.07,63.46Z" fill="#fff"/>
            <path d="M66.73,62.49a.9.9,0,0,1,.35-.18c.13,0,.25,0,.29-.17a.07.07,0,0,1,.06,0c.12,0,.24,0,.29-.17.53-.31,1.07-.64,1.63-.9.08,0,.15,0,.16-.1l2.31-1.31L75,57.86a1.16,1.16,0,0,1,.42-.2.16.16,0,0,0,.11.18,17.88,17.88,0,0,1,2.08,1.09c.38.2.74.44,1.13.64a1.33,1.33,0,0,1,.73.63,4.24,4.24,0,0,1-.82.49l-7.39,4.13a1.47,1.47,0,0,1-.4.19.37.37,0,0,0-.21-.35,10.28,10.28,0,0,0-.91-.53c-.76-.4-1.49-.86-2.27-1.25C67.2,62.77,67,62.62,66.73,62.49Z" fill="#4ab286"/>
            <path d="M69.81,53.63a8.05,8.05,0,0,1-1.2.71c-1,.56-2,1.11-3,1.66-.06,0-.12.11-.22.07s0-.14,0-.22V51.62a1.23,1.23,0,0,1,0-.2.29.29,0,0,0,.26-.12.19.19,0,0,1,.3,0,9.55,9.55,0,0,0,1,.58c.65.39,1.32.75,2,1.12.13.08.27.13.4.21s.24.13.23.3S69.71,53.62,69.81,53.63Z" fill="#4ab286"/>
            <path d="M64.74,48.05a.37.37,0,0,1-.27.05H59.34l-.27,0,.07-.06h5.6Z" fill="#5bb973"/>
            <path d="M64.74,48.05v0c.14-.13.28-.07.42,0v0A.75.75,0,0,1,64.74,48.05Z" fill="#4ab286"/>
            <path d="M74.78,51c-.13,0-.23.07-.35.08C74.58,50.87,74.62,50.86,74.78,51Z" fill="#4ab286"/>
            <path d="M77.24,56.63a.4.4,0,0,1,.3-.17C77.49,56.6,77.37,56.62,77.24,56.63Z" fill="#4ab286"/>
            <path d="M70.77,53.1a.43.43,0,0,1-.29.17C70.53,53.13,70.64,53.11,70.77,53.1Z" fill="#4ab286"/>
            <path d="M76.21,53.37a.38.38,0,0,1-.17-.28C76.19,53.13,76.21,53.25,76.21,53.37Z" fill="#4ab286"/>
            <path d="M77.25,55.11a.42.42,0,0,1-.18-.28C77.23,54.87,77.25,55,77.25,55.11Z" fill="#4ab286"/>
            <path d="M65.16,48.05v0a.19.19,0,0,1,.2.1A.31.31,0,0,1,65.16,48.05Z" fill="#5bb973"/>
            <path d="M72,52.43a.18.18,0,0,1-.16.1C71.82,52.44,71.88,52.42,72,52.43Z" fill="#4ab286"/>
            <path d="M76.89,56.82s.08-.1.16-.09S77,56.84,76.89,56.82Z" fill="#4ab286"/>
            <path d="M75.58,57.56a.15.15,0,0,1,.16-.09C75.72,57.56,75.66,57.57,75.58,57.56Z" fill="#4ab286"/>
            <path d="M72.57,52.09c0,.06-.07.11-.15.09S72.5,52.09,72.57,52.09Z" fill="#4ab286"/>
            <path d="M75.45,52.1a.11.11,0,0,1-.08-.14C75.45,52,75.46,52,75.45,52.1Z" fill="#4ab286"/>
            <path d="M72.8,52c0,.05-.09.1-.17.1S72.71,52,72.8,52Z" fill="#4ab286"/>
            <path d="M73.15,51.77a.22.22,0,0,1-.17.1C73,51.77,73.06,51.75,73.15,51.77Z" fill="#4ab286"/>
            <path d="M75.31,51.86c-.06,0-.11-.09-.11-.17S75.32,51.77,75.31,51.86Z" fill="#4ab286"/>
            <path d="M73.4,51.63a.12.12,0,0,1-.15.08C73.27,51.63,73.33,51.62,73.4,51.63Z" fill="#4ab286"/>
            <path d="M75.1,51.51a.2.2,0,0,1-.1-.16A.11.11,0,0,1,75.1,51.51Z" fill="#4ab286"/>
            <path d="M76.35,53.59a.2.2,0,0,1-.11-.16C76.35,53.44,76.36,53.51,76.35,53.59Z" fill="#4ab286"/>
            <path d="M77.83,56.3s0-.09,0-.13.09,0,.08.07S77.87,56.3,77.83,56.3Z" fill="#4ab286"/>
            <path d="M71,53a.19.19,0,0,1-.17.1C70.84,53,70.91,53,71,53Z" fill="#4ab286"/>
            <path d="M70.16,53.43a.15.15,0,0,1-.16.1C70,53.44,70.08,53.42,70.16,53.43Z" fill="#4ab286"/>
            <path d="M77.38,55.33a.23.23,0,0,1-.11-.16C77.38,55.18,77.4,55.24,77.38,55.33Z" fill="#4ab286"/>
            <path d="M11.29,65.25c-.2-.64-.42-1.26-.6-1.9s-.42-1.45-.6-2.18c-.13-.52-.22-1-.32-1.56a.79.79,0,0,1,0-.43c.06-.14.14-.17.26-.07a1.6,1.6,0,0,1,.5.71,8.32,8.32,0,0,1,.51,2c.09.68.17,1.36.22,2A8.42,8.42,0,0,1,11.29,65.25Z" fill="#ff7b69"/>
            <path d="M12.59,70a2.77,2.77,0,0,1,.49.75c.29.49.56,1,.83,1.5a16.48,16.48,0,0,1,1.55,3.55,1.33,1.33,0,0,1,0,.56c0,.24-.14.33-.39.32a1.19,1.19,0,0,1-.6-.21c.36-.14.34-.44.29-.71A9.61,9.61,0,0,0,14.28,74c-.48-1.28-1-2.52-1.62-3.75A.44.44,0,0,1,12.6,70Z" fill="#fff580"/>
            <path d="M25.94,66.59a.14.14,0,0,1,.07.14A.17.17,0,0,1,25.94,66.59Z" fill="#ff7b69"/>
            <path d="M12.59,70s-.06-.06-.05-.07,0,0,.05.07Z" fill="#fff580"/>
            <path d="M53.05,52.67c.74.45,1.5.86,2.26,1.28l.92.52a.28.28,0,0,1,.17.27v6.81c0,.14.06.3-.09.4l-4.39-2.46-5.45-3.05c-.26-.15-.28-.16-.1-.42s.32-.64.52-.93c.51-.76,1-1.55,1.42-2.33a2.12,2.12,0,0,0,.25-.47l.88-1.42c.09-.16.2-.1.31,0,.52.29,1,.59,1.55.87s1,.62,1.59.87A.21.21,0,0,0,53.05,52.67Z" fill="#fff"/>
            <path d="M42.24,63.19a.18.18,0,0,1-.11.16C42.13,63.27,42.14,63.2,42.24,63.19Z" fill="#6fc35c"/>
            <path d="M58,11.9a3.64,3.64,0,0,1,.86.48c1.12.7,2.23,1.4,3.28,2.2a7.45,7.45,0,0,1,.9.77,1.05,1.05,0,0,1,.2.27c.1.22,0,.34-.22.36a1.25,1.25,0,0,1-.63-.15A6.84,6.84,0,0,1,61,14.91c-.89-.73-1.68-1.55-2.49-2.36A1.94,1.94,0,0,1,58,11.9Z" fill="#fff580"/>
            <path d="M54.17,8.92a.5.5,0,0,1-.34,0A18.8,18.8,0,0,1,50,7.68a4.49,4.49,0,0,1-1.48-1,1.24,1.24,0,0,1,0-1.79,2.26,2.26,0,0,0,1.19,1.69,18,18,0,0,0,3.46,1.92C53.5,8.6,53.81,8.75,54.17,8.92Z" fill="#fff580"/>
            <path d="M54.28,9h0s0,0,0,0h0Z" fill="#fff580"/>
            <path d="M58,11.84l0,0s0,0,0,0Z" fill="#fff580"/>
            <path d="M58,11.84l.08.06h0A.09.09,0,0,1,58,11.84Z" fill="#fff580"/>
            <path d="M53.05,52.67a.21.21,0,0,1-.16-.1C53,52.56,53,52.57,53.05,52.67Z" fill="#5bb973"/>
            <path d="M77.8,38.62c.06-.3.11-.57.17-.84a11,11,0,0,0,.25-2.68,6,6,0,0,0-1.07-3.43,5,5,0,0,0-1-1A.46.46,0,0,1,76,30a1.3,1.3,0,0,1,.48-.56,2.11,2.11,0,0,1,2.55.19,3.21,3.21,0,0,1,1,2.07,7.72,7.72,0,0,1-.41,3A20.45,20.45,0,0,1,78,38.48.28.28,0,0,1,77.8,38.62Z" fill="#fff580"/>
            <path d="M28.57,69.54l0-.05s0,0,0,0l0,.07Z" fill="#7bc84f"/>
            <path d="M28.57,69.54a.08.08,0,0,1,.07.07h0A.1.1,0,0,1,28.57,69.54Z" fill="#7bc84f"/>
            <path d="M71.21,20.86c.07,0,.14,0,.17.07S71.26,20.91,71.21,20.86Z" fill="#fff580"/>
            <path d="M23.56,24.21c.09.46.18.92.27,1.42a1,1,0,0,0,.1-.35,10.34,10.34,0,0,1,.21-1.11c.56.32,1.08.7,1.61,1,1.32.87,2.63,1.77,3.95,2.64a.62.62,0,0,1,.32.57c0,1.07,0,2.14,0,3.21.05,1.44,0,2.87.07,4.31q0,.33,0,.66A.34.34,0,0,1,30,37l-2.51,1.78-3.34,2.37-.08.06c-.28.19-.28.19-.54,0L20.86,39.3c-1.06-.77-2.12-1.54-3.19-2.29a.47.47,0,0,1-.23-.45c.06-1.54.09-3.09.16-4.64,0-.45,0-.91,0-1.37,0-.72.06-1.44.07-2.17a.54.54,0,0,1,.27-.49c1-.62,1.9-1.25,2.86-1.88l.27-.2c.25.1.41.34.69.4,0,0,0,0,0,0h0c-.07-.23-.28-.37-.37-.59Zm5.73,4.44a.21.21,0,0,0-.17.08l-.89.68c-.71.56-1.43,1.1-2.15,1.65l-2.14,1.63-1.8,1.38c-.75.57-1.5,1.14-2.24,1.72-.3.22-.59.45-.89.69s-.15.18,0,.31a1.1,1.1,0,0,1,.14.09L21,38.17l2.48,1.73c.28.2.3.2.58,0,.46-.32.92-.66,1.39-1q1.8-1.27,3.62-2.53a.58.58,0,0,0,.28-.53c0-2.29,0-4.59,0-6.88A.58.58,0,0,0,29.29,28.65Z" fill="#14c3f3"/>
            <path d="M23.57,46.74c-.32-.16-9.67-7-9.91-7.27l1.09-.62c.55-.31,1.1-.6,1.65-.92a.33.33,0,0,1,.43,0q2.33,1.69,4.67,3.37c.54.4,1.08.79,1.63,1.17a.39.39,0,0,1,.19.33c.06.65.09,1.31.15,2a13.18,13.18,0,0,0,.1,1.4A1.32,1.32,0,0,1,23.57,46.74Z" fill="#1d70d5"/>
            <path d="M33.9,39.5,24,46.65a.22.22,0,0,1-.2.05L24,44.86a9.55,9.55,0,0,0,.09-1.2c0-.28.09-.57.07-.86s.12-.23.23-.31l3-2.11L30.67,38c.24-.18.28-.18.52,0l2.35,1.33Z" fill="#355d9d"/>
            <path d="M14.28,25.91c.21.17.39.31.56.46.51.43,1,.87,1.53,1.3a.47.47,0,0,1,.19.4c-.07,1.76-.12,3.51-.18,5.27,0,1.14-.09,2.27-.13,3.4a.59.59,0,0,1-.24.52c-.74.6-1.47,1.22-2.2,1.83l-.12.07C13.61,38.9,14.14,27,14.28,25.91Z" fill="#14c3f3"/>
            <path d="M33.46,25.94c0,.25.07.47.08.69,0,1.25,0,2.49.09,3.74,0,.78,0,1.56.08,2.33s0,1.31.06,2,0,1.62.08,2.43c0,.58,0,1.16,0,1.74a.5.5,0,0,1,0,.31,11.71,11.71,0,0,1-1-.76c-.47-.39-.93-.8-1.4-1.18a.41.41,0,0,1-.18-.34c0-.22,0-.45,0-.67,0-1.48,0-3-.09-4.44,0-1,0-2,0-3,0-.23-.07-.46-.06-.69a.42.42,0,0,1,.13-.3c.69-.57,1.38-1.14,2.06-1.72Z" fill="#1d70d5"/>
            <path d="M24.35,22.94c0-.34.11-.66.15-1,0-.11.08-.14.18-.16.81-.11,1.6-.28,2.41-.36l6.4,4.2-1.25.71c-.42.23-.85.44-1.25.69a.41.41,0,0,1-.53,0l-6-4Z" fill="#14c3f3"/>
            <path d="M20.67,21.45,23,21.8c.15,0,.19.09.21.22,0,.33.11.65.17,1l-.82.53a3.52,3.52,0,0,1-.72.43c0-.08,0-.19-.16-.09l-.87.6c-.23.16-.23.16-.47,0l-.78-.55c-.05,0-.11-.1-.18,0a1,1,0,0,0,.2.31c.16.23.33.45.5.68s.08.19-.13.34l-.07.11h0c-.13,0-.21.09-.3.15C18.8,26,18,26.5,17.26,27a.41.41,0,0,1-.52,0c-.71-.41-1.43-.8-2.15-1.2a.56.56,0,0,1-.28-.21,1.69,1.69,0,0,1,.41-.29l5.73-3.73Z" fill="#14c3f3"/>
            <path d="M19.93,25.24c.21-.15.23-.19.12-.34l-.49-.68a1,1,0,0,1-.2-.31c.07-.08.13,0,.18,0l.78.54c.24.16.24.16.47,0l.87-.6c.13-.1.14,0,.16.09h0c-.06,0-.08,0-.09.08a1.65,1.65,0,0,0-.36.43c-.14.19-.4.36-.37.57s.25.41.42.59.31.36.38.58h0c-.28-.07-.44-.31-.69-.4s-.34-.35-.55-.36-.35.19-.51.31-.41.28-.61.42l-.11,0c.15-.2.31-.4.46-.61,0-.06.13-.1.08-.2h0C19.94,25.35,20,25.31,19.93,25.24Z" fill="#fff"/>
            <path d="M26,20.74c-.45,0-.88-.13-1.32-.2-.13,0-.18-.08-.19-.19s-.07-.46-.11-.69C24.93,20,25.48,20.35,26,20.74Z" fill="#14c3f3"/>
            <path d="M23.28,19.78a.31.31,0,0,1,0,.1c-.05.2,0,.46-.15.59s-.41.1-.62.14l-.63.1A14.93,14.93,0,0,1,23.28,19.78Z" fill="#14c3f3"/>
            <path d="M19.33,26.15l.11,0a.08.08,0,0,1-.11.05h0l0,0S19.3,26.15,19.33,26.15Z" fill="#4ab286"/>
            <path d="M19.33,26.23l0,0c-.05,0,0-.05,0-.07Z" fill="#4ab286"/>
            <path d="M21.42,25.63A1.23,1.23,0,0,1,21,25c0-.21.23-.38.36-.57a1.51,1.51,0,0,1,.37-.43s.08,0,.08-.08h0a3.52,3.52,0,0,0,.72-.43l.82-.53a7.27,7.27,0,0,1,.2,1.21Z" fill="#01376d"/>
            <path d="M66.73,62.49c.24.13.47.28.71.39.78.38,1.51.85,2.27,1.25.31.17.62.33.92.53a.38.38,0,0,1,.2.35c-.43.31-.92.54-1.38.81L65.71,67.9a.56.56,0,0,1-.3.14.39.39,0,0,1,0-.29c0-1.41,0-2.81,0-4.21a.42.42,0,0,1,.27-.45C66,62.91,66.36,62.69,66.73,62.49Z" fill="#5bb973"/>
            <path d="M67.72,61.94c0,.14-.17.16-.29.17A.4.4,0,0,1,67.72,61.94Z" fill="#5bb973"/>
            <path d="M67.37,62.14c0,.14-.16.16-.29.17A.4.4,0,0,1,67.37,62.14Z" fill="#5bb973"/>
            <path d="M69.51,60.94c0,.09-.08.11-.16.1A.19.19,0,0,1,69.51,60.94Z" fill="#5bb973"/>
            <path d="M29.29,28.65a.58.58,0,0,1,0,.34c0,2.29,0,4.59,0,6.88a.58.58,0,0,1-.28.53q-1.81,1.26-3.62,2.53c-.47.32-.93.66-1.39,1-.28.19-.3.19-.58,0L21,38.17l-1.84-1.29a1.1,1.1,0,0,0-.14-.09c-.15-.13-.15-.19,0-.31s.59-.47.89-.69c.74-.58,1.49-1.15,2.24-1.72l1.8-1.38,2.14-1.63,2.15-1.65.89-.68A.21.21,0,0,1,29.29,28.65Z" fill="#0590e5"/>
            <path d="M21.79,26.21l0,0s0,0,0,0Z" fill="#fff"/>
            <path d="M19.93,25.24c0,.07,0,.11-.07.11Z" fill="#01376d"/>
            <path d="M21.81,24c0,.05,0,.07-.08.08S21.75,24,21.81,24Z" fill="#14c3f3"/>
          </g>
        </g>
      </g>
    </g>
  </g>
</svg>
