<svg xmlns="http://www.w3.org/2000/svg" viewBox="0 0 96 96">
  <g id="Layer_2" data-name="Layer 2">
    <g id="Layer_1-2" data-name="Layer 1">
      <g id="Layer_2-2" data-name="Layer 2">
        <g id="Layer_1-2-2" data-name="Layer 1-2">
          <g>
            <path d="M33.9,54.93A12.78,12.78,0,0,0,33,57.57a29.74,29.74,0,0,0-1.1,6.35,29.08,29.08,0,0,0,8.45,22.3,31.05,31.05,0,0,0,9.88,6.67,31.68,31.68,0,0,0,32.2-4.71,30,30,0,0,0,8.49-11.49A29,29,0,0,0,86,46.87,31.67,31.67,0,0,0,76,39.17a30.6,30.6,0,0,0-10.38-2.89,32.14,32.14,0,0,0-12.93,1.36,40,40,0,0,0-5.57,2.44,21.64,21.64,0,0,0,.73-8.69,23.59,23.59,0,0,0-3.71-10,22.37,22.37,0,0,0-4-4.45,22.67,22.67,0,0,0-5.67-3.69A25.18,25.18,0,0,0,25.29,11a24.51,24.51,0,0,0-18.5,7.32,22.79,22.79,0,0,0-6.37,17,23.18,23.18,0,0,0,10.83,18,24.76,24.76,0,0,0,8.19,3.24A25.38,25.38,0,0,0,33.9,54.93Z" fill="#fdfdfe"/>
            <path d="M60.17,92.56c-5.14-.1-11.64-2.58-17-7.68A26.2,26.2,0,0,1,42.81,47a27.33,27.33,0,0,1,19.83-8,27.29,27.29,0,0,1,19.3,7.55A25.69,25.69,0,0,1,90.39,66C90.29,80.62,77.91,92.67,60.17,92.56Zm-.59-26.72h0c0-.16-.14-.21-.27-.26h0a2.16,2.16,0,0,0-.47-.53,1.7,1.7,0,0,0-.57-.41.05.05,0,0,0,0,0,.94.94,0,0,0-.52-.44s0,0,0,0a.37.37,0,0,0-.3-.25,0,0,0,0,0,0,0,3.05,3.05,0,0,0-.85-.58l-.12,0a.67.67,0,0,0-.3-.25c-.45-.2-.85-.48-1.31-.66s-.75-.3-1.1-.47a9.91,9.91,0,0,0-1.46-.47c-.38-.13-.81-.13-1.21-.25A13.67,13.67,0,0,0,49,61c-.45-.06-.92,0-1.37-.09a4.81,4.81,0,0,1-1.12-.21,3.37,3.37,0,0,0-.78-.24.05.05,0,0,0,0,0,9.35,9.35,0,0,0-1-.63l0,0c0-.07-.09-.1-.14-.14a5.7,5.7,0,0,1-.89-.88,6.78,6.78,0,0,1-.74-1.31,4,4,0,0,1-.41-1.26c0-.26-.07-.51-.09-.76a.36.36,0,0,0-.39-.35H40.72a.33.33,0,0,0-.35.22.89.89,0,0,0,0,.48,10.14,10.14,0,0,0,.27,1.44c.08.2.11.43.21.63a.94.94,0,0,1,.1.28,4.93,4.93,0,0,0,.35.82,1.9,1.9,0,0,0,.28.37c.21.27.37.58.6.84a8.45,8.45,0,0,0,2.25,1.73,4.54,4.54,0,0,0,.89.42,9.54,9.54,0,0,0,1,.31.29.29,0,0,1,.13.05.7.7,0,0,0,.52.13c.7,0,1.4.09,2.1.07a.93.93,0,0,1,.24,0,6,6,0,0,0,1.19.18,2,2,0,0,1,.74.13c.42.21.89.17,1.31.37s.93.33,1.38.55a11.13,11.13,0,0,1,1.56.84c.39.27.81.5,1.18.8s.45.45.69.64a11.51,11.51,0,0,1,1.1,1.11,5.53,5.53,0,0,1,.58.7,10.73,10.73,0,0,1,.86,1.36A5.41,5.41,0,0,1,60.56,71a.18.18,0,0,0,0,.09,2.36,2.36,0,0,1,.41,1c.14.38.2.78.32,1.16a1.47,1.47,0,0,1,.05.29c0,.59.08,1.18.13,1.77,0,.22.13.4.37.41a8.07,8.07,0,0,0,1.39,0,.34.34,0,0,0,.34-.33c0-.25.08-.5.08-.76a9.07,9.07,0,0,1,.44-2.58,4.66,4.66,0,0,1,.28-.82c.26-.57.49-1.15.8-1.69a10.53,10.53,0,0,1,1-1.54q.36-.45.75-.87a15.91,15.91,0,0,1,1.8-1.68c.17-.12.35-.21.51-.33a5.72,5.72,0,0,1,1.29-.75,2.61,2.61,0,0,0,.67-.33,4.37,4.37,0,0,1,1.13-.45,3.28,3.28,0,0,1,1.11-.31,1,1,0,0,0,.33-.1,2.83,2.83,0,0,1,.5-.13c.3-.06.62,0,.92-.08a9.6,9.6,0,0,1,1.85-.19,10.14,10.14,0,0,0,1.1-.06c.44-.06.84-.28,1.3-.3.33-.25.78-.26,1.11-.51a3,3,0,0,1,.38-.23,6.24,6.24,0,0,0,1.28-.89,8.46,8.46,0,0,0,.9-1,5.57,5.57,0,0,1,.7-.9.18.18,0,0,0,.07-.15,1.4,1.4,0,0,1,.15-.33,6.46,6.46,0,0,1,.4-.84,1,1,0,0,0,.08-.35,1,1,0,0,1,.06-.23,5.64,5.64,0,0,0,.21-1.64c0-.27-.13-.4-.42-.4s-.81,0-1.21,0-.4.12-.45.43a5.82,5.82,0,0,1-.33,1.68,8.38,8.38,0,0,1-.94,1.65,5.05,5.05,0,0,1-1.33,1.14,5.83,5.83,0,0,1-.74.39,4.58,4.58,0,0,1-1.88.47h-.14c-.72.07-1.45,0-2.16.19a10.55,10.55,0,0,0-1.13.12c-.51.16-1,.21-1.55.39s-.77.23-1.15.36a11.89,11.89,0,0,0-1.47.64,8.8,8.8,0,0,0-1.35.79,9.28,9.28,0,0,0-1.38,1l-.11.07a11.74,11.74,0,0,0-1.27,1.17,4.35,4.35,0,0,0-.69.73c-.22.32-.59.52-.72.91,0,.06-.09.1-.14.15-.4.43-.59,1-.95,1.44v0c0,.31-.24.52-.31.8s-.23.4-.24.65c0,.08-.07.13-.16.14a.18.18,0,0,1-.22-.11c0-.06,0-.12-.07-.19-.14-.29-.26-.58-.41-.87s-.31-.52-.44-.79c-.29-.58-.73-1.06-1.07-1.6a.2.2,0,0,0-.13-.09h0a1.3,1.3,0,0,0-.34-.4l-.13-.13a.33.33,0,0,0-.21-.27ZM47.1,57.34c0-.23-.18-.15-.31-.18l0,0a1.54,1.54,0,0,0-.6-.56.41.41,0,0,1,0-.09c0-.14,0-.23-.16-.25l-.06-.14c0-.06,0-.11,0-.15l0-.13a.56.56,0,0,0,0-.42,1.45,1.45,0,0,1,0-.85.92.92,0,0,0,0-.37,5.79,5.79,0,0,1,0-1.5,2.9,2.9,0,0,0,0-.72.28.28,0,0,0-.31-.26c-.43,0-.87,0-1.31,0s-.45.31-.28.6a.62.62,0,0,0,0,.13.18.18,0,0,0,0,.09v3.25a.33.33,0,0,0,.23.33l0,.14c-.07.06,0,.1,0,.13a1.55,1.55,0,0,0,0,.21c-.08.07,0,.14,0,.21A5.39,5.39,0,0,0,44.89,58a3.17,3.17,0,0,0,1.4,1,.58.58,0,0,1,.24.14.47.47,0,0,0,.34.12.88.88,0,0,1,.55.15.67.67,0,0,0,.41.11H49.7a.45.45,0,0,0,.3,0l.22,0a3,3,0,0,0,.84.23A6.74,6.74,0,0,1,52.4,60a.47.47,0,0,0,.43,0l.22,0a1.2,1.2,0,0,0,.37.2c.09,0,.2.12.31,0l.15,0a1.45,1.45,0,0,0,.62.31,2.63,2.63,0,0,1,.9.41c.25.17.56.22.81.4a.3.3,0,0,0,.23,0l.07,0a.65.65,0,0,0,.6.32l.19.14c0,.15.08.13.18.1l.14.11c0,.23.2.15.32.19l.09.08a.24.24,0,0,0,.11.19l1.55,1.2a.31.31,0,0,0,.19.06l.06.06a1,1,0,0,0,.59.58l.12.12c.07.14.1.31.3.35L61,65a.47.47,0,0,0,.15.36,6.39,6.39,0,0,1,1,1.35.45.45,0,0,0,.46.21.28.28,0,0,0,.3-.25.66.66,0,0,1,.17-.29c.06,0,.11-.12.06-.2a.75.75,0,0,0,.07-.12c.18,0,.26-.1.23-.27l.15-.17a1,1,0,0,0,.41-.51.29.29,0,0,1,.15-.14c.11,0,.15,0,.11-.13a.34.34,0,0,1,.13-.18c.09,0,.18,0,.16-.13.15-.18.36-.31.45-.53h0c.14,0,.2-.15.32-.19s.22-.11.39-.37l.1-.09a2.58,2.58,0,0,0,1-.75l.06,0c.19,0,.31-.05.32-.25l0,0a.55.55,0,0,0,.35-.12c.41-.34.93-.5,1.36-.81.18-.12.41-.14.58-.26a6.17,6.17,0,0,1,1.24-.53c.1,0,.2,0,.21-.18l.12,0c.09,0,.15,0,.15-.08l.08,0c.32.13.52-.09.75-.25l.13-.05c0,.05.1,0,.16,0a.12.12,0,0,0,.12.05l.82-.26s0,0,0-.05l.06,0a.23.23,0,0,0,.16,0s.06,0,.09,0a4.15,4.15,0,0,0,1.26-.25s0,0,0-.06a.42.42,0,0,1,.22,0c0,.06.08.07.14.07a14.8,14.8,0,0,0,2.21-.07c.16,0,.34-.06.4-.24l.15,0c.19.16.37,0,.54,0s.27-.16.42-.22A3.58,3.58,0,0,0,80,58.16a.2.2,0,0,0,.1-.2l.08-.09a.48.48,0,0,0,.33-.45.1.1,0,0,1,0-.05.2.2,0,0,0,.19-.16,2.2,2.2,0,0,1,.23-.46c.08-.14.18-.32,0-.49a.43.43,0,0,1,0-.11.39.39,0,0,0,.27-.38c0-.31,0-.62,0-.92,0-.76,0-1.51,0-2.26,0,0,0-.06,0-.09v-.15a.39.39,0,0,0-.3-.66c-.28,0-.55,0-.83,0-.71-.06-.82,0-.82.65v2.49a3.43,3.43,0,0,1,0,.56c0,.15-.1.33.06.47l0,.12c-.17,0-.11.17-.15.25a8,8,0,0,0-.55.61,1.78,1.78,0,0,1-1.35.62c-.37,0-.75.06-1.13,0-.19,0-.35.1-.53.12l-.85.08c-.08,0-.17,0-.21.08h-.15a1.47,1.47,0,0,0-1,.12,1,1,0,0,1-.3.06c-.39.07-.82,0-1.13.34l-.15,0a.5.5,0,0,0-.49,0,.84.84,0,0,1-.57.19.65.65,0,0,0-.26.08l-1.78.76-.22.09-1.36.75c-.32.19-.64.37-.94.58a12.15,12.15,0,0,1-1.07.77c-.07,0-.06.1,0,.17l-.1.1c-.06,0-.13,0-.16,0s-.32.22-.46.35l-1.27,1.23c-.12.12-.21.26-.33.38s-.23.13-.34,0a3.08,3.08,0,0,0-.39-.42,18,18,0,0,0-2.27-2c-.27-.2-.54-.41-.82-.58a5.47,5.47,0,0,0-.76-.49,5,5,0,0,1-.58-.35c-.48-.24-1-.5-1.47-.71a8.29,8.29,0,0,0-1-.41,4,4,0,0,0-1.07-.34c-.09,0-.15-.09-.23-.13a.42.42,0,0,0-.43,0l-.21,0a1.28,1.28,0,0,0-.79-.3,2.39,2.39,0,0,1-.83-.15,1,1,0,0,0-.79-.06l-.63,0c0-.08-.13-.07-.21-.08-.59-.11-1.2-.12-1.8-.19a1.36,1.36,0,0,0-.6,0,.29.29,0,0,0-.16,0v0c0-.1-.07-.11-.15-.07ZM77.91,68.1A5.76,5.76,0,0,0,77.73,66a1.18,1.18,0,0,1,0-.27,3.31,3.31,0,0,0-.26-1.2.35.35,0,0,0-.36-.24c-.45,0-.9,0-1.35,0s-.45.17-.32.49a2.52,2.52,0,0,1,.18.68,2.36,2.36,0,0,0,.09.52,3.69,3.69,0,0,1,.16,1.09c0,.71,0,1.42,0,2.14a2.22,2.22,0,0,1-.12.72c0,.15-.07.3-.11.45s0,.57-.13.82a1.32,1.32,0,0,0-.17.53,4.1,4.1,0,0,1-.41,1.16c-.12.31-.28.61-.42.91a11.33,11.33,0,0,1-1.15,1.84,13.33,13.33,0,0,1-1.72,1.88A12,12,0,0,1,70,78.82,8.55,8.55,0,0,1,67.67,80l-.16.07a5,5,0,0,1-1.12.41c-.34.11-.72.15-1.06.28a.81.81,0,0,1-.31,0c-.63,0-1.23.17-1.85.21A9,9,0,0,1,61,80.87a2.25,2.25,0,0,0-.58-.07,2.32,2.32,0,0,1-1-.18,1.47,1.47,0,0,0-.4-.1,5.46,5.46,0,0,1-1.37-.43,1.86,1.86,0,0,1-.6-.22,7.05,7.05,0,0,0-.82-.42,17.52,17.52,0,0,1-1.57-.93,14.83,14.83,0,0,1-1.45-1.17,7,7,0,0,1-.87-.93,9.68,9.68,0,0,1-.92-1.19c-.29-.49-.6-1-.87-1.47-.12-.23-.18-.48-.32-.7a3.61,3.61,0,0,1-.4-1,6.42,6.42,0,0,1-.39-1.61,2.1,2.1,0,0,0-.13-.55,2.51,2.51,0,0,1-.1-.66c0-.77,0-1.54,0-2.31a2.22,2.22,0,0,1,.1-.73,4,4,0,0,0,.16-.68,5.88,5.88,0,0,1,.18-.81c.08-.29,0-.42-.29-.43-.48,0-1,0-1.45,0a.25.25,0,0,0-.25.15,2.06,2.06,0,0,0-.26.85,2,2,0,0,1-.09.69,4.63,4.63,0,0,0-.18,1.52c0,.59,0,1.18,0,1.77a2.05,2.05,0,0,0,.07.6,2.92,2.92,0,0,1,.16.78,2.56,2.56,0,0,0,.25,1.09.65.65,0,0,1,0,.13c0,.46.3.84.36,1.28a.3.3,0,0,0,0,.1c.22.3.25.68.44,1s.27.54.4.81a13.9,13.9,0,0,0,.89,1.41,16.53,16.53,0,0,0,3.65,3.63,6.39,6.39,0,0,0,.76.52c.57.3,1.14.61,1.72.9a18,18,0,0,0,1.71.69,9.25,9.25,0,0,0,1.79.47c1,.15,2,.26,3,.33a4.24,4.24,0,0,0,.62,0c.54-.06,1.07-.15,1.61-.18a15.92,15.92,0,0,0,1.83-.33.49.49,0,0,0,.16,0,1.74,1.74,0,0,1,.56-.17.7.7,0,0,0,.29-.08c.37-.21.8-.27,1.17-.47s.6-.29.9-.42.68-.4,1-.59c.1-.06.22-.08.31-.14a16,16,0,0,0,2.62-2.15c.28-.29.58-.56.84-.87a17.4,17.4,0,0,0,1.47-2,3.29,3.29,0,0,0,.34-.61,9.12,9.12,0,0,1,.41-.83A6.76,6.76,0,0,0,77.06,73c.13-.42.26-.85.4-1.27a7.06,7.06,0,0,0,.23-1.2,3.57,3.57,0,0,1,.16-.79.87.87,0,0,0,.06-.32V68.1ZM47.23,52h0v.94c0,.7,0,1.4,0,2.11a.94.94,0,0,0,.6.93,2.61,2.61,0,0,0,1.11.16c.58,0,1.15,0,1.72.07s.81.2,1.22.22a15.22,15.22,0,0,1,1.92.41,3.54,3.54,0,0,0,.39.14,4.9,4.9,0,0,1,1.33.42,9.16,9.16,0,0,1,1,.4,3.06,3.06,0,0,0,.55.26,3,3,0,0,1,.83.39c.57.33,1.16.63,1.7,1a15.33,15.33,0,0,1,2.7,2.16.36.36,0,0,0,.57,0c.16-.16.33-.33.51-.49A17.17,17.17,0,0,1,65,59.89a5,5,0,0,1,1-.65,11.9,11.9,0,0,0,1.15-.67c.44-.27.91-.46,1.36-.7a9.22,9.22,0,0,1,1.26-.51c.32-.12.65-.2,1-.34.13-.05.3,0,.44-.08.53-.25,1.13-.26,1.68-.46a.66.66,0,0,1,.24,0,3.54,3.54,0,0,0,.92-.15,6.13,6.13,0,0,1,1.13-.14c.61,0,1.21,0,1.82-.06a1.06,1.06,0,0,0,1-1.09V49c0-.38-.1-.47-.49-.48h-.76c-.47,0-.57.09-.57.54v4.85c0,.44,0,.48-.52.51s-1.06.06-1.58.11c-.29,0-.57.13-.85.15a12.51,12.51,0,0,0-2,.43,17.36,17.36,0,0,0-2.44.79c-.28.11-.57.2-.83.32l-1,.49a17.36,17.36,0,0,0-1.7.92,18.17,18.17,0,0,0-2.39,1.7.27.27,0,0,1-.42,0,6.2,6.2,0,0,0-.86-.67c-.32-.24-.65-.46-1-.67s-.63-.37-.93-.57a8,8,0,0,0-1.29-.69c-.5-.22-1-.48-1.49-.68s-1.24-.46-1.87-.68a16.43,16.43,0,0,0-2.09-.54,17.78,17.78,0,0,0-1.8-.3c-.53-.06-1.08-.08-1.61-.12-.29,0-.37-.09-.39-.36a1.33,1.33,0,0,1,0-.2V49.06a1.33,1.33,0,0,0,0-.2c0-.27-.14-.38-.43-.38h-.86c-.42,0-.53.1-.53.52v3ZM70.55,68.17c0,.32,0,.57-.15.78a1.74,1.74,0,0,1-.76.61,1.41,1.41,0,0,1-1,0,1.11,1.11,0,0,1-.69-.62c-.06-.16-.16-.16-.3,0a.46.46,0,0,0-.12.12,10.72,10.72,0,0,0-.77,1.13.2.2,0,0,0,0,.25,1,1,0,0,0,.21.25,2.61,2.61,0,0,0,1.2.62l.13.05a2,2,0,0,0,.84.15A3.7,3.7,0,0,0,70.83,71a3.38,3.38,0,0,0,1.09-1,2.84,2.84,0,0,0,.44-1.08,2.07,2.07,0,0,0,0-1.28,4.45,4.45,0,0,0-.41-1,5.38,5.38,0,0,0-.54-.64.25.25,0,0,0-.36,0l-.65.37a2.86,2.86,0,0,0-.58.46c-.17.16-.14.25.07.34a.58.58,0,0,1,.24.14C70.36,67.54,70.65,67.82,70.55,68.17Zm-14.7,3.36c.34,0,.63.06.84-.06a9.55,9.55,0,0,0,1-.41,5.45,5.45,0,0,0,.82-.69c.08-.09,0-.16,0-.24s-.26-.37-.36-.56a2.67,2.67,0,0,0-.67-.86c-.1-.09-.19-.06-.26,0a1,1,0,0,0-.09.18,1.12,1.12,0,0,1-1,.58,2,2,0,0,0-.34,0,.6.6,0,0,1-.45-.12c-.08-.07-.18-.11-.25-.18-.23-.25-.48-.48-.43-.87a1.69,1.69,0,0,0,0-.23,1,1,0,0,1,.64-1c.3-.17.32-.24.09-.5,0,0-.07-.09-.12-.11a3.36,3.36,0,0,1-.71-.47c-.19-.11-.44-.14-.57-.35a.14.14,0,0,0-.21,0,8.11,8.11,0,0,0-.66.77c-.19.27-.27.58-.44.85a.62.62,0,0,0-.09.32c0,.28,0,.56,0,.84a1.17,1.17,0,0,0,.07.49,7.53,7.53,0,0,0,.7,1.27,3.21,3.21,0,0,0,1.22.93A2,2,0,0,0,55.85,71.53Zm6.8-18.29c-.42,0-.78.07-1.15.06s-.67,0-1,0a1.1,1.1,0,0,0-.44.07,2.5,2.5,0,0,1-1,.2.42.42,0,0,0-.34.12.41.41,0,0,1-.15.07,3.65,3.65,0,0,0-1.07.31.77.77,0,0,1-.27,0,.25.25,0,0,0-.26.18c0,.1,0,.17.12.23a.9.9,0,0,0,.4.23,2.9,2.9,0,0,1,1,.41,6.76,6.76,0,0,1,.77.36.72.72,0,0,0,.89,0,.87.87,0,0,1,.52-.14c.18,0,.37,0,.55,0,.58,0,1.15-.12,1.72,0s1,0,1.55,0a1,1,0,0,1,.59.17.65.65,0,0,0,.72,0c.21-.11.43-.19.64-.3A6.09,6.09,0,0,0,67,55a1.77,1.77,0,0,1,.63-.27A.85.85,0,0,0,68,54.6a.24.24,0,0,0,0-.44,1.33,1.33,0,0,0-.19,0,5.42,5.42,0,0,0-1.17-.35.19.19,0,0,1-.12-.07.47.47,0,0,0-.38-.12,2,2,0,0,1-.94-.18.9.9,0,0,0-.36-.08c-.74,0-1.47,0-2.16-.07Z" fill="#161a3a"/>
            <path d="M24,54a19,19,0,0,1-2.92-.2,20.78,20.78,0,0,1-5.43-1.46,22.09,22.09,0,0,1-4.54-2.58c-.41-.3-.79-.62-1.16-1s-.69-.6-1-.92a21.31,21.31,0,0,1-3.28-4.23A19.88,19.88,0,0,1,4,39.88a19.45,19.45,0,0,1-.74-3c-.1-.62-.13-1.24-.22-1.86A11.4,11.4,0,0,1,3,33.58a15.92,15.92,0,0,1,.15-2.29,18,18,0,0,1,.54-2.82,20.55,20.55,0,0,1,1.17-3.21,19.77,19.77,0,0,1,2.38-3.9,18.62,18.62,0,0,1,2.33-2.54,21.89,21.89,0,0,1,5.6-3.68,21.38,21.38,0,0,1,4.95-1.54c.61-.11,1.23-.17,1.84-.24a20.93,20.93,0,0,1,3-.11,17.56,17.56,0,0,1,1.78.16c.53.07,1.05.13,1.57.24a20.22,20.22,0,0,1,4,1.21,21.38,21.38,0,0,1,3.64,1.91,22.41,22.41,0,0,1,2,1.49c.46.39.89.81,1.32,1.23a20.14,20.14,0,0,1,5,8.14,20.29,20.29,0,0,1,.62,2.53c.11.59.17,1.19.22,1.78a19.19,19.19,0,0,1,.07,2.27,17.47,17.47,0,0,1-.23,2.49,19.09,19.09,0,0,1-.54,2.47,18.14,18.14,0,0,1-1,2.66l-.45.94a2,2,0,0,1-.59.76c-.57.47-1.11,1-1.64,1.49-.7.69-1.35,1.42-2,2.17a26,26,0,0,0-2,2.62,1.6,1.6,0,0,1-.41.41,21.55,21.55,0,0,1-6.64,3,23.8,23.8,0,0,1-4.11.67C25,54,24.53,54,24,54Zm0-36.33c-.11-.3-.08-.63-.22-.95l-.21,1.14a.79.79,0,0,0-.37.17c-.66.43-1.3.88-2,1.28-.83.51-1.63,1.05-2.45,1.57-1.15.73-2.29,1.48-3.44,2.23L13,24.66c-.12.08-.22.15-.22.31,0,.44-.1.87-.07,1.3a.87.87,0,0,1,0,.23,15,15,0,0,0-.11,1.76c0,.7-.12,1.4-.09,2.1v.07c-.09.66-.1,1.33-.13,2s-.11,1.27-.08,1.9v0c-.08.7-.1,1.4-.13,2.1a16.11,16.11,0,0,0-.07,1.7s0,.06,0,.1c-.09.66-.07,1.33-.13,2a.35.35,0,0,0,.18.33L15.31,43l3.78,2.79,4.33,3.19c.24.18.31.18.55,0l2.39-1.76L30,44.49l5.38-3.9a.42.42,0,0,0,.21-.39c0-.35,0-.71-.06-1.06,0-.62,0-1.24-.07-1.87s0-1.17-.07-1.76,0-1.29-.07-1.93,0-1.18-.07-1.77,0-1.33-.07-2,0-1.11-.06-1.66c0-.81-.06-1.63-.09-2.44,0-.2,0-.4,0-.6s-.08-.34-.26-.46C33.52,23.82,32.24,23,31,22.13L26.08,19c-.67-.44-1.33-.92-2-1.32Z" fill="#355d9d"/>
            <path d="M44.48,94.48a6.79,6.79,0,0,1-1.6-.51A11.76,11.76,0,0,1,40,92.11a20,20,0,0,1-3-3.3c-1.15-1.53-2.15-3.16-3.23-4.74-1.29-1.88-2.68-3.69-4.09-5.49-1-1.28-2-2.53-3.09-3.77-.73-.86-1.48-1.7-2.24-2.54-1-1.1-2-2.2-3.16-3.22a19.76,19.76,0,0,0-3-2.41A5,5,0,0,0,16.71,66a1.84,1.84,0,0,0-.78-.08,1.2,1.2,0,0,0-1,.94,3.41,3.41,0,0,0-.05,1.49,22.87,22.87,0,0,0,1.43,4.76c.59,1.58,1.25,3.14,1.76,4.74a7.45,7.45,0,0,1,.45,2.28,1.5,1.5,0,0,1-.05.37c-.07.17-.1.19-.28.09l-.22-.16a18.72,18.72,0,0,1-1.62-1.59c-.47-.49-.92-1-1.37-1.51-.69-.77-1.37-1.55-2-2.34s-1.4-1.65-2.1-2.48a8.67,8.67,0,0,1-.65-.82c.47.34.82.79,1.27,1.14l.08.07h0s0,.07.07.07h0c0,.06.07.08.14.07h0c0,.11.06.16.12.22a9.81,9.81,0,0,0,1.2,1l.25.13c.22.09.29,0,.3-.19a1.26,1.26,0,0,0-.05-.33A23.37,23.37,0,0,0,11.67,69q-1-2.08-2.17-4.14c-.56-1-1.07-2.09-1.57-3.15a24.37,24.37,0,0,1-1.47-4A11,11,0,0,1,6,53.9a1.41,1.41,0,0,1,1.14-1.45,3.07,3.07,0,0,1,1.13,0,7.94,7.94,0,0,1,1.78.6c.13.05.24.22.37.15s-.06-.27,0-.4a12.53,12.53,0,0,1,1.12.65,22.31,22.31,0,0,0,2.06,1.07.45.45,0,0,1,.14.1l-.17.25a5.08,5.08,0,0,0-.92,1.77,2.46,2.46,0,0,0-.09,1.29c.48-.44,1-.85,1.39-1.31s.9-.91,1.37-1.35c.4.08.76.24,1.15.35l1.4.41a.52.52,0,0,0,.12.34c.35.6.71,1.19,1.08,1.78a44.26,44.26,0,0,0,2.57,3.69c.53.69,1.07,1.36,1.64,2s1.19,1.38,1.83,2c.12.12.24.24.35.37s.22.32.44.35h0a.15.15,0,0,0,.07.13c.13.08.17.24.28.34a.13.13,0,0,0,.07.13h0a.85.85,0,0,0,.14.34l1.17,2.19c1.07,2,2.09,4.08,3.17,6.09.64,1.17,1.28,2.34,1.94,3.5.38.69.79,1.36,1.2,2q.83,1.37,1.71,2.7c.77,1.15,1.56,2.3,2.4,3.41s1.73,2.22,2.67,3.27c.5.56,1,1.13,1.54,1.66C43,93.1,43.72,93.81,44.48,94.48ZM11.32,65.24a16.63,16.63,0,0,0-.17-2.82,12.78,12.78,0,0,0-.3-1.73,3.33,3.33,0,0,0-.58-1.37c-.09-.11-.19-.31-.37-.25s-.15.29-.13.44c.08.54.17,1.07.3,1.6q.38,1.48.84,2.94A7.28,7.28,0,0,0,11.32,65.24ZM12.64,70a.2.2,0,0,0,0,.22c.55,1.17,1.09,2.35,1.55,3.56a10.49,10.49,0,0,1,.59,2c.05.27.1.58-.32.71a4.58,4.58,0,0,0,.46.19c.37.1.56,0,.57-.4a1.75,1.75,0,0,0,0-.46,9.77,9.77,0,0,0-.36-1.08,34.34,34.34,0,0,0-2-4c-.13-.23-.27-.45-.42-.71Z" fill="#ffa3a3"/>
            <path d="M45.71,24.07a1.88,1.88,0,0,1-.24-.44c-.31-.59-.62-1.19-1-1.76a.49.49,0,0,1-.13-.32,8.35,8.35,0,0,1,1.11-.21,32.57,32.57,0,0,0,6.24-1.64,9.32,9.32,0,0,0,2.69-1.54A3.11,3.11,0,0,0,55.6,16a3.1,3.1,0,0,0-.31-1.43,5.11,5.11,0,0,0-1.37-1.74,17.75,17.75,0,0,0-3.32-2.14c-1.16-.62-2.36-1.17-3.5-1.82a10.93,10.93,0,0,1-2.18-1.52,3.33,3.33,0,0,1-.76-1.06.59.59,0,0,1,.2-.85,3.41,3.41,0,0,1,1-.48A15.87,15.87,0,0,1,48,4.35c.84-.13,1.68-.23,2.52-.33.53-.06,1.06-.11,1.58-.13s1-.11,1.55-.09a2.07,2.07,0,0,1,.35,0c-.4.13-.8.23-1.19.38a1.51,1.51,0,0,0-.72.21,5.54,5.54,0,0,0-1.28.66.6.6,0,0,0-.09,1c.26.21.5.46.77.67a17.21,17.21,0,0,0,2.74,1.71c1.11.56,2.27,1,3.43,1.49,1.34.52,2.69,1,4,1.59a26.73,26.73,0,0,1,2.75,1.32,16.88,16.88,0,0,1,2.65,1.79,10.32,10.32,0,0,1,2.11,2.27,3.13,3.13,0,0,1,.51,1.4,2.25,2.25,0,0,1-.61,1.72c-.59-.09-1.17-.21-1.76-.29a15.09,15.09,0,0,0-1.78-.16c-1.06,0-2.13-.05-3.2,0-.54.05-1.08.09-1.61.17a29.83,29.83,0,0,0-3.76.77,35.49,35.49,0,0,0-5.74,2.09c-.58.26-1.15.55-1.71.85s-1.34.74-2,1.13a.7.7,0,0,0-.26.22C46.78,24.59,46.26,24.3,45.71,24.07ZM58,11.84s0,0,0,0h0a.07.07,0,0,0,.06.07c0,.1.08.16.14.23.53.6,1.11,1.15,1.69,1.71a14.47,14.47,0,0,0,1.51,1.31,5.15,5.15,0,0,0,1.09.69,1.15,1.15,0,0,0,.6.14c.25,0,.33-.15.22-.36a1,1,0,0,0-.19-.27,7.41,7.41,0,0,0-.91-.77C61,13.65,59.63,12.84,58.32,12A.5.5,0,0,0,58,11.9ZM54.14,9c0-.06-.06-.09-.07-.09-.71-.3-1.41-.6-2.09-1a14.5,14.5,0,0,1-2.52-1.56,2.08,2.08,0,0,1-.92-1.48,1.2,1.2,0,0,0-.07,1.69,3,3,0,0,0,.64.6A8.79,8.79,0,0,0,50.78,8a19,19,0,0,0,2.56.8A2.28,2.28,0,0,0,54.14,9ZM54.3,9h0l0,0,0,0Z" fill="#ffa3a3"/>
            <path d="M63.29,36.13h-1a.71.71,0,0,0,.07-.32,7.32,7.32,0,0,1,.09-.93c0-.47.11-.94.12-1.42a1.69,1.69,0,0,1,0-.23,5.22,5.22,0,0,0,0-1.72.28.28,0,0,0-.16-.24c-.13-.05-.19.06-.25.13a3.8,3.8,0,0,0-.49.88l-.87,2c-.1.22-.16.23-.34.06-.42-.38-.82-.78-1.25-1.15l-1.55-1.36c-.7-.6-1.42-1.16-2.15-1.71-1-.79-2.11-1.53-3.2-2.25-.85-.56-1.74-1.06-2.63-1.56,0-.1-.08-.12-.14-.16-.31-.22-.67-.37-1-.62a24.14,24.14,0,0,1,3.77-1.14,15.09,15.09,0,0,1,1.89-.27c.62,0,1.24,0,1.92,0a6.47,6.47,0,0,0-1.84-.59c-.62-.15-1.26-.23-1.89-.35a5.26,5.26,0,0,1,1.09-.33c.71-.17,1.43-.31,2.14-.46l1.22-.21c.64-.11,1.28-.22,1.92-.31.47-.07.94-.1,1.4-.16s.69,0,1-.09a13.72,13.72,0,0,1,1.43-.09,19.27,19.27,0,0,1,2.52,0c.6.06,1.21.11,1.8.22a6.12,6.12,0,0,1,2.55.95,2.86,2.86,0,0,1,1.31,3.08,5.16,5.16,0,0,1-.37,1.37,13.61,13.61,0,0,1-1,2,.33.33,0,0,1-.31.17,3,3,0,0,1-.42,0c-.44-.1-.91-.05-1.36-.12a7.26,7.26,0,0,1-.93-.06c-.23-.06-.29,0-.38.23-.22.6-.42,1.22-.65,1.82-.37,1-.77,1.93-1.19,2.88-.28.63-.55,1.27-.87,1.88A.9.9,0,0,0,63.29,36.13Z" fill="#ff7b69"/>
            <path d="M76.85,26.26c.86-.29,1.72-.61,2.62-.82a8.9,8.9,0,0,1,2.18-.25,4.26,4.26,0,0,1,1.28.23.2.2,0,0,1-.22,0,1.54,1.54,0,0,0-.48-.05,11.92,11.92,0,0,0-2.46.22,9.67,9.67,0,0,0-1.36.28.75.75,0,0,0,.36,0,8.88,8.88,0,0,1,2.47,0,3.9,3.9,0,0,1,2.09.95,3.64,3.64,0,0,1,1.12,2.58,12.94,12.94,0,0,1-.19,2.85c-.1.66-.22,1.31-.35,2-.17.86-.39,1.71-.63,2.55-.36,1.28-.8,2.53-1.26,3.77-.22.6-.46,1.19-.68,1.78a1.77,1.77,0,0,1-.45-.3,31.74,31.74,0,0,0-7.22-3.92l-.16-.07c0-.07,0-.13,0-.2A14,14,0,0,0,73.74,35a8.63,8.63,0,0,0-.46-2.52,6.55,6.55,0,0,0-1.5-2.45.28.28,0,0,1-.07-.38,16.43,16.43,0,0,0,1.26-3,1.12,1.12,0,0,1,.14-.4,1,1,0,0,0,.1.54l.14.27c.23.47.23.48.75.29s1.12-.43,1.67-.68a1,1,0,0,0,.46-.21A2,2,0,0,0,76.85,26.26Zm1,12.34c.1,0,.12-.09.15-.14a20.43,20.43,0,0,0,1.65-3.78,8,8,0,0,0,.41-3,3.19,3.19,0,0,0-.71-1.74,2,2,0,0,0-2.16-.77,1.64,1.64,0,0,0-1.14.79.5.5,0,0,0,.14.73,4.74,4.74,0,0,1,1,1A6,6,0,0,1,78.22,35,11.29,11.29,0,0,1,78,37.73a5.11,5.11,0,0,0-.15.87Z" fill="#ff6a69"/>
            <path d="M59.76,36.23c-.67.11-1.34.16-2,.26a32.88,32.88,0,0,0-3.94.85,30.84,30.84,0,0,0-6.68,2.79c-.08,0-.16.12-.27.1s0-.15,0-.22a26.13,26.13,0,0,0,.8-4,20.23,20.23,0,0,0,.1-3.73A21.52,21.52,0,0,0,47,27.68c0-.11,0-.22-.07-.33l.2,0a15.58,15.58,0,0,1,1.78.48,17.67,17.67,0,0,1,1.76.66c.69.3,1.37.62,2,1s1.06.58,1.57.9a25,25,0,0,1,2.56,1.79,11.19,11.19,0,0,1,1.55,1.45A6.3,6.3,0,0,1,59.76,36.23Z" fill="#ff7b69"/>
            <path d="M63.29,36.13a.47.47,0,0,1,0-.16c.32-.61.58-1.25.86-1.88.42-1,.82-1.91,1.19-2.88.23-.6.43-1.22.66-1.82.08-.23.15-.29.38-.23a7.11,7.11,0,0,0,.92.06c.45.08.92,0,1.37.12a1.86,1.86,0,0,0,.41,0,.31.31,0,0,0,.31-.17,13.61,13.61,0,0,0,1-2,5.59,5.59,0,0,0,.38-1.37,2.87,2.87,0,0,0-1.32-3.08,6.07,6.07,0,0,0-2.55-.95c-.59-.11-1.19-.16-1.8-.22a19.14,19.14,0,0,0-2.51,0,11.61,11.61,0,0,0-1.44.1c-.34.05-.68,0-1,.08s-.93.09-1.39.16c-.65.09-1.29.2-1.93.31-.41.07-.81.13-1.21.21-.72.15-1.44.29-2.15.46a5.37,5.37,0,0,0-1.08.33c.63.12,1.26.2,1.89.35a6.4,6.4,0,0,1,1.83.59c-.68,0-1.3,0-1.91,0a13.56,13.56,0,0,0-1.9.26,24.46,24.46,0,0,0-3.77,1.14,12.48,12.48,0,0,1-1.24-.68.7.7,0,0,1,.26-.22c.65-.39,1.31-.77,2-1.13s1.13-.59,1.72-.86A36,36,0,0,1,57,20.58a29.83,29.83,0,0,1,3.76-.77c.53-.08,1.07-.12,1.61-.17,1.07-.09,2.13-.05,3.2,0a17.56,17.56,0,0,1,1.78.16c.59.08,1.17.2,1.76.29l.29.08A11.79,11.79,0,0,1,71,20.6c-.13.16-.3-.1-.46,0a3,3,0,0,0,.64.21.17.17,0,0,0,.17.07h0a.14.14,0,0,0,0,.12,2.81,2.81,0,0,1,.65,1.79,8.27,8.27,0,0,1-.16,2.05,26.25,26.25,0,0,1-1.46,4.92C69.77,31.55,69,33.25,68.33,35c-.19.52-.43,1-.57,1.57a6.52,6.52,0,0,1-1.09-.17,23.22,23.22,0,0,0,1.42-6.65c-.14.42-.25.82-.38,1.21A42.57,42.57,0,0,1,66,35.24a5.06,5.06,0,0,0-.44,1,2,2,0,0,1-.55,0Z" fill="#ff6a69"/>
            <path d="M44.48,94.48c-.75-.68-1.47-1.38-2.18-2.09-.54-.54-1-1.1-1.54-1.66-.94-1-1.82-2.15-2.67-3.27S36.46,85.2,35.69,84c-.59-.88-1.16-1.79-1.71-2.69-.41-.67-.82-1.35-1.21-2-.65-1.16-1.29-2.33-1.93-3.5-1.08-2-2.1-4.07-3.17-6.09l-1.17-2.2a.75.75,0,0,1-.14-.33.22.22,0,0,1,.2.1c.6.57,1.23,1.1,1.84,1.65.39.35.79.67,1.2,1,.76.62,1.55,1.21,2.36,1.76a1.4,1.4,0,0,0,.56.31c.12.46.24.92.37,1.38.27,1,.6,1.94,1,2.89a.75.75,0,0,1,.12.41c-.11,0-.13-.12-.18-.19-1.35-2-2.75-3.93-4.25-5.81a7.78,7.78,0,0,0-.9-1.09.07.07,0,0,0-.07-.06s0-.09-.05-.07,0,0,.05.07a.08.08,0,0,0,.07.07.33.33,0,0,0,0,.19c.23.39.45.78.67,1.17.91,1.54,1.79,3.11,2.66,4.68.45.8.9,1.6,1.34,2.4a5.75,5.75,0,0,1,.42.77,1,1,0,0,0,0,.39,9.88,9.88,0,0,0,.44,1.4A4.13,4.13,0,0,0,35.4,82.4a1.81,1.81,0,0,0,1.05.45c1.08,1.48,2.17,3,3.35,4.41.07-.15,0-.23-.06-.32-.4-.87-.84-1.73-1.28-2.58a.73.73,0,0,1-.14-.37c.17.05.22.21.32.33a30.41,30.41,0,0,0,2.41,2.54.68.68,0,0,1,.18.2.12.12,0,0,0,.08.13h0a5.66,5.66,0,0,0,.57,1c.93,1.53,1.91,3,3,4.48a5.18,5.18,0,0,0,1.48,1.47,1.79,1.79,0,0,0,2,.06,3.82,3.82,0,0,0,1.41-1.55.39.39,0,0,1,.2.08,14.79,14.79,0,0,1-.92,2,.36.36,0,0,0-.05.22h0l-.07.07h0c-.06,0-.07.07-.07.13a2,2,0,0,1-1.19.83,2.05,2.05,0,0,1-1.13-.18,6.67,6.67,0,0,1-1.71-1.1Z" fill="#fed48e"/>
            <path d="M32.5,59.58c-.1.56-.2,1.11-.29,1.67C32.09,62,32,62.7,32,63.43a32.16,32.16,0,0,0-.06,3.8,26.57,26.57,0,0,0,.25,2.66.35.35,0,0,1-.16-.18c-.26-.45-.54-.9-.8-1.36-.63-1.09-1.31-2.16-2-3.22a50,50,0,0,0-3.32-4.49A44.07,44.07,0,0,0,22.54,57c-.08-.07-.19-.13-.19-.26a23.11,23.11,0,0,0,3.43,0c.66-.08,1.33-.12,2-.24l1.29-.23a1.84,1.84,0,0,1,.47-.06,4.12,4.12,0,0,0,.68.83c.44.53.89,1.05,1.36,1.55C31.88,58.87,32.15,59.26,32.5,59.58Z" fill="#ff7b69"/>
            <path d="M22.35,56.72c0,.13.11.19.19.26a44.07,44.07,0,0,1,3.31,3.66,50,50,0,0,1,3.32,4.49c.7,1.06,1.38,2.13,2,3.22.26.46.54.91.8,1.36a.4.4,0,0,0,.16.18c.12.7.25,1.41.38,2.12A1.53,1.53,0,0,1,32,71.7c-.81-.56-1.6-1.15-2.36-1.76q-.62-.48-1.2-1c-.61-.55-1.25-1.08-1.84-1.65a.23.23,0,0,0-.2-.1h0a.14.14,0,0,0-.08-.14c-.1-.1-.14-.25-.27-.34a.13.13,0,0,0-.07-.13h0a1.64,1.64,0,0,0-.23-.48c-.18-.34-.39-.66-.57-1C24.56,64.05,23.93,63,23.29,62c-1.08-1.77-2.2-3.52-3.4-5.22a.53.53,0,0,1-.17-.32,14.71,14.71,0,0,1,1.47.17A5.73,5.73,0,0,1,22.35,56.72Z" fill="#ffc77f"/>
            <path d="M81.34,42.4c.23-.59.46-1.18.68-1.78.46-1.24.9-2.49,1.26-3.77.24-.84.46-1.69.64-2.55.13-.66.24-1.31.34-2a12.94,12.94,0,0,0,.19-2.85,3.6,3.6,0,0,0-1.12-2.58A3.91,3.91,0,0,0,81.25,26a9,9,0,0,0-2.48,0,.75.75,0,0,1-.36,0,9.67,9.67,0,0,1,1.36-.28,12,12,0,0,1,2.46-.22,1.51,1.51,0,0,1,.48.05.2.2,0,0,0,.22,0,3,3,0,0,1,1.6,1.14,6.71,6.71,0,0,1,1,2.32c.09.32.15.65.22,1a1.91,1.91,0,0,0,.19.57.19.19,0,0,0-.06.21c.07.34.09.69.15,1a20.2,20.2,0,0,1,.18,2.19,12.43,12.43,0,0,1,0,1.83c0,.66-.07,1.31-.15,2s-.17,1.41-.31,2.11a36.65,36.65,0,0,1-1.18,4.61,2,2,0,0,0-.18.71c-.4-.36-.81-.73-1.18-1.13,0,0,0-.06,0-.1.45-1.65.79-3.32,1.08-5a1.46,1.46,0,0,0,0-.76c-.3.68-.59,1.32-.86,2l-1.28,3.06A4.43,4.43,0,0,1,81.34,42.4Z" fill="#ffc77f"/>
            <path d="M71,20.6a13.34,13.34,0,0,0-1.64-.47l-.29-.08a2.28,2.28,0,0,0,.61-1.71,3.25,3.25,0,0,0-.51-1.41,10.81,10.81,0,0,0-2.11-2.27,17.59,17.59,0,0,0-2.65-1.79,26.73,26.73,0,0,0-2.75-1.32C60.37,11,59,10.49,57.68,10,56.52,9.5,55.37,9,54.26,8.47a16.21,16.21,0,0,1-2.75-1.71c-.26-.21-.5-.46-.77-.67-.42-.33-.22-.78.1-1a5.68,5.68,0,0,1,1.27-.66,1.67,1.67,0,0,1,.72-.21c-.19.12-.39.23-.57.36a1,1,0,0,0-.45.68.87.87,0,0,0,.39.81,6,6,0,0,0,1.54.88,22,22,0,0,0,2.4.84c.82.25,1.61.6,2.4.93s1.68.72,2.5,1.12,1.86.92,2.75,1.46A35.67,35.67,0,0,1,67,13.44a17.12,17.12,0,0,1,4,4.08,7.69,7.69,0,0,1,1.24,2.88,4.1,4.1,0,0,1,0,1l-.3-.26A2.11,2.11,0,0,0,71,20.6Z" fill="#fed48e"/>
            <path d="M67.76,36.56A14.72,14.72,0,0,1,68.33,35c.66-1.74,1.44-3.44,2.12-5.18a26.48,26.48,0,0,0,1.46-4.92,7.82,7.82,0,0,0,.15-2.05,2.75,2.75,0,0,0-.64-1.79.14.14,0,0,1,0-.12c.32.07.5.32.73.51s.15.23.31.22h0c0,.21.14.34.28.47h0a.06.06,0,0,0,.07.07h0c0,.06,0,.11.07.13h0a.19.19,0,0,0,.07.21h0a.14.14,0,0,0,.08.14,4.26,4.26,0,0,1,.34,1.49,6.57,6.57,0,0,1-.13,1.59c0,.17,0,.36-.08.52a1,1,0,0,0-.15.4,15.72,15.72,0,0,1-1.25,3,.27.27,0,0,0,.06.38,6.7,6.7,0,0,1,1.51,2.45A8.62,8.62,0,0,1,73.74,35a14,14,0,0,1-.21,2.89,1.34,1.34,0,0,0,0,.2l-1.08-.36c-.15,0-.18-.14-.14-.28a9.6,9.6,0,0,0,.3-1.67,7.39,7.39,0,0,0,0-1.49,5,5,0,0,0-.37-1.58A2.31,2.31,0,0,0,71,31.46c-.07.1,0,.19,0,.28a6.27,6.27,0,0,1-.18,2.95,21.39,21.39,0,0,1-.74,2.08c-.08.22-.13.25-.36.2Z" fill="#fff580"/>
            <path d="M27.81,77.71a2.56,2.56,0,0,1,.58.65,17.21,17.21,0,0,1,2.25,3.74,8.12,8.12,0,0,1,.45,1.34,1.67,1.67,0,0,1,0,.59c0,.21-.13.29-.35.29a.79.79,0,0,1-.33-.1,4.61,4.61,0,0,1-1-.7,14.57,14.57,0,0,1-1.23-1.13,1.34,1.34,0,0,0-.38-.28c-.21-.09-.36,0-.42.18a1.36,1.36,0,0,0,0,.29c0,.48,0,1,0,1.44,0,.11,0,.23,0,.34,0,.36-.22.47-.55.29a4,4,0,0,1-.87-.76c-.5-.54-.92-1.14-1.41-1.69a18.34,18.34,0,0,0-1.95-1.89c-.3-.27-.63-.52-.95-.77-.08-.06-.17-.13-.16-.24a1.34,1.34,0,0,1,.15-.48.5.5,0,0,1,.73-.27,2.14,2.14,0,0,1,.3.17,4.21,4.21,0,0,1,.77.75l1.11,1.24a3.65,3.65,0,0,0,.79.73.32.32,0,0,0,.52-.18,1.32,1.32,0,0,0,.06-.39,11.12,11.12,0,0,0-.37-2.63A4,4,0,0,1,25.39,77c0-.25.11-.33.36-.34a1.08,1.08,0,0,1,.5.12,6.12,6.12,0,0,1,.83.47A4.49,4.49,0,0,0,27.81,77.71Z" fill="#ffa3a3"/>
            <path d="M10.47,52.8c-.07.13.14.3,0,.39s-.24-.1-.37-.14a7.94,7.94,0,0,0-1.78-.6,3.07,3.07,0,0,0-1.13,0A1.41,1.41,0,0,0,6,53.9a11,11,0,0,0,.43,3.82,24.37,24.37,0,0,0,1.47,4c.5,1.06,1,2.12,1.57,3.15q1.13,2.06,2.17,4.14a23.37,23.37,0,0,1,1.85,4.83,1.26,1.26,0,0,1,.05.33c0,.23-.08.27-.3.18a1.15,1.15,0,0,1-.25-.12,9.1,9.1,0,0,1-1.2-1c-.06-.06-.14-.11-.13-.22a2.49,2.49,0,0,1,.45.18c.27.08.4,0,.38-.28a3.24,3.24,0,0,0-.34-1.08,38.09,38.09,0,0,0-2-3.74c-.54-1-1-1.94-1.53-2.92a45,45,0,0,1-3-6.93A17.16,17.16,0,0,1,5,55.33a8.94,8.94,0,0,1,0-3.22,4.62,4.62,0,0,1,1.11-2.19l0,0c.33-.34.37-.34.7,0a23,23,0,0,0,3.35,2.72C10.32,52.66,10.43,52.69,10.47,52.8Z" fill="#fff580"/>
            <path d="M59.76,36.23a6.3,6.3,0,0,0-1.36-2.61,11.83,11.83,0,0,0-1.55-1.45,25,25,0,0,0-2.56-1.79c-.51-.32-1-.61-1.57-.9s-1.35-.67-2-1a17.67,17.67,0,0,0-1.76-.66,18,18,0,0,0-1.78-.48.69.69,0,0,0-.2,0l-.66-1.95a.68.68,0,0,0,.41-.27,13.9,13.9,0,0,1,2.73,1.13.37.37,0,0,0,.22.06c.89.5,1.78,1,2.64,1.56,1.08.72,2.15,1.46,3.19,2.25.73.55,1.46,1.11,2.15,1.71l1.55,1.36c.43.37.83.77,1.25,1.16.18.16.25.15.34-.07l.87-2a3.8,3.8,0,0,1,.49-.88c.06-.07.12-.18.25-.13a.28.28,0,0,1,.16.24,5.51,5.51,0,0,1,0,1.72.9.9,0,0,0,0,.23c0,.48-.08.95-.12,1.42a7.32,7.32,0,0,0-.09.93.71.71,0,0,1-.07.32,1.47,1.47,0,0,1-.47,0C61.11,36.15,60.44,36.21,59.76,36.23Z" fill="#ff6a69"/>
            <path d="M84.38,45.06a2,2,0,0,1,.18-.71,36.65,36.65,0,0,0,1.18-4.61c.14-.7.23-1.4.31-2.11s.1-1.31.15-2a12.43,12.43,0,0,0,0-1.83,20.2,20.2,0,0,0-.18-2.19c-.06-.33-.08-.68-.15-1a.19.19,0,0,1,.06-.21,12,12,0,0,1,1.67,4.73,17.51,17.51,0,0,1,0,4.85A40.69,40.69,0,0,1,86,46.43a1.34,1.34,0,0,1-.07.18s0,0-.06.06Z" fill="#ff6a69"/>
            <path d="M49.67,92.66a3.58,3.58,0,0,1-1.41,1.55,1.76,1.76,0,0,1-1.94-.06,5.06,5.06,0,0,1-1.48-1.47c-1.06-1.44-2-3-3-4.48a5.11,5.11,0,0,1-.57-1c.11,0,.16.07.23.14a30.75,30.75,0,0,0,4.62,3.46,31.94,31.94,0,0,0,3.16,1.69A1.37,1.37,0,0,1,49.67,92.66Z" fill="#ffa3a3"/>
            <path d="M57.19,3.61a3.16,3.16,0,0,0-.68.05c-.15,0-.2,0-.21-.18a1,1,0,0,1,1.06-1.14A6.43,6.43,0,0,1,59,2.5c.45.09.91.16,1.36.23a2.26,2.26,0,0,0,.45,0c.39,0,.5-.19.31-.52A6.51,6.51,0,0,0,60,.84L59.27.08h.15c.06.1.16.12.25.16a17.46,17.46,0,0,1,3.42,2.06,5.82,5.82,0,0,1,1.49,1.64,2.45,2.45,0,0,1,.29.78c.07.36-.12.57-.51.58a2.44,2.44,0,0,1-.84-.15c-.81-.25-1.58-.6-2.36-.92a7.84,7.84,0,0,0-2.91-.6l-.24,0A1.63,1.63,0,0,0,57.19,3.61Z" fill="#ffa3a3"/>
            <path d="M38.32,84a.66.66,0,0,0,.13.37c.45.86.88,1.72,1.29,2.59,0,.08.13.16.06.31-1.18-1.44-2.27-2.92-3.35-4.41a.41.41,0,0,0-.05-.09c-.73-1-1.46-2.1-2.13-3.18a3.84,3.84,0,0,0-.5-.76,7,7,0,0,0-.42-.76c-.44-.81-.9-1.61-1.34-2.41-.88-1.57-1.75-3.13-2.66-4.68-.23-.39-.45-.78-.67-1.17a.25.25,0,0,1,0-.19h0a7.7,7.7,0,0,1,.9,1.08c1.49,1.89,2.9,3.83,4.25,5.82,0,.07.07.17.17.19h0a.14.14,0,0,0,.07.14c.66,1.33,1.28,2.68,2.07,4a30.14,30.14,0,0,0,1.78,2.57,4.92,4.92,0,0,1,.37.56s0,.06.07.07Z" fill="#9f9850"/>
            <path d="M19.72,56.42c0,.14.1.23.17.32,1.2,1.7,2.32,3.45,3.4,5.22.64,1,1.27,2.09,1.86,3.16.18.33.39.66.57,1a1.77,1.77,0,0,1,.23.48.7.7,0,0,1-.44-.34c-.11-.13-.23-.26-.35-.38-.64-.64-1.23-1.34-1.83-2s-1.11-1.33-1.64-2c-.92-1.19-1.77-2.42-2.57-3.69-.37-.59-.73-1.19-1.08-1.78a.54.54,0,0,1-.12-.34Z" fill="#ff7b69"/>
            <path d="M6.81,67.87c.37.41.69.85,1.08,1.25.12.11.07.2-.09.22a.71.71,0,0,1-.4-.07,2.87,2.87,0,0,1-.61-.42A14.62,14.62,0,0,1,5.15,67c-.54-.68-1.07-1.37-1.65-2a1.34,1.34,0,0,0-.34-.28c-.15-.09-.22,0-.24.12a2.07,2.07,0,0,0,.09.66c.08.3.19.6.28.89a1.76,1.76,0,0,1,.12.39H3.32a.08.08,0,0,0-.07-.07h0a.09.09,0,0,0-.06-.07h0a.12.12,0,0,0-.08-.13h0a.12.12,0,0,0-.07-.07h0c0-.06,0-.11-.07-.13H3a.19.19,0,0,0-.14-.2h0a1.58,1.58,0,0,0-.33-.61A19.24,19.24,0,0,1,1,62.55a3.35,3.35,0,0,1-.34-1.49.48.48,0,0,1,.27-.46.49.49,0,0,1,.54.12,5.7,5.7,0,0,1,.65.65A24,24,0,0,1,3.84,64a28.16,28.16,0,0,0,2.37,3.28c.06.07.12.14.23.13h0a.11.11,0,0,0,.07.14h0a.12.12,0,0,0,.14.14h0a.12.12,0,0,0,.07.14h0A.12.12,0,0,0,6.81,67.87Z" fill="#ffa3a3"/>
            <path d="M39.5,16.07a8,8,0,0,1-.87-.66c-.58-.43-1.18-.84-1.79-1.23l-.15-.09c-.12-.09-.1-.16,0-.23a6,6,0,0,1,1.12-.42c.4-.1.81-.16,1.21-.25a12.1,12.1,0,0,0,3.24-1.28c.18-.09.34-.19.51-.29s.2-.11.31,0a.08.08,0,0,0,.07.08h0a.82.82,0,0,0,.08.35,1.54,1.54,0,0,1,.11.55,1.28,1.28,0,0,1-.83,1.1,13.88,13.88,0,0,1-1.91.54,4.33,4.33,0,0,0-1.16.41.61.61,0,0,0-.26.91C39.28,15.74,39.48,15.85,39.5,16.07Z" fill="#ffa3a3"/>
            <path d="M93,63.18c-.08-.71-.15-1.42-.28-2.12a.26.26,0,0,1,.1-.29,8.3,8.3,0,0,1,2.36-1.36,1.81,1.81,0,0,1,.51-.12c.23,0,.3.05.32.29a1.88,1.88,0,0,1-.11.62,14.13,14.13,0,0,1-1,2.39c-.52,1.08-1.07,2.14-1.66,3.19,0,0-.07.1-.1.16l-.05,0L93,63.66a1.88,1.88,0,0,1,1.1-.24.5.5,0,0,0-.53-.38A1.87,1.87,0,0,0,93,63.18Z" fill="#ff6a69"/>
            <path d="M39.5,16.07c0-.22-.22-.33-.3-.52a.6.6,0,0,1,.26-.9,4.21,4.21,0,0,1,1.16-.41,13.88,13.88,0,0,0,1.91-.54,1.25,1.25,0,0,0,.82-1.1,1.34,1.34,0,0,0-.1-.55.82.82,0,0,1-.09-.35,1.74,1.74,0,0,1,.63.77A1.11,1.11,0,0,1,43.4,14a3.63,3.63,0,0,1-1,.51c-.47.16-.95.26-1.43.38a1.65,1.65,0,0,0-.53.22.38.38,0,0,0-.15.57,2,2,0,0,0,.58.61,19.38,19.38,0,0,0,2.25,1.42,2,2,0,0,1,.53.43.65.65,0,0,1,.11.8,1.81,1.81,0,0,1-.71.66c-.11.06-.18,0-.24-.07a7.16,7.16,0,0,1-.48-.61.27.27,0,0,0,.14-.22.66.66,0,0,0-.21-.63,3.07,3.07,0,0,0-.67-.46,6.88,6.88,0,0,0-1-.57h0a.11.11,0,0,0-.13-.07h0a.08.08,0,0,0-.08-.07C40.1,16.58,39.76,16.36,39.5,16.07Z" fill="#fff580"/>
            <path d="M90.32,53.36l-.95-1.78a1.66,1.66,0,0,0,1-.25l1.17-.57a1.14,1.14,0,0,1,.26-.09.49.49,0,0,1,.67.37,2.65,2.65,0,0,1,0,1.25c-.09.54-.3,1-.44,1.57a10.64,10.64,0,0,0-.36,2.64c-.12,0-.11-.14-.14-.21-.26-.71-.53-1.4-.83-2.09,0-.08,0-.16-.08-.25C90.59,53.71,90.61,53.47,90.32,53.36Z" fill="#ffa3a3"/>
            <path d="M27.81,77.71a5.23,5.23,0,0,1-.73-.5,5.21,5.21,0,0,0-.83-.47,1.08,1.08,0,0,0-.5-.12c-.25,0-.35.09-.36.34a4,4,0,0,0,.18,1.28,11.12,11.12,0,0,1,.37,2.63,1.32,1.32,0,0,1-.06.39.31.31,0,0,1-.51.18,3.48,3.48,0,0,1-.8-.73l-1.1-1.24a4.62,4.62,0,0,0-.78-.75,2.14,2.14,0,0,0-.3-.17.52.52,0,0,0-.73.27,1.34,1.34,0,0,0-.15.48,2.4,2.4,0,0,1,0-1.16c.06-.36.37-.48.74-.33a3.25,3.25,0,0,1,.9.61,8.69,8.69,0,0,1,1,1.08c.2.22.4.43.62.63a.45.45,0,0,0,.14.1c.21.12.3.09.37-.15a1.92,1.92,0,0,0-.06-.92c-.14-1-.4-1.91-.62-2.87a2.34,2.34,0,0,1,0-.59.4.4,0,0,1,.56-.36,3.38,3.38,0,0,1,1.16.72,12.58,12.58,0,0,1,1.45,1.47A.21.21,0,0,1,27.81,77.71Z" fill="#fff580"/>
            <path d="M57.19,3.61a1.63,1.63,0,0,1,.82,0,1,1,0,0,0,.24,0,7.86,7.86,0,0,1,2.91.61,25,25,0,0,0,2.36.91,2.45,2.45,0,0,0,.84.16c.39,0,.58-.22.51-.58a2.45,2.45,0,0,0-.29-.78,5.82,5.82,0,0,0-1.49-1.64A16.9,16.9,0,0,0,59.67.22a.51.51,0,0,1-.25-.16,4,4,0,0,1,1.21.37,10,10,0,0,1,3.79,2.49,8.82,8.82,0,0,1,1.47,2.25,1.16,1.16,0,0,1,.11.48.44.44,0,0,1-.47.5A3.45,3.45,0,0,1,64.34,6,19.86,19.86,0,0,1,61.87,5a18.56,18.56,0,0,0-3.33-1.18,5.62,5.62,0,0,0-1.15-.18A.3.3,0,0,1,57.19,3.61Z" fill="#fff580"/>
            <path d="M6.44,67.4c-.11,0-.17-.06-.23-.13A27,27,0,0,1,3.85,64a25.59,25.59,0,0,0-1.77-2.62,5.7,5.7,0,0,0-.65-.65.49.49,0,0,0-.54-.12.49.49,0,0,0-.27.46A3.35,3.35,0,0,0,1,62.55a19.24,19.24,0,0,0,1.55,2.9,1.58,1.58,0,0,1,.33.61c-.12,0-.16-.07-.21-.15a20.33,20.33,0,0,1-2-3.13A6.25,6.25,0,0,1,0,60.85,2.84,2.84,0,0,1,.1,59.69c.1-.39.36-.49.73-.29a3.17,3.17,0,0,1,.85.78A20.42,20.42,0,0,1,3.3,62.46C4.18,63.88,5,65.33,6,66.7A2.92,2.92,0,0,1,6.44,67.4Z" fill="#fff580"/>
            <path d="M30.43,55.88c.9-.28,1.81-.56,2.69-.92l1-.42c-.13.36-.25.66-.37,1-.29.76-.54,1.54-.77,2.32l-.09.25C32,57.38,31.24,56.61,30.43,55.88Z" fill="#ff7b69"/>
            <path d="M65.56,36.25a5.06,5.06,0,0,1,.44-1A42.57,42.57,0,0,0,67.71,31c.13-.39.24-.79.38-1.21a23,23,0,0,1-1.43,6.65A5.1,5.1,0,0,1,65.56,36.25Z" fill="#fff580"/>
            <path d="M30.43,55.88c.81.73,1.58,1.5,2.45,2.17-.13.51-.25,1-.38,1.53-.35-.32-.62-.71-.94-1.06-.47-.5-.92-1-1.36-1.55a4.07,4.07,0,0,1-.67-.83A3,3,0,0,1,30.43,55.88Z" fill="#ffc77f"/>
            <path d="M82.21,43.08,83.49,40c.27-.64.56-1.28.86-2a1.46,1.46,0,0,1,0,.76c-.29,1.69-.63,3.36-1.08,5,0,0,0,.07,0,.1A6.64,6.64,0,0,1,82.21,43.08Z" fill="#9f9850"/>
            <path d="M15.37,55.27c-.47.44-.93.88-1.37,1.35s-.91.86-1.39,1.31a2.5,2.5,0,0,1,.09-1.3,5.08,5.08,0,0,1,.92-1.77,2.71,2.71,0,0,0,.17-.25A13.82,13.82,0,0,1,15.37,55.27Z" fill="#fff580"/>
            <path d="M89.14,51.17l-.63-1c-.33-.51-.66-1-1-1.49a.25.25,0,0,1,0-.38,3.59,3.59,0,0,1,.66-.63.53.53,0,0,1,.88.24,1.87,1.87,0,0,1,.18.74A13.48,13.48,0,0,1,89.14,51.17Z" fill="#ffa3a3"/>
            <path d="M49.64,26.33a.37.37,0,0,1-.22-.06,13.9,13.9,0,0,0-2.73-1.13,1.81,1.81,0,0,0-.61-.19,4.83,4.83,0,0,1-.37-.88c.55.24,1.07.52,1.59.8a12.48,12.48,0,0,0,1.24.68c.29.25.65.4,1,.62C49.56,26.21,49.65,26.23,49.64,26.33Z" fill="#fff580"/>
            <path d="M76.85,26.26a2,2,0,0,1-.62.22,3.53,3.53,0,0,0-.64-.58,17.4,17.4,0,0,1-1.39-1.46c-.1-.13-.16-.3-.34-.36h0l0-.15c.16,0,.24.13.34.21C75.06,24.89,76,25.56,76.85,26.26Z" fill="#ffa3a3"/>
            <path d="M73.86,24.08c.18.06.24.23.34.36a17.4,17.4,0,0,0,1.39,1.46,3.53,3.53,0,0,1,.64.58,1,1,0,0,1-.46.21,5.71,5.71,0,0,0-.72-.84A13.21,13.21,0,0,1,74,24.42.71.71,0,0,1,73.86,24.08Z" fill="#fed48e"/>
            <path d="M40.6,17a6.06,6.06,0,0,1,1,.57,3.07,3.07,0,0,1,.67.46.66.66,0,0,1,.21.63.27.27,0,0,1-.14.22c-.23-.25-.48-.49-.71-.75s-.59-.62-.89-.92C40.67,17.14,40.58,17.09,40.6,17Z" fill="#ffa3a3"/>
            <path d="M93,63.18a1.87,1.87,0,0,1,.62-.14.5.5,0,0,1,.53.38,1.88,1.88,0,0,0-1.1.24C93.05,63.5,93,63.34,93,63.18Z" fill="#fff580"/>
            <path d="M48.91,95a.33.33,0,0,1,.05-.22,13.23,13.23,0,0,0,.91-2c.22.05.15.19.1.31a9.29,9.29,0,0,1-.74,1.48C49.13,94.68,49.08,94.85,48.91,95Z" fill="#ffa3a3"/>
            <path d="M72.42,21.66c-.16,0-.22-.13-.31-.22s-.41-.44-.73-.51h0c0-.07-.11-.07-.18-.07a3.06,3.06,0,0,1-.63-.2c.16-.16.33.1.46-.06a2.22,2.22,0,0,1,.93.53l.3.27C72.31,21.49,72.42,21.55,72.42,21.66Z" fill="#ff7b69"/>
            <path d="M46.08,25a1.81,1.81,0,0,1,.61.19.68.68,0,0,1-.41.27A1.34,1.34,0,0,1,46.08,25Z" fill="#ff7b69"/>
            <path d="M90.32,53.36c.29.11.27.35.27.59A1.44,1.44,0,0,1,90.32,53.36Z" fill="#fff580"/>
            <path d="M72.7,22.13c-.14-.13-.29-.26-.28-.47A.58.58,0,0,1,72.7,22.13Z" fill="#ff7b69"/>
            <path d="M3.41,66.72l.09.13s0,.09,0,.1-.07,0-.09-.08v-.14Z" fill="#ffa3a3"/>
            <path d="M2.84,66.06a.19.19,0,0,1,.14.2C2.84,66.25,2.82,66.17,2.84,66.06Z" fill="#fff580"/>
            <path d="M6.65,67.66c-.1,0-.14,0-.14-.13A.13.13,0,0,1,6.65,67.66Z" fill="#fff580"/>
            <path d="M73.73,23.88s-.08-.1,0-.12.08,0,.09.1Z" fill="#ffa3a3"/>
            <path d="M72.91,22.53c-.08-.05-.08-.12-.07-.2A.19.19,0,0,1,72.91,22.53Z" fill="#ff7b69"/>
            <path d="M73.88,23.93l0,.15a.15.15,0,0,1-.07-.13h.09Z" fill="#fed48e"/>
            <path d="M59.27.08l-.09,0s.06,0,.09,0a.17.17,0,0,1,0,.07Z" fill="#ffa3a3"/>
            <path d="M3,66.26a.12.12,0,0,1,.07.13C3,66.37,3,66.32,3,66.26Z" fill="#fff580"/>
            <path d="M59.28.07s0,0,0-.07.12,0,.15.06Z" fill="#fff580"/>
            <path d="M41.3,87.19a.13.13,0,0,1-.07-.13A.11.11,0,0,1,41.3,87.19Z" fill="#ffa3a3"/>
            <path d="M3.11,66.46a.13.13,0,0,1,.08.14A.16.16,0,0,1,3.11,66.46Z" fill="#fff580"/>
            <path d="M34,76.83a.13.13,0,0,1-.07-.14C34,76.71,34,76.77,34,76.83Z" fill="#fed48e"/>
            <path d="M48.77,95.14a.13.13,0,0,1,.07-.13A.11.11,0,0,1,48.77,95.14Z" fill="#ffa3a3"/>
            <path d="M11.69,73c-.06,0-.11,0-.13-.07A.11.11,0,0,1,11.69,73Z" fill="#fff580"/>
            <path d="M6.51,67.53c-.07,0-.08-.07-.07-.13A.11.11,0,0,1,6.51,67.53Z" fill="#fff580"/>
            <path d="M73,22.67a.14.14,0,0,1-.08-.14C73,22.55,73,22.62,73,22.67Z" fill="#ff7b69"/>
            <path d="M6.72,67.8a.14.14,0,0,1-.08-.14A.13.13,0,0,1,6.72,67.8Z" fill="#fff580"/>
            <path d="M40.46,16.92c.07,0,.12,0,.14.07A.13.13,0,0,1,40.46,16.92Z" fill="#ffa3a3"/>
            <path d="M72.84,22.33c-.08,0-.08-.08-.07-.14A.13.13,0,0,1,72.84,22.33Z" fill="#ff7b69"/>
            <path d="M3.39,66.73v.13a.13.13,0,0,1-.08-.13Z" fill="#fed48e"/>
            <path d="M6.81,67.87a.12.12,0,0,1-.09-.08Z" fill="#fff580"/>
            <path d="M40.39,16.85a.09.09,0,0,1,.08.07Z" fill="#ffa3a3"/>
            <path d="M11.49,72.88l-.08-.07A.08.08,0,0,1,11.49,72.88Z" fill="#fff580"/>
            <path d="M11.56,73a.08.08,0,0,1-.07-.07A.07.07,0,0,1,11.56,73Z" fill="#fff580"/>
            <path d="M73.73,23.88l.08,0h0a.2.2,0,0,1,0,.07h0Z" fill="#fed48e"/>
            <path d="M43.17,11.7a.08.08,0,0,1-.07-.08Z" fill="#fff580"/>
            <path d="M3.26,66.66a.12.12,0,0,1,.07.07A.07.07,0,0,1,3.26,66.66Z" fill="#fed48e"/>
            <path d="M3.19,66.59a.12.12,0,0,1,.07.07S3.19,66.63,3.19,66.59Z" fill="#fff580"/>
            <path d="M38.32,84a.07.07,0,0,1-.07-.07.07.07,0,0,1,.07.07Z" fill="#fed48e"/>
            <path d="M3.05,66.39a.12.12,0,0,1,.07.07A.07.07,0,0,1,3.05,66.39Z" fill="#fff580"/>
            <path d="M73.8,23.94s0-.05,0-.07a.06.06,0,0,1,.07.05H73.8Z" fill="#ffa3a3"/>
            <path d="M48.84,95a.46.46,0,0,0,.07-.07A.08.08,0,0,1,48.84,95Z" fill="#ffa3a3"/>
            <path d="M72.77,22.2a.06.06,0,0,1-.07-.07C72.76,22.12,72.77,22.16,72.77,22.2Z" fill="#ff7b69"/>
            <path d="M57.66,64.15s0,0,0,0a.54.54,0,0,0,.52.44.05.05,0,0,1,0,0c0,.09,0,.15.07.2a10.12,10.12,0,0,1,.75.71c.05.07.14.06.22,0h0c0,.25,0,.28.28.27h0c0,.23,0,.25.21.27l.13.13c0,.33.06.38.34.4h0c-.07.3.17.49.32.69a5.62,5.62,0,0,1,.78,1.2c.1.21.22.41.33.61a3.47,3.47,0,0,1,.5,1.15.37.37,0,0,0,.39.3.37.37,0,0,0,.35-.34.73.73,0,0,1,.09-.35c.2-.3.28-.65.48-.94s.24-.48.39-.69a6,6,0,0,1,.79-1.08c.14,0,.12-.12.13-.21l.06-.06c.18,0,.22-.12.21-.27l.08-.06c.1,0,.22,0,.29,0a1.27,1.27,0,0,0,.46-.84,4.33,4.33,0,0,1,.7-.72c.31-.27.65-.52,1-.79.13-.11.23-.25.43-.24a.21.21,0,0,0,.19-.13.37.37,0,0,1,.16-.17c.38-.18.67-.5,1.08-.67s.68-.37,1.06-.48c.14-.05.2-.18.36-.22.4-.11.78-.26,1.16-.4a5.53,5.53,0,0,1,1.88-.47.82.82,0,0,0,.49-.13,1,1,0,0,1,.57-.12h1c.22,0,.43,0,.65,0A1.75,1.75,0,0,0,77.81,61,.32.32,0,0,1,78,61a7,7,0,0,0,1.21-.26,2.46,2.46,0,0,0,.62-.33,5.68,5.68,0,0,0,.83-.55l.7-.58a9.72,9.72,0,0,0,.66-.78,3.21,3.21,0,0,0,.4-.61,3.79,3.79,0,0,0,.4-.93,6.74,6.74,0,0,0,.34-1.32.22.22,0,0,1,.19-.2,1.6,1.6,0,0,1,.92,0,1.1,1.1,0,0,1,.15.59c0,.09,0,.14.13.16.06.18-.13.3-.14.47,0,.49-.36.9-.36,1.4a.3.3,0,0,1-.07.15c-.2.25-.3.55-.49.82-.32.43-.63.87-1,1.27a2.9,2.9,0,0,1-.75.69c-.37.22-.73.45-1.09.68a7.32,7.32,0,0,1-1.73.68c-.25.08-.53.11-.8.18a6.52,6.52,0,0,1-1.33.13,8.32,8.32,0,0,0-2.05.13,8.75,8.75,0,0,0-1.53.37.63.63,0,0,1-.27,0,.67.67,0,0,0-.24,0,4.85,4.85,0,0,1-.91.3c-.19,0-.4-.07-.56.06a.52.52,0,0,1-.37.14c-.19,0-.24.11-.23.26s-.1.26-.23.26a.8.8,0,0,0-.51.23c-.65.44-1.27.92-1.91,1.39a6.63,6.63,0,0,0-1.33,1.26,23.27,23.27,0,0,0-1.51,2.07c-.25.39-.38.85-.66,1.23a12.58,12.58,0,0,0-.64,2,.62.62,0,0,1-.1.22,1,1,0,0,0-.1.41,2.87,2.87,0,0,1-.16.92,1.55,1.55,0,0,0-.11.67c0,.12,0,.25-.07.35s-.13-.09-.21,0a1,1,0,0,1-1.08.27.48.48,0,0,0-.17,0,2.12,2.12,0,0,1-.07-.79.9.9,0,0,0-.05-.4,1.57,1.57,0,0,1-.16-.71,1.39,1.39,0,0,0-.13-.61,1.58,1.58,0,0,1-.21-.76.58.58,0,0,0-.11-.38.66.66,0,0,1-.11-.24,16.33,16.33,0,0,1-.67-1.68c-.19-.23-.19-.58-.51-.73,0,0,0-.05-.06-.08-.37-.6-.84-1.13-1.27-1.7a4.94,4.94,0,0,0-.69-.76c-.39-.34-.81-.65-1.21-1s-.56-.37-.81-.61-.55-.23-.68-.51c-.31,0-.5-.22-.75-.31-.08,0-.18,0-.23-.06-.26-.27-.72-.15-.95-.47a6.83,6.83,0,0,1-.87-.29c-.12-.2-.18-.22-.49-.19a2.22,2.22,0,0,1-.57-.07,3.65,3.65,0,0,1-.94-.19,2,2,0,0,0-.77-.14s0-.12-.09-.12-.4-.08-.61-.08a4.9,4.9,0,0,1-1.27-.06.74.74,0,0,0-.21,0c-.14,0-.17.08-.18.19-.35-.11-.73-.12-1.1-.2l-.09,0c-.33-.22-.79-.17-1.08-.48h0a5.78,5.78,0,0,1-1.47-.84s0-.06,0-.09a.68.68,0,0,0-.07-.32c-.06-.18-.24-.23-.37-.33a.19.19,0,0,0-.25,0,1,1,0,0,1-.37-.35,9.17,9.17,0,0,1-.79-1c-.13-.23-.16-.53-.39-.71a.15.15,0,0,1,0-.13,1.12,1.12,0,0,0-.14-.57c.19-.06.15-.22.11-.33s0-.39-.26-.41a1.1,1.1,0,0,1-.27-.73c0-.11,0-.22,0-.33a.31.31,0,0,0,.34-.27c.27,0,.52-.08.78-.07s.35.06.39.32,0,.41.06.61a1.2,1.2,0,0,0,0,.7c0,.13.11.18.25.17s.19.17.2.3a.6.6,0,0,0,.1.35c.33.44.67.88,1,1.33.12.17.36.24.42.46.19,0,.28.32.54.2l0,0c0,.11,0,.22.09.26s.45.3.71.38a.2.2,0,0,0,.2,0,.05.05,0,0,1,0,0,.13.13,0,0,0,.08.19,6.13,6.13,0,0,1,.68.24,7.57,7.57,0,0,1,1,.2,1.82,1.82,0,0,0,.76.13h.63a13.88,13.88,0,0,1,1.44.07.38.38,0,0,1,.25.09.36.36,0,0,0,.34.11,10.15,10.15,0,0,1,1.1.07.45.45,0,0,1,.28.12.22.22,0,0,0,.15.08,3.27,3.27,0,0,1,.92.23,8.81,8.81,0,0,1,1.1.46,4,4,0,0,1,.61.22c.38.26.85.37,1.21.67a.12.12,0,0,0,.15,0l.12,0a.14.14,0,0,0,.05.18c.2.14.4.29.61.42a.17.17,0,0,0,.19,0l0,0C57.39,64.13,57.43,64.16,57.66,64.15Z" fill="#f1b934"/>
            <path d="M78,59.16l-.15,0c-.06,0-.13,0-.2,0s-.18-.07-.24.05h-.1a1.45,1.45,0,0,0-.8,0s-.05,0-.07.07l-.31,0a.26.26,0,0,0-.38,0c-.21.06-.45,0-.65.1a.45.45,0,0,0-.23,0c-.1-.07-.22,0-.33,0a1.17,1.17,0,0,0-.79.18l-.25,0c-.08-.07-.13,0-.15.06l-.06,0c-.11-.07-.23,0-.34,0a.93.93,0,0,0-.78.25l-.13.05c-.06-.05-.12,0-.19,0s-.24,0-.31.13-.22,0-.24.15l-.08,0a.16.16,0,0,0-.13,0c-.11-.1-.2,0-.28,0-.35.18-.76.22-1.11.42s-.53.25-.78.38-.5.24-.74.4a5.15,5.15,0,0,1-.65.41,1.74,1.74,0,0,0-.45.23c-.36.31-.77.56-1.11.87-.15.14-.4.21-.44.45-.19,0-.21.25-.38.29S65,63.87,65,64h0a.29.29,0,0,0-.3.11c-.23.2-.41.45-.62.66a11.87,11.87,0,0,0-1.38,1.71c-.11.17-.25.17-.34,0s-.27-.3-.32-.5a.13.13,0,0,0-.2-.08v0c.05-.14,0-.23-.12-.32s-.35-.39-.52-.6a.71.71,0,0,0-.27-.18,1.7,1.7,0,0,0-.73-.77s0,0-.07,0h0c0-.25,0-.25-.31-.28h0c0-.24-.2-.36-.35-.47a9.43,9.43,0,0,0-.93-.74,2.8,2.8,0,0,1-.43-.27,11.46,11.46,0,0,0-1.1-.71c-.2-.14-.43-.24-.63-.37s-.58-.17-.77-.41a.21.21,0,0,0-.14,0,.6.6,0,0,1-.36-.16.47.47,0,0,0-.25-.11c-.38-.06-.69-.33-1.09-.35a.07.07,0,0,1-.06,0c-.16-.18-.39-.16-.6-.21s-.2,0-.27,0a1.75,1.75,0,0,0-1-.23.66.66,0,0,1-.34-.08,2.33,2.33,0,0,0-.83-.18c-.18,0-.37,0-.55,0A11.18,11.18,0,0,0,48,59.11a7.74,7.74,0,0,1-.83-.07A.53.53,0,0,1,47,59c-.28-.25-.65-.29-1-.5a4.91,4.91,0,0,1-1.05-.88,5.84,5.84,0,0,1-.7-1.27.32.32,0,0,1,0-.16c0-.58-.11-1.15-.09-1.73a14.22,14.22,0,0,0,0-2c0-.31,0-.39.38-.4h.66c.36,0,.36,0,.36.35v2.77a1,1,0,0,0,.2.76.41.41,0,0,1,.08.25.53.53,0,0,0,.15.33l.32.39a.91.91,0,0,0,.67.4c.15.26.15.26.38.19a.16.16,0,0,0,.13,0v0a.62.62,0,0,0,.52.31c.74,0,1.49,0,2.23.06a1.91,1.91,0,0,1,1,.18.29.29,0,0,0,.16,0c.28,0,.55.08.82.07a.49.49,0,0,1,.33.09,1.1,1.1,0,0,0,.61.17,1.49,1.49,0,0,1,.66.15c.07,0,.14.1.21,0l.11,0c0,.07.09.12.17,0l.18,0c.26.31.7.31,1,.54.37,0,.63.25.93.39s.62.24.91.41a5.71,5.71,0,0,0,.72.43,1.88,1.88,0,0,1,.62.4c.06.08.19.07.29,0h0a.21.21,0,0,0,.14.24,3,3,0,0,1,.68.48.27.27,0,0,0,.28.07l.08.08a.12.12,0,0,0,0,.15c.43.35.81.75,1.22,1.11a9,9,0,0,1,1,1,.44.44,0,0,0,.7,0,4.81,4.81,0,0,1,.75-.81,10.46,10.46,0,0,1,1.11-1,.25.25,0,0,0,.11-.24l0,0c.2,0,.27-.07.27-.25h0a.3.3,0,0,0,.26-.06,9.17,9.17,0,0,1,1.3-.91,2.52,2.52,0,0,1,.54-.33c.29-.11.48-.4.81-.41.15-.19.42-.17.59-.3s.58-.22.81-.42a.19.19,0,0,1,.13,0c.35,0,.6-.36,1-.3l0,0c.14-.2.37-.2.58-.22a.57.57,0,0,0,.29-.11.76.76,0,0,1,.58-.16.87.87,0,0,0,.53-.12,1,1,0,0,1,.59-.15,3,3,0,0,0,1.18-.22,1.1,1.1,0,0,1,.4,0c.8,0,1.59-.08,2.38-.06.08,0,.19,0,.24,0a1.41,1.41,0,0,1,.63-.23c.11,0,.19-.09.14-.22h0c.14,0,.27,0,.32-.16a4,4,0,0,0,.69-.79c.16,0,.12-.17.13-.28s0-.09,0-.13l0-.13s0,0,0,0h0c.26,0,.25-.21.25-.39,0-1,0-2,0-3,0-.1,0-.2,0-.3A.19.19,0,0,1,79.9,52a8.75,8.75,0,0,1,.89,0c.27,0,.31.09.34.36,0,.06,0,.11.06.15v1.13a.25.25,0,0,0,0,.34c0,.5,0,1,0,1.51a.51.51,0,0,0-.12.5c0,.06,0,.12,0,.18a.43.43,0,0,1,0,.11s0,.05-.07.08-.12.14-.08.25l-.19.36a1.16,1.16,0,0,0-.47.68s-.11,0-.13,0a2.74,2.74,0,0,1-.65.62s0,.09,0,.15h0a.31.31,0,0,0-.37.24l-.1.05a.27.27,0,0,0-.33.13l-.09.05c-.11,0-.16,0-.18.1S78.09,59,78,59.16Z" fill="#fff"/>
            <path d="M64.88,66.93l-.06.06a.2.2,0,0,0-.13.21,6,6,0,0,0-.79,1.08c-.15.21-.24.47-.39.69s-.28.64-.48.94a.73.73,0,0,0-.09.35.37.37,0,0,1-.35.34.37.37,0,0,1-.39-.3,3.69,3.69,0,0,0-.5-1.15c-.11-.2-.23-.4-.33-.61a5.62,5.62,0,0,0-.78-1.2c-.15-.2-.39-.39-.33-.69a.19.19,0,0,1,.14.09c.34.54.78,1,1.07,1.6.13.27.3.52.44.79s.27.58.41.87c0,.07,0,.13.07.19a.18.18,0,0,0,.22.11c.09,0,.16-.06.16-.14,0-.25.18-.44.24-.65s.32-.49.31-.8v0c.36-.45.55-1,.95-1.44,0,0,.11-.09.13-.15.14-.39.51-.59.73-.91a4.35,4.35,0,0,1,.69-.73,10.87,10.87,0,0,1,1.27-1.17l.11-.07a8.79,8.79,0,0,1,1.38-1,8.8,8.8,0,0,1,1.35-.79,11.89,11.89,0,0,1,1.47-.64c.38-.13.77-.22,1.14-.36s1-.23,1.56-.39a10.28,10.28,0,0,1,1.13-.12c.71-.14,1.44-.12,2.16-.19h.14a4.58,4.58,0,0,0,1.88-.47,4.73,4.73,0,0,0,.74-.39,5.05,5.05,0,0,0,1.33-1.14,8.38,8.38,0,0,0,.94-1.65,5.82,5.82,0,0,0,.33-1.68c0-.31.14-.43.45-.43h1.21c.29,0,.46.13.43.4A5.76,5.76,0,0,1,84.62,57a1.42,1.42,0,0,0-.05.22,1.36,1.36,0,0,1-.09.36,6.34,6.34,0,0,0-.4.83,1.36,1.36,0,0,0-.14.33.26.26,0,0,1-.07.15,5.63,5.63,0,0,0-.71.9,7.66,7.66,0,0,1-.9,1,5.74,5.74,0,0,1-1.28.89,2.3,2.3,0,0,0-.37.23c-.34.25-.79.26-1.12.51-.45,0-.86.24-1.3.3a10,10,0,0,1-1.1.06,9.6,9.6,0,0,0-1.85.19c-.3.06-.61,0-.92.08a2.83,2.83,0,0,0-.5.13.91.91,0,0,1-.33.1,3.16,3.16,0,0,0-1.1.31,4.24,4.24,0,0,0-1.13.45,2.68,2.68,0,0,1-.68.33,6.05,6.05,0,0,0-1.28.75c-.17.12-.35.21-.52.33A15.91,15.91,0,0,0,67,67.16q-.39.42-.75.87a11.41,11.41,0,0,0-1,1.54c-.31.54-.54,1.12-.8,1.69a5.66,5.66,0,0,0-.28.82,9.07,9.07,0,0,0-.44,2.58c0,.26-.07.51-.08.76a.34.34,0,0,1-.33.33,8.18,8.18,0,0,1-1.4,0,.38.38,0,0,1-.36-.41c-.05-.59-.09-1.18-.14-1.76a1.57,1.57,0,0,0-.05-.3c-.11-.38-.18-.78-.31-1.16a2.38,2.38,0,0,0-.42-1,.25.25,0,0,1,0-.09,5.84,5.84,0,0,0-.66-1.49A10.81,10.81,0,0,0,59,68.18a4.79,4.79,0,0,0-.58-.7,12.68,12.68,0,0,0-1.09-1.11c-.24-.19-.45-.44-.69-.64s-.8-.53-1.19-.8a10.6,10.6,0,0,0-1.56-.84c-.45-.22-.93-.35-1.37-.55s-.9-.16-1.31-.37a2.11,2.11,0,0,0-.75-.13,5.8,5.8,0,0,1-1.18-.18l-.24,0c-.71,0-1.41-.08-2.11-.07a.7.7,0,0,1-.52-.13l-.13-.05c-.35-.08-.69-.19-1-.3a6.07,6.07,0,0,1-.89-.42,8.65,8.65,0,0,1-2.24-1.74c-.24-.26-.39-.57-.61-.84a1.9,1.9,0,0,1-.28-.37,5.94,5.94,0,0,1-.35-.82.92.92,0,0,0-.09-.28,5.25,5.25,0,0,1-.22-.63,10.28,10.28,0,0,1-.27-1.43.92.92,0,0,1,0-.49.33.33,0,0,1,.35-.22h1.21a.36.36,0,0,1,.39.35c0,.25.08.5.09.76a4,4,0,0,0,.41,1.26,7.35,7.35,0,0,0,.74,1.31,6.17,6.17,0,0,0,.89.88s.12.07.14.14c-.25.12-.34-.17-.54-.19-.06-.23-.3-.3-.42-.47-.32-.45-.66-.89-1-1.33a.68.68,0,0,1-.1-.35c0-.13,0-.27-.2-.3a2,2,0,0,0-.22-.87c0-.2,0-.41-.06-.61s-.11-.31-.39-.32-.51.09-.78.07-.32,0-.34.27c0,.11,0,.22,0,.33a1.1,1.1,0,0,0,.27.73c0,.14,0,.29,0,.43a.34.34,0,0,0,.15.31,1.12,1.12,0,0,1,.14.57.19.19,0,0,0,0,.13c.24.18.27.48.4.71a8.06,8.06,0,0,0,.78,1,1,1,0,0,0,.37.35,2.25,2.25,0,0,0,.69.61s0,.08,0,.09a5.78,5.78,0,0,0,1.47.84h0c.29.31.75.26,1.08.48l.09,0c.37.08.75.09,1.1.2.09.1.22.06.33.07h2a2.06,2.06,0,0,1,.77.14,3.65,3.65,0,0,0,.94.19,2.22,2.22,0,0,0,.57.07c.09.24.3.19.49.19a6.83,6.83,0,0,0,.87.29c.23.32.69.2.95.47.06,0,.15,0,.23.06.25.09.44.34.75.31.13.28.47.32.68.51s.55.39.81.61.82.63,1.21,1a4.94,4.94,0,0,1,.69.76c.43.57.9,1.1,1.27,1.7,0,0,0,.07.06.08.32.15.32.5.51.73A16.33,16.33,0,0,0,61,71.34a.66.66,0,0,0,.11.24.58.58,0,0,1,.11.38,1.58,1.58,0,0,0,.21.76,1.39,1.39,0,0,1,.13.61,1.57,1.57,0,0,0,.16.71.9.9,0,0,1,.05.4,2.12,2.12,0,0,0,.07.79c0,.29,0,.28.3.26a1.78,1.78,0,0,1,.61,0,1.14,1.14,0,0,0,.41,0c.14,0,.22-.09.18-.22a1.11,1.11,0,0,1,0-.36c.11-.1.06-.23.07-.35a1.55,1.55,0,0,1,.11-.67,2.87,2.87,0,0,0,.16-.92,1,1,0,0,1,.1-.41.62.62,0,0,0,.1-.22,12.25,12.25,0,0,1,.64-2c.28-.38.41-.84.66-1.23a23.27,23.27,0,0,1,1.51-2.07A6.63,6.63,0,0,1,68,65.86c.64-.47,1.26-1,1.92-1.39a.76.76,0,0,1,.5-.23c.13,0,.21-.12.23-.26a.8.8,0,0,0,.63-.17.48.48,0,0,1,.31-.1c.13,0,.22-.05.22-.19a5.7,5.7,0,0,0,.91-.3.67.67,0,0,1,.24,0,.63.63,0,0,0,.27,0,8.75,8.75,0,0,1,1.53-.37,8.32,8.32,0,0,1,2.05-.13,6.52,6.52,0,0,0,1.33-.13c.27-.07.55-.1.8-.18a7,7,0,0,0,1.73-.69c.36-.22.72-.45,1.1-.67a3,3,0,0,0,.74-.69c.35-.4.66-.84,1-1.27.19-.27.29-.57.49-.82A.3.3,0,0,0,84,58c0-.5.33-.92.36-1.4,0-.17.2-.29.15-.47a1.05,1.05,0,0,0,0-.58c0-.22-.07-.25-.34-.17a1.6,1.6,0,0,0-.92,0,.22.22,0,0,0-.19.2,6.74,6.74,0,0,1-.34,1.32,3.79,3.79,0,0,1-.4.93,3.21,3.21,0,0,1-.4.61c-.23.25-.4.54-.66.78l-.7.58a5.68,5.68,0,0,1-.83.55,2.3,2.3,0,0,1-.62.33A7,7,0,0,1,78,61a.27.27,0,0,0-.16,0,1.91,1.91,0,0,1-1.24.15c-.22,0-.43,0-.64,0H75a1.08,1.08,0,0,0-.56.13,1,1,0,0,1-.5.13A5.42,5.42,0,0,0,72,61.9c-.39.14-.77.29-1.16.39-.16.05-.23.18-.37.23-.38.11-.7.34-1.06.48s-.69.49-1.08.67a.37.37,0,0,0-.16.17A.21.21,0,0,1,68,64c-.2,0-.3.13-.43.24-.32.27-.66.52-1,.79a4.77,4.77,0,0,0-.7.72,5.61,5.61,0,0,0-.62.58.4.4,0,0,0-.13.3l-.07.06C64.91,66.67,64.88,66.79,64.88,66.93Z" fill="#9f9850"/>
            <path d="M77.91,68.1v1.31a.87.87,0,0,1-.06.32,3.57,3.57,0,0,0-.16.79,6.2,6.2,0,0,1-.23,1.2c-.14.42-.27.85-.4,1.27A6.76,6.76,0,0,1,76.64,74a9.12,9.12,0,0,0-.41.83,2.59,2.59,0,0,1-.34.61,17.4,17.4,0,0,1-1.47,2c-.26.31-.56.58-.84.87A16,16,0,0,1,71,80.55c-.09.06-.21.08-.31.14-.35.19-.66.43-1,.59a9.06,9.06,0,0,0-.89.42c-.38.2-.81.26-1.18.47a.7.7,0,0,1-.29.08,1.74,1.74,0,0,0-.56.17.76.76,0,0,1-.16.06,18.4,18.4,0,0,1-1.83.32c-.54,0-1.07.12-1.61.18a4.24,4.24,0,0,1-.62,0c-1-.07-2-.18-3-.33a9.25,9.25,0,0,1-1.79-.47c-.57-.22-1.15-.41-1.71-.69s-1.15-.59-1.72-.9a6.39,6.39,0,0,1-.76-.52,16.53,16.53,0,0,1-3.65-3.63A13.9,13.9,0,0,1,49,75.05c-.13-.27-.25-.55-.4-.81a8.92,8.92,0,0,0-.44-1,.3.3,0,0,1,0-.1c-.06-.44-.34-.82-.36-1.28a.56.56,0,0,0,0-.12,2.64,2.64,0,0,1-.25-1.1,3.56,3.56,0,0,0-.15-.79,1.68,1.68,0,0,1-.08-.59c0-.59,0-1.18,0-1.77A5.23,5.23,0,0,1,47.39,66a2,2,0,0,0,.09-.69,2.17,2.17,0,0,1,.27-.86.23.23,0,0,1,.24-.14c.49,0,1,0,1.46,0,.29,0,.36.14.28.42s-.13.54-.18.82a2.69,2.69,0,0,1-.16.68,2.22,2.22,0,0,0-.1.73c0,.77,0,1.53,0,2.3a2.39,2.39,0,0,0,.1.66,2.08,2.08,0,0,1,.13.56,6.42,6.42,0,0,0,.39,1.61,3.75,3.75,0,0,0,.4,1c.14.22.2.47.32.7.27.5.58,1,.88,1.46a9.7,9.7,0,0,0,.91,1.2,8.48,8.48,0,0,0,.87.93,16.13,16.13,0,0,0,1.45,1.17,17.52,17.52,0,0,0,1.57.93,9,9,0,0,1,.82.41,2.27,2.27,0,0,0,.6.23,5.9,5.9,0,0,0,1.37.43,1.12,1.12,0,0,1,.4.1,2.19,2.19,0,0,0,1,.17,3.7,3.7,0,0,1,.57.07,8.53,8.53,0,0,0,2.14.12c.62,0,1.22-.22,1.84-.2a1.06,1.06,0,0,0,.31,0c.34-.14.72-.17,1.06-.28A5,5,0,0,0,67.51,80a.46.46,0,0,1,.16-.07A9.17,9.17,0,0,0,70,78.82a12,12,0,0,0,1.65-1.29,13.33,13.33,0,0,0,1.72-1.88,10.68,10.68,0,0,0,1.15-1.84c.15-.3.3-.61.42-.91a3.91,3.91,0,0,0,.41-1.16,1.32,1.32,0,0,1,.17-.53c.14-.25.07-.55.14-.82a2.28,2.28,0,0,1,.11-.45,2,2,0,0,0,.11-.73c0-.71,0-1.42,0-2.14A3.64,3.64,0,0,0,75.68,66a2.35,2.35,0,0,1-.09-.53,2.73,2.73,0,0,0-.18-.68c-.13-.32,0-.47.32-.48s.9,0,1.35,0a.35.35,0,0,1,.36.24,3.55,3.55,0,0,1,.27,1.2,1.1,1.1,0,0,0,0,.26A5.84,5.84,0,0,1,77.91,68.1ZM62.55,82.65h1.83a1.55,1.55,0,0,0,.68-.12,2,2,0,0,1,.77-.15.84.84,0,0,0,.5-.1,1.19,1.19,0,0,1,.66-.17.54.54,0,0,0,.36-.09.82.82,0,0,1,.53-.21c.21,0,.33-.21.52-.22a2.19,2.19,0,0,0,.87-.37l.83-.43c.39-.21.75-.47,1.12-.7a14.75,14.75,0,0,0,1.29-1c.26-.22.49-.46.74-.68a11.56,11.56,0,0,0,1.53-1.75c.3-.39.57-.8.83-1.21s.3-.55.46-.82a8,8,0,0,0,.51-1c.14-.3.2-.64.34-1a3.07,3.07,0,0,1,.24-.68c.06-.07,0-.17.07-.26s0-.41.08-.59A2.46,2.46,0,0,0,77.54,70c0-.49.12-1,.09-1.47a.59.59,0,0,1,0-.13,2.27,2.27,0,0,0,0-.86,11.62,11.62,0,0,1-.14-1.66,1.31,1.31,0,0,0-.1-.59,1.09,1.09,0,0,1-.17-.63c0-.15-.06-.23-.22-.23a6.22,6.22,0,0,0-1.14,0c-.12,0-.18.07-.19.19a2.06,2.06,0,0,0,.15,1,1.44,1.44,0,0,1,.14.62,5.78,5.78,0,0,0,0,.93,3.9,3.9,0,0,1,0,1.13C76,68.9,76,69.44,76,70a1.3,1.3,0,0,1-.1.52,1.55,1.55,0,0,0-.18.7,8.77,8.77,0,0,1-.41,1.29,4.28,4.28,0,0,0-.17.43.55.55,0,0,1-.07.25c-.29.46-.47,1-.76,1.44a16.25,16.25,0,0,1-1,1.44,11.28,11.28,0,0,1-1,1.11,9.48,9.48,0,0,1-1,1c-.57.41-1.12.85-1.74,1.22a8.07,8.07,0,0,0-1.32.73s-.06,0-.1,0a10.22,10.22,0,0,1-1.07.34.16.16,0,0,0-.09,0,.65.65,0,0,1-.44.16.83.83,0,0,0-.43.09,1,1,0,0,1-.61.17,2.47,2.47,0,0,0-.84.17,1.27,1.27,0,0,1-.47.09H61a.93.93,0,0,1-.44-.08,2.05,2.05,0,0,0-.77-.17c-.26,0-.53,0-.74-.2a.15.15,0,0,0-.1,0,1.62,1.62,0,0,1-.83-.26.33.33,0,0,0-.16-.05,2,2,0,0,1-.68-.22c-.21-.09-.39-.24-.59-.31s-.42-.17-.62-.27-.28-.23-.45-.3a7.53,7.53,0,0,1-1.49-1,13.37,13.37,0,0,1-1.66-1.52,2.19,2.19,0,0,1-.39-.42c-.16-.28-.4-.5-.57-.77s-.26-.26-.33-.42c-.18-.44-.53-.79-.69-1.25S50,73.21,50,72.78a.14.14,0,0,0,0-.09c-.19-.17-.18-.4-.23-.61a.52.52,0,0,0-.07-.22.92.92,0,0,1-.21-.69.85.85,0,0,0-.09-.45,1.29,1.29,0,0,1-.19-.73,12.71,12.71,0,0,0,0-1.38,4.44,4.44,0,0,1,0-1c0-.43,0-.86.07-1.3a1.91,1.91,0,0,1,.17-.77,1.77,1.77,0,0,0,.1-.76c0-.16-.06-.23-.23-.26a8.09,8.09,0,0,0-1.1,0c-.17,0-.21.1-.22.24s0,.32-.07.45a.87.87,0,0,0-.15.54c0,.54-.06,1.09-.16,1.62a4,4,0,0,0,0,1.24,11,11,0,0,1,.12,1.29A7,7,0,0,0,47.7,71c0,.19.19.34.19.53a1.56,1.56,0,0,0,.24.86c0,.06,0,.17.06.25a8.32,8.32,0,0,1,.36,1.1s0,0,0,0a1.2,1.2,0,0,1,.22.4,5.35,5.35,0,0,0,.34.73c.25.39.48.8.73,1.19a15.83,15.83,0,0,0,1.22,1.61A13.23,13.23,0,0,0,52.49,79a4.09,4.09,0,0,0,.73.57c.36.21.66.5,1,.7s.47.31.72.44.49.23.72.37a4.15,4.15,0,0,1,.81.42.28.28,0,0,0,.13,0,.45.45,0,0,1,.31.12.39.39,0,0,0,.25.1c.48.07.9.39,1.4.39a.18.18,0,0,1,.1,0,1.22,1.22,0,0,0,.72.17,1.21,1.21,0,0,1,.57.11,1.89,1.89,0,0,0,.77.15Z" fill="#a4a6b3"/>
            <path d="M47.23,52V49c0-.41.11-.51.53-.51h.87c.28,0,.39.11.42.37a1.47,1.47,0,0,1,0,.21V53.8a1.33,1.33,0,0,0,0,.2c0,.28.1.35.39.37.54,0,1.08.05,1.61.12s1.21.17,1.8.29a21.55,21.55,0,0,1,2.1.54c.62.22,1.24.44,1.86.69s1,.45,1.49.68a7.23,7.23,0,0,1,1.29.68c.3.21.63.38.93.58s.67.43,1,.66a7.91,7.91,0,0,1,.85.68.29.29,0,0,0,.43,0,17.36,17.36,0,0,1,2.38-1.69c.55-.34,1.12-.64,1.7-.93l1-.48c.27-.13.55-.22.83-.33a18.39,18.39,0,0,1,2.45-.78,10.58,10.58,0,0,1,2-.43c.28,0,.56-.12.85-.15.52-.05,1.05-.09,1.58-.12s.52-.06.52-.5c0-1.56,0-3.12,0-4.68V49c0-.46.1-.55.57-.54h.76c.39,0,.49.09.49.48v6a1.06,1.06,0,0,1-1,1.1c-.6.06-1.21,0-1.82.06a5.38,5.38,0,0,0-1.13.14,3.53,3.53,0,0,1-.92.14.59.59,0,0,0-.23,0c-.55.19-1.16.21-1.69.45-.13.06-.31,0-.44.09-.31.14-.65.22-1,.33a10.75,10.75,0,0,0-1.26.52c-.45.23-.92.43-1.36.7a10.06,10.06,0,0,1-1.15.66,5.57,5.57,0,0,0-1,.66,17.17,17.17,0,0,0-1.59,1.22c-.18.15-.34.32-.51.49a.36.36,0,0,1-.57,0,15.28,15.28,0,0,0-2.7-2.15,19.39,19.39,0,0,0-1.7-1,3.35,3.35,0,0,0-.83-.4,2.46,2.46,0,0,1-.55-.25,9.16,9.16,0,0,0-1-.4A5.17,5.17,0,0,0,54.2,57c-.14,0-.26-.11-.39-.13a13.65,13.65,0,0,0-1.92-.41c-.41,0-.8-.19-1.22-.22A16.38,16.38,0,0,0,49,56.14,2.8,2.8,0,0,1,47.84,56a1,1,0,0,1-.6-.94c0-.7,0-1.4,0-2.1V52Zm.21,0c0,1,0,1.92,0,2.88a2.69,2.69,0,0,0,.19.74c0,.07.09.12.17.15a2.7,2.7,0,0,0,.41.07c.39,0,.78,0,1.16.09a9,9,0,0,0,1.37.11,2.51,2.51,0,0,1,.82.12,2.76,2.76,0,0,0,.8.15,1.35,1.35,0,0,1,.76.19.41.41,0,0,0,.26.07c.53,0,1,.36,1.49.36,0,0,.06,0,.09,0a4.93,4.93,0,0,0,1.1.43c.3.11.59.24.87.37a8.31,8.31,0,0,1,1,.46,1.92,1.92,0,0,0,.46.27,2.62,2.62,0,0,1,.81.43l1.29.88a13.16,13.16,0,0,1,1.3,1l.66.57a.22.22,0,0,0,.33,0L63.2,61c.39-.34.78-.68,1.21-1a16.32,16.32,0,0,1,1.47-1c.35-.21.68-.43,1.05-.62l.81-.42c.33-.19.7-.3,1-.51a.48.48,0,0,1,.17-.05A7,7,0,0,0,70,57.07c.24-.07.47-.17.71-.22a.66.66,0,0,0,.2-.06,15.31,15.31,0,0,1,1.51-.42,1.07,1.07,0,0,1,.44-.06,1.78,1.78,0,0,0,.51-.1,3.1,3.1,0,0,1,1-.17,8.77,8.77,0,0,0,1-.06,2.66,2.66,0,0,1,.69-.08,5.51,5.51,0,0,0,1-.08.47.47,0,0,0,.47-.37,2.92,2.92,0,0,0,.11-.72V49.48a2.75,2.75,0,0,1,0-.4c0-.23,0-.33-.28-.34h-.9a.22.22,0,0,0-.25.25v5.09c0,.42-.07.49-.5.48a6.84,6.84,0,0,0-2.11.23,2.38,2.38,0,0,1-.65,0,14.41,14.41,0,0,0-1.73.38,3.25,3.25,0,0,1-.63.17c-.3,0-.52.22-.8.26s-.67.29-1,.33a.07.07,0,0,0-.06,0,3.79,3.79,0,0,1-1,.45c-.26.12-.54.24-.78.38a7.32,7.32,0,0,0-1.29.71c-.45.09-.73.45-1.11.66a4.34,4.34,0,0,0-.46.28,6.64,6.64,0,0,1-.73.55,1.5,1.5,0,0,0-.42.33.51.51,0,0,1-.68,0l0,0A1.55,1.55,0,0,0,62,59.2a7.8,7.8,0,0,1-.81-.61,3.19,3.19,0,0,0-.65-.43c-.38-.2-.7-.49-1.09-.68a9.44,9.44,0,0,0-.9-.45.63.63,0,0,1-.2-.13.36.36,0,0,0-.19-.13c-.2,0-.34-.14-.5-.2s-.48-.27-.75-.34-.81-.34-1.23-.47-.65-.22-1-.33-.61-.14-.92-.24-.88-.18-1.32-.31-.8,0-1.2-.13a5.82,5.82,0,0,0-.6-.14,13.3,13.3,0,0,0-1.41-.06c-.28,0-.4-.13-.41-.39a1.34,1.34,0,0,1,0-.2c0-1.66,0-3.32,0-5,0-.16-.07-.24-.25-.24s-.53,0-.79,0-.4.06-.4.39V52Z" fill="#a4a6b3"/>
            <path d="M70.55,68.17c.1-.35-.19-.63-.41-.94,0-.08-.15-.1-.24-.14s-.24-.18-.07-.34a2.93,2.93,0,0,1,.59-.46l.64-.37a.25.25,0,0,1,.36,0,5.38,5.38,0,0,1,.54.64,5,5,0,0,1,.42,1,2.23,2.23,0,0,1,0,1.28A2.79,2.79,0,0,1,71.92,70a3.45,3.45,0,0,1-1.08,1,3.74,3.74,0,0,1-1.7.47,2,2,0,0,1-.84-.15l-.13-.05A2.53,2.53,0,0,1,67,70.62a1.31,1.31,0,0,1-.22-.25.2.2,0,0,1,0-.25A12.49,12.49,0,0,1,67.52,69a.74.74,0,0,1,.13-.12c.14-.11.24-.11.29,0a1.11,1.11,0,0,0,.69.62,1.43,1.43,0,0,0,1,0A1.65,1.65,0,0,0,70.4,69C70.57,68.74,70.54,68.49,70.55,68.17Z" fill="#fff"/>
            <path d="M55.85,71.53a2,2,0,0,1-1.26-.31,3.14,3.14,0,0,1-1.22-.93,7.53,7.53,0,0,1-.7-1.27,1.17,1.17,0,0,1-.07-.49c0-.28,0-.56,0-.84a.62.62,0,0,1,.09-.32c.17-.27.25-.58.44-.85a6.88,6.88,0,0,1,.66-.77.14.14,0,0,1,.21,0c.13.21.38.24.57.35a3.3,3.3,0,0,0,.7.47.45.45,0,0,1,.13.11c.23.26.2.33-.09.5a1.06,1.06,0,0,0-.65,1,.88.88,0,0,1,0,.23c-.05.39.2.62.43.87.07.07.17.11.25.18a.6.6,0,0,0,.45.12,2,2,0,0,1,.34,0,1.1,1.1,0,0,0,1-.58c0-.06.06-.13.1-.18a.16.16,0,0,1,.26,0,2.67,2.67,0,0,1,.67.86c.1.19.24.37.36.56s.1.15,0,.24a5.45,5.45,0,0,1-.82.69,9.55,9.55,0,0,1-1,.41C56.48,71.59,56.19,71.52,55.85,71.53Zm.08-1.77c-.26-.13-.6-.07-.88-.32a1.35,1.35,0,0,1-.58-.9A1.41,1.41,0,0,1,55.15,67c.15-.09.15-.21,0-.3s-.56-.34-.82-.53a.61.61,0,0,0-.45-.12c-.16,0-.2.18-.29.25s-.22.32-.34.46a.8.8,0,0,0-.21.51,1.27,1.27,0,0,1-.11.38,1.36,1.36,0,0,0-.08.69,6.59,6.59,0,0,1,.16,1,.18.18,0,0,0,0,.09c.25.21.28.56.52.8a5.38,5.38,0,0,0,1.22.89.34.34,0,0,0,.2,0,1.8,1.8,0,0,1,.57.11,1.16,1.16,0,0,0,.84,0,1.87,1.87,0,0,1,.57-.12.49.49,0,0,0,.27-.06,10.07,10.07,0,0,0,.88-.56.37.37,0,0,0,0-.6.6.6,0,0,1-.19-.3,1.48,1.48,0,0,0-.43-.57c-.09,0-.15-.07-.22,0A1.64,1.64,0,0,1,55.93,69.76Z" fill="#a4a6b3"/>
            <path d="M46.88,57.32a.93.93,0,0,1-.68-.4l-.31-.39a.53.53,0,0,1-.15-.33.41.41,0,0,0-.08-.25,1,1,0,0,1-.2-.76V52.42c0-.35,0-.35-.36-.35h-.66c-.33,0-.41.09-.39.4a14.22,14.22,0,0,1,.06,2c0,.58.08,1.15.09,1.73a.45.45,0,0,0,0,.16,6.3,6.3,0,0,0,.7,1.27,4.73,4.73,0,0,0,1.06.88c.3.21.68.25,1,.49a.45.45,0,0,0,.26.08,7.56,7.56,0,0,0,.82.07,11.21,11.21,0,0,1,2.09.19c.18,0,.37,0,.55,0a2.38,2.38,0,0,1,.83.18.62.62,0,0,0,.33.08,1.78,1.78,0,0,1,1,.23c.07,0,.17,0,.26,0s.45,0,.61.21a.09.09,0,0,0,.06,0c.39,0,.71.29,1.09.35a.41.41,0,0,1,.24.11.62.62,0,0,0,.37.16s.11,0,.13,0c.2.23.52.26.77.41s.44.23.64.37a12.86,12.86,0,0,1,1.1.71,2.31,2.31,0,0,0,.42.27,8.39,8.39,0,0,1,.93.74c.16.11.36.23.35.47l-.09,0a15.41,15.41,0,0,0-1.33-1.09c-.11-.08-.21-.2-.38-.19l-.09-.08c0-.15-.18-.18-.32-.19L57.48,62c0-.1-.1-.11-.18-.1l-.19-.14a1,1,0,0,0-.6-.32l-.06,0c0-.06-.05-.09-.11-.12a17.78,17.78,0,0,0-2.36-1s-.06,0-.1,0l-.14,0c-.22-.12-.41-.29-.68-.23l-.23,0a1.88,1.88,0,0,0-.75-.27,9.26,9.26,0,0,1-.92-.13,2.49,2.49,0,0,0-.94-.12l-.22,0a.14.14,0,0,0-.14-.07c-.44,0-.87-.06-1.31-.06a5.28,5.28,0,0,1-2.17-.45,3.87,3.87,0,0,1-2-2,.87.87,0,0,0-.25-.35c0-.07,0-.14,0-.2s0-.1,0-.13,0-.1,0-.14a4.63,4.63,0,0,1-.12-1c0-.76,0-1.53,0-2.29,0-.11.06-.25-.08-.34s0-.08,0-.13c.17-.42.17-.43.52-.46s.62,0,.93,0,.29.11.32.29a1.82,1.82,0,0,1,0,.33c0,.84,0,1.69,0,2.53a1.2,1.2,0,0,0,.21.84l0,.14c0,.06,0,.11,0,.15l.06.13a.27.27,0,0,0,.16.26l0,.08a1.14,1.14,0,0,0,.6.56l0,0c0,.07.09.06.12.11S46.89,57.3,46.88,57.32Z" fill="#a4a6b3"/>
            <path d="M62.65,53.24c.69.09,1.42,0,2.16.07a1,1,0,0,1,.37.08,2,2,0,0,0,.93.18.46.46,0,0,1,.38.12.21.21,0,0,0,.12.07,5.82,5.82,0,0,1,1.17.34c.07,0,.14,0,.2.06a.25.25,0,0,1,0,.44.89.89,0,0,1-.35.14A1.72,1.72,0,0,0,67,55a6.27,6.27,0,0,1-.64.3c-.21.11-.43.19-.64.3a.67.67,0,0,1-.72,0,.94.94,0,0,0-.58-.17c-.52,0-1,0-1.55,0s-1.15.08-1.72,0c-.19,0-.37,0-.56,0a.84.84,0,0,0-.51.14.74.74,0,0,1-.9,0,6.61,6.61,0,0,0-.76-.36,2.87,2.87,0,0,0-1-.41.86.86,0,0,1-.41-.24c-.07,0-.15-.12-.12-.22a.25.25,0,0,1,.26-.18.83.83,0,0,0,.28,0,3.5,3.5,0,0,1,1.06-.31.28.28,0,0,0,.15-.08.48.48,0,0,1,.35-.12,2.29,2.29,0,0,0,1-.19,1.1,1.1,0,0,1,.44-.07c.34,0,.67,0,1,0S62.23,53.25,62.65,53.24Zm-.08.18h-.18a15.68,15.68,0,0,0-3,.29.66.66,0,0,0-.2.06c-.44.22-1,.14-1.4.42,0,0-.07,0-.11,0s-.32,0-.34.15.19.19.3.23c.45.18.87.4,1.3.61a1.17,1.17,0,0,0,.82.19,7.28,7.28,0,0,1,1-.14,11.07,11.07,0,0,1,1.82-.14,14.24,14.24,0,0,1,1.72.14,2.58,2.58,0,0,1,.68.08,1.49,1.49,0,0,0,1.19-.15,14,14,0,0,1,1.36-.64c.09,0,.22,0,.2-.19s-.13-.11-.21-.13c-.41-.12-.81-.25-1.22-.35s-.71-.16-1.07-.22a11.81,11.81,0,0,0-2.72-.23Z" fill="#355d9d"/>
            <path d="M54.34,58.67l-.17,0a.12.12,0,0,0-.18,0l-.1,0c-.11-.17-.34-.17-.48-.29a.45.45,0,0,1,.42,0c.08,0,.14.13.24.13a4.37,4.37,0,0,1,1.06.34c.34.11.65.27,1,.41.5.22,1,.47,1.46.72.2.1.37.27.58.35a5.41,5.41,0,0,1,.76.48c.28.17.55.38.82.58a18.88,18.88,0,0,1,2.27,2,5.25,5.25,0,0,1,.4.42c.1.16.19.16.33,0s.21-.26.33-.38l1.27-1.22c.14-.14.34-.19.46-.35s.1,0,.16,0l0,.13,0,0a.24.24,0,0,0-.09,0,12.9,12.9,0,0,0-1.9,1.79c-.25.31-.38.31-.64,0a10.21,10.21,0,0,0-1.32-1.31,3.9,3.9,0,0,0-.93-.73l-.08-.08a3.91,3.91,0,0,0-1.09-.79h0s0-.05,0-.06a23,23,0,0,0-2.27-1.3c-.66-.3-1.34-.57-2-.85A.15.15,0,0,0,54.34,58.67Z" fill="#355d9d"/>
            <path d="M78.19,57.34c0,.13,0,.19-.14.22a1.5,1.5,0,0,0-.64.23c0,.05-.15,0-.23,0-.8,0-1.59.09-2.38.06a1,1,0,0,0-.41.06,2.94,2.94,0,0,1-1.18.21.92.92,0,0,0-.58.15.89.89,0,0,1-.53.12.79.79,0,0,0-.58.16.65.65,0,0,1-.29.11.7.7,0,0,0-.58.23h0c-.38-.06-.63.26-1,.3a.18.18,0,0,0-.13,0c-.24.2-.57.22-.81.42s-.45.11-.6.3c-.33,0-.52.3-.81.41a3.13,3.13,0,0,0-.54.33,11.66,11.66,0,0,0-1.3.91.28.28,0,0,1-.25.06,4.72,4.72,0,0,1,.9-.7,18,18,0,0,1,2.36-1.39c.52-.27,1.06-.48,1.6-.7a3,3,0,0,1,.69-.26,3.86,3.86,0,0,0,1-.36h.15a.5.5,0,0,0,.36-.05,1.85,1.85,0,0,1,.4-.12,14,14,0,0,0,1.44-.27c.1,0,.22,0,.28-.09h.15a.48.48,0,0,0,.24,0L77,57.64A4.26,4.26,0,0,0,78.19,57.34Z" fill="#a4a6b3"/>
            <path d="M56.35,63.25a.1.1,0,0,1-.15,0A13,13,0,0,0,55,62.62a3.54,3.54,0,0,0-.6-.22,8.35,8.35,0,0,0-1.11-.46,3.12,3.12,0,0,0-.92-.24c-.06,0-.1,0-.14-.08a.43.43,0,0,0-.28-.11,10.15,10.15,0,0,0-1.1-.07.39.39,0,0,1-.34-.11.38.38,0,0,0-.25-.09,10.06,10.06,0,0,0-1.45-.07h-.62a1.73,1.73,0,0,1-.77-.12,6.18,6.18,0,0,0-1-.2,5.35,5.35,0,0,0-.67-.24c-.09,0-.12-.1-.08-.19a3,3,0,0,1,.78.24,5.43,5.43,0,0,0,1.11.21c.46,0,.92,0,1.38.09a13.67,13.67,0,0,1,2,.19c.39.11.83.12,1.2.24a11,11,0,0,1,1.47.48c.35.17.73.32,1.09.47s.87.46,1.31.65A.66.66,0,0,1,56.35,63.25Z" fill="#9f9850"/>
            <path d="M79.41,55.87a0,0,0,0,1,0,0h0c-.16-.13-.09-.32-.06-.46a2.71,2.71,0,0,0,0-.56v-2.5c0-.62.11-.7.82-.65.28,0,.55,0,.83,0a.4.4,0,0,1,.31.66c0-.05,0-.1,0-.16,0-.22-.17-.31-.39-.35a4.71,4.71,0,0,0-.65,0c-.64,0-.68,0-.69.66A19.23,19.23,0,0,1,79.41,55.87Z" fill="#355d9d"/>
            <path d="M44.12,56.58a.84.84,0,0,1,.25.34,3.85,3.85,0,0,0,2,2,5.36,5.36,0,0,0,2.17.44c.43,0,.87.08,1.3.07a.15.15,0,0,1,.15.07c-.09.07-.2,0-.3,0H47.84a.63.63,0,0,1-.42-.12.92.92,0,0,0-.55-.14.44.44,0,0,1-.34-.13.7.7,0,0,0-.24-.13,3.17,3.17,0,0,1-1.4-1,5.59,5.59,0,0,1-.76-1.17C44.09,56.71,44,56.65,44.12,56.58Z" fill="#355d9d"/>
            <path d="M71.78,58.28a3.58,3.58,0,0,1-1,.36,3,3,0,0,0-.7.26c-.54.22-1.08.43-1.59.7A17.5,17.5,0,0,0,66.11,61a5.57,5.57,0,0,0-.9.7h-.16c0-.06,0-.13,0-.17a11.45,11.45,0,0,0,1.06-.77c.3-.21.63-.39,1-.57s.9-.5,1.35-.75l.22-.1,1.78-.76a.83.83,0,0,1,.27-.07.92.92,0,0,0,.57-.2A.48.48,0,0,1,71.78,58.28Z" fill="#355d9d"/>
            <path d="M53.41,58.29c.14.13.37.12.48.29-.07.09-.14,0-.21,0a1.64,1.64,0,0,0-.66-.16,1,1,0,0,1-.61-.17.54.54,0,0,0-.33-.08c-.28,0-.55-.07-.82-.07a.32.32,0,0,1-.17,0,1.86,1.86,0,0,0-1-.18c-.74,0-1.49-.06-2.23-.06a.63.63,0,0,1-.52-.31.22.22,0,0,1,.16,0,.52.52,0,0,0,.43.14,3.4,3.4,0,0,1,.45,0c.52.07,1,0,1.57.1a.51.51,0,0,0,.17,0l.62,0A6.2,6.2,0,0,0,52,58a3.07,3.07,0,0,1,.86.19.42.42,0,0,0,.36.06Z" fill="#a4a6b3"/>
            <path d="M45.82,55.82A1.23,1.23,0,0,1,45.6,55c0-.84,0-1.68,0-2.53a1.82,1.82,0,0,0,0-.33.32.32,0,0,0-.33-.29c-.3,0-.61,0-.92,0s-.35.05-.52.47a.37.37,0,0,1,.28-.6c.44,0,.88,0,1.32,0a.28.28,0,0,1,.3.26,2.9,2.9,0,0,1,0,.72,5.79,5.79,0,0,0,0,1.5.92.92,0,0,1,0,.37,1.45,1.45,0,0,0,0,.85A.56.56,0,0,1,45.82,55.82Z" fill="#355d9d"/>
            <path d="M65.56,63.43c0-.24.28-.31.43-.45.35-.31.76-.56,1.12-.87a2,2,0,0,1,.44-.23,6.14,6.14,0,0,0,.66-.41,6.58,6.58,0,0,1,.74-.4c.25-.13.53-.24.78-.38s.75-.24,1.11-.42c.08,0,.17-.14.27,0l0,.11-.12,0a3.09,3.09,0,0,0-.78.25A16.77,16.77,0,0,0,67.58,62c-.11.08-.29.09-.34.25l0,0a.5.5,0,0,0-.32.24l-.07,0a2.79,2.79,0,0,0-1,.75l-.09.09-.15,0Z" fill="#a4a6b3"/>
            <path d="M78.19,57.34a4.28,4.28,0,0,1-1.22.3l-2.17.12a.5.5,0,0,1-.24,0c0-.08.13-.07.21-.08.29,0,.57,0,.86-.08s.33-.15.53-.12a8.54,8.54,0,0,0,1.13,0,1.76,1.76,0,0,0,1.34-.62,6.31,6.31,0,0,1,.55-.6h0v.15a4,4,0,0,1-.69.79.29.29,0,0,0-.31.16Z" fill="#355d9d"/>
            <path d="M79.41,55.87a19.23,19.23,0,0,0,.12-3.39c0-.62,0-.67.69-.66a4.71,4.71,0,0,1,.65,0c.22,0,.36.13.39.35a.75.75,0,0,0,0,.16s0,.1,0,.15h-.11s0-.09-.06-.15c0-.27-.07-.34-.34-.36s-.6,0-.9,0a.19.19,0,0,0-.2.19,1.51,1.51,0,0,0,0,.3c0,1,0,2,0,3C79.67,55.66,79.68,55.85,79.41,55.87Z" fill="#a4a6b3"/>
            <path d="M61.88,65.9c.09,0,.17,0,.19.08s.24.31.33.5.22.17.34,0a11.23,11.23,0,0,1,1.38-1.71c.21-.21.38-.46.61-.66S64.9,64,65,64c-.08.23-.3.35-.45.53a.13.13,0,0,0-.15.13.34.34,0,0,0-.13.18.14.14,0,0,0-.12.13.34.34,0,0,0-.15.14.86.86,0,0,0-.41.51l-.14.17a.41.41,0,0,0-.23.27l-.08.12c-.18.1-.24.28-.34.44s-.36.24-.47,0A4,4,0,0,1,61.88,65.9Z" fill="#a4a6b3"/>
            <path d="M81.19,52.49h.11s0,.06,0,.09c0,.75.1,1.51,0,2.26,0,.31,0,.62,0,.93a.38.38,0,0,1-.27.37c-.07,0,0-.12,0-.18a.38.38,0,0,0,.12-.5c0-.5,0-1,0-1.51a.2.2,0,0,0,0-.34Z" fill="#355d9d"/>
            <path d="M67.24,62.29c.05-.16.23-.17.34-.25a17.71,17.71,0,0,1,2.61-1.41,3.52,3.52,0,0,1,.78-.24c0,.13-.11.14-.21.18a5.68,5.68,0,0,0-1.24.54c-.17.11-.4.13-.58.26-.43.3-1,.46-1.36.8A.54.54,0,0,1,67.24,62.29Z" fill="#355d9d"/>
            <path d="M61.88,65.9a4,4,0,0,0,.48.76c.11.2.34.17.47,0s.16-.34.34-.44c0,.09,0,.15-.06.2a.66.66,0,0,0-.17.29c0,.15-.1.26-.3.25s-.35,0-.45-.21a6.44,6.44,0,0,0-1-1.35A.53.53,0,0,1,61,65a1.56,1.56,0,0,1,.41.4,2,2,0,0,0,.44.48Z" fill="#355d9d"/>
            <path d="M43.83,52.43c.13.09.08.22.08.33,0,.77,0,1.53,0,2.3a5.17,5.17,0,0,0,.11,1,.33.33,0,0,1-.23-.33V52.52S43.82,52.46,43.83,52.43Z" fill="#355d9d"/>
            <path d="M76.16,59.29l.31,0a2.22,2.22,0,0,0,.77,0,.09.09,0,0,0,.09-.08h.11c.1,0,.18,0,.24-.05s.14,0,.19,0-.24.22-.4.25a18.07,18.07,0,0,1-2.21.07.14.14,0,0,1-.14-.08c.21-.13.44,0,.66-.1S76.05,59.43,76.16,59.29Z" fill="#355d9d"/>
            <path d="M50.16,57.72a.55.55,0,0,1-.17,0c-.52-.08-1.05,0-1.57-.1a3.4,3.4,0,0,0-.45,0,.52.52,0,0,1-.43-.14,1.26,1.26,0,0,1,.61,0c.59.07,1.2.08,1.79.19C50,57.65,50.11,57.64,50.16,57.72Z" fill="#355d9d"/>
            <path d="M74.41,57.74c-.06.12-.18.06-.27.09-.48.13-1,.19-1.45.27a1.76,1.76,0,0,0-.39.12.52.52,0,0,1-.37.05c.31-.33.74-.28,1.14-.35a.56.56,0,0,0,.29-.06A1.47,1.47,0,0,1,74.41,57.74Z" fill="#355d9d"/>
            <path d="M53.88,60.29s.07,0,.1,0a19.87,19.87,0,0,1,2.36,1s.1.06.1.12a.3.3,0,0,1-.23,0c-.25-.18-.56-.24-.81-.41a2.86,2.86,0,0,0-.89-.4A1.44,1.44,0,0,1,53.88,60.29Z" fill="#355d9d"/>
            <path d="M58,62.4a.63.63,0,0,1,.38.19c.46.34.91.71,1.33,1.09l.09,0h0s0,.09.05.13a.25.25,0,0,1-.19-.05l-1.55-1.21A.23.23,0,0,1,58,62.4Z" fill="#355d9d"/>
            <path d="M79,58.74l.1-.05a.39.39,0,0,0,.37-.24h0a.79.79,0,0,0,.4-.24c.11-.09.18-.21.32-.25a.21.21,0,0,1-.09.2,3.63,3.63,0,0,1-1.07.75c-.15.06-.27.17-.42.22s-.35.19-.53,0c.06-.14.22-.08.32-.14s.16,0,.17-.1l.1-.05A.26.26,0,0,0,79,58.74Z" fill="#355d9d"/>
            <path d="M50.22,59.48a2.49,2.49,0,0,1,.94.12c.3,0,.6.11.91.13a1.86,1.86,0,0,1,.76.26c-.15.09-.29,0-.43,0a6.11,6.11,0,0,0-1.34-.26A3,3,0,0,1,50.22,59.48Z" fill="#355d9d"/>
            <path d="M53.19,58.27a.42.42,0,0,1-.36-.06A3.15,3.15,0,0,0,52,58a6.2,6.2,0,0,1-1.19-.27,1.1,1.1,0,0,1,.8.06,2.31,2.31,0,0,0,.83.15A1.21,1.21,0,0,1,53.19,58.27Z" fill="#355d9d"/>
            <path d="M61.86,65.88a2,2,0,0,1-.44-.48A1.73,1.73,0,0,0,61,65L61,65s0-.1,0-.15l.05,0a.68.68,0,0,1,.26.18c.17.21.36.4.53.6S61.91,65.74,61.86,65.88Z" fill="#a4a6b3"/>
            <path d="M59.3,65.57c-.08,0-.17,0-.22,0a10.12,10.12,0,0,0-.75-.71c-.06,0-.11-.11-.07-.2a1.7,1.7,0,0,1,.57.41A2.16,2.16,0,0,1,59.3,65.57Z" fill="#9f9850"/>
            <path d="M73.53,59.62l.24,0a1.18,1.18,0,0,0,.8-.18c.11,0,.22,0,.33,0s0,.06,0,.06a4.21,4.21,0,0,1-1.27.25s-.06,0-.09,0Z" fill="#355d9d"/>
            <path d="M80.14,58c-.14,0-.21.17-.32.25a.79.79,0,0,1-.4.24.12.12,0,0,1,0-.15,2.74,2.74,0,0,0,.65-.62s.08,0,.12,0l0,0-.06.19Z" fill="#a4a6b3"/>
            <path d="M65.84,63.35a2.79,2.79,0,0,1,1-.75A2.5,2.5,0,0,1,65.84,63.35Z" fill="#355d9d"/>
            <path d="M81,56.35s0-.08.07-.09a.4.4,0,0,1,0,.49,2,2,0,0,0-.22.47.21.21,0,0,1-.2.15c0-.15.2-.24.12-.41s.13-.25.19-.37S81,56.45,81,56.35Z" fill="#355d9d"/>
            <path d="M60.16,64s.05,0,.06,0a1.67,1.67,0,0,1,.74.77l-.05,0c-.08-.07-.12-.18-.25-.2l-.13-.12C60.48,64.28,60.22,64.22,60.16,64Z" fill="#a4a6b3"/>
            <path d="M45.63,60.39a.2.2,0,0,1-.2,0c-.26-.08-.45-.29-.71-.38s-.12-.15-.09-.26A8,8,0,0,1,45.63,60.39Z" fill="#9f9850"/>
            <path d="M73,59.69c.11,0,.23,0,.33,0s0,.05,0,.06l-.82.25a.11.11,0,0,1-.12-.05C72.53,59.82,72.8,59.85,73,59.69Z" fill="#355d9d"/>
            <path d="M57.32,63.88a.21.21,0,0,1-.2,0c-.21-.14-.41-.28-.6-.43a.14.14,0,0,1-.05-.18A3.32,3.32,0,0,1,57.32,63.88Z" fill="#9f9850"/>
            <path d="M80.71,57c.08.17-.13.26-.12.41l0,.05c-.14,0-.15.21-.28.26l0,0A1.17,1.17,0,0,1,80.71,57Z" fill="#a4a6b3"/>
            <path d="M60.16,64c.06.2.32.26.37.48a1,1,0,0,1-.59-.59l.21.09Z" fill="#355d9d"/>
            <path d="M71.32,60.24c0-.15.18-.09.25-.15a.26.26,0,0,0,.3-.13c.07,0,.14,0,.2,0C71.85,60.15,71.65,60.37,71.32,60.24Z" fill="#355d9d"/>
            <path d="M46.76,57.14a1.12,1.12,0,0,1-.6-.57A1.64,1.64,0,0,1,46.76,57.14Z" fill="#355d9d"/>
            <path d="M65,64c0-.13,0-.24.13-.28s.19-.27.39-.29l0,0a1.33,1.33,0,0,0-.24.33C65.23,63.85,65.17,64,65,64Z" fill="#a4a6b3"/>
            <path d="M53.05,60c.28-.05.47.12.68.24-.11.09-.22,0-.31,0A1.25,1.25,0,0,1,53.05,60Z" fill="#355d9d"/>
            <path d="M73,59.69c-.18.16-.45.13-.62.29-.06,0-.12,0-.16,0A.92.92,0,0,1,73,59.69Z" fill="#a4a6b3"/>
            <path d="M56.51,61.47a.93.93,0,0,1,.6.31A.66.66,0,0,1,56.51,61.47Z" fill="#355d9d"/>
            <path d="M58.22,64.61a.54.54,0,0,1-.52-.44A.94.94,0,0,1,58.22,64.61Z" fill="#9f9850"/>
            <path d="M63.62,65.62a.82.82,0,0,1,.41-.5A1,1,0,0,1,63.62,65.62Z" fill="#355d9d"/>
            <path d="M80.28,57.68c.13,0,.14-.21.28-.26a.49.49,0,0,1-.34.45Z" fill="#355d9d"/>
            <path d="M65.35,63.81a1.15,1.15,0,0,1,.25-.33l.15,0C65.57,63.7,65.51,63.76,65.35,63.81Z" fill="#355d9d"/>
            <path d="M47.25,57.51c-.22.07-.22.07-.37-.19l0,0,.18.07.14.07Z" fill="#a4a6b3"/>
            <path d="M60.15,64l-.21-.09-.06-.06a.5.5,0,0,0-.05-.13C60.1,63.75,60.1,63.75,60.15,64Z" fill="#a4a6b3"/>
            <path d="M60.26,66.64c-.28,0-.33-.07-.34-.4A1.3,1.3,0,0,1,60.26,66.64Z" fill="#9f9850"/>
            <path d="M60.66,64.61c.13,0,.17.14.25.2L61,65C60.75,64.92,60.72,64.76,60.66,64.61Z" fill="#355d9d"/>
            <path d="M65.05,61.71h.15c0,.17-.08.27-.27.24l0-.13Z" fill="#a4a6b3"/>
            <path d="M66.89,62.56a.5.5,0,0,1,.32-.24C67.2,62.52,67.07,62.58,66.89,62.56Z" fill="#355d9d"/>
            <path d="M59.57,65.84c-.26,0-.28,0-.27-.27C59.43,65.63,59.56,65.68,59.57,65.84Z" fill="#9f9850"/>
            <path d="M57.62,62.13c.14,0,.27,0,.32.19C57.82,62.28,57.62,62.37,57.62,62.13Z" fill="#355d9d"/>
            <path d="M63.25,66.06a.41.41,0,0,1,.23-.27C63.51,66,63.42,66.05,63.25,66.06Z" fill="#355d9d"/>
            <path d="M57.66,64.15c-.23,0-.27,0-.3-.25A.37.37,0,0,1,57.66,64.15Z" fill="#9f9850"/>
            <path d="M47.1,57.34l-.18-.07s-.12,0-.13-.11S47.11,57.11,47.1,57.34Z" fill="#355d9d"/>
            <path d="M46.11,56.49a.24.24,0,0,1-.16-.26C46.11,56.26,46.15,56.35,46.11,56.49Z" fill="#355d9d"/>
            <path d="M59.79,66.11c-.22,0-.23,0-.21-.27A.34.34,0,0,1,59.79,66.11Z" fill="#9f9850"/>
            <path d="M57.3,61.92c.08,0,.16,0,.18.1S57.29,62.07,57.3,61.92Z" fill="#355d9d"/>
            <path d="M79.33,56s0,.08,0,.13-.08.1-.15.13h0C79.22,56.13,79.16,56,79.33,56Z" fill="#355d9d"/>
            <path d="M64.43,64.66a.14.14,0,0,1,.15-.13C64.6,64.65,64.51,64.65,64.43,64.66Z" fill="#355d9d"/>
            <path d="M45.89,56.1a.09.09,0,0,1,0-.15C45.9,56,45.93,56,45.89,56.1Z" fill="#355d9d"/>
            <path d="M71.09,60.34l0-.11s.09,0,.13,0S71.18,60.37,71.09,60.34Z" fill="#355d9d"/>
            <path d="M73.53,59.62v.1a.24.24,0,0,1-.16,0C73.4,59.58,73.44,59.55,73.53,59.62Z" fill="#a4a6b3"/>
            <path d="M64.18,65a.14.14,0,0,1,.12-.13C64.33,65,64.29,65,64.18,65Z" fill="#355d9d"/>
            <path d="M44.05,56.24a.08.08,0,0,1,0,.13S44,56.3,44.05,56.24Z" fill="#355d9d"/>
            <path d="M47.25,57.51v-.1c.08,0,.13,0,.14.07S47.3,57.51,47.25,57.51Z" fill="#355d9d"/>
            <path d="M24.05,17.65c.7.4,1.36.88,2,1.32L31,22.13c1.29.84,2.57,1.69,3.86,2.52.18.12.29.24.26.46s0,.4,0,.6c0,.81,0,1.63.09,2.44,0,.55,0,1.11.06,1.66s0,1.34.07,2,0,1.18.07,1.77,0,1.29.07,1.93,0,1.18.07,1.76,0,1.25.07,1.87c0,.35,0,.71.06,1.06a.45.45,0,0,1-.21.39l-5.37,3.9-3.69,2.69L24,48.94c-.24.18-.3.18-.54,0l-4.34-3.19L15.31,43l-3.23-2.39a.36.36,0,0,1-.18-.33c.07-.67,0-1.33.13-2,0,0,0-.06,0-.1,0-.56.06-1.13.07-1.69s.05-1.4.13-2.1v0c0-.64.06-1.27.08-1.9s0-1.33.13-2v-.07a18.45,18.45,0,0,1,.1-2.1,13,13,0,0,1,.1-1.76.59.59,0,0,0,0-.23c0-.44.06-.87.07-1.3,0-.16.1-.23.22-.31l2.44-1.57c1.15-.75,2.29-1.5,3.44-2.23.82-.52,1.62-1.06,2.45-1.57.67-.4,1.31-.85,2-1.28a.78.78,0,0,1,.37-.17c-.09.65-.2,1.3-.34,1.94a16.34,16.34,0,0,0-1.41.93,8.41,8.41,0,0,1-.85.15l-1.76.28a2.71,2.71,0,0,0,.44.13,6.28,6.28,0,0,1,1,.18L14.3,25.6a.6.6,0,0,0,.29.23c.73.41,1.46.8,2.18,1.22a.37.37,0,0,0,.46,0l2.34-1.54c.09-.06.17-.16.3-.15s-.07.17-.12.25-.26.37-.4.55c0,0-.05,0-.05.06s0,0,0,.05,0,0,.07,0,.11,0,.12-.08l.62-.42c.16-.11.3-.3.48-.3s.34.21.52.31l0,.05a2.83,2.83,0,0,1-.28.2L18,27.89a.52.52,0,0,0-.27.49c0,.71,0,1.42-.07,2.13,0,.47,0,.94-.05,1.41-.06,1.54-.1,3.09-.15,4.64a.46.46,0,0,0,.22.44l3.2,2.29,2.63,1.89c.26.19.26.19.53,0l.09-.06,3.51-2.49L30,37a.37.37,0,0,0,.19-.36c0-.22,0-.45,0-.67,0-1.43,0-2.87-.07-4.31,0-1.08,0-2.16,0-3.24a.51.51,0,0,0-.26-.49l-3.84-2.57c-.59-.39-1.16-.81-1.77-1.16a6.56,6.56,0,0,1,.21-1.24l.09.05,6,4A.42.42,0,0,0,31,27c.41-.25.84-.47,1.26-.7l1.25-.7-6.4-4.2c.44-.13.91-.13,1.4-.27l-.55-.1c-.65-.11-1.3-.18-1.94-.33a18.89,18.89,0,0,0-1.59-1A17.4,17.4,0,0,1,24.05,17.65Zm-.49,29.13a1.4,1.4,0,0,0,0-.61c-.09-.46-.05-.93-.1-1.39-.06-.65-.09-1.31-.14-2a.42.42,0,0,0-.2-.33c-.56-.39-1.11-.79-1.66-1.19l-4.64-3.36a.35.35,0,0,0-.43,0l-1.65.92-1.13.64ZM33.9,39.51l-.25-.17-2.5-1.42a.38.38,0,0,0-.44,0c-.36.27-.73.53-1.1.79L27,40.65l-2.6,1.86a.38.38,0,0,0-.2.36A7.88,7.88,0,0,1,24.06,44c0,.32,0,.65-.07,1s0,.78-.11,1.16c0,.2,0,.41-.05.61a.15.15,0,0,0,.18,0l9.89-7.15Zm-20.26-.32a1.85,1.85,0,0,0,.19-.13L16,37.26a.6.6,0,0,0,.24-.51c0-1.15.09-2.3.13-3.44.06-1.74.11-3.47.18-5.21a.53.53,0,0,0-.21-.45c-.64-.53-1.27-1.07-1.9-1.61,0,0-.09-.11-.19-.06,0,.24,0,.5-.06.75,0,1-.08,2-.14,3-.08,1.45-.14,2.89-.21,4.34s-.1,2.65-.17,4c0,.35-.06.7,0,1.12Zm20.23,0a.94.94,0,0,0,0-.36c0-.58,0-1.16-.06-1.74s0-1.38-.06-2.07,0-1.57-.08-2.36,0-1.36-.06-2c0-1-.07-2.09-.09-3.13,0-.29,0-.58,0-.87a3.92,3.92,0,0,0-.07-.61.13.13,0,0,0-.15,0l-2.06,1.73a.33.33,0,0,0-.12.29,5.84,5.84,0,0,0,.05.73c0,1,0,2,0,3,0,1.56.07,3.12.1,4.68,0,.14,0,.29,0,.43a.4.4,0,0,0,.17.37c.47.38.92.78,1.38,1.16a11.62,11.62,0,0,0,1,.79Z" fill="#01376d"/>
            <path d="M23.28,19.78c.14-.64.24-1.29.34-1.94l.21-1.14c.14.32.11.65.22.95a17.4,17.4,0,0,0,.36,2,3.17,3.17,0,0,0,.08.69.18.18,0,0,0,.19.16,11.65,11.65,0,0,0,1.32.19c.64.15,1.29.22,1.93.33l.56.1c-.49.14-1,.14-1.4.27-.81.08-1.6.25-2.41.36-.1,0-.17.05-.18.16a8.29,8.29,0,0,0-.15,1,6.56,6.56,0,0,0-.21,1.24,4.36,4.36,0,0,0-.14.72,3.72,3.72,0,0,1-.17.74c-.09-.5-.18-1-.27-1.42a8.25,8.25,0,0,0-.2-1.21l-.18-1c0-.1-.05-.16-.16-.17-.79-.11-1.56-.28-2.35-.35a5.37,5.37,0,0,0-1-.19,4.16,4.16,0,0,1-.44-.12L21,20.86a6.31,6.31,0,0,0,.85-.15l.87-.13c.43-.07.43-.07.5-.5C23.25,20,23.27,19.88,23.28,19.78Z" fill="#fff"/>
            <path d="M11.32,65.24a7.28,7.28,0,0,1-.41-1.19q-.46-1.45-.84-2.94c-.13-.53-.22-1.06-.3-1.6,0-.15-.06-.37.13-.44s.28.13.37.25a3.33,3.33,0,0,1,.58,1.37,12.78,12.78,0,0,1,.3,1.73A16.63,16.63,0,0,1,11.32,65.24Z" fill="#ff7b69"/>
            <path d="M12.64,70c.15.26.29.48.42.71a34.34,34.34,0,0,1,2,4,9.77,9.77,0,0,1,.36,1.08,1.75,1.75,0,0,1,0,.46c0,.37-.2.5-.57.4a4.58,4.58,0,0,1-.46-.19c.42-.13.37-.44.32-.71a10.49,10.49,0,0,0-.59-2c-.46-1.21-1-2.39-1.55-3.56A.2.2,0,0,1,12.64,70Z" fill="#fff580"/>
            <path d="M25.94,66.59a.13.13,0,0,1,.07.13A.13.13,0,0,1,25.94,66.59Z" fill="#ff7b69"/>
            <path d="M26.28,67.06a.14.14,0,0,1,.08.14C26.3,67.17,26.29,67.12,26.28,67.06Z" fill="#fed48e"/>
            <path d="M58,11.9a.5.5,0,0,1,.28.12c1.31.82,2.63,1.63,3.86,2.56a7.41,7.41,0,0,1,.91.77,1,1,0,0,1,.19.27c.11.21,0,.34-.22.36a1.15,1.15,0,0,1-.6-.14,5.42,5.42,0,0,1-1.09-.69,14.47,14.47,0,0,1-1.51-1.31c-.58-.56-1.16-1.11-1.7-1.71C58.1,12.06,58,12,58,11.9Z" fill="#fff580"/>
            <path d="M54.14,9a2.28,2.28,0,0,1-.8-.14A19,19,0,0,1,50.78,8a8.79,8.79,0,0,1-1.67-.86,3,3,0,0,1-.64-.6,1.2,1.2,0,0,1,.07-1.69,2.06,2.06,0,0,0,.92,1.48A14.5,14.5,0,0,0,52,7.9c.68.35,1.38.66,2.09,1C54.08,8.86,54.09,8.89,54.14,9Z" fill="#fff580"/>
            <path d="M54.3,9h0l0,0,0,0Z" fill="#fff580"/>
            <path d="M58,11.9a.07.07,0,0,1-.06-.07h0l.08.06Z" fill="#fff580"/>
            <path d="M58,11.83h0s0,0,0,0Z" fill="#fff580"/>
            <path d="M77.83,38.6a4.83,4.83,0,0,1,.15-.86A11.34,11.34,0,0,0,78.22,35a6.09,6.09,0,0,0-1.07-3.37,5.68,5.68,0,0,0-1-1,.49.49,0,0,1-.14-.73,1.6,1.6,0,0,1,1.14-.78,2,2,0,0,1,2.16.76A3.19,3.19,0,0,1,80,31.66a7.73,7.73,0,0,1-.41,3A20.43,20.43,0,0,1,78,38.46S77.93,38.59,77.83,38.6Z" fill="#fff580"/>
            <path d="M71.21,20.86c.07,0,.14,0,.17.07S71.26,20.9,71.21,20.86Z" fill="#fff580"/>
            <path d="M33.77,78.81a3.84,3.84,0,0,1,.5.76c.67,1.08,1.4,2.13,2.13,3.18a.41.41,0,0,1,.05.09,1.8,1.8,0,0,1-1.05-.44,4,4,0,0,1-1.15-1.79,11.41,11.41,0,0,1-.45-1.4A1.33,1.33,0,0,1,33.77,78.81Z" fill="#ffc77f"/>
            <path d="M28.57,69.53s-.06-.06-.05-.06,0,0,.05.07Z" fill="#9f9850"/>
            <path d="M28.57,69.54a.07.07,0,0,1,.07.06h0a.08.08,0,0,1-.07-.08Z" fill="#9f9850"/>
            <path d="M63.29,75a1.11,1.11,0,0,0,0,.36c.05.14,0,.21-.17.22a1.13,1.13,0,0,1-.41,0,1.57,1.57,0,0,0-.61,0c-.28,0-.28,0-.3-.27a.48.48,0,0,1,.17,0A1,1,0,0,0,63.08,75C63.17,74.87,63.22,74.93,63.29,75Z" fill="#ffc77f"/>
            <path d="M49.53,62.58h-2c-.11,0-.23,0-.32-.07s0-.2.18-.19a.74.74,0,0,1,.21,0,4.83,4.83,0,0,0,1.26.06c.21,0,.41.08.61.08S49.52,62.53,49.53,62.58Z" fill="#ffc77f"/>
            <path d="M71.79,63.52c0,.14-.1.18-.22.19a.58.58,0,0,0-.32.1.75.75,0,0,1-.63.17c0-.15,0-.26.23-.26a.5.5,0,0,0,.37-.14C71.39,63.45,71.6,63.54,71.79,63.52Z" fill="#ffc77f"/>
            <path d="M65.17,66.6a.38.38,0,0,1,.13-.3,4.89,4.89,0,0,1,.62-.58,1.27,1.27,0,0,1-.46.84C65.39,66.63,65.26,66.58,65.17,66.6Z" fill="#ffc77f"/>
            <path d="M43.37,60.85a2.14,2.14,0,0,1-.69-.61.19.19,0,0,1,.25,0c.13.1.31.15.37.33A.68.68,0,0,1,43.37,60.85Z" fill="#ffc77f"/>
            <path d="M84.25,55.42c.26-.08.34-.05.34.17a1,1,0,0,1-.06.58c-.09,0-.15-.07-.14-.16A1.12,1.12,0,0,0,84.25,55.42Z" fill="#ffc77f"/>
            <path d="M42.12,56.23a1.89,1.89,0,0,1,.21.87c-.13,0-.23-.05-.24-.17A1.12,1.12,0,0,1,42.12,56.23Z" fill="#ffc77f"/>
            <path d="M41,57.44a.34.34,0,0,1-.15-.31c0-.14,0-.29,0-.43.28,0,.2.26.26.41S41.15,57.38,41,57.44Z" fill="#ffc77f"/>
            <path d="M52.29,63.17c-.18,0-.39,0-.48-.19C52.12,62.94,52.18,63,52.29,63.17Z" fill="#ffc77f"/>
            <path d="M40.54,55.64c0-.28,0-.28.35-.27A.32.32,0,0,1,40.54,55.64Z" fill="#ffc77f"/>
            <path d="M64.88,66.93c0-.14,0-.26.21-.27C65.1,66.81,65.06,66.92,64.88,66.93Z" fill="#ffc77f"/>
            <path d="M64.69,67.2a.2.2,0,0,1,.13-.21C64.81,67.08,64.83,67.18,64.69,67.2Z" fill="#ffc77f"/>
            <path d="M60,61.76a4.43,4.43,0,0,1,.94.72,11.66,11.66,0,0,1,1.31,1.32c.26.31.39.31.64,0A12.9,12.9,0,0,1,64.79,62a.32.32,0,0,1,.09,0,.24.24,0,0,1-.1.23,10.46,10.46,0,0,0-1.11,1,4.86,4.86,0,0,0-.76.81.43.43,0,0,1-.69,0,11.22,11.22,0,0,0-1-1c-.41-.36-.79-.76-1.22-1.11A.13.13,0,0,1,60,61.76Z" fill="#a4a6b3"/>
            <path d="M54.34,58.67a.17.17,0,0,1,.17,0c.67.28,1.34.55,2,.85a24.38,24.38,0,0,1,2.28,1.3l0,.06a.29.29,0,0,1-.3,0,1.79,1.79,0,0,0-.61-.4,6.23,6.23,0,0,1-.72-.43,8.34,8.34,0,0,0-.92-.41c-.3-.14-.56-.4-.92-.39C55,59,54.6,59,54.34,58.67Z" fill="#a4a6b3"/>
            <path d="M58.83,60.89a3.9,3.9,0,0,1,1.1.79.26.26,0,0,1-.28-.07,3,3,0,0,0-.69-.48A.2.2,0,0,1,58.83,60.89Z" fill="#a4a6b3"/>
            <path d="M77.34,59.21a.11.11,0,0,1-.1.08,2.22,2.22,0,0,1-.77,0s0-.07.07-.07A1.55,1.55,0,0,1,77.34,59.21Z" fill="#a4a6b3"/>
            <path d="M74.57,59.42a1.16,1.16,0,0,1-.79.18A1.15,1.15,0,0,1,74.57,59.42Z" fill="#a4a6b3"/>
            <path d="M81.17,55.47a.38.38,0,0,1-.12.5A.49.49,0,0,1,81.17,55.47Z" fill="#a4a6b3"/>
            <path d="M79.42,58.45a.39.39,0,0,1-.37.24C79.09,58.5,79.23,58.45,79.42,58.45Z" fill="#a4a6b3"/>
            <path d="M76.16,59.29c-.11.14-.25.09-.38,0A.26.26,0,0,1,76.16,59.29Z" fill="#a4a6b3"/>
            <path d="M81.18,53.62a.19.19,0,0,1,0,.34A.25.25,0,0,1,81.18,53.62Z" fill="#a4a6b3"/>
            <path d="M71.87,60a.26.26,0,0,1-.3.13C71.63,60,71.72,59.87,71.87,60Z" fill="#a4a6b3"/>
            <path d="M78.21,57.33a.29.29,0,0,1,.31-.16C78.47,57.33,78.35,57.34,78.21,57.33Z" fill="#a4a6b3"/>
            <path d="M79,58.74a.26.26,0,0,1-.33.13A.27.27,0,0,1,79,58.74Z" fill="#a4a6b3"/>
            <path d="M77.68,59.16c-.05.1-.14.09-.24.05C77.5,59.09,77.58,59.06,77.68,59.16Z" fill="#a4a6b3"/>
            <path d="M79.2,56.23c.07,0,.07-.12.15-.13s0,.24-.14.28A.76.76,0,0,0,79.2,56.23Z" fill="#a4a6b3"/>
            <path d="M81,56.35c0,.1,0,.19-.08.24C80.86,56.48,80.83,56.38,81,56.35Z" fill="#a4a6b3"/>
            <path d="M78.52,58.92c0,.1-.07.13-.17.1S78.42,58.88,78.52,58.92Z" fill="#a4a6b3"/>
            <path d="M54,58.61a.12.12,0,0,1,.18,0C54.09,58.73,54,58.68,54,58.61Z" fill="#a4a6b3"/>
            <path d="M62.55,82.65h-1.8A1.86,1.86,0,0,1,60,82.5a1.24,1.24,0,0,0-.57-.11,1.15,1.15,0,0,1-.72-.17l-.1,0c-.5,0-.92-.32-1.4-.39a.37.37,0,0,1-.25-.1.45.45,0,0,0-.31-.12.25.25,0,0,1-.13,0,4.15,4.15,0,0,0-.81-.42c-.23-.14-.48-.25-.72-.37s-.48-.3-.72-.44-.67-.49-1-.7a4.55,4.55,0,0,1-.74-.57,14.13,14.13,0,0,1-1.4-1.39A15.83,15.83,0,0,1,49.86,76c-.25-.39-.48-.8-.73-1.19a6.13,6.13,0,0,1-.35-.73,1.1,1.1,0,0,0-.21-.4s0,0,0,0a8.83,8.83,0,0,0-.36-1.1c0-.08,0-.19-.06-.25a1.53,1.53,0,0,1-.24-.86c0-.19-.16-.34-.19-.53a7,7,0,0,1-.12-1.12,11,11,0,0,0-.12-1.29,3.91,3.91,0,0,1,0-1.23,15,15,0,0,0,.15-1.63,1,1,0,0,1,.16-.54c.1-.13.06-.3.07-.45s0-.24.22-.24a8.09,8.09,0,0,1,1.1,0c.17,0,.24.1.23.26a1.64,1.64,0,0,1-.11.76,2.09,2.09,0,0,0-.16.78c0,.43,0,.86-.07,1.29a4,4,0,0,0,0,1,12.48,12.48,0,0,1,0,1.37,1.22,1.22,0,0,0,.19.73.85.85,0,0,1,.09.45,1,1,0,0,0,.2.69c.06.06,0,.14.07.22s0,.44.24.61a.14.14,0,0,1,0,.09c0,.43.37.75.51,1.14s.51.81.69,1.25a2.53,2.53,0,0,0,.33.42c.17.27.41.49.56.77a2.56,2.56,0,0,0,.39.42,14,14,0,0,0,1.66,1.52,7.9,7.9,0,0,0,1.5,1c.17.07.28.22.45.3a5.8,5.8,0,0,0,.62.27c.2.07.38.22.59.31a2,2,0,0,0,.67.22.34.34,0,0,1,.17.05,1.62,1.62,0,0,0,.83.26.15.15,0,0,1,.1,0c.21.21.49.16.74.2a2.05,2.05,0,0,1,.77.17.93.93,0,0,0,.44.08h3.18a1.09,1.09,0,0,0,.47-.09,2.47,2.47,0,0,1,.84-.17,1,1,0,0,0,.61-.17.83.83,0,0,1,.43-.09.65.65,0,0,0,.44-.16.13.13,0,0,1,.09,0,10.22,10.22,0,0,0,1.07-.34s.08,0,.1,0a8.07,8.07,0,0,1,1.32-.73c.61-.36,1.16-.8,1.74-1.22a7.76,7.76,0,0,0,1-1,10.46,10.46,0,0,0,1-1.11c.35-.47.71-.93,1-1.43s.46-1,.76-1.44a1,1,0,0,0,.07-.26c0-.15.12-.29.16-.43a8.1,8.1,0,0,0,.42-1.29,1.72,1.72,0,0,1,.17-.7A1.13,1.13,0,0,0,76,70c0-.54,0-1.09.06-1.63a4.27,4.27,0,0,0,0-1.13,5.91,5.91,0,0,1,0-.94,1.29,1.29,0,0,0-.13-.61,2.1,2.1,0,0,1-.15-1c0-.12.07-.17.19-.19a7.25,7.25,0,0,1,1.14,0,.19.19,0,0,1,.22.23,1.13,1.13,0,0,0,.16.64,1.14,1.14,0,0,1,.11.58,11.49,11.49,0,0,0,.13,1.66,2.13,2.13,0,0,1,0,.87.51.51,0,0,0,0,.13c0,.49-.09,1-.09,1.46a2.53,2.53,0,0,1-.23,1.17c-.09.18,0,.39-.09.59a.82.82,0,0,1-.06.26,2.75,2.75,0,0,0-.24.68c-.14.31-.21.65-.35,1a9.48,9.48,0,0,1-.5,1c-.16.26-.3.55-.46.81a14.48,14.48,0,0,1-.84,1.21,11,11,0,0,1-1.52,1.75c-.25.22-.48.47-.74.68a14.87,14.87,0,0,1-1.29,1c-.37.23-.73.48-1.12.69l-.84.44a2.28,2.28,0,0,1-.86.36c-.19,0-.31.22-.52.23a.84.84,0,0,0-.54.2.47.47,0,0,1-.35.1,1.08,1.08,0,0,0-.66.16.88.88,0,0,1-.5.11,1.83,1.83,0,0,0-.77.15,2,2,0,0,1-.68.12H62.55Z" fill="#fff"/>
            <path d="M47.44,52V49.13c0-.33.06-.39.4-.4h.79c.19,0,.26.09.25.25-.07,1.66,0,3.32,0,5v.2c0,.26.13.38.41.39a13.3,13.3,0,0,1,1.41.06,5.82,5.82,0,0,1,.6.14c.4.1.82,0,1.2.13s.91.16,1.33.31.62.14.92.24l1,.32c.43.14.81.36,1.24.48.26.07.48.25.74.34s.3.2.5.2.14.08.2.13a.46.46,0,0,0,.2.13c.31.12.6.3.9.45s.7.48,1.09.68a2.76,2.76,0,0,1,.64.43,7,7,0,0,0,.82.61l.24.19a.49.49,0,0,0,.67,0l0,0a1.34,1.34,0,0,1,.42-.33,5.81,5.81,0,0,0,.73-.55,4.48,4.48,0,0,1,.47-.28c.37-.21.65-.57,1.1-.66A7,7,0,0,1,67,56.83c.25-.14.53-.26.79-.38a4.23,4.23,0,0,0,1-.45.09.09,0,0,1,.06,0c.37,0,.67-.28,1-.33s.5-.27.81-.27a2.57,2.57,0,0,0,.62-.16A14.41,14.41,0,0,1,73,54.83a2.35,2.35,0,0,0,.65,0,6.87,6.87,0,0,1,2.12-.23c.43,0,.49-.06.49-.49V49a.22.22,0,0,1,.25-.25c.3,0,.6,0,.9,0s.33.11.29.34a1.82,1.82,0,0,0,0,.4v5.25a2.53,2.53,0,0,1-.12.72.46.46,0,0,1-.47.37,5.44,5.44,0,0,1-1,.08,2.58,2.58,0,0,0-.68.08,9,9,0,0,1-1,.06,3,3,0,0,0-1,.17,1.71,1.71,0,0,1-.5.1,1.12,1.12,0,0,0-.45.06c-.48.2-1,.17-1.51.42a.6.6,0,0,1-.19.06,7.36,7.36,0,0,0-.71.22,7.11,7.11,0,0,1-1.1.37.3.3,0,0,0-.16.05c-.32.21-.7.32-1,.51s-.54.29-.81.42-.7.41-1.05.62a16.32,16.32,0,0,0-1.47,1c-.42.3-.81.65-1.2,1-.16.14-.31.29-.48.43a.22.22,0,0,1-.33,0c-.21-.19-.44-.38-.65-.58a14.47,14.47,0,0,0-1.31-1c-.42-.3-.86-.58-1.29-.88a2.69,2.69,0,0,0-.8-.43,1.72,1.72,0,0,1-.47-.28,8.1,8.1,0,0,0-.94-.45c-.28-.13-.58-.26-.87-.37A5,5,0,0,1,55,57s-.05,0-.08,0c-.53,0-1-.37-1.49-.36a.42.42,0,0,1-.27-.07,1.31,1.31,0,0,0-.75-.19,2.76,2.76,0,0,1-.81-.15,2.49,2.49,0,0,0-.81-.12,8.94,8.94,0,0,1-1.37-.11c-.38-.06-.78,0-1.17-.09a1.77,1.77,0,0,1-.4-.08.24.24,0,0,1-.18-.14,3.1,3.1,0,0,1-.19-.74C47.45,53.92,47.44,53,47.44,52Z" fill="#fff"/>
            <path d="M55.93,69.76a1.64,1.64,0,0,0,1.33-.66c.07-.12.13-.1.22,0a1.48,1.48,0,0,1,.43.57.6.6,0,0,0,.19.3.37.37,0,0,1,0,.6,10.07,10.07,0,0,1-.88.56.49.49,0,0,1-.27.06,1.87,1.87,0,0,0-.57.12,1.16,1.16,0,0,1-.84,0,1.8,1.8,0,0,0-.57-.11.34.34,0,0,1-.2,0,5.38,5.38,0,0,1-1.22-.89c-.24-.24-.27-.58-.52-.8a.15.15,0,0,1,0-.09,6.59,6.59,0,0,0-.16-1,1.36,1.36,0,0,1,.08-.69,1.27,1.27,0,0,0,.11-.38.8.8,0,0,1,.21-.51c.12-.14.16-.33.34-.46s.13-.23.28-.25a.62.62,0,0,1,.46.12,8.73,8.73,0,0,0,.82.52c.17.1.17.22,0,.31a1.42,1.42,0,0,0-.67,1.54,1.35,1.35,0,0,0,.58.9C55.33,69.69,55.67,69.63,55.93,69.76Z" fill="#fff"/>
            <path d="M62.56,53.42a11.81,11.81,0,0,1,2.72.23c.36.06.71.14,1.07.23s.81.22,1.22.34c.08,0,.2,0,.21.13s-.11.16-.2.19c-.47.17-.91.43-1.36.64a1.46,1.46,0,0,1-1.19.15,3.08,3.08,0,0,0-.68-.08,14.08,14.08,0,0,0-1.72-.14,12.29,12.29,0,0,0-1.82.14,7.31,7.31,0,0,0-1,.15,1.23,1.23,0,0,1-.82-.2c-.43-.2-.85-.43-1.3-.61-.11,0-.31-.07-.3-.23s.22-.12.34-.15.08,0,.11,0c.42-.28,1-.2,1.4-.42a.66.66,0,0,1,.2-.06,15.68,15.68,0,0,1,3-.29Z" fill="#fff"/>
            <path d="M23.56,24.21c.09.46.18.92.27,1.42a3.72,3.72,0,0,0,.17-.74,4.36,4.36,0,0,1,.14-.72c.62.36,1.19.77,1.78,1.16l3.83,2.57a.51.51,0,0,1,.26.49c0,1.08,0,2.16,0,3.25.05,1.43,0,2.87.07,4.3,0,.23,0,.45,0,.67A.35.35,0,0,1,30,37l-2.34,1.66-3.51,2.49-.08.06c-.28.19-.28.19-.54,0l-2.63-1.89L17.67,37a.45.45,0,0,1-.23-.44c.06-1.55.09-3.1.16-4.64,0-.47,0-.94,0-1.41,0-.71.06-1.42.07-2.13a.52.52,0,0,1,.27-.49L20.83,26a2.83,2.83,0,0,0,.28-.2c.26.1.41.34.69.41,0,0,0,0,0,0l0,0c-.07-.22-.28-.37-.37-.58Zm5.73,4.45c-.1,0-.14,0-.19.08l-.89.68-1.8,1.39-1.86,1.42-1.71,1.29-2,1.54L19,36.47c-.17.13-.16.2,0,.33l.14.09,2.31,1.62,2,1.39c.29.2.3.2.6,0l1.7-1.18c1.1-.77,2.19-1.55,3.29-2.31a.51.51,0,0,0,.27-.49v-7C29.33,28.84,29.36,28.73,29.29,28.66Z" fill="#14c3f3"/>
            <path d="M23.56,46.78l-9.94-7.29,1.13-.64,1.65-.92a.33.33,0,0,1,.43,0l4.64,3.35c.55.4,1.1.8,1.66,1.19a.42.42,0,0,1,.2.33c.05.65.08,1.31.14,2,.05.46,0,.93.1,1.39A1.4,1.4,0,0,1,23.56,46.78Z" fill="#1d70d5"/>
            <path d="M33.9,39.51,24,46.66a.15.15,0,0,1-.18,0c0-.2,0-.41.05-.61.07-.38,0-.77.11-1.15a7.75,7.75,0,0,0,.07-1,8.16,8.16,0,0,0,.09-1.1.38.38,0,0,1,.2-.36L27,40.65l2.66-1.9c.37-.26.74-.52,1.1-.79a.36.36,0,0,1,.44,0l2.5,1.41Z" fill="#355d9d"/>
            <path d="M13.64,39.19c0-.42,0-.77,0-1.12.07-1.32.11-2.65.17-4s.13-2.89.21-4.34c.06-1,.11-2,.14-3,0-.25,0-.51.06-.75.1-.05.14,0,.19.06.63.53,1.26,1.08,1.9,1.61a.53.53,0,0,1,.21.45c-.07,1.74-.12,3.47-.18,5.21,0,1.14-.09,2.29-.13,3.44a.6.6,0,0,1-.24.51l-2.18,1.8S13.73,39.12,13.64,39.19Z" fill="#14c3f3"/>
            <path d="M33.87,39.16a11.62,11.62,0,0,1-1-.79c-.46-.38-.91-.78-1.38-1.16a.4.4,0,0,1-.17-.37v-.43c0-1.56-.06-3.12-.1-4.68,0-1,0-2,0-3,0-.24-.07-.48-.05-.73a.33.33,0,0,1,.12-.29L33.32,26a.13.13,0,0,1,.15,0,3.91,3.91,0,0,1,.08.61v.87c0,1,.06,2.09.09,3.13,0,.68,0,1.36.07,2s0,1.58.07,2.36,0,1.39.06,2.07,0,1.16.06,1.74A.94.94,0,0,1,33.87,39.16Z" fill="#1d70d5"/>
            <path d="M24.35,22.94c0-.34.11-.66.15-1,0-.11.08-.14.18-.16.81-.11,1.6-.28,2.41-.36l6.41,4.2-1.26.7c-.42.24-.85.45-1.25.7a.42.42,0,0,1-.53,0l-6-4Z" fill="#14c3f3"/>
            <path d="M20.67,21.46c.79.07,1.56.24,2.35.35.11,0,.15.07.16.17l.18,1-.82.53a3.52,3.52,0,0,1-.72.43c0-.08,0-.19-.16-.09l-.87.6c-.23.16-.23.16-.47,0s-.43-.3-.64-.44-.17-.15-.29-.15,0,.15.07.21c.19.27.39.53.58.79s.12.21-.11.37l-.07.11h0c-.13,0-.21.09-.3.15L17.23,27a.37.37,0,0,1-.46,0c-.72-.42-1.45-.81-2.18-1.22-.09-.06-.21-.09-.29-.23Z" fill="#14c3f3"/>
            <path d="M19.93,25.24c.23-.16.24-.18.11-.37s-.39-.52-.58-.79c0-.06-.12-.11-.07-.21s.2.09.29.15l.64.45c.24.16.24.16.47,0l.87-.6c.13-.1.14,0,.16.09h0c-.06,0-.08,0-.08.08a1.51,1.51,0,0,0-.37.43c-.13.19-.39.36-.36.57a1.23,1.23,0,0,0,.42.59c.09.21.3.36.37.58h0c-.28-.06-.43-.31-.69-.4l0-.06c-.18-.1-.32-.31-.52-.31s-.32.19-.48.3l-.62.42-.09,0,.39-.55c.05-.08.15-.13.12-.25h0C19.94,25.35,20,25.31,19.93,25.24Z" fill="#fff"/>
            <path d="M26,20.73a11.65,11.65,0,0,1-1.32-.19.18.18,0,0,1-.19-.16,3.94,3.94,0,0,1-.08-.69A18.89,18.89,0,0,1,26,20.73Z" fill="#14c3f3"/>
            <path d="M23.28,19.78c0,.1,0,.2,0,.3-.07.43-.07.43-.5.5l-.87.13A14.93,14.93,0,0,1,23.28,19.78Z" fill="#14c3f3"/>
            <path d="M19.35,26.14l.1,0c0,.06-.06.07-.12.08l0,0S19.31,26.14,19.35,26.14Z" fill="#a4a6b3"/>
            <path d="M19.33,26.24s0,0-.07,0,0,0,0,0Z" fill="#a4a6b3"/>
            <path d="M21.42,25.63A1.23,1.23,0,0,1,21,25c0-.21.23-.38.36-.57a1.51,1.51,0,0,1,.37-.43s.08,0,.08-.08h0a3.52,3.52,0,0,0,.72-.43l.82-.53a7.11,7.11,0,0,1,.2,1.21Z" fill="#01376d"/>
            <path d="M29.29,28.66c.07.07,0,.18,0,.27v7a.53.53,0,0,1-.27.49c-1.1.76-2.19,1.54-3.29,2.31l-1.7,1.18c-.3.21-.31.21-.6,0l-2-1.39-2.31-1.62A1.1,1.1,0,0,1,19,36.8c-.17-.13-.18-.2,0-.33l1.83-1.41,2-1.53,1.71-1.3,1.86-1.42,1.8-1.38.89-.69S29.19,28.63,29.29,28.66Z" fill="#0590e5"/>
            <path d="M21.79,26.21l0,0s0,0,0,0Z" fill="#fff"/>
            <path d="M19.93,25.24c0,.07,0,.11-.07.11Z" fill="#01376d"/>
            <path d="M21.81,24c0,.05,0,.07-.08.08S21.75,24,21.81,24Z" fill="#14c3f3"/>
          </g>
        </g>
      </g>
    </g>
  </g>
</svg>
