<?xml version="1.0" standalone="yes"?>
<svg width="96" height="96">
<path style="fill:#000000; stroke:none;" d="M0 0L0 96L96 96L96 0L0 0z"/>
<path style="fill:#ffffff; stroke:none;" d="M15 10L15 11L18 11L18 12L13 13L14 11C9.92424 13.1604 6.58015 16.3391 5.41898 21C2.06513 34.4622 4.99465 52.1215 5 66C5.00236 72.1112 5.29859 77.3454 10.1049 81.7755C19.6637 90.5859 45.1226 88.2596 48 74L49 74C50.7185 79.7851 53.9372 83.7759 60 85L60 84L56 83L56 82C65.2798 84.9417 75.7202 84.9417 85 82L85 83L81 84L81 85C85.9788 83.6945 88.9759 80.6813 91 76L90 76L90 78L89 78L90 20L91 20L91 75L92 75L92 34C92 28.1525 93.1139 21.0389 89.4861 16.0154C81.8515 5.44363 59.1986 5.97704 51.419 16.0154C47.0006 21.7167 48 29.2304 48 36L47 36L46 18L47 18L47 21L48 21C47.0014 16.0539 44.4182 13.313 40 11L41 13L40 13L36 12L36 11L39 11C33.2381 7.06364 21.5574 8.4388 15 10z"/>
<path style="fill:#000000; stroke:none;" d="M18 10L18 11L36 11L18 10M50 37C45.6846 36.0448 41.3963 37.4639 37.0147 36.8565C32.1657 36.1843 27.4202 31.8632 22.3796 35.0278C13.2762 40.7431 15 58.0181 15 67L16 67L20 39L21 39C21 45.3149 17.7307 67.5323 25 69L19 73L19 72L21 71C18.6838 69.6103 18.6255 67.8723 18 71L17 71L17 68L16 68C19.0682 82.7116 30.3354 63.631 31 57C24.7672 55.1079 23.5973 44.3548 31.0193 43.1481C34.5793 42.5694 42.6399 41.8467 45.3966 44.6034C47.9813 47.1881 47 52.6941 47 56C47 65.8889 48.9841 79.4324 37 83.196C33.7884 84.2046 30.3218 84 27 84C2.28028 84 7 61.2959 7 43C7 33.2707 4.72208 20.9267 13 14L13 13C8.23502 15.442 6.30593 19.7139 6.04012 25C5.40649 37.6015 6 50.3818 6 63C6 69.2218 5.43615 75.9871 10.2245 80.7755C18.6629 89.2138 43.3158 87.355 47.196 75C50.3689 64.8968 46.535 53.3535 49 43L50 43C47.6204 52.9951 45.5391 76.2571 56 82C48.5321 70.505 51 56.3455 51 43C55.7544 43 64.597 41.3018 68.6821 44.0278C73.7683 47.4218 70.8018 55.5423 66 57C67.5245 64.2885 70.6748 75.2474 80 73L80 72L73 70C79.6512 65.688 75.2279 47.4435 77 40L81 56L82 56C81.8964 43.4891 78.4256 34.0015 65 34L65 37L51 37C51 30.8158 49.4122 22.2354 53.4336 17.044C61.4195 6.7347 83.1745 8.87208 89 20C91.342 8.33397 67.7339 8.89635 61 10.5332C48.8679 13.4821 48.8682 26.8677 50 37M41 13L41 14L45 18L46 18L41 13z"/>
<path style="fill:#ffffff; stroke:none;" d="M21 39L22 39C27.614 33.2734 38.9863 40.3687 47 38C40.3689 36.9651 24.5655 32.5341 21 39M66 35L66 36L76 40C76.482 34.4005 70.0356 35.0031 66 35M50 37L50 38L66 38L66 37L50 37M77 40C74.4062 48.775 79.8431 63.2987 73 70C77.8138 74.8585 80.6338 70.4009 80.9637 65C81.4595 56.884 82.1051 46.8519 77 40M25 69L26 69L30 58C23.3803 54.6613 23.63 46.4729 29 42C19.1049 41.7806 26.5459 56.816 27.0262 61C27.3263 63.6137 25.704 66.5249 25 69z"/>
<path style="fill:#0000ff; stroke:none;" d="M29 41L30 42L29 41z"/>
<path style="fill:#ff00ff; stroke:none;" d="M30 41L31 42L30 41z"/>
<path style="fill:#0000ff; stroke:none;" d="M31 41L31 42L42 42L31 41z"/>
<path style="fill:#ffffff; stroke:none;" d="M42 41L43 42L42 41z"/>
<path style="fill:#0000ff; stroke:none;" d="M43 41L44 42L43 41z"/>
<path style="fill:#ffffff; stroke:none;" d="M44.6667 41.3333L45.3333 41.6667L44.6667 41.3333M50 42L50 43L54 42L50 42z"/>
<path style="fill:#0000ff; stroke:none;" d="M54 41L54 42L66 42L54 41z"/>
<path style="fill:#ff00ff; stroke:none;" d="M66 41L67 42L66 41z"/>
<path style="fill:#0000ff; stroke:none;" d="M67 41L68 42L67 41z"/>
<path style="fill:#ffffff; stroke:none;" d="M68 41L68 42L71 42L68 41M46 42L47 43L46 42M71 42L72 43L71 42M47 43L48 44L47 43M72 43L72 57L73 57L72 43z"/>
<path style="fill:#a29fff; stroke:none;" d="M9 44L9 61L10 61L13 59L15 44L9 44z"/>
<path style="fill:#b7b4ff; stroke:none;" d="M82 44L85 51L88 44L82 44z"/>
<path style="fill:#d8d7ff; stroke:none;" d="M88 44L88 72L89 72L88 44z"/>
<path style="fill:#a29fff; stroke:none;" d="M28 45L28 55L33 58L34 58L34 55L45 55L45 45L28 45z"/>
<path style="fill:#b5b1ff; stroke:none;" d="M52 45L52 72L53 72L53 50C58.7112 50 67.7967 52.2102 69 45L52 45z"/>
<path style="fill:#7874ff; stroke:none;" d="M84 48L86 71L87 71L88 50L84 48z"/>
<path style="fill:#9794ff; stroke:none;" d="M68 49L53 50L54 63L64 63L64 55L69 55L68 49z"/>
<path style="fill:#c1bfff; stroke:none;" d="M84 53L84 63L85 63L84 53z"/>
<path style="fill:#d2d0ff; stroke:none;" d="M29 55L29 56L33 56L29 55z"/>
<path style="fill:#8d89ff; stroke:none;" d="M34 55L34 62L45 62L45 55L34 55z"/>
<path style="fill:#cfcdff; stroke:none;" d="M64 55L64 56L69 56L64 55z"/>
<path style="fill:#0000ff; stroke:none;" d="M81 56L82 57L81 56z"/>
<path style="fill:#000000; stroke:none;" d="M82.3333 57.6667L82.6667 58.3333L82.3333 57.6667z"/>
<path style="fill:#ffffff; stroke:none;" d="M67 58L72 70L73 70L70 58L67 58z"/>
<path style="fill:#8080ff; stroke:none;" d="M81 58L82 59L81 58z"/>
<path style="fill:#827eff; stroke:none;" d="M10 59L9 68L10 68L10 64L11 64L11 67L12 67L13 59L10 59z"/>
<path style="fill:#7774ff; stroke:none;" d="M33 59C29.5743 67.5815 37.2004 67.7475 44 67L44 73L45 73L45 62L33 59z"/>
<path style="fill:#0000ff; stroke:none;" d="M81 59L82 60L81 59z"/>
<path style="fill:#000000; stroke:none;" d="M81 60L81 69L82 69L81 60z"/>
<path style="fill:#6965ff; stroke:none;" d="M53 62L54 73L68 72L65 62L53 62z"/>
<path style="fill:#5b57ff; stroke:none;" d="M10 64C9.35511 69.1297 8.39799 74.5535 12.419 78.6968C17.8082 84.2498 37.5428 84.097 42.3966 77.7724C44.6443 74.8436 43.9996 70.4627 44 67L31 65L23 77C16.9152 74.6056 13.6727 70.5253 13 64L12 64L12 67L11 67L10 64z"/>
<path style="fill:#4945ff; stroke:none;" d="M87 64L87 71L86 71L84 67C79.3165 78.4757 72.7269 75.0051 67 66L66 66L68 72L54 71L53 71C54.9411 89.8169 96.0159 85.486 87 64z"/>
<path style="fill:#000000; stroke:none;" d="M79 67L80 68L79 67z"/>
<path style="fill:#ffffff; stroke:none;" d="M24.3333 69.6667L24.6667 70.3333L24.3333 69.6667z"/>
<path style="fill:#0000ff; stroke:none;" d="M26 69L27 70L26 69z"/>
<path style="fill:#000000; stroke:none;" d="M78 69L76 71L76 72L78 69M80.3333 69.6667L80.6667 70.3333L80.3333 69.6667z"/>
<path style="fill:#0000ff; stroke:none;" d="M23 70L24 71L23 70z"/>
<path style="fill:#ffffff; stroke:none;" d="M18 71L19 72L18 71z"/>
<path style="fill:#0000ff; stroke:none;" d="M80 71L81 72L80 71z"/>
<path style="fill:#0c00ff; stroke:none;" d="M21.6667 76.3333L22.3333 76.6667L21.6667 76.3333z"/>
<path style="fill:#000000; stroke:none;" d="M88 78L85 82L88 78z"/>
<path style="fill:#0000ff; stroke:none;" d="M88 80L89 81L88 80z"/>
<path style="fill:#a09fff; stroke:none;" d="M16.6667 81.3333L17.3333 81.6667L16.6667 81.3333z"/>
<path style="fill:#a1a0ff; stroke:none;" d="M35.6667 81.3333L36.3333 81.6667L35.6667 81.3333z"/>
<path style="fill:#ffffff; stroke:none;" d="M61 85L61 86L80 86L61 85z"/>
</svg>
