<svg xmlns="http://www.w3.org/2000/svg" viewBox="0 0 96 96">
  <g id="Layer_2" data-name="Layer 2">
    <g id="Layer_1-2" data-name="Layer 1">
      <g id="Layer_2-2" data-name="Layer 2">
        <g id="Layer_1-2-2" data-name="Layer 1-2">
          <g>
            <path d="M33.9,54.93A12.78,12.78,0,0,0,33,57.57a29.74,29.74,0,0,0-1.1,6.35A29.09,29.09,0,0,0,40.3,86.21a31.18,31.18,0,0,0,9.89,6.68,31.69,31.69,0,0,0,32.19-4.72,30,30,0,0,0,8.49-11.48A29,29,0,0,0,86,46.87,31.61,31.61,0,0,0,76,39.18a30.39,30.39,0,0,0-10.38-2.9,32,32,0,0,0-12.93,1.37,38.85,38.85,0,0,0-5.57,2.44,21.67,21.67,0,0,0,.73-8.69,23.54,23.54,0,0,0-3.71-10,22.37,22.37,0,0,0-4-4.45,23,23,0,0,0-5.67-3.7A25.37,25.37,0,0,0,25.29,11a24.5,24.5,0,0,0-18.5,7.31A22.65,22.65,0,0,0,2,25.85,22.19,22.19,0,0,0,.43,35.27a23.14,23.14,0,0,0,10.82,18,24.76,24.76,0,0,0,8.19,3.24A25.38,25.38,0,0,0,33.9,54.93Z" fill="#fdfdfe"/>
            <path d="M62.54,92.58c-15.25,0-27.71-12-27.68-26.83a25.54,25.54,0,0,1,8.12-19,27.33,27.33,0,0,1,19.64-7.85,27.31,27.31,0,0,1,19.7,7.91,25.58,25.58,0,0,1,8.07,19.24C90.25,80.62,78,92.62,62.54,92.58Zm-22.47-26c.17,0,.24.15.31.29A3,3,0,0,0,41.56,68c.63.36,1.26.7,1.89,1l3.81,2.15,3.44,1.92a4.15,4.15,0,0,0,1.22.53,3,3,0,0,0,2-.4l1.43-.8c2.14-1.21,4.27-2.43,6.41-3.62,1.36-.76,2.72-1.5,4.07-2.27,1.53-.87,3.06-1.72,4.6-2.58l.92-.53a3.3,3.3,0,0,1,1.78-.32,2.88,2.88,0,0,1,1.35.34c.68.35,1.34.74,2,1.12l2.87,1.6a3.66,3.66,0,0,1,.95.75A2.52,2.52,0,0,1,81,68.71c0,1.92,0,3.83,0,5.75a3.75,3.75,0,0,1-.18,1.4,5.68,5.68,0,0,1-.6,1c-.19.3-.57.42-.87.62a6.09,6.09,0,0,1-.89.52c-.42.19-.75.5-1.17.65s-.59.45-1,.56a1.27,1.27,0,0,0-.57.36.26.26,0,0,1-.11.07c-.6.14-1,.67-1.63.76l0,0a.52.52,0,0,1-.45.13,4,4,0,0,0-.69,0,2.63,2.63,0,0,1-1.11-.27,8.07,8.07,0,0,1-1.23-.66c-.87-.47-1.71-1-2.57-1.45-.56-.32-1.14-.62-1.69-1a2.79,2.79,0,0,1-1.37-2.41c0-.9,0-1.81,0-2.71v-.23c0-.17-.07-.22-.22-.21a.52.52,0,0,0-.27.05,7.45,7.45,0,0,1-.75.37,2.34,2.34,0,0,0-.64.39.4.4,0,0,1-.2.12,3.63,3.63,0,0,0-.92.47,3.57,3.57,0,0,1-.74.41.71.71,0,0,0-.49.72v3.2a2.22,2.22,0,0,0,0,.37,3.09,3.09,0,0,0,1.55,2c.61.38,1.25.7,1.88,1l3,1.71,1.77,1,2.41,1.36a2.48,2.48,0,0,0,1.59.44,3.37,3.37,0,0,1,.55,0,1.69,1.69,0,0,0,.86-.22c1.18-.66,2.36-1.31,3.53-2l5.61-3.15a4.7,4.7,0,0,0,1-.66,2.9,2.9,0,0,0,.9-2.14V66.61c0-.11,0-.23,0-.34a2.62,2.62,0,0,0-.72-1.62,4.61,4.61,0,0,0-1.19-.85c-1-.55-2-1.14-3-1.71-.57-.32-1.16-.63-1.73-1-.82-.48-1.65-.92-2.47-1.4-.41-.24-.84-.46-1.25-.71a3.38,3.38,0,0,0-2.29-.66h-.14a.47.47,0,0,0-.16,0,4.5,4.5,0,0,0-.74.33c-.16.11-.37.12-.5.26a2.47,2.47,0,0,1-.75.44,2.24,2.24,0,0,0-.66.4.39.39,0,0,1-.17.11,2,2,0,0,0-.78.45.46.46,0,0,1-.18.1,2,2,0,0,0-.62.32,1.23,1.23,0,0,1-.36.23,1.46,1.46,0,0,0-.66.4.39.39,0,0,1-.1.08,6.41,6.41,0,0,0-1.24.66,9,9,0,0,1-1,.55,12.9,12.9,0,0,1-1.24.6,1.5,1.5,0,0,0-.53.28,2.58,2.58,0,0,1-.72.41,4.77,4.77,0,0,0-1.08.61.38.38,0,0,1-.15.09c-.2.08-.39.2-.6.28s-.41.31-.62.39c-.45.16-.77.52-1.21.66s-.55.45-.92.55-.4.3-.62.38c-.44.17-.78.49-1.2.67-.24.1-.4.31-.62.39-.44.16-.77.5-1.2.67-.22.08-.4.26-.65.26H51.8a1.23,1.23,0,0,1-.37-.08,13.55,13.55,0,0,1-2-1.06c-.75-.41-1.47-.86-2.21-1.29-.56-.33-1.13-.64-1.67-1a2.56,2.56,0,0,1-1.22-2.18c0-2.07,0-4.14,0-6.21a2.16,2.16,0,0,1,.43-1.27,3.66,3.66,0,0,1,1-.93c.5-.31,1-.59,1.53-.89a4.52,4.52,0,0,0,1.11-.64s.09,0,.13-.06a4.38,4.38,0,0,0,1.12-.62s.09,0,.14-.08a4.77,4.77,0,0,0,1.13-.62,1,1,0,0,1,.52-.24,5.79,5.79,0,0,1,1.44,0,1.08,1.08,0,0,0,.31,0A1.34,1.34,0,0,1,54,52q.72.38,1.41.81c.49.31,1,.6,1.5.89.73.41,1.45.84,2.18,1.26a2.72,2.72,0,0,1,1.44,2.44c0,1.09,0,2.18,0,3.27a.79.79,0,0,0,0,.31.09.09,0,0,0,.11,0c.91-.49,1.79-1,2.71-1.48.41-.21.8-.48,1.22-.69a.42.42,0,0,0,.24-.43c0-1.17,0-2.34,0-3.51a2.2,2.2,0,0,0,0-.36,3,3,0,0,0-1.56-2.06l-1.85-1c-1.14-.64-2.27-1.3-3.41-2L56.05,48.4c-.73-.4-1.44-.83-2.16-1.25a1.56,1.56,0,0,0-.92-.23H52.1a.79.79,0,0,0-.3,0c-.34.14-.67.31-1,.47a2,2,0,0,0-.53.29,1.48,1.48,0,0,1-.36.23c-.22.12-.5.17-.66.41a.27.27,0,0,1-.1.08,7.86,7.86,0,0,0-1.57.83c-.12.07-.29.06-.39.2s-.43.26-.65.39a2.9,2.9,0,0,0-.76.44.3.3,0,0,1-.13.09,2.16,2.16,0,0,0-.81.46.19.19,0,0,1-.11.07,1.79,1.79,0,0,0-.81.47c0,.05-.1.05-.15.08a3.75,3.75,0,0,0-1.11.61l-.12.07a2.09,2.09,0,0,0-.8.47c-.05.06-.13,0-.18.08a2.56,2.56,0,0,0-.77.48,6,6,0,0,0-.65.93,1.86,1.86,0,0,0-.23,1v10.3c0,.17,0,.35,0,.53a1.59,1.59,0,0,0,0,.53C39.91,66.65,40,66.65,40.07,66.56Z" fill="#8248e5"/>
            <path d="M44.47,94.47a6.49,6.49,0,0,1-1.6-.51A11.67,11.67,0,0,1,40,92.11a20.34,20.34,0,0,1-3-3.3c-1.16-1.54-2.15-3.16-3.24-4.74-1.29-1.88-2.68-3.7-4.09-5.5-1-1.27-2-2.53-3.08-3.76-.74-.86-1.48-1.71-2.25-2.54-1-1.11-2.05-2.2-3.15-3.22a19.63,19.63,0,0,0-3-2.41A5.34,5.34,0,0,0,16.7,66a2.23,2.23,0,0,0-.78-.08,1.22,1.22,0,0,0-1,.73,1.71,1.71,0,0,0-.16.71,7.72,7.72,0,0,0,.31,2.34,38.51,38.51,0,0,0,1.34,3.92C17,75,17.58,76.44,18,77.89a6.78,6.78,0,0,1,.43,2.22c0,.18,0,.41-.14.49s-.32-.12-.45-.24A28.32,28.32,0,0,1,15.57,78c-.75-.83-1.49-1.67-2.22-2.51S11.77,73.65,11,72.72c-.29-.34-.58-.69-.85-1,.47.33.82.79,1.28,1.14l.08.07h0a.1.1,0,0,0,.08.07h0a.12.12,0,0,0,.14.07h0c0,.12.08.18.15.25a9.6,9.6,0,0,0,.79.64,2.79,2.79,0,0,0,.63.4c.1,0,.2.08.29,0s.06-.15,0-.24c-.1-.36-.18-.72-.29-1.07a25.2,25.2,0,0,0-1.71-4.17c-.68-1.34-1.36-2.68-2.08-4C9,63.8,8.44,62.76,8,61.7a25.7,25.7,0,0,1-1.49-3.94A16.21,16.21,0,0,1,6,55.47c0-.46,0-.93,0-1.4a2.09,2.09,0,0,1,.16-.78,1.31,1.31,0,0,1,1.06-.86,3.05,3.05,0,0,1,1,0,7.06,7.06,0,0,1,1.94.66c.09,0,.19.17.3.08s0-.18,0-.28v-.1c.41.17.75.44,1.13.64a19.12,19.12,0,0,0,2.06,1.07l.14.1c-.06.09-.11.18-.17.26a4.76,4.76,0,0,0-1,2,2,2,0,0,0,0,1,.27.27,0,0,0,.16-.09l2.55-2.54,0,0c.84.28,1.69.55,2.55.79a.73.73,0,0,0,.12.34c.36.59.71,1.19,1.08,1.78q1.2,1.91,2.58,3.69c.52.68,1.07,1.36,1.64,2s1.18,1.38,1.83,2c.12.12.23.25.34.38s.22.31.44.34h0a.13.13,0,0,0,.07.14l.27.33a.17.17,0,0,0,.07.14h0a.88.88,0,0,0,.13.3l1.19,2.23c1.07,2,2.08,4.07,3.17,6.08.63,1.18,1.27,2.35,1.93,3.51.39.68.79,1.35,1.2,2,.56.91,1.12,1.81,1.72,2.7.77,1.16,1.55,2.31,2.4,3.42s1.72,2.22,2.67,3.26c.5.56,1,1.13,1.53,1.67C43,93.1,43.72,93.8,44.47,94.47ZM12.59,70s0-.1-.05-.07,0,.06.05.07a.62.62,0,0,0,.06.26c.59,1.22,1.14,2.47,1.63,3.74a9.55,9.55,0,0,1,.51,1.83c0,.26,0,.52-.29.65a1,1,0,0,0,.49.2c.33.06.49-.06.5-.38a1.87,1.87,0,0,0,0-.53,11,11,0,0,0-.38-1.1A33,33,0,0,0,13,70.61,1.44,1.44,0,0,0,12.59,70Zm-1.25-4.68A18.64,18.64,0,0,0,11.22,63a17.43,17.43,0,0,0-.3-2,4.15,4.15,0,0,0-.61-1.62c-.1-.14-.21-.39-.42-.31s-.15.34-.12.52c.08.51.19,1,.3,1.53.24,1,.52,2,.83,2.91a9,9,0,0,0,.44,1.29Z" fill="#ffa3a3"/>
            <path d="M21.63,53.83a.58.58,0,0,1-.26,0c-.08-.1-.19-.06-.29-.06a.57.57,0,0,1-.26,0c-.06-.09-.14-.08-.23-.06H20.4c0-.09-.14-.07-.22-.06h-.05c-.08-.1-.19-.07-.29-.06h-.06c-.06-.09-.14-.08-.23-.06h-.11c-.06-.09-.15-.07-.23-.06h-.05c-.06-.08-.14-.07-.23-.06h-.05c-.05-.09-.14-.08-.22-.06h-.05c-.06-.09-.15-.07-.23-.06h-.05c0-.07-.1-.07-.17,0h0c0-.07-.1-.07-.17-.06h0v0c-.06-.09-.15-.07-.23-.06h-.05a.13.13,0,0,0-.17-.05h0c0-.07-.1-.07-.17-.06h0c0-.06-.08-.07-.15-.06h0c0-.08-.1-.08-.17-.06h0a.14.14,0,0,0-.18-.06h0a.29.29,0,0,0-.31-.12h0a.31.31,0,0,0-.31-.13h0v0a.13.13,0,0,0-.15-.06h0a.26.26,0,0,0-.3-.13h0c0-.06-.08-.07-.15-.06h0c0-.07-.07-.08-.13-.07h0c0-.07-.08-.08-.14-.06h0c0-.08-.08-.08-.14-.07h0c0-.07-.07-.08-.14-.07h0c0-.07-.07-.08-.14-.06h0c0-.08-.07-.08-.14-.07h0c0-.07-.07-.08-.13-.07h0c0-.07-.08-.08-.14-.06h0c0-.08-.08-.08-.14-.07h0c0-.08-.08-.08-.14-.07h0c0-.07-.07-.08-.14-.07h0c0-.11-.09-.15-.21-.13h0c0-.08-.07-.08-.14-.07h0c0-.07-.07-.08-.13-.06h0a.17.17,0,0,0-.21-.14h0a.32.32,0,0,0-.35-.2h0c0-.11-.09-.15-.21-.13h0a.16.16,0,0,0-.2-.14h0a.16.16,0,0,0-.21-.13h0a.16.16,0,0,0-.21-.13h0a.24.24,0,0,0-.27-.2h0a.16.16,0,0,0-.21-.14h0c-.05-.12-.12-.22-.28-.2h0a.35.35,0,0,0-.34-.27h0a.52.52,0,0,0-.42-.33h0a2.37,2.37,0,0,0-.56-.58s-.09,0-.13,0h0c0-.12-.13-.18-.21-.26l-.84-.81c-.08-.08-.14-.18-.27-.2h0c0-.25-.22-.36-.41-.47H8c0-.22-.18-.32-.35-.4h0c0-.19-.12-.28-.28-.34h0c0-.15-.07-.22-.2-.27h0c0-.15-.08-.22-.21-.26H7a.16.16,0,0,0-.14-.21h0c0-.15-.08-.22-.21-.26h0a.15.15,0,0,0-.13-.2h0a.16.16,0,0,0-.14-.2h0c0-.07,0-.12-.07-.14h0a.16.16,0,0,0-.14-.2h0a.16.16,0,0,0-.14-.2H6c0-.06,0-.11-.07-.13h0a.15.15,0,0,0-.14-.2h0c0-.07,0-.12-.07-.14h0a.3.3,0,0,0-.2-.33h0c0-.06,0-.12-.07-.14h0c0-.06,0-.11-.07-.13h0c0-.06,0-.11-.07-.13h0c0-.06,0-.12-.07-.14h0c0-.06,0-.11-.07-.13h0c0-.06,0-.12-.07-.13h0c0-.07,0-.12-.07-.14H5c0-.06,0-.11-.06-.13H5c0-.06,0-.12-.07-.14h0a.31.31,0,0,0-.14-.34h0c0-.06,0-.11-.07-.13h0a.31.31,0,0,0-.14-.34h0A.28.28,0,0,0,4.41,41h0a.65.65,0,0,0-.2-.54h0a.7.7,0,0,0-.09-.35c-.2-.55-.33-1.12-.48-1.69a2.15,2.15,0,0,0-.24-.78s0-.08,0-.12,0-.16-.06-.22a.49.49,0,0,0,0-.12,1.09,1.09,0,0,0-.13-.68v-.19c0-.14.06-.29-.07-.41a1.34,1.34,0,0,0,0-.2c.16-.2,0-.36-.06-.54V35s0,0,0-.07a0,0,0,0,1,0-.05c0-.1,0-.2-.06-.28A14.23,14.23,0,0,1,3,33a.6.6,0,0,1,.38.13c.19.14.39.27.59.4.62.42,1.25.83,1.86,1.26L9,37c.57.39,1.13.79,1.71,1.17.24.15.45.4.79.37,0,.32,0,.64,0,1a10.14,10.14,0,0,0,.07,1.74A7.29,7.29,0,0,0,12,42.74a3.63,3.63,0,0,0,.61.91A5.67,5.67,0,0,0,14.32,45,4.87,4.87,0,0,0,16,45.5a6,6,0,0,0,1.89,0,6.93,6.93,0,0,0,1.56-.5c.15,0,.2.21.32.3s.49.31.73.49c.51.36,1,.72,1.54,1.06.34.22.68.44,1,.68l1.14.8c.42.27.85.53,1.25.82.77.57,1.59,1.07,2.38,1.63s1.64,1.13,2.46,1.69c.26.18.25.18.17.49-.11.12-.3.08-.41.2l-.12,0c-.22,0-.42.11-.64.12l-.07.07H29l-.07.06a0,0,0,0,1-.05,0h-.09l-.07.06a.4.4,0,0,1-.19,0c-.17,0-.32.08-.49.06l-.08.06h-.21l-.06.06a.46.46,0,0,1-.2,0,.28.28,0,0,0-.29,0l-.19,0h-.22l-.07.05a.5.5,0,0,1-.27,0l-.21,0a.15.15,0,0,0-.13,0,7.46,7.46,0,0,1-1.05.1,24.11,24.11,0,0,1-2.55,0s-.11,0-.16,0a.82.82,0,0,1-.27,0C21.94,53.76,21.78,53.83,21.63,53.83Z" fill="#15bee0"/>
            <path d="M45.71,24.07a2.46,2.46,0,0,1-.28-.5c-.3-.57-.6-1.15-1-1.7a.54.54,0,0,1-.12-.31,1.36,1.36,0,0,1,.66-.15,36.32,36.32,0,0,0,5.72-1.36A11.72,11.72,0,0,0,54,18.46a4.12,4.12,0,0,0,1.17-1.22,2.75,2.75,0,0,0,.05-2.77,5.19,5.19,0,0,0-1.35-1.68,17.78,17.78,0,0,0-3.33-2.13c-1.27-.67-2.58-1.28-3.82-2a9.46,9.46,0,0,1-1.82-1.31,3.69,3.69,0,0,1-.77-1.07.58.58,0,0,1,.21-.84,3.16,3.16,0,0,1,1-.49,16.56,16.56,0,0,1,2.69-.59c.81-.12,1.63-.23,2.45-.32.62-.07,1.24-.11,1.86-.15a9.5,9.5,0,0,1,1.31-.07,1.94,1.94,0,0,1,.34,0c-.4.13-.8.23-1.19.38a1.63,1.63,0,0,0-.72.21,5.68,5.68,0,0,0-1.27.66c-.32.23-.52.68-.1,1,.27.21.5.46.77.67a16.21,16.21,0,0,0,2.75,1.71c1.11.56,2.26,1,3.42,1.49,1.34.53,2.69,1,4,1.59a28.88,28.88,0,0,1,2.75,1.32,17,17,0,0,1,2.64,1.79,10.55,10.55,0,0,1,2.11,2.27,3.14,3.14,0,0,1,.52,1.41,2.25,2.25,0,0,1-.62,1.71c-.58-.09-1.17-.21-1.76-.29s-1.16-.14-1.74-.16-1.4,0-2.11,0a12.32,12.32,0,0,0-1.61.1c-.73.07-1.46.18-2.18.3a27.69,27.69,0,0,0-3.6.85,36,36,0,0,0-4.28,1.59q-1.65.73-3.21,1.62l-1.36.77a.87.87,0,0,1-.34-.15C46.51,24.46,46.12,24.24,45.71,24.07ZM58,11.84s0,0,0,0h0a.1.1,0,0,0,.07.07c0,.1.07.16.13.23.47.55,1,1,1.52,1.54a14.82,14.82,0,0,0,1.68,1.48,5,5,0,0,0,1.32.78,1.06,1.06,0,0,0,.47,0c.18,0,.22-.13.15-.29a1.11,1.11,0,0,0-.22-.34,7.33,7.33,0,0,0-.91-.76c-1-.8-2.16-1.5-3.28-2.2A3.28,3.28,0,0,0,58,11.9Zm-9.41-7a1.24,1.24,0,0,0,0,1.81,5.24,5.24,0,0,0,1.79,1.17A21.05,21.05,0,0,0,53.9,9a.26.26,0,0,0,.21,0A.19.19,0,0,0,54,8.81c-.8-.34-1.58-.7-2.35-1.1a12.6,12.6,0,0,1-2.29-1.47,1.75,1.75,0,0,1-.78-1.4ZM54.32,9s0,0,0,0h0s0,0,0,0Z" fill="#ffa3a3"/>
            <path d="M63.29,36.13a9,9,0,0,1-1,0,.72.72,0,0,0,.07-.33,7.16,7.16,0,0,1,.09-.92c0-.47.11-.95.12-1.42a1.93,1.93,0,0,1,0-.24,5.23,5.23,0,0,0,0-1.72.3.3,0,0,0-.16-.23c-.13-.06-.2.06-.25.13a3.78,3.78,0,0,0-.5.87c-.28.68-.57,1.36-.86,2-.1.22-.16.23-.34.06-.42-.38-.82-.78-1.25-1.15s-1-.91-1.56-1.36c-.69-.6-1.41-1.17-2.14-1.72-1-.78-2.11-1.52-3.2-2.24-.85-.57-1.74-1.06-2.63-1.56,0-.1-.08-.12-.14-.16l-1-.62a24.35,24.35,0,0,1,3.76-1.14,13.58,13.58,0,0,1,1.9-.27c.62,0,1.24,0,1.92,0a7.16,7.16,0,0,0-1.84-.59c-.62-.14-1.26-.22-1.94-.32a.94.94,0,0,1,.37-.16c.83-.2,1.67-.41,2.51-.57.68-.13,1.36-.28,2.06-.37.5-.06,1-.17,1.52-.24s.86-.12,1.29-.15.72,0,1.06-.09c.5-.07,1-.06,1.51-.09a16.16,16.16,0,0,1,2.41,0c.63.06,1.25.11,1.87.22a6.38,6.38,0,0,1,2.64,1,2.87,2.87,0,0,1,1.11,1.44,3.72,3.72,0,0,1,0,2,10.52,10.52,0,0,1-1.27,2.87.4.4,0,0,1-.37.2c-.22,0-.43-.05-.64-.06-.68,0-1.35-.07-2-.14-.26,0-.3,0-.39.27-.21.6-.41,1.2-.64,1.79-.37,1-.77,1.93-1.19,2.87-.28.64-.54,1.28-.86,1.89A.47.47,0,0,0,63.29,36.13Z" fill="#ff7b69"/>
            <path d="M11.53,17.23a3.68,3.68,0,0,1,.82-.6,19.2,19.2,0,0,1,2.55-1.41A22.29,22.29,0,0,1,18.39,14a21.62,21.62,0,0,1,2.42-.5c.57-.09,1.16-.12,1.74-.18a20.42,20.42,0,0,1,2.21,0c.62,0,1.24.07,1.85.14a21.86,21.86,0,0,1,3.11.59,21.55,21.55,0,0,1,3.13,1.11,20.17,20.17,0,0,1,3,1.65,23.47,23.47,0,0,1,2,1.52c.53.44,1,.92,1.49,1.39A16.92,16.92,0,0,1,41,21.46a20.15,20.15,0,0,1,2.09,3.37,20.73,20.73,0,0,1,1.61,4.66,21.62,21.62,0,0,1,.41,5.07c0,.34-.06.67-.09,1-.07-.07,0-.17,0-.25a6.11,6.11,0,0,1,.06-.86c0-.91,0-1.82-.06-2.73,0,0,0-.07,0-.1-.05-.29-.07-.59-.45-.68l-3.19-2.19-1.8-1.22c-.42-.3-.86-.58-1.28-.89s-.79-.53-1.19-.78c-.16-.1-.29-.26-.51-.25A4.65,4.65,0,0,0,35.91,24,5.36,5.36,0,0,0,31,21.33c-.34,0-.67.05-1,.08,0-.07,0-.14-.12-.14a1.13,1.13,0,0,1-.45-.23c-.42-.31-.86-.59-1.29-.88s-1.08-.72-1.61-1.09c-1.18-.79-2.35-1.59-3.52-2.39S20.61,15,19.43,14.19A1,1,0,0,0,18.5,14a33.78,33.78,0,0,0-3.29,1.17,16.2,16.2,0,0,0-2,1.07,4.19,4.19,0,0,0-.88.58l-.75.41Z" fill="#5ff1c1"/>
            <path d="M73.11,26.27a.89.89,0,0,0,.08.48c.06.11.1.22.16.33.22.47.22.48.71.3s1.15-.44,1.71-.69a1,1,0,0,0,.46-.21,1,1,0,0,0,.55-.23,4.94,4.94,0,0,0,1.07-.34,13,13,0,0,1,2.81-.68,4.87,4.87,0,0,1,2.27.19.2.2,0,0,1-.22,0,1.51,1.51,0,0,0-.48-.05,12.79,12.79,0,0,0-2.46.22,9.26,9.26,0,0,0-1.35.28c.23.08.42,0,.62,0a12.54,12.54,0,0,1,2.21.06,4.08,4.08,0,0,1,2.08,1,3.64,3.64,0,0,1,1.12,2.51,13,13,0,0,1-.19,2.92c-.1.66-.21,1.31-.34,2-.18.86-.4,1.71-.64,2.56-.36,1.27-.8,2.53-1.26,3.77-.22.59-.45,1.19-.68,1.78a3.38,3.38,0,0,1-.62-.42,31.29,31.29,0,0,0-7-3.79l-.18-.08a1.27,1.27,0,0,1,0-.2A14.07,14.07,0,0,0,73.74,35a8.63,8.63,0,0,0-.46-2.52,6.47,6.47,0,0,0-1.5-2.45.3.3,0,0,1-.07-.39,16,16,0,0,0,1.26-3A1.12,1.12,0,0,1,73.11,26.27ZM77.82,38.6c.08,0,.1-.05.12-.09A18.46,18.46,0,0,0,79.81,34,6.07,6.07,0,0,0,80,31.17a3,3,0,0,0-1.17-1.76,2,2,0,0,0-2-.15,1.44,1.44,0,0,0-.85.79c-.12.27-.08.39.15.58a5.58,5.58,0,0,1,1,1A6,6,0,0,1,78.22,35,11.82,11.82,0,0,1,78,37.73a6.35,6.35,0,0,0-.16.87Z" fill="#ff6a69"/>
            <path d="M30.43,53c.08-.31.09-.31-.17-.49-.82-.56-1.65-1.11-2.47-1.69s-1.6-1.05-2.37-1.63c-.4-.29-.83-.54-1.25-.82L23,47.52c-.33-.24-.67-.45-1-.68-.52-.34-1-.7-1.54-1.06-.24-.17-.5-.3-.74-.49s-.16-.24-.31-.3l.17-.11A5.22,5.22,0,0,0,22.3,41c.05-.39,0-.78.05-1.17l.1,0c.25-.19.25-.2.5,0s.77.51,1.15.78l.85.6a3,3,0,0,0,.93.54c.12.31.22.63.37.93a5.58,5.58,0,0,0,2.18,2.31,4.22,4.22,0,0,0,1.4.55,6.63,6.63,0,0,0,2,.11A.43.43,0,0,0,32,46l1.68,1.15c.77.52,1.55,1,2.31,1.56.26.18.61.29.74.62,0,.05.1,0,.15,0H37l0,.06a.06.06,0,0,0-.06.07h0s-.07,0,0,.06l-.05.07a.08.08,0,0,0-.06.08h0a.14.14,0,0,1-.07.11.08.08,0,0,0-.07.07h0s-.06,0-.07,0h0a.07.07,0,0,0-.07.06h0a.07.07,0,0,0-.07.06h0s-.07,0-.07.06h0a.52.52,0,0,0-.31.12c-.38.24-.76.49-1.15.72a19.77,19.77,0,0,1-3.38,1.61c-.09,0-.17,0-.21.15h-.06C30.94,52.77,30.71,53,30.43,53Z" fill="#20c6db"/>
            <path d="M59.76,36.23l-2,.26a28.84,28.84,0,0,0-4.1.9,30.76,30.76,0,0,0-6.48,2.72c-.09,0-.18.14-.31.12s0-.2,0-.29a25.09,25.09,0,0,0,.84-4.56,20,20,0,0,0,0-3.1A23,23,0,0,0,47,27.71c0-.12-.06-.24-.09-.36a6.39,6.39,0,0,1,.87.18,15.28,15.28,0,0,1,2.88,1c.69.29,1.37.62,2,1s1.08.59,1.6.91a22.53,22.53,0,0,1,2.53,1.78,10.16,10.16,0,0,1,1.55,1.45A6,6,0,0,1,59.76,36.23Z" fill="#ff7b69"/>
            <path d="M63.29,36.13a.9.9,0,0,1,0-.16c.32-.61.59-1.25.87-1.89.42-.94.82-1.9,1.19-2.87.23-.59.43-1.19.64-1.79.09-.26.13-.29.39-.27.68.07,1.35.12,2,.14.22,0,.43.07.65.06a.37.37,0,0,0,.36-.2,10.26,10.26,0,0,0,1.28-2.87,3.82,3.82,0,0,0,0-2,2.89,2.89,0,0,0-1.12-1.44,6.34,6.34,0,0,0-2.63-1c-.62-.11-1.25-.16-1.87-.22a16.18,16.18,0,0,0-2.41,0c-.5,0-1,0-1.51.09s-.71.07-1.06.09-.87.08-1.3.15-1,.18-1.52.24c-.69.09-1.37.24-2.05.37-.85.16-1.68.37-2.51.57a.94.94,0,0,0-.37.16c.68.1,1.32.18,1.94.32a7.16,7.16,0,0,1,1.84.59c-.69,0-1.3,0-1.92,0a13.58,13.58,0,0,0-1.9.27,24.8,24.8,0,0,0-3.77,1.14,9.76,9.76,0,0,1-1.29-.74L48.61,24c1-.59,2.11-1.13,3.21-1.63a37.8,37.8,0,0,1,4.28-1.58A29.58,29.58,0,0,1,59.71,20c.72-.12,1.44-.23,2.17-.3a10.85,10.85,0,0,1,1.62-.09c.7,0,1.4,0,2.11,0a17.07,17.07,0,0,1,1.74.17c.59.07,1.17.19,1.76.28l.29.08A11.79,11.79,0,0,1,71,20.6c-.13.16-.3-.1-.46.06a3.15,3.15,0,0,0,.64.2.16.16,0,0,0,.17.07h0s0,.07,0,.09a2.9,2.9,0,0,1,.67,1.85,8,8,0,0,1-.16,2,26.25,26.25,0,0,1-1.46,4.92C69.77,31.55,69,33.25,68.33,35a14.72,14.72,0,0,0-.57,1.57,6.52,6.52,0,0,1-1.09-.17,23.24,23.24,0,0,0,1.42-6.64c-.06.16-.11.29-.15.43a24.84,24.84,0,0,1-.85,2.47c-.47,1.23-1,2.43-1.58,3.62Z" fill="#ff6a69"/>
            <path d="M3.72,28.26l0-.12a.06.06,0,0,0,0-.09h0l0-.11c.07,0,.07-.08.06-.14a.13.13,0,0,1,0-.06c.1-.07.1-.19.14-.29a21.25,21.25,0,0,1,1.2-2.83A22.68,22.68,0,0,1,6.8,22.06a11.56,11.56,0,0,1,1.68-2c.18-.17.28-.41.51-.53.36.2.69.43,1,.66l3.46,2.35a3,3,0,0,0-.77.73,5.38,5.38,0,0,0-1.24,3.49c0,2.1,0,4.19,0,6.28,0,.13,0,.27,0,.4a.93.93,0,0,1-.56-.13c-1-.69-2-1.37-3-2.06L4.31,28.8a.86.86,0,0,0-.64-.18l0-.09,0-.12C3.73,28.38,3.73,28.32,3.72,28.26Z" fill="#31d2d4"/>
            <path d="M36.53,25.61c.22,0,.35.15.51.25.4.25.81.5,1.19.78s.86.59,1.28.89l1.8,1.23,3.19,2.18c.38.09.4.39.45.68,0,0,0,.07,0,.1,0,.91.11,1.82.06,2.73a6.22,6.22,0,0,0-.06.86c0,.09,0,.18,0,.25v.14a.13.13,0,0,0-.11.15,8.47,8.47,0,0,1-.12.88c0,.21-.18.42,0,.64v.14c-.1,0-.1.1-.12.17a7.21,7.21,0,0,1-.34,1.23.37.37,0,0,0-.16-.17l-1.57-1.07-2.08-1.41L37.14,34a.45.45,0,0,0-.48-.08c0-.12,0-.25,0-.37v-6.8A4.69,4.69,0,0,0,36.53,25.61Z" fill="#4be5c9"/>
            <path d="M44.47,94.47c-.75-.67-1.47-1.38-2.18-2.09-.53-.53-1-1.1-1.54-1.66-.94-1-1.81-2.15-2.66-3.26S36.46,85.2,35.68,84c-.59-.89-1.15-1.79-1.71-2.7-.41-.67-.81-1.34-1.2-2-.66-1.16-1.3-2.34-1.93-3.51-1.09-2-2.11-4.06-3.17-6.08L26.48,67.5a.85.85,0,0,1-.13-.31.32.32,0,0,1,.21.1c.59.58,1.23,1.1,1.84,1.65.38.35.79.68,1.19,1,.77.61,1.55,1.2,2.37,1.75a1.45,1.45,0,0,0,.55.32c.13.46.25.92.37,1.38.27,1,.61,1.93,1,2.88a.78.78,0,0,1,.11.42c-.1,0-.13-.12-.18-.19q-2.1-3.12-4.45-6.08a3.85,3.85,0,0,0-.69-.82.08.08,0,0,0-.07-.07s0-.09-.05-.06,0,0,.05.06a.07.07,0,0,0,.07.07,2,2,0,0,0,.36.74c.86,1.54,1.74,3.06,2.61,4.59l1.23,2.2c.31.56.62,1.12.92,1.68a1.72,1.72,0,0,0,0,.39,13.38,13.38,0,0,0,.44,1.4,4.09,4.09,0,0,0,1.16,1.79,1.76,1.76,0,0,0,1.05.45c.27.37.53.75.81,1.12s.55.73.83,1.1.56.75.86,1.12a10.46,10.46,0,0,0,.87,1.07.37.37,0,0,0-.06-.28c-.31-.62-.63-1.24-.92-1.87a5.19,5.19,0,0,1-.45-1,.11.11,0,0,1,.12,0A32.63,32.63,0,0,0,41.19,87l0,0c0,.06,0,.11.08.13h0a5.11,5.11,0,0,0,.57,1c.93,1.53,1.9,3,3,4.48a5.06,5.06,0,0,0,1.48,1.47,1.78,1.78,0,0,0,1.94.06,3.76,3.76,0,0,0,1.41-1.55.42.42,0,0,1,.21.08,14.21,14.21,0,0,1-1,2.05.36.36,0,0,0-.07.22h0c-.06,0-.07.07-.08.13a2.39,2.39,0,0,1-.64.63,1.67,1.67,0,0,1-1.58.06A5.84,5.84,0,0,1,45.13,95Z" fill="#fed48e"/>
            <path d="M31.86,64.51c.05.42,0,.84,0,1.26a32.58,32.58,0,0,0,.25,3.55c0,.19,0,.37.06.56-.09,0-.12-.1-.16-.17-.27-.45-.54-.9-.8-1.36-.63-1.1-1.31-2.17-2-3.22-1-1.55-2.13-3.06-3.32-4.5A47,47,0,0,0,22.56,57c-.09-.08-.21-.15-.22-.29a21.15,21.15,0,0,0,3.47-.05c.65-.08,1.3-.12,2-.23L29,56.2a2,2,0,0,1,.48-.06,1,1,0,0,0,.18.28c.33.36.67.71,1,1.09a3.62,3.62,0,0,1,.52.65c0,.3.1.59.07.9a10.49,10.49,0,0,0,.08,1.25c0,.24,0,.49.06.73.07.52.14,1.05.2,1.57s.15.87.17,1.31A1.51,1.51,0,0,0,31.86,64.51Z" fill="#ff8078"/>
            <path d="M22.34,56.71c0,.14.13.21.22.29a47,47,0,0,1,3.29,3.63c1.19,1.44,2.28,2.95,3.32,4.5.7,1.05,1.37,2.12,2,3.22.26.46.53.91.8,1.36,0,.07.07.14.15.17L32.51,72a1.43,1.43,0,0,1-.55-.31c-.82-.55-1.6-1.14-2.37-1.75-.4-.33-.81-.65-1.19-1-.61-.55-1.25-1.08-1.84-1.65a.32.32,0,0,0-.21-.1h0c0-.06,0-.11-.07-.13L26,66.72a.15.15,0,0,0-.07-.13h0a.71.71,0,0,0-.13-.31c-.22-.39-.45-.77-.66-1.17-.52-1-1.09-1.89-1.65-2.81-1.14-1.88-2.33-3.74-3.6-5.54a.7.7,0,0,1-.19-.35,14.39,14.39,0,0,1,1.47.18A6.43,6.43,0,0,1,22.34,56.71Z" fill="#ffc77f"/>
            <path d="M81.34,42.4c.22-.59.46-1.19.68-1.78.46-1.24.9-2.5,1.26-3.77.24-.85.46-1.7.63-2.56.13-.65.25-1.3.35-2a13.62,13.62,0,0,0,.19-2.92,3.64,3.64,0,0,0-1.12-2.51,4.11,4.11,0,0,0-2.09-1,12.42,12.42,0,0,0-2.2-.06c-.2,0-.39.11-.63,0a9.67,9.67,0,0,1,1.36-.28,11.92,11.92,0,0,1,2.46-.22,1.57,1.57,0,0,1,.48.05.2.2,0,0,0,.22,0,3,3,0,0,1,1.6,1.15,6.41,6.41,0,0,1,1,2.31c.08.32.15.65.22,1a1.67,1.67,0,0,0,.19.57.19.19,0,0,0-.06.21c.07.34.1.68.15,1a23.72,23.72,0,0,1,.18,2.52,13.14,13.14,0,0,1,0,1.54c0,.63-.08,1.26-.15,1.89s-.17,1.41-.3,2.1a35.63,35.63,0,0,1-1.23,4.75,1.81,1.81,0,0,0-.14.61c-.41-.37-.81-.73-1.18-1.13,0,0,0-.07,0-.1a50.83,50.83,0,0,0,1.09-5,1.46,1.46,0,0,0,.06-.72s0,0,0,0c-.28.62-.56,1.24-.82,1.87-.43,1-.86,2-1.28,3.06A4.43,4.43,0,0,1,81.34,42.4Z" fill="#ffc77f"/>
            <path d="M3.67,28.62a.88.88,0,0,1,.64.18c1.18.82,2.37,1.63,3.56,2.44l3,2.06a.93.93,0,0,0,.56.13c0,.07,0,.13,0,.2v4.65c0,.08,0,.15,0,.23-.34,0-.55-.22-.79-.37C10.09,37.76,9.53,37.36,9,37L5.81,34.82C5.2,34.39,4.57,34,4,33.56c-.2-.13-.4-.26-.59-.4A.61.61,0,0,0,3,33a1.34,1.34,0,0,1,0-.4c.08-.05.07-.13.07-.2v-.08a2.35,2.35,0,0,1,0-.53c.11-.1.06-.22.05-.34s0-.13,0-.19.08-.23.06-.35,0-.17,0-.25.08-.13.06-.21,0-.18,0-.26a.11.11,0,0,0,0-.15,1.11,1.11,0,0,0,0-.19c.09-.05.08-.13.06-.21v-.12a.11.11,0,0,0,0-.15l0-.12a.17.17,0,0,0,.06-.21s0-.08,0-.12a.12.12,0,0,0,.05-.15s0-.08,0-.12Z" fill="#20c6db"/>
            <path d="M36.93,49.34c-.06,0-.14,0-.16,0-.13-.33-.48-.44-.74-.62-.75-.54-1.54-1-2.31-1.56L32,46a.43.43,0,0,1-.22-.42l.13,0a5.39,5.39,0,0,0,4.34-3.36,5.57,5.57,0,0,0,.37-2.06.7.7,0,0,1,.4.08c.21.15.43.29.65.43.57.39,1.15.76,1.71,1.17.27.2.57.37.84.57s.64.47,1,.67a1.48,1.48,0,0,1,.68.63c-.14.25-.41.35-.6.54-.53.54-1.1,1-1.6,1.61s-1,1.15-1.52,1.76a6.57,6.57,0,0,0-.93,1.3s0,0,0,0,0,0,0,0h0l-.05.07s-.07,0-.06.07h0s0,0,0,0l-.05.07a.07.07,0,0,0-.06.07h0Z" fill="#31d2d4"/>
            <path d="M71,20.59a12.68,12.68,0,0,0-1.63-.46l-.3-.08a2.25,2.25,0,0,0,.62-1.71,3.26,3.26,0,0,0-.52-1.41,10.52,10.52,0,0,0-2.1-2.27,17.59,17.59,0,0,0-2.65-1.79,28.88,28.88,0,0,0-2.75-1.32C60.37,11,59,10.49,57.68,10,56.52,9.5,55.37,9,54.26,8.47a16.21,16.21,0,0,1-2.75-1.71c-.27-.21-.5-.46-.77-.67-.42-.33-.22-.78.1-1a5.68,5.68,0,0,1,1.27-.66,1.63,1.63,0,0,1,.72-.21,3.46,3.46,0,0,1-.52.32A1.43,1.43,0,0,0,51.9,5a.85.85,0,0,0,.29,1.1,6.56,6.56,0,0,0,1.55.87,24.44,24.44,0,0,0,2.36.83,25.16,25.16,0,0,1,2.37.91c.89.38,1.77.76,2.63,1.18a34.81,34.81,0,0,1,3.13,1.69A32.65,32.65,0,0,1,67.78,14,17,17,0,0,1,70,16.21a11.77,11.77,0,0,1,1.74,2.63,4.81,4.81,0,0,1,.52,2.55l-.3-.26A2.27,2.27,0,0,0,71,20.59Z" fill="#fed48e"/>
            <path d="M67.76,36.56A14.72,14.72,0,0,1,68.33,35c.67-1.74,1.44-3.44,2.11-5.18a26.51,26.51,0,0,0,1.47-4.92,7.62,7.62,0,0,0,.15-2A2.8,2.8,0,0,0,71.4,21s0-.06,0-.1a.3.3,0,0,1,.16,0,3.29,3.29,0,0,1,.8.73c.2.27.38.55.57.83h0a.17.17,0,0,0,.08.14h0c0,.07,0,.14.07.2a2.67,2.67,0,0,1,.27,1,6.09,6.09,0,0,1-.11,1.81c0,.19,0,.38-.09.56a1.06,1.06,0,0,0-.14.4,16,16,0,0,1-1.26,3,.3.3,0,0,0,.07.39,6.47,6.47,0,0,1,1.5,2.45A8.3,8.3,0,0,1,73.73,35a14.06,14.06,0,0,1-.2,2.89c0,.06,0,.13,0,.2l-1.07-.36c-.13,0-.19-.12-.15-.25a15,15,0,0,0,.3-1.6,5.86,5.86,0,0,0-.34-3.21A2.2,2.2,0,0,0,71,31.45c-.08.1,0,.2,0,.28a6.19,6.19,0,0,1-.16,2.93c-.2.72-.48,1.41-.75,2.11-.09.22-.13.24-.36.2Z" fill="#fff580"/>
            <path d="M27.81,77.7a1.79,1.79,0,0,1,.44.47,19.25,19.25,0,0,1,2.21,3.52,8.82,8.82,0,0,1,.63,1.76,1.52,1.52,0,0,1,0,.6c0,.2-.11.26-.32.26a.73.73,0,0,1-.33-.08,5,5,0,0,1-1-.69,16.47,16.47,0,0,1-1.22-1.13,1.31,1.31,0,0,0-.41-.3c-.21-.1-.36,0-.42.18a1,1,0,0,0,0,.3c0,.52,0,1,0,1.57,0,.11,0,.22,0,.33s-.19.3-.4.22a2,2,0,0,1-.59-.39A14.23,14.23,0,0,1,25,82.77a16.77,16.77,0,0,0-2.4-2.44c-.32-.27-.65-.53-1-.79-.07-.07-.16-.13-.16-.25a1.2,1.2,0,0,1,.16-.47.53.53,0,0,1,.8-.24,2.06,2.06,0,0,1,.6.45c.37.41.75.81,1.1,1.23a7.7,7.7,0,0,0,1,1c.14.12.3.27.52.17s.22-.3.24-.49a5.42,5.42,0,0,0-.09-1.39c-.13-.7-.29-1.39-.43-2.08a1.91,1.91,0,0,1,0-.63.27.27,0,0,1,.29-.27.92.92,0,0,1,.37,0,3.26,3.26,0,0,1,.79.4C27.18,77.26,27.46,77.53,27.81,77.7Z" fill="#ffa3a3"/>
            <path d="M10.46,52.8a.38.38,0,0,1,0,.1c0,.09.12.2,0,.28s-.21,0-.31-.08a7.24,7.24,0,0,0-1.93-.67,3.35,3.35,0,0,0-1,0,1.3,1.3,0,0,0-1.06.86,1.91,1.91,0,0,0-.16.78c0,.47,0,.94,0,1.4a14.9,14.9,0,0,0,.43,2.29A26.73,26.73,0,0,0,7.94,61.7c.5,1,1,2.1,1.56,3.12.72,1.32,1.41,2.66,2.09,4A25.66,25.66,0,0,1,13.3,73c.11.35.19.71.28,1.07,0,.09.06.17,0,.24s-.19,0-.29,0a2.79,2.79,0,0,1-.63-.4c-.27-.21-.54-.41-.79-.64-.07-.07-.16-.13-.15-.25.17,0,.29.13.44.18s.41,0,.39-.28a3.4,3.4,0,0,0-.34-1.08,40.54,40.54,0,0,0-2-3.75c-.55-1-1-1.94-1.54-2.91a46.88,46.88,0,0,1-3-6.93A19.72,19.72,0,0,1,5,55.32a9.88,9.88,0,0,1-.07-2.43A4.91,4.91,0,0,1,6,50.06a2,2,0,0,1,.42-.39c.09-.06.16-.07.24,0l.1.09c.52.52,1.08,1,1.64,1.47s1.15.9,1.75,1.31C10.28,52.63,10.41,52.67,10.46,52.8Z" fill="#fff580"/>
            <path d="M59.76,36.23a6,6,0,0,0-1.37-2.61,10.58,10.58,0,0,0-1.54-1.45,23.61,23.61,0,0,0-2.54-1.78c-.52-.32-1.05-.62-1.59-.91s-1.35-.68-2-1a15,15,0,0,0-2.88-1,6.39,6.39,0,0,0-.87-.18l-.65-1.94a.76.76,0,0,0,.41-.27,14.81,14.81,0,0,1,2.73,1.13.33.33,0,0,0,.22.06c.89.5,1.78,1,2.63,1.56,1.09.72,2.16,1.46,3.2,2.25.73.55,1.45,1.11,2.14,1.71.53.45,1,.91,1.56,1.36s.83.77,1.24,1.15c.19.17.25.16.35-.06l.86-2a3.8,3.8,0,0,1,.49-.88c.06-.07.13-.19.25-.13a.29.29,0,0,1,.17.24,5.51,5.51,0,0,1,0,1.72,1.64,1.64,0,0,0,0,.23c0,.48-.08.95-.12,1.42,0,.31-.09.62-.08.93a.88.88,0,0,1-.07.32,1.55,1.55,0,0,1-.48,0C61.11,36.15,60.43,36.21,59.76,36.23Z" fill="#ff6a69"/>
            <path d="M84.38,45.06a1.87,1.87,0,0,1,.14-.62,35.1,35.1,0,0,0,1.23-4.74c.13-.69.23-1.4.3-2.1s.1-1.26.15-1.89a13.2,13.2,0,0,0,0-1.54,23.72,23.72,0,0,0-.18-2.52c0-.34-.08-.68-.15-1a.19.19,0,0,1,.06-.21,12.1,12.1,0,0,1,1.59,4.17,15.85,15.85,0,0,1,.19,3.89,26.19,26.19,0,0,1-.84,4.89c-.25,1-.53,2-.85,3a.71.71,0,0,1-.15.32Z" fill="#ff6a69"/>
            <path d="M49.67,92.66a3.82,3.82,0,0,1-1.41,1.55,1.79,1.79,0,0,1-1.95-.06,5.45,5.45,0,0,1-1.48-1.47c-1.06-1.45-2-3-3-4.48a5.61,5.61,0,0,1-.56-1c.1,0,.16.07.23.13a30.08,30.08,0,0,0,4.62,3.46,29,29,0,0,0,3.16,1.69A1.27,1.27,0,0,1,49.67,92.66Z" fill="#ffa3a3"/>
            <path d="M57.19,3.61a3.82,3.82,0,0,0-.68.05c-.15,0-.2,0-.21-.18a1,1,0,0,1,1.1-1.15,8.54,8.54,0,0,1,1.67.18l1.29.22a2.26,2.26,0,0,0,.45,0c.39,0,.49-.19.3-.52A6.81,6.81,0,0,0,60,.84L59.27.08h.15c.06.1.16.12.25.16a16.9,16.9,0,0,1,3.42,2.06,5.82,5.82,0,0,1,1.49,1.64,2.45,2.45,0,0,1,.29.78c.07.36-.12.57-.51.58a2.51,2.51,0,0,1-.81-.14,20.31,20.31,0,0,1-2-.77,8.76,8.76,0,0,0-2.47-.71c-.31,0-.62,0-.92-.07A2.22,2.22,0,0,0,57.19,3.61Z" fill="#ffa3a3"/>
            <path d="M28.64,69.6a4.06,4.06,0,0,1,.69.81c1.57,2,3,4,4.45,6.09,0,.07.08.16.18.19h0a.15.15,0,0,0,.07.15c.6,1.17,1.13,2.38,1.81,3.51a32,32,0,0,0,2,2.93,3.92,3.92,0,0,1,.42.64.14.14,0,0,0,.08.07h0c0,.06,0,.11.07.13h0a5.68,5.68,0,0,0,.46,1c.29.63.61,1.25.91,1.87a.33.33,0,0,1,.06.28A11.68,11.68,0,0,1,39,86.18c-.29-.37-.58-.74-.86-1.12s-.56-.73-.83-1.1l-.81-1.12,0-.09c-.74-1-1.47-2.1-2.14-3.19a4.08,4.08,0,0,0-.5-.75l-.92-1.68c-.41-.73-.82-1.47-1.24-2.2L29,70.34a2,2,0,0,1-.36-.74Z" fill="#9f9850"/>
            <path d="M19.71,56.42c0,.14.12.24.19.35,1.27,1.8,2.46,3.65,3.6,5.53.56.93,1.13,1.86,1.64,2.82.22.39.45.77.67,1.17a.67.67,0,0,1,.13.3.7.7,0,0,1-.44-.34,4.17,4.17,0,0,0-.34-.38c-.65-.64-1.24-1.34-1.84-2s-1.11-1.33-1.64-2q-1.37-1.79-2.57-3.69c-.37-.59-.72-1.19-1.08-1.78a.57.57,0,0,1-.12-.35Z" fill="#ff8078"/>
            <path d="M6.86,67.93c.35.38.65.81,1,1.17a.13.13,0,0,1,.06.15c0,.08-.1.08-.17.09A1.24,1.24,0,0,1,6.94,69a8.55,8.55,0,0,1-1.1-1.15c-.64-.8-1.27-1.61-1.92-2.4a3.06,3.06,0,0,0-.73-.75c-.19-.12-.27-.09-.28.13a3.4,3.4,0,0,0,.18,1c.1.32.21.63.31.95H3.32a.08.08,0,0,0-.07-.07h0a.08.08,0,0,0-.07-.07h0c0-.06,0-.11-.07-.13h0a.19.19,0,0,0-.14-.2H3a.19.19,0,0,0-.14-.2h0a1.62,1.62,0,0,0-.33-.62A20.08,20.08,0,0,1,1,62.55a3.34,3.34,0,0,1-.33-1.49.46.46,0,0,1,.27-.47.5.5,0,0,1,.54.13,6.55,6.55,0,0,1,.64.65A24.07,24.07,0,0,1,3.84,64a28,28,0,0,0,2.37,3.27.24.24,0,0,0,.22.13h0a.11.11,0,0,0,.07.13h0a.13.13,0,0,0,.14.14h0a.11.11,0,0,0,.07.13h0a.12.12,0,0,0,.07.07h0A.11.11,0,0,0,6.86,67.93Z" fill="#ffa3a3"/>
            <path d="M39.5,16.07a8.39,8.39,0,0,1-.82-.62c-.61-.44-1.23-.89-1.88-1.29a.41.41,0,0,0-.11-.07c-.13-.09-.11-.17,0-.23a5.46,5.46,0,0,1,1.13-.42l1.11-.23a9.43,9.43,0,0,0,2.26-.77,13.59,13.59,0,0,0,1.52-.78c.11-.07.24-.18.37,0a.11.11,0,0,0,.07.08h0c0,.13.06.23.09.35a1.82,1.82,0,0,1,.08.65,1.25,1.25,0,0,1-.84,1,13.44,13.44,0,0,1-1.88.53,4.27,4.27,0,0,0-1.15.41.61.61,0,0,0-.26.91C39.28,15.74,39.48,15.85,39.5,16.07Z" fill="#ffa3a3"/>
            <path d="M93,63.17c-.08-.7-.15-1.41-.28-2.11a.26.26,0,0,1,.11-.29,7.94,7.94,0,0,1,2.36-1.36,2.15,2.15,0,0,1,.5-.12c.22,0,.31,0,.33.27a2,2,0,0,1-.12.68A14.36,14.36,0,0,1,95,62.32c-.58,1.22-1.21,2.42-1.91,3.67-.07-.44,0-.82,0-1.2a8.48,8.48,0,0,1,0-1.13,1.64,1.64,0,0,1,1.07-.22c-.08-.29-.18-.37-.43-.4A1.68,1.68,0,0,0,93,63.17Z" fill="#ff6a69"/>
            <path d="M39.5,16.07c0-.22-.22-.33-.3-.52a.6.6,0,0,1,.26-.9,4.27,4.27,0,0,1,1.15-.41,13.44,13.44,0,0,0,1.88-.53,1.25,1.25,0,0,0,.84-1,1.82,1.82,0,0,0-.08-.65c0-.12-.11-.22-.09-.35a1.74,1.74,0,0,1,.63.77A1.12,1.12,0,0,1,43.4,14a4.35,4.35,0,0,1-1.59.69,9.85,9.85,0,0,0-1.07.27c-.62.23-.69.55-.23,1a7.55,7.55,0,0,0,1.34,1c.39.24.79.46,1.19.69a2.39,2.39,0,0,1,.61.49.66.66,0,0,1,.06.88,2,2,0,0,1-.64.56.17.17,0,0,1-.26-.05,7.16,7.16,0,0,1-.48-.61.3.3,0,0,0,.14-.22.66.66,0,0,0-.21-.63,3.28,3.28,0,0,0-.69-.48,8.43,8.43,0,0,0-1-.56h0a.12.12,0,0,0-.13-.07h0a.08.08,0,0,0-.08-.07A7.42,7.42,0,0,1,39.5,16.07Z" fill="#fff580"/>
            <path d="M90.31,53.36l-.58-1.1c-.11-.22-.23-.43-.37-.68a1.74,1.74,0,0,0,1-.25l.82-.42a2.63,2.63,0,0,1,.6-.25.51.51,0,0,1,.68.38,2.06,2.06,0,0,1,0,.82,11.43,11.43,0,0,1-.46,1.81,10.76,10.76,0,0,0-.43,2.82c-.1,0-.1-.1-.12-.17-.26-.73-.55-1.44-.85-2.15a1.42,1.42,0,0,1-.07-.22C90.62,53.7,90.6,53.47,90.31,53.36Z" fill="#ffa3a3"/>
            <path d="M27.81,77.7c-.35-.17-.63-.44-1-.64a4.6,4.6,0,0,0-.8-.4,1.14,1.14,0,0,0-.37,0,.27.27,0,0,0-.29.26,2,2,0,0,0,0,.64c.14.69.31,1.38.43,2.08A5.39,5.39,0,0,1,25.93,81c0,.18,0,.39-.24.49s-.38-.06-.52-.17a7.7,7.7,0,0,1-1-1.06c-.36-.42-.74-.81-1.11-1.22a1.89,1.89,0,0,0-.6-.45.52.52,0,0,0-.8.24,1.14,1.14,0,0,0-.16.47,2.49,2.49,0,0,1,0-1.15c.06-.36.37-.49.74-.34a2.89,2.89,0,0,1,.88.59,10.8,10.8,0,0,1,1.09,1.15,6.69,6.69,0,0,0,.59.6c.1.09.22.2.37.14s.16-.23.16-.35a6.53,6.53,0,0,0-.08-.76c-.16-.94-.39-1.86-.62-2.79a2.1,2.1,0,0,1,0-.66c0-.34.24-.47.56-.38A3,3,0,0,1,26.2,76a13.91,13.91,0,0,1,1.53,1.54A.27.27,0,0,1,27.81,77.7Z" fill="#fff580"/>
            <path d="M57.19,3.61a2.22,2.22,0,0,1,1,0c.3.05.61,0,.92.07a8.69,8.69,0,0,1,2.46.71,19,19,0,0,0,2,.76,2.47,2.47,0,0,0,.81.15c.38,0,.58-.22.51-.58a2.45,2.45,0,0,0-.29-.78,6,6,0,0,0-1.5-1.64A17.1,17.1,0,0,0,59.67.22c-.09,0-.2-.06-.26-.16a3.49,3.49,0,0,1,1.06.3,10,10,0,0,1,4,2.62,8.08,8.08,0,0,1,1.42,2.19,1,1,0,0,1,.11.48c0,.33-.14.47-.47.5A2.61,2.61,0,0,1,64.6,6a14.14,14.14,0,0,1-2.07-.73c-1-.4-1.9-.84-2.9-1.15a9.06,9.06,0,0,0-2.32-.5A.31.31,0,0,1,57.19,3.61Z" fill="#fff580"/>
            <path d="M6.43,67.39c-.1,0-.16-.06-.22-.13A28,28,0,0,1,3.84,64a22.71,22.71,0,0,0-1.77-2.62,5.61,5.61,0,0,0-.64-.65.52.52,0,0,0-.54-.13.49.49,0,0,0-.27.47A3.22,3.22,0,0,0,1,62.55,20,20,0,0,0,2.5,65.44a1.62,1.62,0,0,1,.33.62c-.09,0-.14-.06-.19-.12A18,18,0,0,1,.41,62.22a4.34,4.34,0,0,1-.4-2,2,2,0,0,1,.13-.68.41.41,0,0,1,.62-.2,1.75,1.75,0,0,1,.39.28,9.32,9.32,0,0,1,1.34,1.6c.75,1.07,1.4,2.2,2.08,3.31.55.89,1.12,1.76,1.74,2.61C6.36,67.23,6.44,67.29,6.43,67.39Z" fill="#fff580"/>
            <path d="M30.43,55.88c.71-.24,1.44-.44,2.14-.72l1.3-.53c.06,0,.12-.08.21,0a2.88,2.88,0,0,1-.18.49c-.37.92-.68,1.86-1,2.81a.94.94,0,0,1-.06.15C32,57.38,31.24,56.61,30.43,55.88Z" fill="#ff7b69"/>
            <path d="M65.51,36.27c.56-1.2,1.11-2.4,1.58-3.63.31-.81.61-1.63.85-2.46,0-.14.09-.27.14-.43a22.61,22.61,0,0,1-1.42,6.64A10.92,10.92,0,0,1,65.51,36.27Z" fill="#fff580"/>
            <path d="M30.43,55.88c.81.73,1.58,1.5,2.44,2.17-.12.51-.25,1-.37,1.52A5.13,5.13,0,0,1,32,59a6.45,6.45,0,0,0-.76-.81,3.62,3.62,0,0,0-.52-.65c-.31-.38-.65-.73-1-1.1a.84.84,0,0,1-.18-.28A3.15,3.15,0,0,1,30.43,55.88Z" fill="#ffc77f"/>
            <path d="M82.21,43.08c.42-1,.85-2,1.28-3.06.26-.63.54-1.25.82-1.87,0,0,0,0,.06,0a1.59,1.59,0,0,1-.07.72c-.29,1.68-.63,3.36-1.08,5a.44.44,0,0,0,0,.1A6.72,6.72,0,0,1,82.21,43.08Z" fill="#9f9850"/>
            <path d="M15.36,55.23l0,.06-2.55,2.53a.24.24,0,0,1-.16.1,2,2,0,0,1,0-1,4.82,4.82,0,0,1,1-2l.17-.25c.41.11.79.33,1.19.47C15.11,55.12,15.23,55.18,15.36,55.23Z" fill="#fff580"/>
            <path d="M89.19,51.28l-.51-.84c-.36-.56-.73-1.11-1.12-1.65-.26-.36-.22-.3,0-.58a2.41,2.41,0,0,1,.6-.55c.39-.25.67-.17.85.24a1.86,1.86,0,0,1,.19.77,12.09,12.09,0,0,1,0,2.17C89.15,51,89.22,51.09,89.19,51.28Z" fill="#ffa3a3"/>
            <path d="M31.2,58.16A6.45,6.45,0,0,1,32,59a6.2,6.2,0,0,0,.54.61c-.1.56-.21,1.13-.3,1.69S32,62.68,32,63.38l-.09,1.13a1.51,1.51,0,0,1-.08-.59c0-.44-.12-.87-.17-1.31s-.13-1-.2-1.57c0-.24-.05-.49-.06-.73a7.5,7.5,0,0,1-.08-1.25C31.3,58.75,31.17,58.46,31.2,58.16Z" fill="#ff7b69"/>
            <path d="M37.27,48.87a6,6,0,0,1,.93-1.3c.48-.61,1-1.18,1.52-1.76s1.07-1.07,1.6-1.61c.18-.2.46-.29.6-.54a1.71,1.71,0,0,1,.26-.21,1.47,1.47,0,0,0,.58-.68A20,20,0,0,0,44,40a3.81,3.81,0,0,0,.29-1.05,7.21,7.21,0,0,0,.34-1.23c0-.07,0-.15.12-.17a13,13,0,0,1-.44,1.84,19.72,19.72,0,0,1-1.41,3.47,2.1,2.1,0,0,1-.57.73c-.62.51-1.2,1.07-1.77,1.63s-1.26,1.35-1.86,2c-.45.52-.86,1.07-1.27,1.62a.23.23,0,0,1-.14.09h0S37.28,48.89,37.27,48.87Z" fill="#5ff1c1"/>
            <path d="M9,19.52c-.23.12-.33.36-.51.53a11.14,11.14,0,0,0-1.68,2,22.68,22.68,0,0,0-1.59,2.56A21.25,21.25,0,0,0,4,27.45c0,.1,0,.22-.14.29a3,3,0,0,1,.28-1A20.23,20.23,0,0,1,5.26,24.3a23.31,23.31,0,0,1,1.47-2.37,19,19,0,0,1,1.72-2.08c.29-.31.57-.63.89-.92A18.9,18.9,0,0,1,11,17.6a1.76,1.76,0,0,1,.56-.37l0,0-.11.12a12.25,12.25,0,0,1-1,.78c-.21.17-.39.38-.61.53A5.34,5.34,0,0,0,9,19.52Z" fill="#5ff1c1"/>
            <path d="M49.64,26.33a.37.37,0,0,1-.22-.06,14.81,14.81,0,0,0-2.73-1.13,1.82,1.82,0,0,0-.61-.2,4.65,4.65,0,0,1-.37-.86,13.25,13.25,0,0,1,1.2.58.87.87,0,0,0,.34.15,8.63,8.63,0,0,0,1.29.74l1,.62C49.56,26.21,49.65,26.23,49.64,26.33Z" fill="#fff580"/>
            <path d="M76.78,26.25a1,1,0,0,1-.55.23,3.82,3.82,0,0,0-.66-.61A12.57,12.57,0,0,1,74,24.22a.28.28,0,0,0-.18-.14h0l0-.15c.15,0,.25.12.34.2a29.32,29.32,0,0,0,2.47,2A.19.19,0,0,1,76.78,26.25Z" fill="#ffa3a3"/>
            <path d="M73.86,24.08a.26.26,0,0,1,.18.14,12.57,12.57,0,0,0,1.53,1.65,3.82,3.82,0,0,1,.66.61,1,1,0,0,1-.46.21.75.75,0,0,0-.27-.34A13.05,13.05,0,0,1,74,24.5.83.83,0,0,1,73.86,24.08Z" fill="#fed48e"/>
            <path d="M40.6,17a9.23,9.23,0,0,1,1,.56,3.34,3.34,0,0,1,.7.48.66.66,0,0,1,.21.63.3.3,0,0,1-.14.22,7.26,7.26,0,0,1-.71-.76c-.29-.31-.59-.61-.89-.91C40.66,17.14,40.58,17.09,40.6,17Z" fill="#ffa3a3"/>
            <path d="M31.27,52.75c0-.09.12-.11.21-.15A19.77,19.77,0,0,0,34.86,51c.39-.23.77-.48,1.15-.72a.52.52,0,0,1,.31-.12c0,.11-.13.15-.21.2A19.52,19.52,0,0,1,33,52.09,8.64,8.64,0,0,1,31.27,52.75Z" fill="#4be5c9"/>
            <path d="M22.33,53.9a.52.52,0,0,1,.16-.06,21.7,21.7,0,0,0,2.55,0,7.46,7.46,0,0,0,1.05-.1.15.15,0,0,1,.13,0s0,0,0,0a6.13,6.13,0,0,1-1.35.14c-.53,0-1.06,0-1.58,0A7.46,7.46,0,0,1,22.33,53.9Z" fill="#31d2d4"/>
            <path d="M72.91,22.53c-.19-.27-.37-.56-.57-.83a3.06,3.06,0,0,0-.8-.72.24.24,0,0,0-.16-.05h0c0-.07-.1-.07-.17-.07a3.11,3.11,0,0,1-.63-.21c.15-.15.33.11.45-.06a2.27,2.27,0,0,1,.94.54l.3.26a6.09,6.09,0,0,1,.51.74A.73.73,0,0,1,72.91,22.53Z" fill="#ff8078"/>
            <path d="M93,63.17a1.68,1.68,0,0,1,.7-.13c.26,0,.35.11.43.4-.41-.12-.72.1-1.07.22C93,63.5,93,63.34,93,63.17Z" fill="#fff580"/>
            <path d="M48.84,95a.36.36,0,0,1,.07-.22,12.86,12.86,0,0,0,1-2.06c.22,0,.15.2.1.31-.14.33-.29.65-.45,1a5,5,0,0,1-.45.77C49,94.87,49,95,48.84,95Z" fill="#ffa3a3"/>
            <path d="M3.39,37.64a2.15,2.15,0,0,1,.24.78c.15.57.28,1.14.48,1.69a.7.7,0,0,1,.09.35,2.09,2.09,0,0,1-.33-.82c-.19-.63-.34-1.27-.5-1.9C3.36,37.71,3.38,37.67,3.39,37.64Z" fill="#3fdcce"/>
            <path d="M8.42,47.28c.13,0,.19.12.27.2l.84.82c.08.08.19.13.21.25a.28.28,0,0,1-.21-.1l-1-1A.31.31,0,0,1,8.42,47.28Z" fill="#31d2d4"/>
            <path d="M46.08,25a1.61,1.61,0,0,1,.61.19.71.71,0,0,1-.41.27A1,1,0,0,1,46.08,25Z" fill="#ff8078"/>
            <path d="M44.74,37.37c-.15-.22,0-.43,0-.64s.12-.58.12-.88A.13.13,0,0,1,45,35.7,10.54,10.54,0,0,1,44.74,37.37Z" fill="#5ff1c1"/>
            <path d="M30.43,53c.28,0,.51-.18.78-.19a3.55,3.55,0,0,1-1.19.39C30.13,53,30.32,53.07,30.43,53Z" fill="#4be5c9"/>
            <path d="M9.74,48.55s.1,0,.13,0a2.37,2.37,0,0,1,.56.58A1.67,1.67,0,0,1,9.74,48.55Z" fill="#31d2d4"/>
            <path d="M90.31,53.36c.29.11.31.34.28.59A1.24,1.24,0,0,1,90.31,53.36Z" fill="#fff580"/>
            <path d="M8,46.81c.19.12.39.22.41.47A.83.83,0,0,1,8,46.81Z" fill="#31d2d4"/>
            <path d="M29.26,53.29c.22,0,.42-.13.64-.12a1.28,1.28,0,0,1-.64.18Z" fill="#4be5c9"/>
            <path d="M3,35.17c.11.17.22.34.06.54A1.66,1.66,0,0,1,3,35.17Z" fill="#3fdcce"/>
            <path d="M3.18,36.5a1.1,1.1,0,0,1,.13.69A1.8,1.8,0,0,1,3.18,36.5Z" fill="#3fdcce"/>
            <path d="M10.43,49.15a.51.51,0,0,1,.42.34A.68.68,0,0,1,10.43,49.15Z" fill="#31d2d4"/>
            <path d="M7.66,46.41c.18.09.34.19.35.4A.63.63,0,0,1,7.66,46.41Z" fill="#31d2d4"/>
            <path d="M4.21,40.46a.63.63,0,0,1,.2.53A.94.94,0,0,1,4.21,40.46Z" fill="#31d2d4"/>
            <path d="M10.85,49.49a.35.35,0,0,1,.34.27A.45.45,0,0,1,10.85,49.49Z" fill="#31d2d4"/>
            <path d="M28,53.56c.17,0,.32-.11.49-.06a.85.85,0,0,1-.5.12A.13.13,0,0,1,28,53.56Z" fill="#4be5c9"/>
            <path d="M7.39,46.08a.35.35,0,0,1,.27.33A.43.43,0,0,1,7.39,46.08Z" fill="#31d2d4"/>
            <path d="M12.78,50.83a.32.32,0,0,1,.35.2A.55.55,0,0,1,12.78,50.83Z" fill="#31d2d4"/>
            <path d="M5.52,43.33a.32.32,0,0,1,.21.34A.48.48,0,0,1,5.52,43.33Z" fill="#31d2d4"/>
            <path d="M3.11,35.9c.13.12.07.27.06.42A.86.86,0,0,1,3.11,35.9Z" fill="#3fdcce"/>
            <path d="M11.68,50.09c.16,0,.23.08.27.2A.3.3,0,0,1,11.68,50.09Z" fill="#31d2d4"/>
            <path d="M11.19,49.76c.16,0,.23.07.28.2A.35.35,0,0,1,11.19,49.76Z" fill="#31d2d4"/>
            <path d="M7.18,45.81c.13,0,.23.11.21.27A.31.31,0,0,1,7.18,45.81Z" fill="#31d2d4"/>
            <path d="M7,45.54c.13.05.23.12.21.27A.31.31,0,0,1,7,45.54Z" fill="#31d2d4"/>
            <path d="M6.63,45.07c.13,0,.22.12.2.27A.3.3,0,0,1,6.63,45.07Z" fill="#31d2d4"/>
            <path d="M4.55,41.33a.28.28,0,0,1,.14.33A.43.43,0,0,1,4.55,41.33Z" fill="#31d2d4"/>
            <path d="M4.41,41a.3.3,0,0,1,.14.34A.44.44,0,0,1,4.41,41Z" fill="#31d2d4"/>
            <path d="M4.76,41.79a.31.31,0,0,1,.14.34A.44.44,0,0,1,4.76,41.79Z" fill="#31d2d4"/>
            <path d="M3.17,30.94c0,.12.06.25-.06.35A.54.54,0,0,1,3.17,30.94Z" fill="#5ff1c1"/>
            <path d="M15.53,52.23a.29.29,0,0,1,.3.13A.34.34,0,0,1,15.53,52.23Z" fill="#31d2d4"/>
            <path d="M16,52.43a.33.33,0,0,1,.32.13A.39.39,0,0,1,16,52.43Z" fill="#31d2d4"/>
            <path d="M16.36,52.57a.29.29,0,0,1,.31.12A.35.35,0,0,1,16.36,52.57Z" fill="#31d2d4"/>
            <path d="M3,34.63c.11.08.08.18.07.28C3,34.82,2.91,34.74,3,34.63Z" fill="#3fdcce"/>
            <path d="M21.63,53.83c.15,0,.31-.07.44.06A1.3,1.3,0,0,1,21.63,53.83Z" fill="#31d2d4"/>
            <path d="M27.18,53.75c.08-.1.19-.07.29,0C27.38,53.74,27.3,53.81,27.18,53.75Z" fill="#4be5c9"/>
            <path d="M6,44.14a.15.15,0,0,1,.14.2A.2.2,0,0,1,6,44.14Z" fill="#31d2d4"/>
            <path d="M11.47,50a.16.16,0,0,1,.21.13A.2.2,0,0,1,11.47,50Z" fill="#31d2d4"/>
            <path d="M3.38,29.67c0,.08,0,.16-.06.21S3.33,29.74,3.38,29.67Z" fill="#5ff1c1"/>
            <path d="M3.52,29.07a.17.17,0,0,1-.06.21C3.39,29.19,3.47,29.13,3.52,29.07Z" fill="#5ff1c1"/>
            <path d="M6.14,44.34a.15.15,0,0,1,.14.2A.2.2,0,0,1,6.14,44.34Z" fill="#31d2d4"/>
            <path d="M6.49,44.87a.16.16,0,0,1,.14.2A.19.19,0,0,1,6.49,44.87Z" fill="#31d2d4"/>
            <path d="M5.8,43.8a.16.16,0,0,1,.14.2A.18.18,0,0,1,5.8,43.8Z" fill="#31d2d4"/>
            <path d="M6.35,44.67a.16.16,0,0,1,.14.2A.2.2,0,0,1,6.35,44.67Z" fill="#31d2d4"/>
            <path d="M3.24,30.48a.17.17,0,0,1-.06.21C3.12,30.59,3.19,30.54,3.24,30.48Z" fill="#5ff1c1"/>
            <path d="M6.83,45.34a.15.15,0,0,1,.14.2A.2.2,0,0,1,6.83,45.34Z" fill="#31d2d4"/>
            <path d="M2.83,66.06a.18.18,0,0,1,.14.2C2.84,66.25,2.82,66.16,2.83,66.06Z" fill="#fff580"/>
            <path d="M13.61,51.3c.12,0,.19,0,.21.13A.23.23,0,0,1,13.61,51.3Z" fill="#31d2d4"/>
            <path d="M3,32.43c0,.07,0,.15-.07.2s0-.14,0-.2Z" fill="#3fdcce"/>
            <path d="M3,66.26a.19.19,0,0,1,.14.2A.16.16,0,0,1,3,66.26Z" fill="#fff580"/>
            <path d="M3.4,66.71a1.1,1.1,0,0,1,.09.14s.06.08,0,.1-.07,0-.09-.09v-.14Z" fill="#ffa3a3"/>
            <path d="M13.13,51a.16.16,0,0,1,.21.13C13.24,51.15,13.16,51.12,13.13,51Z" fill="#31d2d4"/>
            <path d="M3.32,37.31c.09,0,.07.13.06.21S3.26,37.4,3.32,37.31Z" fill="#3fdcce"/>
            <path d="M3.1,31.48c0,.12.06.24-.05.34A.57.57,0,0,1,3.1,31.48Z" fill="#5ff1c1"/>
            <path d="M12.58,50.69a.17.17,0,0,1,.21.14C12.69,50.82,12.61,50.79,12.58,50.69Z" fill="#31d2d4"/>
            <path d="M12,50.29c.12,0,.19,0,.21.14A.23.23,0,0,1,12,50.29Z" fill="#31d2d4"/>
            <path d="M12.16,50.43a.16.16,0,0,1,.21.13C12.27,50.55,12.19,50.52,12.16,50.43Z" fill="#31d2d4"/>
            <path d="M12.37,50.56a.16.16,0,0,1,.21.13A.19.19,0,0,1,12.37,50.56Z" fill="#31d2d4"/>
            <path d="M3.3,30.07a.11.11,0,0,1,0,.15C3.19,30.14,3.24,30.1,3.3,30.07Z" fill="#5ff1c1"/>
            <path d="M3.44,29.4a.11.11,0,0,1,0,.15C3.33,29.48,3.38,29.43,3.44,29.4Z" fill="#5ff1c1"/>
            <path d="M21.08,53.76c.1,0,.21,0,.29.06A.49.49,0,0,1,21.08,53.76Z" fill="#31d2d4"/>
            <path d="M19.84,53.56c.1,0,.21,0,.29.06A.42.42,0,0,1,19.84,53.56Z" fill="#31d2d4"/>
            <path d="M6.64,67.66a.13.13,0,0,1-.14-.14C6.6,67.52,6.63,67.58,6.64,67.66Z" fill="#fff580"/>
            <path d="M29,53.36h.16c0,.06-.08.1-.16.05Z" fill="#4be5c9"/>
            <path d="M73.72,23.88s-.07-.1,0-.12.09,0,.11.09l0,0Z" fill="#ffa3a3"/>
            <path d="M73,22.86c-.07-.06-.06-.13-.07-.2S73,22.79,73,22.86Z" fill="#ff8078"/>
            <path d="M18.38,53.23c.08,0,.17,0,.23.06A.31.31,0,0,1,18.38,53.23Z" fill="#31d2d4"/>
            <path d="M18.66,53.3c.08,0,.17,0,.22.06A.29.29,0,0,1,18.66,53.3Z" fill="#31d2d4"/>
            <path d="M18.93,53.36c.09,0,.17,0,.23.06A.24.24,0,0,1,18.93,53.36Z" fill="#31d2d4"/>
            <path d="M26.77,53.76H27a.35.35,0,0,1-.22,0Z" fill="#4be5c9"/>
            <path d="M17.69,53c.08,0,.17,0,.23.06A.3.3,0,0,1,17.69,53Z" fill="#31d2d4"/>
            <path d="M19.21,53.43c.08,0,.17,0,.23.06A.31.31,0,0,1,19.21,53.43Z" fill="#31d2d4"/>
            <path d="M19.55,53.5c.09,0,.17,0,.23.06A.32.32,0,0,1,19.55,53.5Z" fill="#31d2d4"/>
            <path d="M26.21,53.85s0,0,0,0l.21,0A.22.22,0,0,1,26.21,53.85Z" fill="#4be5c9"/>
            <path d="M20.18,53.63c.08,0,.17,0,.22.06A.29.29,0,0,1,20.18,53.63Z" fill="#31d2d4"/>
            <path d="M20.59,53.7c.09,0,.17,0,.23.06A.31.31,0,0,1,20.59,53.7Z" fill="#31d2d4"/>
            <path d="M14.38,51.7c.06,0,.12,0,.14.06A.12.12,0,0,1,14.38,51.7Z" fill="#31d2d4"/>
            <path d="M14.52,51.76c.06,0,.11,0,.13.07S14.54,51.82,14.52,51.76Z" fill="#31d2d4"/>
            <path d="M14.65,51.83c.07,0,.12,0,.14.07A.13.13,0,0,1,14.65,51.83Z" fill="#31d2d4"/>
            <path d="M14.79,51.9c.07,0,.12,0,.14.06A.13.13,0,0,1,14.79,51.9Z" fill="#31d2d4"/>
            <path d="M14.93,52c.07,0,.12,0,.14.07A.13.13,0,0,1,14.93,52Z" fill="#31d2d4"/>
            <path d="M15.07,52c.06,0,.12,0,.14.07A.13.13,0,0,1,15.07,52Z" fill="#31d2d4"/>
            <path d="M15.21,52.1c.06,0,.12,0,.14.06A.13.13,0,0,1,15.21,52.1Z" fill="#31d2d4"/>
            <path d="M15.35,52.16a.12.12,0,0,1,.14.06A.12.12,0,0,1,15.35,52.16Z" fill="#31d2d4"/>
            <path d="M14.24,51.63c.06,0,.12,0,.14.07A.13.13,0,0,1,14.24,51.63Z" fill="#31d2d4"/>
            <path d="M15.83,52.36a.13.13,0,0,1,.15.06C15.92,52.43,15.86,52.43,15.83,52.36Z" fill="#31d2d4"/>
            <path d="M14.1,51.56c.06,0,.12,0,.14.07A.13.13,0,0,1,14.1,51.56Z" fill="#31d2d4"/>
            <path d="M14,51.49c.07,0,.12,0,.14.07A.13.13,0,0,1,14,51.49Z" fill="#31d2d4"/>
            <path d="M16.71,52.7c.07,0,.13,0,.17.06A.2.2,0,0,1,16.71,52.7Z" fill="#31d2d4"/>
            <path d="M16.91,52.77c.07,0,.14,0,.17.06A.2.2,0,0,1,16.91,52.77Z" fill="#31d2d4"/>
            <path d="M13.82,51.43c.07,0,.12,0,.14.07A.15.15,0,0,1,13.82,51.43Z" fill="#31d2d4"/>
            <path d="M17.07,52.83c.07,0,.12,0,.15.06A.13.13,0,0,1,17.07,52.83Z" fill="#31d2d4"/>
            <path d="M17.26,52.9c.07,0,.13,0,.17.06A.18.18,0,0,1,17.26,52.9Z" fill="#31d2d4"/>
            <path d="M17.47,53c.07,0,.13,0,.17.05A.16.16,0,0,1,17.47,53Z" fill="#31d2d4"/>
            <path d="M13.48,51.23c.06,0,.12,0,.14.06A.13.13,0,0,1,13.48,51.23Z" fill="#31d2d4"/>
            <path d="M18,53.1c.07,0,.13,0,.17.06A.19.19,0,0,1,18,53.1Z" fill="#31d2d4"/>
            <path d="M18.16,53.17c.07,0,.13,0,.17,0A.16.16,0,0,1,18.16,53.17Z" fill="#31d2d4"/>
            <path d="M13.34,51.16c.06,0,.12,0,.14.07A.13.13,0,0,1,13.34,51.16Z" fill="#31d2d4"/>
            <path d="M59.26.08s-.08,0-.08,0,0,0,.09,0,0,.05,0,.07Z" fill="#ffa3a3"/>
            <path d="M59.28.07s0,0,0-.07.12,0,.15.06Z" fill="#fff580"/>
            <path d="M41.3,87.18c-.06,0-.07-.07-.08-.13A.13.13,0,0,1,41.3,87.18Z" fill="#ffa3a3"/>
            <path d="M38.39,84.11c-.07,0-.08-.08-.08-.14A.11.11,0,0,1,38.39,84.11Z" fill="#fed48e"/>
            <path d="M34,76.83a.15.15,0,0,1-.07-.15C34,76.71,34,76.76,34,76.83Z" fill="#fed48e"/>
            <path d="M11.69,73a.12.12,0,0,1-.14-.07C11.62,72.93,11.67,72.94,11.69,73Z" fill="#fff580"/>
            <path d="M40.46,16.91a.14.14,0,0,1,.14.08A.12.12,0,0,1,40.46,16.91Z" fill="#ffa3a3"/>
            <path d="M6.71,67.79c-.06,0-.07-.07-.07-.13A.12.12,0,0,1,6.71,67.79Z" fill="#fff580"/>
            <path d="M48.76,95.14c0-.06,0-.11.08-.14A.16.16,0,0,1,48.76,95.14Z" fill="#ffa3a3"/>
            <path d="M6.51,67.53a.13.13,0,0,1-.08-.14C6.5,67.42,6.51,67.46,6.51,67.53Z" fill="#fff580"/>
            <path d="M73,22.67a.17.17,0,0,1-.08-.14C73,22.55,73,22.61,73,22.67Z" fill="#ff8078"/>
            <path d="M27.74,53.62h.15a.17.17,0,0,1-.15,0Z" fill="#4be5c9"/>
            <path d="M3.39,66.73v.13a.12.12,0,0,1-.07-.13Z" fill="#fed48e"/>
            <path d="M3.11,66.46a.11.11,0,0,1,.07.13A.12.12,0,0,1,3.11,66.46Z" fill="#fff580"/>
            <path d="M6.28,44.54c.08,0,.08.07.07.13A.12.12,0,0,1,6.28,44.54Z" fill="#31d2d4"/>
            <path d="M73.88,23.92l0,.16a.13.13,0,0,1-.07-.13l.09,0Z" fill="#fed48e"/>
            <path d="M5.94,44c.07,0,.08.07.06.14A.13.13,0,0,1,5.94,44Z" fill="#31d2d4"/>
            <path d="M5.73,43.67c.07,0,.08.07.07.13A.11.11,0,0,1,5.73,43.67Z" fill="#31d2d4"/>
            <path d="M5.45,43.2c.08,0,.08.07.07.13S5.45,43.26,5.45,43.2Z" fill="#31d2d4"/>
            <path d="M5.38,43.07c.08,0,.08.07.07.13A.13.13,0,0,1,5.38,43.07Z" fill="#31d2d4"/>
            <path d="M5.31,42.93c.08,0,.08.07.07.14A.13.13,0,0,1,5.31,42.93Z" fill="#31d2d4"/>
            <path d="M5.24,42.8a.09.09,0,0,1,.07.13C5.25,42.91,5.24,42.86,5.24,42.8Z" fill="#31d2d4"/>
            <path d="M5.17,42.66a.1.1,0,0,1,.07.14A.13.13,0,0,1,5.17,42.66Z" fill="#31d2d4"/>
            <path d="M5.11,42.53c.07,0,.08.07.06.13S5.1,42.59,5.11,42.53Z" fill="#31d2d4"/>
            <path d="M5,42.4c.07,0,.08.07.07.13A.12.12,0,0,1,5,42.4Z" fill="#31d2d4"/>
            <path d="M5,42.26c.07,0,.08.08.07.14A.12.12,0,0,1,5,42.26Z" fill="#31d2d4"/>
            <path d="M4.9,42.13c.07,0,.08.07.07.13S4.9,42.19,4.9,42.13Z" fill="#31d2d4"/>
            <path d="M4.69,41.66c.08,0,.08.07.07.13S4.69,41.72,4.69,41.66Z" fill="#31d2d4"/>
            <path d="M3.86,27.8c0,.06,0,.11-.06.14A.13.13,0,0,1,3.86,27.8Z" fill="#5ff1c1"/>
            <path d="M3.72,28.26c0,.06,0,.12-.05.15A.13.13,0,0,1,3.72,28.26Z" fill="#5ff1c1"/>
            <path d="M3.58,28.8a.12.12,0,0,1-.05.15A.12.12,0,0,1,3.58,28.8Z" fill="#5ff1c1"/>
            <path d="M3.67,28.62l-.07.06a.13.13,0,0,1,0-.15Z" fill="#5ff1c1"/>
            <path d="M3,32.43H3a.07.07,0,0,1,0-.08Z" fill="#5ff1c1"/>
            <path d="M3.77,28.05a.06.06,0,0,1,0,.09h0Z" fill="#5ff1c1"/>
            <path d="M3,35s0,0,0,.06Z" fill="#20c6db"/>
            <path d="M26.77,53.76v.05H26.7Z" fill="#31d2d4"/>
            <path d="M73.88,23.93l-.09,0h0v-.07l0,0A.09.09,0,0,1,73.88,23.93Z" fill="#ffa3a3"/>
            <path d="M73.8,23.87v.07l-.07-.06Z" fill="#fed48e"/>
            <path d="M3.18,66.59a.1.1,0,0,1,.07.07A.12.12,0,0,1,3.18,66.59Z" fill="#fff580"/>
            <path d="M37.16,49.08a.06.06,0,0,1,.06-.07A.07.07,0,0,1,37.16,49.08Z" fill="#5ff1c1"/>
            <path d="M3.25,66.66a.08.08,0,0,1,.07.07A.08.08,0,0,1,3.25,66.66Z" fill="#fed48e"/>
            <path d="M37.13,49.14s0,0,0,0h0A0,0,0,0,1,37.13,49.14Z" fill="#4be5c9"/>
            <path d="M27.74,53.62v.06h-.07Z" fill="#31d2d4"/>
            <path d="M37,49.28a.07.07,0,0,1,.06-.07A.07.07,0,0,1,37,49.28Z" fill="#5ff1c1"/>
            <path d="M28,53.56a.13.13,0,0,0,0,.06h-.07Z" fill="#31d2d4"/>
            <path d="M36.93,49.34l.08-.06,0,.07Z" fill="#4be5c9"/>
            <path d="M36.85,49.54c-.05,0,0,0,0-.06Z" fill="#4be5c9"/>
            <path d="M6.78,67.86a.12.12,0,0,1-.07-.07S6.78,67.82,6.78,67.86Z" fill="#fff580"/>
            <path d="M6.86,67.93a.11.11,0,0,1-.08-.07Z" fill="#fff580"/>
            <path d="M28.77,53.42l.09,0s-.05,0-.09,0Z" fill="#4be5c9"/>
            <path d="M28.77,53.42v0H28.7Z" fill="#31d2d4"/>
            <path d="M36.75,49.7a.07.07,0,0,1,0-.09h0Z" fill="#5ff1c1"/>
            <path d="M40.38,16.85a.1.1,0,0,1,.09.07Z" fill="#ffa3a3"/>
            <path d="M11.49,72.88l-.09-.07A.1.1,0,0,1,11.49,72.88Z" fill="#fff580"/>
            <path d="M11.56,72.94a.1.1,0,0,1-.08-.07A.08.08,0,0,1,11.56,72.94Z" fill="#fff580"/>
            <path d="M36.6,49.88a.08.08,0,0,1,.07-.07A.07.07,0,0,1,36.6,49.88Z" fill="#4be5c9"/>
            <path d="M36.53,50a.06.06,0,0,1,.06-.06h0S36.58,50,36.53,50Z" fill="#4be5c9"/>
            <path d="M43.17,11.7a.08.08,0,0,1-.07-.08Z" fill="#fff580"/>
            <path d="M38.32,84s-.06,0-.08-.07a.08.08,0,0,1,.08.07Z" fill="#fed48e"/>
            <path d="M29,53.36v.06h-.07Z" fill="#31d2d4"/>
            <path d="M36.46,50a.07.07,0,0,1,.06-.07h0a.08.08,0,0,1-.05.07Z" fill="#4be5c9"/>
            <path d="M29.26,53.29v.06h-.07Z" fill="#31d2d4"/>
            <path d="M36.39,50.09a.07.07,0,0,1,.06-.07h0S36.44,50.08,36.39,50.09Z" fill="#4be5c9"/>
            <path d="M36.32,50.15a.07.07,0,0,1,.07-.06h0a.06.06,0,0,1-.06.06Z" fill="#4be5c9"/>
            <path d="M36.88,49.48a.06.06,0,0,1,.06-.07A.09.09,0,0,1,36.88,49.48Z" fill="#5ff1c1"/>
            <path d="M39.93,66c0-.18,0-.36,0-.54V55.16a1.84,1.84,0,0,1,.24-1,5.43,5.43,0,0,1,.65-.94,2.87,2.87,0,0,1,.76-.48c.06,0,.14,0,.19-.08a2.07,2.07,0,0,1,.8-.46l.11-.08a4.19,4.19,0,0,1,1.12-.61.41.41,0,0,0,.15-.07,1.67,1.67,0,0,1,.8-.47l.12-.07a1.92,1.92,0,0,1,.81-.46.45.45,0,0,0,.13-.1,3,3,0,0,1,.76-.44c.22-.12.49-.17.65-.39s.26-.12.39-.2a9,9,0,0,1,1.57-.83.16.16,0,0,0,.1-.08c.15-.23.44-.28.66-.4a1.48,1.48,0,0,0,.36-.23,1.73,1.73,0,0,1,.53-.29c.33-.16.66-.34,1-.48a1,1,0,0,1,.3-.05c.29,0,.58,0,.87,0a1.66,1.66,0,0,1,.92.23c.72.42,1.43.86,2.16,1.25s1.27.72,1.91,1.08c1.14.64,2.27,1.3,3.41,2,.61.35,1.24.68,1.85,1a3,3,0,0,1,1.56,2.06c0,.12,0,.25,0,.37,0,1.17,0,2.34,0,3.51a.42.42,0,0,1-.24.42c-.42.22-.81.48-1.23.69-.91.47-1.79,1-2.7,1.48a.09.09,0,0,1-.11,0,.64.64,0,0,1,0-.31c0-1.09,0-2.19,0-3.28A2.67,2.67,0,0,0,59.08,55L56.89,53.7c-.5-.29-1-.58-1.49-.88S54.47,52.25,54,52a1.22,1.22,0,0,0-.81-.22,1.09,1.09,0,0,1-.31,0,5.42,5.42,0,0,0-1.45.05,1,1,0,0,0-.51.24,5.16,5.16,0,0,1-1.13.62.69.69,0,0,0-.15.07,3.85,3.85,0,0,1-1.12.63s-.09,0-.12.05a4.75,4.75,0,0,1-1.11.65c-.51.3-1,.58-1.53.89a3.48,3.48,0,0,0-1,.92,2.16,2.16,0,0,0-.43,1.27c0,2.07,0,4.15,0,6.22a2.56,2.56,0,0,0,1.22,2.17c.54.36,1.11.67,1.67,1,.74.44,1.46.89,2.21,1.3a13.55,13.55,0,0,0,2,1.06,1.17,1.17,0,0,0,.37.08h1.55c.25,0,.43-.19.64-.27.43-.17.76-.5,1.21-.67.21-.08.38-.29.62-.39.42-.17.76-.49,1.2-.66.22-.09.37-.32.62-.39s.57-.43.92-.54.76-.51,1.21-.67c.21-.07.38-.3.62-.39s.4-.19.6-.28a.71.71,0,0,0,.15-.08A4.12,4.12,0,0,1,62.22,64a3,3,0,0,0,.72-.41,1.6,1.6,0,0,1,.53-.29c.42-.19.85-.37,1.23-.59a10.76,10.76,0,0,0,1-.55,6.44,6.44,0,0,1,1.24-.66.24.24,0,0,0,.11-.09c.16-.23.43-.28.66-.39a1.48,1.48,0,0,0,.36-.23,2.06,2.06,0,0,1,.62-.33.61.61,0,0,0,.18-.09A1.71,1.71,0,0,1,69.6,60a.4.4,0,0,0,.16-.12,2.38,2.38,0,0,1,.67-.4,2.44,2.44,0,0,0,.75-.43c.13-.14.34-.15.5-.26a4.53,4.53,0,0,1,.74-.34l.16,0h.14A3.4,3.4,0,0,1,75,59c.41.24.84.46,1.25.7.81.48,1.65.93,2.47,1.4.57.33,1.15.65,1.73,1,1,.56,2,1.16,3,1.71a4.57,4.57,0,0,1,1.19.84,2.73,2.73,0,0,1,.72,1.63c0,.11,0,.22,0,.33V77.1a2.88,2.88,0,0,1-.9,2.13,4.7,4.7,0,0,1-1,.66l-5.61,3.16-3.53,2a1.62,1.62,0,0,1-.86.22,3.37,3.37,0,0,0-.55,0,2.43,2.43,0,0,1-1.59-.45c-.8-.46-1.61-.9-2.42-1.36l-1.76-1-3-1.7c-.63-.35-1.27-.68-1.88-1.06a3.07,3.07,0,0,1-1.55-2,2.19,2.19,0,0,1,0-.36V74.12a.71.71,0,0,1,.49-.72,4,4,0,0,0,.73-.4,3.54,3.54,0,0,1,.93-.47.5.5,0,0,0,.2-.13,2.09,2.09,0,0,1,.64-.38c.24-.14.52-.21.75-.37.08-.06.18,0,.27-.05s.24,0,.22.2a1.92,1.92,0,0,0,0,.24c0,.9,0,1.8,0,2.7a2.76,2.76,0,0,0,1.37,2.41c.55.34,1.13.65,1.69,1,.86.48,1.7,1,2.56,1.44a7.37,7.37,0,0,0,1.24.66,2.49,2.49,0,0,0,1.11.27c.23,0,.46,0,.69,0a.53.53,0,0,0,.45-.13s0,0,0,0c.62-.08,1-.61,1.62-.76a.19.19,0,0,0,.12-.07,1.39,1.39,0,0,1,.56-.36c.37-.11.59-.43,1-.56a13.37,13.37,0,0,0,1.17-.65,5.65,5.65,0,0,0,.9-.51c.29-.2.67-.32.87-.63a6,6,0,0,0,.6-.94A3.78,3.78,0,0,0,81,74.45V68.7A2.51,2.51,0,0,0,80.32,67a3.46,3.46,0,0,0-.95-.75L76.5,64.61c-.67-.37-1.32-.76-2-1.12a2.91,2.91,0,0,0-1.36-.33,3.19,3.19,0,0,0-1.77.32l-.92.52-4.6,2.58c-1.35.77-2.72,1.51-4.07,2.27l-6.41,3.62-1.43.81a2.92,2.92,0,0,1-2,.39,4.18,4.18,0,0,1-1.23-.52l-3.43-1.93-3.81-2.15-1.89-1a2.88,2.88,0,0,1-1.18-1.19c-.07-.13-.14-.25-.31-.28C40,66.37,40,66.18,39.93,66Z" fill="#fff"/>
            <path d="M39.93,66c0,.19.09.38.14.57s-.16.09-.18,0A1.53,1.53,0,0,1,39.93,66Z" fill="#9f9850"/>
            <path d="M11.34,65.32A9,9,0,0,1,10.9,64c-.31-1-.59-1.93-.83-2.91q-.18-.76-.3-1.53c0-.18-.09-.44.12-.52s.32.17.42.32A4.1,4.1,0,0,1,10.92,61a17.43,17.43,0,0,1,.3,2A18.64,18.64,0,0,1,11.34,65.32Z" fill="#ff8078"/>
            <path d="M12.59,70a1.44,1.44,0,0,1,.4.61,32.92,32.92,0,0,1,2.08,4,10.36,10.36,0,0,1,.38,1.11,1.87,1.87,0,0,1,0,.53c0,.32-.17.43-.5.38a1.08,1.08,0,0,1-.49-.21c.32-.13.33-.38.29-.65A9.65,9.65,0,0,0,14.28,74c-.49-1.27-1-2.52-1.63-3.75a.54.54,0,0,1-.06-.25Z" fill="#fff580"/>
            <path d="M12.59,70s-.07-.06-.05-.07,0,0,.05.07Z" fill="#fff580"/>
            <path d="M26.28,67.06a.13.13,0,0,1,.07.13A.17.17,0,0,1,26.28,67.06Z" fill="#fed48e"/>
            <path d="M25.94,66.59a.13.13,0,0,1,.07.13A.13.13,0,0,1,25.94,66.59Z" fill="#ff8078"/>
            <path d="M36.66,40.11a5.57,5.57,0,0,1-.37,2.06A5.39,5.39,0,0,1,32,45.53l-.13,0a6.63,6.63,0,0,1-2-.11,4.09,4.09,0,0,1-1.39-.55,5.45,5.45,0,0,1-2.18-2.31c-.16-.3-.25-.62-.38-.93a1.48,1.48,0,0,0,0-.3,8.65,8.65,0,0,1-.08-1.76c0-1.6,0-3.19,0-4.78,0-.31,0-.31-.32-.3L24,34.56l-1.34,0c-.36,0-.36,0-.36.36v3.57c0,.43,0,.85,0,1.27s0,.78-.05,1.17a5.2,5.2,0,0,1-2.7,3.93l-.16.11a7.18,7.18,0,0,1-1.57.5,6.3,6.3,0,0,1-1.89,0A5,5,0,0,1,14.33,45a5.75,5.75,0,0,1-1.68-1.34,3.72,3.72,0,0,1-.61-.91,7.84,7.84,0,0,1-.49-1.51,10.25,10.25,0,0,1-.07-1.75c0-.32,0-.65,0-1a1.64,1.64,0,0,0,0-.23V33.63a1.36,1.36,0,0,0,0-.2c0-.13,0-.27,0-.4,0-2.09,0-4.18,0-6.27a5.41,5.41,0,0,1,1.24-3.5,3,3,0,0,1,.77-.73l.23-.15a5.55,5.55,0,0,1,4.41-.86,6.87,6.87,0,0,1,1.86.76c.34.25.65.53,1,.81a.18.18,0,0,0,0,.1,5.2,5.2,0,0,1,1.35,3.67c0,1.71,0,3.43,0,5.14v.27c0,.13.05.18.18.17l.77,0c.73,0,1.47,0,2.21-.06.25,0,.26,0,.28-.27a.57.57,0,0,0,0-.13V26a.36.36,0,0,0,0-.1,5.26,5.26,0,0,1,2.58-3.84A6.48,6.48,0,0,1,30,21.41c.33,0,.66-.08,1-.08A5.34,5.34,0,0,1,35.91,24a4.49,4.49,0,0,1,.62,1.64,4.23,4.23,0,0,1,.12,1.12v6.8c0,.12,0,.25,0,.37s0,.09,0,.13V40S36.66,40.06,36.66,40.11ZM28,26.88c0,1.67,0,3.34,0,5,0,.2,0,.2.22.16a14.41,14.41,0,0,0,4.3-1.42,1.57,1.57,0,0,0,.47-.34,1.43,1.43,0,0,0,.22-.15,2.86,2.86,0,0,0,1.18-2.38c0-.43,0-.87,0-1.3a3.17,3.17,0,0,0-4.08-2.88A3.1,3.1,0,0,0,28,26.88Zm-13,9.82a3.07,3.07,0,0,0-1.33,1.95,4.22,4.22,0,0,0,0,.87A7.11,7.11,0,0,0,13.76,41,3,3,0,0,0,16,43.38a3.2,3.2,0,0,0,4.05-3.53c0-.12,0-.24,0-.36,0-1.35,0-2.69,0-4,0-.61.15-.64-.63-.48a15,15,0,0,0-3.33,1A4.28,4.28,0,0,0,15.06,36.7Zm13-.06c0,1.33,0,2.67,0,4a.88.88,0,0,0,0,.16,3.19,3.19,0,0,0,4.38,2.44,3,3,0,0,0,2-2.53,2,2,0,0,0,0-.23V32.23s0-.13-.07-.17l-.25.16a8.34,8.34,0,0,1-1.7.89,18.26,18.26,0,0,1-4.11,1.12c-.16,0-.26.06-.25.24,0,.72,0,1.44,0,2.17ZM13.81,25.8a2.35,2.35,0,0,0-.11.75v8.14c0,.07,0,.16.08.21l.65-.41A14.15,14.15,0,0,1,18.27,33c.54-.14,1.08-.23,1.62-.33.15,0,.23-.06.23-.22,0-.87,0-1.73,0-2.6a1,1,0,0,0,0-.17c0-1,0-2.09,0-3.13a3.27,3.27,0,0,0-.08-.7,3.19,3.19,0,0,0-3.89-2.33A3,3,0,0,0,13.81,25.8Z" fill="#fff"/>
            <path d="M58,11.9a3.1,3.1,0,0,1,.85.48c1.12.7,2.24,1.4,3.29,2.19a9.38,9.38,0,0,1,.9.77,1.13,1.13,0,0,1,.23.34c.07.16,0,.25-.16.28a.94.94,0,0,1-.47,0,5,5,0,0,1-1.32-.78,16.78,16.78,0,0,1-1.68-1.48c-.51-.51-1-1-1.52-1.54C58.1,12.06,58,12,58,11.9Z" fill="#fff580"/>
            <path d="M48.55,4.84a1.75,1.75,0,0,0,.78,1.4,13,13,0,0,0,2.29,1.47c.77.4,1.55.76,2.36,1.1a.19.19,0,0,1,.13.12.3.3,0,0,1-.21,0,21.05,21.05,0,0,1-3.56-1.13,5.2,5.2,0,0,1-1.78-1.17A1.23,1.23,0,0,1,48.55,4.84Z" fill="#fff580"/>
            <path d="M54.32,9h0s0,0,0,0h0S54.32,9,54.32,9Z" fill="#fff580"/>
            <path d="M58,11.84l.07.06h0a.1.1,0,0,1-.07-.07Z" fill="#fff580"/>
            <path d="M58,11.83h0s0,0,0,0Z" fill="#fff580"/>
            <path d="M30,21.41a6.19,6.19,0,0,0-1.64.66,5.26,5.26,0,0,0-2.58,3.84.36.36,0,0,0,0,.1.66.66,0,0,1-.4-.17l-1-.72c-.71-.5-1.45-1-2.15-1.47-.3-.22-.64-.4-.93-.62s-.22-.11-.34.06c-.31-.28-.63-.56-1-.82.11-.06.08-.12,0-.18a3.1,3.1,0,0,0-.46-.35c-.49-.27-.92-.62-1.38-.92C17,20,15.8,19.23,14.63,18.43c-.19-.12-.36-.26-.55-.39l-1.77-1.19a3.94,3.94,0,0,1,.88-.58,16.2,16.2,0,0,1,2-1.07A31.28,31.28,0,0,1,18.5,14a1,1,0,0,1,.93.15c1.18.85,2.4,1.67,3.61,2.49l3.52,2.4,1.61,1.08c.43.29.87.58,1.29.88a1,1,0,0,0,.45.23C30,21.28,30,21.35,30,21.41Z" fill="#4be5c9"/>
            <path d="M12.31,16.85,14.08,18l.55.4c1.17.79,2.33,1.6,3.51,2.38.46.3.89.65,1.38.92a3.1,3.1,0,0,1,.46.35c.07.06.1.12,0,.18a6.66,6.66,0,0,0-1.85-.75,5.51,5.51,0,0,0-4.41.86l-.23.15L10,20.18c-.34-.23-.67-.46-1-.66a5.77,5.77,0,0,1,.88-.83c.22-.15.4-.36.61-.53a12.25,12.25,0,0,0,1-.78l.11-.13Z" fill="#3fdcce"/>
            <path d="M77.82,38.6a6.35,6.35,0,0,1,.16-.87A11.82,11.82,0,0,0,78.22,35a6,6,0,0,0-1.07-3.35,5.58,5.58,0,0,0-1-1c-.24-.19-.27-.32-.15-.58a1.44,1.44,0,0,1,.85-.79,2,2,0,0,1,2,.15A3,3,0,0,1,80,31.17,6.07,6.07,0,0,1,79.81,34a18.46,18.46,0,0,1-1.87,4.5S77.9,38.6,77.82,38.6Z" fill="#fff580"/>
            <path d="M22.35,39.78c0-.42,0-.84,0-1.27V34.94c0-.34,0-.35.37-.36l1.34,0,1.42-.05c.32,0,.32,0,.32.3v4.78a8.66,8.66,0,0,0,.09,1.76,1.48,1.48,0,0,1,0,.3,2.87,2.87,0,0,1-.93-.54l-.85-.6c-.38-.27-.76-.52-1.15-.78s-.25-.16-.5,0Z" fill="#31d2d4"/>
            <path d="M71.21,20.86c.07,0,.14,0,.17.07A.22.22,0,0,1,71.21,20.86Z" fill="#fff580"/>
            <path d="M36.66,40.11s0-.11,0-.16V34s0-.09,0-.13a.43.43,0,0,1,.47.08l3.33,2.28,2.08,1.41,1.57,1.07a.44.44,0,0,1,.16.17A3.81,3.81,0,0,1,44,40a20.57,20.57,0,0,1-1.22,2.81,1.47,1.47,0,0,1-.58.68,1.71,1.71,0,0,0-.26.21,1.43,1.43,0,0,0-.68-.63c-.34-.21-.66-.44-1-.68s-.57-.36-.84-.56c-.56-.41-1.14-.78-1.71-1.17-.22-.14-.44-.28-.65-.43A.7.7,0,0,0,36.66,40.11Z" fill="#3fdcce"/>
            <path d="M33.76,78.81a3.63,3.63,0,0,1,.5.75c.67,1.09,1.41,2.14,2.14,3.19l.05.09a1.76,1.76,0,0,1-1.05-.45,4.15,4.15,0,0,1-1.16-1.79,11.36,11.36,0,0,1-.44-1.4A1.72,1.72,0,0,1,33.76,78.81Z" fill="#ffc77f"/>
            <path d="M28.57,69.53s-.06-.06-.05-.07,0,.05,0,.07Z" fill="#9f9850"/>
            <path d="M28.63,69.6a.07.07,0,0,1-.06-.07h0a.08.08,0,0,1,.08.07Z" fill="#9f9850"/>
            <path d="M37.27,48.87s0,0,0,.06,0,0,0,0S37.27,48.88,37.27,48.87Z" fill="#4be5c9"/>
            <path d="M20.09,29.89c.05.87,0,1.73,0,2.6,0,.16-.08.2-.23.22-.54.1-1.08.19-1.62.33a14.15,14.15,0,0,0-3.84,1.45l-.65.41c-.12,0-.08-.14-.08-.21V26.55a2.35,2.35,0,0,1,.11-.75l3.56,2.42c.63.43,1.24.88,1.87,1.29C19.5,29.68,19.73,29.93,20.09,29.89Z" fill="#31d2d4"/>
            <path d="M28,36.64c0-.73,0-1.45,0-2.17,0-.18.09-.22.25-.24a18.26,18.26,0,0,0,4.11-1.12,8.34,8.34,0,0,0,1.7-.89l.25-.16c.1,0,.07.11.07.17v8.25a1.94,1.94,0,0,1,0,.24c-.27,0-.43-.2-.63-.33-1-.64-1.91-1.3-2.86-2-.78-.54-1.57-1.07-2.36-1.6A.77.77,0,0,0,28,36.64Z" fill="#3fdcce"/>
            <path d="M20.09,39.85A3.2,3.2,0,0,1,16,43.38,3,3,0,0,1,13.76,41a7.11,7.11,0,0,1-.06-1.46,4.22,4.22,0,0,1,0-.87,3,3,0,0,1,1.33-1.95.4.4,0,0,1,.21.09l1.88,1.29c.67.46,1.32.93,2,1.37C19.43,39.63,19.69,39.93,20.09,39.85Z" fill="#20c6db"/>
            <path d="M28,26.88a3.1,3.1,0,0,1,2.29-3.3,3.17,3.17,0,0,1,4.08,2.88c0,.43,0,.87,0,1.3a2.88,2.88,0,0,1-1.17,2.38,1.14,1.14,0,0,1-.23.15c0-.2-.11-.3-.26-.39-.34-.24-.7-.46-1-.7l-3.13-2.15A.66.66,0,0,0,28,26.88Z" fill="#4be5c9"/>
            <path d="M20.94,23.09c.12-.17.16-.19.34-.06s.63.4.93.62c.7.51,1.44,1,2.15,1.47l1,.72a.66.66,0,0,0,.4.17c0,2,0,4,0,5.95v.13c0,.25,0,.26-.29.27-.73,0-1.47.06-2.21.06l-.76,0c-.13,0-.19,0-.19-.17a2.43,2.43,0,0,0,0-.27c0-1.71,0-3.43,0-5.14A5.21,5.21,0,0,0,21,23.19.3.3,0,0,1,20.94,23.09Z" fill="#3fdcce"/>
            <path d="M28,36.64a.77.77,0,0,1,.5.2c.79.53,1.58,1.06,2.36,1.6,1,.65,1.9,1.31,2.86,2,.2.13.37.32.63.33a3,3,0,0,1-2,2.53A3.2,3.2,0,0,1,28,40.81a.88.88,0,0,1,0-.17C28,39.31,28,38,28,36.64Z" fill="#31d2d4"/>
            <path d="M20.09,29.89c-.36,0-.59-.21-.85-.38-.63-.42-1.24-.86-1.87-1.29L13.81,25.8a3,3,0,0,1,2.33-2.24A3.19,3.19,0,0,1,20,25.89a3.27,3.27,0,0,1,.08.7c0,1,0,2.09,0,3.13Z" fill="#3fdcce"/>
            <path d="M28,26.88a.66.66,0,0,1,.54.17l3.13,2.15,1,.69c.15.1.28.2.27.4a1.57,1.57,0,0,1-.47.34,14.41,14.41,0,0,1-4.3,1.42c-.21,0-.22,0-.22-.17C28,30.22,28,28.55,28,26.88Z" fill="#3fdcce"/>
            <path d="M20.09,39.85c-.41.08-.66-.22-.94-.4-.68-.44-1.33-.91-2-1.37l-1.88-1.29a.4.4,0,0,0-.21-.09A4,4,0,0,1,16.15,36,15,15,0,0,1,19.48,35c.78-.16.63-.13.63.48,0,1.35,0,2.69,0,4C20.11,39.61,20.1,39.73,20.09,39.85Z" fill="#31d2d4"/>
          </g>
        </g>
      </g>
    </g>
  </g>
</svg>
