<svg xmlns="http://www.w3.org/2000/svg" viewBox="0 0 96 96">
  <g id="Layer_2" data-name="Layer 2">
    <g id="Layer_1-2" data-name="Layer 1">
      <g id="Layer_2-2" data-name="Layer 2">
        <g id="Layer_1-2-2" data-name="Layer 1-2">
          <g>
            <path d="M33.9,54.93A13,13,0,0,0,33,57.57a29.74,29.74,0,0,0-1.1,6.35,29.07,29.07,0,0,0,8.44,22.29,31.07,31.07,0,0,0,9.89,6.68,31.71,31.71,0,0,0,32.2-4.71,30.1,30.1,0,0,0,8.49-11.49A29,29,0,0,0,86,46.87a31.65,31.65,0,0,0-10.09-7.69,30.34,30.34,0,0,0-10.37-2.9,32,32,0,0,0-12.93,1.37,38.85,38.85,0,0,0-5.57,2.44,21.66,21.66,0,0,0,.73-8.69,23.42,23.42,0,0,0-3.72-10,22,22,0,0,0-4-4.45,23,23,0,0,0-5.67-3.7A25.37,25.37,0,0,0,25.29,11,24.47,24.47,0,0,0,6.79,18.3,22.51,22.51,0,0,0,2,25.85,22.19,22.19,0,0,0,.43,35.27a23.14,23.14,0,0,0,10.82,18,24.76,24.76,0,0,0,8.19,3.24A25.38,25.38,0,0,0,33.9,54.93Z" fill="#fdfdfe"/>
            <path d="M35.56,51.49a6.56,6.56,0,0,0-1.39.72,17.34,17.34,0,0,1-2.42,1A22.35,22.35,0,0,1,21,54.31a21.46,21.46,0,0,1-10.13-4.5,20.56,20.56,0,0,1-5.71-7.32A20.12,20.12,0,0,1,3.3,35.27a19,19,0,0,1,.62-6.05,20.39,20.39,0,0,1,2.6-5.84,21.44,21.44,0,0,1,26.82-7.57,21.27,21.27,0,0,1,6.86,5,19.71,19.71,0,0,1,4.33,7.55A20.21,20.21,0,0,1,45,38.22a23,23,0,0,1-.82,2.8,7.13,7.13,0,0,0-.46,1.24,5.64,5.64,0,0,0,.93-.63c.53-.37,1.07-.72,1.63-1.05.3-.18.87-.38,1.06-.67a2.5,2.5,0,0,0,.24-.86c.12-.62.25-1.24.33-1.87a22.78,22.78,0,0,0-.37-8A23.9,23.9,0,0,0,26.77,11.21a25.46,25.46,0,0,0-13.66,2.5A23.16,23.16,0,0,0,7.2,17.93,22.75,22.75,0,0,0,1.32,41.06a23.31,23.31,0,0,0,4,7.42,23.94,23.94,0,0,0,6.35,5.45,24.39,24.39,0,0,0,17.15,3A32.36,32.36,0,0,0,32.2,56a4.76,4.76,0,0,0,1.44-.57c.28-.22.41-.89.55-1.2C34.6,53.29,35.15,52.42,35.56,51.49Z" fill="#fff"/>
            <path d="M24,54a21.22,21.22,0,0,1-15.6-6.71A19.59,19.59,0,0,1,3.31,37.21C3.17,36.46,3.1,35.71,3,35a16.19,16.19,0,0,1,0-2.31,19.38,19.38,0,0,1,1.69-7A20.7,20.7,0,0,1,18.92,13.87a22.35,22.35,0,0,1,3.65-.56,15.3,15.3,0,0,1,2.44,0,22.37,22.37,0,0,1,4.46.68A20.75,20.75,0,0,1,44.38,28.33a21.61,21.61,0,0,1,.67,3.91,17,17,0,0,1,0,2.37A19.84,19.84,0,0,1,42.75,43a1.24,1.24,0,0,1-.35.44,29.6,29.6,0,0,0-5.69,6.35,1.56,1.56,0,0,1-.42.43A21.25,21.25,0,0,1,27.5,53.7,20.26,20.26,0,0,1,24,54Zm10.75-23.8a.92.92,0,0,0-.26.22q-6.9,6.66-13.79,13.33l-.15.14c-.09.08-.11.16,0,.25l.17.17c1,1,2,1.9,3,2.86.37.35.3.35.66,0l12.1-11.71,1.69-1.63c.22-.22.22-.22,0-.43l-3.13-3a1,1,0,0,0-.15-.14l-.09,0ZM18.61,42.31l.16-.13,14-13.51a1.36,1.36,0,0,1,.12-.12c.1-.09.11-.17,0-.26l-.17-.16-3-2.89a1.29,1.29,0,0,1-.17-.16c-.11-.11-.2-.1-.29,0l-.54.53L16.42,37.52,15.29,38.6c-.22.21-.21.21,0,.42l3.07,3C18.46,42.09,18.52,42.2,18.61,42.31Zm9-19.09c0-.09-.12-.15-.19-.22l-3.06-2.95c-.31-.3-.24-.32-.57,0l-8.41,8.13a1.85,1.85,0,0,1-.14.14c-.1.09-.12.16,0,.25s.13.13.19.19l3,2.88c.3.29.22.33.57,0l8.38-8.11.2-.19a.17.17,0,0,0,0-.12ZM16.84,33.63c0-.12-.13-.17-.2-.24l-3.08-3-.17-.16a.13.13,0,0,0-.18,0h0c-.06,0-.1.09-.15.13l-3.1,3-.13.12c-.08.08-.09.15,0,.23a1.85,1.85,0,0,1,.14.14l3.08,3,.12.12a.15.15,0,0,0,.26,0l.15-.14,3-2.93.16-.17A.36.36,0,0,0,16.84,33.63Z" fill="#efb80c"/>
            <path d="M15.35,55.24c.85.28,1.7.54,2.56.79a.7.7,0,0,0,.12.34c.36.59.71,1.19,1.08,1.78q1.2,1.91,2.58,3.69c.52.68,1.07,1.35,1.64,2s1.18,1.39,1.83,2c.12.12.23.24.34.37s.22.32.44.35h0a.13.13,0,0,0,.07.13l.27.34a.14.14,0,0,0,.07.13h0a.85.85,0,0,0,.13.31l1.19,2.23c1.06,2,2.08,4.07,3.17,6.08.63,1.18,1.27,2.35,1.93,3.51.39.68.79,1.35,1.2,2q.83,1.36,1.71,2.7c.78,1.16,1.56,2.31,2.41,3.42s1.72,2.21,2.66,3.26c.51.56,1,1.13,1.54,1.67.71.71,1.43,1.41,2.18,2.08a6.49,6.49,0,0,1-1.6-.51A11.39,11.39,0,0,1,40,92.11a19.93,19.93,0,0,1-3-3.3c-1.16-1.53-2.15-3.16-3.24-4.74-1.29-1.88-2.68-3.7-4.09-5.5-1.11-1.41-2.26-2.81-3.44-4.17-.81-.94-1.63-1.87-2.49-2.78s-1.66-1.75-2.55-2.57a20.12,20.12,0,0,0-3-2.41A5,5,0,0,0,16.7,66a1.84,1.84,0,0,0-.78-.08,1.21,1.21,0,0,0-1,.72,1.71,1.71,0,0,0-.16.71,7.72,7.72,0,0,0,.31,2.34,36.21,36.21,0,0,0,1.34,3.92C17,75,17.58,76.44,18,77.9a6.72,6.72,0,0,1,.43,2.21c0,.18,0,.41-.14.49s-.32-.12-.46-.24A29.86,29.86,0,0,1,15.57,78c-.76-.83-1.49-1.67-2.22-2.51S11.77,73.65,11,72.72c-.29-.34-.58-.68-.85-1,.47.33.82.79,1.27,1.14l.09.07h0a.08.08,0,0,0,.08.07h0a.12.12,0,0,0,.14.07h0c0,.12.08.18.15.25a9.73,9.73,0,0,0,.79.65,3.2,3.2,0,0,0,.63.4c.1,0,.2.07.29,0s.06-.15,0-.24c-.09-.36-.17-.71-.28-1.07a25.2,25.2,0,0,0-1.71-4.17c-.68-1.34-1.36-2.68-2.09-4-.56-1-1.06-2.07-1.56-3.13a26.32,26.32,0,0,1-1.48-3.94A15.94,15.94,0,0,1,6,55.47c0-.46,0-.93,0-1.4a2,2,0,0,1,.16-.78,1.29,1.29,0,0,1,1-.85,3.38,3.38,0,0,1,1.1,0,8,8,0,0,1,1.79.6c.13.06.25.23.39.13s0-.25,0-.38a12.7,12.7,0,0,1,1.13.65c.67.37,1.34.76,2.06,1.07a.61.61,0,0,1,.14.1l-.17.25a4.82,4.82,0,0,0-1,2,1.93,1.93,0,0,0,0,1l.1-.07c.9-.84,1.74-1.74,2.62-2.6A0,0,0,0,0,15.35,55.24ZM12.59,70s0-.09-.05-.06,0,0,.05.06a.46.46,0,0,0,.07.26c.58,1.23,1.13,2.47,1.62,3.74a9.75,9.75,0,0,1,.51,1.83c0,.27,0,.52-.29.65a1,1,0,0,0,.49.2c.33.06.49-.06.5-.38a1.53,1.53,0,0,0,0-.52,10.36,10.36,0,0,0-.38-1.11A32.38,32.38,0,0,0,13,70.61a1.66,1.66,0,0,0-.4-.61Zm-1.31-4.75a9.76,9.76,0,0,0,0-1.43c-.06-.68-.13-1.36-.23-2a8.82,8.82,0,0,0-.5-2,1.77,1.77,0,0,0-.5-.71c-.13-.1-.21-.08-.27.07a.67.67,0,0,0,0,.42c.1.52.19,1,.31,1.56.18.74.39,1.46.6,2.18S11.08,64.61,11.28,65.25Z" fill="#ffa3a3"/>
            <path d="M52.28,40.84a13.51,13.51,0,0,1,1.61-.59,18.2,18.2,0,0,1,2.41-.64A24.85,24.85,0,0,1,59.94,39a1.5,1.5,0,0,1,.37,0c0,.17.17.26.3.35s.57.38.85.57l3.89,2.64c1.07.73,2.14,1.48,3.22,2.21l2.85,1.92L75,49.15l3.74,2.55,3.13,2.12,1.94,1.32,2.81,1.92c.74.5,1.47,1,2.22,1.52a1.25,1.25,0,0,0,.59.31c.12.61.28,1.21.41,1.82s.2,1,.28,1.5a14.28,14.28,0,0,1,.16,1.45,23.24,23.24,0,0,1,.08,2.77s0,.06,0,.09a.77.77,0,0,1-.3-.15l-3-2-3.18-2.16L82,60.93c-.89-.59-1.77-1.2-2.64-1.81a.51.51,0,0,0-.54-.08c0-.67,0-1.34,0-2a7,7,0,0,0-.13-1.36,6.64,6.64,0,0,0-3.84-4.89,6.81,6.81,0,0,0-2.64-.66,7.46,7.46,0,0,0-2.78.38,8.2,8.2,0,0,0-1.88,1,.33.33,0,0,0-.19-.33c-.51-.34-1-.68-1.52-1-1-.68-2-1.37-3-2.06l-2-1.37-3.51-2.4c-1.48-1-3-2-4.44-3C52.65,41.14,52.39,41.08,52.28,40.84Z" fill="#55ecc5"/>
            <path d="M34.93,67.53a13.91,13.91,0,0,1-.06-2.14c.2,0,.33.08.47.17L38.89,68l3.71,2.53,1.49,1L46,72.85a.46.46,0,0,0,.36.09c0,.57,0,1.14,0,1.71a5.74,5.74,0,0,0,.1,1.09A7,7,0,0,0,56,80.91a9.47,9.47,0,0,0,1.58-.82,1.28,1.28,0,0,1,.46.21l2.25,1.54,2.14,1.45c.94.63,1.88,1.28,2.81,1.92l2.12,1.43L70.74,89l2,1.32a.38.38,0,0,1,.21.36,15.8,15.8,0,0,1-1.9.66,25.85,25.85,0,0,1-5.3,1.09,3.94,3.94,0,0,1-.69,0c0-.19-.18-.28-.31-.38l-1.05-.7-4.22-2.87-2-1.37-3.51-2.39-3.8-2.59-3.74-2.55-4.22-2.87C41,76,39.92,75.2,38.79,74.45c-.86-.58-1.73-1.16-2.59-1.76a.58.58,0,0,0-.44-.15,19.57,19.57,0,0,1-.55-2.5,19.07,19.07,0,0,1-.28-2.38C35,67.61,35,67.57,34.93,67.53Z" fill="#15bee0"/>
            <path d="M45.7,24.07a3,3,0,0,1-.27-.5c-.3-.57-.6-1.15-1-1.7a.49.49,0,0,1-.13-.31,1.56,1.56,0,0,1,.67-.15,35.94,35.94,0,0,0,5.71-1.36A11.65,11.65,0,0,0,54,18.46a4.25,4.25,0,0,0,1.17-1.22,2.75,2.75,0,0,0,.05-2.77,5.19,5.19,0,0,0-1.35-1.68,17.78,17.78,0,0,0-3.33-2.13c-1.27-.67-2.58-1.28-3.82-2a9.46,9.46,0,0,1-1.82-1.31,3.52,3.52,0,0,1-.77-1.07.58.58,0,0,1,.21-.84,3.06,3.06,0,0,1,1-.49,16.56,16.56,0,0,1,2.69-.59c.81-.12,1.63-.23,2.45-.32.62-.07,1.24-.11,1.86-.15a9.44,9.44,0,0,1,1.3-.07,2,2,0,0,1,.35,0c-.4.13-.8.23-1.19.38a1.63,1.63,0,0,0-.72.21,5.47,5.47,0,0,0-1.27.66c-.32.23-.52.68-.1,1,.26.21.5.46.77.67a16.52,16.52,0,0,0,2.74,1.71c1.11.56,2.27,1,3.43,1.49,1.34.53,2.69,1,4,1.59a27.6,27.6,0,0,1,2.74,1.32,17.1,17.1,0,0,1,2.65,1.79,10.55,10.55,0,0,1,2.11,2.27,3.12,3.12,0,0,1,.51,1.41,2.24,2.24,0,0,1-.61,1.71c-.59-.09-1.17-.21-1.76-.28a17.07,17.07,0,0,0-1.74-.17c-.7,0-1.41,0-2.11,0a12.58,12.58,0,0,0-1.62.1c-.72.07-1.45.18-2.17.3a27.69,27.69,0,0,0-3.6.85,36,36,0,0,0-4.28,1.59q-1.65.73-3.21,1.62l-1.37.77a.89.89,0,0,1-.33-.15C46.51,24.46,46.12,24.24,45.7,24.07ZM58,11.83a.08.08,0,0,0,.07.07,1.47,1.47,0,0,0,.47.6,28.11,28.11,0,0,0,2.94,2.72,4.6,4.6,0,0,0,1.24.71,1.06,1.06,0,0,0,.47,0c.18,0,.23-.13.15-.29a1,1,0,0,0-.22-.34,9.28,9.28,0,0,0-.9-.76c-1-.81-2.17-1.5-3.29-2.2A3.28,3.28,0,0,0,58,11.9L58,11.84s0,0,0,0Zm-9.42-7a1.21,1.21,0,0,0,0,1.77A4.56,4.56,0,0,0,50.1,7.72a19.26,19.26,0,0,0,3.72,1.21.39.39,0,0,0,.28,0c0-.06,0-.08-.08-.1l-.85-.37a16.31,16.31,0,0,1-3.8-2.2A1.87,1.87,0,0,1,48.54,4.87ZM54.27,9s0,0,0,0h0s0,0,0,0Z" fill="#ffa3a3"/>
            <path d="M63.29,36.13h-1a.88.88,0,0,0,.07-.32c0-.31.06-.62.08-.93,0-.47.11-.94.12-1.42a1.64,1.64,0,0,1,0-.23,5.51,5.51,0,0,0,0-1.72.29.29,0,0,0-.17-.24c-.12-.05-.19.06-.25.13a3.8,3.8,0,0,0-.49.88l-.86,2c-.1.22-.16.23-.35.06-.41-.38-.81-.78-1.24-1.15s-1-.91-1.56-1.36c-.69-.6-1.41-1.16-2.14-1.71-1-.79-2.11-1.53-3.2-2.25-.85-.57-1.74-1.06-2.63-1.56,0-.1-.08-.12-.14-.16l-1-.62a24.8,24.8,0,0,1,3.77-1.14,13.58,13.58,0,0,1,1.9-.27c.62,0,1.23,0,1.92,0a6.83,6.83,0,0,0-1.84-.6c-.62-.14-1.26-.22-1.94-.32a.94.94,0,0,1,.37-.16c.83-.2,1.66-.41,2.51-.57.68-.13,1.36-.28,2.05-.37.51-.06,1-.17,1.52-.24s.87-.12,1.3-.15.71,0,1.06-.09,1-.06,1.51-.09a16.18,16.18,0,0,1,2.41,0c.62.06,1.25.11,1.87.22a6.34,6.34,0,0,1,2.63,1,2.89,2.89,0,0,1,1.12,1.44,3.82,3.82,0,0,1,0,2,10.26,10.26,0,0,1-1.28,2.87.37.37,0,0,1-.36.2c-.22,0-.43-.05-.65-.06-.67,0-1.35-.06-2-.14-.26,0-.3,0-.39.27-.21.59-.41,1.18-.63,1.76q-.57,1.47-1.2,2.91c-.28.63-.55,1.27-.87,1.88A.9.9,0,0,0,63.29,36.13Z" fill="#ff7b69"/>
            <path d="M35.77,72.54a.6.6,0,0,1,.44.16c.85.59,1.72,1.18,2.58,1.75,1.13.76,2.23,1.53,3.35,2.29l4.22,2.87,3.74,2.55,3.79,2.59,3.51,2.39,2,1.37,4.21,2.87c.35.24.71.46,1.05.7.14.1.29.19.32.38a4,4,0,0,1-.91.07c0-.06-.09-.06-.13,0a17.38,17.38,0,0,1-2.7,0c-.06-.08-.13-.08-.2,0a18.63,18.63,0,0,1-2.37-.21,28,28,0,0,1-6.87-1.84A27.34,27.34,0,0,1,38,78.22a26.22,26.22,0,0,1-2.26-5.58A.17.17,0,0,1,35.77,72.54Z" fill="#0db8e3"/>
            <path d="M89.45,58.9a1.41,1.41,0,0,1-.59-.32l-2.22-1.52-2.81-1.92-1.94-1.32L78.76,51.7,75,49.15l-3.59-2.46c-1-.64-1.91-1.27-2.86-1.92s-2.14-1.48-3.22-2.21c-1.29-.89-2.59-1.76-3.89-2.64-.28-.19-.57-.37-.85-.57a.65.65,0,0,1-.3-.35,27.25,27.25,0,0,1,4.14,0,30.47,30.47,0,0,1,4,.54A28,28,0,0,1,73.31,41a27.71,27.71,0,0,1,9.9,6.77,26.62,26.62,0,0,1,6,10.17A6.7,6.7,0,0,1,89.45,58.9Z" fill="#5ff3c1"/>
            <path d="M85.15,81.39A14,14,0,0,1,83.88,83a19.46,19.46,0,0,1-1.39,1.48c-.34.33-.74.6-1.06.94a15.67,15.67,0,0,1-2,1.7,14.9,14.9,0,0,1-1.49,1,.17.17,0,0,1-.1,0,.43.43,0,0,0-.23-.38l-3.81-2.58L70,82.57,66.21,80l-2.84-1.94L61,76.47c-.23-.15-.44-.38-.77-.32a16.46,16.46,0,0,0,.15-3.29c0-1.66,0-3.32,0-5,0-.66,0-.66.68-.68l3.38-.08c.38,0,.37,0,.37.36V74.4c0,.36,0,.71.07,1.06a3.87,3.87,0,0,0,.11.76,7.24,7.24,0,0,0,1.08,2.28,6.6,6.6,0,0,0,2,1.85,6.15,6.15,0,0,0,2.45.9,8,8,0,0,0,2.24.06,6.94,6.94,0,0,0,4.57-2.5,7.41,7.41,0,0,0,1.16-2,.68.68,0,0,1,.42.11c.22.18.47.32.71.48l3.54,2.41L85,81.05A.38.38,0,0,1,85.15,81.39Z" fill="#30d1d5"/>
            <path d="M73.11,26.27a.81.81,0,0,0,.08.48,3.49,3.49,0,0,1,.15.34c.23.47.23.47.72.3s1.15-.45,1.71-.7a1,1,0,0,0,.46-.21,1,1,0,0,0,.55-.23,4.94,4.94,0,0,0,1.07-.34,12.29,12.29,0,0,1,2.8-.67,4.89,4.89,0,0,1,2.28.18.18.18,0,0,1-.22,0,1.57,1.57,0,0,0-.48-.05,12.65,12.65,0,0,0-2.46.22,9.67,9.67,0,0,0-1.36.28c.23.08.43,0,.63,0a12.42,12.42,0,0,1,2.2.06,4.11,4.11,0,0,1,2.09,1,3.64,3.64,0,0,1,1.12,2.51,13.62,13.62,0,0,1-.19,2.92c-.1.66-.22,1.31-.35,2-.17.86-.39,1.71-.63,2.55-.37,1.28-.8,2.53-1.26,3.77l-.69,1.78a3.67,3.67,0,0,1-.61-.42,31.29,31.29,0,0,0-7-3.79l-.19-.08c0-.07,0-.13,0-.2a14,14,0,0,0,.2-2.89,8.3,8.3,0,0,0-.45-2.52,6.47,6.47,0,0,0-1.5-2.45.29.29,0,0,1-.07-.38,16.43,16.43,0,0,0,1.26-3A1,1,0,0,1,73.11,26.27ZM77.82,38.6a.13.13,0,0,0,.12-.08A18.69,18.69,0,0,0,79.81,34,6,6,0,0,0,80,31.18a3,3,0,0,0-1.16-1.76,2,2,0,0,0-1.91-.18A1.43,1.43,0,0,0,76,30c-.16.31-.14.45.14.66a5,5,0,0,1,1.47,1.79,6.41,6.41,0,0,1,.6,2.58A11.73,11.73,0,0,1,78,37.73a5.13,5.13,0,0,0-.16.87Z" fill="#ff6a69"/>
            <path d="M52.28,40.84c.11.24.37.3.56.43,1.47,1,3,2,4.44,3l3.51,2.39,2,1.37,3,2.07,1.52,1a.33.33,0,0,1,.19.33,3.38,3.38,0,0,0-.78.68A6.91,6.91,0,0,0,65,55.51c-.08.35-.06.71-.15,1.05a1,1,0,0,1-.52-.26l-3.06-2.08c-.5-.34-1-.69-1.48-1a1.15,1.15,0,0,0-.75-.31,8.26,8.26,0,0,0-1.52-1.43,8.81,8.81,0,0,0-1.81-.92c0-.16-.08-.24-.2-.33L53.68,49,50,46.51c-.52-.35-1-.72-1.54-1.06-.67-.45-1.32-.93-2-1.34-.06,0-.07-.08-.08-.14A13.75,13.75,0,0,1,48,42.9a26.58,26.58,0,0,1,4-2Z" fill="#4ae4ca"/>
            <path d="M85.15,81.39a.37.37,0,0,0-.18-.34l-1.83-1.24L79.61,77.4c-.24-.16-.49-.3-.71-.48a.68.68,0,0,0-.42-.11,9.84,9.84,0,0,0,.37-3.1c0-2.7,0-5.39,0-8.09,0-.12,0-.24,0-.37a.62.62,0,0,1,.47.17l3.31,2.26,4.19,2.85,2.3,1.57a.77.77,0,0,0,.4.18,8.66,8.66,0,0,1-.42,1.4c-.24.7-.45,1.42-.75,2.11s-.68,1.39-1,2.09-.88,1.54-1.34,2.3A7.75,7.75,0,0,1,85.15,81.39Z" fill="#3fdccf"/>
            <path d="M46.39,72.94a.5.5,0,0,1-.36-.08l-1.94-1.33-1.49-1L38.88,68l-3.54-2.42c-.14-.09-.27-.21-.47-.17a11,11,0,0,1,.08-1.9,23.25,23.25,0,0,1,.61-3.78,21,21,0,0,1,.71-2.43.76.76,0,0,1,.51.18,5.58,5.58,0,0,0,.56.39l3.73,2.54,3.07,2.09c.47.33.94.67,1.43,1a2.29,2.29,0,0,0,.82.46c0,.08,0,.15,0,.23,0,2.84,0,5.69,0,8.53C46.41,72.77,46.39,72.86,46.39,72.94Z" fill="#20c6db"/>
            <path d="M60.24,76.15c.33-.06.54.17.77.32l2.36,1.61L66.21,80,70,82.56l3.83,2.61,3.81,2.58a.43.43,0,0,1,.23.38,4.19,4.19,0,0,1-.84.55,23.34,23.34,0,0,1-4,2l-.1,0a.38.38,0,0,0-.21-.36l-2-1.32-3.42-2.34L65.2,85.21c-.93-.64-1.87-1.29-2.81-1.92l-2.14-1.45L58,80.3a1.28,1.28,0,0,0-.46-.21c.05,0,.09-.09.15-.13a6.78,6.78,0,0,0,2.21-2.83C60,76.81,60.13,76.48,60.24,76.15Z" fill="#20c6db"/>
            <path d="M46.39,63.92a2.29,2.29,0,0,1-.82-.46c-.49-.31-1-.65-1.43-1l-3.07-2.09-3.73-2.54a5.58,5.58,0,0,1-.56-.39.76.76,0,0,0-.51-.18,19.8,19.8,0,0,1,.86-2.21,26.78,26.78,0,0,1,3.37-5.56l.16-.17a1.17,1.17,0,0,1,.47.21c.23.16.46.32.7.47L45,52.18c.61.41,1.21.83,1.83,1.24.14.09.22.27.42.27a1,1,0,0,1-.07.15,6.69,6.69,0,0,0-.78,3.25c0,2.14,0,4.29,0,6.43C46.41,63.65,46.39,63.79,46.39,63.92Z" fill="#30d1d5"/>
            <path d="M59.76,36.23c-.67.09-1.35.17-2,.27a28.81,28.81,0,0,0-4.1.89,30.76,30.76,0,0,0-6.48,2.72l-.24.13h-.07c-.05-.1,0-.19,0-.29a24.33,24.33,0,0,0,.85-4.55,20.18,20.18,0,0,0,0-3.11A21.6,21.6,0,0,0,47,27.71c0-.11,0-.24-.08-.35a4.36,4.36,0,0,1,1.14.23,19.13,19.13,0,0,1,3.43,1.28c.42.2.82.41,1.22.62s1.06.58,1.58.9a23.94,23.94,0,0,1,2.56,1.79,10.44,10.44,0,0,1,1.53,1.44A6,6,0,0,1,59.76,36.23Z" fill="#ff7b69"/>
            <path d="M63.29,36.13a.9.9,0,0,1,0-.16c.32-.61.59-1.25.87-1.88q.63-1.44,1.2-2.91c.22-.58.42-1.17.63-1.76.09-.26.12-.29.39-.27.67.08,1.35.12,2,.14.22,0,.43.07.65.06a.37.37,0,0,0,.36-.2,10,10,0,0,0,1.27-2.87,3.82,3.82,0,0,0,0-2,2.89,2.89,0,0,0-1.12-1.44,6.34,6.34,0,0,0-2.63-1c-.62-.11-1.25-.16-1.88-.22a16.14,16.14,0,0,0-2.41,0c-.5,0-1,0-1.5.09s-.71.07-1.06.09-.87.09-1.3.15-1,.18-1.52.24c-.69.09-1.37.25-2.06.37-.84.16-1.67.37-2.5.57a.94.94,0,0,0-.37.16c.68.1,1.32.18,1.94.32a6.76,6.76,0,0,1,1.83.6c-.68,0-1.3,0-1.91,0a13.58,13.58,0,0,0-1.9.27,24.8,24.8,0,0,0-3.77,1.14,11,11,0,0,1-1.29-.74L48.61,24q1.56-.88,3.21-1.62a35.38,35.38,0,0,1,4.28-1.59A29.42,29.42,0,0,1,59.7,20c.73-.12,1.45-.23,2.18-.3a14.35,14.35,0,0,1,1.61-.09c.71,0,1.41,0,2.11,0a17.27,17.27,0,0,1,1.75.17c.59.07,1.17.19,1.76.28l.29.08A11.28,11.28,0,0,1,71,20.6c-.13.16-.29-.1-.45.06a3.06,3.06,0,0,0,.63.2c.05.05.1.09.17.07h0s0,.07,0,.09a2.84,2.84,0,0,1,.66,1.85,7.7,7.7,0,0,1-.15,2,26,26,0,0,1-1.47,4.92C69.77,31.55,69,33.25,68.33,35a14.72,14.72,0,0,0-.57,1.57,5.85,5.85,0,0,1-1.1-.17,22.22,22.22,0,0,0,1.42-6.64l-.14.43c-.24.84-.54,1.66-.85,2.47-.47,1.23-1,2.43-1.58,3.62Z" fill="#ff6a69"/>
            <path d="M89.53,72.28a.8.8,0,0,1-.4-.18l-2.3-1.57-4.18-2.85-3.32-2.25c-.14-.1-.28-.22-.47-.17,0-.13,0-.25,0-.37V59.77c0-.25,0-.49,0-.73a.51.51,0,0,1,.54.08c.87.61,1.75,1.22,2.63,1.81l1.89,1.28c1,.73,2.11,1.44,3.18,2.16l3,2a.85.85,0,0,0,.3.15A24.39,24.39,0,0,1,89.63,72,1.7,1.7,0,0,1,89.53,72.28Z" fill="#4ae4ca"/>
            <path d="M47.24,53.69c-.19,0-.27-.18-.41-.27-.62-.41-1.22-.83-1.83-1.24L41.83,50c-.24-.15-.47-.31-.7-.47a1.17,1.17,0,0,0-.47-.21A11.66,11.66,0,0,1,41.76,48a27.27,27.27,0,0,1,4.44-3.93l.2-.12c0,.06,0,.11.08.14.69.41,1.34.89,2,1.34.52.34,1,.71,1.54,1.06L53.68,49l1.8,1.22c.12.09.21.17.2.33l-.2,0a7.66,7.66,0,0,0-2.65-.28,5.55,5.55,0,0,0-1.42.24A7.25,7.25,0,0,0,48,52.63C47.73,53,47.5,53.33,47.24,53.69Z" fill="#3fdccf"/>
            <path d="M44.47,94.47c-.75-.67-1.47-1.37-2.18-2.08-.54-.54-1-1.11-1.54-1.67-.94-1-1.81-2.14-2.66-3.26S36.45,85.2,35.68,84c-.59-.89-1.15-1.79-1.71-2.7-.41-.67-.81-1.34-1.2-2-.66-1.16-1.3-2.33-1.93-3.51-1.09-2-2.11-4.06-3.18-6.08L26.48,67.5a.88.88,0,0,1-.13-.3.25.25,0,0,1,.21.1c.59.57,1.22,1.1,1.84,1.65.38.34.79.67,1.19,1,.77.61,1.55,1.21,2.37,1.76a1.57,1.57,0,0,0,.55.31c.13.46.25.92.37,1.38a29.25,29.25,0,0,0,1,2.91.78.78,0,0,1,.1.39c-.09,0-.12-.1-.16-.16q-2.13-3.15-4.49-6.14a3.6,3.6,0,0,0-.67-.79l-.07-.07s0-.09-.06-.07l0,.08.07.06a.45.45,0,0,0,.09.25l.44.76,1.68,3,2.65,4.73a1.51,1.51,0,0,1,.27.5,1.1,1.1,0,0,0,0,.36,11.86,11.86,0,0,0,.45,1.43,4.12,4.12,0,0,0,1.16,1.78,1.75,1.75,0,0,0,1,.45Q38,84.94,39.56,87a.64.64,0,0,0,.25.24c0-.1,0-.15,0-.21-.31-.62-.63-1.24-.92-1.87a5.3,5.3,0,0,1-.46-1c.17,0,.23.19.32.29A29.33,29.33,0,0,0,41.14,87l.08.1a.12.12,0,0,0,.08.13h0a5.61,5.61,0,0,0,.56,1c.93,1.53,1.91,3,3,4.48a5.18,5.18,0,0,0,1.48,1.47,1.78,1.78,0,0,0,2,0,3.71,3.71,0,0,0,1.38-1.53.36.36,0,0,1,.2.08,14.16,14.16,0,0,1-1,2.05.45.45,0,0,0-.08.22h0a.12.12,0,0,0-.08.13,2.29,2.29,0,0,1-.65.63,1.67,1.67,0,0,1-1.58.06,5.78,5.78,0,0,1-1.4-.82Z" fill="#fed48e"/>
            <path d="M22.34,56.72a23.24,23.24,0,0,0,3.44,0c.66-.08,1.32-.12,2-.23L29,56.2a2,2,0,0,1,.48-.06,1.71,1.71,0,0,0,.13.23l1,1.06,1,1.17.88,1c-.1.55-.2,1.09-.29,1.64-.13.77-.2,1.54-.27,2.31a34.85,34.85,0,0,0-.06,3.54c0,.94.14,1.88.25,2.82a.38.38,0,0,1-.15-.18c-.27-.45-.54-.9-.8-1.36-.64-1.09-1.31-2.16-2-3.22-1-1.55-2.13-3-3.32-4.49A44.19,44.19,0,0,0,22.53,57C22.46,56.91,22.35,56.85,22.34,56.72Z" fill="#ff7b69"/>
            <path d="M22.34,56.72c0,.13.12.19.2.26a44.07,44.07,0,0,1,3.31,3.66,54.18,54.18,0,0,1,3.32,4.49c.7,1.06,1.38,2.13,2,3.22.26.46.53.91.8,1.36a.38.38,0,0,0,.15.18L32.51,72a1.45,1.45,0,0,1-.55-.32c-.82-.55-1.6-1.14-2.37-1.75-.4-.32-.81-.65-1.2-1-.61-.55-1.24-1.08-1.83-1.66a.32.32,0,0,0-.21-.1h0a.13.13,0,0,0-.07-.13L26,66.72a.17.17,0,0,0-.07-.13h0a.81.81,0,0,0-.13-.3c-.22-.39-.46-.78-.67-1.17-.51-1-1.08-1.89-1.64-2.82-1.14-1.88-2.33-3.73-3.6-5.53-.07-.11-.19-.2-.19-.35a14.37,14.37,0,0,1,1.47.17A5.65,5.65,0,0,1,22.34,56.72Z" fill="#ffc77f"/>
            <path d="M81.33,42.4c.23-.59.46-1.18.68-1.78.46-1.24.9-2.49,1.27-3.77.24-.84.46-1.69.63-2.55.13-.66.25-1.31.35-2a13.62,13.62,0,0,0,.19-2.92,3.69,3.69,0,0,0-1.12-2.51,4.11,4.11,0,0,0-2.09-1,12.45,12.45,0,0,0-2.2-.06c-.2,0-.4.11-.63,0a9.67,9.67,0,0,1,1.36-.28,11.92,11.92,0,0,1,2.46-.22,1.57,1.57,0,0,1,.48.05.19.19,0,0,0,.22,0,3,3,0,0,1,1.6,1.15,6.43,6.43,0,0,1,1,2.32c.13.48.24,1,.35,1.45a8.35,8.35,0,0,0,.16,1.32c.11.81.14,1.62.18,2.42a17.22,17.22,0,0,1,0,1.9c0,.44,0,.89-.1,1.33-.08.79-.19,1.58-.34,2.37a36,36,0,0,1-1.2,4.67,2.47,2.47,0,0,0-.18.71c-.4-.36-.8-.73-1.17-1.12.19-.83.4-1.66.59-2.49.23-1,.39-2,.58-3.07a.42.42,0,0,0,0-.31c-.77,1.68-1.44,3.35-2.13,5A5,5,0,0,1,81.33,42.4Z" fill="#ffc77f"/>
            <path d="M71,20.6a11.28,11.28,0,0,0-1.63-.47l-.3-.08a2.24,2.24,0,0,0,.61-1.71,3.12,3.12,0,0,0-.51-1.41,10.32,10.32,0,0,0-2.11-2.27,17.1,17.1,0,0,0-2.65-1.79,26.73,26.73,0,0,0-2.75-1.32C60.37,11,59,10.49,57.68,10,56.52,9.5,55.36,9,54.25,8.47a16.52,16.52,0,0,1-2.74-1.71c-.27-.21-.51-.46-.77-.67-.42-.33-.22-.78.1-1a5.47,5.47,0,0,1,1.27-.66,1.63,1.63,0,0,1,.72-.21,3.46,3.46,0,0,1-.52.32A1.43,1.43,0,0,0,51.9,5a.84.84,0,0,0,.29,1.1,6.56,6.56,0,0,0,1.55.87,23.53,23.53,0,0,0,2.36.83,25.16,25.16,0,0,1,2.37.91c.89.38,1.77.76,2.63,1.17,1.07.52,2.12,1.09,3.13,1.7A31.31,31.31,0,0,1,67.78,14,17.67,17.67,0,0,1,70,16.21a11.77,11.77,0,0,1,1.74,2.63,4.82,4.82,0,0,1,.52,2.56l-.3-.27A2.21,2.21,0,0,0,71,20.6Z" fill="#fed48e"/>
            <path d="M67.75,36.56c.15-.54.38-1.05.58-1.57.66-1.74,1.43-3.44,2.11-5.18a27.29,27.29,0,0,0,1.47-4.92,8.06,8.06,0,0,0,.15-2A2.85,2.85,0,0,0,71.4,21a.15.15,0,0,1,0-.1.33.33,0,0,1,.16,0,4,4,0,0,1,.8.73c.22.26.36.57.56.83h0a.16.16,0,0,0,.07.14h0c0,.07,0,.14.06.2a2.24,2.24,0,0,1,.27,1,5.56,5.56,0,0,1-.09,1.82c0,.21,0,.43-.1.62a.91.91,0,0,0-.14.4,16.43,16.43,0,0,1-1.26,3c-.09.15,0,.25.07.38a6.47,6.47,0,0,1,1.5,2.45A8.3,8.3,0,0,1,73.73,35a14.74,14.74,0,0,1-.2,2.89c0,.06,0,.13,0,.2l-1.07-.36a.19.19,0,0,1-.16-.25,11,11,0,0,0,.3-1.6,5.73,5.73,0,0,0-.33-3.2A2.21,2.21,0,0,0,71,31.45c-.07.1,0,.2,0,.28a6.19,6.19,0,0,1-.17,2.93,20.31,20.31,0,0,1-.74,2.11c-.09.22-.13.25-.36.2Z" fill="#fff580"/>
            <path d="M27.81,77.71a1.61,1.61,0,0,1,.44.46,19,19,0,0,1,2.21,3.53,9,9,0,0,1,.63,1.76,1.47,1.47,0,0,1,0,.59c0,.21-.11.27-.32.27a.74.74,0,0,1-.33-.09,5,5,0,0,1-1-.69,14.57,14.57,0,0,1-1.22-1.13,1.49,1.49,0,0,0-.41-.3c-.21-.09-.36,0-.42.19a.93.93,0,0,0,0,.29c0,.53,0,1,0,1.57,0,.11,0,.23,0,.34a.27.27,0,0,1-.4.22,1.87,1.87,0,0,1-.59-.4A14.23,14.23,0,0,1,25,82.77a16.7,16.7,0,0,0-2.4-2.43c-.32-.28-.65-.53-1-.8-.07-.06-.16-.12-.16-.24a1.34,1.34,0,0,1,.15-.48.54.54,0,0,1,.81-.23,2,2,0,0,1,.6.44c.37.41.75.81,1.1,1.23a6.68,6.68,0,0,0,1,1c.14.12.3.27.52.17s.22-.3.24-.48a5.47,5.47,0,0,0-.09-1.4c-.13-.69-.29-1.38-.44-2.08a2.22,2.22,0,0,1,0-.63.27.27,0,0,1,.29-.27,1.14,1.14,0,0,1,.37,0,3.66,3.66,0,0,1,.79.4C27.18,77.27,27.46,77.53,27.81,77.71Z" fill="#ffa3a3"/>
            <path d="M10.46,52.8c0,.13.13.29,0,.38s-.27-.07-.39-.13a7.54,7.54,0,0,0-1.79-.6,3.13,3.13,0,0,0-1.1,0,1.28,1.28,0,0,0-1,.85,1.91,1.91,0,0,0-.16.78c0,.47,0,.94,0,1.4a14.9,14.9,0,0,0,.43,2.29A26.73,26.73,0,0,0,7.94,61.7c.49,1,1,2.1,1.56,3.12.72,1.32,1.41,2.66,2.09,4A25.66,25.66,0,0,1,13.3,73c.11.35.19.71.28,1.07,0,.09.06.17,0,.24s-.19,0-.29,0a2.79,2.79,0,0,1-.63-.4c-.27-.21-.54-.41-.79-.64-.07-.07-.16-.13-.15-.25.17,0,.29.13.44.18s.41,0,.39-.28a3.4,3.4,0,0,0-.34-1.08,41.86,41.86,0,0,0-2-3.75c-.55-1-1-1.93-1.54-2.91a46,46,0,0,1-3-6.93A20.92,20.92,0,0,1,5,55.33a10.22,10.22,0,0,1-.07-2.47A4.91,4.91,0,0,1,6,50.07l.14-.15c.37-.37.37-.37.74,0a23.39,23.39,0,0,0,3.33,2.7C10.32,52.66,10.42,52.69,10.46,52.8Z" fill="#fff580"/>
            <path d="M59.76,36.23a6,6,0,0,0-1.37-2.61,10.44,10.44,0,0,0-1.53-1.44,23.94,23.94,0,0,0-2.56-1.79c-.51-.32-1-.62-1.57-.9s-.81-.42-1.23-.62a18.85,18.85,0,0,0-3.43-1.28,4.36,4.36,0,0,0-1.14-.23l-.65-1.95a.76.76,0,0,0,.41-.27,15.86,15.86,0,0,1,2.73,1.13.33.33,0,0,0,.22.06c.89.5,1.78,1,2.63,1.56,1.09.72,2.16,1.46,3.2,2.25.73.55,1.45,1.11,2.14,1.71.53.45,1,.91,1.56,1.36s.83.77,1.24,1.15c.19.17.25.16.35-.06.29-.68.58-1.35.86-2a3.8,3.8,0,0,1,.49-.88c.06-.07.13-.18.25-.13a.29.29,0,0,1,.17.24,5.51,5.51,0,0,1,0,1.72,1.64,1.64,0,0,0,0,.23c0,.48-.08.95-.12,1.42,0,.31-.09.62-.08.93a.88.88,0,0,1-.07.32,1.56,1.56,0,0,1-.48,0C61.1,36.15,60.43,36.21,59.76,36.23Z" fill="#ff6a69"/>
            <path d="M84.37,45.06a2.47,2.47,0,0,1,.18-.71,35.68,35.68,0,0,0,1.2-4.68c.15-.78.26-1.57.34-2.36,0-.44.08-.89.1-1.33a17.22,17.22,0,0,0,0-1.9c0-.81-.07-1.61-.18-2.42a8.35,8.35,0,0,1-.16-1.32,9.87,9.87,0,0,1,1.21,2.54,14.54,14.54,0,0,1,.61,5.9,34.75,34.75,0,0,1-1.49,7,4.89,4.89,0,0,1-.31.88Z" fill="#ff6a69"/>
            <path d="M49.67,92.66a3.8,3.8,0,0,1-1.38,1.54,1.78,1.78,0,0,1-2,0,5.06,5.06,0,0,1-1.48-1.47c-1.06-1.44-2-3-3-4.48a5.61,5.61,0,0,1-.56-1,.32.32,0,0,1,.22.13,29.68,29.68,0,0,0,4.4,3.32,30.79,30.79,0,0,0,3.39,1.84A1,1,0,0,1,49.67,92.66Z" fill="#ffa3a3"/>
            <path d="M57.19,3.61a4,4,0,0,0-.69.05c-.14,0-.19,0-.2-.18a1,1,0,0,1,1.09-1.14,7.92,7.92,0,0,1,1.68.17,10.3,10.3,0,0,0,1.56.23c.19,0,.42,0,.54-.15s-.05-.36-.14-.52A8.94,8.94,0,0,0,59.39.23a.32.32,0,0,1-.13-.15h.15c.06.1.17.12.26.16a17.1,17.1,0,0,1,3.41,2.06,6,6,0,0,1,1.5,1.64,2.45,2.45,0,0,1,.29.78c.07.36-.13.58-.51.58a2.46,2.46,0,0,1-.81-.14,21.49,21.49,0,0,1-2-.77,8.69,8.69,0,0,0-2.46-.71c-.31,0-.62,0-.92-.07A2.22,2.22,0,0,0,57.19,3.61Z" fill="#ffa3a3"/>
            <path d="M28.64,69.6a3.6,3.6,0,0,1,.67.79c1.58,2,3.07,4,4.49,6.14,0,.06.07.14.16.16h0a.13.13,0,0,0,.07.14c.47.87.84,1.79,1.33,2.66a30.51,30.51,0,0,0,2.43,3.76,3.66,3.66,0,0,1,.45.66.11.11,0,0,0,.08.07h0c0,.06,0,.11.07.13h0a4.33,4.33,0,0,0,.46,1c.28.63.61,1.25.91,1.87,0,.06.08.11,0,.21a.64.64,0,0,1-.25-.24q-1.61-2-3.11-4.13l0-.06c-.74-1.06-1.48-2.11-2.15-3.21a3.54,3.54,0,0,0-.51-.75,1.51,1.51,0,0,0-.27-.5l-2.64-4.73c-.56-1-1.12-2-1.69-3-.14-.26-.29-.51-.44-.76a.45.45,0,0,1-.09-.25Z" fill="#ff7b69"/>
            <path d="M19.71,56.42c0,.15.12.24.19.35,1.27,1.8,2.46,3.65,3.6,5.53.56.93,1.13,1.86,1.64,2.82l.67,1.17a.81.81,0,0,1,.13.3c-.22,0-.32-.2-.44-.35s-.22-.25-.34-.37c-.65-.64-1.24-1.34-1.83-2s-1.12-1.33-1.64-2q-1.38-1.79-2.58-3.69c-.37-.59-.72-1.19-1.08-1.78a.61.61,0,0,1-.12-.34C18.51,56.17,19.12,56.26,19.71,56.42Z" fill="#ff7b69"/>
            <path d="M6.86,67.93c.35.39.65.81,1,1.17a.13.13,0,0,1,.06.15c0,.08-.1.08-.17.09A1.24,1.24,0,0,1,6.94,69a8.47,8.47,0,0,1-1.1-1.14L3.93,65.43a6.52,6.52,0,0,0-.69-.7c-.07-.06-.13-.15-.23-.11s-.1.16-.1.26a4.47,4.47,0,0,0,.2,1c.1.29.2.59.29.88v0H3.32a.08.08,0,0,0-.07-.07h0a.1.1,0,0,0-.07-.07h0a.12.12,0,0,0-.08-.13h0a.19.19,0,0,0-.14-.2H3a.19.19,0,0,0-.14-.2h0a1.58,1.58,0,0,0-.33-.61A19.19,19.19,0,0,1,1,62.55a3.22,3.22,0,0,1-.34-1.49.46.46,0,0,1,.27-.46.48.48,0,0,1,.54.12,6.55,6.55,0,0,1,.64.65A24.07,24.07,0,0,1,3.84,64a27.22,27.22,0,0,0,2.37,3.27.26.26,0,0,0,.22.14h0a.12.12,0,0,0,.07.14h0a.13.13,0,0,0,.14.14h0c0,.06,0,.11.07.13h0a.12.12,0,0,0,.07.07h0A.08.08,0,0,0,6.86,67.93Z" fill="#ffa3a3"/>
            <path d="M39.49,16.07a9.65,9.65,0,0,1-.81-.62c-.61-.44-1.23-.89-1.88-1.29l-.11-.07c-.13-.09-.11-.17,0-.23a5,5,0,0,1,1.12-.41q.55-.13,1.11-.24a9.5,9.5,0,0,0,2.27-.77,14.52,14.52,0,0,0,1.52-.78c.11-.07.23-.18.37,0a.1.1,0,0,0,.07.08h0a.71.71,0,0,0,.07.32,1.59,1.59,0,0,1,.1.68,1.25,1.25,0,0,1-.84,1,12.2,12.2,0,0,1-1.88.53,7,7,0,0,0-1,.32c-.44.21-.68.57-.38,1.06C39.32,15.76,39.49,15.87,39.49,16.07Z" fill="#ffa3a3"/>
            <path d="M93,63.18c-.08-.71-.15-1.42-.28-2.12a.24.24,0,0,1,.08-.27,8,8,0,0,1,2.51-1.42l.2-.06c.42-.09.55,0,.5.45a5.65,5.65,0,0,1-.4,1.31c-.35.87-.76,1.71-1.19,2.55s-.81,1.55-1.27,2.36c-.07-.43,0-.81,0-1.18a7.24,7.24,0,0,1,0-1.14,1.71,1.71,0,0,1,1.07-.21c-.09-.3-.18-.38-.43-.4A1.41,1.41,0,0,0,93,63.18Z" fill="#ff6a69"/>
            <path d="M39.49,16.07c0-.2-.17-.31-.26-.45-.31-.49-.07-.85.37-1.06a5.93,5.93,0,0,1,1-.32,12.2,12.2,0,0,0,1.88-.53,1.25,1.25,0,0,0,.84-1,1.75,1.75,0,0,0-.09-.68c0-.11-.1-.21-.08-.32a1.74,1.74,0,0,1,.63.77A1.12,1.12,0,0,1,43.4,14a4.43,4.43,0,0,1-1.59.69,9.85,9.85,0,0,0-1.07.27c-.62.23-.69.55-.23,1a7.55,7.55,0,0,0,1.34,1c.39.24.79.46,1.19.69a2.39,2.39,0,0,1,.61.49.66.66,0,0,1,.06.88,2,2,0,0,1-.64.56.17.17,0,0,1-.26-.05,5.59,5.59,0,0,1-.48-.61.3.3,0,0,0,.14-.22.66.66,0,0,0-.21-.63,3.1,3.1,0,0,0-.7-.48,9.23,9.23,0,0,0-1-.56h0c0-.06-.08-.07-.14-.07h0a.1.1,0,0,0-.09-.07A9.37,9.37,0,0,1,39.49,16.07Z" fill="#fff580"/>
            <path d="M90.31,53.36l-.58-1.1-.38-.68a1.78,1.78,0,0,0,1-.25l.82-.42a2.63,2.63,0,0,1,.6-.25.51.51,0,0,1,.68.38,1.89,1.89,0,0,1,0,.82,11.4,11.4,0,0,1-.45,1.81,10.83,10.83,0,0,0-.43,2.82c-.1,0-.1-.1-.13-.17-.25-.73-.54-1.44-.85-2.15a1.41,1.41,0,0,1-.06-.22C90.62,53.7,90.6,53.47,90.31,53.36Z" fill="#ffa3a3"/>
            <path d="M27.81,77.71c-.35-.18-.63-.44-1-.64a3.52,3.52,0,0,0-.8-.4.92.92,0,0,0-.37,0,.27.27,0,0,0-.29.27,1.91,1.91,0,0,0,0,.63c.14.69.3,1.38.43,2.08A5.42,5.42,0,0,1,25.93,81c0,.19,0,.4-.24.49s-.38,0-.52-.17a7.7,7.7,0,0,1-1-1c-.35-.42-.73-.82-1.1-1.23a1.89,1.89,0,0,0-.6-.45.53.53,0,0,0-.8.24,1.19,1.19,0,0,0-.16.48,2.49,2.49,0,0,1,0-1.15c.06-.37.37-.49.74-.35a2.91,2.91,0,0,1,.87.59,10.85,10.85,0,0,1,1.1,1.15c.18.22.39.41.59.61s.22.19.37.13.16-.22.15-.34a4.77,4.77,0,0,0-.07-.76c-.16-1-.39-1.87-.62-2.8a2.1,2.1,0,0,1,0-.66.38.38,0,0,1,.56-.37A3,3,0,0,1,26.2,76a14.83,14.83,0,0,1,1.53,1.54A.27.27,0,0,1,27.81,77.71Z" fill="#fff580"/>
            <path d="M57.19,3.61a2.18,2.18,0,0,1,1,0c.31.05.62,0,.93.07a8.79,8.79,0,0,1,2.46.71,20.49,20.49,0,0,0,2,.77,2.75,2.75,0,0,0,.81.14c.38,0,.57-.22.51-.58a2.45,2.45,0,0,0-.29-.78,6,6,0,0,0-1.5-1.64A17.1,17.1,0,0,0,59.67.22c-.09,0-.2-.06-.26-.16a3.49,3.49,0,0,1,1.06.3,10.1,10.1,0,0,1,4,2.62,8.08,8.08,0,0,1,1.42,2.19,1.17,1.17,0,0,1,.11.49c0,.32-.14.46-.47.49A2.61,2.61,0,0,1,64.6,6a13.74,13.74,0,0,1-2.07-.73c-1-.4-1.91-.84-2.9-1.15a9.24,9.24,0,0,0-2.32-.5A.31.31,0,0,1,57.19,3.61Z" fill="#fff580"/>
            <path d="M6.43,67.4c-.1,0-.16-.06-.22-.13A28.16,28.16,0,0,1,3.84,64a22.71,22.71,0,0,0-1.77-2.62,6.55,6.55,0,0,0-.64-.65.5.5,0,0,0-.54-.12c-.2.07-.25.26-.27.46A3.22,3.22,0,0,0,1,62.55a20.13,20.13,0,0,0,1.54,2.9,1.58,1.58,0,0,1,.33.61c-.09,0-.14-.06-.19-.12A18.18,18.18,0,0,1,.41,62.23a4.39,4.39,0,0,1-.4-2,2,2,0,0,1,.13-.69.41.41,0,0,1,.62-.2,1.75,1.75,0,0,1,.39.28,9.72,9.72,0,0,1,1.34,1.6c.75,1.07,1.4,2.2,2.08,3.31.55.89,1.12,1.77,1.74,2.61C6.36,67.23,6.44,67.3,6.43,67.4Z" fill="#fff580"/>
            <path d="M30.43,55.88c.71-.24,1.44-.44,2.14-.72l1.3-.52c.06,0,.11-.09.21,0a2.88,2.88,0,0,1-.18.49c-.37.92-.68,1.86-1,2.81a1.66,1.66,0,0,1-.06.16C32,57.38,31.24,56.61,30.43,55.88Z" fill="#ff7b69"/>
            <path d="M65.51,36.27c.56-1.19,1.11-2.39,1.58-3.63.31-.81.61-1.62.84-2.46,0-.14.1-.27.15-.43a22.61,22.61,0,0,1-1.42,6.64A10.92,10.92,0,0,1,65.51,36.27Z" fill="#fff580"/>
            <path d="M30.43,55.88c.81.73,1.58,1.5,2.44,2.17-.12.51-.25,1-.37,1.53l-.88-1-1-1.16-1-1.06a1.83,1.83,0,0,1-.13-.24A3.15,3.15,0,0,1,30.43,55.88Z" fill="#ffc77f"/>
            <path d="M82.21,43.08c.69-1.66,1.37-3.33,2.13-5a.42.42,0,0,1,0,.31c-.18,1-.34,2-.58,3.07-.19.83-.39,1.65-.59,2.48A6.17,6.17,0,0,1,82.21,43.08Z" fill="#ff7b69"/>
            <path d="M15.35,55.24s0,0,0,0c-.88.86-1.72,1.76-2.62,2.6l-.1.07a1.93,1.93,0,0,1,0-1,4.76,4.76,0,0,1,1-2l.17-.25c.41.11.79.32,1.19.46Z" fill="#fff580"/>
            <path d="M89.15,51.23l-.27-.45c-.43-.71-.89-1.4-1.38-2.08-.16-.21-.15-.22,0-.42a2.64,2.64,0,0,1,.66-.63c.4-.24.67-.16.85.26a1.92,1.92,0,0,1,.19.81,13.78,13.78,0,0,1,0,2.13C89.14,51,89.21,51.09,89.15,51.23Z" fill="#ffa3a3"/>
            <path d="M49.64,26.33a.33.33,0,0,1-.22-.06,15.86,15.86,0,0,0-2.73-1.13,1.88,1.88,0,0,0-.61-.19,4.87,4.87,0,0,1-.38-.88c.42.17.81.39,1.21.59a.89.89,0,0,0,.33.15,9.76,9.76,0,0,0,1.29.74l1,.62C49.56,26.21,49.65,26.23,49.64,26.33Z" fill="#fff580"/>
            <path d="M76.78,26.25a1,1,0,0,1-.55.23,4.29,4.29,0,0,0-.67-.61A11.85,11.85,0,0,1,74,24.22a.32.32,0,0,0-.18-.14h0l0-.15c.15,0,.24.12.34.2.79.71,1.61,1.36,2.46,2A.19.19,0,0,1,76.78,26.25Z" fill="#ffa3a3"/>
            <path d="M73.86,24.08a.32.32,0,0,1,.18.14,11.31,11.31,0,0,0,1.52,1.65,4.85,4.85,0,0,1,.67.61,1,1,0,0,1-.46.21c0-.15-.17-.23-.27-.34A11.76,11.76,0,0,1,74,24.5.69.69,0,0,1,73.86,24.08Z" fill="#fed48e"/>
            <path d="M40.6,17a9.23,9.23,0,0,1,1,.56,3.34,3.34,0,0,1,.7.48.71.71,0,0,1,.21.63.3.3,0,0,1-.14.22,7.26,7.26,0,0,1-.71-.76c-.29-.31-.59-.61-.9-.91C40.66,17.14,40.58,17.09,40.6,17Z" fill="#ffa3a3"/>
            <path d="M72.9,22.53c-.2-.26-.34-.57-.56-.83a3.65,3.65,0,0,0-.8-.72.2.2,0,0,0-.16-.05h0c0-.08-.1-.07-.17-.07a2.91,2.91,0,0,1-.63-.21c.15-.15.32.11.45,0a2.11,2.11,0,0,1,.93.53l.31.27a7.25,7.25,0,0,1,.5.73A.66.66,0,0,1,72.9,22.53Z" fill="#ff7b69"/>
            <path d="M93,63.18a1.54,1.54,0,0,1,.7-.14c.25,0,.34.11.43.4a1.66,1.66,0,0,0-1.07.22C93,63.5,93,63.34,93,63.18Z" fill="#fff580"/>
            <path d="M48.83,95a.39.39,0,0,1,.08-.21,14.79,14.79,0,0,0,1-2.06c.22,0,.15.19.1.31-.14.32-.3.64-.45,1a5.08,5.08,0,0,1-.45.78C49,94.87,49,95,48.83,95Z" fill="#ffa3a3"/>
            <path d="M46.08,25a1.88,1.88,0,0,1,.61.19.76.76,0,0,1-.41.27A1.18,1.18,0,0,1,46.08,25Z" fill="#ff7b69"/>
            <path d="M90.31,53.36c.29.11.31.34.27.59A1.32,1.32,0,0,1,90.31,53.36Z" fill="#fff580"/>
            <path d="M61.08,92.53c.06-.08.13-.08.2,0A.2.2,0,0,1,61.08,92.53Z" fill="#30d1d5"/>
            <path d="M2.83,66.06a.18.18,0,0,1,.14.2C2.84,66.25,2.82,66.17,2.83,66.06Z" fill="#fff580"/>
            <path d="M3,66.26a.19.19,0,0,1,.14.2C3,66.45,3,66.36,3,66.26Z" fill="#fff580"/>
            <path d="M3.4,66.72a.6.6,0,0,1,.09.13s.06.09,0,.1-.07,0-.09-.09v-.13Z" fill="#ffa3a3"/>
            <path d="M73.72,23.88s-.07-.1,0-.12.09,0,.09.1Z" fill="#ffa3a3"/>
            <path d="M64,92.53c0-.06.09-.07.13,0A.1.1,0,0,1,64,92.53Z" fill="#30d1d5"/>
            <path d="M34.93,67.53c.07,0,.07.08,0,.13a.09.09,0,0,1,0-.13Z" fill="#3fdccf"/>
            <path d="M6.64,67.66a.12.12,0,0,1-.14-.13C6.6,67.53,6.63,67.58,6.64,67.66Z" fill="#fff580"/>
            <path d="M73,22.86c-.06-.06,0-.13-.06-.2S73,22.79,73,22.86Z" fill="#ff7b69"/>
            <path d="M6.51,67.53c-.07,0-.08-.07-.08-.13S6.51,67.47,6.51,67.53Z" fill="#fff580"/>
            <path d="M3.39,66.73v.13a.11.11,0,0,1-.07-.13Z" fill="#fed48e"/>
            <path d="M41.3,87.18a.12.12,0,0,1-.08-.12A.13.13,0,0,1,41.3,87.18Z" fill="#ffa3a3"/>
            <path d="M38.39,84.11c-.07,0-.08-.07-.07-.13A.11.11,0,0,1,38.39,84.11Z" fill="#fed48e"/>
            <path d="M6.71,67.8a.13.13,0,0,1-.07-.14A.13.13,0,0,1,6.71,67.8Z" fill="#fff580"/>
            <path d="M3.11,66.46a.12.12,0,0,1,.07.14A.13.13,0,0,1,3.11,66.46Z" fill="#fff580"/>
            <path d="M73,22.67a.16.16,0,0,1-.07-.14C73,22.55,73,22.61,73,22.67Z" fill="#ff7b69"/>
            <path d="M59.26.08s-.08,0-.08,0,0,0,.09,0V.07Z" fill="#ffa3a3"/>
            <path d="M59.27.07V0c.06,0,.12,0,.15.06Z" fill="#fff580"/>
            <path d="M34,76.83a.13.13,0,0,1-.07-.14C34,76.71,34,76.77,34,76.83Z" fill="#fed48e"/>
            <path d="M73.88,23.93l0,.15a.16.16,0,0,1-.08-.13h.1Z" fill="#fed48e"/>
            <path d="M40.46,16.91a.14.14,0,0,1,.14.08A.12.12,0,0,1,40.46,16.91Z" fill="#ffa3a3"/>
            <path d="M11.69,73a.12.12,0,0,1-.14-.07C11.62,72.93,11.67,73,11.69,73Z" fill="#fff580"/>
            <path d="M48.76,95.14a.13.13,0,0,1,.08-.13A.14.14,0,0,1,48.76,95.14Z" fill="#ffa3a3"/>
            <path d="M11.55,72.94a.09.09,0,0,1-.07-.06A.07.07,0,0,1,11.55,72.94Z" fill="#fff580"/>
            <path d="M11.49,72.88l-.09-.07A.1.1,0,0,1,11.49,72.88Z" fill="#fff580"/>
            <path d="M43.16,11.7a.11.11,0,0,1-.07-.08Z" fill="#fff580"/>
            <path d="M6.86,67.93a.08.08,0,0,1-.08-.07Z" fill="#fff580"/>
            <path d="M6.78,67.86a.1.1,0,0,1-.07-.07A.08.08,0,0,1,6.78,67.86Z" fill="#fff580"/>
            <path d="M38.32,84a.1.1,0,0,1-.08-.07A.08.08,0,0,1,38.32,84Z" fill="#fed48e"/>
            <path d="M3.25,66.66a.1.1,0,0,1,.07.07A.07.07,0,0,1,3.25,66.66Z" fill="#fed48e"/>
            <path d="M3.18,66.59a.1.1,0,0,1,.07.07A.1.1,0,0,1,3.18,66.59Z" fill="#fff580"/>
            <path d="M73.72,23.88l.09,0h0v.07h0Z" fill="#fed48e"/>
            <path d="M40.38,16.85a.08.08,0,0,1,.08.07Z" fill="#ffa3a3"/>
            <path d="M73.8,23.94v-.07a.05.05,0,0,1,.07.05H73.8Z" fill="#ffa3a3"/>
            <path d="M34.77,30.18l.09,0,.15.14,3.13,3c.22.21.22.21,0,.43l-1.68,1.63L24.35,47.16c-.36.34-.29.34-.66,0l-3-2.86-.17-.17c-.11-.09-.09-.17,0-.25l.15-.14L34.51,30.4A.92.92,0,0,1,34.77,30.18Z" fill="#fff"/>
            <path d="M18.61,42.31c-.09-.11-.15-.22-.24-.31L15.3,39c-.22-.21-.23-.21,0-.42l1.13-1.08L28.73,25.61l.54-.52c.1-.1.19-.12.29,0s.11.11.17.17l3,2.88c.06.05.11.11.17.17s.09.17,0,.25l-.12.12-14,13.51Z" fill="#fff"/>
            <path d="M27.58,23.22a.17.17,0,0,1,0,.12l-.2.19L19,31.63c-.35.34-.27.3-.57,0l-3-2.88c-.06-.06-.12-.13-.19-.19s-.09-.16,0-.25a1.85,1.85,0,0,0,.14-.14l8.4-8.13c.34-.32.27-.3.58,0L27.39,23C27.46,23.07,27.55,23.13,27.58,23.22Z" fill="#fff"/>
            <path d="M16.84,33.63a.36.36,0,0,1-.07.1l-.16.17-3,2.93-.15.14c-.09.09-.17.1-.26,0l-.12-.12-3.08-3a1.85,1.85,0,0,0-.14-.14.14.14,0,0,1,0-.23l.12-.12,3.11-3,.15-.14a.11.11,0,0,1,.17,0h0l.17.16,3.08,3C16.71,33.46,16.8,33.51,16.84,33.63Z" fill="#fff"/>
            <path d="M11.28,65.25c-.2-.64-.42-1.27-.6-1.91s-.42-1.45-.6-2.18c-.12-.51-.21-1-.31-1.56a.7.7,0,0,1,0-.43c.06-.13.14-.16.27-.06a1.7,1.7,0,0,1,.5.71,8.82,8.82,0,0,1,.5,2c.1.67.17,1.36.23,2A9.76,9.76,0,0,1,11.28,65.25Z" fill="#ff7b69"/>
            <path d="M12.59,70a1.66,1.66,0,0,1,.4.61,31.07,31.07,0,0,1,2.08,4.06,11,11,0,0,1,.38,1.1,1.87,1.87,0,0,1,0,.53c0,.32-.17.44-.5.38a1,1,0,0,1-.5-.2.52.52,0,0,0,.3-.65A9.55,9.55,0,0,0,14.28,74c-.49-1.27-1-2.52-1.63-3.74a.62.62,0,0,1-.06-.26Z" fill="#fff580"/>
            <path d="M25.94,66.59a.17.17,0,0,1,.07.13A.13.13,0,0,1,25.94,66.59Z" fill="#ff7b69"/>
            <path d="M26.28,67.06a.13.13,0,0,1,.07.14A.15.15,0,0,1,26.28,67.06Z" fill="#fed48e"/>
            <path d="M12.59,70s-.07-.06-.05-.06,0,0,.05.06Z" fill="#fff580"/>
            <path d="M47.24,53.69c.26-.36.49-.72.78-1.06a7.17,7.17,0,0,1,3.39-2.18,5.55,5.55,0,0,1,1.42-.24,7.66,7.66,0,0,1,2.65.28l.2,0a8.81,8.81,0,0,1,1.81.92A8,8,0,0,1,59,52.89l.18.28A6.4,6.4,0,0,1,60.39,57v7.12c0,.42,0,.38.42.37s1.15-.06,1.72-.06a19,19,0,0,0,2,0c.29,0,.29,0,.29-.29V56.57c.09-.35.07-.71.15-1.06a6.83,6.83,0,0,1,1.82-3.34,3.65,3.65,0,0,1,.78-.69,8.37,8.37,0,0,1,1.88-1,7.5,7.5,0,0,1,2.78-.39,7,7,0,0,1,2.65.66,6.67,6.67,0,0,1,3.83,4.9A6.89,6.89,0,0,1,78.84,57c0,.67,0,1.33,0,2,0,.25,0,.49,0,.73V64.9c0,.12,0,.24,0,.36s0,.25,0,.37c0,2.69,0,5.39,0,8.09a9.84,9.84,0,0,1-.37,3.1,7.57,7.57,0,0,1-1.16,2,6.94,6.94,0,0,1-4.57,2.5,8.41,8.41,0,0,1-2.24-.06,6.31,6.31,0,0,1-2.45-.9,6.76,6.76,0,0,1-2-1.85A7.49,7.49,0,0,1,65,76.22a3.77,3.77,0,0,1-.11-.75c0-.35-.07-.71-.07-1.06,0-2.31,0-4.61,0-6.92,0-.41,0-.37-.37-.36l-3.38.08c-.68,0-.68,0-.68.68,0,1.66,0,3.32,0,5a16.46,16.46,0,0,1-.15,3.29c-.11.33-.21.66-.34,1A6.83,6.83,0,0,1,57.69,80c-.06,0-.1.09-.15.13a9.47,9.47,0,0,1-1.58.82,7,7,0,0,1-9.46-5.17,5.74,5.74,0,0,1-.1-1.09c0-.57,0-1.14,0-1.71,0-.09,0-.17,0-.26,0-2.85,0-5.69,0-8.53,0-.08,0-.16,0-.23s0-.27,0-.4c0-2.15,0-4.29,0-6.44a6.68,6.68,0,0,1,.78-3.24A.52.52,0,0,0,47.24,53.69ZM67.73,63.92s0,.06,0,0a10.89,10.89,0,0,0,1.59-.31,18.78,18.78,0,0,0,4-1.45,2.07,2.07,0,0,0,.77-.54.33.33,0,0,0,.21-.11,5.6,5.6,0,0,0,.78-.76A3.36,3.36,0,0,0,76,58.5c0-.58,0-1.16,0-1.74a3.35,3.35,0,0,0-.12-.89,4.15,4.15,0,0,0-5.64-2.67,4,4,0,0,0-2.45,4.1,1.1,1.1,0,0,0,0,.36v5.93C67.72,63.7,67.72,63.81,67.73,63.92ZM49.3,67.6c0,.08.07.05.1,0l.26-.16a10.2,10.2,0,0,1,1.89-1,22.89,22.89,0,0,1,2.92-1,22.59,22.59,0,0,1,2.83-.6c.17,0,.24-.06.24-.24,0-.54,0-1.09,0-1.63a1.11,1.11,0,0,0,0-.17V56.84a3.85,3.85,0,0,0-.11-.83A4.1,4.1,0,0,0,52.62,53a4.05,4.05,0,0,0-3.31,4.62,1.77,1.77,0,0,0,0,.23c0,3.18,0,6.35,0,9.53,0,.09,0,.18,0,.27Zm2,2.11a4.39,4.39,0,0,0-1.12,1,3.29,3.29,0,0,0-.9,2c0,.76,0,1.51,0,2.27a3,3,0,0,0,.1.66,4,4,0,0,0,3.65,3,4.13,4.13,0,0,0,4.17-2.44,5.27,5.27,0,0,0,.31-2.42.2.2,0,0,0,0-.07v-6c0-.22,0-.23-.24-.21l-.14,0a21.24,21.24,0,0,0-4.22,1.22,6.7,6.7,0,0,0-1.62.88Zm24.55,5.77a2.16,2.16,0,0,0,.09-.62c0-3.57,0-7.15,0-10.72,0-.07,0-.16,0-.2s-.14.07-.21.12a11.08,11.08,0,0,1-1.94,1.08,23.09,23.09,0,0,1-3.55,1.18,22,22,0,0,1-2.26.45c-.18,0-.23.1-.22.26s0,.54,0,.8c0,.79,0,1.58,0,2.37a.68.68,0,0,0,0,.14v4.47a3.86,3.86,0,0,0,.1.76,4.15,4.15,0,0,0,4.77,3.06A4.07,4.07,0,0,0,75.86,75.48Z" fill="#fff"/>
            <path d="M58,11.9a3,3,0,0,1,.86.48,38.28,38.28,0,0,1,3.28,2.2,8.33,8.33,0,0,1,.91.76,1.11,1.11,0,0,1,.22.34c.07.16,0,.25-.15.29a1.06,1.06,0,0,1-.47,0,4.6,4.6,0,0,1-1.24-.71A28.11,28.11,0,0,1,58.5,12.5a1.39,1.39,0,0,1-.47-.6Z" fill="#fff580"/>
            <path d="M48.54,4.87a1.87,1.87,0,0,0,.83,1.39,16.16,16.16,0,0,0,3.8,2.2l.85.37a.13.13,0,0,1,.09.1.41.41,0,0,1-.29,0A19.26,19.26,0,0,1,50.1,7.72a4.56,4.56,0,0,1-1.56-1.08A1.21,1.21,0,0,1,48.54,4.87Z" fill="#fff580"/>
            <path d="M54.27,9h0s0,0,0,0h0S54.27,9,54.27,9Z" fill="#fff580"/>
            <path d="M58,11.83h0s0,0,0,0Z" fill="#fff580"/>
            <path d="M58,11.84l.07.06h0a.08.08,0,0,1-.07-.07Z" fill="#fff580"/>
            <path d="M77.82,38.6a5.13,5.13,0,0,1,.16-.87A11.78,11.78,0,0,0,78.21,35a6.25,6.25,0,0,0-.6-2.58,5,5,0,0,0-1.47-1.79c-.28-.22-.3-.35-.14-.66a1.46,1.46,0,0,1,.88-.75,2.05,2.05,0,0,1,1.91.17A3,3,0,0,1,80,31.17,6.07,6.07,0,0,1,79.81,34a18.69,18.69,0,0,1-1.87,4.51A.13.13,0,0,1,77.82,38.6Z" fill="#fff580"/>
            <path d="M64.82,56.56v7.49c0,.26,0,.26-.29.28a19,19,0,0,1-2,.06c-.57,0-1.15,0-1.72.06s-.42,0-.42-.38V57a6.37,6.37,0,0,0-1.2-3.78L59,52.89a1.15,1.15,0,0,1,.75.31c.5.33,1,.68,1.48,1L64.3,56.3A1,1,0,0,0,64.82,56.56Z" fill="#3fdccf"/>
            <path d="M71.21,20.86c.07,0,.14,0,.17.07A.22.22,0,0,1,71.21,20.86Z" fill="#fff580"/>
            <path d="M33.76,78.82a3.17,3.17,0,0,1,.5.75c.67,1.1,1.42,2.15,2.16,3.21a.14.14,0,0,1,0,.06,1.7,1.7,0,0,1-1-.45,4.12,4.12,0,0,1-1.16-1.78,11.86,11.86,0,0,1-.45-1.43A1.1,1.1,0,0,1,33.76,78.82Z" fill="#ffc77f"/>
            <path d="M28.56,69.54l0-.08c.07,0,0,.05.05.07Z" fill="#ff7b69"/>
            <path d="M28.57,69.53l.07.07h0l-.06-.07Z" fill="#ff7b69"/>
            <path d="M67.73,70.2c0-.79,0-1.58,0-2.37,0-.26,0-.53,0-.8s0-.23.22-.26a21.51,21.51,0,0,0,2.26-.45,23.09,23.09,0,0,0,3.55-1.18,11.08,11.08,0,0,0,1.94-1.08c.07,0,.12-.11.21-.12s.06.13.06.2V74.86a2.16,2.16,0,0,1-.09.62.59.59,0,0,1-.38-.14l-1.38-.93L70.59,72l-2.4-1.63A.6.6,0,0,0,67.73,70.2Z" fill="#3fdccf"/>
            <path d="M49.3,57.57A4.15,4.15,0,0,1,57.43,56a3.85,3.85,0,0,1,.11.83v5.91c0,.06,0,.11,0,.17a.63.63,0,0,1-.47-.19l-1-.69-3.36-2.3c-1-.68-2-1.36-3-2.07A.51.51,0,0,0,49.3,57.57Z" fill="#3fdccf"/>
            <path d="M57.52,73.82a5.27,5.27,0,0,1-.31,2.42A4.13,4.13,0,0,1,53,78.68a4,4,0,0,1-3.65-3,3,3,0,0,1-.1-.66c0-.76,0-1.51,0-2.27a3.29,3.29,0,0,1,.9-2,4.39,4.39,0,0,1,1.12-1c.19.11.38.21.55.33,1.15.78,2.3,1.56,3.44,2.35.54.37,1.08.75,1.63,1.11A1.26,1.26,0,0,0,57.52,73.82Z" fill="#20c6db"/>
            <path d="M67.74,57.3a4,4,0,0,1,2.45-4.1,4.15,4.15,0,0,1,5.64,2.67,3.35,3.35,0,0,1,.12.89c0,.58,0,1.16,0,1.74a3.46,3.46,0,0,1-.85,2.31,6.23,6.23,0,0,1-.78.76.32.32,0,0,1-.21.1,2.32,2.32,0,0,0-.42-.47l-3.44-2.33-2.1-1.44A.64.64,0,0,0,67.74,57.3Z" fill="#4ae4ca"/>
            <path d="M49.3,57.57a.51.51,0,0,1,.36.1c1,.71,2,1.39,3,2.07s2.24,1.53,3.36,2.3c.34.23.67.47,1,.69a.64.64,0,0,0,.46.19c0,.54,0,1.09,0,1.63,0,.18-.08.22-.24.24a22.59,22.59,0,0,0-2.83.6,22.89,22.89,0,0,0-2.92,1,10.2,10.2,0,0,0-1.89,1,2.26,2.26,0,0,1-.26.16h-.09a2.45,2.45,0,0,1,0-.27V57.8C49.29,57.73,49.3,57.65,49.3,57.57Z" fill="#30d1d5"/>
            <path d="M67.73,70.2a.6.6,0,0,1,.46.18L70.58,72l3.52,2.4,1.38.93a.67.67,0,0,0,.38.15,4.07,4.07,0,0,1-3.28,3.14,4.13,4.13,0,0,1-4.76-3.06,3.24,3.24,0,0,1-.11-.76c0-1.49,0-3,0-4.47A.66.66,0,0,1,67.73,70.2Z" fill="#30d1d5"/>
            <path d="M67.74,57.3a.64.64,0,0,1,.42.13l2.1,1.44L73.7,61.2a2.08,2.08,0,0,1,.42.47,2.07,2.07,0,0,1-.77.54,18.78,18.78,0,0,1-4,1.45,10.89,10.89,0,0,1-1.59.31l0,0c0-.11,0-.22,0-.33V57.66A1.46,1.46,0,0,1,67.74,57.3Z" fill="#3fdccf"/>
            <path d="M57.52,73.82a1.26,1.26,0,0,1-.59-.32c-.55-.36-1.09-.73-1.63-1.11L51.86,70c-.17-.12-.36-.22-.55-.33a6.7,6.7,0,0,1,1.62-.88,21.34,21.34,0,0,1,4.23-1.22h.13c.23,0,.25,0,.25.2v6A.64.64,0,0,0,57.52,73.82Z" fill="#30d1d5"/>
            <path d="M49.3,67.6h.1C49.37,67.65,49.33,67.68,49.3,67.6Z" fill="#3fdccf"/>
            <path d="M67.73,63.92l0,0S67.72,64,67.73,63.92Z" fill="#4ae4ca"/>
          </g>
        </g>
      </g>
    </g>
  </g>
</svg>
