<svg xmlns="http://www.w3.org/2000/svg" xmlns:xlink="http://www.w3.org/1999/xlink" width="96" height="96" viewBox="0 0 96 96" version="1.1">
<g id="surface1">
<path style=" stroke:none;fill-rule:nonzero;fill:rgb(52.54902%,53.72549%,25.882353%);fill-opacity:1;" d="M 48.566406 7.5 C 48.285156 8.453125 48.515625 9.789062 48.515625 10.785156 C 48.515625 12.863281 48.410156 14.917969 48.410156 17 C 48.824219 16.886719 49.394531 17.464844 49.722656 17.699219 C 50.800781 18.472656 51.898438 19.226562 52.996094 19.972656 C 56.238281 22.175781 59.425781 24.460938 62.679688 26.652344 C 63.542969 27.234375 64.402344 27.828125 65.253906 28.433594 C 65.621094 28.695312 66.101562 29.167969 66.539062 29.289062 C 66.78125 29.359375 67.007812 29.167969 67.210938 29.066406 C 67.777344 28.78125 68.359375 28.511719 68.910156 28.199219 C 70.792969 27.128906 72.816406 26.136719 74.78125 25.21875 L 74.78125 25.117188 L 72.875 23.859375 L 69.011719 21.25 L 55.671875 12.25 L 51.089844 9.15625 Z M 48.566406 7.5 "/>
<path style=" stroke:none;fill-rule:nonzero;fill:rgb(77.254902%,76.470588%,57.254902%);fill-opacity:1;" d="M 22.25 25.324219 L 27.757812 28.171875 L 29.355469 29 L 30.027344 29.289062 L 31.3125 28.492188 L 34.453125 26.378906 L 44.496094 19.640625 L 47.308594 17.75 L 48.359375 16.992188 L 48.410156 16.179688 L 48.410156 14.277344 L 48.464844 7.550781 C 47.816406 7.699219 47.15625 8.335938 46.609375 8.707031 C 45.304688 9.589844 44.003906 10.488281 42.695312 11.367188 C 38.066406 14.480469 33.484375 17.664062 28.839844 20.75 C 27.304688 21.773438 25.785156 22.820312 24.257812 23.859375 C 23.667969 24.257812 22.617188 24.710938 22.25 25.324219 Z M 22.25 25.324219 "/>
<path style=" stroke:none;fill-rule:nonzero;fill:rgb(100%,74.901961%,46.666667%);fill-opacity:1;" d="M 76.171875 11.453125 L 76.273438 11.558594 L 76.273438 11.453125 L 76.171875 11.453125 M 76.328125 11.558594 L 76.6875 11.863281 Z M 76.328125 11.558594 "/>
<path style=" stroke:none;fill-rule:nonzero;fill:rgb(55.686275%,41.568627%,25.882353%);fill-opacity:1;" d="M 76.53125 11.761719 L 76.582031 11.8125 Z M 76.53125 11.761719 "/>
<path style=" stroke:none;fill-rule:nonzero;fill:rgb(100%,74.901961%,46.666667%);fill-opacity:1;" d="M 76.839844 11.96875 L 76.894531 12.019531 L 76.839844 11.96875 M 76.945312 12.070312 L 76.945312 12.121094 L 77.304688 12.378906 Z M 76.945312 12.070312 "/>
<path style=" stroke:none;fill-rule:nonzero;fill:rgb(55.686275%,41.568627%,25.882353%);fill-opacity:1;" d="M 77.046875 12.171875 L 77.097656 12.226562 L 77.046875 12.171875 M 77.148438 12.277344 L 77.203125 12.328125 Z M 77.148438 12.277344 "/>
<path style=" stroke:none;fill-rule:nonzero;fill:rgb(100%,74.901961%,46.666667%);fill-opacity:1;" d="M 77.339844 12.394531 L 77.375 12.414062 Z M 77.339844 12.394531 "/>
<path style=" stroke:none;fill-rule:nonzero;fill:rgb(61.176471%,58.823529%,30.588235%);fill-opacity:1;" d="M 77.460938 12.480469 L 77.820312 12.789062 L 77.460938 12.480469 M 77.820312 12.789062 L 77.921875 12.890625 L 77.921875 12.789062 Z M 77.820312 12.789062 "/>
<path style=" stroke:none;fill-rule:nonzero;fill:rgb(31.764706%,41.960784%,52.941176%);fill-opacity:1;" d="M 14.988281 15.871094 L 15.039062 15.921875 L 14.988281 15.871094 M 14.882812 15.972656 L 14.9375 16.027344 L 14.882812 15.972656 M 14.78125 16.078125 L 14.832031 16.128906 L 14.78125 16.078125 M 14.679688 16.179688 L 14.730469 16.230469 Z M 14.679688 16.179688 "/>
<path style=" stroke:none;fill-rule:nonzero;fill:rgb(15.686275%,15.294118%,3.921569%);fill-opacity:1;" d="M 22.25 25.375 C 22.625 25.90625 23.226562 26.347656 23.691406 26.8125 C 24.78125 27.898438 25.894531 28.960938 26.988281 30.046875 C 27.445312 30.503906 28.238281 31.007812 28.53125 31.589844 C 28.804688 32.132812 28.578125 33.253906 28.535156 33.847656 C 28.4375 35.316406 28.535156 36.796875 28.433594 38.265625 C 28.292969 40.316406 28.363281 42.375 28.273438 44.429688 C 28.167969 46.808594 28.078125 49.191406 28.019531 51.570312 C 27.984375 52.992188 28.015625 54.414062 27.917969 55.832031 C 27.886719 56.269531 28.050781 56.90625 27.882812 57.3125 C 27.65625 57.867188 26.792969 58.390625 26.367188 58.8125 C 25.109375 60.066406 23.808594 61.296875 22.507812 62.503906 C 21.957031 63.015625 21.023438 63.628906 20.703125 64.308594 L 23.074219 63.050781 L 26.882812 61.027344 L 28.582031 60.113281 L 29.253906 59.8125 L 29.820312 60.175781 L 31.054688 61.074219 L 35.898438 64.679688 L 43.777344 70.523438 L 45.835938 72.050781 L 46.664062 72.695312 L 46.785156 73.554688 L 47.03125 76.121094 L 47.441406 80.792969 L 47.84375 85.007812 L 47.949219 85.007812 L 48.351562 81.925781 L 49.132812 75.8125 L 49.425781 73.503906 L 49.546875 72.691406 L 50.523438 71.925781 L 52.582031 70.410156 L 60.464844 64.644531 L 65.355469 61.0625 L 66.59375 60.160156 L 67.160156 59.816406 L 67.953125 60.167969 L 69.476562 60.960938 L 73.800781 63.167969 L 75.914062 64.207031 C 75.628906 63.605469 74.804688 63.097656 74.316406 62.65625 C 72.953125 61.421875 71.585938 60.179688 70.25 58.917969 C 69.78125 58.476562 68.945312 57.996094 68.652344 57.425781 C 68.429688 56.992188 68.628906 56.210938 68.597656 55.730469 C 68.492188 54.222656 68.496094 52.671875 68.496094 51.160156 C 68.496094 46.390625 68.242188 41.648438 68.242188 36.878906 C 68.242188 35.597656 68.136719 34.355469 68.136719 33.078125 C 68.136719 32.667969 68.003906 31.980469 68.179688 31.605469 C 68.429688 31.082031 69.210938 30.605469 69.632812 30.199219 C 70.808594 29.066406 72.011719 27.957031 73.183594 26.8125 C 73.652344 26.355469 74.371094 25.902344 74.679688 25.324219 C 74.046875 25.433594 73.449219 25.894531 72.875 26.171875 C 71.535156 26.8125 70.148438 27.464844 68.859375 28.199219 C 68.324219 28.503906 67.761719 28.769531 67.210938 29.039062 C 67.011719 29.136719 66.773438 29.34375 66.539062 29.269531 C 66.097656 29.125 65.632812 28.667969 65.253906 28.398438 C 64.421875 27.804688 63.578125 27.222656 62.730469 26.652344 C 59.496094 24.472656 56.34375 22.167969 53.097656 20.003906 C 51.992188 19.265625 50.910156 18.484375 49.8125 17.730469 C 49.519531 17.53125 48.925781 16.917969 48.566406 16.941406 C 48.160156 16.964844 47.59375 17.527344 47.265625 17.75 C 46.230469 18.460938 45.183594 19.15625 44.136719 19.851562 C 40.921875 21.992188 37.703125 24.136719 34.507812 26.308594 C 33.480469 27.007812 32.449219 27.699219 31.417969 28.386719 C 31.027344 28.644531 30.53125 29.136719 30.078125 29.25 C 29.847656 29.308594 29.597656 29.117188 29.40625 29.015625 C 28.929688 28.765625 28.445312 28.527344 27.964844 28.273438 C 26.648438 27.582031 25.324219 26.914062 24 26.238281 C 23.457031 25.960938 22.847656 25.492188 22.25 25.375 Z M 22.25 25.375 "/>
<path style=" stroke:none;fill-rule:nonzero;fill:rgb(52.54902%,53.72549%,25.882353%);fill-opacity:1;" d="M 48.359375 20.484375 C 47.960938 20.582031 47.566406 20.988281 47.226562 21.210938 C 46.339844 21.792969 45.476562 22.410156 44.597656 23.007812 C 41.675781 24.992188 38.78125 27.007812 35.84375 28.96875 C 34.84375 29.636719 33.84375 30.3125 32.859375 31.003906 C 32.453125 31.285156 31.847656 31.558594 31.597656 32 C 31.339844 32.453125 31.519531 33.386719 31.519531 33.902344 C 31.519531 35.292969 31.363281 36.707031 31.363281 38.113281 C 31.363281 42.703125 31.054688 47.285156 31.054688 51.878906 C 31.054688 52.742188 31.097656 53.6875 30.996094 54.546875 C 30.925781 55.164062 30.675781 56.25 30.933594 56.84375 C 31.132812 57.304688 32.09375 57.78125 32.496094 58.070312 C 33.800781 59.003906 35.078125 59.976562 36.359375 60.9375 C 39.304688 63.140625 42.265625 65.316406 45.21875 67.507812 C 45.941406 68.042969 46.667969 68.574219 47.382812 69.117188 C 47.574219 69.265625 47.941406 69.644531 48.207031 69.589844 C 48.632812 69.496094 49.148438 68.957031 49.492188 68.699219 C 50.375 68.042969 51.285156 67.417969 52.171875 66.765625 C 55.210938 64.535156 58.269531 62.324219 61.339844 60.132812 C 62.339844 59.417969 63.335938 58.699219 64.328125 57.972656 C 64.652344 57.730469 65.308594 57.441406 65.472656 57.058594 C 65.640625 56.667969 65.511719 55.996094 65.511719 55.578125 C 65.511719 54.328125 65.460938 53.078125 65.460938 51.828125 C 65.460938 47.273438 65.253906 42.714844 65.253906 38.164062 C 65.253906 36.707031 65.203125 35.253906 65.203125 33.796875 C 65.203125 33.324219 65.375 32.425781 65.148438 32.003906 C 64.921875 31.585938 64.195312 31.269531 63.8125 31 C 62.730469 30.253906 61.648438 29.507812 60.566406 28.761719 C 57.511719 26.660156 54.507812 24.457031 51.398438 22.433594 C 50.667969 21.960938 49.949219 21.445312 49.234375 20.941406 C 49.015625 20.785156 48.65625 20.414062 48.359375 20.484375 Z M 48.359375 20.484375 "/>
<path style=" stroke:none;fill-rule:nonzero;fill:rgb(31.764706%,41.960784%,52.941176%);fill-opacity:1;" d="M 9.425781 22.960938 L 9.476562 23.011719 Z M 9.425781 22.960938 "/>
<path style=" stroke:none;fill-rule:nonzero;fill:rgb(60%,59.215686%,39.215686%);fill-opacity:1;" d="M 28.328125 23.628906 L 28.328125 23.679688 L 28.738281 23.679688 Z M 28.328125 23.628906 "/>
<path style=" stroke:none;fill-rule:nonzero;fill:rgb(38.431373%,38.039216%,16.862745%);fill-opacity:1;" d="M 28.328125 23.703125 C 26.929688 23.964844 27.003906 26.230469 28.480469 25.972656 C 29.492188 25.796875 29.605469 23.460938 28.328125 23.703125 Z M 28.328125 23.703125 "/>
<path style=" stroke:none;fill-rule:nonzero;fill:rgb(53.72549%,53.333333%,32.54902%);fill-opacity:1;" d="M 29.203125 24.089844 L 29.148438 25.324219 L 29.203125 25.324219 C 29.28125 24.980469 29.339844 24.417969 29.203125 24.089844 Z M 29.203125 24.089844 "/>
<path style=" stroke:none;fill-rule:nonzero;fill:rgb(59.607843%,59.215686%,39.215686%);fill-opacity:1;" d="M 27.347656 25.167969 L 27.347656 25.425781 L 27.398438 25.425781 Z M 27.347656 25.167969 "/>
<path style=" stroke:none;fill-rule:nonzero;fill:rgb(26.666667%,27.058824%,10.588235%);fill-opacity:1;" d="M 74.574219 25.269531 L 74.574219 25.324219 L 74.832031 25.324219 L 74.882812 27.378906 L 74.9375 27.378906 L 74.832031 25.167969 Z M 74.574219 25.269531 "/>
<path style=" stroke:none;fill-rule:nonzero;fill:rgb(52.54902%,53.72549%,25.882353%);fill-opacity:1;" d="M 22.199219 25.21875 L 22.144531 26.605469 L 22.039062 29.019531 L 21.730469 36.929688 L 21.164062 51.109375 L 20.652344 64.207031 C 21.273438 63.917969 21.746094 63.226562 22.25 62.777344 C 23.5625 61.59375 24.859375 60.367188 26.113281 59.121094 C 26.589844 58.644531 27.597656 58.007812 27.832031 57.375 C 27.988281 56.945312 27.835938 56.335938 27.867188 55.882812 C 27.964844 54.484375 28 53.078125 28.015625 51.671875 C 28.0625 47.96875 28.234375 44.28125 28.328125 40.578125 C 28.378906 38.398438 28.507812 36.230469 28.53125 34.054688 C 28.539062 33.335938 28.808594 32.277344 28.550781 31.589844 C 28.363281 31.078125 27.578125 30.582031 27.191406 30.203125 C 26.066406 29.082031 24.917969 27.984375 23.792969 26.863281 C 23.4375 26.507812 23.09375 26.144531 22.710938 25.816406 C 22.53125 25.65625 22.277344 25.484375 22.300781 25.21875 Z M 22.199219 25.21875 "/>
<path style=" stroke:none;fill-rule:nonzero;fill:rgb(39.607843%,40%,17.647059%);fill-opacity:1;" d="M 76.070312 64.207031 L 75.660156 50.851562 L 75.242188 35.953125 L 74.984375 28.097656 L 74.832031 25.324219 C 74.261719 25.546875 73.773438 26.214844 73.332031 26.628906 C 72.1875 27.691406 71.074219 28.789062 69.933594 29.855469 C 69.457031 30.304688 68.476562 30.941406 68.226562 31.542969 C 68.070312 31.925781 68.1875 32.5625 68.1875 32.976562 C 68.1875 34.109375 68.242188 35.234375 68.242188 36.367188 C 68.242188 38.269531 68.324219 40.179688 68.394531 42.066406 C 68.476562 44.34375 68.394531 46.625 68.496094 48.898438 C 68.585938 50.910156 68.550781 52.945312 68.550781 54.960938 C 68.550781 55.527344 68.601562 56.085938 68.601562 56.65625 C 68.601562 56.898438 68.535156 57.253906 68.652344 57.476562 C 69.011719 58.15625 70.085938 58.816406 70.660156 59.335938 C 71.941406 60.488281 73.179688 61.695312 74.472656 62.832031 C 74.964844 63.265625 75.46875 63.929688 76.070312 64.207031 Z M 76.070312 64.207031 "/>
<path style=" stroke:none;fill-rule:nonzero;fill:rgb(44.313725%,43.529412%,28.627451%);fill-opacity:1;" d="M 22.507812 25.476562 L 22.507812 25.527344 L 22.660156 25.527344 Z M 22.507812 25.476562 "/>
<path style=" stroke:none;fill-rule:nonzero;fill:rgb(32.156863%,32.156863%,13.72549%);fill-opacity:1;" d="M 22.09375 25.683594 L 22.09375 26.914062 L 22.144531 26.914062 Z M 22.09375 25.683594 "/>
<path style=" stroke:none;fill-rule:nonzero;fill:rgb(47.843137%,47.058824%,31.764706%);fill-opacity:1;" d="M 23.054688 25.75 L 23.089844 25.769531 Z M 23.054688 25.75 "/>
<path style=" stroke:none;fill-rule:nonzero;fill:rgb(52.941176%,52.54902%,36.470588%);fill-opacity:1;" d="M 23.160156 25.800781 L 23.191406 25.820312 Z M 23.160156 25.800781 "/>
<path style=" stroke:none;fill-rule:nonzero;fill:rgb(53.72549%,52.941176%,36.862745%);fill-opacity:1;" d="M 23.46875 25.957031 L 23.503906 25.972656 Z M 23.46875 25.957031 "/>
<path style=" stroke:none;fill-rule:nonzero;fill:rgb(54.117647%,53.333333%,37.254902%);fill-opacity:1;" d="M 23.570312 26.007812 L 23.605469 26.023438 Z M 23.570312 26.007812 "/>
<path style=" stroke:none;fill-rule:nonzero;fill:rgb(59.215686%,58.431373%,38.431373%);fill-opacity:1;" d="M 27.914062 25.992188 L 27.914062 26.042969 L 28.53125 26.042969 Z M 27.914062 25.992188 "/>
<path style=" stroke:none;fill-rule:nonzero;fill:rgb(57.254902%,56.470588%,40%);fill-opacity:1;" d="M 23.675781 26.058594 L 23.707031 26.074219 Z M 23.675781 26.058594 "/>
<path style=" stroke:none;fill-rule:nonzero;fill:rgb(40%,39.215686%,25.098039%);fill-opacity:1;" d="M 23.929688 26.214844 L 23.964844 26.230469 Z M 23.929688 26.214844 "/>
<path style=" stroke:none;fill-rule:nonzero;fill:rgb(47.843137%,46.666667%,31.764706%);fill-opacity:1;" d="M 24.550781 26.519531 L 24.582031 26.539062 Z M 24.550781 26.519531 "/>
<path style=" stroke:none;fill-rule:nonzero;fill:rgb(54.117647%,53.333333%,36.862745%);fill-opacity:1;" d="M 24.652344 26.574219 L 24.6875 26.589844 Z M 24.652344 26.574219 "/>
<path style=" stroke:none;fill-rule:nonzero;fill:rgb(51.372549%,50.980392%,34.901961%);fill-opacity:1;" d="M 25.0625 26.777344 L 25.097656 26.796875 Z M 25.0625 26.777344 "/>
<path style=" stroke:none;fill-rule:nonzero;fill:rgb(35.294118%,35.686275%,15.294118%);fill-opacity:1;" d="M 71.535156 26.8125 L 71.535156 26.863281 L 71.742188 26.8125 Z M 71.535156 26.8125 "/>
<path style=" stroke:none;fill-rule:nonzero;fill:rgb(56.470588%,55.686275%,38.823529%);fill-opacity:1;" d="M 25.167969 26.828125 L 25.203125 26.847656 Z M 25.167969 26.828125 "/>
<path style=" stroke:none;fill-rule:nonzero;fill:rgb(29.803922%,29.803922%,12.156863%);fill-opacity:1;" d="M 22.042969 27.273438 L 22.042969 27.683594 L 22.09375 27.683594 Z M 22.042969 27.273438 "/>
<path style=" stroke:none;fill-rule:nonzero;fill:rgb(52.156863%,51.372549%,36.078431%);fill-opacity:1;" d="M 26.144531 27.34375 L 26.179688 27.359375 Z M 26.144531 27.34375 "/>
<path style=" stroke:none;fill-rule:nonzero;fill:rgb(53.72549%,52.941176%,36.862745%);fill-opacity:1;" d="M 27.640625 28.113281 L 27.671875 28.128906 Z M 27.640625 28.113281 "/>
<path style=" stroke:none;fill-rule:nonzero;fill:rgb(56.862745%,56.078431%,39.215686%);fill-opacity:1;" d="M 27.742188 28.164062 L 27.777344 28.183594 Z M 27.742188 28.164062 "/>
<path style=" stroke:none;fill-rule:nonzero;fill:rgb(47.45098%,19.607843%,19.607843%);fill-opacity:1;" d="M 89.476562 28.183594 L 89.492188 28.214844 Z M 89.476562 28.183594 "/>
<path style=" stroke:none;fill-rule:nonzero;fill:rgb(39.607843%,38.039216%,20%);fill-opacity:1;" d="M 89.5625 28.40625 L 89.613281 28.457031 Z M 89.5625 28.40625 "/>
<path style=" stroke:none;fill-rule:nonzero;fill:rgb(100%,96.470588%,50.196078%);fill-opacity:1;" d="M 89.628906 28.4375 L 89.648438 28.472656 Z M 89.628906 28.4375 "/>
<path style=" stroke:none;fill-rule:nonzero;fill:rgb(34.117647%,34.117647%,14.901961%);fill-opacity:1;" d="M 21.992188 28.457031 L 21.992188 29.277344 L 22.042969 29.277344 Z M 21.992188 28.457031 "/>
<path style=" stroke:none;fill-rule:nonzero;fill:rgb(46.666667%,45.098039%,23.529412%);fill-opacity:1;" d="M 89.613281 28.507812 L 89.664062 28.558594 Z M 89.613281 28.507812 "/>
<path style=" stroke:none;fill-rule:nonzero;fill:rgb(41.176471%,40.392157%,26.27451%);fill-opacity:1;" d="M 28.515625 28.574219 L 28.550781 28.59375 Z M 28.515625 28.574219 "/>
<path style=" stroke:none;fill-rule:nonzero;fill:rgb(47.058824%,46.27451%,30.588235%);fill-opacity:1;" d="M 28.582031 28.609375 L 28.582031 28.660156 L 28.738281 28.660156 Z M 28.582031 28.609375 "/>
<path style=" stroke:none;fill-rule:nonzero;fill:rgb(39.607843%,38.039216%,20%);fill-opacity:1;" d="M 89.664062 28.609375 L 89.714844 28.660156 Z M 89.664062 28.609375 "/>
<path style=" stroke:none;fill-rule:nonzero;fill:rgb(100%,96.470588%,50.196078%);fill-opacity:1;" d="M 89.734375 28.644531 L 89.75 28.679688 Z M 89.734375 28.644531 "/>
<path style=" stroke:none;fill-rule:nonzero;fill:rgb(46.666667%,45.098039%,23.529412%);fill-opacity:1;" d="M 89.734375 28.746094 L 89.75 28.78125 Z M 89.734375 28.746094 "/>
<path style=" stroke:none;fill-rule:nonzero;fill:rgb(47.058824%,46.666667%,30.980392%);fill-opacity:1;" d="M 29.03125 28.832031 L 29.0625 28.851562 Z M 29.03125 28.832031 "/>
<path style=" stroke:none;fill-rule:nonzero;fill:rgb(100%,96.470588%,50.196078%);fill-opacity:1;" d="M 89.769531 28.816406 L 89.871094 28.96875 L 89.871094 28.816406 Z M 89.769531 28.816406 "/>
<path style=" stroke:none;fill-rule:nonzero;fill:rgb(48.627451%,48.235294%,32.941176%);fill-opacity:1;" d="M 29.132812 28.882812 L 29.167969 28.902344 Z M 29.132812 28.882812 "/>
<path style=" stroke:none;fill-rule:nonzero;fill:rgb(46.666667%,45.098039%,23.529412%);fill-opacity:1;" d="M 89.820312 28.96875 L 89.871094 29.019531 Z M 89.820312 28.96875 "/>
<path style=" stroke:none;fill-rule:nonzero;fill:rgb(54.509804%,53.72549%,37.254902%);fill-opacity:1;" d="M 29.546875 29.089844 L 29.578125 29.105469 Z M 29.546875 29.089844 "/>
<path style=" stroke:none;fill-rule:nonzero;fill:rgb(54.117647%,53.333333%,37.254902%);fill-opacity:1;" d="M 29.648438 29.140625 L 29.683594 29.15625 Z M 29.648438 29.140625 "/>
<path style=" stroke:none;fill-rule:nonzero;fill:rgb(40.392157%,39.215686%,18.823529%);fill-opacity:1;" d="M 57.117188 29.503906 C 55.8125 29.691406 54.910156 30.519531 54.457031 31.746094 C 54.101562 32.714844 54.425781 33.878906 55.671875 33.730469 C 56.941406 33.582031 58.4375 32.875 59.109375 31.742188 C 59.953125 30.320312 58.441406 29.316406 57.117188 29.503906 Z M 57.117188 29.503906 "/>
<path style=" stroke:none;fill-rule:nonzero;fill:rgb(30.588235%,30.980392%,12.941176%);fill-opacity:1;" d="M 21.941406 30.046875 L 21.941406 30.820312 L 21.992188 30.820312 Z M 21.941406 30.046875 "/>
<path style=" stroke:none;fill-rule:nonzero;fill:rgb(29.803922%,29.411765%,12.156863%);fill-opacity:1;" d="M 21.886719 30.820312 L 21.886719 31.640625 L 21.941406 31.640625 Z M 21.886719 30.820312 "/>
<path style=" stroke:none;fill-rule:nonzero;fill:rgb(23.921569%,23.921569%,8.627451%);fill-opacity:1;" d="M 68.136719 31.539062 L 68.136719 34.875 L 68.1875 34.875 L 68.1875 32.617188 Z M 68.136719 31.539062 "/>
<path style=" stroke:none;fill-rule:nonzero;fill:rgb(31.372549%,31.764706%,13.333333%);fill-opacity:1;" d="M 21.835938 32 L 21.835938 32.820312 L 21.886719 32.820312 Z M 21.835938 32 "/>
<path style=" stroke:none;fill-rule:nonzero;fill:rgb(30.588235%,30.588235%,12.941176%);fill-opacity:1;" d="M 65.203125 32.050781 L 65.203125 35.441406 L 65.253906 35.441406 L 65.253906 33.128906 Z M 65.203125 32.050781 "/>
<path style=" stroke:none;fill-rule:nonzero;fill:rgb(43.137255%,43.921569%,20%);fill-opacity:1;" d="M 31.46875 32.152344 L 31.46875 34.671875 L 31.519531 34.671875 C 31.519531 33.960938 31.742188 32.804688 31.46875 32.152344 Z M 31.46875 32.152344 "/>
<path style=" stroke:none;fill-rule:nonzero;fill:rgb(29.803922%,29.803922%,12.156863%);fill-opacity:1;" d="M 21.785156 33.179688 L 21.785156 34.363281 L 21.835938 34.363281 Z M 21.785156 33.179688 "/>
<path style=" stroke:none;fill-rule:nonzero;fill:rgb(39.607843%,40%,17.647059%);fill-opacity:1;" d="M 63.140625 33.644531 C 62.328125 34.015625 61.578125 34.835938 60.875 35.390625 C 59.34375 36.601562 57.820312 37.824219 56.292969 39.035156 C 51.332031 42.972656 46.386719 46.929688 41.40625 50.839844 C 39.71875 52.167969 38.039062 53.507812 36.359375 54.847656 C 35.949219 55.175781 35.535156 55.496094 35.125 55.824219 C 35.007812 55.914062 34.75 56.054688 34.773438 56.234375 C 34.792969 56.382812 35.019531 56.492188 35.125 56.574219 C 35.496094 56.859375 35.882812 57.117188 36.257812 57.394531 C 37.753906 58.496094 39.277344 59.570312 40.789062 60.652344 C 42.59375 61.945312 44.394531 63.242188 46.199219 64.535156 C 46.664062 64.871094 47.121094 65.214844 47.589844 65.546875 C 47.738281 65.65625 47.960938 65.890625 48.15625 65.890625 C 48.460938 65.890625 48.894531 65.417969 49.132812 65.246094 C 50.03125 64.605469 50.917969 63.941406 51.8125 63.289062 C 54.335938 61.449219 56.84375 59.582031 59.382812 57.753906 C 60.210938 57.160156 61.027344 56.542969 61.855469 55.945312 C 62.222656 55.675781 62.777344 55.402344 63.058594 55.042969 C 63.296875 54.738281 63.140625 53.898438 63.140625 53.523438 Z M 63.140625 33.644531 "/>
<path style=" stroke:none;fill-rule:nonzero;fill:rgb(45.882353%,46.666667%,21.568627%);fill-opacity:1;" d="M 63.140625 33.644531 L 63.140625 55.011719 L 63.191406 55.011719 L 63.191406 35.542969 C 63.191406 34.996094 63.351562 34.144531 63.140625 33.644531 Z M 63.140625 33.644531 "/>
<path style=" stroke:none;fill-rule:nonzero;fill:rgb(100%,82.745098%,46.666667%);fill-opacity:1;" d="M 3.863281 35.492188 L 3.863281 35.648438 L 3.914062 35.648438 Z M 3.863281 35.492188 "/>
<path style=" stroke:none;fill-rule:nonzero;fill:rgb(41.176471%,41.176471%,18.823529%);fill-opacity:1;" d="M 52.171875 35.527344 C 51.109375 35.890625 51.703125 37.90625 52.929688 37.523438 C 53.324219 37.398438 53.429688 36.980469 53.46875 36.621094 C 53.550781 35.847656 52.996094 35.246094 52.171875 35.527344 Z M 52.171875 35.527344 "/>
<path style=" stroke:none;fill-rule:nonzero;fill:rgb(52.156863%,44.313725%,24.705882%);fill-opacity:1;" d="M 3.878906 35.679688 L 3.898438 35.714844 Z M 3.878906 35.679688 "/>
<path style=" stroke:none;fill-rule:nonzero;fill:rgb(100%,85.098039%,47.058824%);fill-opacity:1;" d="M 3.757812 35.902344 L 3.757812 36.058594 L 3.8125 36.058594 Z M 3.757812 35.902344 "/>
<path style=" stroke:none;fill-rule:nonzero;fill:rgb(41.960784%,42.745098%,19.607843%);fill-opacity:1;" d="M 28.429688 35.902344 L 28.429688 38.113281 L 28.480469 38.113281 C 28.480469 37.484375 28.671875 36.480469 28.429688 35.902344 Z M 28.429688 35.902344 "/>
<path style=" stroke:none;fill-rule:nonzero;fill:rgb(100%,85.098039%,47.058824%);fill-opacity:1;" d="M 3.398438 36.007812 L 3.347656 36.058594 L 3.347656 36.160156 L 3.398438 36.210938 L 3.503906 36.210938 L 3.554688 36.160156 L 3.554688 36.058594 L 3.503906 36.007812 Z M 3.398438 36.007812 "/>
<path style=" stroke:none;fill-rule:nonzero;fill:rgb(52.156863%,44.313725%,24.705882%);fill-opacity:1;" d="M 3.777344 36.09375 L 3.792969 36.125 Z M 3.777344 36.09375 "/>
<path style=" stroke:none;fill-rule:nonzero;fill:rgb(100%,85.098039%,47.058824%);fill-opacity:1;" d="M 3.65625 36.316406 L 3.65625 36.46875 L 3.707031 36.46875 Z M 3.65625 36.316406 "/>
<path style=" stroke:none;fill-rule:nonzero;fill:rgb(38.431373%,38.823529%,17.647059%);fill-opacity:1;" d="M 21.683594 36.316406 L 21.683594 37.136719 L 21.734375 37.136719 Z M 21.683594 36.316406 "/>
<path style=" stroke:none;fill-rule:nonzero;fill:rgb(52.156863%,44.313725%,24.705882%);fill-opacity:1;" d="M 3.671875 36.503906 L 3.691406 36.539062 Z M 3.671875 36.503906 "/>
<path style=" stroke:none;fill-rule:nonzero;fill:rgb(32.54902%,33.333333%,14.117647%);fill-opacity:1;" d="M 31.363281 36.570312 L 31.363281 37.238281 L 31.417969 37.238281 Z M 31.363281 36.570312 "/>
<path style=" stroke:none;fill-rule:nonzero;fill:rgb(38.431373%,39.215686%,17.254902%);fill-opacity:1;" d="M 65.253906 36.570312 L 65.253906 39.960938 L 65.304688 39.960938 L 65.304688 37.648438 Z M 65.253906 36.570312 "/>
<path style=" stroke:none;fill-rule:nonzero;fill:rgb(100%,85.098039%,47.058824%);fill-opacity:1;" d="M 3.554688 36.726562 L 3.554688 36.878906 L 3.605469 36.878906 Z M 3.554688 36.726562 "/>
<path style=" stroke:none;fill-rule:nonzero;fill:rgb(52.156863%,44.313725%,24.705882%);fill-opacity:1;" d="M 3.554688 36.878906 L 3.554688 37.035156 L 3.605469 37.035156 Z M 3.554688 36.878906 "/>
<path style=" stroke:none;fill-rule:nonzero;fill:rgb(100%,85.098039%,47.058824%);fill-opacity:1;" d="M 3.449219 37.136719 L 3.449219 37.445312 L 3.503906 37.445312 Z M 3.449219 37.136719 "/>
<path style=" stroke:none;fill-rule:nonzero;fill:rgb(66.27451%,56.470588%,31.372549%);fill-opacity:1;" d="M 3.519531 37.171875 L 3.535156 37.203125 Z M 3.519531 37.171875 "/>
<path style=" stroke:none;fill-rule:nonzero;fill:rgb(26.666667%,26.27451%,10.588235%);fill-opacity:1;" d="M 31.3125 37.238281 L 31.3125 39.859375 L 31.363281 39.859375 C 31.363281 39.125 31.597656 37.914062 31.3125 37.238281 Z M 31.3125 37.238281 "/>
<path style=" stroke:none;fill-rule:nonzero;fill:rgb(100%,85.098039%,47.058824%);fill-opacity:1;" d="M 3.347656 37.648438 L 3.347656 37.804688 L 3.398438 37.804688 Z M 3.347656 37.648438 "/>
<path style=" stroke:none;fill-rule:nonzero;fill:rgb(52.156863%,38.431373%,23.529412%);fill-opacity:1;" d="M 3.347656 37.804688 L 3.347656 37.957031 L 3.398438 37.957031 Z M 3.347656 37.804688 "/>
<path style=" stroke:none;fill-rule:nonzero;fill:rgb(35.294118%,35.686275%,15.686275%);fill-opacity:1;" d="M 28.378906 38.113281 L 28.378906 39.703125 L 28.429688 39.703125 Z M 28.378906 38.113281 "/>
<path style=" stroke:none;fill-rule:nonzero;fill:rgb(31.372549%,31.372549%,13.333333%);fill-opacity:1;" d="M 21.578125 38.316406 L 21.578125 39.140625 L 21.632812 39.140625 Z M 21.578125 38.316406 "/>
<path style=" stroke:none;fill-rule:nonzero;fill:rgb(34.509804%,34.901961%,15.294118%);fill-opacity:1;" d="M 31.261719 39.859375 L 31.261719 41.8125 L 31.3125 41.8125 C 31.3125 41.25 31.480469 40.375 31.261719 39.859375 Z M 31.261719 39.859375 "/>
<path style=" stroke:none;fill-rule:nonzero;fill:rgb(31.372549%,31.372549%,12.54902%);fill-opacity:1;" d="M 68.34375 41.757812 L 68.34375 45.199219 L 68.394531 45.199219 L 68.394531 42.835938 Z M 68.34375 41.757812 "/>
<path style=" stroke:none;fill-rule:nonzero;fill:rgb(41.960784%,42.745098%,19.607843%);fill-opacity:1;" d="M 31.210938 42.425781 L 31.210938 44.378906 L 31.261719 44.378906 C 31.261719 43.820312 31.425781 42.941406 31.210938 42.425781 Z M 31.210938 42.425781 "/>
<path style=" stroke:none;fill-rule:nonzero;fill:rgb(37.647059%,38.431373%,16.862745%);fill-opacity:1;" d="M 21.425781 43.042969 L 21.425781 43.453125 L 21.476562 43.453125 Z M 21.425781 43.042969 "/>
<path style=" stroke:none;fill-rule:nonzero;fill:rgb(60.392157%,58.431373%,30.196078%);fill-opacity:1;" d="M 93.527344 43.351562 L 93.527344 43.761719 L 93.578125 43.761719 Z M 93.527344 43.351562 "/>
<path style=" stroke:none;fill-rule:nonzero;fill:rgb(35.686275%,36.078431%,15.686275%);fill-opacity:1;" d="M 21.375 43.453125 L 21.269531 47 L 21.320312 47 L 21.425781 44.480469 Z M 21.375 43.453125 "/>
<path style=" stroke:none;fill-rule:nonzero;fill:rgb(38.431373%,37.647059%,18.039216%);fill-opacity:1;" d="M 35.640625 44.519531 C 35.023438 44.699219 34.144531 44.558594 33.816406 45.253906 C 33.578125 45.746094 33.597656 46.621094 33.953125 47.050781 C 34.175781 47.316406 34.523438 47.441406 34.730469 47.71875 C 35.253906 48.414062 35.605469 49.410156 36.722656 49.0625 C 37.347656 48.867188 37.546875 48.335938 37.734375 47.769531 C 38.140625 46.53125 38.007812 44.511719 36.257812 44.480469 C 36.054688 44.476562 35.835938 44.460938 35.640625 44.519531 Z M 35.640625 44.519531 "/>
<path style=" stroke:none;fill-rule:nonzero;fill:rgb(29.411765%,29.803922%,12.156863%);fill-opacity:1;" d="M 65.355469 44.480469 L 65.355469 45.613281 L 65.40625 45.613281 Z M 65.355469 44.480469 "/>
<path style=" stroke:none;fill-rule:nonzero;fill:rgb(100%,62.745098%,44.705882%);fill-opacity:1;" d="M 2.421875 44.636719 L 2.421875 44.890625 L 2.472656 44.890625 Z M 2.421875 44.636719 "/>
<path style=" stroke:none;fill-rule:nonzero;fill:rgb(42.745098%,43.137255%,20%);fill-opacity:1;" d="M 28.171875 44.6875 L 28.171875 46.894531 L 28.222656 46.894531 C 28.222656 46.269531 28.414062 45.261719 28.171875 44.6875 Z M 28.171875 44.6875 "/>
<path style=" stroke:none;fill-rule:nonzero;fill:rgb(63.529412%,40%,28.235294%);fill-opacity:1;" d="M 2.421875 44.890625 L 2.421875 45.40625 L 2.472656 45.40625 Z M 2.421875 44.890625 "/>
<path style=" stroke:none;fill-rule:nonzero;fill:rgb(35.686275%,36.078431%,15.686275%);fill-opacity:1;" d="M 28.121094 46.894531 L 28.121094 48.539062 L 28.171875 48.539062 Z M 28.121094 46.894531 "/>
<path style=" stroke:none;fill-rule:nonzero;fill:rgb(32.156863%,32.54902%,13.72549%);fill-opacity:1;" d="M 31.105469 47 L 31.105469 47.613281 L 31.160156 47.613281 Z M 31.105469 47 "/>
<path style=" stroke:none;fill-rule:nonzero;fill:rgb(32.941176%,33.333333%,14.117647%);fill-opacity:1;" d="M 21.21875 47.410156 L 21.21875 48.179688 L 21.269531 48.179688 Z M 21.21875 47.410156 "/>
<path style=" stroke:none;fill-rule:nonzero;fill:rgb(25.490196%,25.882353%,9.803922%);fill-opacity:1;" d="M 31.054688 47.613281 L 31.054688 49.566406 L 31.105469 49.566406 C 31.105469 49.007812 31.273438 48.128906 31.054688 47.613281 Z M 31.054688 47.613281 "/>
<path style=" stroke:none;fill-rule:nonzero;fill:rgb(37.254902%,38.039216%,16.862745%);fill-opacity:1;" d="M 21.167969 48.949219 L 21.167969 49.773438 L 21.21875 49.773438 Z M 21.167969 48.949219 "/>
<path style=" stroke:none;fill-rule:nonzero;fill:rgb(34.117647%,34.901961%,14.901961%);fill-opacity:1;" d="M 65.40625 49 L 65.40625 50.132812 L 65.460938 50.132812 Z M 65.40625 49 "/>
<path style=" stroke:none;fill-rule:nonzero;fill:rgb(40.392157%,39.215686%,18.431373%);fill-opacity:1;" d="M 38.21875 49.824219 C 37.738281 50.085938 38.007812 50.957031 38.566406 50.636719 C 38.984375 50.398438 38.707031 49.5625 38.21875 49.824219 Z M 38.21875 49.824219 "/>
<path style=" stroke:none;fill-rule:nonzero;fill:rgb(38.431373%,38.039216%,16.862745%);fill-opacity:1;" d="M 35.175781 50.054688 C 34.769531 50.148438 34.257812 50.53125 34.160156 50.953125 C 33.988281 51.71875 34.5625 52.558594 35.382812 52.375 C 36.394531 52.152344 36.496094 49.753906 35.175781 50.054688 Z M 35.175781 50.054688 "/>
<path style=" stroke:none;fill-rule:nonzero;fill:rgb(28.235294%,19.215686%,12.941176%);fill-opacity:1;" d="M 72.566406 50.101562 C 71.984375 50.1875 71.441406 50.597656 71.808594 51.257812 C 71.921875 51.457031 72.144531 51.554688 72.285156 51.730469 C 72.542969 52.058594 72.667969 52.460938 73.183594 52.382812 C 73.664062 52.3125 73.738281 51.792969 73.832031 51.414062 C 74.058594 50.519531 73.449219 49.976562 72.566406 50.101562 Z M 72.566406 50.101562 "/>
<path style=" stroke:none;fill-rule:nonzero;fill:rgb(30.196078%,30.196078%,12.156863%);fill-opacity:1;" d="M 21.117188 50.132812 L 21.0625 52.136719 L 21.117188 52.136719 C 21.117188 51.542969 21.347656 50.683594 21.117188 50.132812 Z M 21.117188 50.132812 "/>
<path style=" stroke:none;fill-rule:nonzero;fill:rgb(29.803922%,30.196078%,12.54902%);fill-opacity:1;" d="M 65.460938 50.132812 L 65.460938 54.652344 L 65.511719 54.652344 L 65.511719 51.519531 Z M 65.460938 50.132812 "/>
<path style=" stroke:none;fill-rule:nonzero;fill:rgb(33.333333%,33.72549%,14.901961%);fill-opacity:1;" d="M 31.003906 50.234375 L 31.003906 52.800781 L 31.054688 52.800781 C 31.054688 52.082031 31.28125 50.894531 31.003906 50.234375 Z M 31.003906 50.234375 "/>
<path style=" stroke:none;fill-rule:nonzero;fill:rgb(36.078431%,36.470588%,15.686275%);fill-opacity:1;" d="M 21.011719 52.496094 L 21.011719 53.316406 L 21.0625 53.316406 Z M 21.011719 52.496094 "/>
<path style=" stroke:none;fill-rule:nonzero;fill:rgb(41.176471%,41.960784%,19.215686%);fill-opacity:1;" d="M 30.953125 52.800781 L 30.953125 54.753906 L 31.003906 54.753906 C 31.003906 54.195312 31.167969 53.316406 30.953125 52.800781 Z M 30.953125 52.800781 "/>
<path style=" stroke:none;fill-rule:nonzero;fill:rgb(28.235294%,19.215686%,12.941176%);fill-opacity:1;" d="M 70.96875 53.085938 C 69.742188 53.316406 70.183594 55.527344 71.484375 55.199219 C 72.617188 54.917969 72.230469 52.847656 70.96875 53.085938 Z M 70.96875 53.085938 "/>
<path style=" stroke:none;fill-rule:nonzero;fill:rgb(32.941176%,33.333333%,14.117647%);fill-opacity:1;" d="M 20.960938 53.675781 L 20.960938 54.855469 L 21.011719 54.855469 Z M 20.960938 53.675781 "/>
<path style=" stroke:none;fill-rule:nonzero;fill:rgb(58.431373%,38.823529%,26.666667%);fill-opacity:1;" d="M 2.832031 53.828125 L 2.832031 53.984375 L 2.882812 53.984375 Z M 2.832031 53.828125 "/>
<path style=" stroke:none;fill-rule:nonzero;fill:rgb(100%,77.254902%,47.058824%);fill-opacity:1;" d="M 2.832031 53.984375 L 2.832031 54.292969 L 2.882812 54.292969 Z M 2.832031 53.984375 "/>
<path style=" stroke:none;fill-rule:nonzero;fill:rgb(41.568627%,41.960784%,19.215686%);fill-opacity:1;" d="M 27.914062 54.035156 L 27.914062 55.679688 L 27.964844 55.679688 Z M 27.914062 54.035156 "/>
<path style=" stroke:none;fill-rule:nonzero;fill:rgb(58.039216%,44.705882%,27.45098%);fill-opacity:1;" d="M 2.953125 54.582031 L 2.96875 54.617188 Z M 2.953125 54.582031 "/>
<path style=" stroke:none;fill-rule:nonzero;fill:rgb(100%,77.254902%,47.058824%);fill-opacity:1;" d="M 2.9375 54.652344 L 2.9375 54.910156 L 2.988281 54.910156 Z M 2.9375 54.652344 "/>
<path style=" stroke:none;fill-rule:nonzero;fill:rgb(38.039216%,38.431373%,16.862745%);fill-opacity:1;" d="M 65.511719 54.652344 L 65.511719 57.015625 L 65.5625 57.015625 C 65.5625 56.347656 65.769531 55.265625 65.511719 54.652344 Z M 65.511719 54.652344 "/>
<path style=" stroke:none;fill-rule:nonzero;fill:rgb(58.039216%,44.705882%,27.45098%);fill-opacity:1;" d="M 3.054688 55.199219 L 3.074219 55.234375 Z M 3.054688 55.199219 "/>
<path style=" stroke:none;fill-rule:nonzero;fill:rgb(100%,77.254902%,47.058824%);fill-opacity:1;" d="M 3.039062 55.269531 L 3.039062 55.523438 L 3.089844 55.523438 Z M 3.039062 55.269531 "/>
<path style=" stroke:none;fill-rule:nonzero;fill:rgb(29.019608%,29.411765%,11.764706%);fill-opacity:1;" d="M 20.910156 55.269531 L 20.910156 55.679688 L 20.960938 55.679688 Z M 20.910156 55.269531 "/>
<path style=" stroke:none;fill-rule:nonzero;fill:rgb(27.843137%,27.843137%,10.980392%);fill-opacity:1;" d="M 20.859375 55.679688 L 20.859375 56.859375 L 20.910156 56.859375 Z M 20.859375 55.679688 "/>
<path style=" stroke:none;fill-rule:nonzero;fill:rgb(36.470588%,36.862745%,16.078431%);fill-opacity:1;" d="M 27.863281 55.679688 L 27.863281 57.425781 L 27.914062 57.425781 Z M 27.863281 55.679688 "/>
<path style=" stroke:none;fill-rule:nonzero;fill:rgb(42.745098%,32.941176%,20%);fill-opacity:1;" d="M 3.160156 55.816406 L 3.175781 55.851562 Z M 3.160156 55.816406 "/>
<path style=" stroke:none;fill-rule:nonzero;fill:rgb(100%,77.254902%,47.058824%);fill-opacity:1;" d="M 3.140625 55.882812 L 3.191406 55.9375 Z M 3.140625 55.882812 "/>
<path style=" stroke:none;fill-rule:nonzero;fill:rgb(42.745098%,32.941176%,20%);fill-opacity:1;" d="M 3.261719 56.328125 L 3.277344 56.363281 Z M 3.261719 56.328125 "/>
<path style=" stroke:none;fill-rule:nonzero;fill:rgb(100%,77.254902%,47.058824%);fill-opacity:1;" d="M 3.246094 56.398438 L 3.296875 56.449219 Z M 3.246094 56.398438 "/>
<path style=" stroke:none;fill-rule:nonzero;fill:rgb(42.745098%,32.941176%,20%);fill-opacity:1;" d="M 3.363281 56.84375 L 3.382812 56.878906 Z M 3.363281 56.84375 "/>
<path style=" stroke:none;fill-rule:nonzero;fill:rgb(100%,77.254902%,47.058824%);fill-opacity:1;" d="M 3.347656 56.910156 L 3.347656 57.066406 L 3.398438 57.066406 Z M 3.347656 56.910156 "/>
<path style=" stroke:none;fill-rule:nonzero;fill:rgb(38.431373%,30.980392%,18.431373%);fill-opacity:1;" d="M 3.449219 57.269531 L 3.449219 57.425781 L 3.503906 57.425781 Z M 3.449219 57.269531 "/>
<path style=" stroke:none;fill-rule:nonzero;fill:rgb(40.392157%,41.176471%,18.823529%);fill-opacity:1;" d="M 20.808594 57.628906 L 20.808594 59.222656 L 20.859375 59.222656 Z M 20.808594 57.628906 "/>
<path style=" stroke:none;fill-rule:nonzero;fill:rgb(38.431373%,30.980392%,18.431373%);fill-opacity:1;" d="M 3.554688 57.734375 L 3.554688 57.9375 L 3.605469 57.9375 L 3.554688 57.734375 M 3.65625 58.144531 L 3.65625 58.351562 L 3.707031 58.351562 L 3.65625 58.144531 M 3.757812 58.554688 L 3.757812 58.761719 L 3.8125 58.761719 Z M 3.757812 58.554688 "/>
<path style=" stroke:none;fill-rule:nonzero;fill:rgb(27.843137%,27.843137%,11.372549%);fill-opacity:1;" d="M 20.753906 58.8125 L 20.753906 59.222656 L 20.808594 59.222656 Z M 20.753906 58.8125 "/>
<path style=" stroke:none;fill-rule:nonzero;fill:rgb(38.431373%,30.980392%,18.431373%);fill-opacity:1;" d="M 3.863281 58.964844 L 3.863281 59.171875 L 3.914062 59.171875 Z M 3.863281 58.964844 "/>
<path style=" stroke:none;fill-rule:nonzero;fill:rgb(43.921569%,35.294118%,21.176471%);fill-opacity:1;" d="M 3.984375 59.359375 L 4 59.394531 Z M 3.984375 59.359375 "/>
<path style=" stroke:none;fill-rule:nonzero;fill:rgb(100%,80.784314%,47.843137%);fill-opacity:1;" d="M 3.964844 59.429688 L 3.964844 59.632812 L 4.015625 59.632812 Z M 3.964844 59.429688 "/>
<path style=" stroke:none;fill-rule:nonzero;fill:rgb(31.764706%,25.490196%,15.294118%);fill-opacity:1;" d="M 4.035156 59.566406 L 4.050781 59.601562 Z M 4.035156 59.566406 "/>
<path style=" stroke:none;fill-rule:nonzero;fill:rgb(38.431373%,30.980392%,18.431373%);fill-opacity:1;" d="M 4.070312 59.738281 L 4.070312 59.890625 L 4.121094 59.890625 Z M 4.070312 59.738281 "/>
<path style=" stroke:none;fill-rule:nonzero;fill:rgb(39.607843%,40%,17.647059%);fill-opacity:1;" d="M 20.703125 64.308594 L 20.652344 63.539062 L 20.601562 63.539062 C 20.601562 63.785156 20.539062 64.125 20.632812 64.355469 C 20.828125 64.847656 21.785156 65.320312 22.199219 65.644531 C 23.710938 66.828125 25.269531 67.957031 26.78125 69.148438 C 31.527344 72.886719 36.375 76.519531 41.203125 80.152344 C 42.6875 81.269531 44.164062 82.402344 45.632812 83.539062 C 46.324219 84.082031 47.085938 84.871094 47.898438 85.214844 L 47.078125 76.6875 L 46.820312 73.964844 L 46.691406 72.695312 L 45.886719 72.050781 L 43.828125 70.523438 L 35.949219 64.679688 L 31.054688 61.035156 L 29.820312 60.136719 L 29.253906 59.78125 L 28.582031 60.089844 L 26.832031 61.027344 Z M 20.703125 64.308594 "/>
<path style=" stroke:none;fill-rule:nonzero;fill:rgb(25.882353%,25.882353%,8.627451%);fill-opacity:1;" d="M 47.84375 85.265625 C 48.632812 84.933594 49.375 84.179688 50.058594 83.667969 C 51.601562 82.515625 53.144531 81.363281 54.695312 80.226562 C 59.671875 76.566406 64.609375 72.855469 69.578125 69.1875 C 71.210938 67.984375 72.855469 66.785156 74.472656 65.558594 C 74.925781 65.214844 75.796875 64.808594 76.066406 64.304688 C 76.1875 64.085938 76.121094 63.730469 76.121094 63.488281 L 76.070312 63.488281 L 76.070312 64.207031 C 75.289062 64.050781 74.5625 63.519531 73.855469 63.167969 C 72.40625 62.449219 70.972656 61.699219 69.527344 60.960938 C 69 60.691406 68.46875 60.433594 67.953125 60.144531 C 67.746094 60.027344 67.398438 59.785156 67.160156 59.785156 C 66.957031 59.785156 66.746094 60.007812 66.59375 60.121094 C 66.183594 60.425781 65.769531 60.726562 65.355469 61.027344 C 63.742188 62.203125 62.128906 63.386719 60.515625 64.570312 C 57.859375 66.519531 55.164062 68.425781 52.53125 70.410156 C 51.871094 70.910156 51.199219 71.40625 50.523438 71.886719 C 50.226562 72.101562 49.742188 72.324219 49.546875 72.644531 C 49.402344 72.875 49.464844 73.195312 49.425781 73.449219 C 49.316406 74.214844 49.269531 75.003906 49.132812 75.761719 C 48.738281 77.925781 48.554688 80.152344 48.265625 82.335938 C 48.136719 83.304688 48.109375 84.320312 47.84375 85.265625 Z M 47.84375 85.265625 "/>
<path style=" stroke:none;fill-rule:nonzero;fill:rgb(31.764706%,25.490196%,15.294118%);fill-opacity:1;" d="M 4.1875 60.128906 L 4.207031 60.164062 Z M 4.1875 60.128906 "/>
<path style=" stroke:none;fill-rule:nonzero;fill:rgb(38.431373%,30.980392%,18.431373%);fill-opacity:1;" d="M 4.273438 60.40625 L 4.273438 60.609375 L 4.328125 60.609375 L 4.273438 60.40625 M 4.378906 60.765625 L 4.378906 60.917969 L 4.429688 60.917969 L 4.378906 60.765625 M 4.480469 61.070312 L 4.480469 61.226562 L 4.53125 61.226562 Z M 4.480469 61.070312 "/>
<path style=" stroke:none;fill-rule:nonzero;fill:rgb(31.764706%,25.490196%,15.294118%);fill-opacity:1;" d="M 4.601562 61.464844 L 4.617188 61.5 L 4.601562 61.464844 M 4.703125 61.773438 L 4.722656 61.808594 Z M 4.703125 61.773438 "/>
<path style=" stroke:none;fill-rule:nonzero;fill:rgb(27.45098%,27.45098%,10.980392%);fill-opacity:1;" d="M 20.601562 61.996094 L 20.601562 63.539062 L 20.652344 63.539062 Z M 20.601562 61.996094 "/>
<path style=" stroke:none;fill-rule:nonzero;fill:rgb(31.764706%,25.490196%,15.294118%);fill-opacity:1;" d="M 4.808594 62.082031 L 4.824219 62.117188 Z M 4.808594 62.082031 "/>
<path style=" stroke:none;fill-rule:nonzero;fill:rgb(38.431373%,30.980392%,18.431373%);fill-opacity:1;" d="M 4.894531 62.304688 L 4.894531 62.460938 L 4.945312 62.460938 L 4.894531 62.304688 M 4.996094 62.613281 L 4.996094 62.765625 L 5.046875 62.765625 Z M 4.996094 62.613281 "/>
<path style=" stroke:none;fill-rule:nonzero;fill:rgb(100%,80.784314%,47.843137%);fill-opacity:1;" d="M 5.097656 62.972656 L 5.097656 63.125 L 5.148438 63.125 Z M 5.097656 62.972656 "/>
<path style=" stroke:none;fill-rule:nonzero;fill:rgb(31.764706%,25.490196%,15.294118%);fill-opacity:1;" d="M 5.167969 63.058594 L 5.183594 63.09375 Z M 5.167969 63.058594 "/>
<path style=" stroke:none;fill-rule:nonzero;fill:rgb(38.431373%,30.980392%,18.431373%);fill-opacity:1;" d="M 5.21875 63.210938 L 5.234375 63.246094 Z M 5.21875 63.210938 "/>
<path style=" stroke:none;fill-rule:nonzero;fill:rgb(100%,80.784314%,47.843137%);fill-opacity:1;" d="M 5.203125 63.28125 L 5.203125 63.433594 L 5.253906 63.433594 Z M 5.203125 63.28125 "/>
<path style=" stroke:none;fill-rule:nonzero;fill:rgb(31.764706%,25.490196%,15.294118%);fill-opacity:1;" d="M 5.269531 63.367188 L 5.289062 63.402344 Z M 5.269531 63.367188 "/>
<path style=" stroke:none;fill-rule:nonzero;fill:rgb(38.431373%,30.980392%,18.431373%);fill-opacity:1;" d="M 5.304688 63.433594 L 5.304688 63.589844 L 5.355469 63.589844 Z M 5.304688 63.433594 "/>
<path style=" stroke:none;fill-rule:nonzero;fill:rgb(28.627451%,28.627451%,11.764706%);fill-opacity:1;" d="M 20.550781 63.539062 L 20.550781 64.359375 L 20.601562 64.359375 Z M 20.550781 63.539062 "/>
</g>
</svg>